<svg width="24" height="24" viewBox="0 0 24 24" fill="none" xmlns="http://www.w3.org/2000/svg">
<path d="M20.3 13.5H23.5V10.5H20.3C20.1 9.6 19.7 8.3 19.3 7.6L21.6 5.3L18.8 2.5L16.5 4.8C15.8 4.3 14.4 4 13.6 3.8V0.5H10.6V3.7C9.6 4 8.3 4.3 7.6 4.8L5.3 2.5L2.5 5.3L4.8 7.6C4.3 8.3 4 9.7 3.8 10.5H0.5V13.5H3.7C3.9 14.4 4.3 15.7 4.7 16.4L2.4 18.7L5.2 21.5L7.5 19.2C8.2 19.7 9.6 20 10.4 20.2V23.4H13.4V20.2C14.3 20 15.6 19.6 16.3 19.2L18.6 21.5L21.4 18.7L19.1 16.4C19.7 15.7 20 14.4 20.3 13.5Z" stroke="white" stroke-width="1.5" stroke-miterlimit="10" stroke-linecap="round" stroke-linejoin="round"/>
<path d="M12 16.5C14.4853 16.5 16.5 14.4853 16.5 12C16.5 9.51472 14.4853 7.5 12 7.5C9.51472 7.5 7.5 9.51472 7.5 12C7.5 14.4853 9.51472 16.5 12 16.5Z" stroke="white" stroke-width="1.5" stroke-miterlimit="10" stroke-linecap="round" stroke-linejoin="round"/>
</svg>
