<svg width="24" height="23" viewBox="0 0 24 23" fill="none" xmlns="http://www.w3.org/2000/svg">
<path d="M10 21.5H19C19 21.5 19 18.1 18.5 16.7C18.1 15.5 15.1 14.6 12 13.4V10.9C12 10.9 13 10.3 13 7.89998C14 7.89998 14 5.89998 13 5.89998C13 5.69998 14.1 4.19998 13.8 2.89998C13.3 0.999976 7.6 0.999976 7.1 2.89998C4.7 2.39998 6 5.59998 6 5.89998V7.89998C6 10.3 8 10.9 8 10.9V13.4C5.2 14.5 1.9 15.4 1.5 16.7C1 18.1 1 21.5 1 21.5H10Z" stroke="white" stroke-width="1.5" stroke-miterlimit="10" stroke-linejoin="round"/>
<path d="M18.5 21.5H23C23 21.5 23 18.1 22.5 16.7C22.1 15.5 19.1 14.1 16 12.9V11.4C16 11.4 17 10.8 17 8.40003C18 8.40003 18 6.40003 17 6.40003C17 6.20003 18.1 4.50003 17.8 3.20003C17.6 2.30003 15.7 0.900035 14.2 1.90003" stroke="white" stroke-width="1.5" stroke-miterlimit="10" stroke-linecap="round" stroke-linejoin="round"/>
</svg>
