<svg width="90" height="90" viewBox="0 0 90 90" fill="none" xmlns="http://www.w3.org/2000/svg">
<path d="M45 88.5C69.0244 88.5 88.5 69.0244 88.5 45C88.5 20.9756 69.0244 1.5 45 1.5C20.9756 1.5 1.5 20.9756 1.5 45C1.5 69.0244 20.9756 88.5 45 88.5Z" fill="white"/>
<path d="M45 88.5C69.0244 88.5 88.5 69.0244 88.5 45C88.5 20.9756 69.0244 1.5 45 1.5C20.9756 1.5 1.5 20.9756 1.5 45C1.5 69.0244 20.9756 88.5 45 88.5Z" stroke="#4D5152" stroke-width="2" stroke-linejoin="round"/>
<path d="M45 78C63.2254 78 78 63.2254 78 45C78 26.7746 63.2254 12 45 12C26.7746 12 12 26.7746 12 45C12 63.2254 26.7746 78 45 78Z" fill="url(#paint0_linear)"/>
<path d="M57 66L72 70.5L76.5 75C60 92.4 32.4 93 15 76.5C14.55 76.05 13.95 75.45 13.5 75L18 70.5L33 66" fill="url(#paint1_linear)"/>
<path d="M51 72L45 69L39 72L33 66L36 61.5H37.5V55.5L45 57L52.5 55.5V61.5H54L57 66L51 72Z" fill="white"/>
<path d="M51 72L45 69L39 72L33 66L36 61.5L45 63L54 61.5L57 66L51 72Z" stroke="#4D5152" stroke-width="2" stroke-miterlimit="10"/>
<path d="M52.5 55.5V61.5" stroke="#4D5152" stroke-width="2" stroke-miterlimit="10"/>
<path d="M37.5 61.5V55.5" stroke="#4D5152" stroke-width="2" stroke-miterlimit="10"/>
<path d="M43.5 76.5H46.5" stroke="#4D5152" stroke-width="2" stroke-miterlimit="10"/>
<path d="M43.5 82.5H46.5" stroke="#4D5152" stroke-width="2" stroke-miterlimit="10"/>
<path d="M58.5 36V42C57 52.5 52.5 55.5 52.5 55.5C47.7 57.45 42.3 57.45 37.5 55.5C37.5 55.5 33 52.5 31.5 42V36L37.5 33L52.5 39L58.5 36Z" fill="white"/>
<path d="M31.5 36C31.5 26.85 35.85 22.5 45 22.5C54.15 22.5 58.5 26.85 58.5 36L52.5 39L45 36L37.5 33L31.5 36Z" fill="#FFB957"/>
<path d="M58.5 36V42C57 52.5 52.5 55.5 52.5 55.5C47.7 57.45 42.3 57.45 37.5 55.5C37.5 55.5 33 52.5 31.5 42V36" stroke="#4D5152" stroke-width="2" stroke-miterlimit="10"/>
<path d="M31.5 36C31.5 26.85 35.85 22.5 45 22.5C54.15 22.5 58.5 26.85 58.5 36" stroke="#4D5152" stroke-width="2" stroke-miterlimit="10"/>
<path d="M31.5 36L37.5 33L45 36L52.5 39L58.5 36" stroke="#4D5152" stroke-width="2" stroke-miterlimit="10"/>
<path d="M57 66L72 70.5L76.5 75C60 92.4 32.4 93 15 76.5C14.55 76.05 13.95 75.45 13.5 75L18 70.5L33 66" stroke="#4D5152" stroke-width="2" stroke-linejoin="round"/>
<defs>
<linearGradient id="paint0_linear" x1="78" y1="78" x2="44.9517" y2="-6.81056" gradientUnits="userSpaceOnUse">
<stop stop-color="#36D4BE"/>
<stop offset="1" stop-color="#F2BB31"/>
</linearGradient>
<linearGradient id="paint1_linear" x1="76.5" y1="88.4747" x2="71.9634" y2="55.8399" gradientUnits="userSpaceOnUse">
<stop stop-color="#36D4BE"/>
<stop offset="1" stop-color="#F2BB31"/>
</linearGradient>
</defs>
</svg>
