<svg width="75" height="100" viewBox="0 0 75 100" fill="none" xmlns="http://www.w3.org/2000/svg">
<path d="M73.4375 7.8125H1.5625V98.4375H73.4375V7.8125Z" fill="url(#paint0_linear)"/>
<path d="M59.375 14.0625H64.0625V89.0625H10.9375V14.0625H15.625" fill="white"/>
<path d="M73.4375 7.8125H1.5625V98.4375H73.4375V7.8125Z" stroke="#4D5152" stroke-width="2" stroke-linejoin="round"/>
<path d="M54.6875 1.5625H20.3125V17.1875H54.6875V1.5625Z" fill="#17BCB2"/>
<path d="M54.6875 1.5625H20.3125V17.1875H54.6875V1.5625Z" stroke="#4D5152" stroke-width="2" stroke-linejoin="round"/>
<path d="M59.375 14.0625H64.0625V89.0625H10.9375V14.0625H15.625" stroke="#4D5152" stroke-width="2" stroke-linejoin="round"/>
<path d="M42.1875 42.1875L56.25 48.4375V53.125C56.25 55.7812 54.6875 57.8125 53.125 57.8125H21.875C20.3125 57.8125 18.75 55.7812 18.75 53.125V48.4375L32.8125 42.1875" fill="url(#paint1_linear)"/>
<path d="M45.3125 32.0312C45.3125 37.5 42.1875 43.75 37.5 43.75C32.8125 43.75 29.6875 37.5 29.6875 32.0312C29.6875 26.5625 31.25 23.4375 37.5 23.4375C43.75 23.4375 45.3125 26.5625 45.3125 32.0312Z" fill="#FFB957"/>
<path d="M20.3125 64.0625H54.6875" stroke="#4D5152" stroke-width="2" stroke-miterlimit="10"/>
<path d="M20.3125 70.3125H54.6875" stroke="#4D5152" stroke-width="2" stroke-miterlimit="10"/>
<path d="M20.3125 76.5625H39.0625" stroke="#4D5152" stroke-width="2" stroke-miterlimit="10"/>
<path d="M25 7.8125H50" stroke="#4D5152" stroke-width="2" stroke-linejoin="round"/>
<defs>
<linearGradient id="paint0_linear" x1="73.4375" y1="98.4375" x2="20.3484" y2="-9.61523" gradientUnits="userSpaceOnUse">
<stop stop-color="#36D4BE"/>
<stop offset="1" stop-color="#F2BB31"/>
</linearGradient>
<linearGradient id="paint1_linear" x1="56.25" y1="57.8125" x2="52.5915" y2="35.2795" gradientUnits="userSpaceOnUse">
<stop stop-color="#36D4BE"/>
<stop offset="1" stop-color="#F2BB31"/>
</linearGradient>
</defs>
</svg>
