<svg width="460" height="494" viewBox="0 0 460 494" fill="none" xmlns="http://www.w3.org/2000/svg">
<g clip-path="url(#clip0)">
<path opacity="0.15" d="M442.704 316.9L307.071 238.66C302.52 235.931 295.237 235.931 290.989 238.66L3.33766 404.54C-1.21379 407.269 -1.21379 411.212 3.33766 413.941L138.971 492.18C143.522 494.91 150.805 494.91 155.053 492.18L442.704 326.301C447.256 323.571 447.256 319.326 442.704 316.9Z" fill="#6B99D1"/>
<path opacity="0.15" d="M30.0394 327.211L55.831 312.351C73.4299 302.344 97.7044 299.918 110.145 306.893C122.586 314.171 118.338 328.12 100.739 338.128L74.9471 352.987C57.3482 362.994 33.0737 365.42 20.6331 358.446C8.19248 351.471 12.4405 337.521 30.0394 327.211Z" fill="#1CBA9B"/>
<path d="M60.9894 304.77C59.7757 308.105 61.2928 310.835 62.2031 313.867C64.0237 319.326 63.7203 326.907 63.7203 326.907C64.0237 327.514 66.4512 327.817 67.058 326.604C67.058 326.604 66.7546 314.17 70.0923 315.383L60.9894 304.77Z" fill="#2D2979"/>
<path d="M88.9051 323.874C85.5674 319.022 80.1056 303.253 79.1953 299.614C78.5885 298.098 77.3748 295.065 77.6782 291.73C77.6782 286.271 79.4988 271.108 79.4988 271.108H66.4513L66.7547 290.82C66.7547 293.852 66.4513 294.762 65.8444 296.885C65.2376 298.704 63.417 302.647 62.8101 304.466C62.2033 306.892 60.9895 309.318 64.9341 312.351C68.5753 315.383 71.0027 317.203 73.4302 320.235C75.8576 323.268 75.5542 327.21 79.4988 330.849C83.4434 334.488 90.7257 331.759 92.2428 330.546C93.76 328.727 93.1531 327.21 88.9051 323.874Z" fill="#FFA8A7"/>
<path d="M88.298 328.12C80.1054 330.243 78.2849 329.03 75.8574 319.629C74.0368 312.351 72.5197 307.499 69.182 304.466C65.5408 301.13 65.2374 299.311 65.2374 296.885C64.3271 296.885 64.0236 297.491 63.4168 299.311C62.2031 303.556 60.6859 303.556 60.6859 306.589C60.6859 309.621 62.5065 312.047 64.9339 313.564C68.5751 315.99 69.4854 316.899 71.306 320.539C73.43 324.784 72.8231 329.333 74.3403 332.972C80.1054 337.521 86.174 340.25 95.5804 336.005C97.401 331.152 98.9181 329.03 88.9049 323.874C90.7255 325.997 91.3323 327.21 88.298 328.12Z" fill="#2D2979"/>
<path d="M38.8391 310.229C37.9288 312.352 36.4117 314.778 36.7151 320.54C37.322 326.301 38.5357 325.088 37.9288 332.67C37.6254 337.522 35.5014 343.284 37.9288 346.923C42.1769 351.168 53.7072 350.562 55.8312 348.439C56.4381 346.316 57.0449 344.497 56.7415 342.677C56.4381 341.161 54.0106 339.341 53.4038 337.825C53.1003 336.612 52.7969 335.096 52.1901 332.973C50.6729 326.301 49.1558 310.229 49.1558 310.229H38.8391Z" fill="#2D2979"/>
<path d="M47.6386 340.251C45.2112 340.251 42.4803 339.341 42.4803 339.341C41.57 339.038 40.9632 337.825 40.9632 336.308C40.3563 332.669 41.57 328.424 40.0529 323.268C38.5357 318.113 38.2323 315.384 38.8392 309.925C39.7495 304.467 39.1426 296.279 39.1426 296.279L50.0661 295.976C50.0661 295.976 49.4592 305.073 49.7627 309.622C49.7627 314.171 50.6729 329.03 51.5832 333.882C52.1901 336.308 52.4935 337.218 52.1901 338.128C52.1901 338.734 51.2798 339.947 47.6386 340.251Z" fill="#FFA8A7"/>
<path d="M65.5408 3.0324C63.1133 -0.909894 44.3007 -3.63918 37.9287 12.4333C35.5012 18.4983 35.8046 33.9643 33.9841 43.6684C31.8601 53.3725 27.3086 58.8311 25.7915 66.7156C24.2743 74.6002 26.7017 87.9434 45.8178 90.0662C64.9339 92.4922 79.4986 85.8206 84.05 79.7555C88.6015 73.6905 88.6015 60.9538 84.05 53.979C79.4986 47.0042 75.8574 41.5456 75.8574 32.448L65.5408 3.0324Z" fill="#543354"/>
<path d="M160.514 109.475C158.087 110.385 155.66 110.081 152.322 111.598C149.288 112.811 147.467 113.72 144.433 114.024C141.398 114.327 132.599 111.598 124.71 107.352C115.303 102.5 105.594 93.7056 101.649 89.1568C93.4564 79.4527 84.6569 64.8965 81.9261 59.438C78.5883 53.0696 74.3403 51.8566 70.3957 52.4631C65.8443 53.0696 63.7203 55.7989 68.5751 64.5933C73.43 73.3876 83.1398 88.5503 92.5461 98.5577C97.0976 103.41 104.683 110.385 116.517 116.45C125.013 120.695 132.295 123.121 141.398 125.547C143.826 126.154 145.646 127.367 150.198 128.883C154.749 130.703 160.514 131.612 164.459 131.006C168.404 130.399 169.921 129.49 170.224 128.58C170.528 127.367 169.617 126.76 167.797 127.064C165.976 127.064 162.942 127.67 158.997 126.457C158.997 126.457 163.245 126.457 165.673 126.154C168.1 125.85 170.528 125.244 172.045 124.637C174.169 123.728 174.776 120.695 172.955 120.695C171.135 120.695 169.617 121.302 165.976 121.605C162.638 121.908 160.211 121.302 160.211 121.302C160.211 121.302 164.156 120.695 167.493 119.785C170.831 118.876 171.741 117.663 172.652 116.753C173.259 115.843 173.259 114.024 170.831 114.327C168.707 114.63 166.28 116.146 162.032 116.146C158.997 116.146 156.873 115.843 157.177 115.237C157.48 114.933 159.301 114.933 161.728 113.72C163.852 112.507 165.369 110.081 164.762 108.868C162.942 107.655 162.942 108.565 160.514 109.475Z" fill="#FFA8A7"/>
<path d="M65.2374 3.33595C65.2374 3.33595 71.9129 -2.42587 80.1055 5.76197C85.2638 10.9173 84.9604 21.2279 84.0501 25.4735C82.8364 30.0223 78.5883 35.4808 75.2506 35.7841C71.6095 36.0873 65.2374 3.33595 65.2374 3.33595Z" fill="#543354"/>
<path d="M31.5567 143.742C27.6121 160.724 33.0739 187.107 33.9842 201.057C34.8944 215.007 36.1082 231.079 36.1082 231.079C36.1082 231.079 31.8601 245.635 32.1636 256.856C32.467 268.682 39.4459 302.95 39.4459 302.95C39.4459 302.95 43.9973 306.286 49.7625 302.95C49.7625 302.95 51.5831 273.534 53.1002 259.585C54.6174 245.332 55.2243 235.021 56.7414 226.53C58.562 216.22 62.5066 160.421 62.5066 160.421L63.1134 168.912L68.2718 223.801C68.2718 223.801 64.6306 231.685 64.6306 238.054C64.6306 246.848 66.4512 287.787 66.4512 287.787C66.4512 287.787 71.3061 291.426 77.3747 287.787C77.3747 287.787 85.8707 231.685 87.0844 225.014C88.2981 218.949 90.7256 155.569 85.8707 141.013L31.5567 143.742Z" fill="#FFA8A7"/>
<path d="M47.6385 39.1196C47.6385 39.1196 48.5488 54.8888 48.2454 56.1018C47.9419 57.3148 42.1768 58.5279 40.3562 59.7409C38.839 61.2571 48.8522 77.0263 54.314 79.4524C59.4723 81.8784 75.8575 75.8133 76.7678 67.6255C77.6781 60.3474 72.2163 54.5856 70.0923 52.4628C68.5752 52.1595 66.1477 52.4628 65.5409 52.4628L64.934 44.8814C57.9551 42.4554 47.6385 39.1196 47.6385 39.1196Z" fill="#FFA8A7"/>
<path d="M45.5146 57.6177C40.9632 58.2242 36.1083 60.6503 35.198 63.0763C34.2877 65.8056 32.7706 79.452 36.4117 89.4594C40.3563 99.77 44.9078 106.442 47.0318 110.99C47.0318 110.99 64.0239 116.146 79.4988 106.442C79.4988 106.442 81.0159 98.2537 81.0159 92.1886C95.2772 79.7552 83.1399 64.2893 71.0027 52.4624C69.789 52.1592 67.665 52.4624 66.7547 52.4624C66.7547 52.4624 74.037 70.6576 70.0925 72.4772C64.3273 74.9032 50.6729 60.347 45.5146 57.6177Z" fill="#F5FBFB"/>
<path d="M65.5408 50.9465L65.2374 44.8814L60.0791 43.3652L47.6384 39.1196C47.6384 39.1196 47.6384 41.8489 47.9419 43.9717C47.9419 43.9717 48.5487 49.4303 57.3482 53.6758C59.1688 54.2823 64.9339 54.8888 65.5408 50.9465Z" fill="#F28F8F"/>
<path d="M77.3746 19.4083C75.8574 9.09768 68.2717 1.51634 57.955 2.12284C46.7281 2.72935 38.2321 12.4335 38.8389 23.3506C39.1424 30.0222 42.7835 35.4807 47.6384 38.8165C47.6384 38.8165 48.5487 42.4556 49.1556 43.3653C52.7967 47.6109 62.8099 50.3402 66.1476 50.3402C68.8785 50.3402 71.306 47.6109 74.0368 43.3653C79.4986 34.571 78.2848 24.2604 77.3746 19.4083Z" fill="#FFA8A7"/>
<path d="M76.4643 13.0395C71.9128 3.94189 63.1133 0.6061 54.6173 2.42562C47.335 3.94189 41.5698 9.40045 39.7492 16.6785C37.0183 26.0794 41.2664 34.5705 47.9418 39.1193C47.6384 38.5128 42.4801 30.6282 47.9418 28.8087C47.9418 29.4152 48.2452 32.4477 48.5487 34.2672C48.5487 34.2672 51.2795 34.5705 50.9761 31.2347C50.9761 30.3249 50.6727 28.8087 50.6727 28.2022C50.6727 25.7761 50.6727 24.2599 51.8864 22.1371C52.4933 21.2273 52.7967 20.3176 53.1001 19.1046C54.0104 16.3753 56.1344 13.9493 58.8653 12.7362C61.5962 11.8265 65.2373 12.1297 69.1819 16.6785C73.1265 9.40045 75.2505 11.8265 76.4643 13.0395Z" fill="#543354"/>
<path d="M47.6385 39.1192C47.6385 39.1192 47.0317 40.0289 45.2111 40.3322C41.5699 40.6355 37.3219 33.6606 40.0528 29.1118C41.8734 26.0793 46.1214 27.2923 47.3351 28.8086L47.6385 39.1192Z" fill="#FFA8A7"/>
<path d="M46.1214 108.868C47.3351 110.991 47.3351 114.024 43.694 119.179C40.0528 124.334 32.7705 134.948 31.5568 143.742C34.5911 146.775 38.5357 153.143 50.9763 154.963C68.8787 157.692 82.533 149.807 86.781 145.259C86.781 145.259 86.4776 137.677 83.4433 124.031C81.6227 115.843 80.409 112.811 79.8021 106.442C78.8919 100.074 46.1214 108.868 46.1214 108.868Z" fill="#F5FBFB"/>
<path d="M45.211 115.54C43.087 118.875 41.5699 121.908 37.6253 127.367C33.9841 132.522 26.7018 143.742 28.5224 163.454C29.7361 176.19 36.1081 231.079 36.1081 231.079C36.1081 231.079 32.7704 240.48 31.8601 252.307C30.9498 264.134 39.1424 303.254 39.1424 303.254C39.1424 303.254 40.963 305.073 44.9076 305.073C48.8522 305.073 50.0659 302.95 50.0659 302.95C50.0659 302.95 51.5831 281.116 52.1899 269.592C53.1002 258.069 54.9208 240.177 55.5277 235.628C56.1345 231.079 57.6517 223.195 58.2585 214.4C58.8654 205.606 62.2031 160.724 62.2031 160.724L62.81 169.216C62.81 169.216 63.1134 182.862 65.2374 199.844C67.058 216.826 67.9683 224.104 67.9683 224.104C67.9683 224.104 64.6306 230.473 64.0237 235.022C63.7203 239.57 66.1477 288.091 66.1477 288.091C66.1477 288.091 67.6649 290.82 72.2163 291.123C76.7678 291.73 77.9815 290.214 77.9815 290.214C77.9815 290.214 84.9604 239.57 85.8707 234.415C86.7809 229.26 87.3878 226.53 88.2981 210.458C89.2084 194.082 88.905 158.905 87.3878 145.865C85.8707 133.128 81.0158 114.327 81.0158 114.327C81.0158 114.327 74.9472 117.359 66.7546 117.966C58.562 117.966 45.211 115.54 45.211 115.54Z" fill="url(#paint0_linear)"/>
<path d="M81.3191 145.258C81.3191 145.258 79.4986 149.504 74.3402 154.053C69.1819 158.601 62.5065 160.421 62.5065 160.421L63.1133 168.912C63.1133 168.912 63.4168 182.558 65.5408 199.541C66.7545 208.638 67.3613 215.007 67.6648 218.949L66.7545 163.757C79.4986 157.995 81.3191 145.258 81.3191 145.258Z" fill="#29BEA1"/>
<path d="M46.7283 110.688C46.7283 110.688 58.2587 114.024 66.4513 113.417C75.5542 112.507 78.5885 110.081 79.8022 108.262C79.8022 108.262 81.3193 111.598 81.0159 113.72C77.0713 118.269 71.913 119.482 64.6307 119.482C56.1346 119.482 46.7283 116.45 45.5146 115.237C45.2112 115.54 46.4249 112.811 46.7283 110.688Z" fill="#29BEA1"/>
<path d="M49.7625 168.306C47.6385 166.789 46.4247 164.667 43.087 162.847C40.3561 161.331 38.5356 160.118 36.4116 157.995C34.2875 155.872 31.5567 146.775 30.0395 137.98C28.5224 127.67 30.0395 114.327 31.2532 108.565C34.2875 96.4345 40.963 80.6654 43.6939 75.2068C47.0316 68.8385 45.8179 64.2897 42.4802 61.8636C38.839 59.1344 35.1978 60.3474 31.5567 67.3222C27.3086 76.1166 20.6332 93.402 18.2057 106.745C16.992 113.113 15.7783 123.424 17.9023 136.464C19.4195 145.865 21.5435 153.143 25.1846 161.634C26.0949 164.06 26.3984 165.88 27.6121 170.732C28.8258 175.584 31.5567 180.739 34.2875 183.468C37.3218 186.198 38.839 186.804 39.4459 186.501C40.3561 186.198 40.3561 184.985 39.1424 183.468C37.9287 181.952 35.8047 179.829 34.2875 175.887C34.2875 175.887 36.715 179.223 38.2321 181.042C39.7493 182.862 41.8733 184.378 43.087 185.288C44.9076 186.501 47.9419 185.288 46.7282 183.772C45.5145 182.255 44.3007 181.346 41.8733 178.616C39.7493 176.19 38.5356 173.764 38.5356 173.764C38.5356 173.764 41.2664 176.797 43.9973 178.616C46.7282 180.739 48.2453 180.739 49.459 181.042C50.3693 181.042 51.8865 179.829 50.3693 178.313C48.8522 176.797 46.4247 175.584 43.9973 172.248C42.1767 169.822 41.2664 168.002 41.8733 168.002C42.4802 168.002 43.3904 169.519 45.8179 170.732C47.9419 171.945 50.9762 171.641 51.5831 170.428C52.7968 169.519 51.8865 169.822 49.7625 168.306Z" fill="#FFA8A7"/>
<g opacity="0.9">
<path opacity="0.8" d="M373.826 86.4275L453.932 40.3329C456.662 38.8167 458.786 40.0297 458.786 43.0622V100.984C458.786 104.016 456.662 107.655 453.932 109.172L373.826 155.266C371.095 156.782 368.971 155.569 368.971 152.537V94.9186C368.971 91.8861 371.095 87.9438 373.826 86.4275Z" fill="#57F7E0"/>
<path d="M373.826 86.4275L453.932 40.3329C456.662 38.8167 458.786 40.0297 458.786 43.0622V100.984C458.786 104.016 456.662 107.655 453.932 109.172L373.826 155.266C371.095 156.782 368.971 155.569 368.971 152.537V94.9186C368.971 91.8861 371.095 87.9438 373.826 86.4275Z" fill="url(#paint1_linear)"/>
<path opacity="0.8" d="M378.984 95.2218L411.451 76.4201C412.665 75.5103 413.879 76.4201 413.879 77.9364C413.879 79.4526 412.665 81.2722 411.451 82.1819L378.984 100.984C377.771 101.893 376.557 100.984 376.557 99.4674C376.557 97.6478 377.467 95.8283 378.984 95.2218Z" fill="#0B3FA5"/>
<path opacity="0.8" d="M420.554 70.9613L448.47 54.8889C449.683 53.9791 450.897 54.8889 450.897 56.4051C450.897 57.9214 449.683 59.7409 448.47 60.6507L420.554 76.7231C419.34 77.6329 418.127 76.7231 418.127 75.2068C418.43 73.6906 419.34 71.8711 420.554 70.9613Z" fill="#0B3FA5"/>
<g opacity="0.8">
<g opacity="0.8">
<g opacity="0.8">
<path opacity="0.8" d="M378.984 121.605L411.451 102.803C412.665 101.894 413.879 102.803 413.879 104.32C413.879 105.836 412.665 107.655 411.451 108.565L378.984 127.367C377.771 128.277 376.557 127.367 376.557 125.851C376.557 124.334 377.467 122.515 378.984 121.605Z" fill="#0B3FA5"/>
</g>
<g opacity="0.8">
<path opacity="0.8" d="M420.554 97.6483L448.47 81.5759C449.683 80.6661 450.897 81.5759 450.897 83.0921C450.897 84.6084 449.683 86.4279 448.47 87.3377L420.554 103.41C419.34 104.32 418.127 103.41 418.127 101.894C418.43 100.074 419.34 98.2548 420.554 97.6483Z" fill="#0B3FA5"/>
</g>
</g>
</g>
<g opacity="0.8">
<g opacity="0.8">
<g opacity="0.8">
<path opacity="0.8" d="M378.984 108.565L396.583 98.2546C397.797 97.3448 399.011 98.2546 399.011 99.7708C399.011 101.287 397.797 103.107 396.583 104.016L378.984 114.327C377.771 115.237 376.557 114.327 376.557 112.811C376.557 110.991 377.467 109.172 378.984 108.565Z" fill="#0B3FA5"/>
</g>
<g opacity="0.8">
<path opacity="0.8" d="M404.472 93.7062L419.34 84.9118C420.554 84.002 421.768 84.9118 421.768 86.4281C421.768 87.9443 420.554 89.7639 419.34 90.6736L404.472 99.468C403.259 100.378 402.045 99.468 402.045 97.9517C402.045 96.4354 402.955 94.6159 404.472 93.7062Z" fill="#0B3FA5"/>
</g>
<g opacity="0.8">
<path opacity="0.8" d="M427.837 80.0593L448.774 67.9292C449.987 67.3227 451.201 67.9292 451.201 69.4455C451.201 70.9617 449.987 72.7813 448.774 73.691L427.837 85.8212C426.623 86.4277 425.409 85.8212 425.409 84.3049C425.409 82.7886 426.623 80.9691 427.837 80.0593Z" fill="#0B3FA5"/>
</g>
</g>
</g>
<g opacity="0.8">
<g opacity="0.8">
<g opacity="0.8">
<path opacity="0.8" d="M378.984 135.252L407.507 118.876C408.72 118.269 409.934 118.876 409.934 120.392C409.934 121.909 408.72 123.728 407.507 124.638L378.984 141.013C377.771 141.923 376.557 141.013 376.557 139.497C376.557 137.678 377.467 135.858 378.984 135.252Z" fill="#0B3FA5"/>
</g>
<g opacity="0.8">
<path opacity="0.8" d="M415.092 114.327L429.96 105.533C431.174 104.623 432.388 105.533 432.388 107.049C432.388 108.565 431.174 110.385 429.96 111.295L415.092 120.089C413.879 120.999 412.665 120.089 412.665 118.573C412.665 116.753 413.879 114.934 415.092 114.327Z" fill="#0B3FA5"/>
</g>
<g opacity="0.8">
<path opacity="0.8" d="M438.457 100.681L448.47 94.9189C449.684 94.3124 450.897 94.9189 450.897 96.4352C450.897 97.9515 449.684 99.771 448.47 100.681L438.457 106.443C437.243 107.049 436.029 106.443 436.029 104.926C436.029 103.41 437.243 101.287 438.457 100.681Z" fill="#0B3FA5"/>
</g>
</g>
</g>
</g>
<path d="M446.042 301.738V283.543L425.409 292.337L300.699 219.859C296.148 217.13 288.865 217.13 284.617 219.859L47.6385 356.627L0 371.183V389.378C0 391.198 1.21372 392.714 3.33773 393.927L138.971 472.166C143.522 474.896 150.805 474.896 155.053 472.166L442.704 306.287C445.132 305.074 446.346 303.254 446.042 301.738Z" fill="#74FFE4"/>
<path d="M0 371.183V389.379C0 391.198 1.21372 392.714 3.33773 393.927L138.971 472.167C141.095 473.38 144.129 473.986 147.164 473.986V390.288L68.8786 343.891L47.6385 356.324L0 371.183Z" fill="#18E9C1"/>
<path d="M426.319 283.846L392.942 264.741C389.908 262.921 385.053 262.921 382.018 264.741L380.198 265.954C377.164 267.773 372.309 267.773 369.274 265.954L329.828 242.603C326.794 240.784 326.794 238.055 329.828 236.235L331.649 235.022C334.683 233.203 334.683 230.473 331.649 228.654L297.968 209.246C294.934 207.426 290.079 207.426 287.045 209.246L19.4195 364.208C16.3852 366.028 16.3852 368.757 19.4195 370.576L147.77 444.57C150.805 446.39 155.66 446.39 158.694 444.57L426.319 290.214C429.354 288.395 429.354 285.665 426.319 283.846Z" fill="#031F60"/>
<path d="M387.784 261.405L431.781 286.879L425.712 298.099L387.784 276.265V261.405Z" fill="#1E3779"/>
<path d="M292.506 221.376V206.516L337.111 232.293L324.367 239.571L292.506 221.376Z" fill="#1E3779"/>
<path d="M158.694 444.571L425.105 290.821L392.942 272.323C389.907 270.503 385.053 270.503 382.018 272.323L380.198 273.536C377.163 275.355 372.308 275.355 369.274 273.536L329.525 250.489C326.491 248.669 326.491 245.94 329.525 244.12L330.739 243.514L329.525 242.907C326.491 241.088 326.491 238.358 329.525 236.539L330.435 236.236L297.968 217.434C294.934 215.614 290.079 215.614 287.045 217.434L20.6331 371.184L148.074 444.571C151.108 446.39 155.659 446.39 158.694 444.571Z" fill="#344593"/>
<path d="M392.942 272.019C389.908 270.199 385.053 270.199 382.018 272.019L380.198 273.232C377.164 275.051 372.309 275.051 369.274 273.232L329.525 250.185C326.491 248.365 326.491 245.636 329.525 243.816L330.739 243.21L329.525 242.603C326.491 240.784 326.491 238.055 329.525 236.235L330.435 235.932L297.968 217.13C296.451 216.22 294.631 215.917 292.507 215.917C292.507 215.917 310.409 260.799 295.237 307.803C280.976 351.775 198.443 420.613 165.369 440.628L425.409 290.517L392.942 272.019Z" fill="#2B3D89"/>
<path d="M327.401 239.571V247.153C327.401 248.366 328.311 249.579 329.525 250.185L369.274 273.232C370.791 274.142 372.612 274.445 375.039 274.445V264.741L327.401 239.571Z" fill="#1E3779"/>
<path d="M442.704 278.691L307.071 200.451C302.52 197.722 295.237 197.722 290.989 200.451L3.33766 366.331C-1.21379 369.06 -1.21379 373.003 3.33766 375.732L138.971 453.971C143.522 456.701 150.805 456.701 155.053 453.971L442.704 288.092C447.256 285.666 447.256 281.42 442.704 278.691ZM426.319 289.911L158.694 444.267C155.66 446.087 150.805 446.087 147.77 444.267L19.4195 370.576C16.3852 368.757 16.3852 366.028 19.4195 364.208L287.045 209.852C290.079 208.033 294.934 208.033 297.968 209.852L331.649 229.26C334.683 231.08 334.683 233.809 331.649 235.629L329.828 236.842C326.794 238.661 326.794 241.39 329.828 243.21L369.578 266.257C372.612 268.077 377.467 268.077 380.501 266.257L382.322 265.044C385.356 263.225 390.211 263.225 393.245 265.044L426.623 284.149C429.353 285.665 429.353 288.395 426.319 289.911Z" fill="#BEFFF2"/>
<g opacity="0.4">
<path opacity="0.4" d="M113.18 310.229L136.544 296.886H124.103L100.739 310.229H113.18Z" fill="#FAFDFF"/>
<path opacity="0.4" d="M200.567 259.889L246.689 233.203H234.551L188.127 259.889H200.567Z" fill="#FAFDFF"/>
<path opacity="0.4" d="M294.934 208.639C296.148 208.942 297.058 209.246 297.968 209.549L312.533 218.343H337.717L321.332 208.942H294.934V208.639Z" fill="#FAFDFF"/>
<path opacity="0.4" d="M260.039 218.343H272.48L287.045 209.852C287.955 209.246 288.865 208.942 290.079 208.942H276.425L260.039 218.343Z" fill="#FAFDFF"/>
<path opacity="0.4" d="M333.773 233.203C333.469 234.113 332.863 235.023 331.649 235.629L329.828 236.842C326.794 238.662 326.794 241.391 329.828 243.21L359.564 260.193H410.237L363.812 233.506H333.773V233.203Z" fill="#FAFDFF"/>
<path opacity="0.4" d="M46.1213 349.046L92.2427 322.359H79.802L33.6807 349.046H46.1213Z" fill="#FAFDFF"/>
<path opacity="0.4" d="M145.95 443.358L99.525 416.671H74.0369L120.462 443.358H145.95Z" fill="#BEFFF2"/>
<path opacity="0.4" d="M414.789 296.886L391.425 310.229H404.472L427.836 296.886H414.789Z" fill="#FAFDFF"/>
<path opacity="0.4" d="M370.488 322.359L324.366 349.046H337.414L383.839 322.359H370.488Z" fill="#FAFDFF"/>
<path opacity="0.4" d="M78.5884 404.541L55.2243 391.198H30.0396L53.1002 404.541H78.5884Z" fill="#FAFDFF"/>
<path opacity="0.4" d="M251.24 391.198L228.179 404.541H241.227L264.287 391.198H251.24Z" fill="#FAFDFF"/>
<path opacity="0.4" d="M207.243 416.671L160.818 443.358H173.865L220.29 416.671H207.243Z" fill="#FAFDFF"/>
</g>
<path d="M348.641 238.965L368.061 250.185C369.578 251.095 369.881 252.611 368.668 253.218C367.454 253.824 365.027 253.824 363.206 252.914L343.786 241.694C342.269 240.784 341.966 239.268 343.18 238.661C344.697 238.055 347.124 238.055 348.641 238.965Z" fill="#031F60"/>
<path d="M60.9895 418.794C60.9895 416.671 65.5409 417.581 70.6992 420.613C76.161 423.646 80.409 427.891 80.409 430.014V433.653L60.686 422.433C60.9895 422.736 60.9895 420.916 60.9895 418.794Z" fill="#7AA3E5"/>
<path d="M86.7809 436.383C86.7809 437.292 87.3877 438.202 87.9946 438.505C88.6015 438.809 89.2083 438.505 89.2083 437.899C89.2083 436.989 88.6015 436.079 87.9946 435.776C87.3877 435.169 86.7809 435.473 86.7809 436.383Z" fill="#7AA3E5"/>
<path d="M92.8495 440.022C92.8495 440.932 93.4563 441.842 94.0632 442.145C94.6701 442.448 95.2769 442.145 95.2769 441.538C95.2769 440.932 94.6701 439.719 94.0632 439.416C93.4563 438.809 92.8495 439.112 92.8495 440.022Z" fill="#7AA3E5"/>
<path d="M99.2214 443.357C99.2214 444.267 99.8283 445.177 100.435 445.48C101.042 445.783 101.649 445.48 101.649 444.874C101.649 443.964 101.042 443.054 100.435 442.751C99.5249 442.448 99.2214 442.751 99.2214 443.357Z" fill="#7AA3E5"/>
<path d="M105.29 446.996C105.29 447.906 105.897 448.816 106.504 449.119C107.111 449.422 107.717 449.119 107.717 448.513C107.717 447.906 107.111 446.693 106.504 446.39C105.897 445.783 105.29 446.086 105.29 446.996Z" fill="#7AA3E5"/>
<path d="M111.359 450.636C111.359 451.546 111.965 452.455 112.572 452.759C113.179 453.062 113.786 452.759 113.786 452.152C113.786 451.546 113.179 450.333 112.572 450.029C111.965 449.423 111.359 449.726 111.359 450.636Z" fill="#7AA3E5"/>
<path d="M117.427 453.971C117.427 454.881 118.034 455.791 118.641 456.094C119.248 456.397 119.855 456.094 119.855 455.487C119.855 454.881 119.248 453.668 118.641 453.365C118.034 453.061 117.427 453.365 117.427 453.971Z" fill="#7AA3E5"/>
<path d="M123.496 457.61C123.496 458.52 124.103 459.43 124.71 459.733C125.316 460.036 125.923 459.733 125.923 459.126C125.923 458.52 125.316 457.307 124.71 457.004C124.103 456.397 123.496 456.7 123.496 457.61Z" fill="#7AA3E5"/>
<path d="M86.7809 430.014C86.7809 430.924 87.3877 431.833 87.9946 432.137C88.6015 432.44 89.2083 432.137 89.2083 431.53C89.2083 430.62 88.6015 429.711 87.9946 429.407C87.3877 428.801 86.7809 429.104 86.7809 430.014Z" fill="#7AA3E5"/>
<path d="M92.8495 433.653C92.8495 434.563 93.4563 435.473 94.0632 435.776C94.6701 436.079 95.2769 435.776 95.2769 435.17C95.2769 434.563 94.6701 433.35 94.0632 433.047C93.4563 432.44 92.8495 432.744 92.8495 433.653Z" fill="#7AA3E5"/>
<path d="M98.9181 436.989C98.9181 437.898 99.525 438.808 100.132 439.111C100.739 439.415 101.346 439.111 101.346 438.505C101.346 437.898 100.739 436.685 100.132 436.382C99.525 436.079 98.9181 436.382 98.9181 436.989Z" fill="#7AA3E5"/>
<path d="M104.987 440.628C104.987 441.537 105.594 442.447 106.2 442.75C106.807 443.054 107.414 442.75 107.414 442.144C107.414 441.234 106.807 440.324 106.2 440.021C105.594 439.415 104.987 439.718 104.987 440.628Z" fill="#7AA3E5"/>
<path d="M111.359 444.267C111.359 445.177 111.965 446.087 112.572 446.39C113.179 446.693 113.786 446.39 113.786 445.784C113.786 444.874 113.179 443.964 112.572 443.661C111.662 443.054 111.359 443.357 111.359 444.267Z" fill="#7AA3E5"/>
<path d="M117.427 447.602C117.427 448.512 118.034 449.422 118.641 449.725C119.248 450.028 119.855 449.725 119.855 449.119C119.855 448.209 119.248 447.299 118.641 446.996C118.034 446.693 117.427 446.996 117.427 447.602Z" fill="#7AA3E5"/>
<path d="M123.496 451.242C123.496 452.152 124.103 453.061 124.71 453.365C125.316 453.668 125.923 453.365 125.923 452.758C125.923 451.848 125.316 450.939 124.71 450.635C124.103 450.029 123.496 450.332 123.496 451.242Z" fill="#7AA3E5"/>
<path d="M14.5645 394.838C14.5645 395.747 15.1713 396.657 15.7782 396.96C16.385 397.264 16.9919 396.96 16.9919 396.354C16.9919 395.444 16.385 394.534 15.7782 394.231C15.1713 393.625 14.5645 393.928 14.5645 394.838Z" fill="#7AA3E5"/>
<path d="M20.9364 398.174C20.9364 399.084 21.5433 399.993 22.1501 400.297C22.757 400.6 23.3638 400.297 23.3638 399.69C23.3638 398.78 22.757 397.87 22.1501 397.567C21.5433 397.264 20.9364 397.567 20.9364 398.174Z" fill="#7AA3E5"/>
<path d="M27.005 401.812C27.005 402.722 27.6119 403.632 28.2187 403.935C28.8256 404.238 29.4324 403.935 29.4324 403.328C29.4324 402.419 28.8256 401.509 28.2187 401.206C27.6119 400.599 27.005 400.902 27.005 401.812Z" fill="#7AA3E5"/>
<path d="M33.0736 405.451C33.0736 406.361 33.6805 407.271 34.2873 407.574C34.8942 407.877 35.5011 407.574 35.5011 406.968C35.5011 406.058 34.8942 405.148 34.2873 404.845C33.6805 404.238 33.0736 404.542 33.0736 405.451Z" fill="#7AA3E5"/>
<path d="M39.1422 408.787C39.1422 409.697 39.7491 410.607 40.3559 410.91C40.9628 411.214 41.5697 410.91 41.5697 410.304C41.5697 409.394 40.9628 408.484 40.3559 408.181C39.7491 407.878 39.1422 408.181 39.1422 408.787Z" fill="#7AA3E5"/>
<path d="M45.5143 412.426C45.5143 413.336 46.1211 414.245 46.728 414.549C47.3349 414.852 47.9417 414.549 47.9417 413.942C47.9417 413.032 47.3349 412.123 46.728 411.819C45.8177 411.213 45.5143 411.516 45.5143 412.426Z" fill="#7AA3E5"/>
<path d="M51.5829 416.065C51.5829 416.975 52.1897 417.885 52.7966 418.188C53.4035 418.491 54.0103 418.188 54.0103 417.581C54.0103 416.975 53.4035 415.762 52.7966 415.459C52.1897 414.852 51.5829 415.155 51.5829 416.065Z" fill="#7AA3E5"/>
<path d="M14.5645 388.469C14.5645 389.379 15.1713 390.288 15.7782 390.592C16.385 390.895 16.9919 390.592 16.9919 389.985C16.9919 389.379 16.385 388.166 15.7782 387.862C15.1713 387.256 14.5645 387.559 14.5645 388.469Z" fill="#7AA3E5"/>
<path d="M20.6331 391.805C20.6331 392.715 21.2399 393.625 21.8468 393.928C22.4536 394.231 23.0605 393.928 23.0605 393.321C23.0605 392.412 22.4536 391.502 21.8468 391.199C21.2399 390.895 20.6331 391.199 20.6331 391.805Z" fill="#7AA3E5"/>
<path d="M26.7017 395.444C26.7017 396.353 27.3085 397.263 27.9154 397.566C28.5222 397.87 29.1291 397.566 29.1291 396.96C29.1291 396.353 28.5222 395.14 27.9154 394.837C27.3085 394.231 26.7017 394.534 26.7017 395.444Z" fill="#7AA3E5"/>
<path d="M33.0736 399.083C33.0736 399.992 33.6805 400.902 34.2873 401.205C34.8942 401.509 35.501 401.206 35.501 400.599C35.501 399.992 34.8942 398.779 34.2873 398.476C33.377 397.87 33.0736 398.173 33.0736 399.083Z" fill="#7AA3E5"/>
<path d="M39.1422 402.419C39.1422 403.329 39.7491 404.238 40.3559 404.542C40.9628 404.845 41.5697 404.542 41.5697 403.935C41.5697 403.025 40.9628 402.116 40.3559 401.812C39.7491 401.509 39.1422 401.812 39.1422 402.419Z" fill="#7AA3E5"/>
<path d="M45.2108 406.057C45.2108 406.967 45.8177 407.877 46.4245 408.18C47.0314 408.483 47.6383 408.18 47.6383 407.574C47.6383 406.664 47.0314 405.754 46.4245 405.451C45.8177 404.844 45.2108 405.148 45.2108 406.057Z" fill="#7AA3E5"/>
<path d="M51.2794 409.696C51.2794 410.606 51.8863 411.516 52.4931 411.819C53.1 412.123 53.7069 411.819 53.7069 411.213C53.7069 410.606 53.1 409.393 52.4931 409.09C51.8863 408.483 51.2794 408.787 51.2794 409.696Z" fill="#7AA3E5"/>
<path d="M371.095 254.431C369.881 255.037 369.881 256.25 371.095 257.16C372.309 257.767 374.433 257.767 375.646 257.16C376.86 256.554 376.86 255.341 375.646 254.431C374.433 253.824 372.309 253.824 371.095 254.431Z" fill="#031F60"/>
<g opacity="0.6">
<path d="M277.942 189.534C277.942 175.584 267.929 169.822 255.792 176.797H255.488C243.351 183.772 232.731 201.057 231.821 215.007L230.91 228.957C230.303 236.538 223.021 246.849 214.525 252.004C206.029 256.856 199.05 252.914 199.05 242.906V230.473C199.05 219.253 191.161 214.704 181.451 220.162C172.045 225.621 163.852 238.661 162.942 249.275L161.728 265.347C160.818 275.355 153.232 287.485 144.433 292.64L142.612 293.247C133.813 298.099 125.924 294.156 125.013 284.149L118.034 214.704C116.517 200.754 105.594 194.992 93.4565 201.967H93.1531C81.0159 208.942 71.0027 226.228 71.0027 240.177V385.132L277.639 265.954V189.534H277.942Z" fill="url(#paint2_linear)"/>
<path opacity="0.6" d="M277.942 266.257V189.534C277.942 175.584 267.929 169.822 255.792 176.797H255.488C243.351 183.772 232.731 201.057 231.821 215.007L230.91 228.957C230.303 236.538 223.021 246.849 214.525 252.004C206.029 256.856 199.05 252.914 199.05 242.906V230.473C199.05 219.253 191.161 214.704 181.451 220.162C172.045 225.621 163.852 238.661 162.942 249.275L161.728 265.347C160.818 275.355 153.232 287.485 144.433 292.64L142.612 293.247C133.813 298.099 125.924 294.156 125.013 284.149L118.034 214.704C116.517 200.754 105.594 194.992 93.4565 201.967H93.1531C81.0159 208.942 71.0027 226.228 71.0027 240.177V385.132" stroke="#E9FFFB" stroke-miterlimit="10" stroke-linecap="round"/>
</g>
<path d="M288.562 259.888C287.652 269.896 280.066 282.026 271.266 287.181C262.467 292.337 253.971 288.394 252.454 278.387C252.454 278.387 251.543 272.019 250.026 263.831C248.813 255.946 241.834 252.914 234.248 257.159C226.966 261.405 219.683 272.928 218.166 282.936L215.132 303.254C213.615 313.261 206.636 324.481 199.657 328.424C192.678 332.366 186.003 327.817 184.485 317.81L178.417 282.936C175.989 268.986 164.156 263.527 152.018 270.502H151.715C139.578 277.477 129.565 294.459 129.565 308.712V419.703L336.201 300.524V155.569C336.201 141.62 327.401 135.251 316.478 141.62C305.554 147.988 295.844 164.364 294.631 178.313L288.562 259.888Z" fill="url(#paint3_linear)"/>
<path d="M337.11 300.524V155.569C337.11 141.62 328.311 135.251 317.387 141.62C306.464 147.988 296.754 164.364 295.54 178.313L288.865 259.888C287.954 269.896 280.369 282.026 271.569 287.181C262.77 292.337 254.274 288.394 252.757 278.387C252.757 278.387 251.846 272.019 250.329 263.831C249.115 255.946 242.137 252.914 234.551 257.159C227.268 261.405 219.986 272.928 218.469 282.936L215.435 303.254C213.918 313.261 206.939 324.481 199.96 328.424C192.981 332.366 186.305 327.817 184.788 317.81L178.72 282.936C176.292 268.986 164.458 263.527 152.321 270.502H152.018C139.881 277.477 129.867 294.459 129.867 308.712V419.703" stroke="#E9FFFB" stroke-miterlimit="10" stroke-linecap="round"/>
</g>
<defs>
<linearGradient id="paint0_linear" x1="92.8174" y1="434.606" x2="-15.1027" y2="410.674" gradientUnits="userSpaceOnUse">
<stop stop-color="#17D6A6"/>
<stop offset="1" stop-color="#17ECC7"/>
</linearGradient>
<linearGradient id="paint1_linear" x1="464.728" y1="234.855" x2="334.699" y2="164.697" gradientUnits="userSpaceOnUse">
<stop stop-color="#17D6A6"/>
<stop offset="1" stop-color="#17ECC7"/>
</linearGradient>
<linearGradient id="paint2_linear" x1="199.114" y1="121.273" x2="201.417" y2="362.956" gradientUnits="userSpaceOnUse">
<stop offset="0.16" stop-color="white"/>
<stop offset="1" stop-color="#41D4CC"/>
</linearGradient>
<linearGradient id="paint3_linear" x1="185.5" y1="106.5" x2="232.601" y2="493.99" gradientUnits="userSpaceOnUse">
<stop offset="0.16" stop-color="white"/>
<stop offset="1" stop-color="#FF9D33"/>
</linearGradient>
<clipPath id="clip0">
<rect width="460" height="494" fill="white"/>
</clipPath>
</defs>
</svg>
