<svg width="331" height="356" viewBox="0 0 331 356" fill="none" xmlns="http://www.w3.org/2000/svg">
<g clip-path="url(#clip0)">
<path opacity="0.15" d="M318.555 228.372L220.958 171.989C217.683 170.022 212.442 170.022 209.386 171.989L2.40161 291.53C-0.873454 293.496 -0.873454 296.337 2.40161 298.304L99.9986 354.687C103.274 356.654 108.514 356.654 111.57 354.687L318.555 235.147C321.83 233.18 321.83 230.12 318.555 228.372Z" fill="#6B99D1"/>
<path opacity="0.15" d="M21.6152 235.803L40.1739 225.094C52.8375 217.883 70.3045 216.134 79.2564 221.161C88.2082 226.406 85.1515 236.458 72.4879 243.67L53.9292 254.379C41.2656 261.59 23.7986 263.339 14.8467 258.312C5.8949 253.286 8.95162 243.233 21.6152 235.803Z" fill="#1CBA9B"/>
<path d="M43.8858 219.631C43.0125 222.035 44.1042 224.002 44.7592 226.187C46.0692 230.121 45.8509 235.584 45.8509 235.584C46.0692 236.021 47.8159 236.24 48.2526 235.366C48.2526 235.366 48.0342 226.406 50.4359 227.28L43.8858 219.631Z" fill="#2D2979"/>
<path d="M63.9729 233.399C61.5711 229.902 57.6411 218.538 56.9861 215.916C56.5494 214.823 55.676 212.638 55.8944 210.234C55.8944 206.3 57.2044 195.373 57.2044 195.373H47.8159L48.0342 209.578C48.0342 211.763 47.8159 212.419 47.3792 213.949C46.9425 215.26 45.6325 218.101 45.1958 219.412C44.7591 221.161 43.8858 222.909 46.7242 225.094C49.3442 227.28 51.0909 228.591 52.8376 230.776C54.5843 232.962 54.366 235.803 57.2044 238.425C60.0428 241.048 65.2829 239.081 66.3746 238.207C67.4663 236.895 67.0296 235.803 63.9729 233.399Z" fill="#FFA8A7"/>
<path d="M63.5362 236.459C57.6411 237.989 56.3311 237.114 54.5844 230.34C53.2743 225.095 52.1826 221.598 49.7809 219.413C47.1609 217.009 46.9425 215.698 46.9425 213.949C46.2875 213.949 46.0692 214.386 45.6325 215.698C44.7592 218.757 43.6675 218.757 43.6675 220.942C43.6675 223.128 44.9775 224.876 46.7242 225.969C49.3443 227.717 49.9993 228.373 51.3093 230.995C52.8377 234.055 52.401 237.333 53.4927 239.955C57.6411 243.233 62.0078 245.2 68.7763 242.141C70.0863 238.644 71.178 237.114 63.9729 233.399C65.2829 234.929 65.7196 235.803 63.5362 236.459Z" fill="#2D2979"/>
<path d="M27.9471 223.564C27.2921 225.094 26.2004 226.843 26.4188 230.995C26.8555 235.147 27.7288 234.273 27.2921 239.736C27.0738 243.233 25.5454 247.385 27.2921 250.008C30.3489 253.067 38.6457 252.63 40.174 251.1C40.6107 249.571 41.0474 248.259 40.8291 246.948C40.6107 245.855 38.864 244.544 38.4273 243.451C38.209 242.577 37.9907 241.485 37.554 239.955C36.4623 235.147 35.3706 223.564 35.3706 223.564H27.9471Z" fill="#2D2979"/>
<path d="M34.279 245.2C32.5323 245.2 30.5672 244.544 30.5672 244.544C29.9122 244.326 29.4756 243.451 29.4756 242.359C29.0389 239.736 29.9122 236.677 28.8205 232.961C27.7288 229.246 27.5105 227.279 27.9472 223.346C28.6022 219.412 28.1655 213.512 28.1655 213.512L36.0257 213.293C36.0257 213.293 35.589 219.849 35.8073 223.127C35.8073 226.405 36.4624 237.114 37.1174 240.61C37.554 242.359 37.7724 243.014 37.554 243.67C37.554 244.107 36.899 244.981 34.279 245.2Z" fill="#FFA8A7"/>
<path d="M47.161 2.1849C45.4143 -0.656109 31.8773 -2.62296 27.2922 8.95961C25.5455 13.3304 25.7639 24.4759 24.4538 31.4691C22.9255 38.4624 19.6504 42.3961 18.5587 48.0781C17.467 53.7601 19.2137 63.3758 32.969 64.9056C46.7243 66.6539 57.2045 61.846 60.4796 57.4753C63.7546 53.1045 63.7546 43.9258 60.4796 38.8994C57.2045 33.8731 54.5844 29.9393 54.5844 23.3832L47.161 2.1849Z" fill="#543354"/>
<path d="M115.501 78.8925C113.754 79.5481 112.007 79.3296 109.605 80.4223C107.422 81.2964 106.112 81.952 103.929 82.1706C101.745 82.3891 95.4135 80.4223 89.7367 77.3627C82.9683 73.8661 75.9815 67.5285 73.1431 64.2504C67.248 57.2571 60.9162 46.7672 58.9511 42.8335C56.5494 38.2442 53.4927 37.3701 50.6543 37.8071C47.3792 38.2442 45.8509 40.2111 49.3443 46.5487C52.8377 52.8863 59.8245 63.8133 66.5929 71.0251C69.868 74.5217 75.3265 79.5481 83.8416 83.9189C89.9551 86.9784 95.1952 88.7267 101.745 90.4751C103.492 90.9121 104.802 91.7863 108.077 92.879C111.352 94.1902 115.501 94.8458 118.339 94.4088C121.177 93.9717 122.269 93.3161 122.487 92.6604C122.706 91.7863 122.051 91.3492 120.741 91.5677C119.431 91.5677 117.247 92.0048 114.409 91.1307C114.409 91.1307 117.466 91.1307 119.212 90.9121C120.959 90.6936 122.706 90.2565 123.797 89.8194C125.326 89.1638 125.762 86.9784 124.452 86.9784C123.142 86.9784 122.051 87.4155 119.431 87.634C117.029 87.8526 115.282 87.4155 115.282 87.4155C115.282 87.4155 118.121 86.9784 120.522 86.3228C122.924 85.6672 123.579 84.793 124.234 84.1374C124.671 83.4818 124.671 82.1706 122.924 82.3891C121.396 82.6076 119.649 83.7003 116.592 83.7003C114.409 83.7003 112.881 83.4818 113.099 83.0447C113.317 82.8262 114.627 82.8262 116.374 81.952C117.902 81.0779 118.994 79.3296 118.557 78.4554C117.247 77.5812 117.247 78.2369 115.501 78.8925Z" fill="#FFA8A7"/>
<path d="M46.9426 2.40351C46.9426 2.40351 51.7461 -1.74873 57.6412 4.15182C61.3529 7.86698 61.1346 15.2973 60.4796 18.3569C59.6062 21.6349 56.5495 25.5686 54.1478 25.7872C51.5277 26.0057 46.9426 2.40351 46.9426 2.40351Z" fill="#543354"/>
<path d="M22.707 103.587C19.8686 115.825 23.7987 134.838 24.4537 144.891C25.1087 154.944 25.9821 166.526 25.9821 166.526C25.9821 166.526 22.9254 177.016 23.1437 185.102C23.362 193.625 28.3838 218.32 28.3838 218.32C28.3838 218.32 31.6589 220.724 35.8073 218.32C35.8073 218.32 37.1173 197.122 38.209 187.069C39.3007 176.798 39.7374 169.367 40.8291 163.248C42.1391 155.818 44.9775 115.607 44.9775 115.607L45.4142 121.726L49.1259 161.281C49.1259 161.281 46.5058 166.963 46.5058 171.553C46.5058 177.89 47.8159 207.393 47.8159 207.393C47.8159 207.393 51.3093 210.015 55.676 207.393C55.676 207.393 61.7895 166.963 62.6628 162.155C63.5362 157.785 65.2829 112.11 61.7895 101.62L22.707 103.587Z" fill="#FFA8A7"/>
<path d="M34.2789 28.1904C34.2789 28.1904 34.9339 39.5545 34.7155 40.4286C34.4972 41.3028 30.3488 42.1769 29.0388 43.0511C27.9471 44.1438 35.1522 55.5078 39.0823 57.2561C42.794 59.0044 54.5843 54.6336 55.2393 48.7331C55.8943 43.4882 51.9642 39.3359 50.4359 37.8061C49.3442 37.5876 47.5975 37.8061 47.1608 37.8061L46.7241 32.3427C41.7024 30.5944 34.2789 28.1904 34.2789 28.1904Z" fill="#FFA8A7"/>
<path d="M32.7507 41.5213C29.4757 41.9584 25.9823 43.7067 25.3272 45.455C24.6722 47.4218 23.5805 57.2561 26.2006 64.4679C29.039 71.8982 32.3141 76.7061 33.8424 79.9841C33.8424 79.9841 46.0693 83.6993 57.2046 76.7061C57.2046 76.7061 58.2962 70.8055 58.2962 66.4347C68.5581 57.4746 59.8246 46.3291 51.0911 37.8061C50.2177 37.5876 48.6894 37.8061 48.0344 37.8061C48.0344 37.8061 53.2745 50.9185 50.4361 52.2297C46.2877 53.978 36.4625 43.4881 32.7507 41.5213Z" fill="#F5FBFB"/>
<path d="M47.1607 36.7134L46.9424 32.3427L43.2307 31.25L34.2788 28.1904C34.2788 28.1904 34.2788 30.1573 34.4971 31.6871C34.4971 31.6871 34.9338 35.6208 41.2656 38.6803C42.5756 39.1174 46.7241 39.5545 47.1607 36.7134Z" fill="#F28F8F"/>
<path d="M55.6759 13.9861C54.5843 6.55577 49.1258 1.09229 41.7023 1.52937C33.6238 1.96645 27.5104 8.95969 27.9471 16.8271C28.1654 21.635 30.7854 25.5687 34.2788 27.9726C34.2788 27.9726 34.9339 30.5951 35.3705 31.2507C37.9906 34.3102 45.1957 36.2771 47.5975 36.2771C49.5625 36.2771 51.3092 34.3102 53.2742 31.2507C57.2043 24.913 56.331 17.4827 55.6759 13.9861Z" fill="#FFA8A7"/>
<path d="M55.0211 9.39691C51.746 2.84074 45.4142 0.436812 39.3008 1.74805C34.0607 2.84074 29.9122 6.77444 28.6022 12.0194C26.6372 18.7941 29.6939 24.9132 34.4973 28.1913C34.279 27.7542 30.5673 22.0722 34.4973 20.7609C34.4973 21.198 34.7157 23.3834 34.934 24.6946C34.934 24.6946 36.899 24.9132 36.6807 22.5092C36.6807 21.8536 36.4624 20.7609 36.4624 20.3239C36.4624 18.5755 36.4624 17.4829 37.3357 15.9531C37.7724 15.2975 37.9907 14.6418 38.2091 13.7677C38.8641 11.8008 40.3925 10.0525 42.3575 9.17837C44.3225 8.52275 46.9426 8.74129 49.781 12.0194C52.6194 6.77444 54.1477 8.52275 55.0211 9.39691Z" fill="#543354"/>
<path d="M34.279 28.1912C34.279 28.1912 33.8423 28.8468 32.5323 29.0654C29.9122 29.2839 26.8555 24.2575 28.8205 20.9794C30.1306 18.794 33.1873 19.6682 34.0606 20.7609L34.279 28.1912Z" fill="#FFA8A7"/>
<path d="M33.1872 78.4552C34.0606 79.9849 34.0606 82.1703 31.4405 85.8855C28.8205 89.6006 23.5804 97.2495 22.707 103.587C24.8904 105.773 27.7288 110.362 36.6806 111.673C49.5626 113.64 59.3878 107.958 62.4445 104.68C62.4445 104.68 62.2262 99.2164 60.0428 89.3821C58.7328 83.4815 57.8594 81.2962 57.4227 76.7068C56.7677 72.1175 33.1872 78.4552 33.1872 78.4552Z" fill="#F5FBFB"/>
<path d="M32.5323 83.2628C31.0039 85.6668 29.9122 87.8521 27.0738 91.7858C24.4538 95.501 19.2137 103.587 20.5237 117.792C21.397 126.971 25.9821 166.526 25.9821 166.526C25.9821 166.526 23.5804 173.301 22.9254 181.824C22.2704 190.347 28.1655 218.538 28.1655 218.538C28.1655 218.538 29.4755 219.85 32.3139 219.85C35.1523 219.85 36.0257 218.32 36.0257 218.32C36.0257 218.32 37.1174 202.585 37.554 194.281C38.209 185.976 39.5191 173.082 39.9557 169.804C40.3924 166.526 41.4841 160.844 41.9208 154.507C42.3575 148.169 44.7592 115.825 44.7592 115.825L45.1959 121.944C45.1959 121.944 45.4142 131.778 46.9426 144.017C48.2526 156.255 48.9076 161.5 48.9076 161.5C48.9076 161.5 46.5059 166.089 46.0692 169.367C45.8509 172.645 47.5976 207.611 47.5976 207.611C47.5976 207.611 48.6893 209.578 51.9643 209.797C55.2394 210.234 56.1127 209.141 56.1127 209.141C56.1127 209.141 61.1345 172.645 61.7895 168.93C62.4445 165.215 62.8812 163.248 63.5362 151.666C64.1912 139.864 63.9729 114.514 62.8812 105.117C61.7895 95.9381 58.2961 82.3887 58.2961 82.3887C58.2961 82.3887 53.9294 84.5741 48.0342 85.0111C42.1391 85.0111 32.5323 83.2628 32.5323 83.2628Z" fill="url(#paint0_linear)"/>
<path d="M58.5145 104.68C58.5145 104.68 57.2045 107.739 53.4927 111.017C49.781 114.295 44.9775 115.607 44.9775 115.607L45.4142 121.726C45.4142 121.726 45.6326 131.56 47.1609 143.798C48.0343 150.354 48.4709 154.944 48.6893 157.785L48.0343 118.011C57.2045 113.858 58.5145 104.68 58.5145 104.68Z" fill="#29BEA1"/>
<path d="M33.6239 79.7669C33.6239 79.7669 41.9208 82.1708 47.8159 81.7337C54.366 81.0781 56.5494 79.3298 57.4227 78.0186C57.4227 78.0186 58.5144 80.4225 58.2961 81.9523C55.4577 85.2303 51.746 86.1045 46.5058 86.1045C40.3924 86.1045 33.6239 83.9191 32.7506 83.045C32.5322 83.2635 33.4056 81.2966 33.6239 79.7669Z" fill="#29BEA1"/>
<path d="M35.8073 121.289C34.2789 120.196 33.4056 118.667 31.0039 117.355C29.0388 116.263 27.7288 115.389 26.2004 113.859C24.6721 112.329 22.707 105.773 21.6153 99.4352C20.5237 92.0048 21.6153 82.3891 22.4887 78.2369C24.6721 69.4953 29.4755 58.1313 31.4405 54.1976C33.8423 49.6083 32.9689 46.3302 30.5672 44.5819C27.9471 42.615 25.3271 43.4892 22.707 48.5156C19.6503 54.8532 14.8469 67.3099 13.1002 76.9257C12.2268 81.515 11.3535 88.9453 12.8818 98.3425C13.9735 105.117 15.5019 110.362 18.1219 116.481C18.777 118.23 18.9953 119.541 19.8686 123.037C20.742 126.534 22.707 130.249 24.6721 132.216C26.8555 134.183 27.9471 134.62 28.3838 134.401C29.0388 134.183 29.0388 133.309 28.1655 132.216C27.2921 131.123 25.7638 129.594 24.6721 126.753C24.6721 126.753 26.4188 129.156 27.5105 130.468C28.6022 131.779 30.1305 132.872 31.0039 133.527C32.3139 134.401 34.4973 133.527 33.6239 132.435C32.7506 131.342 31.8772 130.686 30.1305 128.719C28.6022 126.971 27.7288 125.223 27.7288 125.223C27.7288 125.223 29.6938 127.408 31.6589 128.719C33.6239 130.249 34.7156 130.249 35.589 130.468C36.244 130.468 37.3357 129.594 36.244 128.501C35.1523 127.408 33.4056 126.534 31.6589 124.13C30.3489 122.382 29.6938 121.071 30.1305 121.071C30.5672 121.071 31.2222 122.163 32.9689 123.037C34.4973 123.912 36.6807 123.693 37.1173 122.819C37.9907 122.163 37.3357 122.382 35.8073 121.289Z" fill="#FFA8A7"/>
<g opacity="0.9">
<path opacity="0.8" d="M268.992 62.2831L326.633 29.0651C328.598 27.9725 330.127 28.8466 330.127 31.032V72.7729C330.127 74.9583 328.598 77.5808 326.633 78.6735L268.992 111.891C267.027 112.984 265.499 112.11 265.499 109.925V68.4022C265.499 66.2168 267.027 63.3758 268.992 62.2831Z" fill="#57F7E0"/>
<path d="M268.992 62.2831L326.633 29.0651C328.598 27.9725 330.127 28.8466 330.127 31.032V72.7729C330.127 74.9583 328.598 77.5808 326.633 78.6735L268.992 111.891C267.027 112.984 265.499 112.11 265.499 109.925V68.4022C265.499 66.2168 267.027 63.3758 268.992 62.2831Z" fill="url(#paint1_linear)"/>
<path opacity="0.8" d="M272.704 68.6206L296.066 55.0711C296.939 54.4155 297.813 55.0711 297.813 56.1638C297.813 57.2565 296.939 58.5678 296.066 59.2234L272.704 72.7728C271.831 73.4284 270.957 72.7728 270.957 71.6801C270.957 70.3689 271.612 69.0576 272.704 68.6206Z" fill="#0B3FA5"/>
<path opacity="0.8" d="M302.616 51.1371L322.703 39.5545C323.577 38.8989 324.45 39.5545 324.45 40.6472C324.45 41.7399 323.577 43.0512 322.703 43.7068L302.616 55.2894C301.743 55.945 300.869 55.2894 300.869 54.1967C301.088 53.104 301.743 51.7927 302.616 51.1371Z" fill="#0B3FA5"/>
<g opacity="0.8">
<g opacity="0.8">
<g opacity="0.8">
<path opacity="0.8" d="M272.704 87.6342L296.066 74.0848C296.939 73.4292 297.813 74.0848 297.813 75.1775C297.813 76.2702 296.939 77.5814 296.066 78.2371L272.704 91.7865C271.831 92.4421 270.957 91.7865 270.957 90.6938C270.957 89.6011 271.612 88.2898 272.704 87.6342Z" fill="#0B3FA5"/>
</g>
<g opacity="0.8">
<path opacity="0.8" d="M302.616 70.3695L322.703 58.787C323.577 58.1314 324.45 58.787 324.45 59.8797C324.45 60.9724 323.577 62.2836 322.703 62.9392L302.616 74.5218C301.743 75.1774 300.869 74.5218 300.869 73.4291C301.088 72.1178 301.743 70.8066 302.616 70.3695Z" fill="#0B3FA5"/>
</g>
</g>
</g>
<g opacity="0.8">
<g opacity="0.8">
<g opacity="0.8">
<path opacity="0.8" d="M272.704 78.2368L285.368 70.8065C286.241 70.1509 287.114 70.8065 287.114 71.8992C287.114 72.9919 286.241 74.3031 285.368 74.9587L272.704 82.3891C271.831 83.0447 270.957 82.3891 270.957 81.2964C270.957 79.9851 271.612 78.6739 272.704 78.2368Z" fill="#0B3FA5"/>
</g>
<g opacity="0.8">
<path opacity="0.8" d="M291.044 67.5289L301.743 61.1913C302.616 60.5356 303.489 61.1913 303.489 62.284C303.489 63.3767 302.616 64.6879 301.743 65.3435L291.044 71.6811C290.171 72.3367 289.297 71.6811 289.297 70.5884C289.297 69.4957 289.952 68.1845 291.044 67.5289Z" fill="#0B3FA5"/>
</g>
<g opacity="0.8">
<path opacity="0.8" d="M307.857 57.6942L322.922 48.9526C323.795 48.5156 324.669 48.9526 324.669 50.0453C324.669 51.138 323.795 52.4493 322.922 53.1049L307.857 61.8464C306.983 62.2835 306.11 61.8464 306.11 60.7537C306.11 59.6611 306.983 58.3498 307.857 57.6942Z" fill="#0B3FA5"/>
</g>
</g>
</g>
<g opacity="0.8">
<g opacity="0.8">
<g opacity="0.8">
<path opacity="0.8" d="M272.704 97.4676L293.228 85.6665C294.101 85.2294 294.974 85.6665 294.974 86.7592C294.974 87.8519 294.101 89.1631 293.228 89.8187L272.704 101.62C271.831 102.275 270.957 101.62 270.957 100.527C270.957 99.2159 271.612 97.9047 272.704 97.4676Z" fill="#0B3FA5"/>
</g>
<g opacity="0.8">
<path opacity="0.8" d="M298.686 82.3883L309.385 76.0506C310.258 75.395 311.131 76.0506 311.131 77.1433C311.131 78.236 310.258 79.5473 309.385 80.2029L298.686 86.5405C297.813 87.1961 296.939 86.5405 296.939 85.4478C296.939 84.1366 297.813 82.8254 298.686 82.3883Z" fill="#0B3FA5"/>
</g>
<g opacity="0.8">
<path opacity="0.8" d="M315.498 72.5541L322.704 68.4019C323.577 67.9648 324.45 68.4019 324.45 69.4946C324.45 70.5873 323.577 71.8985 322.704 72.5541L315.498 76.7064C314.625 77.1434 313.752 76.7064 313.752 75.6137C313.752 74.521 314.625 72.9912 315.498 72.5541Z" fill="#0B3FA5"/>
</g>
</g>
</g>
</g>
<path d="M320.956 217.446V204.333L306.109 210.671L216.373 158.44C213.098 156.473 207.858 156.473 204.801 158.44L34.279 257.001L0 267.491V280.603C0 281.914 0.873351 283.007 2.40172 283.881L99.9987 340.264C103.274 342.231 108.514 342.231 111.571 340.264L318.555 220.724C320.301 219.849 321.175 218.538 320.956 217.446Z" fill="#74FFE4"/>
<path d="M0 267.491V280.603C0 281.914 0.873351 283.007 2.40171 283.881L99.9987 340.264C101.527 341.138 103.71 341.575 105.894 341.575V281.259L49.5627 247.822L34.279 256.782L0 267.491Z" fill="#18E9C1"/>
<path d="M306.764 204.553L282.747 190.785C280.564 189.473 277.07 189.473 274.887 190.785L273.577 191.659C271.394 192.97 267.9 192.97 265.717 191.659L237.333 174.831C235.15 173.52 235.15 171.553 237.333 170.242L238.643 169.368C240.826 168.057 240.826 166.09 238.643 164.779L214.407 150.792C212.224 149.481 208.731 149.481 206.547 150.792L13.9735 262.465C11.7901 263.777 11.7901 265.743 13.9735 267.055L106.33 320.378C108.514 321.689 112.007 321.689 114.19 320.378L306.764 209.142C308.948 207.831 308.948 205.864 306.764 204.553Z" fill="#031F60"/>
<path d="M279.036 188.381L310.695 206.738L306.328 214.824L279.036 199.089V188.381Z" fill="#1E3779"/>
<path d="M210.477 159.533V148.824L242.573 167.4L233.403 172.645L210.477 159.533Z" fill="#1E3779"/>
<path d="M114.191 320.378L305.891 209.579L282.747 196.248C280.564 194.937 277.071 194.937 274.887 196.248L273.577 197.122C271.394 198.433 267.9 198.433 265.717 197.122L237.115 180.513C234.931 179.202 234.931 177.235 237.115 175.924L237.988 175.487L237.115 175.05C234.931 173.738 234.931 171.772 237.115 170.46L237.77 170.242L214.408 156.692C212.224 155.381 208.731 155.381 206.547 156.692L14.8469 267.492L106.549 320.378C108.732 321.689 112.007 321.689 114.191 320.378Z" fill="#344593"/>
<path d="M282.747 196.029C280.564 194.718 277.07 194.718 274.887 196.029L273.577 196.903C271.394 198.215 267.9 198.215 265.717 196.903L237.115 180.295C234.931 178.983 234.931 177.016 237.115 175.705L237.988 175.268L237.115 174.831C234.931 173.52 234.931 171.553 237.115 170.242L237.77 170.023L214.407 156.474C213.316 155.818 212.006 155.6 210.477 155.6C210.477 155.6 223.359 187.943 212.442 221.817C202.181 253.505 142.793 303.113 118.994 317.537L306.109 209.36L282.747 196.029Z" fill="#2B3D89"/>
<path d="M235.586 172.645V178.108C235.586 178.982 236.241 179.856 237.115 180.293L265.717 196.902C266.808 197.558 268.119 197.776 269.865 197.776V190.783L235.586 172.645Z" fill="#1E3779"/>
<path d="M318.555 200.837L220.958 144.454C217.683 142.487 212.442 142.487 209.386 144.454L2.40161 263.995C-0.873454 265.961 -0.873454 268.802 2.40161 270.769L99.9986 327.152C103.274 329.119 108.514 329.119 111.57 327.152L318.555 207.611C321.83 205.863 321.83 202.804 318.555 200.837ZM306.764 208.923L114.191 320.159C112.007 321.47 108.514 321.47 106.33 320.159L13.9735 267.054C11.7901 265.743 11.7901 263.776 13.9735 262.465L206.547 151.228C208.731 149.917 212.224 149.917 214.408 151.228L238.643 165.215C240.826 166.526 240.826 168.493 238.643 169.804L237.333 170.678C235.15 171.99 235.15 173.956 237.333 175.268L265.935 191.877C268.119 193.188 271.612 193.188 273.795 191.877L275.105 191.002C277.289 189.691 280.782 189.691 282.966 191.002L306.983 204.77C308.948 205.863 308.948 207.83 306.764 208.923Z" fill="#BEFFF2"/>
<g opacity="0.4">
<path opacity="0.4" d="M81.4401 223.565L98.2521 213.949H89.3003L72.4883 223.565H81.4401Z" fill="#FAFDFF"/>
<path opacity="0.4" d="M144.321 187.286L177.509 168.055H168.775L135.369 187.286H144.321Z" fill="#FAFDFF"/>
<path opacity="0.4" d="M212.224 150.354C213.097 150.572 213.752 150.791 214.407 151.009L224.888 157.347H243.01L231.219 150.572H212.224V150.354Z" fill="#FAFDFF"/>
<path opacity="0.4" d="M187.115 157.347H196.067L206.548 151.228C207.203 150.791 207.858 150.572 208.731 150.572H198.906L187.115 157.347Z" fill="#FAFDFF"/>
<path opacity="0.4" d="M240.171 168.055C239.953 168.71 239.516 169.366 238.643 169.803L237.333 170.677C235.15 171.988 235.15 173.955 237.333 175.266L258.73 187.505H295.193L261.787 168.273H240.171V168.055Z" fill="#FAFDFF"/>
<path opacity="0.4" d="M33.1872 251.536L66.3745 232.305H57.4227L24.2354 251.536H33.1872Z" fill="#FAFDFF"/>
<path opacity="0.4" d="M105.02 319.503L71.6148 300.271H53.2744L86.6801 319.503H105.02Z" fill="#BEFFF2"/>
<path opacity="0.4" d="M298.468 213.949L281.656 223.565H291.044L307.856 213.949H298.468Z" fill="#FAFDFF"/>
<path opacity="0.4" d="M266.59 232.305L233.403 251.536H242.791L276.197 232.305H266.59Z" fill="#FAFDFF"/>
<path opacity="0.4" d="M56.5495 291.53L39.7375 281.914H21.6155L38.2092 291.53H56.5495Z" fill="#FAFDFF"/>
<path opacity="0.4" d="M180.784 281.914L164.19 291.53H173.578L190.172 281.914H180.784Z" fill="#FAFDFF"/>
<path opacity="0.4" d="M149.125 300.271L115.719 319.503H125.108L158.513 300.271H149.125Z" fill="#FAFDFF"/>
</g>
<path d="M250.87 172.209L264.844 180.295C265.935 180.95 266.154 182.043 265.28 182.48C264.407 182.917 262.66 182.917 261.35 182.262L247.377 174.176C246.285 173.52 246.067 172.427 246.94 171.99C248.032 171.553 249.778 171.553 250.87 172.209Z" fill="#031F60"/>
<path d="M43.8858 301.802C43.8858 300.273 47.1609 300.928 50.8726 303.114C54.8027 305.299 57.8594 308.359 57.8594 309.888V312.511L43.6675 304.425C43.8858 304.643 43.8858 303.332 43.8858 301.802Z" fill="#7AA3E5"/>
<path d="M62.4446 314.477C62.4446 315.133 62.8813 315.788 63.3179 316.007C63.7546 316.225 64.1913 316.007 64.1913 315.57C64.1913 314.914 63.7546 314.258 63.3179 314.04C62.8813 313.603 62.4446 313.821 62.4446 314.477Z" fill="#7AA3E5"/>
<path d="M66.8113 317.1C66.8113 317.756 67.248 318.411 67.6846 318.63C68.1213 318.848 68.558 318.63 68.558 318.193C68.558 317.756 68.1213 316.881 67.6846 316.663C67.248 316.226 66.8113 316.444 66.8113 317.1Z" fill="#7AA3E5"/>
<path d="M71.3965 319.503C71.3965 320.159 71.8332 320.815 72.2698 321.033C72.7065 321.252 73.1432 321.033 73.1432 320.596C73.1432 319.94 72.7065 319.285 72.2698 319.066C71.6148 318.848 71.3965 319.066 71.3965 319.503Z" fill="#7AA3E5"/>
<path d="M75.7632 322.125C75.7632 322.781 76.1999 323.437 76.6365 323.655C77.0732 323.874 77.5099 323.655 77.5099 323.218C77.5099 322.781 77.0732 321.907 76.6365 321.688C76.1999 321.251 75.7632 321.47 75.7632 322.125Z" fill="#7AA3E5"/>
<path d="M80.1299 324.748C80.1299 325.404 80.5666 326.06 81.0032 326.278C81.4399 326.497 81.8766 326.278 81.8766 325.841C81.8766 325.404 81.4399 324.53 81.0032 324.311C80.5666 323.874 80.1299 324.093 80.1299 324.748Z" fill="#7AA3E5"/>
<path d="M84.4966 327.152C84.4966 327.807 84.9333 328.463 85.3699 328.681C85.8066 328.9 86.2433 328.681 86.2433 328.244C86.2433 327.807 85.8066 326.933 85.3699 326.715C84.9333 326.496 84.4966 326.715 84.4966 327.152Z" fill="#7AA3E5"/>
<path d="M88.8633 329.774C88.8633 330.429 89.2999 331.085 89.7366 331.304C90.1733 331.522 90.61 331.304 90.61 330.867C90.61 330.429 90.1733 329.555 89.7366 329.337C89.2999 328.9 88.8633 329.118 88.8633 329.774Z" fill="#7AA3E5"/>
<path d="M62.4446 309.887C62.4446 310.543 62.8813 311.198 63.3179 311.417C63.7546 311.635 64.1913 311.417 64.1913 310.98C64.1913 310.324 63.7546 309.669 63.3179 309.45C62.8813 309.013 62.4446 309.232 62.4446 309.887Z" fill="#7AA3E5"/>
<path d="M66.8113 312.51C66.8113 313.166 67.248 313.821 67.6846 314.04C68.1213 314.258 68.558 314.04 68.558 313.603C68.558 313.166 68.1213 312.292 67.6846 312.073C67.248 311.636 66.8113 311.855 66.8113 312.51Z" fill="#7AA3E5"/>
<path d="M71.178 314.913C71.178 315.569 71.6147 316.225 72.0513 316.443C72.488 316.662 72.9247 316.443 72.9247 316.006C72.9247 315.569 72.488 314.695 72.0513 314.476C71.6147 314.258 71.178 314.476 71.178 314.913Z" fill="#7AA3E5"/>
<path d="M75.5449 317.536C75.5449 318.191 75.9816 318.847 76.4183 319.065C76.8549 319.284 77.2916 319.065 77.2916 318.628C77.2916 317.973 76.8549 317.317 76.4183 317.098C75.9816 316.661 75.5449 316.88 75.5449 317.536Z" fill="#7AA3E5"/>
<path d="M80.1299 320.159C80.1299 320.814 80.5666 321.47 81.0032 321.688C81.4399 321.907 81.8766 321.688 81.8766 321.251C81.8766 320.596 81.4399 319.94 81.0032 319.722C80.3482 319.284 80.1299 319.503 80.1299 320.159Z" fill="#7AA3E5"/>
<path d="M84.4966 322.562C84.4966 323.218 84.9333 323.873 85.3699 324.092C85.8066 324.31 86.2433 324.092 86.2433 323.655C86.2433 322.999 85.8066 322.343 85.3699 322.125C84.9333 321.906 84.4966 322.125 84.4966 322.562Z" fill="#7AA3E5"/>
<path d="M88.8633 325.184C88.8633 325.84 89.2999 326.495 89.7366 326.714C90.1733 326.932 90.61 326.714 90.61 326.277C90.61 325.621 90.1733 324.965 89.7366 324.747C89.2999 324.31 88.8633 324.528 88.8633 325.184Z" fill="#7AA3E5"/>
<path d="M10.48 284.538C10.48 285.193 10.9167 285.849 11.3533 286.067C11.79 286.286 12.2267 286.067 12.2267 285.63C12.2267 284.975 11.79 284.319 11.3533 284.1C10.9167 283.663 10.48 283.882 10.48 284.538Z" fill="#7AA3E5"/>
<path d="M15.0649 286.941C15.0649 287.596 15.5016 288.252 15.9383 288.471C16.375 288.689 16.8116 288.471 16.8116 288.034C16.8116 287.378 16.375 286.722 15.9383 286.504C15.5016 286.285 15.0649 286.504 15.0649 286.941Z" fill="#7AA3E5"/>
<path d="M19.4319 289.563C19.4319 290.219 19.8686 290.874 20.3052 291.093C20.7419 291.311 21.1786 291.093 21.1786 290.656C21.1786 290 20.7419 289.344 20.3052 289.126C19.8686 288.689 19.4319 288.907 19.4319 289.563Z" fill="#7AA3E5"/>
<path d="M23.7986 292.186C23.7986 292.842 24.2353 293.497 24.6719 293.716C25.1086 293.934 25.5453 293.716 25.5453 293.279C25.5453 292.623 25.1086 291.967 24.6719 291.749C24.2353 291.312 23.7986 291.53 23.7986 292.186Z" fill="#7AA3E5"/>
<path d="M28.1653 294.591C28.1653 295.247 28.602 295.902 29.0386 296.121C29.4753 296.339 29.912 296.121 29.912 295.684C29.912 295.028 29.4753 294.373 29.0386 294.154C28.602 293.936 28.1653 294.154 28.1653 294.591Z" fill="#7AA3E5"/>
<path d="M32.7505 297.213C32.7505 297.869 33.1872 298.525 33.6238 298.743C34.0605 298.962 34.4972 298.743 34.4972 298.306C34.4972 297.65 34.0605 296.995 33.6238 296.776C32.9688 296.339 32.7505 296.558 32.7505 297.213Z" fill="#7AA3E5"/>
<path d="M37.1172 299.834C37.1172 300.49 37.5539 301.146 37.9905 301.364C38.4272 301.583 38.8639 301.364 38.8639 300.927C38.8639 300.49 38.4272 299.616 37.9905 299.397C37.5539 298.96 37.1172 299.179 37.1172 299.834Z" fill="#7AA3E5"/>
<path d="M10.48 279.948C10.48 280.603 10.9167 281.259 11.3533 281.477C11.79 281.696 12.2267 281.477 12.2267 281.04C12.2267 280.603 11.79 279.729 11.3533 279.511C10.9167 279.074 10.48 279.292 10.48 279.948Z" fill="#7AA3E5"/>
<path d="M14.8467 282.351C14.8467 283.007 15.2834 283.662 15.72 283.881C16.1567 284.099 16.5934 283.881 16.5934 283.444C16.5934 282.788 16.1567 282.132 15.72 281.914C15.2834 281.695 14.8467 281.914 14.8467 282.351Z" fill="#7AA3E5"/>
<path d="M19.2134 284.973C19.2134 285.629 19.6501 286.284 20.0867 286.503C20.5234 286.721 20.9601 286.503 20.9601 286.066C20.9601 285.629 20.5234 284.755 20.0867 284.536C19.6501 284.099 19.2134 284.317 19.2134 284.973Z" fill="#7AA3E5"/>
<path d="M23.7986 287.596C23.7986 288.252 24.2353 288.907 24.6719 289.126C25.1086 289.344 25.5453 289.126 25.5453 288.689C25.5453 288.252 25.1086 287.378 24.6719 287.159C24.0169 286.722 23.7986 286.941 23.7986 287.596Z" fill="#7AA3E5"/>
<path d="M28.1653 290.001C28.1653 290.657 28.602 291.313 29.0386 291.531C29.4753 291.75 29.912 291.531 29.912 291.094C29.912 290.438 29.4753 289.783 29.0386 289.564C28.602 289.346 28.1653 289.564 28.1653 290.001Z" fill="#7AA3E5"/>
<path d="M32.532 292.623C32.532 293.279 32.9687 293.935 33.4053 294.153C33.842 294.372 34.2787 294.153 34.2787 293.716C34.2787 293.061 33.842 292.405 33.4053 292.186C32.9687 291.749 32.532 291.968 32.532 292.623Z" fill="#7AA3E5"/>
<path d="M36.8987 295.245C36.8987 295.9 37.3354 296.556 37.772 296.774C38.2087 296.993 38.6454 296.774 38.6454 296.337C38.6454 295.9 38.2087 295.026 37.772 294.807C37.3354 294.37 36.8987 294.589 36.8987 295.245Z" fill="#7AA3E5"/>
<path d="M267.027 183.353C266.154 183.79 266.154 184.664 267.027 185.32C267.9 185.757 269.429 185.757 270.302 185.32C271.175 184.883 271.175 184.009 270.302 183.353C269.429 182.916 267.9 182.916 267.027 183.353Z" fill="#031F60"/>
<g opacity="0.6">
<path d="M199.997 136.587C199.997 126.535 192.792 122.382 184.059 127.409H183.84C175.107 132.435 167.465 144.892 166.81 154.945L166.155 164.997C165.718 170.461 160.478 177.891 154.365 181.606C148.251 185.103 143.23 182.262 143.23 175.05V166.09C143.23 158.004 137.553 154.726 130.566 158.66C123.798 162.593 117.902 171.991 117.247 179.639L116.374 191.222C115.719 198.434 110.261 207.175 103.929 210.891L102.619 211.328C96.287 214.824 90.6102 211.983 89.9552 204.771L84.9334 154.726C83.8417 144.673 75.9816 140.521 67.2481 145.547H67.0297C58.2962 150.574 51.0911 163.031 51.0911 173.083V277.545L199.779 191.659V136.587H199.997Z" fill="url(#paint2_linear)"/>
<path opacity="0.6" d="M199.997 191.878V136.587C199.997 126.535 192.792 122.382 184.059 127.409H183.84C175.107 132.435 167.465 144.892 166.81 154.945L166.155 164.997C165.718 170.461 160.478 177.891 154.365 181.606C148.251 185.103 143.23 182.262 143.23 175.05V166.09C143.23 158.004 137.553 154.726 130.566 158.66C123.798 162.593 117.902 171.991 117.247 179.639L116.374 191.222C115.719 198.434 110.261 207.175 103.929 210.891L102.619 211.328C96.287 214.824 90.6102 211.983 89.9552 204.771L84.9334 154.726C83.8417 144.673 75.9816 140.521 67.2481 145.547H67.0297C58.2962 150.574 51.0911 163.031 51.0911 173.083V277.545" stroke="#E9FFFB" stroke-miterlimit="10" stroke-linecap="round"/>
</g>
<path d="M207.639 187.288C206.984 194.499 201.526 203.241 195.194 206.956C188.862 210.671 182.748 207.83 181.657 200.618C181.657 200.618 181.002 196.029 179.91 190.129C179.037 184.447 174.015 182.261 168.556 185.321C163.316 188.38 158.076 196.685 156.985 203.897L154.801 218.539C153.71 225.75 148.688 233.836 143.666 236.677C138.644 239.518 133.841 236.24 132.749 229.029L128.382 203.897C126.636 193.844 118.12 189.91 109.387 194.936H109.169C100.435 199.963 93.23 212.201 93.23 222.472V302.458L241.918 216.572V112.11C241.918 102.057 235.586 97.4681 227.726 102.057C219.866 106.647 212.879 118.448 212.006 128.501L207.639 187.288Z" fill="url(#paint3_linear)"/>
<path d="M242.573 216.572V112.11C242.573 102.057 236.241 97.4681 228.381 102.057C220.521 106.647 213.534 118.448 212.66 128.501L207.857 187.288C207.202 194.499 201.744 203.241 195.412 206.956C189.08 210.671 182.966 207.83 181.875 200.618C181.875 200.618 181.22 196.029 180.128 190.129C179.255 184.447 174.233 182.261 168.775 185.321C163.534 188.38 158.294 196.685 157.203 203.897L155.019 218.539C153.928 225.75 148.906 233.836 143.884 236.677C138.862 239.518 134.059 236.24 132.967 229.029L128.6 203.897C126.854 193.844 118.338 189.91 109.605 194.936H109.387C100.653 199.963 93.448 212.201 93.448 222.472V302.458" stroke="#E9FFFB" stroke-miterlimit="10" stroke-linecap="round"/>
</g>
<defs>
<linearGradient id="paint0_linear" x1="66.7882" y1="313.197" x2="-10.8784" y2="296" gradientUnits="userSpaceOnUse">
<stop stop-color="#17D6A6"/>
<stop offset="1" stop-color="#17ECC7"/>
</linearGradient>
<linearGradient id="paint1_linear" x1="334.402" y1="169.247" x2="240.775" y2="118.805" gradientUnits="userSpaceOnUse">
<stop stop-color="#17D6A6"/>
<stop offset="1" stop-color="#17ECC7"/>
</linearGradient>
<linearGradient id="paint2_linear" x1="143.276" y1="87.3955" x2="144.937" y2="261.564" gradientUnits="userSpaceOnUse">
<stop offset="0.16" stop-color="white"/>
<stop offset="1" stop-color="#41D4CC"/>
</linearGradient>
<linearGradient id="paint3_linear" x1="133.479" y1="76.7486" x2="167.472" y2="355.98" gradientUnits="userSpaceOnUse">
<stop offset="0.16" stop-color="white"/>
<stop offset="1" stop-color="#FF9D33"/>
</linearGradient>
<clipPath id="clip0">
<rect width="331" height="356" fill="white"/>
</clipPath>
</defs>
</svg>
