<svg xmlns="http://www.w3.org/2000/svg" width="164" height="144" viewBox="0 0 164 144" fill="none"><path d="M97.9069 93.0566C96.3144 92.1775 94.9293 91.7379 93.7515 91.7379C92.9553 91.7379 92.3332 91.8955 91.8854 92.2106C91.4541 92.5258 91.2384 92.9986 91.2384 93.6289C91.2384 94.2095 91.5536 94.7238 92.184 95.1716C92.8309 95.6029 93.6852 96.0176 94.7468 96.4158C95.6094 96.7309 96.3476 97.0959 96.9614 97.5106C97.5751 97.9087 98.0811 98.4644 98.4792 99.1777C98.8939 99.891 99.1012 100.795 99.1012 101.89C99.1012 102.835 98.8524 103.715 98.3548 104.527C97.8737 105.324 97.1604 105.962 96.2149 106.443C95.2694 106.908 94.1414 107.14 92.8309 107.14C91.7361 107.14 90.6495 106.982 89.5713 106.667C88.4931 106.336 87.4895 105.838 86.5605 105.174L88.153 102.363C88.7834 102.827 89.505 103.209 90.3178 103.507C91.1306 103.806 91.8605 103.955 92.5074 103.955C93.2705 103.955 93.934 103.798 94.498 103.482C95.062 103.151 95.344 102.62 95.344 101.89C95.344 100.944 94.4565 100.123 92.6816 99.4265C91.6365 99.0118 90.7657 98.6137 90.069 98.2322C89.3723 97.8506 88.7668 97.3032 88.2525 96.5899C87.7549 95.8766 87.5061 94.9809 87.5061 93.9026C87.5061 92.3268 88.0203 91.0578 89.0488 90.0957C90.0938 89.1335 91.479 88.611 93.2041 88.5281C94.5644 88.5281 95.7007 88.6857 96.613 89.0008C97.5254 89.2994 98.4128 89.7307 99.2754 90.2947L97.9069 93.0566Z" fill="#252F3D"/><path d="M114.479 88.6276V92.1111H110.025V106.941H106.417V92.1111H102.137V88.6276H114.479Z" fill="#252F3D"/><path d="M126.282 103.358H120.211L118.718 106.941H115.16L123.421 87.906H123.62L131.881 106.941H127.7L126.282 103.358ZM125.088 100.322L123.321 95.8684L121.48 100.322H125.088Z" fill="#252F3D"/><path d="M145.175 106.941L141.318 101.119H138.905V106.941H135.297V88.6276H140.845C143.118 88.6276 144.876 89.1833 146.12 90.2947C147.381 91.3895 148.012 92.8908 148.012 94.7984C148.012 95.9264 147.771 96.9881 147.29 97.9834C146.825 98.9621 146.104 99.7334 145.125 100.297L149.38 106.941H145.175ZM138.905 97.635H141.467C142.446 97.635 143.159 97.353 143.607 96.789C144.055 96.2084 144.279 95.5864 144.279 94.9228C144.279 94.2593 144.088 93.6289 143.707 93.0318C143.325 92.418 142.587 92.1111 141.492 92.1111H138.905V97.635Z" fill="#252F3D"/><path d="M163.834 88.6276V92.1111H159.38V106.941H155.772V92.1111H151.493V88.6276H163.834Z" fill="#252F3D"/><path d="M103.53 133.412H99.9224V125.972H91.7361V133.412H88.1281V115.098H91.7361V122.488H99.9224V115.098H103.53V133.412Z" fill="#252F3D"/><path d="M112.229 126.644C112.229 127.224 112.403 127.78 112.752 128.311C113.1 128.841 113.564 129.273 114.145 129.605C114.726 129.936 115.348 130.102 116.011 130.102C116.724 130.102 117.38 129.936 117.977 129.605C118.574 129.273 119.038 128.841 119.37 128.311C119.719 127.78 119.893 127.224 119.893 126.644V115.098H123.451V126.718C123.451 128.029 123.119 129.215 122.456 130.276C121.792 131.321 120.888 132.143 119.743 132.74C118.615 133.32 117.371 133.611 116.011 133.611C114.651 133.611 113.407 133.32 112.279 132.74C111.151 132.143 110.255 131.321 109.591 130.276C108.945 129.215 108.621 128.029 108.621 126.718V115.098H112.229V126.644Z" fill="#252F3D"/><path d="M137.979 123.757C138.941 124.205 139.687 124.794 140.218 125.524C140.766 126.237 141.039 127.067 141.039 128.012C141.039 129.87 140.425 131.238 139.198 132.118C137.987 132.98 136.469 133.412 134.644 133.412H128.548V115.098H133.923C135.864 115.098 137.39 115.496 138.501 116.293C139.613 117.072 140.168 118.208 140.168 119.701C140.168 120.614 139.978 121.418 139.596 122.115C139.215 122.795 138.675 123.343 137.979 123.757ZM132.156 122.588H134.346C135.009 122.588 135.524 122.389 135.889 121.991C136.254 121.576 136.436 121.07 136.436 120.473C136.436 119.859 136.229 119.395 135.814 119.079C135.399 118.748 134.827 118.582 134.097 118.582H132.156V122.588ZM134.47 130.052C135.316 130.052 135.996 129.887 136.511 129.555C137.041 129.206 137.307 128.692 137.307 128.012C137.307 126.718 136.278 126.071 134.221 126.071H132.156V130.052H134.47Z" fill="#252F3D"/><path fill-rule="evenodd" clip-rule="evenodd" d="M107.894 71.9998C107.929 71.9999 107.964 71.9999 108 71.9999C127.882 71.9999 144 55.8822 144 36C144 16.1177 127.882 0 108 0C88.1174 0 71.9997 16.1176 71.9996 35.9998H71.9982V71.9998H107.894Z" fill="#3D00FF"/><path fill-rule="evenodd" clip-rule="evenodd" d="M71.9996 107.843C71.9998 107.895 71.9999 107.948 71.9999 108C71.9999 127.882 55.8822 144 36 144C16.1177 144 0 127.882 0 108C0 88.1179 16.1175 72.0003 35.9996 72.0001V71.9996L71.9996 71.9996L71.9996 107.843Z" fill="#3D00FF"/></svg>