<svg width="430" height="458" viewBox="0 0 430 458" fill="none" xmlns="http://www.w3.org/2000/svg">
<g clip-path="url(#clip0)">
<path d="M72.2999 423.5C153.9 468.5 286.3 468.5 368 423.5C449.6 378.5 449.6 305.6 368 260.7C286.4 215.7 154 215.7 72.2999 260.7C-9.4001 305.7 -9.4001 378.6 72.2999 423.5Z" fill="#F5F5F5"/>
<path d="M55.6 391.8L61.7 395.3C63.4 396.3 66.1 396.3 67.8 395.3L248.6 291C250.3 290 250.3 288.5 248.6 287.5L242.5 284C240.8 283 238.1 283 236.4 284L55.6 388.3C53.9 389.3 53.9 390.8 55.6 391.8Z" fill="#E0E0E0"/>
<path d="M321.2 362.1C338.9 371.3 367.6 371.3 385.3 362.1C403 352.9 403 337.9 385.3 328.6C367.6 319.4 338.9 319.4 321.2 328.6C303.5 337.9 303.5 352.9 321.2 362.1Z" fill="#E0E0E0"/>
<path d="M299.4 343.5C304.7 346.3 313.4 346.3 318.7 343.5C324 340.7 324 336.2 318.7 333.4C313.4 330.6 304.7 330.6 299.4 333.4C294.1 336.2 294.1 340.7 299.4 343.5Z" fill="#E0E0E0"/>
<path d="M63.1002 344.8C63.3002 335.9 60.9002 321 52.1002 306.2C42.7002 290.3 30.4002 279.6 20.0002 282.9C10.3002 285.9 12.5002 299 27.0002 313.3C37.2002 323.3 47.5002 336.1 52.3002 350.6L60.5002 369.3L63.1002 344.8Z" fill="#27DEBF"/>
<path d="M63.1002 344.8C63.3002 335.9 60.9002 321 52.1002 306.2C42.7002 290.3 30.4002 279.6 20.0002 282.9C10.3002 285.9 12.5002 299 27.0002 313.3C37.2002 323.3 47.5002 336.1 52.3002 350.6L60.5002 369.3L63.1002 344.8Z" fill="#37474F"/>
<path d="M61.5001 351.4C61.2001 351.4 61.0001 351.2 61.0001 350.9C54.8001 325.5 39.0001 298.9 24.3001 288.8C24.0001 288.6 23.9001 288.2 24.1001 287.9C24.3001 287.6 24.7001 287.5 25.0001 287.7C39.9001 298 55.9001 325 62.2001 350.6C62.3001 350.9 62.1001 351.3 61.7001 351.4C61.6001 351.4 61.6001 351.4 61.5001 351.4Z" fill="white"/>
<path d="M63.2 373.5C63.2 373.5 57 379.7 45.9 382.2C34.8 384.6 29.6 379.6 29.6 379.6C29.6 379.6 33.4 368.9 39.5 365.5C39.5 365.5 28.9 368.3 20.6 374.6C20.6 374.6 13.8 375.1 10.4 364.9C10.4 364.9 14.1 358.4 27.4 354.2C27.4 354.2 19 352.6 7.30004 356.4C6.40004 356.8 1.80004 343.6 0.30004 337.4C-1.19996 331.3 1.30004 331.2 6.00004 329.6C10.7 328 27.2 326.2 30.4 328.7C33.6 331.2 35.7 340.2 35.7 340.2C35.7 340.2 38.3 334.9 37.3 330.3C37.3 330.3 42.1 328.4 47.6 329.9C53.1 331.4 53 334.1 53.2 338.1C53.5 342.3 53.2 345.2 52.3 350C52.3 350 55.9 346.5 55.3 334.5C55.3 334.5 63 340.4 66.3 345.6C69.7 350.8 69.8 365 63.2 373.5Z" fill="#455A64"/>
<path d="M63.2001 374.2C63.0001 374.2 62.7001 374.1 62.6001 373.9C52.5001 355.7 17.7001 335.9 5.50008 334.3C5.20008 334.3 4.90008 333.9 5.00008 333.6C5.00008 333.3 5.40008 333 5.70008 333.1C18.0001 334.7 53.4001 354.8 63.7001 373.3C63.9001 373.6 63.8001 374 63.5001 374.2C63.4001 374.1 63.3001 374.2 63.2001 374.2Z" fill="white"/>
<path d="M371.1 317.4C371.1 317.4 372.5 305.2 378.5 295.8C384.6 286.3 392.9 280.4 400.7 279.8C408.5 279.2 414.7 286.3 406.4 291.2C398.1 296.1 383.3 301.1 376.5 319.5L371.1 317.4Z" fill="#27DEBF"/>
<path opacity="0.1" d="M371.1 317.4C371.1 317.4 372.5 305.2 378.5 295.8C384.6 286.3 392.9 280.4 400.7 279.8C408.5 279.2 414.7 286.3 406.4 291.2C398.1 296.1 383.3 301.1 376.5 319.5L371.1 317.4Z" fill="black"/>
<path d="M373.4 314.3C373.3 314.3 373.3 314.3 373.4 314.3C373.1 314.2 373 313.9 373.1 313.7C381.3 293.5 396.9 285.1 404 283.4C404.2 283.3 404.4 283.5 404.5 283.7C404.6 283.9 404.4 284.1 404.2 284.2C397.2 285.8 381.9 294.1 373.9 314C373.8 314.2 373.6 314.3 373.4 314.3Z" fill="white"/>
<path d="M414.9 314.5C414.2 316.1 412.5 316.9 410.9 317.6C409.3 318.2 407.5 318.9 406.7 320.4C404.9 323.4 407.8 327.7 405.9 330.6C405.1 331.8 403.6 332.5 402.2 332.7C401 332.9 399.8 332.9 398.6 333C398 333 397.4 332.9 396.9 332.9C395.2 332.7 393.4 332.6 391.9 333.4C389.5 334.8 388.8 337.8 387.3 340.1C385.5 342.9 382.4 344.7 379.2 345.2C378.1 345.3 376.1 345.5 375 344.9C374.9 344.9 374.8 344.8 374.8 344.8C374.6 344.6 374.5 344.4 374.4 344.3C374.4 344.3 374.4 344.3 374.4 344.2C374 342.6 374.7 341 374.7 339.4C374.7 339.3 374.7 339.2 374.7 339.1C374.6 337.2 374.6 335.3 374.5 333.5C374.4 330 374.4 326.6 374.4 323.1C374.4 320.8 374.2 318.4 375.1 316.3C376.2 314 378.8 313.9 379.8 311.6C380.2 310.7 380.4 309.7 380.8 308.8C381.9 306.1 384.7 304.2 387.7 304C392.3 303.8 396.4 307.5 401 307.1C402.2 307 403.3 306.6 404.5 306.4C408.2 305.7 412.5 306.8 414.6 309.9C415.1 311.4 415.5 313.1 414.9 314.5Z" fill="#27DEBF"/>
<path d="M373.8 337.1C373.7 337.1 373.7 337.1 373.8 337.1C373.6 337 373.4 336.8 373.5 336.6C379.8 312.9 404.8 309.4 410.7 309.9C410.9 309.9 411.1 310.1 411.1 310.3C411.1 310.5 410.9 310.7 410.7 310.7C405 310.3 380.5 313.6 374.3 336.9C374.2 337 374 337.2 373.8 337.1Z" fill="white"/>
<path d="M401.5 325.1C401.4 325.1 401.4 325 401.3 325C401.2 324.9 394.9 318.7 384.3 320.2C384.1 320.2 383.9 320.1 383.9 319.9C383.9 319.7 384 319.5 384.2 319.5C395.2 317.9 401.8 324.4 401.9 324.5C402.1 324.7 402 324.9 401.9 325.1C401.8 325.1 401.7 325.1 401.5 325.1Z" fill="white"/>
<path d="M65.9001 392L62.1001 389.8C60.9001 389.1 59.9001 387.4 59.9001 386V104.9C59.9001 103.5 60.9001 101.8 62.1001 101.1L236.5 0.500098C237.7 -0.199902 239.6 -0.199902 240.8 0.500098L244.6 2.7001C245.8 3.4001 246.8 5.1001 246.8 6.4001V287.5C246.8 288.9 245.8 290.6 244.6 291.3L70.2001 392C69.0001 392.7 67.1001 392.7 65.9001 392Z" fill="#17E7C0"/>
<path opacity="0.4" d="M246.7 6.1001C246.5 5.0001 245.6 4.6001 244.6 5.2001L70.2001 105.9C69.6001 106.2 69.1001 106.8 68.7001 107.5L60.6001 102.8C61.0001 102.1 61.5001 101.5 62.1001 101.2L236.5 0.500098C237.7 -0.199902 239.6 -0.199902 240.8 0.500098L244.6 2.7001C245.7 3.3001 246.6 4.8001 246.7 6.1001Z" fill="white"/>
<path opacity="0.15" d="M69.8001 392.2C69.8001 392.2 69.7 392.2 69.7 392.3C69.6 392.3 69.6 392.4 69.5 392.4H69.4001C69.3001 392.4 69.1 392.5 69 392.5H68.9001C68.0001 392.7 67.1001 392.6 66.3001 392.3C66.1001 392.2 66.0001 392.2 65.8001 392.1L62 389.9C60.8 389.2 59.8 387.5 59.8 386.1V105C59.8 104.3 60.0001 103.5 60.4001 102.9L68.5 107.6C68.1 108.3 67.9001 109 67.9001 109.7V390.8C67.9001 391.3 68 391.7 68.2 391.9C68.5 392.2 68.9001 392.4 69.4001 392.3C69.6001 392.3 69.7001 392.2 69.8001 392.2Z" fill="black"/>
<path d="M192.3 52.3001C192.2 52.2001 192.1 52.2001 192 52.1001L188.4 50.0001C187.6 49.5001 186.2 49.0001 184.2 48.5001C183.6 48.4001 183 48.2001 182.5 48.0001C181.9 47.8001 181.4 47.6001 180.9 47.3001L181.2 47.0001L177.1 44.7001C176.8 44.5001 176.4 44.4001 176 44.3001C174.5 43.9001 172.2 44.8001 169.9 44.6001C168.5 44.4001 167 43.8001 165.8 42.1001C164.4 40.2001 163.6 37.0001 162.3 34.2001L163.4 32.6001C163.3 32.5001 163.2 32.5001 163.1 32.4001L159.4 30.2001C158.8 29.8001 158.1 29.6001 157.3 29.6001C156.2 29.6001 154.9 30.0001 153.4 30.9001C144.5 36.1001 144.2 48.3001 141 56.4001C137.8 64.5001 133.2 67.0001 130.8 70.4001C128.3 73.9001 128.2 76.4001 122.7 84.0001C117.2 91.6001 117 93.4001 117 94.9001V106.2L121.1 108.5L194.2 66.3001L192.3 52.3001ZM125.3 95.7001C124.3 96.2001 123.6 95.5001 123.6 94.0001C123.6 92.5001 124.4 90.9001 125.3 90.3001C126.2 89.7001 127 90.5001 127 92.0001C127 93.6001 126.2 95.2001 125.3 95.7001ZM157.4 64.1001C155 65.5001 152.9 64.7001 151.8 62.4001C149 62.9001 146.9 60.2001 146.9 55.5001C146.9 50.0001 149.8 43.8001 153.4 41.7001C155.8 40.3001 157.9 41.1001 159 43.4001C161.8 42.8001 163.9 45.6001 163.9 50.3001C163.9 55.8001 161 62.0001 157.4 64.1001ZM181.7 63.2001C180.8 63.7001 180 63.0001 180 61.6001C180 60.1001 180.8 58.5001 181.7 57.9001C182.7 57.4001 183.4 58.1001 183.4 59.6001C183.4 61.0001 182.6 62.6001 181.7 63.2001Z" fill="#455A64"/>
<path opacity="0.5" d="M124.9 97.8L117 93.3C116.8 94.1 116.7 94.6 116.7 95.1V106.4L120.8 108.7L124.9 106.4V97.8Z" fill="#37474F"/>
<path opacity="0.5" d="M133 83.7L137.1 74.3L130.6 70.5C128.7 73.1 128.2 75.2 125.6 79.4L133 83.7Z" fill="#37474F"/>
<path opacity="0.5" d="M149.3 64.9002L149.8 62.2002C148 61.4002 146.8 59.0002 146.8 55.5002C146.8 50.8002 148.9 45.6002 151.7 42.9002L146.1 39.7002C143.7 45.2002 142.8 51.6002 140.9 56.5002C140.5 57.5002 140 58.5002 139.6 59.4002L149.3 64.9002Z" fill="#37474F"/>
<path d="M192.3 52.3001C192.2 52.2001 192.1 52.2001 192 52.1001C191.2 51.7001 190 51.3001 188.2 50.9001C185 50.2001 183.6 49.0001 182.5 48.1001C182 47.7001 181.6 47.4001 181.2 47.1001C180.9 46.9001 180.5 46.8001 180.1 46.7001C177.6 46.1001 173.2 48.8001 169.9 44.6001L169.8 44.5001C167.6 41.5001 166.7 34.7001 163.4 32.7001C163.3 32.6001 163.2 32.6001 163.1 32.5001C161.7 31.8001 159.9 32.0001 157.4 33.4001C148.5 38.6001 148.2 50.8001 145 58.9001C141.8 67.0001 137.2 69.5001 134.8 73.0001C132.3 76.5001 132.2 79.0001 126.7 86.6001C121.2 94.2001 121 96.0001 121 97.4001V108.7L194.1 66.5001V55.1001C193.9 54.2001 193.8 53.2001 192.3 52.3001ZM129.3 98.1001C128.3 98.7001 127.6 97.9001 127.6 96.4001C127.6 94.9001 128.4 93.3001 129.3 92.7001C130.3 92.2001 131 92.9001 131 94.4001C131 95.9001 130.3 97.5001 129.3 98.1001ZM157.4 64.1001C155 65.5001 152.9 64.7001 151.8 62.4001C151.2 61.2001 150.9 59.7001 150.9 57.8001C150.9 52.3001 153.8 46.1001 157.4 44.0001C157.9 43.7001 158.5 43.5001 159 43.4001C161.8 42.8001 163.9 45.6001 163.9 50.3001C163.9 55.8001 161 62.0001 157.4 64.1001ZM185.7 65.5001C184.7 66.1001 184 65.3001 184 63.9001C184 62.4001 184.8 60.8001 185.7 60.2001C186.6 59.7001 187.4 60.4001 187.4 61.9001C187.4 63.3001 186.7 65.0001 185.7 65.5001Z" fill="#37474F"/>
<path d="M163.9 50.3C163.9 55.8 161 62 157.4 64.1C155 65.5 152.9 64.7 151.8 62.4C152.3 62.3 152.8 62.1 153.4 61.8C157 59.7 159.9 53.6 159.9 48C159.9 46.1 159.6 44.6 159 43.4C161.8 42.9 163.9 45.6 163.9 50.3Z" fill="#263238"/>
<path d="M129.3 98.1001C128.3 98.6001 127.6 97.9001 127.6 96.4001C127.6 94.9001 128.4 93.3001 129.3 92.7001C130.3 92.2001 131 92.9001 131 94.4001C131 95.9001 130.3 97.5001 129.3 98.1001Z" fill="#263238"/>
<path d="M185.7 65.5C184.7 66 184 65.3 184 63.8C184 62.3 184.8 60.7 185.7 60.1C186.7 59.6 187.4 60.3 187.4 61.8C187.4 63.4 186.7 65 185.7 65.5Z" fill="#263238"/>
<path d="M81.5 132.2L233.3 44.6C234 44.2 235.2 44.2 235.9 44.6L237.4 45.4001C238.1 45.8001 238.7 46.8 238.7 47.6V279.1C238.7 279.9 238.1 280.9 237.4 281.3L85.6 369.1C84.9 369.5 83.7 369.5 83 369.1L81.5 368.3C80.8 367.9 80.2 366.9 80.2 366.1V134.4C80.2 133.6 80.8 132.6 81.5 132.2Z" fill="#FFC77E"/>
<path d="M238.6 47.3C238.4 46.8 237.9 46.6001 237.4 46.9001L85.5999 134.5C85.1999 134.7 84.8999 135.1 84.6999 135.5L80.5999 133.2C80.7999 132.8 81.1999 132.4 81.4999 132.2L233.3 44.6C234 44.2 235.2 44.2 235.9 44.6L237.4 45.4001C238 45.8001 238.5 46.5 238.6 47.3Z" fill="#FAFAFA"/>
<path d="M85.3 369.2C85.1 369.3 85 369.3 84.8 369.3C84.7 369.3 84.6 369.3 84.6 369.3C84.3 369.3 84.1 369.3 83.8 369.3C83.6 369.3 83.5 369.2 83.3 369.2C83.2 369.2 83.1 369.1 83 369.1L81.5 368.3C80.8 367.9 80.2 366.9 80.2 366.1V134.4C80.2 134 80.3 133.5 80.6 133.1L84.7 135.4C84.5 135.8 84.3 136.3 84.3 136.7V368.2C84.3 369 84.7 369.4 85.3 369.2Z" fill="#E0E0E0"/>
<path d="M96.6001 162.2L120.8 148V176.2L96.6001 190.3V162.2Z" fill="#FAFAFA"/>
<path d="M97.6001 162.8V188.6L119.8 175.6V149.8L97.6001 162.8ZM96.6001 191.3C96.4001 191.3 96.3001 191.3 96.1001 191.2C95.8001 191 95.6001 190.7 95.6001 190.3V162.2C95.6001 161.8 95.8001 161.5 96.1001 161.3L120.3 147.1C120.6 146.9 121 146.9 121.3 147.1C121.6 147.3 121.8 147.6 121.8 148V176.1C121.8 176.5 121.6 176.8 121.3 177L97.1001 191.2C97.0001 191.3 96.8001 191.3 96.6001 191.3Z" fill="#455A64"/>
<path d="M133 142V144C133 145.1 133.8 145.6 134.7 145L220.6 95.4C221.6 94.8 222.3 93.5 222.3 92.4V90.4C222.3 89.3 221.5 88.8 220.6 89.4L134.8 139C133.8 139.5 133 140.9 133 142Z" fill="#FF9F55"/>
<path d="M133 154.3V156.3C133 157.4 133.8 157.9 134.7 157.3L220.6 107.7C221.6 107.1 222.3 105.8 222.3 104.7V102.7C222.3 101.6 221.5 101.1 220.6 101.7L134.7 151.3C133.8 151.8 133 153.2 133 154.3Z" fill="#FF9F55"/>
<path d="M133 166.5V168.5C133 169.6 133.8 170.1 134.7 169.5L220.6 119.9C221.6 119.3 222.3 118 222.3 116.9V114.9C222.3 113.8 221.5 113.3 220.6 113.9L134.7 163.5C133.8 164 133 165.4 133 166.5Z" fill="#FF9F55"/>
<path d="M109.1 176.6L103.5 171.2L105.9 166L109.1 169.1L122.5 140.9L124.9 143.2L109.1 176.6Z" fill="#FF634C"/>
<path d="M96.6001 213.8L120.8 199.6V227.8L96.6001 241.9V213.8Z" fill="#FAFAFA"/>
<path d="M97.6001 214.4V240.2L119.8 227.2V201.4L97.6001 214.4ZM96.6001 242.9C96.4001 242.9 96.3001 242.9 96.1001 242.8C95.8001 242.6 95.6001 242.3 95.6001 241.9V213.8C95.6001 213.4 95.8001 213.1 96.1001 212.9L120.3 198.7C120.6 198.5 121 198.5 121.3 198.7C121.6 198.9 121.8 199.2 121.8 199.6V227.7C121.8 228.1 121.6 228.4 121.3 228.6L97.1001 242.8C97.0001 242.9 96.8001 242.9 96.6001 242.9Z" fill="#455A64"/>
<path d="M133 193.6V195.6C133 196.7 133.8 197.2 134.7 196.6L220.6 147C221.6 146.4 222.3 145.1 222.3 144V142C222.3 140.9 221.5 140.4 220.6 141L134.7 190.6C133.8 191.1 133 192.5 133 193.6Z" fill="#FF9F55"/>
<path d="M133 205.9V207.9C133 209 133.8 209.5 134.7 208.9L220.6 159.3C221.6 158.7 222.3 157.4 222.3 156.3V154.3C222.3 153.2 221.5 152.7 220.6 153.3L134.7 202.9C133.8 203.4 133 204.8 133 205.9Z" fill="#FF9F55"/>
<path d="M133 218.1V220.1C133 221.2 133.8 221.7 134.7 221.1L220.6 171.5C221.6 170.9 222.3 169.6 222.3 168.5V166.5C222.3 165.4 221.5 164.9 220.6 165.5L134.7 215.1C133.8 215.6 133 217 133 218.1Z" fill="#FF9F55"/>
<path d="M109.1 228.2L103.5 222.8L105.9 217.6L109.1 220.7L122.5 192.5L124.9 194.8L109.1 228.2Z" fill="#FF634C"/>
<path d="M96.6001 265.4L120.8 251.2V279.4L96.6001 293.5V265.4Z" fill="#FAFAFA"/>
<path d="M97.6001 266V291.8L119.8 278.8V253L97.6001 266ZM96.6001 294.5C96.4001 294.5 96.3001 294.5 96.1001 294.4C95.8001 294.2 95.6001 293.9 95.6001 293.5V265.4C95.6001 265 95.8001 264.7 96.1001 264.5L120.3 250.3C120.6 250.1 121 250.1 121.3 250.3C121.6 250.5 121.8 250.8 121.8 251.2V279.3C121.8 279.7 121.6 280 121.3 280.2L97.1001 294.4C97.0001 294.5 96.8001 294.5 96.6001 294.5Z" fill="#455A64"/>
<path d="M133 245.2V247.2C133 248.3 133.8 248.8 134.7 248.2L220.6 198.6C221.6 198 222.3 196.7 222.3 195.6V193.6C222.3 192.5 221.5 192 220.6 192.6L134.7 242.2C133.8 242.7 133 244.1 133 245.2Z" fill="#FF9F55"/>
<path d="M133 257.5V259.5C133 260.6 133.8 261.1 134.7 260.5L220.6 210.9C221.6 210.3 222.3 209 222.3 207.9V205.9C222.3 204.8 221.5 204.3 220.6 204.9L134.7 254.5C133.8 255 133 256.4 133 257.5Z" fill="#FF9F55"/>
<path d="M133 269.7V271.7C133 272.8 133.8 273.3 134.7 272.7L220.6 223.1C221.6 222.5 222.3 221.2 222.3 220.1V218.1C222.3 217 221.5 216.5 220.6 217.1L134.7 266.7C133.8 267.2 133 268.6 133 269.7Z" fill="#FF9F55"/>
<path d="M96.6001 317L120.8 302.8V331L96.6001 345.1V317Z" fill="#FAFAFA"/>
<path d="M97.6001 317.6V343.4L119.8 330.4V304.6L97.6001 317.6ZM96.6001 346.1C96.4001 346.1 96.3001 346.1 96.1001 346C95.8001 345.8 95.6001 345.5 95.6001 345.1V317C95.6001 316.6 95.8001 316.3 96.1001 316.1L120.3 301.9C120.6 301.7 121 301.7 121.3 301.9C121.6 302.1 121.8 302.4 121.8 302.8V330.9C121.8 331.3 121.6 331.6 121.3 331.8L97.1001 346C97.0001 346.1 96.8001 346.1 96.6001 346.1Z" fill="#455A64"/>
<path d="M133 296.8V298.8C133 299.9 133.8 300.4 134.7 299.8L220.6 250.2C221.6 249.6 222.3 248.3 222.3 247.2V245.2C222.3 244.1 221.5 243.6 220.6 244.2L134.7 293.8C133.8 294.3 133 295.7 133 296.8Z" fill="#FF9F55"/>
<path d="M133 309.1V311.1C133 312.2 133.8 312.7 134.7 312.1L220.6 262.5C221.6 261.9 222.3 260.6 222.3 259.5V257.5C222.3 256.4 221.5 255.9 220.6 256.5L134.7 306.1C133.8 306.6 133 308 133 309.1Z" fill="#FF9F55"/>
<path d="M133 321.3V323.3C133 324.4 133.8 324.9 134.7 324.3L220.6 274.7C221.6 274.1 222.3 272.8 222.3 271.7V269.7C222.3 268.6 221.5 268.1 220.6 268.7L134.7 318.3C133.8 318.8 133 320.2 133 321.3Z" fill="#FF9F55"/>
<path d="M349.2 159.1C355.165 159.1 360 154.265 360 148.3C360 142.335 355.165 137.5 349.2 137.5C343.235 137.5 338.4 142.335 338.4 148.3C338.4 154.265 343.235 159.1 349.2 159.1Z" fill="#263238"/>
<path d="M336.2 182.2L320.7 200.2L299.9 191.2L299.5 202.5C299.5 202.5 316.5 210.5 319.1 211C321.7 211.5 324.2 212.1 326.5 210.4C329.2 208.4 338.7 197.3 338.7 197.3L336.2 182.2Z" fill="#FCD1C5"/>
<path d="M350.3 173C344.1 172.6 339.2 177.3 335.7 181.5C332.1 185.7 327.5 192.3 327.5 192.3C327.5 192.3 330 199.6 336.6 201.8L347.9 188.4L350.3 173Z" fill="#E0E0E0"/>
<path d="M375.1 331.9H367.5V345H375.1V331.9Z" fill="#FCD1C5"/>
<path d="M348.6 335.8L341 336L340.6 322.2L348.3 321.9L348.6 335.8Z" fill="#FCD1C5"/>
<path d="M374.6 228.2C374.6 235.5 375.5 279.7 375.5 279.7C375.7 281.8 377.6 285.7 377.2 293.7C376.6 304.7 375.7 333.1 375.7 333.1C375.7 333.1 372.1 336.7 367.1 333.1C367.1 333.1 360.2 293.7 358.8 282.9C357.6 273.4 355.6 247.7 355.6 247.7L351.4 283.4C351.4 283.4 352.6 290.5 352.9 295.5C353.2 300.5 348.8 326 348.8 326C348.8 326 344.9 328.7 340.5 326.3C340.5 326.3 337.2 287.4 336.4 282.9C335.6 278.4 338.9 228.1 338.9 228.1H374.6V228.2Z" fill="#37474F"/>
<path d="M367.3 175.4C370.6 176 373.3 178.5 374 181.8C374.4 183.4 374.6 185.4 374.6 187.6V202.6V228.2C369.2 234 350.6 236.7 338.9 228.2C338.9 228.2 339.1 192.4 340 186.5C341.5 176.3 346.4 172.6 351.3 173L363.1 174.7L367.3 175.4Z" fill="#F0F0F0"/>
<path d="M367.9 156C367.9 156 366.1 164.3 365.4 165.6C364.7 167 363.2 167.3 363.2 167.3L363.3 161.5L367.9 156Z" fill="#263238"/>
<path d="M365.7 144.2C365.7 144.2 367.6 143.9 369.1 145.4C370.5 146.9 369.7 151.5 367.9 156L364.6 156.4L365.7 144.2Z" fill="#263238"/>
<path d="M363.6 156.4C364.3 156.8 365.2 155.5 366 154.7C366.8 153.8 369.5 152.7 370.8 155.5C372.2 158.4 369.6 162.1 367.5 162.8C363.9 163.9 363.3 161.6 363.3 161.6L363 174.7C363 174.7 360.6 180.5 354.2 181.4C347.8 182.3 349.1 177 351.2 174.4V170.4C351.2 170.4 347.9 170.9 346.3 170.7C343.6 170.3 342 168.2 341.1 165.3C339.8 160.7 339.3 156.9 340.4 147.8C341.6 137.8 353.2 137.7 359.5 141.7C366 145.5 363.6 156.4 363.6 156.4Z" fill="#FCD1C5"/>
<path d="M363.6 157.5C363.9 157.5 365.2 155.4 366 154.6C367.1 153.6 365.7 144.1 365.7 144.1C365.7 144.1 366.8 141.8 364.6 139.3C363 137.6 360.4 137.4 355.9 136.7C353.6 136.3 350 135.7 347.6 135.2C344.8 134.7 342.5 134.1 340.5 135.8C339 137.1 338.3 139.5 339.1 141.4C339.3 141.8 339.6 142.2 339.9 142.6C340.5 143.2 341.1 143.7 341.9 144C341.9 144 343.1 145.1 347.4 145.6C351.6 146.1 358.3 145.5 359.2 145.4C360.4 145.2 360.7 146.4 361.4 149.7C362 152.7 362.5 157.5 363.6 157.5Z" fill="#263238"/>
<path d="M365.7 144.9L369.7 142.7C369.1 141.5 367.8 141.1 366.7 141.7C365.6 142.4 365.1 143.8 365.7 144.9Z" fill="#263238"/>
<path d="M351.3 170.3C351.3 170.3 357.3 169.1 359.3 168C360.7 167.3 361.8 166 362.2 165.2C362.2 165.2 361.8 167 360.6 168.6C359.1 170.5 351.3 172 351.3 172V170.3Z" fill="#F28F8F"/>
<path d="M354.005 156.101C354.668 156.099 355.203 155.56 355.202 154.897C355.2 154.235 354.661 153.699 353.998 153.701C353.335 153.703 352.8 154.241 352.802 154.904C352.803 155.567 353.342 156.103 354.005 156.101Z" fill="#263238"/>
<path d="M354 150.4L356.6 151.8C357 151.1 356.7 150.2 356 149.8C355.3 149.4 354.4 149.7 354 150.4Z" fill="#263238"/>
<path d="M351.9 163.2L349.2 164.2C349.5 165 350.3 165.4 351 165.1C351.8 164.8 352.2 164 351.9 163.2Z" fill="#F28F8F"/>
<path d="M342.1 151.4L344.4 149.6C343.9 148.9 343 148.8 342.4 149.3C341.8 149.8 341.7 150.8 342.1 151.4Z" fill="#263238"/>
<path d="M344.005 155.801C344.668 155.799 345.203 155.26 345.201 154.597C345.2 153.935 344.661 153.399 343.998 153.401C343.335 153.403 342.8 153.941 342.801 154.604C342.803 155.267 343.342 155.803 344.005 155.801Z" fill="#263238"/>
<path d="M348.9 153.5L348.5 160.6L344.8 159.4L348.9 153.5Z" fill="#F28F8F"/>
<path d="M367.5 341.2V340.1C366.8 340.4 365.1 346.9 362 349.7C359.6 351.9 356.3 354.4 355.5 356.9C354.6 359.4 360.1 360.9 362.3 360.5C364.9 360 369.4 358.2 370.6 356.5C371.7 354.8 372.3 352.3 373.2 351C374.1 349.7 376.3 348.4 376.8 346.9C377.1 346.1 376.7 344.4 376.4 342.9C376 341.5 375.7 340.1 375.2 340.2C375.2 340.4 375.2 341 375.2 341C374.6 341.6 373.1 342.2 371.4 342.3C370.2 342.2 367.5 342 367.5 341.2Z" fill="#263238"/>
<path d="M340.9 333.7C340.5 333.7 340.2 334.3 339.3 335.2C338.2 336.3 336.5 337.6 334.8 338.4C331.9 339.8 326.4 342 323.9 343.2C322.3 343.9 322.4 345.8 324 346.9C325.6 348 329.5 348.8 334.3 347.7C336.9 347.1 340.2 344.8 342.3 344.9C344.4 345 348.4 345 349.9 343.9C351.5 342.8 350.8 340.5 350.4 338.6C349.9 336.4 349.2 333.1 348.5 333.3V334C347.6 335.4 342.9 336 340.9 334.9V333.7Z" fill="#263238"/>
<path d="M355.6 247.7C355.6 247.7 349.5 246 345 241.6C345 241.6 347.1 245.4 353.2 249L351.4 283.4L355.6 247.7Z" fill="#263238"/>
<path d="M323.2 300.7L310.3 338.2C309.9 339.3 308.4 339.3 308 338.2L295.3 300.4L323.2 300.7Z" fill="#FFA8A7"/>
<path d="M308 338.2C308.4 339.3 309.9 339.3 310.3 338.2L312.8 330.9C310.6 332.1 307.9 331.9 305.8 330.5L305.2 330.1L308 338.2Z" fill="#263238"/>
<path d="M295.8 133V136.7V141.1L295.3 300.3C298.2 303.7 302.6 305.4 307 305.8C313.7 306.5 320.6 304.3 323.1 300.6L323.5 141.5V133C323.3 138.5 295.6 138.5 295.8 133Z" fill="#17E7C0"/>
<path d="M295.7 147V155.2C295.6 157.6 300.7 159.1 306.5 159.6C314.3 160.3 323.4 158.2 323.5 155.1V149.1V146.9C323.4 150 314.2 152.2 306.5 151.4C300.9 150.9 296 149.4 295.7 147.2C295.7 147.1 295.7 147.1 295.7 147Z" fill="#EBEBEB"/>
<path d="M295.8 149C295.6 154.5 323.4 154.5 323.6 148.9V140.7C323.4 146.2 295.6 146.3 295.8 140.8V149Z" fill="#27DEBF"/>
<path d="M295.8 133V141.1C295.6 146.5 322.4 146.7 323.6 141.5C323.6 141.4 323.6 141.3 323.6 141.2V133C323.3 138.5 295.6 138.5 295.8 133Z" fill="#EBEBEB"/>
<path opacity="0.1" d="M323.6 141.5V133C323.5 135.5 317.8 137.3 311.5 137.6L311.1 306L310.4 338.2L323.3 300.7L323.6 141.5Z" fill="black"/>
<path d="M296 98.6001L295.9 133C295.8 135.4 300.8 136.9 306.6 137.5C314.4 138.3 323.5 136.2 323.7 133.1L323.8 98.6001C323.8 91.7001 309.9 90.0001 301.6 92.9001C298.4 93.8001 296.2 95.7001 296 98.6001Z" fill="#F28F8F"/>
<path d="M386.3 239.6C386 242.9 385.6 247.4 384.9 249.9C382.6 258.7 379.7 261.4 375.8 261.6C369.6 262 369.5 259.7 372.3 255.7C374.4 252.7 375.1 250 375.1 250C373.9 250.9 372.9 251.6 372.1 251.9C370.5 252.5 369.6 251.7 369.3 251.1C369.1 250.7 370.2 250.3 371.4 248.8C372.9 246.9 373.7 245.5 375.8 243.9C376.6 243.3 376.8 242.3 377.1 241.3C377.4 240 377.6 220 376.5 215.9L371.1 196.7C366.7 193.7 362.1 178.9 368.7 175.7C374.9 176.4 379.5 184.5 386.2 209.7C387.4 214.2 387 232.7 386.3 239.6Z" fill="#FCD1C5"/>
<path d="M367.3 175.4C367.3 175.4 364.8 177.2 364.6 181.4C364.4 185.6 366.4 191.6 367.6 195.4C368.8 199.2 371.3 206 371.3 206C371.3 206 381.5 204.8 383.9 198.8C383.9 198.8 379.1 183.3 374.5 178.2C371.2 174.9 367.3 175.4 367.3 175.4Z" fill="#E0E0E0"/>
<path d="M301.7 179.2C301.7 179.2 304.2 177.2 308.9 178C311.2 178.4 310.3 187.1 302.9 189.5C298.1 191.1 297.1 190.3 295.6 194.2C295.6 194.2 292.7 193.6 293.4 189.2C294.1 184.8 296 180.7 299.3 176.9C301.4 174.4 301.6 172.3 302.6 173C303.8 173.8 303.1 175.9 303.1 175.9L301.7 179.2Z" fill="#FCD1C5"/>
</g>
<defs>
<clipPath id="clip0">
<rect width="429.2" height="457.2" fill="white"/>
</clipPath>
</defs>
</svg>
