<svg width="301" height="147" viewBox="0 0 301 147" fill="none" xmlns="http://www.w3.org/2000/svg">
<g clip-path="url(#clip0)">
<path opacity="0.2" d="M251.5 150.561C251.5 208.83 204.488 256.061 146.5 256.061C88.5123 256.061 41.5 208.83 41.5 150.561C41.5 92.2932 88.5123 45.0615 146.5 45.0615C204.488 45.0615 251.5 92.2932 251.5 150.561Z" stroke="white"/>
<g filter="url(#filter0_d)">
<path fill-rule="evenodd" clip-rule="evenodd" d="M244.631 43.3771C245.713 44.3501 246.781 45.339 247.834 46.3434L227.127 68.0508C226.289 67.2516 225.44 66.4648 224.578 65.6907L244.631 43.3771ZM252.471 50.9679C253.478 52.0183 254.469 53.0838 255.445 54.1639L233.183 74.2732C232.406 73.4138 231.617 72.5661 230.816 71.7303L252.471 50.9679ZM259.725 59.1207C260.651 60.2427 261.561 61.3789 262.454 62.5289L238.758 80.9273C238.048 80.0128 237.324 79.1091 236.588 78.2165L259.725 59.1207ZM266.354 67.7909C267.194 68.9791 268.017 70.1804 268.823 71.3946L243.822 87.9762C243.182 87.0112 242.527 86.0562 241.86 85.1116L266.354 67.7909Z" fill="#68F8B0"/>
</g>
<g filter="url(#filter1_d)">
<path fill-rule="evenodd" clip-rule="evenodd" d="M144.698 6.01773C145.426 6.00607 146.156 5.99976 146.886 5.99883C147.617 5.9979 148.347 6.00236 149.075 6.01215L148.672 36.0094C148.09 36.0016 147.508 35.9981 146.925 35.9988C146.341 35.9996 145.759 36.0046 145.178 36.0139L144.698 6.01773ZM133.808 6.59431C135.254 6.46391 136.705 6.35462 138.162 6.26675L139.968 36.2124C138.808 36.2823 137.653 36.3693 136.502 36.473L133.808 6.59431ZM155.611 6.24454C157.068 6.32871 158.52 6.43429 159.967 6.56101L157.348 36.4465C156.197 36.3457 155.042 36.2617 153.881 36.1946L155.611 6.24454ZM122.979 7.97988C124.412 7.7418 125.851 7.52461 127.297 7.32861L131.326 37.0568C130.178 37.2125 129.034 37.385 127.897 37.574L122.979 7.97988ZM166.479 7.27874C167.925 7.47106 169.366 7.68459 170.799 7.91902L165.956 37.5256C164.818 37.3395 163.675 37.1699 162.525 37.0171L166.479 7.27874ZM112.276 10.1745C113.69 9.82882 115.111 9.50372 116.54 9.19954L122.786 38.5421C121.652 38.7834 120.525 39.0413 119.404 39.3155L112.276 10.1745ZM177.241 9.12228C178.671 9.42282 180.093 9.7443 181.507 10.0864L174.454 39.2455C173.332 38.9741 172.204 38.7191 171.069 38.4806L177.241 9.12228ZM101.767 13.1686C103.15 12.7176 104.542 12.2867 105.943 11.8762L114.38 40.6652C113.27 40.9907 112.166 41.3325 111.069 41.6901L101.767 13.1686ZM187.845 11.7719C189.246 12.1789 190.64 12.6063 192.024 13.0537L182.794 41.5989C181.697 41.244 180.592 40.905 179.48 40.5823L187.845 11.7719ZM91.5137 16.9457C92.8595 16.3915 94.2155 15.8568 95.5813 15.342L106.163 43.4139C105.08 43.8222 104.004 44.2463 102.936 44.686L91.5137 16.9457ZM198.215 15.2114C199.582 15.7227 200.939 16.254 202.287 16.8047L190.935 44.574C189.866 44.1371 188.789 43.7157 187.705 43.3101L198.215 15.2114ZM81.5749 21.4826C82.8751 20.8289 84.1865 20.1941 85.5087 19.5785L98.1717 46.775C97.1224 47.2635 96.0815 47.7674 95.0494 48.2863L81.5749 21.4826ZM208.298 19.4222C209.622 20.0345 210.935 20.6659 212.237 21.3162L198.831 48.1542C197.797 47.6379 196.755 47.1367 195.705 46.6508L208.298 19.4222ZM72.0086 26.7498C73.256 26.0008 74.5156 25.2698 75.787 24.5573L90.4537 50.7277C89.4439 51.2936 88.4434 51.8742 87.4524 52.4693L72.0086 26.7498ZM218.033 24.3762C219.306 25.0856 220.567 25.8133 221.817 26.5592L206.438 52.3178C205.446 51.7253 204.444 51.1472 203.433 50.5839L218.033 24.3762ZM62.8644 32.7166C64.0526 31.8764 65.2539 31.0535 66.4681 30.2482L83.0497 55.2492C82.0847 55.8892 81.1297 56.5434 80.1851 57.2113L62.8644 32.7166ZM227.366 30.0434C228.582 30.8456 229.786 31.6655 230.976 32.5026L213.718 57.0414C212.771 56.3758 211.815 55.7241 210.848 55.0865L227.366 30.0434ZM236.248 36.3895C237.4 37.2794 238.539 38.1862 239.663 39.1094L220.626 62.2955C219.732 61.5612 218.826 60.8399 217.91 60.1322L236.248 36.3895Z" fill="#FFF38B"/>
</g>
<path opacity="0.15" fill-rule="evenodd" clip-rule="evenodd" d="M272.321 76.9351C273.07 78.1825 273.801 79.4421 274.514 80.7135L248.343 95.3802C247.777 94.3704 247.197 93.3699 246.602 92.3789L272.321 76.9351ZM277.588 86.5014C278.242 87.8016 278.877 89.113 279.492 90.4352L252.296 103.098C251.807 102.049 251.304 101.008 250.785 99.9759L277.588 86.5014ZM282.125 96.4402C282.679 97.786 283.214 99.142 283.729 100.508L255.657 111.089C255.249 110.006 254.825 108.931 254.385 107.863L282.125 96.4402ZM285.902 106.694C286.353 108.077 286.784 109.469 287.195 110.869L258.406 119.307C258.08 118.196 257.738 117.092 257.381 115.996L285.902 106.694ZM288.896 117.203C289.242 118.616 289.567 120.037 289.871 121.466L260.529 127.713C260.288 126.579 260.03 125.451 259.755 124.33L288.896 117.203ZM291.091 127.905C291.329 129.338 291.546 130.778 291.742 132.224L262.014 136.253C261.858 135.104 261.686 133.961 261.497 132.823L291.091 127.905ZM292.477 138.734C292.607 140.18 292.716 141.632 292.804 143.089L262.859 144.895C262.789 143.734 262.702 142.579 262.598 141.429L292.477 138.734Z" fill="#68F8B0"/>
<path fill-rule="evenodd" clip-rule="evenodd" d="M57.6023 36.6169C56.4524 37.5097 55.3162 38.4193 54.1942 39.3454L73.29 62.483C74.1825 61.7464 75.0863 61.0229 76.0008 60.3128L57.6023 36.6169ZM49.2374 43.6258C48.1572 44.6015 47.0918 45.5931 46.0413 46.6003L66.8038 68.2549C67.6395 67.4535 68.4873 66.6645 69.3467 65.8883L49.2374 43.6258ZM41.4169 51.2365C40.4124 52.2895 39.4235 53.3575 38.4506 54.4401L60.7642 74.4927C61.5382 73.6313 62.325 72.7816 63.1243 71.9437L41.4169 51.2365ZM34.1828 59.4077C33.2596 60.5321 32.3529 61.6706 31.463 62.8228L55.2056 81.1609C55.9134 80.2446 56.6346 79.339 57.369 78.4446L34.1828 59.4077ZM27.576 68.0949C26.7389 69.2851 25.9191 70.4886 25.1169 71.7048L50.16 88.2227C50.7976 87.2561 51.4493 86.2994 52.1148 85.3531L27.576 68.0949ZM21.6326 77.2541C20.8868 78.5034 20.159 79.7649 19.4497 81.0381L45.6573 95.6382C46.2206 94.6269 46.7987 93.6249 47.3913 92.6324L21.6326 77.2541ZM16.3897 86.8339C15.7394 88.1357 15.1079 89.4487 14.4956 90.7725L41.7243 103.366C42.2102 102.316 42.7114 101.273 43.2276 100.24L16.3897 86.8339ZM11.8782 96.7842C11.3274 98.1314 10.7962 99.4887 10.2848 100.856L38.3835 111.366C38.7891 110.282 39.2105 109.205 39.6474 108.136L11.8782 96.7842ZM8.12719 107.047C7.67971 108.431 7.25233 109.824 6.84538 111.226L35.6558 119.59C35.9785 118.479 36.3174 117.374 36.6723 116.276L8.12719 107.047ZM5.15982 117.564C4.81775 118.978 4.49627 120.4 4.19573 121.83L33.5541 128.001C33.7925 126.867 34.0476 125.739 34.3189 124.617L5.15982 117.564ZM2.99247 128.272C2.75804 129.705 2.54451 131.145 2.35219 132.592L32.0905 136.546C32.2433 135.396 32.4129 134.253 32.5991 133.115L2.99247 128.272ZM1.63446 139.104C1.50774 140.551 1.40216 142.003 1.31799 143.46L31.2681 145.19C31.3351 144.029 31.4192 142.873 31.52 141.723L1.63446 139.104Z" fill="#FF404B"/>
</g>
<defs>
<filter id="filter0_d" x="220.578" y="39.3771" width="52.2445" height="52.5991" filterUnits="userSpaceOnUse" color-interpolation-filters="sRGB">
<feFlood flood-opacity="0" result="BackgroundImageFix"/>
<feColorMatrix in="SourceAlpha" type="matrix" values="0 0 0 0 0 0 0 0 0 0 0 0 0 0 0 0 0 0 127 0"/>
<feOffset/>
<feGaussianBlur stdDeviation="2"/>
<feColorMatrix type="matrix" values="0 0 0 0 0.407843 0 0 0 0 0.972549 0 0 0 0 0.690196 0 0 0 1 0"/>
<feBlend mode="normal" in2="BackgroundImageFix" result="effect1_dropShadow"/>
<feBlend mode="normal" in="SourceGraphic" in2="effect1_dropShadow" result="shape"/>
</filter>
<filter id="filter1_d" x="58.8306" y="1.88078" width="184.862" height="64.6155" filterUnits="userSpaceOnUse" color-interpolation-filters="sRGB">
<feFlood flood-opacity="0" result="BackgroundImageFix"/>
<feColorMatrix in="SourceAlpha" type="matrix" values="0 0 0 0 0 0 0 0 0 0 0 0 0 0 0 0 0 0 127 0"/>
<feOffset/>
<feGaussianBlur stdDeviation="2"/>
<feColorMatrix type="matrix" values="0 0 0 0 1 0 0 0 0 0.952941 0 0 0 0 0.545098 0 0 0 1 0"/>
<feBlend mode="normal" in2="BackgroundImageFix" result="effect1_dropShadow"/>
<feBlend mode="normal" in="SourceGraphic" in2="effect1_dropShadow" result="shape"/>
</filter>
<clipPath id="clip0">
<rect width="301" height="146" fill="white" transform="translate(0 0.561462)"/>
</clipPath>
</defs>
</svg>
