<svg width="344" height="497" viewBox="0 0 444 597" fill="none" xmlns="http://www.w3.org/2000/svg">
<path d="M251.166 75.9998C243.008 75.9998 236.635 73.2719 230.517 70.6709C224.398 68.0699 218.599 65.5958 211.142 65.5958C203.622 65.5958 197.886 68.0699 191.768 70.6709C185.65 73.2719 179.277 75.9998 171.119 75.9998C162.961 75.9998 156.588 73.2719 150.47 70.6709C144.352 68.0699 138.552 65.5958 131.096 65.5958C123.575 65.5958 117.839 68.0699 111.721 70.6709C105.603 73.2719 99.2298 75.9998 91.0722 75.9998C82.9146 75.9998 76.5414 73.2719 70.4232 70.6709C64.305 68.0699 58.5054 65.5958 51.0489 65.5958C43.5285 65.5958 37.7927 68.0699 31.6745 70.6709C25.5563 73.2719 19.1831 75.9998 11.0255 75.9998C7.45655 75.9998 3.88759 75.4923 0.191162 74.4138L1.0834 71.3687C4.5249 72.3838 7.7752 72.8278 11.0255 72.8278C18.5458 72.8278 24.2816 70.3537 30.3999 67.7527C36.5181 65.1517 42.8912 62.4238 51.0489 62.4238C59.2065 62.4238 65.5796 65.1517 71.6978 67.7527C77.8161 70.3537 83.6156 72.8278 91.0722 72.8278C98.5925 72.8278 104.328 70.3537 110.447 67.7527C116.565 65.1517 122.938 62.4238 131.096 62.4238C139.253 62.4238 145.626 65.1517 151.745 67.7527C157.863 70.3537 163.662 72.8278 171.119 72.8278C178.639 72.8278 184.375 70.3537 190.493 67.7527C196.611 65.1517 202.985 62.4238 211.142 62.4238C219.3 62.4238 225.673 65.1517 231.791 67.7527C237.909 70.3537 243.709 72.8278 251.166 72.8278C254.416 72.8278 257.666 72.3203 261.108 71.3687L262 74.4138C258.304 75.4923 254.798 75.9998 251.166 75.9998Z" fill="#17BCB2"/>
<path d="M251.166 60.3938C243.008 60.3938 236.635 57.666 230.517 55.065C224.398 52.4639 218.599 49.9898 211.142 49.9898C203.622 49.9898 197.886 52.4639 191.768 55.065C185.65 57.666 179.277 60.3938 171.119 60.3938C162.961 60.3938 156.588 57.666 150.47 55.065C144.352 52.4639 138.552 49.9898 131.096 49.9898C123.575 49.9898 117.839 52.4639 111.721 55.065C105.603 57.666 99.2298 60.3938 91.0722 60.3938C82.9146 60.3938 76.5414 57.666 70.4232 55.065C64.305 52.4639 58.5054 49.9898 51.0489 49.9898C43.5285 49.9898 37.7927 52.4639 31.6745 55.065C25.5563 57.666 19.1831 60.3938 11.0255 60.3938C7.45655 60.3938 3.88759 59.8863 0.191162 58.8079L1.0834 55.7628C4.5249 56.7778 7.7752 57.2219 11.0255 57.2219C18.5458 57.2219 24.2816 54.7478 30.3999 52.1467C36.5181 49.5457 42.8912 46.8179 51.0489 46.8179C59.2065 46.8179 65.5796 49.5457 71.6978 52.1467C77.8161 54.7478 83.6156 57.2219 91.0722 57.2219C98.5925 57.2219 104.328 54.7478 110.447 52.1467C116.565 49.5457 122.938 46.8179 131.096 46.8179C139.253 46.8179 145.626 49.5457 151.745 52.1467C157.863 54.7478 163.662 57.2219 171.119 57.2219C178.639 57.2219 184.375 54.7478 190.493 52.1467C196.611 49.5457 202.985 46.8179 211.142 46.8179C219.3 46.8179 225.673 49.5457 231.791 52.1467C237.909 54.7478 243.709 57.2219 251.166 57.2219C254.416 57.2219 257.666 56.7144 261.108 55.7628L262 58.8079C258.304 59.8863 254.798 60.3938 251.166 60.3938Z" fill="#17BCB2"/>
<path d="M251.166 44.7879C243.008 44.7879 236.635 42.06 230.517 39.459C224.398 36.858 218.599 34.3839 211.142 34.3839C203.622 34.3839 197.886 36.858 191.768 39.459C185.65 42.06 179.277 44.7879 171.119 44.7879C162.961 44.7879 156.588 42.06 150.47 39.459C144.352 36.858 138.552 34.3839 131.096 34.3839C123.575 34.3839 117.839 36.858 111.721 39.459C105.603 42.06 99.2298 44.7879 91.0722 44.7879C82.9146 44.7879 76.5414 42.06 70.4232 39.459C64.305 36.858 58.5054 34.3839 51.0489 34.3839C43.5285 34.3839 37.7927 36.858 31.6745 39.459C25.5563 42.06 19.1831 44.7879 11.0255 44.7879C7.45655 44.7879 3.88759 44.2804 0.191162 43.2019L1.0834 40.1568C4.5249 41.1718 7.7752 41.6159 11.0255 41.6159C18.5458 41.6159 24.2816 39.1418 30.3999 36.5408C36.5181 33.9398 42.8912 31.2119 51.0489 31.2119C59.2065 31.2119 65.5796 33.9398 71.6978 36.5408C77.8161 39.1418 83.6156 41.6159 91.0722 41.6159C98.5925 41.6159 104.328 39.1418 110.447 36.5408C116.565 33.9398 122.938 31.2119 131.096 31.2119C139.253 31.2119 145.626 33.9398 151.745 36.5408C157.863 39.1418 163.662 41.6159 171.119 41.6159C178.639 41.6159 184.375 39.1418 190.493 36.5408C196.611 33.9398 202.985 31.2119 211.142 31.2119C219.3 31.2119 225.673 33.9398 231.791 36.5408C237.909 39.1418 243.709 41.6159 251.166 41.6159C254.416 41.6159 257.666 41.1084 261.108 40.1568L262 43.2019C258.304 44.2804 254.798 44.7879 251.166 44.7879Z" fill="#17BCB2"/>
<path d="M251.166 29.1819C243.008 29.1819 236.635 26.454 230.517 23.853C224.398 21.252 218.599 18.7779 211.142 18.7779C203.622 18.7779 197.886 21.252 191.768 23.853C185.65 26.454 179.277 29.1819 171.119 29.1819C162.961 29.1819 156.588 26.454 150.47 23.853C144.352 21.252 138.552 18.7779 131.096 18.7779C123.575 18.7779 117.839 21.252 111.721 23.853C105.603 26.454 99.2299 29.1819 91.0722 29.1819C82.9146 29.1819 76.5415 26.454 70.4233 23.853C64.305 21.252 58.5055 18.7779 51.0489 18.7779C43.5286 18.7779 37.7928 21.252 31.6745 23.853C25.3651 26.454 18.992 29.1819 10.8343 29.1819C7.26539 29.1819 3.69642 28.6744 0 27.5959L0.89224 24.5509C4.33374 25.5025 7.58404 26.01 10.8343 26.01C18.3547 26.01 24.0905 23.5358 30.2087 20.9348C36.3269 18.3338 42.7001 15.606 50.8577 15.606C59.0153 15.606 65.3885 18.3338 71.5067 20.9348C77.6249 23.5358 83.4245 26.01 90.8811 26.01C98.4014 26.01 104.137 23.5358 110.255 20.9348C116.374 18.3338 122.747 15.606 130.904 15.606C139.062 15.606 145.435 18.3338 151.553 20.9348C157.672 23.5358 163.471 26.01 170.928 26.01C178.448 26.01 184.184 23.5358 190.302 20.9348C196.42 18.3338 202.793 15.606 210.951 15.606C219.109 15.606 225.482 18.3338 231.6 20.9348C237.718 23.5358 243.518 26.01 250.974 26.01C254.225 26.01 257.475 25.5025 260.917 24.5509L261.809 27.5959C258.304 28.6744 254.798 29.1819 251.166 29.1819Z" fill="#17BCB2"/>
<path d="M251.166 13.576C243.008 13.576 236.635 10.8481 230.517 8.24708C224.398 5.64608 218.599 3.17195 211.142 3.17195C203.622 3.17195 197.886 5.64608 191.768 8.24708C185.65 10.8481 179.277 13.576 171.119 13.576C162.961 13.576 156.588 10.8481 150.47 8.24708C144.352 5.64608 138.552 3.17195 131.096 3.17195C123.575 3.17195 117.839 5.64608 111.721 8.24708C105.603 10.8481 99.2299 13.576 91.0722 13.576C82.9146 13.576 76.5415 10.8481 70.4232 8.24708C64.305 5.64608 58.5055 3.17195 51.0489 3.17195C43.4011 3.17195 37.6016 5.64608 31.4833 8.24708C25.3651 10.8481 18.992 13.576 10.8343 13.576C7.26538 13.576 3.69642 13.0684 0 11.99L0.89224 8.94491C4.33374 9.95993 7.58404 10.404 10.8343 10.404C18.3547 10.404 24.0905 7.92988 30.2087 5.32888C36.3907 2.72788 42.7638 0 50.9214 0C59.079 0 65.4522 2.72788 71.5704 5.32888C77.6886 7.92988 83.4882 10.404 90.9448 10.404C98.4651 10.404 104.201 7.92988 110.319 5.32888C116.437 2.72788 122.81 0 130.968 0C139.126 0 145.499 2.72788 151.617 5.32888C157.735 7.92988 163.535 10.404 170.991 10.404C178.512 10.404 184.248 7.92988 190.366 5.32888C196.484 2.72788 202.857 0 211.015 0C219.172 0 225.546 2.72788 231.664 5.32888C237.782 7.92988 243.582 10.404 251.038 10.404C254.288 10.404 257.539 9.89649 260.98 8.94491L261.872 11.99C258.304 13.0684 254.798 13.576 251.166 13.576Z" fill="#17BCB2"/>
<g filter="url(#filter0_d)">
<rect x="20" y="29" width="360" height="488" rx="20" fill="#F4F4F4"/>
</g>
<g clip-path="url(#clip0)">
<path d="M379.253 524H353.336C352.888 522.958 352.514 522.064 352.141 521.319C344.448 503.224 304.787 461.672 304.787 461.672C304.787 461.672 304.787 461.672 304.787 461.747C304.787 461.747 304.787 461.747 304.787 461.821C304.787 461.821 304.787 461.821 304.787 461.896C304.787 461.97 304.713 462.044 304.713 462.044C304.713 462.119 304.638 462.268 304.638 462.417C304.638 462.491 304.563 462.566 304.563 462.64C304.563 462.715 304.489 462.789 304.489 462.789C302.846 468.821 294.854 498.98 290.895 524H115.374C115.001 521.692 114.478 519.458 113.955 517.447C112.387 511.266 111.266 505.086 110.594 499.352C110.594 499.054 110.519 498.756 110.519 498.533C110.37 497.49 110.295 496.448 110.146 495.405C108.652 479.693 109.773 467.629 109.847 466.438C109.324 467.48 105.814 480.438 101.183 496.448C98.6438 505.235 95.7309 514.915 92.8927 524.075H51.3652L103.424 374.398C104.544 373.504 118.063 367.026 127.922 362.335C137.931 357.569 150.105 350.569 161.01 344.612C166.611 341.559 171.914 338.803 176.471 336.718L177.143 336.42C184.686 332.995 189.765 330.686 189.765 330.686C189.915 330.686 191.11 330.538 193.052 330.389C203.583 329.346 236.372 326.293 247.351 325.697C248.247 325.623 248.994 325.623 249.592 325.548C250.115 325.548 250.488 325.548 250.712 325.548C252.057 325.623 258.853 328.006 267.741 331.357C268.115 331.506 268.414 331.58 268.787 331.729C269.235 331.878 269.609 332.027 270.057 332.176C270.804 332.474 271.625 332.772 272.372 333.069C273.941 333.665 275.584 334.335 277.227 335.006C277.824 335.229 278.347 335.452 278.945 335.676C296.721 342.676 317.037 351.388 321.891 354.888C325.103 357.196 335.037 375.887 346.614 398.972C359.087 438.588 374.249 495.778 379.253 524Z" fill="#DECBC4"/>
<path d="M250.488 320.41C250.04 343.941 204.33 356.824 204.33 356.824C204.33 356.824 185.209 332.92 189.765 330.686C191.558 329.793 192.305 326.218 192.529 322.197C192.753 318.399 192.529 314.229 192.305 311.548C192.155 309.91 192.006 308.793 192.006 308.793C192.006 308.793 198.504 301.942 206.869 293.751C221.359 279.454 241.301 261.135 241.376 268.433C241.376 268.805 241.301 269.252 241.226 269.847C237.641 286.155 250.488 320.41 250.488 320.41Z" fill="#FFA7A7"/>
<path d="M232.861 285.932C232.786 286.081 230.845 288.985 227.558 293.081C220.537 301.868 207.392 316.314 192.529 322.123C192.753 318.325 192.529 314.155 192.305 311.474C190.811 311.4 189.242 311.251 187.749 310.953C191.782 303.878 197.682 296.432 197.682 296.432L206.869 293.677L232.861 285.932Z" fill="#C08D8D"/>
<path d="M241.6 268.656C237.641 277.22 233.907 283.475 232.861 285.932C232.189 287.571 230.247 290.177 227.558 293.081C220.015 301.198 206.048 311.847 192.305 311.474C190.811 311.4 189.243 311.251 187.749 310.953C182.222 309.761 175.649 307.155 172.064 300.155C143.532 244.529 164.221 199.031 164.221 199.031C164.221 199.031 242.123 177.063 254.297 200.445C262.812 216.828 250.936 248.55 241.6 268.656Z" fill="#FFA7A7"/>
<path d="M164.147 198.956C164.147 198.956 156.902 198.584 155.109 184.882C153.317 171.404 156.902 167.606 156.902 167.606C156.902 167.606 189.093 154.202 200.595 152.489C212.098 150.777 240.554 149.064 247.202 156.659C247.202 156.659 263.409 152.936 267.816 179.669C274.837 222.115 243.99 263.369 243.99 263.369C243.99 263.369 244.289 235.593 238.09 231.945C231.965 228.296 226.662 237.008 226.662 237.008L214.114 239.242C214.114 239.242 233.16 198.211 210.305 196.648C187.45 195.158 177.217 201.339 164.147 198.956Z" fill="#3C4145"/>
<path d="M227.035 225.987C228.23 213.775 250.413 209.084 248.92 221.892C247.426 234.7 236.521 246.987 231.442 246.614C226.438 246.168 226.139 235.296 227.035 225.987Z" fill="#FFA7A7"/>
<path d="M356.846 400.089C349.601 377.004 343.402 358.76 340.564 356.824C335.709 353.324 297.244 342.824 279.02 335.675C278.422 335.452 277.824 335.229 277.302 335.005C275.658 334.335 274.015 333.739 272.447 333.069C271.625 332.771 270.878 332.473 270.131 332.176C269.683 332.027 269.31 331.878 268.862 331.729C268.488 331.58 268.19 331.431 267.816 331.356L267.741 331.431C266.098 333.218 257.658 342.824 247.575 357.122C228.679 383.855 204.106 427.194 207.915 467.182C209.11 479.99 210.604 498.458 213.143 519.16C213.293 520.798 213.517 522.436 213.741 524.074H298.887C299.933 502.405 301.8 473.884 304.563 462.863C304.563 462.789 304.638 462.714 304.638 462.714C304.638 462.64 304.638 462.565 304.713 462.491C304.713 462.342 304.787 462.268 304.787 462.119C304.787 462.044 304.862 461.97 304.862 461.97V461.895V461.821C304.862 461.821 325.477 493.916 326.522 524.074H380.075C377.386 496.075 369.245 439.63 356.846 400.089Z" fill="#41D4CC"/>
<path d="M176.844 336.942C176.844 336.942 170.421 358.314 162.13 411.557C161.831 413.344 161.533 415.131 161.308 416.993C161.308 417.216 161.234 417.44 161.234 417.663C161.01 418.854 160.86 420.12 160.636 421.386C160.636 421.535 160.562 421.684 160.562 421.833C160.412 422.652 160.263 423.546 160.188 424.365C159.889 426.45 159.591 428.61 159.217 430.769C156.08 452.513 151.972 487.065 147.715 523.926H114.03C112.237 513.65 110.52 504.341 110.594 498.012C110.52 498.161 110.445 498.31 110.445 498.459C107.756 505.905 104.768 513.948 101.781 521.841C101.482 522.586 101.258 523.256 100.959 524H43L100.81 373.281C101.93 372.388 116.868 364.42 126.652 359.728C136.96 354.814 149.881 348.856 161.383 343.569C166.91 341.038 172.064 338.655 176.471 336.644L176.844 336.942Z" fill="#41D4CC"/>
<path d="M255.119 389.664L232.861 402.174L242.347 411.854L221.508 524H213.666C210.753 501.288 209.11 480.959 207.84 467.108C202.014 405.227 263.932 335.527 267.741 331.282C270.729 332.399 273.941 333.665 277.227 334.931L255.119 389.664Z" fill="#239A94"/>
<path d="M177.143 336.346C177.143 336.346 168.852 363.377 159.143 430.843C156.006 452.587 151.823 487.139 147.64 524H144.354L140.097 417.96L150.703 406.493L141.292 394.801L161.458 343.569C166.985 341.037 172.139 338.654 176.545 336.644L177.143 336.346Z" fill="#239A94"/>
<path d="M268.862 331.58L250.413 320.41C250.413 320.41 249.891 330.463 204.255 356.824L217.176 393.238L268.862 331.58Z" fill="#F5E2D9"/>
<path d="M192.155 325.474C192.155 325.474 192.902 336.346 204.33 356.824L179.01 389.664L177.143 336.346L192.155 325.474Z" fill="#F5E2D9"/>
<path d="M204.404 356.75C204.404 356.75 209.334 376.26 207.541 381.77C207.541 381.77 196.786 385.642 189.018 380.802C189.018 380.802 194.471 367.1 204.404 356.75Z" fill="#344052"/>
<path d="M198.429 423.248C193.276 458.321 193.276 493.841 195.143 524H173.558C173.259 519.756 172.96 515.288 172.736 510.671C168.703 441.12 193.35 379.015 193.35 379.015L204.33 376.26C204.405 376.334 200.819 407.014 198.429 423.248Z" fill="#344052"/>
<path d="M111.341 466.587C110.52 483.267 110.669 498.086 110.669 498.086C110.669 498.16 110.669 498.607 110.594 499.352C110.594 499.054 110.52 498.756 110.52 498.533C107.831 505.979 104.843 514.021 101.856 521.915C101.183 512.83 100.959 504.341 101.183 496.447C102.378 449.683 117.167 425.184 117.167 425.184C113.731 433.226 112.088 450.725 111.341 466.587Z" fill="#239A94"/>
</g>
<g filter="url(#filter1_d)">
<circle cx="338" cy="491" r="76" fill="url(#paint0_radial)"/>
</g>
<defs>
<filter id="filter0_d" x="0" y="29" width="400" height="528" filterUnits="userSpaceOnUse" color-interpolation-filters="sRGB">
<feFlood flood-opacity="0" result="BackgroundImageFix"/>
<feColorMatrix in="SourceAlpha" type="matrix" values="0 0 0 0 0 0 0 0 0 0 0 0 0 0 0 0 0 0 127 0" result="hardAlpha"/>
<feOffset dy="20"/>
<feGaussianBlur stdDeviation="10"/>
<feComposite in2="hardAlpha" operator="out"/>
<feColorMatrix type="matrix" values="0 0 0 0 0 0 0 0 0 0 0 0 0 0 0 0 0 0 0.1 0"/>
<feBlend mode="normal" in2="BackgroundImageFix" result="effect1_dropShadow"/>
<feBlend mode="normal" in="SourceGraphic" in2="effect1_dropShadow" result="shape"/>
</filter>
<filter id="filter1_d" x="252" y="405" width="192" height="192" filterUnits="userSpaceOnUse" color-interpolation-filters="sRGB">
<feFlood flood-opacity="0" result="BackgroundImageFix"/>
<feColorMatrix in="SourceAlpha" type="matrix" values="0 0 0 0 0 0 0 0 0 0 0 0 0 0 0 0 0 0 127 0" result="hardAlpha"/>
<feOffset dx="10" dy="10"/>
<feGaussianBlur stdDeviation="10"/>
<feComposite in2="hardAlpha" operator="out"/>
<feColorMatrix type="matrix" values="0 0 0 0 0 0 0 0 0 0 0 0 0 0 0 0 0 0 0.1 0"/>
<feBlend mode="normal" in2="BackgroundImageFix" result="effect1_dropShadow"/>
<feBlend mode="normal" in="SourceGraphic" in2="effect1_dropShadow" result="shape"/>
</filter>
<radialGradient id="paint0_radial" cx="0" cy="0" r="1" gradientUnits="userSpaceOnUse" gradientTransform="translate(390 550.5) rotate(-121.796) scale(159.425 108.608)">
<stop stop-color="#36D4BE"/>
<stop offset="1" stop-color="#F2BB31"/>
</radialGradient>
<clipPath id="clip0">
<rect width="337" height="373" fill="white" transform="translate(43 151)"/>
</clipPath>
</defs>
</svg>
