<svg width="108" height="90" viewBox="0 0 108 90" fill="none" xmlns="http://www.w3.org/2000/svg">
<path d="M54 1.79999C25.164 1.79999 1.80005 25.164 1.80005 54C1.80005 67.086 6.44405 79.038 14.4 88.2H93.6001C101.556 79.038 106.2 67.086 106.2 54C106.2 25.164 82.8361 1.79999 54 1.79999Z" fill="white"/>
<path d="M54.0001 1.79999C25.164 1.79999 1.80005 25.164 1.80005 54C1.80005 67.086 6.44405 79.038 14.4 88.2H93.6001C101.556 79.038 106.2 67.086 106.2 54C106.2 25.164 82.8361 1.79999 54.0001 1.79999Z" stroke="#4D5152" stroke-width="2" stroke-miterlimit="10"/>
<path d="M93.6001 54C93.6001 32.13 75.8701 14.4 54.0001 14.4C32.1301 14.4 14.4001 32.13 14.4001 54C14.4001 61.218 18.0001 70.2 21.6001 75.6H86.4001C90.0001 70.2 93.6001 61.218 93.6001 54Z" fill="url(#paint0_linear)"/>
<path d="M54 55.8V75.6H86.4C90 70.2 93.6 61.218 93.6 54C93.6 43.524 89.532 34.002 82.872 26.928L54 55.8Z" fill="#FFB957"/>
<path d="M57.6001 50.4L81.9901 26.01" stroke="#4D5152" stroke-width="2" stroke-miterlimit="10"/>
<path d="M54.0001 59.4C56.9824 59.4 59.4001 56.9823 59.4001 54C59.4001 51.0177 56.9824 48.6 54.0001 48.6C51.0178 48.6 48.6001 51.0177 48.6001 54C48.6001 56.9823 51.0178 59.4 54.0001 59.4Z" fill="white"/>
<path d="M54.0001 59.4C56.9824 59.4 59.4001 56.9823 59.4001 54C59.4001 51.0177 56.9824 48.6 54.0001 48.6C51.0178 48.6 48.6001 51.0177 48.6001 54C48.6001 56.9823 51.0178 59.4 54.0001 59.4Z" stroke="#4D5152" stroke-width="2" stroke-miterlimit="10"/>
<path d="M54 7.19998V10.8" stroke="#4D5152" stroke-width="2" stroke-miterlimit="10"/>
<path d="M36 10.8V14.4" stroke="#4D5152" stroke-width="2" stroke-miterlimit="10"/>
<path d="M12.6001 34.2V37.8" stroke="#4D5152" stroke-width="2" stroke-miterlimit="10"/>
<path d="M21.6001 21.6V25.2" stroke="#4D5152" stroke-width="2" stroke-miterlimit="10"/>
<path d="M9 52.2V55.8" stroke="#4D5152" stroke-width="2" stroke-miterlimit="10"/>
<path d="M72 10.8V14.4" stroke="#4D5152" stroke-width="2" stroke-miterlimit="10"/>
<path d="M95.4001 34.2V37.8" stroke="#4D5152" stroke-width="2" stroke-miterlimit="10"/>
<path d="M86.4001 21.6V25.2" stroke="#4D5152" stroke-width="2" stroke-miterlimit="10"/>
<path d="M99 52.2V55.8" stroke="#4D5152" stroke-width="2" stroke-miterlimit="10"/>
<defs>
<linearGradient id="paint0_linear" x1="93.6001" y1="75.6" x2="68.5918" y2="-7.45369" gradientUnits="userSpaceOnUse">
<stop stop-color="#36D4BE"/>
<stop offset="1" stop-color="#F2BB31"/>
</linearGradient>
</defs>
</svg>
