<svg width="230" height="330" viewBox="0 0 510 761" fill="none" xmlns="http://www.w3.org/2000/svg">
<path d="M480.166 674C472.008 674 465.635 671.272 459.517 668.671C453.398 666.07 447.599 663.596 440.142 663.596C432.622 663.596 426.886 666.07 420.768 668.671C414.65 671.272 408.277 674 400.119 674C391.961 674 385.588 671.272 379.47 668.671C373.352 666.07 367.552 663.596 360.096 663.596C352.575 663.596 346.839 666.07 340.721 668.671C334.603 671.272 328.23 674 320.072 674C311.915 674 305.541 671.272 299.423 668.671C293.305 666.07 287.505 663.596 280.049 663.596C272.529 663.596 266.793 666.07 260.674 668.671C254.556 671.272 248.183 674 240.026 674C236.457 674 232.888 673.493 229.191 672.414L230.083 669.369C233.525 670.384 236.775 670.828 240.026 670.828C247.546 670.828 253.282 668.354 259.4 665.753C265.518 663.152 271.891 660.424 280.049 660.424C288.206 660.424 294.58 663.152 300.698 665.753C306.816 668.354 312.616 670.828 320.072 670.828C327.593 670.828 333.328 668.354 339.447 665.753C345.565 663.152 351.938 660.424 360.096 660.424C368.253 660.424 374.626 663.152 380.745 665.753C386.863 668.354 392.662 670.828 400.119 670.828C407.639 670.828 413.375 668.354 419.493 665.753C425.611 663.152 431.985 660.424 440.142 660.424C448.3 660.424 454.673 663.152 460.791 665.753C466.909 668.354 472.709 670.828 480.166 670.828C483.416 670.828 486.666 670.321 490.108 669.369L491 672.414C487.304 673.493 483.798 674 480.166 674Z" fill="#DCDCDC"/>
<path d="M480.166 658.394C472.008 658.394 465.635 655.666 459.517 653.065C453.398 650.464 447.599 647.99 440.142 647.99C432.622 647.99 426.886 650.464 420.768 653.065C414.65 655.666 408.277 658.394 400.119 658.394C391.961 658.394 385.588 655.666 379.47 653.065C373.352 650.464 367.552 647.99 360.096 647.99C352.575 647.99 346.839 650.464 340.721 653.065C334.603 655.666 328.23 658.394 320.072 658.394C311.915 658.394 305.541 655.666 299.423 653.065C293.305 650.464 287.505 647.99 280.049 647.99C272.529 647.99 266.793 650.464 260.674 653.065C254.556 655.666 248.183 658.394 240.026 658.394C236.457 658.394 232.888 657.887 229.191 656.808L230.083 653.763C233.525 654.778 236.775 655.222 240.026 655.222C247.546 655.222 253.282 652.748 259.4 650.147C265.518 647.546 271.891 644.818 280.049 644.818C288.206 644.818 294.58 647.546 300.698 650.147C306.816 652.748 312.616 655.222 320.072 655.222C327.593 655.222 333.328 652.748 339.447 650.147C345.565 647.546 351.938 644.818 360.096 644.818C368.253 644.818 374.626 647.546 380.745 650.147C386.863 652.748 392.662 655.222 400.119 655.222C407.639 655.222 413.375 652.748 419.493 650.147C425.611 647.546 431.985 644.818 440.142 644.818C448.3 644.818 454.673 647.546 460.791 650.147C466.909 652.748 472.709 655.222 480.166 655.222C483.416 655.222 486.666 654.715 490.108 653.763L491 656.808C487.304 657.887 483.798 658.394 480.166 658.394Z" fill="#DCDCDC"/>
<path d="M480.166 642.788C472.008 642.788 465.635 640.06 459.517 637.459C453.398 634.858 447.599 632.384 440.142 632.384C432.622 632.384 426.886 634.858 420.768 637.459C414.65 640.06 408.277 642.788 400.119 642.788C391.961 642.788 385.588 640.06 379.47 637.459C373.352 634.858 367.552 632.384 360.096 632.384C352.575 632.384 346.839 634.858 340.721 637.459C334.603 640.06 328.23 642.788 320.072 642.788C311.915 642.788 305.541 640.06 299.423 637.459C293.305 634.858 287.505 632.384 280.049 632.384C272.529 632.384 266.793 634.858 260.674 637.459C254.556 640.06 248.183 642.788 240.026 642.788C236.457 642.788 232.888 642.28 229.191 641.202L230.083 638.157C233.525 639.172 236.775 639.616 240.026 639.616C247.546 639.616 253.282 637.142 259.4 634.541C265.518 631.94 271.891 629.212 280.049 629.212C288.206 629.212 294.58 631.94 300.698 634.541C306.816 637.142 312.616 639.616 320.072 639.616C327.593 639.616 333.328 637.142 339.447 634.541C345.565 631.94 351.938 629.212 360.096 629.212C368.253 629.212 374.626 631.94 380.745 634.541C386.863 637.142 392.662 639.616 400.119 639.616C407.639 639.616 413.375 637.142 419.493 634.541C425.611 631.94 431.985 629.212 440.142 629.212C448.3 629.212 454.673 631.94 460.791 634.541C466.909 637.142 472.709 639.616 480.166 639.616C483.416 639.616 486.666 639.109 490.108 638.157L491 641.202C487.304 642.28 483.798 642.788 480.166 642.788Z" fill="#DCDCDC"/>
<path d="M480.166 627.182C472.008 627.182 465.635 624.454 459.517 621.853C453.398 619.252 447.599 616.778 440.142 616.778C432.622 616.778 426.886 619.252 420.768 621.853C414.65 624.454 408.277 627.182 400.119 627.182C391.961 627.182 385.588 624.454 379.47 621.853C373.352 619.252 367.552 616.778 360.096 616.778C352.575 616.778 346.839 619.252 340.721 621.853C334.603 624.454 328.23 627.182 320.072 627.182C311.915 627.182 305.541 624.454 299.423 621.853C293.305 619.252 287.505 616.778 280.049 616.778C272.529 616.778 266.793 619.252 260.675 621.853C254.365 624.454 247.992 627.182 239.834 627.182C236.265 627.182 232.696 626.674 229 625.596L229.892 622.551C233.334 623.503 236.584 624.01 239.834 624.01C247.355 624.01 253.09 621.536 259.209 618.935C265.327 616.334 271.7 613.606 279.858 613.606C288.015 613.606 294.388 616.334 300.507 618.935C306.625 621.536 312.424 624.01 319.881 624.01C327.401 624.01 333.137 621.536 339.255 618.935C345.374 616.334 351.747 613.606 359.904 613.606C368.062 613.606 374.435 616.334 380.553 618.935C386.672 621.536 392.471 624.01 399.928 624.01C407.448 624.01 413.184 621.536 419.302 618.935C425.42 616.334 431.793 613.606 439.951 613.606C448.109 613.606 454.482 616.334 460.6 618.935C466.718 621.536 472.518 624.01 479.974 624.01C483.225 624.01 486.475 623.503 489.917 622.551L490.809 625.596C487.304 626.674 483.798 627.182 480.166 627.182Z" fill="#DCDCDC"/>
<path d="M480.166 611.576C472.008 611.576 465.635 608.848 459.517 606.247C453.398 603.646 447.599 601.172 440.142 601.172C432.622 601.172 426.886 603.646 420.768 606.247C414.65 608.848 408.277 611.576 400.119 611.576C391.961 611.576 385.588 608.848 379.47 606.247C373.352 603.646 367.552 601.172 360.096 601.172C352.575 601.172 346.839 603.646 340.721 606.247C334.603 608.848 328.23 611.576 320.072 611.576C311.915 611.576 305.541 608.848 299.423 606.247C293.305 603.646 287.505 601.172 280.049 601.172C272.401 601.172 266.602 603.646 260.483 606.247C254.365 608.848 247.992 611.576 239.834 611.576C236.265 611.576 232.696 611.068 229 609.99L229.892 606.945C233.334 607.96 236.584 608.404 239.834 608.404C247.355 608.404 253.09 605.93 259.209 603.329C265.391 600.728 271.764 598 279.921 598C288.079 598 294.452 600.728 300.57 603.329C306.689 605.93 312.488 608.404 319.945 608.404C327.465 608.404 333.201 605.93 339.319 603.329C345.437 600.728 351.81 598 359.968 598C368.126 598 374.499 600.728 380.617 603.329C386.735 605.93 392.535 608.404 399.991 608.404C407.512 608.404 413.248 605.93 419.366 603.329C425.484 600.728 431.857 598 440.015 598C448.172 598 454.546 600.728 460.664 603.329C466.782 605.93 472.582 608.404 480.038 608.404C483.288 608.404 486.539 607.896 489.98 606.945L490.872 609.99C487.304 611.068 483.798 611.576 480.166 611.576Z" fill="#DCDCDC"/>
<g filter="url(#filter0_d)">
<rect x="71" y="148" width="360" height="537" rx="20" fill="#F4F4F4"/>
</g>
<g clip-path="url(#clip0)">
<path d="M293.785 256.39C293.785 256.39 332.3 277.479 320.031 329.272C307.762 381.065 303.103 388.043 313.043 408.977C322.982 429.912 331.679 517.681 321.118 533.808C310.558 549.935 203.245 455.498 191.287 379.979C179.484 304.306 206.351 272.362 215.824 260.266C225.298 248.326 259.774 237.161 293.785 256.39Z" fill="#344052"/>
<path d="M366 685H324.845C322.826 664.686 320.963 650.575 321.429 648.559C322.05 645.147 280.429 536.289 276.547 527.14C272.664 518.146 257.445 493.955 255.426 471.315C253.407 448.52 283.069 439.371 283.069 439.371C323.137 446.504 336.803 501.864 336.803 501.864C336.803 501.864 353.576 614.133 362.117 645.768C364.292 653.831 365.379 668.097 366 685Z" fill="#FCD1C5"/>
<path d="M345.19 528.846L283.846 554.587C283.846 554.587 227.472 414.87 274.683 430.532C321.895 446.194 343.171 475.347 345.19 528.846Z" fill="#41D4CC"/>
<path d="M331.523 594.595C329.66 608.396 322.361 657.553 324.069 670.889C324.379 673.06 325.311 678.177 326.554 685H178.863C182.745 671.044 186.317 658.638 188.492 651.35C195.635 627.624 188.802 621.267 185.23 602.193C183.832 594.75 178.863 580.639 173.427 564.666C171.564 559.394 169.7 553.812 167.992 548.229C161.469 528.07 158.519 507.446 156.655 495.506C147.803 438.751 191.442 433.323 191.442 433.323C207.749 430.377 236.169 421.538 236.169 421.538L280.585 430.842C280.585 430.842 284.778 432.393 290.99 437.045C293.941 439.216 297.357 442.162 300.929 445.729C305.743 450.691 315.527 464.957 325.156 480.619C328.107 485.426 331.057 490.388 333.853 495.196C342.86 510.858 349.383 523.418 349.072 537.685C348.917 551.486 333.387 580.794 331.523 594.595Z" fill="#41D4CC"/>
<path d="M280.429 430.687C280.429 430.687 308.228 478.293 297.978 481.86C287.573 485.426 233.063 473.331 211.631 428.516C211.631 428.361 247.506 412.079 280.429 430.687Z" fill="#FCD1C5"/>
<path d="M276.547 452.397C276.547 452.397 251.854 462.786 229.336 428.361C229.336 428.361 235.392 389.284 222.658 366.644C209.923 344.003 278.255 393.781 278.255 393.781C278.255 393.781 277.168 398.433 275.926 405.256C275.305 408.822 274.683 412.854 274.217 417.196C273.907 420.763 273.596 424.639 273.441 428.361C273.286 437.355 273.907 446.039 276.547 452.397Z" fill="#FCD1C5"/>
<path d="M215.048 505.585C209.923 531.792 173.427 564.511 173.427 564.511C171.564 559.239 169.7 553.657 167.992 548.074C193.151 531.947 215.048 505.585 215.048 505.585Z" fill="#393D63"/>
<path d="M205.885 526.364C203.556 535.979 192.84 632.432 194.082 635.843C194.704 637.704 199.984 660.034 205.109 684.845H157.276C152.462 668.873 149.511 655.537 150.132 648.094C153.238 615.529 142.057 511.633 142.057 511.633C142.057 511.633 132.117 448.83 184.298 440.922C184.298 440.922 215.203 444.953 217.067 467.748C219.086 490.544 208.215 516.905 205.885 526.364Z" fill="#FCD1C5"/>
<path d="M138.33 539.855L203.09 554.897C203.09 554.897 254.494 455.188 208.215 437.045C159.45 417.816 126.682 485.426 138.33 539.855Z" fill="#41D4CC"/>
<path d="M287.729 261.972C287.729 261.972 344.103 282.596 308.384 379.669C272.664 476.587 199.829 363.077 210.855 303.375C221.881 243.829 287.729 261.972 287.729 261.972Z" fill="#FCD1C5"/>
<path d="M317.08 320.898C317.08 320.898 287.418 347.415 239.586 348.656C239.586 348.656 228.404 375.793 226.696 384.166C226.696 384.166 179.64 303.375 233.684 262.592C287.884 221.654 336.959 303.996 317.08 320.898Z" fill="#344052"/>
<path d="M246.108 354.393C246.108 347.26 242.381 330.668 231.51 334.699C220.639 338.731 230.423 372.536 237.566 370.83C237.566 370.83 246.108 371.451 246.108 354.393Z" fill="#FCD1C5"/>
<path d="M273.596 426.81C247.195 419.522 236.945 394.246 236.635 393.47C258.222 421.228 274.373 417.196 274.373 417.196C273.907 420.918 273.907 423.244 273.596 426.81Z" fill="#C08D8D"/>
</g>
<g filter="url(#filter1_bd)">
<rect x="274" width="217" height="217" rx="18.0833" fill="white" fill-opacity="0.95" shape-rendering="crispEdges"/>
<path d="M337.292 184.902L324.181 51.9896C370.294 63.5931 462.519 86.8 462.519 86.8L427.256 184.902L439.915 51.9896L302.029 86.8L337.292 184.902Z" stroke="#E2E2E2" stroke-width="0.904167"/>
<path d="M380.692 28.9333L307.002 152.352H457.094L380.692 28.9333Z" stroke="#E2E2E2" stroke-width="0.904167"/>
<circle cx="381.608" cy="113.02" r="85.8958" transform="rotate(-0.0729365 381.608 113.02)" stroke="#E2E2E2" stroke-width="0.904167"/>
<circle cx="305.709" cy="152.9" r="4.97292" transform="rotate(-0.0729365 305.709 152.9)" fill="white" stroke="#FF8A00" stroke-width="0.904167"/>
<circle cx="301.101" cy="85.0936" r="4.97292" transform="rotate(-0.0729365 301.101 85.0936)" fill="white" stroke="#FF405C" stroke-width="0.904167"/>
<circle cx="323.661" cy="49.8023" r="6.71628" transform="rotate(-0.0729365 323.661 49.8023)" fill="white" stroke="#FF4A76" stroke-width="0.904167"/>
<circle cx="381.54" cy="27.0691" r="6.71628" transform="rotate(-0.0729365 381.54 27.0691)" fill="white" stroke="#FF4AED" stroke-width="0.904167"/>
<circle cx="440.311" cy="50.5774" r="6.71628" transform="rotate(-0.0729365 440.311 50.5774)" fill="white" stroke="#0500FF" stroke-width="0.904167"/>
<circle cx="323.661" cy="49.8022" r="5.425" transform="rotate(-0.0729365 323.661 49.8022)" fill="#FF4A76"/>
<circle cx="381.499" cy="27.1245" r="5.425" transform="rotate(-0.0729365 381.499 27.1245)" fill="#FF4AED"/>
<circle cx="440.299" cy="50.558" r="5.425" transform="rotate(-0.0729365 440.299 50.558)" fill="#0500FF"/>
<circle cx="463.854" cy="86.6947" r="4.97292" transform="rotate(-0.0729365 463.854 86.6947)" fill="white" stroke="#17BCB2" stroke-width="0.904167"/>
<circle cx="456.704" cy="152.708" r="4.97292" transform="rotate(-0.0729365 456.704 152.708)" fill="white" stroke="#008B48" stroke-width="0.904167"/>
<circle cx="427.813" cy="185.295" r="4.97292" transform="rotate(-0.0729365 427.813 185.295)" fill="white" stroke="#68F8B0" stroke-width="0.904167"/>
<circle cx="337.396" cy="185.41" r="4.97292" transform="rotate(-0.0729365 337.396 185.41)" fill="white" stroke="#FFE600" stroke-width="0.904167"/>
<path d="M452.811 39.8464V31.4033H451.887L449.773 33.5806L450.406 34.2261L451.76 32.7957V39.8464H452.811ZM460.458 39.8464V38.9097H456.319C458.673 37.0489 460.42 35.4793 460.42 33.7578C460.42 32.0742 458.99 31.2767 457.585 31.2767C456.395 31.2767 455.294 31.7578 454.648 32.6059L455.294 33.2768C455.787 32.6438 456.572 32.2135 457.585 32.2135C458.458 32.2135 459.344 32.6818 459.344 33.7578C459.344 35.2135 457.699 36.6186 454.661 39.011V39.8464H460.458ZM464.018 35.4413C465.233 35.4413 466.068 34.5553 466.068 33.378C466.068 32.1881 465.233 31.2767 464.018 31.2767C462.815 31.2767 461.992 32.1881 461.992 33.378C461.992 34.5553 462.815 35.4413 464.018 35.4413ZM463.904 39.8464L469.309 31.4033H468.612L463.22 39.8464H463.904ZM468.423 39.9983C469.625 39.9983 470.461 39.1123 470.461 37.935C470.461 36.7451 469.625 35.8337 468.423 35.8337C467.22 35.8337 466.397 36.7451 466.397 37.935C466.397 39.1123 467.22 39.9983 468.423 39.9983ZM464.018 34.8084C463.271 34.8084 462.752 34.1755 462.752 33.378C462.752 32.5426 463.271 31.9223 464.018 31.9223C464.777 31.9223 465.309 32.5426 465.309 33.378C465.309 34.1755 464.777 34.8084 464.018 34.8084ZM468.423 39.3654C467.663 39.3654 467.144 38.7325 467.144 37.935C467.144 37.0996 467.663 36.4793 468.423 36.4793C469.182 36.4793 469.714 37.0996 469.714 37.935C469.714 38.7325 469.182 39.3654 468.423 39.3654Z" fill="white"/>
<path d="M302.431 33.6041L305.886 25.8825V25.161H300.127V26.0977H304.671L301.266 33.6041H302.431ZM312.911 33.6041V32.6674H308.772C311.126 30.8066 312.873 29.237 312.873 27.5155C312.873 25.8319 311.443 25.0344 310.038 25.0344C308.848 25.0344 307.746 25.5155 307.101 26.3636L307.746 27.0345C308.24 26.4015 309.025 25.9712 310.038 25.9712C310.911 25.9712 311.797 26.4395 311.797 27.5155C311.797 28.9712 310.151 30.3763 307.113 32.7687V33.6041H312.911ZM316.47 29.199C317.685 29.199 318.521 28.3129 318.521 27.1357C318.521 25.9458 317.685 25.0344 316.47 25.0344C315.268 25.0344 314.445 25.9458 314.445 27.1357C314.445 28.3129 315.268 29.199 316.47 29.199ZM316.356 33.6041L321.761 25.161H321.065L315.673 33.6041H316.356ZM320.875 33.756C322.078 33.756 322.913 32.8699 322.913 31.6927C322.913 30.5028 322.078 29.5914 320.875 29.5914C319.673 29.5914 318.85 30.5028 318.85 31.6927C318.85 32.8699 319.673 33.756 320.875 33.756ZM316.47 28.5661C315.723 28.5661 315.204 27.9332 315.204 27.1357C315.204 26.3003 315.723 25.68 316.47 25.68C317.23 25.68 317.761 26.3003 317.761 27.1357C317.761 27.9332 317.23 28.5661 316.47 28.5661ZM320.875 33.1231C320.116 33.1231 319.597 32.4902 319.597 31.6927C319.597 30.8573 320.116 30.237 320.875 30.237C321.635 30.237 322.166 30.8573 322.166 31.6927C322.166 32.4902 321.635 33.1231 320.875 33.1231Z" fill="white"/>
<path d="M374.415 11V2.55689H373.491L371.377 4.73412L372.01 5.3797L373.365 3.94931V11H374.415ZM381.05 11V8.86074H382.24V7.93668H381.05V2.55689H379.607L375.987 7.98732V8.86074H380V11H381.05ZM380 7.93668H377.038L380 3.53158V7.93668ZM385.239 6.5949C386.454 6.5949 387.29 5.70882 387.29 4.53159C387.29 3.34171 386.454 2.43031 385.239 2.43031C384.036 2.43031 383.214 3.34171 383.214 4.53159C383.214 5.70882 384.036 6.5949 385.239 6.5949ZM385.125 11L390.53 2.55689H389.834L384.442 11H385.125ZM389.644 11.1519C390.847 11.1519 391.682 10.2658 391.682 9.08859C391.682 7.89871 390.847 6.98731 389.644 6.98731C388.442 6.98731 387.619 7.89871 387.619 9.08859C387.619 10.2658 388.442 11.1519 389.644 11.1519ZM385.239 5.96198C384.492 5.96198 383.973 5.32907 383.973 4.53159C383.973 3.69614 384.492 3.07588 385.239 3.07588C385.998 3.07588 386.53 3.69614 386.53 4.53159C386.53 5.32907 385.998 5.96198 385.239 5.96198ZM389.644 10.519C388.885 10.519 388.366 9.88607 388.366 9.08859C388.366 8.25314 388.885 7.63288 389.644 7.63288C390.404 7.63288 390.935 8.25314 390.935 9.08859C390.935 9.88607 390.404 10.519 389.644 10.519Z" fill="white"/>
</g>
<g filter="url(#filter2_d)">
<circle cx="80.5" cy="660.5" r="70.5" fill="url(#paint0_radial)"/>
</g>
<defs>
<filter id="filter0_d" x="51" y="148" width="400" height="577" filterUnits="userSpaceOnUse" color-interpolation-filters="sRGB">
<feFlood flood-opacity="0" result="BackgroundImageFix"/>
<feColorMatrix in="SourceAlpha" type="matrix" values="0 0 0 0 0 0 0 0 0 0 0 0 0 0 0 0 0 0 127 0" result="hardAlpha"/>
<feOffset dy="20"/>
<feGaussianBlur stdDeviation="10"/>
<feComposite in2="hardAlpha" operator="out"/>
<feColorMatrix type="matrix" values="0 0 0 0 0 0 0 0 0 0 0 0 0 0 0 0 0 0 0.1 0"/>
<feBlend mode="normal" in2="BackgroundImageFix" result="effect1_dropShadow"/>
<feBlend mode="normal" in="SourceGraphic" in2="effect1_dropShadow" result="shape"/>
</filter>
<filter id="filter1_bd" x="255.917" y="-3.61667" width="253.167" height="256.783" filterUnits="userSpaceOnUse" color-interpolation-filters="sRGB">
<feFlood flood-opacity="0" result="BackgroundImageFix"/>
<feGaussianBlur in="BackgroundImage" stdDeviation="1.80833"/>
<feComposite in2="SourceAlpha" operator="in" result="effect1_backgroundBlur"/>
<feColorMatrix in="SourceAlpha" type="matrix" values="0 0 0 0 0 0 0 0 0 0 0 0 0 0 0 0 0 0 127 0" result="hardAlpha"/>
<feOffset dy="18.0833"/>
<feGaussianBlur stdDeviation="9.04167"/>
<feComposite in2="hardAlpha" operator="out"/>
<feColorMatrix type="matrix" values="0 0 0 0 0 0 0 0 0 0 0 0 0 0 0 0 0 0 0.1 0"/>
<feBlend mode="normal" in2="effect1_backgroundBlur" result="effect2_dropShadow"/>
<feBlend mode="normal" in="SourceGraphic" in2="effect2_dropShadow" result="shape"/>
</filter>
<filter id="filter2_d" x="0" y="580" width="181" height="181" filterUnits="userSpaceOnUse" color-interpolation-filters="sRGB">
<feFlood flood-opacity="0" result="BackgroundImageFix"/>
<feColorMatrix in="SourceAlpha" type="matrix" values="0 0 0 0 0 0 0 0 0 0 0 0 0 0 0 0 0 0 127 0" result="hardAlpha"/>
<feOffset dx="10" dy="10"/>
<feGaussianBlur stdDeviation="10"/>
<feComposite in2="hardAlpha" operator="out"/>
<feColorMatrix type="matrix" values="0 0 0 0 0 0 0 0 0 0 0 0 0 0 0 0 0 0 0.1 0"/>
<feBlend mode="normal" in2="BackgroundImageFix" result="effect1_dropShadow"/>
<feBlend mode="normal" in="SourceGraphic" in2="effect1_dropShadow" result="shape"/>
</filter>
<radialGradient id="paint0_radial" cx="0" cy="0" r="1" gradientUnits="userSpaceOnUse" gradientTransform="translate(57 622.312) rotate(44.1931) scale(117.992 80.382)">
<stop stop-color="#36D4BE"/>
<stop offset="1" stop-color="#F2BB31"/>
</radialGradient>
<clipPath id="clip0">
<rect width="230" height="439" fill="white" transform="translate(136 246)"/>
</clipPath>
</defs>
</svg>
