<svg width="270" height="185" viewBox="0 0 270 185" fill="none" xmlns="http://www.w3.org/2000/svg">
<g clip-path="url(#clip0)">
<path opacity="0.2" d="M220.292 137.008C220.292 183.946 182.421 221.994 135.708 221.994C88.996 221.994 51.1249 183.946 51.1249 137.008C51.1249 90.0695 88.996 52.0217 135.708 52.0217C182.421 52.0217 220.292 90.0695 220.292 137.008Z" stroke="white" stroke-width="0.805556"/>
<g filter="url(#filter0_d)">
<path fill-rule="evenodd" clip-rule="evenodd" d="M214.758 50.6649C215.63 51.4486 216.491 52.2453 217.339 53.0544L200.658 70.5409C199.983 69.8971 199.299 69.2633 198.605 68.6397L214.758 50.6649ZM221.074 56.7796C221.885 57.6258 222.684 58.4841 223.47 59.3542L205.536 75.5534C204.911 74.8611 204.275 74.1782 203.63 73.5049L221.074 56.7796ZM226.918 63.3472C227.664 64.2511 228.397 65.1663 229.116 66.0927L210.028 80.9137C209.456 80.1769 208.873 79.4489 208.279 78.7299L226.918 63.3472ZM232.258 70.3316C232.935 71.2887 233.598 72.2564 234.246 73.2345L214.107 86.5919C213.591 85.8145 213.064 85.0453 212.526 84.2843L232.258 70.3316Z" fill="#68F8B0"/>
</g>
<g filter="url(#filter1_d)">
<path fill-rule="evenodd" clip-rule="evenodd" d="M134.257 20.5698C134.843 20.5604 135.431 20.5553 136.02 20.5546C136.608 20.5538 137.196 20.5574 137.783 20.5653L137.458 44.7298C136.99 44.7235 136.52 44.7206 136.05 44.7212C135.58 44.7218 135.111 44.7259 134.643 44.7334L134.257 20.5698ZM125.484 21.0343C126.649 20.9292 127.818 20.8412 128.992 20.7704L130.447 44.8932C129.512 44.9496 128.581 45.0197 127.655 45.1033L125.484 21.0343ZM143.048 20.7525C144.222 20.8203 145.391 20.9054 146.557 21.0074L144.447 45.0819C143.52 45.0007 142.589 44.933 141.654 44.879L143.048 20.7525ZM116.761 22.1504C117.915 21.9586 119.075 21.7837 120.24 21.6258L123.485 45.5735C122.56 45.6989 121.639 45.8379 120.723 45.9902L116.761 22.1504ZM151.803 21.5856C152.968 21.7405 154.128 21.9125 155.283 22.1014L151.382 45.9511C150.465 45.8012 149.544 45.6646 148.618 45.5415L151.803 21.5856ZM108.139 23.9183C109.278 23.6398 110.423 23.378 111.574 23.1329L116.606 46.77C115.692 46.9644 114.784 47.1722 113.881 47.393L108.139 23.9183ZM160.472 23.0707C161.624 23.3128 162.769 23.5718 163.909 23.8473L158.227 47.3366C157.323 47.118 156.414 46.9126 155.501 46.7205L160.472 23.0707ZM99.6738 26.3302C100.788 25.9669 101.909 25.6198 103.037 25.2891L109.834 48.4802C108.94 48.7425 108.05 49.0178 107.167 49.3059L99.6738 26.3302ZM169.014 25.2051C170.143 25.5329 171.265 25.8772 172.38 26.2377L164.946 49.2324C164.061 48.9465 163.172 48.6735 162.276 48.4135L169.014 25.2051ZM91.414 29.3729C92.4981 28.9265 93.5904 28.4958 94.6906 28.081L103.215 50.6945C102.342 51.0234 101.476 51.3651 100.616 51.7192L91.414 29.3729ZM177.368 27.9758C178.469 28.3877 179.563 28.8157 180.648 29.2593L171.503 51.629C170.642 51.277 169.775 50.9376 168.901 50.6109L177.368 27.9758ZM83.4077 33.0276C84.4551 32.5011 85.5115 31.9897 86.5766 31.4937L96.7773 53.402C95.9321 53.7956 95.0936 54.2015 94.2621 54.6195L83.4077 33.0276ZM185.491 31.3678C186.557 31.8611 187.615 32.3698 188.663 32.8936L177.864 54.513C177.031 54.0972 176.192 53.6934 175.346 53.302L185.491 31.3678ZM75.7015 37.2707C76.7063 36.6673 77.721 36.0784 78.7452 35.5044L90.5601 56.5861C89.7466 57.042 88.9406 57.5097 88.1423 57.9891L75.7015 37.2707ZM193.332 35.3586C194.358 35.93 195.374 36.5163 196.38 37.1171L183.992 57.8671C183.193 57.3898 182.386 56.9241 181.571 56.4703L193.332 35.3586ZM68.3354 42.0772C69.2925 41.4004 70.2603 40.7375 71.2383 40.0888L84.5958 60.2285C83.8184 60.7441 83.0491 61.271 82.2881 61.8091L68.3354 42.0772ZM200.851 39.9238C201.83 40.57 202.8 41.2305 203.759 41.9048L189.856 61.6722C189.094 61.1361 188.323 60.6111 187.545 60.0975L200.851 39.9238ZM208.006 45.036C208.934 45.7528 209.851 46.4833 210.757 47.227L195.421 65.9047C194.701 65.3131 193.971 64.7321 193.233 64.162L208.006 45.036Z" fill="#FFF38B"/>
</g>
<path opacity="0.15" fill-rule="evenodd" clip-rule="evenodd" d="M237.064 77.6977C237.668 78.7025 238.257 79.7172 238.831 80.7414L217.749 92.5562C217.293 91.7428 216.825 90.9368 216.346 90.1385L237.064 77.6977ZM241.307 85.4039C241.834 86.4513 242.345 87.5076 242.841 88.5728L220.933 98.7735C220.539 97.9282 220.134 97.0898 219.716 96.2583L241.307 85.4039ZM244.962 93.4101C245.409 94.4943 245.839 95.5866 246.254 96.6868L223.641 105.211C223.312 104.338 222.97 103.472 222.616 102.612L244.962 93.4101ZM248.005 101.67C248.368 102.784 248.715 103.905 249.046 105.034L225.855 111.831C225.592 110.936 225.317 110.047 225.029 109.163L248.005 101.67ZM250.417 110.136C250.695 111.274 250.957 112.419 251.202 113.57L227.565 118.602C227.371 117.688 227.163 116.78 226.942 115.877L250.417 110.136ZM252.185 118.757C252.376 119.911 252.551 121.071 252.709 122.236L228.762 125.482C228.636 124.556 228.497 123.635 228.345 122.719L252.185 118.757ZM253.301 127.48C253.406 128.645 253.494 129.815 253.565 130.988L229.442 132.443C229.385 131.508 229.315 130.578 229.232 129.651L253.301 127.48Z" fill="#68F8B0"/>
<path fill-rule="evenodd" clip-rule="evenodd" d="M64.0964 45.2191C63.1701 45.9384 62.2548 46.6711 61.3509 47.4171L76.7337 66.0558C77.4527 65.4624 78.1807 64.8795 78.9174 64.3075L64.0964 45.2191ZM57.3581 50.8653C56.4879 51.6512 55.6297 52.45 54.7835 53.2613L71.5088 70.7053C72.1821 70.0598 72.865 69.4242 73.5572 68.7989L57.3581 50.8653ZM51.0582 56.9961C50.2491 57.8443 49.4525 58.7046 48.6687 59.5768L66.6435 75.7302C67.2671 75.0363 67.9009 74.3518 68.5447 73.6769L51.0582 56.9961ZM45.2308 63.5785C44.4871 64.4842 43.7567 65.4014 43.0398 66.3295L62.1658 81.1019C62.736 80.3637 63.317 79.6342 63.9085 78.9137L45.2308 63.5785ZM39.9087 70.5764C39.2343 71.5353 38.5739 72.5047 37.9277 73.4844L58.1013 86.7905C58.6149 86.0118 59.1399 85.2412 59.676 84.4789L39.9087 70.5764ZM35.1209 77.9547C34.5201 78.9611 33.9338 79.9773 33.3624 81.003L54.4741 92.7641C54.9279 91.9495 55.3936 91.1423 55.8709 90.3428L35.1209 77.9547ZM30.8974 85.6717C30.3736 86.7204 29.8649 87.7781 29.3717 88.8445L51.3059 98.9894C51.6973 98.1432 52.101 97.3037 52.5169 96.4712L30.8974 85.6717ZM27.2631 93.6873C26.8195 94.7725 26.3916 95.8659 25.9796 96.9672L48.6147 105.434C48.9414 104.56 49.2809 103.693 49.6328 102.832L27.2631 93.6873ZM24.2415 101.955C23.8811 103.07 23.5368 104.192 23.209 105.321L46.4173 112.059C46.6773 111.164 46.9503 110.274 47.2362 109.389L24.2415 101.955ZM21.8512 110.426C21.5756 111.566 21.3166 112.711 21.0745 113.863L44.7243 118.834C44.9164 117.921 45.1218 117.012 45.3404 116.108L21.8512 110.426ZM20.1052 119.052C19.9164 120.207 19.7444 121.367 19.5894 122.532L43.5453 125.717C43.6684 124.792 43.805 123.87 43.955 122.953L20.1052 119.052ZM19.0113 127.779C18.9092 128.944 18.8241 130.113 18.7563 131.287L42.8828 132.681C42.9368 131.746 43.0045 130.815 43.0857 129.888L19.0113 127.779Z" fill="#FF404B"/>
</g>
<path fill-rule="evenodd" clip-rule="evenodd" d="M129.313 137.476C132.142 142.003 138.106 143.38 142.633 140.551C147.161 137.722 187.699 100.992 187.699 100.992C187.699 100.992 136.916 121.326 132.388 124.155C127.861 126.984 126.484 132.948 129.313 137.476ZM142.293 129.365C143.707 131.629 143.019 134.61 140.755 136.025C138.492 137.44 135.51 136.751 134.095 134.487C132.681 132.224 133.369 129.242 135.633 127.827C137.896 126.413 140.878 127.101 142.293 129.365Z" fill="white"/>
<path d="M30.4044 156.199C32.457 156.199 33.2802 154.135 33.2802 152.308C33.2802 150.47 32.457 148.428 30.4044 148.428C28.3406 148.428 27.5286 150.47 27.5286 152.308C27.5286 154.135 28.3406 156.199 30.4044 156.199ZM30.4044 155.364C28.9721 155.364 28.4872 153.808 28.4872 152.308C28.4872 150.808 28.9721 149.263 30.4044 149.263C31.8367 149.263 32.3216 150.808 32.3216 152.308C32.3216 153.808 31.8367 155.364 30.4044 155.364ZM36.174 152.139C37.2567 152.139 38.001 151.349 38.001 150.3C38.001 149.24 37.2567 148.428 36.174 148.428C35.1026 148.428 34.3696 149.24 34.3696 150.3C34.3696 151.349 35.1026 152.139 36.174 152.139ZM36.0725 156.063L40.8881 148.541H40.2678L35.4635 156.063H36.0725ZM40.0987 156.199C41.1701 156.199 41.9144 155.409 41.9144 154.36C41.9144 153.3 41.1701 152.488 40.0987 152.488C39.0273 152.488 38.2942 153.3 38.2942 154.36C38.2942 155.409 39.0273 156.199 40.0987 156.199ZM36.174 151.575C35.5086 151.575 35.0462 151.011 35.0462 150.3C35.0462 149.556 35.5086 149.003 36.174 149.003C36.8507 149.003 37.3243 149.556 37.3243 150.3C37.3243 151.011 36.8507 151.575 36.174 151.575ZM40.0987 155.635C39.422 155.635 38.9596 155.071 38.9596 154.36C38.9596 153.616 39.422 153.063 40.0987 153.063C40.7753 153.063 41.249 153.616 41.249 154.36C41.249 155.071 40.7753 155.635 40.0987 155.635Z" fill="white"/>
<path d="M130.247 156.199C131.893 156.199 132.886 155.048 132.886 153.74C132.886 152.139 131.781 151.338 130.427 151.338C129.457 151.338 128.623 151.992 128.296 152.511C128.285 152.409 128.285 152.319 128.285 152.218C128.285 150.74 128.95 149.263 130.405 149.263C131.194 149.263 131.634 149.579 132.017 150.03L132.491 149.331C132.029 148.8 131.375 148.428 130.405 148.428C128.296 148.428 127.348 150.278 127.348 152.319C127.348 154.36 128.149 156.199 130.247 156.199ZM130.213 155.364C128.905 155.364 128.409 154.214 128.318 153.278C128.736 152.612 129.457 152.15 130.202 152.15C131.172 152.15 131.939 152.669 131.939 153.774C131.939 154.496 131.375 155.364 130.213 155.364ZM136.631 156.187C138.74 156.187 139.688 154.338 139.688 152.308C139.688 150.255 138.887 148.417 136.778 148.417C135.143 148.417 134.15 149.579 134.15 150.876C134.15 152.477 135.267 153.278 136.62 153.278C137.579 153.278 138.413 152.624 138.74 152.105C138.752 152.206 138.752 152.308 138.752 152.409C138.752 153.83 138.154 155.353 136.631 155.353C135.853 155.353 135.402 155.037 135.019 154.586L134.545 155.285C135.019 155.827 135.673 156.187 136.631 156.187ZM136.834 152.466C135.864 152.466 135.098 151.947 135.098 150.842C135.098 150.131 135.673 149.252 136.823 149.252C138.131 149.252 138.627 150.413 138.706 151.349C138.312 152.015 137.579 152.466 136.834 152.466ZM142.576 152.139C143.659 152.139 144.403 151.349 144.403 150.3C144.403 149.24 143.659 148.428 142.576 148.428C141.504 148.428 140.771 149.24 140.771 150.3C140.771 151.349 141.504 152.139 142.576 152.139ZM142.474 156.063L147.29 148.541H146.67L141.865 156.063H142.474ZM146.501 156.199C147.572 156.199 148.316 155.409 148.316 154.36C148.316 153.3 147.572 152.488 146.501 152.488C145.429 152.488 144.696 153.3 144.696 154.36C144.696 155.409 145.429 156.199 146.501 156.199ZM142.576 151.575C141.91 151.575 141.448 151.011 141.448 150.3C141.448 149.556 141.91 149.003 142.576 149.003C143.253 149.003 143.726 149.556 143.726 150.3C143.726 151.011 143.253 151.575 142.576 151.575ZM146.501 155.635C145.824 155.635 145.361 155.071 145.361 154.36C145.361 153.616 145.824 153.063 146.501 153.063C147.177 153.063 147.651 153.616 147.651 154.36C147.651 155.071 147.177 155.635 146.501 155.635Z" fill="white"/>
<path d="M225.358 156.063V148.541H224.535L222.652 150.481L223.216 151.056L224.422 149.782V156.063H225.358ZM229.849 156.199C231.901 156.199 232.724 154.135 232.724 152.308C232.724 150.47 231.901 148.428 229.849 148.428C227.785 148.428 226.973 150.47 226.973 152.308C226.973 154.135 227.785 156.199 229.849 156.199ZM229.849 155.364C228.416 155.364 227.931 153.808 227.931 152.308C227.931 150.808 228.416 149.263 229.849 149.263C231.281 149.263 231.766 150.808 231.766 152.308C231.766 153.808 231.281 155.364 229.849 155.364ZM236.915 156.199C238.968 156.199 239.791 154.135 239.791 152.308C239.791 150.47 238.968 148.428 236.915 148.428C234.851 148.428 234.039 150.47 234.039 152.308C234.039 154.135 234.851 156.199 236.915 156.199ZM236.915 155.364C235.483 155.364 234.998 153.808 234.998 152.308C234.998 150.808 235.483 149.263 236.915 149.263C238.347 149.263 238.832 150.808 238.832 152.308C238.832 153.808 238.347 155.364 236.915 155.364ZM242.685 152.139C243.767 152.139 244.512 151.349 244.512 150.3C244.512 149.24 243.767 148.428 242.685 148.428C241.613 148.428 240.88 149.24 240.88 150.3C240.88 151.349 241.613 152.139 242.685 152.139ZM242.583 156.063L247.399 148.541H246.779L241.974 156.063H242.583ZM246.609 156.199C247.681 156.199 248.425 155.409 248.425 154.36C248.425 153.3 247.681 152.488 246.609 152.488C245.538 152.488 244.805 153.3 244.805 154.36C244.805 155.409 245.538 156.199 246.609 156.199ZM242.685 151.575C242.019 151.575 241.557 151.011 241.557 150.3C241.557 149.556 242.019 149.003 242.685 149.003C243.361 149.003 243.835 149.556 243.835 150.3C243.835 151.011 243.361 151.575 242.685 151.575ZM246.609 155.635C245.933 155.635 245.47 155.071 245.47 154.36C245.47 153.616 245.933 153.063 246.609 153.063C247.286 153.063 247.76 153.616 247.76 154.36C247.76 155.071 247.286 155.635 246.609 155.635Z" fill="white"/>
<defs>
<filter id="filter0_d" x="195.383" y="47.4427" width="42.0858" height="42.3715" filterUnits="userSpaceOnUse" color-interpolation-filters="sRGB">
<feFlood flood-opacity="0" result="BackgroundImageFix"/>
<feColorMatrix in="SourceAlpha" type="matrix" values="0 0 0 0 0 0 0 0 0 0 0 0 0 0 0 0 0 0 127 0"/>
<feOffset/>
<feGaussianBlur stdDeviation="1.61111"/>
<feColorMatrix type="matrix" values="0 0 0 0 0.407843 0 0 0 0 0.972549 0 0 0 0 0.690196 0 0 0 1 0"/>
<feBlend mode="normal" in2="BackgroundImageFix" result="effect1_dropShadow"/>
<feBlend mode="normal" in="SourceGraphic" in2="effect1_dropShadow" result="shape"/>
</filter>
<filter id="filter1_d" x="65.1132" y="17.3323" width="148.866" height="51.7946" filterUnits="userSpaceOnUse" color-interpolation-filters="sRGB">
<feFlood flood-opacity="0" result="BackgroundImageFix"/>
<feColorMatrix in="SourceAlpha" type="matrix" values="0 0 0 0 0 0 0 0 0 0 0 0 0 0 0 0 0 0 127 0"/>
<feOffset/>
<feGaussianBlur stdDeviation="1.61111"/>
<feColorMatrix type="matrix" values="0 0 0 0 1 0 0 0 0 0.952941 0 0 0 0 0.545098 0 0 0 1 0"/>
<feBlend mode="normal" in2="BackgroundImageFix" result="effect1_dropShadow"/>
<feBlend mode="normal" in="SourceGraphic" in2="effect1_dropShadow" result="shape"/>
</filter>
<clipPath id="clip0">
<rect width="242.472" height="117.611" fill="white" transform="translate(17.6943 16.1745)"/>
</clipPath>
</defs>
</svg>
