<svg width="77" height="53" viewBox="0 0 77 53" fill="none" xmlns="http://www.w3.org/2000/svg">
<g clip-path="url(#clip0)">
<path opacity="0.2" d="M62.6035 38.8163C62.6035 52.0565 51.9209 62.7889 38.7444 62.7889C25.5679 62.7889 14.8853 52.0565 14.8853 38.8163C14.8853 25.576 25.5679 14.8436 38.7444 14.8436C51.9209 14.8436 62.6035 25.576 62.6035 38.8163Z" stroke="white" stroke-width="0.227229"/>
<g filter="url(#filter0_d)">
<path fill-rule="evenodd" clip-rule="evenodd" d="M61.0425 14.4605C61.2885 14.6816 61.5312 14.9063 61.7704 15.1345L57.0651 20.0671C56.8748 19.8855 56.6817 19.7067 56.4859 19.5308L61.0425 14.4605ZM62.8239 16.1853C63.0528 16.424 63.2781 16.6661 63.4998 16.9116L58.4411 21.481C58.2647 21.2857 58.0854 21.0931 57.9034 20.9032L62.8239 16.1853ZM64.4724 18.0379C64.6828 18.2929 64.8895 18.551 65.0924 18.8123L59.708 22.993C59.5467 22.7852 59.3823 22.5798 59.2149 22.377L64.4724 18.0379ZM65.9787 20.008C66.1696 20.278 66.3566 20.551 66.5396 20.8269L60.8586 24.5947C60.7132 24.3754 60.5645 24.1584 60.4128 23.9438L65.9787 20.008Z" fill="#68F8B0"/>
</g>
<g filter="url(#filter1_d)">
<path fill-rule="evenodd" clip-rule="evenodd" d="M38.335 5.97119C38.5005 5.96854 38.6663 5.96711 38.8323 5.9669C38.9984 5.96669 39.1642 5.9677 39.3297 5.96992L39.238 12.7862C39.1059 12.7844 38.9736 12.7836 38.841 12.7838C38.7084 12.7839 38.5761 12.7851 38.4441 12.7872L38.335 5.97119ZM35.8605 6.10221C36.1891 6.07258 36.5189 6.04774 36.85 6.02778L37.2604 12.8323C36.9967 12.8482 36.7342 12.868 36.4728 12.8915L35.8605 6.10221ZM40.8148 6.02273C41.146 6.04185 41.4759 6.06585 41.8045 6.09464L41.2095 12.8855C40.9481 12.8626 40.6855 12.8435 40.4218 12.8283L40.8148 6.02273ZM33.3999 6.41705C33.7254 6.36295 34.0525 6.3136 34.3811 6.26906L35.2967 13.0242C35.0356 13.0596 34.7758 13.0988 34.5173 13.1417L33.3999 6.41705ZM43.2844 6.25773C43.6131 6.30143 43.9403 6.34995 44.266 6.40322L43.1656 13.1307C42.907 13.0884 42.6471 13.0499 42.386 13.0151L43.2844 6.25773ZM30.9679 6.91573C31.2891 6.83718 31.612 6.76331 31.9367 6.69419L33.3561 13.3617C33.0984 13.4165 32.8422 13.4751 32.5875 13.5374L30.9679 6.91573ZM45.7298 6.67663C46.0547 6.74493 46.3778 6.81798 46.6992 6.8957L45.0965 13.5215C44.8416 13.4598 44.5852 13.4019 44.3275 13.3477L45.7298 6.67663ZM28.58 7.59608C28.8942 7.4936 29.2105 7.39568 29.5288 7.3024L31.4461 13.8441C31.1936 13.9181 30.9428 13.9957 30.6936 14.077L28.58 7.59608ZM48.1393 7.27871C48.4578 7.37118 48.7743 7.4683 49.0888 7.56998L46.9917 14.0563C46.7423 13.9756 46.4913 13.8986 46.2387 13.8253L48.1393 7.27871ZM26.2501 8.45434C26.5559 8.32842 26.864 8.20692 27.1743 8.08994L29.5788 14.4687C29.3326 14.5615 29.0882 14.6578 28.8456 14.7577L26.2501 8.45434ZM50.4957 8.06026C50.8064 8.17645 51.1148 8.29716 51.4209 8.42231L48.8414 14.7323C48.5986 14.633 48.3539 14.5373 48.1075 14.4451L50.4957 8.06026ZM23.9917 9.48525C24.2871 9.33673 24.5851 9.19248 24.8856 9.05259L27.763 15.2324C27.5245 15.3434 27.288 15.4579 27.0535 15.5758L23.9917 9.48525ZM52.787 9.01708C53.0878 9.1562 53.3861 9.29969 53.6819 9.44746L50.6357 15.5458C50.4008 15.4285 50.164 15.3146 49.9253 15.2042L52.787 9.01708ZM21.8179 10.6821C22.1014 10.5119 22.3876 10.3458 22.6765 10.1839L26.0092 16.1306C25.7797 16.2592 25.5524 16.3911 25.3272 16.5263L21.8179 10.6821ZM54.9989 10.1428C55.2882 10.304 55.5748 10.4693 55.8587 10.6388L52.3643 16.4919C52.1388 16.3573 51.9111 16.2259 51.6813 16.0979L54.9989 10.1428ZM19.7401 12.0379C20.0101 11.847 20.2831 11.66 20.559 11.4771L24.3268 17.158C24.1075 17.3035 23.8905 17.4521 23.6759 17.6039L19.7401 12.0379ZM57.1197 11.4305C57.3961 11.6128 57.6695 11.7991 57.94 11.9893L54.0184 17.5653C53.8034 17.414 53.586 17.2659 53.3663 17.1211L57.1197 11.4305ZM59.1379 12.8725C59.3997 13.0748 59.6584 13.2808 59.9139 13.4906L55.5882 18.7591C55.385 18.5923 55.1792 18.4284 54.971 18.2676L59.1379 12.8725Z" fill="#FFF38B"/>
</g>
<path opacity="0.15" fill-rule="evenodd" clip-rule="evenodd" d="M67.3348 22.0858C67.505 22.3693 67.671 22.6555 67.833 22.9444L61.8863 26.2771C61.7577 26.0476 61.6258 25.8203 61.4905 25.5951L67.3348 22.0858ZM68.5316 24.2596C68.6802 24.555 68.8244 24.853 68.9643 25.1534L62.7845 28.0308C62.6734 27.7924 62.5589 27.5559 62.441 27.3214L68.5316 24.2596ZM69.5625 26.518C69.6885 26.8238 69.81 27.1319 69.9269 27.4422L63.5482 29.8467C63.4554 29.6005 63.359 29.3561 63.2591 29.1135L69.5625 26.518ZM70.4208 28.8479C70.5233 29.1621 70.6212 29.4784 70.7145 29.7967L64.1728 31.7139C64.0988 31.4615 64.0211 31.2107 63.9399 30.9615L70.4208 28.8479ZM71.1012 31.2358C71.1797 31.557 71.2536 31.8799 71.3227 32.2046L64.6552 33.6239C64.6004 33.3663 64.5418 33.1101 64.4795 32.8554L71.1012 31.2358ZM71.5998 33.6678C71.6539 33.9933 71.7033 34.3204 71.7478 34.649L64.9927 35.5646C64.9573 35.3035 64.9181 35.0437 64.8752 34.7852L71.5998 33.6678ZM71.9147 36.1284C71.9443 36.4569 71.9691 36.7868 71.9891 37.1179L65.1846 37.5283C65.1687 37.2646 65.1489 37.002 65.1254 36.7407L71.9147 36.1284Z" fill="#68F8B0"/>
<path fill-rule="evenodd" clip-rule="evenodd" d="M18.5442 12.9239C18.2829 13.1267 18.0248 13.3334 17.7698 13.5439L22.1089 18.8014C22.3117 18.634 22.5171 18.4696 22.7249 18.3083L18.5442 12.9239ZM16.6436 14.5165C16.3981 14.7382 16.156 14.9635 15.9173 15.1924L20.6352 20.1129C20.8251 19.9308 21.0177 19.7516 21.213 19.5752L16.6436 14.5165ZM14.8665 16.2458C14.6383 16.4851 14.4136 16.7278 14.1925 16.9738L19.2628 21.5303C19.4387 21.3346 19.6175 21.1415 19.7991 20.9511L14.8665 16.2458ZM13.2227 18.1026C13.013 18.3581 12.8069 18.6168 12.6047 18.8786L17.9997 23.0456C18.1605 22.8373 18.3244 22.6316 18.4913 22.4283L13.2227 18.1026ZM11.7215 20.0766C11.5313 20.347 11.345 20.6205 11.1627 20.8968L16.8532 24.6502C16.9981 24.4305 17.1462 24.2132 17.2974 23.9981L11.7215 20.0766ZM10.371 22.1578C10.2015 22.4417 10.0361 22.7283 9.87493 23.0177L15.8301 26.3352C15.9581 26.1054 16.0894 25.8777 16.2241 25.6522L10.371 22.1578ZM9.17961 24.3346C9.03185 24.6304 8.88836 24.9288 8.74923 25.2296L14.9364 28.0912C15.0468 27.8525 15.1607 27.6157 15.278 27.3809L9.17961 24.3346ZM8.15446 26.5956C8.02931 26.9017 7.9086 27.2102 7.79241 27.5208L14.1773 29.909C14.2694 29.6626 14.3652 29.418 14.4644 29.1751L8.15446 26.5956ZM7.30213 28.9277C7.20045 29.2422 7.10334 29.5587 7.01087 29.8772L13.5574 31.7779C13.6308 31.5253 13.7078 31.2742 13.7884 31.0248L7.30213 28.9277ZM6.62786 31.3174C6.55013 31.6387 6.47708 31.9619 6.40879 32.2867L13.0799 33.6891C13.134 33.4313 13.192 33.175 13.2537 32.9201L6.62786 31.3174ZM6.13537 33.7506C6.0821 34.0763 6.03358 34.4035 5.98988 34.7322L12.7473 35.6306C12.782 35.3694 12.8206 35.1095 12.8629 34.8509L6.13537 33.7506ZM5.82679 36.212C5.798 36.5406 5.77401 36.8706 5.75488 37.2017L12.5604 37.5947C12.5756 37.331 12.5947 37.0684 12.6177 36.807L5.82679 36.212Z" fill="#FF404B"/>
</g>
<path fill-rule="evenodd" clip-rule="evenodd" d="M36.9406 38.9474C37.7386 40.2245 39.4209 40.6129 40.698 39.8149C41.9751 39.0168 53.41 28.6562 53.41 28.6562C53.41 28.6562 39.0852 34.392 37.8081 35.19C36.5309 35.9881 36.1426 37.6703 36.9406 38.9474ZM40.602 36.6599C41.001 37.2985 40.8068 38.1396 40.1682 38.5386C39.5297 38.9376 38.6886 38.7434 38.2896 38.1049C37.8905 37.4663 38.0847 36.6252 38.7233 36.2262C39.3618 35.8272 40.203 36.0214 40.602 36.6599Z" fill="white"/>
<path d="M9.04072 44.1266C9.6197 44.1266 9.85193 43.5444 9.85193 43.029C9.85193 42.5105 9.6197 41.9347 9.04072 41.9347C8.45856 41.9347 8.22951 42.5105 8.22951 43.029C8.22951 43.5444 8.45856 44.1266 9.04072 44.1266ZM9.04072 43.8911C8.63671 43.8911 8.49992 43.4521 8.49992 43.029C8.49992 42.6059 8.63671 42.1701 9.04072 42.1701C9.44474 42.1701 9.58153 42.6059 9.58153 43.029C9.58153 43.4521 9.44474 43.8911 9.04072 43.8911ZM10.6682 42.9813C10.9736 42.9813 11.1836 42.7586 11.1836 42.4628C11.1836 42.1637 10.9736 41.9347 10.6682 41.9347C10.366 41.9347 10.1592 42.1637 10.1592 42.4628C10.1592 42.7586 10.366 42.9813 10.6682 42.9813ZM10.6396 44.0884L11.9979 41.9665H11.823L10.4678 44.0884H10.6396ZM11.7753 44.1266C12.0775 44.1266 12.2874 43.9039 12.2874 43.608C12.2874 43.309 12.0775 43.0799 11.7753 43.0799C11.473 43.0799 11.2663 43.309 11.2663 43.608C11.2663 43.9039 11.473 44.1266 11.7753 44.1266ZM10.6682 42.8223C10.4805 42.8223 10.3501 42.6632 10.3501 42.4628C10.3501 42.2528 10.4805 42.0969 10.6682 42.0969C10.8591 42.0969 10.9927 42.2528 10.9927 42.4628C10.9927 42.6632 10.8591 42.8223 10.6682 42.8223ZM11.7753 43.9675C11.5844 43.9675 11.454 43.8084 11.454 43.608C11.454 43.3981 11.5844 43.2422 11.7753 43.2422C11.9661 43.2422 12.0997 43.3981 12.0997 43.608C12.0997 43.8084 11.9661 43.9675 11.7753 43.9675Z" fill="white"/>
<path d="M37.204 44.1266C37.6684 44.1266 37.9484 43.8021 37.9484 43.4331C37.9484 42.9813 37.6366 42.7555 37.2549 42.7555C36.9813 42.7555 36.7459 42.94 36.6536 43.0863C36.6504 43.0577 36.6504 43.0322 36.6504 43.0036C36.6504 42.5868 36.8381 42.1701 37.2485 42.1701C37.4712 42.1701 37.5952 42.2592 37.7034 42.3864L37.837 42.1892C37.7066 42.0397 37.5221 41.9347 37.2485 41.9347C36.6536 41.9347 36.3864 42.4564 36.3864 43.0322C36.3864 43.608 36.6123 44.1266 37.204 44.1266ZM37.1944 43.8911C36.8254 43.8911 36.6854 43.5667 36.66 43.3026C36.7777 43.1149 36.9813 42.9845 37.1912 42.9845C37.4648 42.9845 37.6811 43.1308 37.6811 43.4426C37.6811 43.6462 37.5221 43.8911 37.1944 43.8911ZM39.0049 44.1234C39.5997 44.1234 39.867 43.6017 39.867 43.029C39.867 42.4501 39.6411 41.9315 39.0462 41.9315C38.5849 41.9315 38.305 42.2592 38.305 42.625C38.305 43.0768 38.6199 43.3026 39.0017 43.3026C39.2721 43.3026 39.5075 43.1181 39.5997 42.9718C39.6029 43.0004 39.6029 43.029 39.6029 43.0577C39.6029 43.4585 39.4343 43.888 39.0049 43.888C38.7854 43.888 38.6581 43.7989 38.5499 43.6716L38.4163 43.8689C38.5499 44.0216 38.7345 44.1234 39.0049 44.1234ZM39.0621 43.0736C38.7885 43.0736 38.5722 42.9272 38.5722 42.6155C38.5722 42.4151 38.7345 42.1669 39.0589 42.1669C39.428 42.1669 39.5679 42.4946 39.5902 42.7586C39.4789 42.9463 39.2721 43.0736 39.0621 43.0736ZM40.6817 42.9813C40.9871 42.9813 41.1971 42.7586 41.1971 42.4628C41.1971 42.1637 40.9871 41.9347 40.6817 41.9347C40.3795 41.9347 40.1727 42.1637 40.1727 42.4628C40.1727 42.7586 40.3795 42.9813 40.6817 42.9813ZM40.6531 44.0884L42.0114 41.9665H41.8365L40.4813 44.0884H40.6531ZM41.7888 44.1266C42.091 44.1266 42.3009 43.9039 42.3009 43.608C42.3009 43.309 42.091 43.0799 41.7888 43.0799C41.4865 43.0799 41.2798 43.309 41.2798 43.608C41.2798 43.9039 41.4865 44.1266 41.7888 44.1266ZM40.6817 42.8223C40.494 42.8223 40.3636 42.6632 40.3636 42.4628C40.3636 42.2528 40.494 42.0969 40.6817 42.0969C40.8726 42.0969 41.0062 42.2528 41.0062 42.4628C41.0062 42.6632 40.8726 42.8223 40.6817 42.8223ZM41.7888 43.9675C41.5979 43.9675 41.4675 43.8084 41.4675 43.608C41.4675 43.3981 41.5979 43.2422 41.7888 43.2422C41.9796 43.2422 42.1132 43.3981 42.1132 43.608C42.1132 43.8084 41.9796 43.9675 41.7888 43.9675Z" fill="white"/>
<path d="M64.0327 44.0884V41.9665H63.8005L63.2692 42.5137L63.4283 42.6759L63.7687 42.3164V44.0884H64.0327ZM65.2993 44.1266C65.8783 44.1266 66.1105 43.5444 66.1105 43.029C66.1105 42.5105 65.8783 41.9347 65.2993 41.9347C64.7172 41.9347 64.4881 42.5105 64.4881 43.029C64.4881 43.5444 64.7172 44.1266 65.2993 44.1266ZM65.2993 43.8911C64.8953 43.8911 64.7585 43.4521 64.7585 43.029C64.7585 42.6059 64.8953 42.1701 65.2993 42.1701C65.7033 42.1701 65.8401 42.6059 65.8401 43.029C65.8401 43.4521 65.7033 43.8911 65.2993 43.8911ZM67.2926 44.1266C67.8716 44.1266 68.1039 43.5444 68.1039 43.029C68.1039 42.5105 67.8716 41.9347 67.2926 41.9347C66.7105 41.9347 66.4814 42.5105 66.4814 43.029C66.4814 43.5444 66.7105 44.1266 67.2926 44.1266ZM67.2926 43.8911C66.8886 43.8911 66.7518 43.4521 66.7518 43.029C66.7518 42.6059 66.8886 42.1701 67.2926 42.1701C67.6967 42.1701 67.8335 42.6059 67.8335 43.029C67.8335 43.4521 67.6967 43.8911 67.2926 43.8911ZM68.9201 42.9813C69.2255 42.9813 69.4355 42.7586 69.4355 42.4628C69.4355 42.1637 69.2255 41.9347 68.9201 41.9347C68.6179 41.9347 68.4111 42.1637 68.4111 42.4628C68.4111 42.7586 68.6179 42.9813 68.9201 42.9813ZM68.8915 44.0884L70.2499 41.9665H70.0749L68.7197 44.0884H68.8915ZM70.0272 44.1266C70.3294 44.1266 70.5394 43.9039 70.5394 43.608C70.5394 43.309 70.3294 43.0799 70.0272 43.0799C69.725 43.0799 69.5182 43.309 69.5182 43.608C69.5182 43.9039 69.725 44.1266 70.0272 44.1266ZM68.9201 42.8223C68.7324 42.8223 68.602 42.6632 68.602 42.4628C68.602 42.2528 68.7324 42.0969 68.9201 42.0969C69.111 42.0969 69.2446 42.2528 69.2446 42.4628C69.2446 42.6632 69.111 42.8223 68.9201 42.8223ZM70.0272 43.9675C69.8363 43.9675 69.7059 43.8084 69.7059 43.608C69.7059 43.3981 69.8363 43.2422 70.0272 43.2422C70.2181 43.2422 70.3517 43.3981 70.3517 43.608C70.3517 43.8084 70.2181 43.9675 70.0272 43.9675Z" fill="white"/>
<defs>
<filter id="filter0_d" x="55.5769" y="13.5515" width="11.8715" height="11.952" filterUnits="userSpaceOnUse" color-interpolation-filters="sRGB">
<feFlood flood-opacity="0" result="BackgroundImageFix"/>
<feColorMatrix in="SourceAlpha" type="matrix" values="0 0 0 0 0 0 0 0 0 0 0 0 0 0 0 0 0 0 127 0"/>
<feOffset/>
<feGaussianBlur stdDeviation="0.454458"/>
<feColorMatrix type="matrix" values="0 0 0 0 0.407843 0 0 0 0 0.972549 0 0 0 0 0.690196 0 0 0 1 0"/>
<feBlend mode="normal" in2="BackgroundImageFix" result="effect1_dropShadow"/>
<feBlend mode="normal" in="SourceGraphic" in2="effect1_dropShadow" result="shape"/>
</filter>
<filter id="filter1_d" x="18.8313" y="5.05788" width="41.9917" height="14.6101" filterUnits="userSpaceOnUse" color-interpolation-filters="sRGB">
<feFlood flood-opacity="0" result="BackgroundImageFix"/>
<feColorMatrix in="SourceAlpha" type="matrix" values="0 0 0 0 0 0 0 0 0 0 0 0 0 0 0 0 0 0 127 0"/>
<feOffset/>
<feGaussianBlur stdDeviation="0.454458"/>
<feColorMatrix type="matrix" values="0 0 0 0 1 0 0 0 0 0.952941 0 0 0 0 0.545098 0 0 0 1 0"/>
<feBlend mode="normal" in2="BackgroundImageFix" result="effect1_dropShadow"/>
<feBlend mode="normal" in="SourceGraphic" in2="effect1_dropShadow" result="shape"/>
</filter>
<clipPath id="clip0">
<rect width="68.396" height="33.1755" fill="white" transform="translate(5.45557 4.73145)"/>
</clipPath>
</defs>
</svg>
