<svg width="270" height="185" viewBox="0 0 270 185" fill="none" xmlns="http://www.w3.org/2000/svg">
<path d="M94.7499 165.154L83.0694 46.7377C124.153 57.0757 206.319 77.7516 206.319 77.7516L174.903 165.154L186.18 46.7377L63.3332 77.7516L94.7499 165.154Z" stroke="white" stroke-width="1.61111"/>
<path d="M133.416 26.1959L67.7637 136.154H201.486L133.416 26.1959Z" stroke="white" stroke-width="1.61111"/>
<circle cx="134.233" cy="101.112" r="75.7222" transform="rotate(-0.0729365 134.233 101.112)" stroke="white" stroke-opacity="0.2" stroke-width="1.61111"/>
<circle cx="66.6115" cy="136.643" r="4.02778" transform="rotate(-0.0729365 66.6115 136.643)" fill="#4C595C" stroke="#FF8A00" stroke-width="1.61111"/>
<circle cx="62.507" cy="76.2311" r="4.02778" transform="rotate(-0.0729365 62.507 76.2311)" fill="#4C595C" stroke="#FF405C" stroke-width="1.61111"/>
<circle cx="82.6056" cy="44.7888" r="4.83333" transform="rotate(-0.0729365 82.6056 44.7888)" fill="#B82649"/>
<circle cx="134.135" cy="24.5844" r="4.83333" transform="rotate(-0.0729365 134.135 24.5844)" fill="#D141DD"/>
<circle cx="186.524" cy="45.4622" r="4.83333" transform="rotate(-0.0729365 186.524 45.4622)" fill="#2871FF"/>
<circle cx="207.509" cy="77.6577" r="4.02778" transform="rotate(-0.0729365 207.509 77.6577)" fill="#4C595C" stroke="#17BCB2" stroke-width="1.61111"/>
<circle cx="201.139" cy="136.471" r="4.02778" transform="rotate(-0.0729365 201.139 136.471)" fill="#4C595C" stroke="#008B48" stroke-width="1.61111"/>
<circle cx="175.398" cy="165.504" r="4.02778" transform="rotate(-0.0729365 175.398 165.504)" fill="#4C595C" stroke="#68F8B0" stroke-width="1.61111"/>
<circle cx="94.8429" cy="165.607" r="4.02778" transform="rotate(-0.0729365 94.8429 165.607)" fill="#4C595C" stroke="#FFF38B" stroke-width="1.61111"/>
<path d="M197.67 37.1185V29.5963H196.847L194.964 31.536L195.528 32.1112L196.734 30.8368V37.1185H197.67ZM204.484 37.1185V36.284H200.796C202.894 34.6261 204.45 33.2277 204.45 31.6939C204.45 30.194 203.176 29.4835 201.924 29.4835C200.864 29.4835 199.883 29.912 199.307 30.6676L199.883 31.2654C200.322 30.7015 201.022 30.318 201.924 30.318C202.702 30.318 203.491 30.7353 203.491 31.6939C203.491 32.9909 202.025 34.2427 199.319 36.3742V37.1185H204.484ZM207.655 33.1939C208.738 33.1939 209.482 32.4044 209.482 31.3556C209.482 30.2955 208.738 29.4835 207.655 29.4835C206.584 29.4835 205.851 30.2955 205.851 31.3556C205.851 32.4044 206.584 33.1939 207.655 33.1939ZM207.553 37.1185L212.369 29.5963H211.749L206.944 37.1185H207.553ZM211.58 37.2539C212.651 37.2539 213.395 36.4644 213.395 35.4156C213.395 34.3555 212.651 33.5435 211.58 33.5435C210.508 33.5435 209.775 34.3555 209.775 35.4156C209.775 36.4644 210.508 37.2539 211.58 37.2539ZM207.655 32.63C206.99 32.63 206.527 32.0661 206.527 31.3556C206.527 30.6113 206.99 30.0586 207.655 30.0586C208.332 30.0586 208.805 30.6113 208.805 31.3556C208.805 32.0661 208.332 32.63 207.655 32.63ZM211.58 36.69C210.903 36.69 210.441 36.1261 210.441 35.4156C210.441 34.6713 210.903 34.1186 211.58 34.1186C212.256 34.1186 212.73 34.6713 212.73 35.4156C212.73 36.1261 212.256 36.69 211.58 36.69Z" fill="white"/>
<path d="M63.6909 31.5571L66.7698 24.6777V24.0348H61.6384V24.8694H65.6871L62.6534 31.5571H63.6909ZM73.0282 31.5571V30.7226H69.3403C71.438 29.0647 72.9943 27.6663 72.9943 26.1325C72.9943 24.6326 71.72 23.9221 70.4681 23.9221C69.408 23.9221 68.4268 24.3506 67.8517 25.1062L68.4268 25.704C68.8667 25.1401 69.5659 24.7566 70.4681 24.7566C71.2463 24.7566 72.0357 25.1739 72.0357 26.1325C72.0357 27.4295 70.5696 28.6813 67.863 30.8128V31.5571H73.0282ZM76.1992 27.6325C77.2819 27.6325 78.0262 26.843 78.0262 25.7942C78.0262 24.7341 77.2819 23.9221 76.1992 23.9221C75.1278 23.9221 74.3948 24.7341 74.3948 25.7942C74.3948 26.843 75.1278 27.6325 76.1992 27.6325ZM76.0977 31.5571L80.9133 24.0348H80.2931L75.4887 31.5571H76.0977ZM80.1239 31.6925C81.1953 31.6925 81.9396 30.903 81.9396 29.8542C81.9396 28.7941 81.1953 27.9821 80.1239 27.9821C79.0525 27.9821 78.3194 28.7941 78.3194 29.8542C78.3194 30.903 79.0525 31.6925 80.1239 31.6925ZM76.1992 27.0686C75.5338 27.0686 75.0714 26.5047 75.0714 25.7942C75.0714 25.0499 75.5338 24.4972 76.1992 24.4972C76.8759 24.4972 77.3496 25.0499 77.3496 25.7942C77.3496 26.5047 76.8759 27.0686 76.1992 27.0686ZM80.1239 31.1286C79.4472 31.1286 78.9848 30.5647 78.9848 29.8542C78.9848 29.1099 79.4472 28.5572 80.1239 28.5572C80.8006 28.5572 81.2742 29.1099 81.2742 29.8542C81.2742 30.5647 80.8006 31.1286 80.1239 31.1286Z" fill="white"/>
<path d="M127.825 11.4182V3.89593H127.002L125.118 5.83571L125.682 6.41088L126.889 5.13649V11.4182H127.825ZM133.736 11.4182V9.51227H134.796V8.68899H133.736V3.89593H132.451L129.225 8.7341V9.51227H132.8V11.4182H133.736ZM132.8 8.68899H130.161L132.8 4.76432V8.68899ZM137.468 7.49355C138.551 7.49355 139.295 6.7041 139.295 5.65527C139.295 4.59516 138.551 3.78316 137.468 3.78316C136.397 3.78316 135.664 4.59516 135.664 5.65527C135.664 6.7041 136.397 7.49355 137.468 7.49355ZM137.367 11.4182L142.182 3.89593H141.562L136.758 11.4182H137.367ZM141.393 11.5535C142.464 11.5535 143.209 10.7641 143.209 9.71527C143.209 8.65516 142.464 7.84316 141.393 7.84316C140.321 7.84316 139.588 8.65516 139.588 9.71527C139.588 10.7641 140.321 11.5535 141.393 11.5535ZM137.468 6.92966C136.803 6.92966 136.34 6.36577 136.34 5.65527C136.34 4.91093 136.803 4.35832 137.468 4.35832C138.145 4.35832 138.618 4.91093 138.618 5.65527C138.618 6.36577 138.145 6.92966 137.468 6.92966ZM141.393 10.9897C140.716 10.9897 140.254 10.4258 140.254 9.71527C140.254 8.97093 140.716 8.41832 141.393 8.41832C142.069 8.41832 142.543 8.97093 142.543 9.71527C142.543 10.4258 142.069 10.9897 141.393 10.9897Z" fill="white"/>
</svg>
