<svg width="325" height="234" viewBox="0 0 325 234" fill="none" xmlns="http://www.w3.org/2000/svg">
<path d="M4.45623 125.27L24.7456 112.974L25.2199 112.679L59.4106 91.9437L59.8805 91.6491L89.4934 73.6987C90.8524 72.8698 92.412 72.428 94.0038 72.421C95.5956 72.414 97.1591 72.842 98.5253 73.6589L130.446 92.6197L130.931 92.9143L158.675 109.39C160.022 110.193 161.561 110.619 163.13 110.623C164.698 110.628 166.24 110.211 167.592 109.415L170.729 107.582L171.041 107.397L196.842 92.2869L196.91 92.2471L197.327 92.0041L227.29 74.4587C228.647 73.6609 230.193 73.2436 231.766 73.2506C233.34 73.2576 234.882 73.6887 236.231 74.4985L265.542 92.0262L266.022 92.309L300.917 113.183L301.397 113.478L320.492 124.896C326.507 128.493 326.501 137.482 320.482 141.07L299.887 153.332L299.413 153.626L265.904 173.611L265.43 173.894L231.36 194.211L230.886 194.494L196.42 215.054L195.939 215.349L167.141 232.526C165.787 233.338 164.237 233.768 162.658 233.77C161.079 233.772 159.529 233.345 158.172 232.536L129.156 215.341L128.671 215.047L93.6338 194.263L93.1536 193.98L59.4239 173.981L58.9393 173.686L26.684 154.562L26.1994 154.267L4.53282 141.423C-1.47667 137.866 -1.51938 128.892 4.45623 125.27Z" fill="#F9F8FF"/>
<path opacity="0.45" d="M271.225 155.854L209.673 191.172C207.856 192.217 205.79 192.77 203.686 192.774C201.583 192.779 199.515 192.236 197.692 191.199L89.6832 124.274C81.7043 119.733 85.3777 115.878 93.3763 111.372L143.153 83.3306C144.946 82.3215 146.973 81.7877 149.037 81.7813C151.101 81.7749 153.132 82.296 154.931 83.2939L262.633 143.547C270.671 148.007 279.198 151.273 271.225 155.854Z" fill="#E1E1EF"/>
<path opacity="0.3" d="M196.714 92.2072L196.844 92.1277L196.906 92.2425L197.324 91.998L231.258 112.296L231.734 112.579L266.633 133.453L267.112 133.742L299.881 153.339L299.407 153.628L266.633 134.025L266.153 133.737L231.254 112.863L230.778 112.579L196.973 92.3619L196.839 92.2823L196.714 92.2072Z" fill="#908ABC"/>
<path opacity="0.3" d="M156.86 108.962L157.1 108.535L163.067 112.102L163.551 112.391L197.131 132.48L197.611 132.763L232.506 153.637L232.984 153.925L265.898 173.612L265.424 173.895L232.506 154.208L232.026 153.921L197.131 133.047H197.126L196.652 132.763L163.071 112.679L162.587 112.386L156.86 108.962Z" fill="#908ABC"/>
<path opacity="0.3" d="M59.4106 91.944L59.8805 91.6553L95.7769 113.126L96.2571 113.415L128.378 132.624L128.859 132.913L162.444 152.996L162.918 153.285H162.923L197.817 174.155L198.298 174.442L231.354 194.213L230.88 194.496H230.876L197.817 174.725L197.339 174.437L162.438 153.568L161.964 153.279L128.378 133.196L127.9 132.907L95.7769 113.697L95.2982 113.41L59.4106 91.944Z" fill="#908ABC"/>
<path opacity="0.3" d="M24.7454 112.967L25.2196 112.68L60.6756 133.881L61.1602 134.17L93.2786 153.379L93.7573 153.668H93.7617L127.343 173.757L127.823 174.04L162.716 194.914L163.201 195.203L196.403 215.057L195.923 215.346L162.716 195.485L162.233 195.197L127.338 174.328L126.858 174.04L93.2786 153.955L92.794 153.668L60.6756 134.458L60.191 134.17L24.7454 112.967Z" fill="#908ABC"/>
<path opacity="0.3" d="M128.671 215.047L162.233 195.196L162.716 194.914L197.339 174.437L197.817 174.154L232.026 153.921L232.506 153.637L266.153 133.738L266.633 133.453L300.908 113.18L301.388 113.469L267.112 133.742L266.633 134.025L232.985 153.925L232.506 154.208L198.297 174.442L197.817 174.724L163.201 195.202L162.716 195.485L129.156 215.336L128.671 215.047Z" fill="#908ABC"/>
<path opacity="0.3" d="M93.1492 193.98L126.858 174.04L127.343 173.757L161.964 153.279L162.444 152.996L196.652 132.763L197.131 132.48L230.778 112.579L231.258 112.297L265.535 92.0234L266.013 92.3062L231.734 112.579L231.254 112.864L197.611 132.763L197.131 133.047H197.127L162.923 153.285H162.918L162.438 153.568L127.823 174.04L127.338 174.328L93.6338 194.263H93.6279L93.1492 193.98Z" fill="#908ABC"/>
<path opacity="0.3" d="M58.9404 173.692L92.7939 153.668L93.2785 153.379L127.899 132.907L128.378 132.624L162.586 112.386L163.067 112.102L170.727 107.576L171.038 107.392L196.714 92.2075L196.843 92.1279L196.905 92.2428L196.973 92.3621L197.084 92.5595L163.551 112.391L163.071 112.68L128.858 132.913L128.378 133.196L93.7616 153.668H93.7572L93.2785 153.955L59.4235 173.979L58.9404 173.692Z" fill="#908ABC"/>
<path opacity="0.3" d="M26.1995 154.273L60.1914 134.169L60.676 133.88L95.2983 113.41L95.777 113.126L130.446 92.6196L130.931 92.9083L96.2571 113.414L95.777 113.697L61.1605 134.169L60.676 134.458L26.6841 154.562L26.1995 154.273Z" fill="#908ABC"/>
<path d="M218.892 146.832C220.542 146.832 221.88 145.495 221.88 143.845C221.88 142.196 220.542 140.858 218.892 140.858C217.241 140.858 215.903 142.196 215.903 143.845C215.903 145.495 217.241 146.832 218.892 146.832Z" fill="#24126A"/>
<path d="M248.689 113.1C250.339 113.1 251.677 111.763 251.677 110.113C251.677 108.464 250.339 107.126 248.689 107.126C247.038 107.126 245.7 108.464 245.7 110.113C245.7 111.763 247.038 113.1 248.689 113.1Z" fill="#24126A"/>
<path d="M255.193 136.114C256.843 136.114 258.181 134.777 258.181 133.128C258.181 131.478 256.843 130.141 255.193 130.141C253.542 130.141 252.204 131.478 252.204 133.128C252.204 134.777 253.542 136.114 255.193 136.114Z" fill="#24126A"/>
<path d="M189.798 130.405C191.449 130.405 192.787 129.068 192.787 127.418C192.787 125.769 191.449 124.432 189.798 124.432C188.148 124.432 186.81 125.769 186.81 127.418C186.81 129.068 188.148 130.405 189.798 130.405Z" fill="#24126A"/>
<path d="M208.52 110.025C210.17 110.025 211.508 108.688 211.508 107.038C211.508 105.389 210.17 104.052 208.52 104.052C206.869 104.052 205.531 105.389 205.531 107.038C205.531 108.688 206.869 110.025 208.52 110.025Z" fill="#24126A"/>
<path d="M223.199 118.194L189.974 124.607C189.798 124.607 189.711 124.607 189.535 124.695V124.519L187.953 124.08V125.925C187.953 126.012 187.953 126.1 187.953 126.188C188.128 126.891 189.359 127.418 190.59 127.33L223.814 120.917L223.199 118.194Z" fill="url(#paint0_linear)"/>
<path d="M250.974 106.863L249.919 107.741C249.04 107.39 247.722 107.478 246.843 108.005L223.199 118.282L226.539 120.215L250.183 109.937C250.71 109.586 250.974 109.235 250.974 108.795V106.863Z" fill="url(#paint1_linear)"/>
<path d="M210.805 104.491C210.19 103.788 208.784 103.525 207.641 103.876C207.465 103.876 207.378 103.964 207.29 104.052C207.202 103.964 207.202 103.876 207.114 103.788C206.938 103.613 206.411 103.261 206.411 103.261V105.106C206.411 105.282 206.499 105.457 206.674 105.721L221.968 119.688L226.187 118.458L210.805 104.491Z" fill="url(#paint2_linear)"/>
<path d="M257.303 129.966L256.775 130.141L256.424 130.844C256.336 130.756 256.16 130.756 255.984 130.668L226.012 118.458L223.902 120.83L253.875 133.04C255.017 133.391 256.424 133.128 257.039 132.425C257.215 132.249 257.303 131.986 257.303 131.81V129.966Z" fill="#9D9BB4"/>
<path d="M221.88 119.688L216.958 140.77L216.606 140.595V142.527C216.694 143.142 217.485 143.669 218.54 143.757C219.859 143.845 221.001 143.406 221.177 142.615L226.451 120.039L221.88 119.688Z" fill="#E1E1EF"/>
<path d="M256.072 128.824L228.297 117.492L250.271 107.917C251.238 107.39 251.326 106.511 250.535 105.984L250.271 105.809C249.392 105.282 247.898 105.369 246.931 105.984L224.957 115.559L210.806 102.646C210.19 101.944 208.784 101.68 207.641 102.031C206.499 102.383 206.059 103.173 206.587 103.876L220.738 116.789L189.886 122.762C188.568 122.85 187.777 123.553 187.953 124.344C188.128 125.046 189.359 125.573 190.589 125.486L221.441 119.512L216.519 140.419C216.343 141.122 217.222 141.824 218.452 142C219.771 142.088 220.914 141.649 221.089 140.858L226.012 119.951L253.787 131.283C254.929 131.635 256.336 131.371 256.951 130.668C257.654 129.966 257.215 129.087 256.072 128.824ZM225.308 117.492L224.781 118.107L223.638 118.019L223.463 117.404L224.517 117.14L225.308 117.492Z" fill="#E1E1EF"/>
<path d="M224.341 119.249C223.023 119.249 221.88 118.195 221.88 116.789V88.7671H226.715V116.789C226.715 118.195 225.66 119.249 224.341 119.249Z" fill="#24126A"/>
<path d="M211.421 55.4743C211.333 54.8594 210.981 54.2445 210.19 53.8053L209.663 53.5418C207.817 52.4877 204.477 52.5755 202.28 53.8053L186.986 62.6775C185.843 63.3802 185.228 64.1708 185.228 64.9614V67.5967C185.228 68.2995 185.667 68.9144 186.458 69.4414L186.986 69.705C188.832 70.7591 192.172 70.6712 194.369 69.4414L209.663 60.5693C210.806 59.9544 211.421 59.0759 211.421 58.2853V55.4743Z" fill="#9D9BB4"/>
<path d="M186.986 67.1578L186.458 66.8943C184.613 65.8402 184.788 63.9076 186.986 62.6778L202.28 53.8056C204.477 52.5758 207.729 52.4001 209.663 53.5421L210.19 53.8056C212.036 54.8598 211.86 56.7923 209.663 58.0221L194.369 66.8943C192.084 68.1241 188.832 68.2119 186.986 67.1578Z" fill="#CFCCDC"/>
<path d="M219.419 79.4554L187.337 97.9903C185.755 98.8687 184.437 97.9025 184.437 95.7942C184.437 93.686 185.755 91.2264 187.337 90.2601L224.078 69.0898V70.5832C224.078 74.0091 221.968 77.962 219.419 79.4554Z" fill="#515151"/>
<path d="M221.793 0.396463C220.65 -0.218441 219.244 -0.130603 217.661 0.747831L216.695 1.2749C213.179 3.2953 210.278 8.82943 210.278 13.573V76.9959L218.804 72.0767V74.0971L208.608 82.4422L185.404 97.9905L218.101 116.438L236.911 102.031L247.634 92.8956L254.314 18.6679L221.793 0.396463Z" fill="#E1E1EF"/>
<path d="M197.797 105.194C197.797 105.194 196.918 102.91 198.676 101.153C200.434 99.396 209.399 95.6187 210.102 95.2673C210.717 94.8281 213.97 92.4563 213.97 92.4563L214.937 90.2603C214.937 90.2603 196.566 92.0171 196.39 92.3685C196.127 92.632 187.777 100.099 188.04 100.45C188.304 100.801 193.754 102.119 193.754 102.119L194.808 103.612L197.797 105.194Z" fill="#2D2D2D"/>
<path d="M250.183 19.1952L249.216 19.7222C245.7 21.7426 242.8 27.2768 242.8 32.0203V95.4432L219.859 108.708C218.277 109.586 216.958 112.046 216.958 114.242C216.958 116.35 218.277 117.316 219.859 116.438L251.941 97.9029C254.49 96.4095 256.599 92.4566 256.599 88.9428V87.4495V24.0266C256.599 19.283 253.699 17.1748 250.183 19.1952Z" fill="#B5B3C9"/>
<path d="M189.183 118.897C189.183 118.897 184.437 121.971 182.854 123.728C181.272 125.485 178.108 129.175 179.427 130.931C180.745 132.688 185.14 133.655 189.886 129.262C194.633 124.87 193.314 124.607 197.269 122.499C201.313 120.302 202.367 118.019 201.928 116.613C201.401 115.295 199.467 112.924 198.324 113.451C197.182 113.978 189.183 118.897 189.183 118.897Z" fill="#160A5B"/>
<path d="M207.745 129.561C207.745 129.561 206.075 133.338 205.196 134.568C204.317 135.798 200.098 142.913 202.295 144.582C204.492 146.251 208.711 145.812 212.052 142.21C215.392 138.609 216.095 134.216 216.886 132.811C217.677 131.405 219.786 127.54 218.82 125.344C217.853 123.148 217.677 122.709 217.677 122.709L207.745 129.561Z" fill="#160A5B"/>
<path d="M194.984 78.4888C194.984 78.4888 180.921 92.3681 178.636 99.3077C178.636 99.3077 177.669 103.085 180.394 105.984C183.118 108.971 188.919 118.545 188.919 118.545C188.919 118.545 193.226 123.728 198.764 119.6C198.764 119.6 201.313 115.559 199.731 112.923C198.149 110.288 194.105 101.767 194.105 101.767C194.105 101.767 203.159 95.5305 207.553 94.0371C212.036 92.4559 214.409 91.2261 214.409 91.2261C214.409 91.2261 213.618 95.4426 210.366 99.4834C207.114 103.612 201.664 110.112 203.51 114.768C205.356 119.336 206.411 120.742 208.081 123.377C209.751 126.012 211.421 131.546 212.827 132.073C214.321 132.688 221.001 133.303 222.056 128.911C223.111 124.519 219.771 115.998 218.277 113.187C218.277 113.187 236.471 92.1924 238.141 89.9085C239.811 87.6246 200.61 74.8873 194.984 78.4888Z" fill="#24126A"/>
<path d="M199.643 112.923C198.061 110.288 194.017 101.767 194.017 101.767C194.017 101.767 203.071 95.5305 207.465 94.0371C211.948 92.4559 214.321 91.2261 214.321 91.2261C215.2 90.0842 217.925 85.5163 219.156 82.0026C208.872 79.0159 197.797 76.732 194.984 78.4888C195.951 80.9485 201.225 80.9485 201.225 80.9485C201.225 80.9485 203.159 85.692 204.477 86.3069C205.795 86.9218 208.872 86.2191 208.872 86.2191C208.872 86.2191 208.344 87.0096 206.147 88.5908C203.95 90.172 190.15 101.504 190.15 101.504C190.15 101.504 190.941 101.943 194.633 108.619C198.324 115.295 198.764 119.687 198.764 119.687C198.764 119.687 201.225 115.647 199.643 112.923Z" fill="#160A5B"/>
<path d="M230.758 85.7797C222.672 84.9891 213.179 84.9012 215.288 89.2056C218.892 96.4087 226.187 96.7601 226.187 96.7601C226.099 99.3954 215.025 112.221 215.025 112.221C215.025 112.221 215.025 112.221 217.661 117.228C220.298 122.235 219.947 131.458 219.947 131.458C220.914 130.931 221.705 130.053 222.056 128.823C223.111 124.431 219.771 115.91 218.277 113.099C218.277 113.099 236.471 92.1044 238.141 89.8205C238.581 89.2056 235.504 87.6244 230.758 85.7797Z" fill="#160A5B"/>
<path d="M180.745 41.5067L182.942 39.8377C182.942 39.8377 194.633 33.3373 198.5 31.3169C200.61 30.1749 202.807 28.1545 204.301 26.5733C205.795 24.9922 207.905 24.1137 210.102 24.1137L230.494 24.0259C230.494 24.0259 232.867 27.8031 233.659 28.5937C234.274 29.1208 239.811 33.7765 243.767 37.6416C245.964 39.7499 247.546 42.3852 248.425 45.3718C250.71 53.3656 250.622 69.5288 250.974 81.0363C250.974 81.0363 249.568 81.5633 246.052 82.3539C242.536 83.0567 242.976 82.6174 242.976 82.6174C242.976 82.6174 237.79 94.3006 230.67 95.4426C223.638 96.5845 214.058 93.2465 212.388 82.1782C212.388 82.1782 198.588 80.1578 194.896 78.5766C194.545 78.401 194.457 78.0496 194.633 77.6982C196.303 75.5021 202.543 66.8935 203.071 61.3593C203.774 54.9468 203.51 45.5475 203.071 43.0001C203.071 43.0001 192.699 46.953 189.359 47.5679C189.359 47.5679 176.702 61.4472 171.428 65.2244C171.428 65.2244 173.274 62.4135 169.582 60.4809L180.745 41.5067Z" fill="#17BCB2"/>
<path d="M246.14 82.1786C246.667 82.0908 247.107 81.9151 247.546 81.8273L246.843 80.4218L227.682 78.4014L216.519 79.0163L212.652 82.7057C212.827 83.9355 213.179 84.9896 213.531 85.9559C213.531 85.9559 218.277 86.6586 220.474 86.1316C222.672 85.6924 239.724 88.152 239.724 88.152C241.657 85.341 242.888 82.7935 242.976 82.4422C243.064 82.6178 243.239 82.7935 246.14 82.1786Z" fill="#39335E"/>
<path d="M220.211 75.5025C220.211 75.4146 220.123 75.4146 220.035 75.4146C219.068 75.4146 213.091 75.2389 210.894 74.4483C208.433 73.5699 205.796 73.7456 205.708 73.9213C205.532 74.097 201.489 75.766 201.225 76.4687C201.049 77.0836 200.61 79.2797 201.137 80.0703C201.665 80.8609 201.928 81.388 201.928 81.388L202.368 81.4758C202.368 81.4758 202.895 82.5299 203.247 82.9692C203.422 83.1449 203.51 83.3205 203.598 83.4962C203.862 84.0233 204.301 84.9896 204.477 84.9896C204.741 84.9896 205.971 85.2531 206.323 85.1653C206.587 85.0774 206.85 84.2868 206.675 83.9354C206.675 83.8476 206.675 83.7598 206.763 83.7598C207.378 83.6719 208.96 83.4962 211.069 83.6719C213.706 83.9354 217.486 82.1786 217.837 82.0029C217.837 82.0029 217.837 82.0029 217.925 82.0029L221.705 81.6515C221.793 81.6515 221.881 81.5637 221.881 81.4758L220.211 75.5025Z" fill="#FCD1C5"/>
<path d="M215.728 35.9727C215.728 35.9727 212.564 47.7438 215.904 59.8662C215.904 59.8662 228.209 36.939 229.528 33.2496C230.846 29.5602 231.373 26.9249 230.143 25.5194C228.912 24.2017 217.75 31.0535 217.75 31.0535L215.728 35.9727Z" fill="#F0F6FF"/>
<path d="M218.892 54.4198C218.892 54.4198 221.265 47.2166 220.826 44.9327C220.386 42.6488 219.859 40.9798 219.859 40.9798L221.968 39.0472L222.935 40.9798C222.935 40.9798 227.594 37.5539 227.857 36.939C227.857 36.939 224.078 39.4864 222.935 39.9256C222.935 39.9256 222.408 39.0472 221.617 38.6958C220.914 38.3445 219.068 40.8919 219.068 40.8919L218.716 45.1962L216.87 55.2982L217.486 56.7916L218.892 54.4198Z" fill="#C4CCD6"/>
<path d="M216.87 36.0606C216.87 36.0606 216.431 40.7163 216.783 40.9799C217.134 41.3312 218.628 41.3312 219.244 40.9799C219.947 40.6285 221.617 38.6081 221.617 38.6081C221.617 38.6081 219.507 34.9187 216.87 36.0606Z" fill="#24126A"/>
<path d="M219.332 40.1895C219.332 40.1895 220.562 43.4397 219.419 47.8318C218.277 52.224 217.749 56.3526 217.749 56.3526L215.904 59.7785C215.904 59.7785 213.618 53.1024 214.409 46.3385C214.761 43.3518 217.046 40.6287 217.046 40.6287L219.332 40.1895Z" fill="#24126A"/>
<path d="M210.015 17.1744C210.015 17.1744 209.487 20.0732 209.663 20.6003C209.839 21.1274 210.63 21.4787 210.454 22.6207C210.278 23.7627 210.894 27.1007 211.245 28.1548C211.245 28.1548 210.982 29.3846 211.333 29.736C211.685 30.0874 212.124 30.0874 212.388 30.6144C212.739 31.1415 212.827 34.0403 213.97 35.0066C215.113 35.9729 216.695 36.1486 217.486 35.9729C218.277 35.7972 219.068 35.1823 219.068 35.1823L220.826 35.885C220.826 35.885 229.967 33.3376 229.703 26.8372V26.1344C229.703 26.1344 230.319 25.256 230.582 24.6411C230.758 24.0262 232.252 21.3909 231.549 20.2489C231.549 20.2489 235.065 6.28181 224.166 5.40338C213.091 4.61279 211.421 12.343 210.015 17.1744Z" fill="#FCD1C5"/>
<path d="M229.615 26.9248C229.176 26.5734 228.736 26.3977 228.385 26.4855C227.154 26.7491 227.418 24.1138 227.418 24.1138C227.418 24.1138 227.154 24.553 226.539 27.891C225.924 31.2291 218.98 35.182 218.98 35.182L220.738 35.8848C220.738 35.8848 229.879 33.3373 229.615 26.9248Z" fill="#E2B1A6"/>
<path d="M210.014 11.113C208.96 13.3969 208.432 16.1201 210.63 17.9648C210.63 17.9648 212.476 18.4918 216.079 16.8228C218.452 15.6809 220.914 16.2079 222.232 16.6471C222.847 16.8228 223.199 17.4377 223.199 18.0526L223.111 20.073C223.111 20.6001 223.375 21.0393 223.902 21.3028L225.572 22.0056L225.924 23.9381C226.012 24.4652 226.627 24.8166 227.154 24.6409L227.594 24.4652C227.594 24.4652 227.857 20.1609 231.373 20.3366C231.373 20.3366 234.274 14.0997 231.285 8.38986C228.297 2.68004 220.298 3.11926 218.54 3.73416C216.255 4.61259 216.607 4.43691 215.288 5.2275C213.091 6.72084 211.157 8.65339 210.014 11.113Z" fill="#39335E"/>
<path d="M239.108 54.9468C239.108 54.9468 237.438 67.157 236.735 70.5829L231.373 73.3939L240.866 72.779L239.108 54.9468Z" fill="#17BCB2"/>
<path d="M231.373 20.3367C231.373 20.3367 232.34 18.2284 232.604 15.3296C228.209 18.8433 223.287 18.0527 223.287 18.0527L223.199 20.0731C223.199 20.6002 223.463 21.0394 223.99 21.3029L225.66 22.0057L226.012 23.9382C226.1 24.4653 226.715 24.8167 227.242 24.641L227.682 24.4653C227.594 24.3775 227.857 20.0731 231.373 20.3367Z" fill="#39335E"/>
<path d="M233.747 31.0532C233.747 31.0532 230.934 40.8038 230.319 42.6486L228.033 42.385L228.473 45.4595L216.167 61.6227L229.791 45.9866L229.264 43.2635L231.374 43.4391L233.747 31.0532Z" fill="#1A8C85"/>
<path d="M221.705 83.8475C221.705 83.8475 250.447 82.8812 251.238 82.3541C251.941 81.8271 252.117 74.4482 252.029 70.1439C251.941 67.1572 252.029 55.3862 249.48 47.1289C251.501 54.1564 250.447 78.8404 249.48 80.0702C248.601 81.3 221.177 82.0906 221.177 82.0906C221.529 83.1447 221.705 83.8475 221.705 83.8475Z" fill="#263649"/>
<path d="M165.188 60.8325C165.188 60.8325 165.1 61.5352 163.869 62.238C162.639 62.9407 159.386 64.5219 158.859 64.9611C158.332 65.4003 156.046 67.4207 155.958 67.6842C155.871 67.9478 155.167 70.2317 155.167 70.4074C155.167 70.5831 155.431 71.6372 155.431 71.6372L154.728 75.0631C154.728 75.0631 153.849 76.3807 154.816 76.7321C155.783 77.0835 156.398 76.0294 156.398 75.9415C156.398 75.9415 157.892 75.2388 158.947 74.3603C160.002 73.4819 164.396 69.9682 165.1 70.2317C165.803 70.4074 165.188 71.725 164.836 71.9007C164.484 72.0764 162.199 74.3603 163.166 75.9415C164.133 77.5227 164.748 75.0631 165.451 74.536C166.067 74.009 167.473 72.0764 168.352 71.8129C169.231 71.5494 170.725 68.387 170.901 66.9815C171.077 65.576 172.131 64.6976 172.483 64.1705C172.835 63.7313 171.692 60.2176 171.692 60.2176L167.385 58.8999L165.891 59.8662L165.188 60.8325Z" fill="#FCD1C5"/>
<path d="M247.282 42.2979C246.403 40.8924 245.964 41.9465 244.733 43.0885C243.063 44.6697 241.042 47.1293 239.987 50.2916C238.053 56.0015 238.756 70.1442 239.372 72.1646C239.372 72.1646 221.353 75.1513 220.123 75.0635C218.892 74.9756 221.705 83.8478 221.705 83.8478C221.705 83.8478 250.447 82.8815 251.238 82.3545C251.941 81.8274 252.117 74.4486 252.029 70.1442C251.941 66.5427 252.029 49.7646 247.282 42.2979Z" fill="#334659"/>
<path d="M221.704 83.848C221.704 83.848 250.446 82.8817 251.237 82.3546C251.941 81.8276 252.116 74.4487 252.029 70.1444C251.941 67.1577 252.029 55.3867 249.48 47.1294C251.501 54.1569 250.446 78.8409 249.48 80.0707C248.601 81.3005 221.177 82.0911 221.177 82.0911C221.529 83.1452 221.704 83.848 221.704 83.848Z" fill="#263649"/>
<path d="M255.369 80.6853C255.281 80.0704 254.929 79.4555 254.138 79.0163L253.611 78.7527C251.765 77.6986 248.425 77.7864 246.228 79.0163L230.934 87.8884C229.791 88.5912 229.176 89.3818 229.176 90.1724V92.8077C229.176 93.5104 229.615 94.1253 230.406 94.6524L230.934 94.9159C232.78 95.97 236.12 95.8822 238.317 94.6524L253.611 85.7802C254.754 85.1653 255.369 84.2869 255.369 83.4963V80.6853Z" fill="#9D9BB4"/>
<path d="M109.09 66.7719L98.5248 110.21L95.7837 109.893L102.226 64.1943L109.09 66.7719Z" fill="#EDBF96"/>
<path d="M111.523 68.0446L99.8962 110.367L98.5249 110.21L109.09 66.772L111.523 68.0446Z" fill="#D19865"/>
<path d="M218.225 135.04L207.66 178.477L204.919 178.161L211.362 132.462L218.225 135.04Z" fill="#EDBF96"/>
<path d="M220.659 136.312L209.032 178.635L207.66 178.477L218.226 135.04L220.659 136.312Z" fill="#D19865"/>
<path d="M264.131 108.778L271.092 153.167L272.026 152.2L266.453 106.92L264.131 108.778Z" fill="#EDBF96"/>
<path d="M258.326 110.635L269.704 153.167H271.092L264.131 108.545L258.326 110.635Z" fill="#D19865"/>
<path d="M230.934 92.3688L230.406 92.1052C228.56 91.0511 228.736 89.1186 230.934 87.8887L246.228 79.0166C248.425 77.7868 251.677 77.6111 253.611 78.753L254.138 79.0166C255.984 80.0707 255.808 82.0033 253.611 83.2331L238.317 92.1052C236.12 93.335 232.78 93.5107 230.934 92.3688Z" fill="#CFCCDC"/>
<path opacity="0.5" d="M221.529 143.23L93.1125 69.0899L143.477 40.1016L271.893 114.154L221.529 143.23Z" fill="url(#paint3_linear)"/>
<path d="M93.1125 64.6099V69.0899L221.529 143.23L271.893 114.154V109.674L221.529 138.75L93.1125 64.6099Z" fill="url(#paint4_linear)"/>
<path d="M221.529 138.75L93.1125 64.6098L143.477 35.5337L271.893 109.674L221.529 138.75Z" fill="url(#paint5_linear)"/>
<path d="M221.529 138.31L93.4641 64.4341L93.1125 64.6098L221.529 138.75L271.893 109.673L271.542 109.41L221.529 138.31Z" fill="#E1E1EF"/>
<path opacity="0.3" d="M206.235 84.5504C206.235 84.5504 209.839 85.868 212.564 85.341C215.288 84.9017 228.561 84.6382 228.561 84.6382L226.451 83.4084L221.793 80.1582L210.278 80.9488L205.796 82.53L206.235 84.5504Z" fill="#180D5B"/>
<path d="M220.21 75.5025C220.21 75.4146 220.122 75.4146 220.035 75.4146C219.068 75.4146 213.091 75.2389 210.893 74.4483C208.432 73.5699 205.795 73.7456 205.708 73.9213C205.532 74.097 201.489 75.766 201.225 76.4687C201.049 77.0836 200.61 79.2797 201.137 80.0703C201.664 80.8609 201.928 81.388 201.928 81.388L202.367 81.4758C202.367 81.4758 202.895 82.5299 203.246 82.9692C203.422 83.1448 203.51 83.3205 203.598 83.4962C203.862 84.0233 204.301 84.9896 204.477 84.9896C204.741 84.9896 205.971 85.2531 206.323 85.1652C206.586 85.0774 206.85 84.2868 206.674 83.9354C206.674 83.8476 206.674 83.7597 206.762 83.7597C207.378 83.6719 208.96 83.4962 211.069 83.6719C213.706 83.9354 217.486 82.1786 217.837 82.0029C217.837 82.0029 217.837 82.0029 217.925 82.0029L221.705 81.6515C221.793 81.6515 221.88 81.5637 221.88 81.4758L220.21 75.5025Z" fill="#FCD1C5"/>
<path d="M247.282 42.2979C246.403 40.8924 245.964 41.9465 244.733 43.0885C243.063 44.6697 241.042 47.1293 239.987 50.2916C238.053 56.0015 238.756 70.1442 239.372 72.1646C239.372 72.1646 221.353 75.1513 220.123 75.0635C218.892 74.9756 221.705 83.8478 221.705 83.8478C221.705 83.8478 250.447 82.8815 251.238 82.3545C251.941 81.8274 252.117 74.4486 252.029 70.1442C251.941 66.5427 252.029 49.7646 247.282 42.2979Z" fill="#1BC8BD"/>
<path d="M221.705 83.8475C221.705 83.8475 250.447 82.8812 251.238 82.3541C251.941 81.8271 252.117 74.4482 252.029 70.1439C251.941 67.1572 252.029 55.3862 249.48 47.1289C251.501 54.1564 250.447 78.8404 249.48 80.0702C248.601 81.3 221.177 82.0906 221.177 82.0906C221.529 83.1447 221.705 83.8475 221.705 83.8475Z" fill="#1A8C85"/>
<path opacity="0.3" d="M170.11 69.0901C170.11 69.0901 180.393 61.0964 181.888 60.3058C183.382 59.5152 183.997 58.9003 183.997 58.9003L180.569 56.8799L174.768 59.2517L167.473 66.5427L156.222 74.5364V76.3811C156.222 76.3811 165.539 72.4282 166.594 71.7254C167.473 71.1105 170.11 69.0901 170.11 69.0901Z" fill="#180D5B"/>
<path opacity="0.63" d="M164.045 76.381C164.045 76.381 166.242 74.4485 167.648 73.7457C169.055 73.1308 171.34 71.3739 171.604 70.0563C171.867 68.7386 174.241 65.752 174.241 65.752L170.461 67.948L165.012 71.1104L155.958 76.381C155.958 76.381 156.486 76.9959 157.628 76.6445C158.771 76.2932 160.88 74.8877 161.935 74.7998C162.902 74.712 164.572 74.3606 164.572 74.3606L164.045 76.381Z" fill="#2D2D2D"/>
<path d="M165.187 60.833C165.187 60.833 165.099 61.5357 163.869 62.2384C162.638 62.9412 159.386 64.5224 158.859 64.9616C158.331 65.4008 156.046 67.4212 155.958 67.6847C155.87 67.9483 155.167 70.2322 155.167 70.4079C155.167 70.5836 155.431 71.6377 155.431 71.6377L154.728 75.0636C154.728 75.0636 153.849 76.3812 154.816 76.7326C155.782 77.084 156.398 76.0299 156.398 75.942C156.398 75.942 157.892 75.2393 158.947 74.3608C160.001 73.4824 164.396 69.9687 165.099 70.2322C165.803 70.4079 165.187 71.7255 164.836 71.9012C164.484 72.0769 162.199 74.3608 163.166 75.942C164.133 77.5232 164.748 75.0636 165.451 74.5365C166.066 74.0095 167.473 72.0769 168.352 71.8134C169.231 71.5499 170.725 68.3875 170.901 66.982C171.076 65.5765 172.131 64.6981 172.483 64.171C172.834 63.7318 171.692 60.218 171.692 60.218L167.385 58.9004L165.89 59.8667L165.187 60.833Z" fill="#FCD1C5"/>
<path d="M204.213 37.115C204.213 37.115 204.038 30.7024 205.18 25.6953C204.917 25.9588 204.565 26.1345 204.301 26.4859C202.719 28.0671 200.61 30.1753 198.5 31.2295C194.633 33.3377 182.943 39.7503 182.943 39.7503L180.745 41.4193C173.889 46.7777 166.242 58.4609 165.188 60.7448C165.715 60.0421 167.121 58.9001 169.758 60.2178C173.362 62.1503 171.692 65.0492 171.692 65.0492C176.966 61.2719 189.535 47.3048 189.535 47.3048C192.611 46.6899 201.928 43.1762 203.159 42.7369C203.774 40.9801 204.213 39.0475 204.213 37.115Z" fill="#1BC8BD"/>
<path d="M138.819 81.0369L141.28 82.3545L166.33 67.9482C166.77 67.6846 167.473 67.7725 168 68.036L211.157 92.9836C211.597 92.72 213.442 91.8416 213.442 91.8416L212.563 94.2134C212.563 94.3012 212.476 94.389 212.3 94.4769L185.931 109.674C185.491 109.937 184.788 109.849 184.261 109.586L140.049 84.1114C139.873 84.0235 139.698 83.8478 139.698 83.76L138.819 81.0369Z" fill="#CDCADD"/>
<path d="M139.258 81.388L184.525 107.478C185.052 107.741 185.755 107.829 186.195 107.565L213.179 92.0171C213.618 91.7536 213.53 91.3143 213.091 91.0508L167.824 64.9613C167.297 64.6978 166.594 64.6099 166.154 64.8735L139.17 80.4218C138.643 80.6853 138.731 81.1245 139.258 81.388Z" fill="#E1E1EF"/>
<path d="M139.258 81.1248L184.525 107.214C185.052 107.478 185.755 107.566 186.195 107.302L213.179 91.7538C213.354 91.666 213.442 91.5781 213.442 91.4903C213.53 91.666 213.442 91.9295 213.179 92.0174L186.195 107.566C185.755 107.829 185.052 107.741 184.525 107.478L139.258 81.3883C138.906 81.2126 138.819 80.9491 138.906 80.6855C138.906 80.8612 138.994 81.0369 139.258 81.1248Z" fill="white"/>
<path d="M197.973 95.5308L160.353 73.8334C160.089 73.6577 159.826 73.6577 159.562 73.8334L146.202 81.5636C146.026 81.6515 146.026 81.915 146.202 82.0907L183.821 103.788C184.085 103.964 184.349 103.964 184.613 103.788L198.061 96.0578C198.149 95.97 198.149 95.7064 197.973 95.5308Z" fill="#9D9BB4"/>
<path d="M197.973 96.0578L197.797 96.1457L160.353 74.5362C160.09 74.3605 159.826 74.3605 159.562 74.5362L146.29 82.1785L146.114 82.0907C145.938 82.0029 145.938 81.7393 146.114 81.5636L159.474 73.8334C159.738 73.6577 160.002 73.6577 160.265 73.8334L197.885 95.5308C198.149 95.7064 198.149 95.97 197.973 96.0578Z" fill="#9198DB"/>
<path d="M158.508 75.854L193.139 95.7945L194.897 95.0917L160.002 74.9756L158.508 75.854Z" fill="#24126A"/>
<path d="M154.992 77.8745L185.58 95.5311L187.074 94.7405L156.398 76.9961L154.992 77.8745Z" fill="#24126A"/>
<path d="M152.618 79.192L188.744 100.011L190.15 99.2202L154.113 78.4014L152.618 79.192Z" fill="#24126A"/>
<path d="M150.333 80.5977L186.371 101.417L187.865 100.538L151.74 79.7192L150.333 80.5977Z" fill="#24126A"/>
<path d="M147.96 81.9151L184.085 102.734L185.492 101.855L149.454 81.0366L147.96 81.9151Z" fill="#24126A"/>
<path d="M193.139 95.7945L194.633 96.6729L196.039 95.7945L194.633 95.0039L193.139 95.7945Z" fill="#24126A"/>
<path d="M183.822 94.565L191.029 98.6936L192.523 97.903L185.228 93.6865L183.822 94.565Z" fill="#24126A"/>
<path d="M184.525 85.8687L174.417 79.9831C173.977 79.7196 173.977 79.3682 174.417 79.1925L181.36 75.1517C181.8 74.8882 182.415 74.8882 182.767 75.1517L192.875 81.0373C193.314 81.3008 193.314 81.6522 192.875 81.8279L185.931 85.8687C185.579 86.0443 184.964 86.0443 184.525 85.8687Z" fill="#CFCCDC"/>
<path d="M192.962 81.3882L182.854 75.5026C182.415 75.2391 181.8 75.2391 181.448 75.5026L174.504 79.5434C174.416 79.6313 174.328 79.7191 174.24 79.807C174.153 79.6313 174.24 79.3678 174.504 79.1921L181.448 75.1513C181.887 74.8877 182.503 74.8877 182.854 75.1513L192.962 81.0368C193.226 81.2125 193.314 81.3882 193.226 81.6517C193.138 81.476 193.05 81.3882 192.962 81.3882Z" fill="#9198DB"/>
<path d="M138.907 80.334L144.62 46.4264L144.18 46.2507L144.884 45.8115C145.059 45.7236 145.235 45.7236 145.411 45.8115L191.117 72.1645C191.468 72.3402 191.82 72.9551 191.732 73.3065L185.931 107.478C185.931 107.653 185.843 107.741 185.667 107.829L184.964 108.18L184.876 107.565L139.434 81.3002C139.17 81.3002 138.819 80.6853 138.907 80.334Z" fill="#CFCCDC"/>
<path d="M190.853 73.2186L191.644 72.8672C191.732 73.0429 191.732 73.2186 191.732 73.3942L185.931 107.565C185.931 107.741 185.843 107.829 185.667 107.917L184.964 108.268L184.876 107.653L182.591 106.336L190.853 73.2186Z" fill="#9D9BB4"/>
<path d="M138.819 81.9154L184.525 108.268C184.876 108.444 185.14 108.356 185.228 108.005L191.029 73.8338C191.117 73.4824 190.853 72.8675 190.414 72.6918L144.708 46.3388C144.356 46.1631 144.092 46.251 144.004 46.6024L138.203 80.7734C138.115 81.1248 138.379 81.6519 138.819 81.9154Z" fill="#F9F8FF"/>
<path d="M115.299 174.239C115.299 174.239 118.398 175.002 121.391 175.122C124.391 175.242 132.541 176.875 132.34 179.926C132.14 182.99 127.878 187.386 122.54 188.035C117.196 188.684 110.329 187.145 106.841 187.239C103.354 187.332 100.969 183.773 102.332 180.354C103.688 176.969 115.299 174.239 115.299 174.239Z" fill="#160A5B"/>
<path d="M97.3019 166.05C97.3019 166.05 96.1596 167.89 96.7207 169.02C97.2819 170.151 98.7783 172.961 103.655 170.245C108.512 167.535 117.891 163.661 117.891 163.661C117.891 163.661 123.268 160.798 122.974 157.412C122.68 154.054 117.73 154.555 117.73 154.555L97.3019 166.05Z" fill="#160A5B"/>
<path d="M128.987 118.098C128.987 118.098 126.916 140.057 122.507 148.38C118.031 156.837 116.795 172.332 115.86 175.29C114.918 178.267 112.019 182.536 107.449 183.445C102.873 184.355 102.125 181.238 102.352 179.364C102.579 177.498 103.849 174.48 103.862 172.46C103.875 170.446 103.408 169.502 103.341 168.572C103.341 168.572 98.1034 170.118 97.3085 166.05C97.3085 166.05 97.736 164.866 97.8028 164.264C97.8696 163.661 97.3553 148.955 97.2283 147.176C97.1014 145.403 98.0567 135.788 99.513 131.051C100.956 126.361 100.475 116.372 100.475 116.372L115.385 114.292L128.987 118.098Z" fill="#24126A"/>
<path d="M99.5063 131.058C100.949 126.368 100.468 116.379 100.468 116.379L101.771 116.198C101.831 117.583 102.138 126.348 100.816 130.657C99.366 135.387 98.4241 144.995 98.551 146.768C98.678 148.547 99.2191 163.233 99.1456 163.842C99.0788 164.444 98.6513 165.628 98.6513 165.628C99.4529 169.69 104.684 168.144 104.684 168.144C104.757 169.067 105.225 170.011 105.211 172.025C105.198 174.045 103.935 177.063 103.708 178.923C103.488 180.796 104.236 183.907 108.812 182.997C108.952 182.97 109.079 182.91 109.22 182.877C108.652 183.118 108.064 183.318 107.436 183.439C102.86 184.349 102.112 181.231 102.339 179.357C102.566 177.491 103.835 174.473 103.849 172.453C103.862 170.439 103.394 169.308 103.321 168.385C103.321 168.385 98.0901 170.111 97.2885 166.05C97.2885 166.05 97.716 164.866 97.7828 164.263C97.8496 163.661 97.3352 148.955 97.2083 147.176C97.0947 145.403 98.0567 135.795 99.5063 131.058Z" fill="#24126A"/>
<path d="M104.884 117.965C104.884 117.965 104.944 121.39 106.374 124.274C106.374 124.274 106.347 135.942 107.543 141.857C107.543 141.857 105.612 153.726 104.396 157.466C103.174 161.233 103.334 168.572 103.334 168.572C103.334 168.572 102.74 168.793 101.885 168.827C101.03 168.86 100.969 154.321 102.279 151.752C103.581 149.196 104.577 137.869 104.082 134.417C103.595 130.985 103.762 121.169 103.114 119.43C102.466 117.704 103.929 116.787 103.929 116.787L104.884 117.965Z" fill="#160A5B"/>
<path d="M117.436 38.7544C117.436 38.7544 121.765 41.8923 121.545 47.3117L118.325 46.6158C118.331 46.6158 119.287 40.6211 117.436 38.7544Z" fill="#160A5B"/>
<path d="M115.753 122.748C105.873 123.049 100.542 118.667 100.542 118.667C100.522 117.282 100.475 116.372 100.475 116.372L115.386 114.292L128.993 118.092C128.993 118.092 128.586 122.421 127.744 127.967C125.319 128.228 122.941 122.267 122.941 122.267L116.161 122.695C116.154 122.702 125.627 122.447 115.753 122.748Z" fill="#160A5B"/>
<path d="M127.076 118.42C127.076 118.42 105.592 127.204 95.2043 110.545C94.9104 110.07 94.7701 109.488 94.7901 108.906L94.9237 105.025C94.9438 104.53 94.8703 104.042 94.7166 103.587C94.3826 102.603 94.3091 101.526 94.5029 100.482C95.3045 96.14 97.4823 84.3445 97.9967 81.0728C98.6179 77.0785 96.507 61.0947 92.9397 54.1766C89.4258 47.3522 98.4509 32.0107 98.4509 32.0107C98.4509 32.0107 100.662 28.4312 104.998 29.6556C104.998 29.6556 100.863 32.5526 103.127 35.6102C105.405 38.6879 112.192 41.1433 112.192 41.1433C112.192 41.1433 124.751 47.6666 129.047 55.6084C129.047 55.6084 130.523 59.7365 130.657 64.9618C130.79 70.2407 130.203 82.9194 130.423 84.679C130.643 86.4453 131.311 98.5218 131.238 99.0905C131.178 99.6525 127.076 118.42 127.076 118.42Z" fill="#17BCB2"/>
<path d="M102.98 31.8697C102.64 30.9999 102.74 30.1636 103.06 29.4343C103.655 29.4142 104.29 29.4544 105.004 29.6551C104.998 29.6551 103.722 30.5516 102.98 31.8697Z" fill="#17BCB2"/>
<path d="M120.57 120.219C120.57 120.219 107.917 86.0036 108.518 73.5791C109.106 61.4691 126.989 98.1135 126.989 98.1135L127.083 118.419C127.076 118.419 123.021 119.918 120.57 120.219Z" fill="#13978F"/>
<path d="M95.0709 100.234C95.2245 100.689 95.298 101.171 95.278 101.666L95.151 105.526C95.131 106.108 95.2713 106.684 95.5652 107.152C105.92 123.698 127.33 114.973 127.33 114.973C127.33 114.973 130.276 101.512 131.198 97.1562C131.245 98.2201 131.265 98.9627 131.252 99.0898C131.178 99.6518 127.083 118.419 127.083 118.419C127.083 118.419 105.599 127.204 95.2111 110.544C94.9172 110.069 94.7769 109.487 94.797 108.905L94.9306 105.024C94.9506 104.529 94.8771 104.041 94.7235 103.586C94.3895 102.602 94.316 101.525 94.5097 100.481C94.5966 100.027 94.6968 99.4779 94.8036 98.8824C94.8437 99.3441 94.9239 99.799 95.0709 100.234Z" fill="#17BCB2"/>
<path d="M93.2871 51.1454C96.841 58.0234 98.952 73.9002 98.3374 77.8677C98.2773 78.2357 98.1971 78.7174 98.1036 79.2727C98.1236 73.5456 96.1062 60.3183 92.9464 54.1763C91.9577 52.2628 91.9844 49.6601 92.4988 46.917C92.4587 48.5027 92.6725 49.9612 93.2871 51.1454Z" fill="#17BCB2"/>
<path d="M127.397 79.7948C126.936 77.0049 126.669 74.2015 126.642 71.4048C126.588 66.5408 125.219 58.4652 116.428 59.8703C104.002 61.8507 109.32 79.2864 110.676 82.3373C112.045 85.4016 117.483 99.2109 117.77 100C118.038 100.736 126.635 117.978 129.701 122.113C129.982 122.494 130.476 122.548 130.824 122.253C132.066 121.19 134.865 118.66 135.233 117.061C135.7 115.007 133.91 107.541 133.91 107.541C133.91 107.541 129.067 88.9007 128.659 88.0376C128.352 87.382 128.138 84.3177 127.397 79.7948Z" fill="#17BCB2"/>
<path d="M117.223 39.1493C117.223 39.1493 118.211 36.9012 120.489 36.6671C122.767 36.4329 124.063 35.7973 124.29 34.9543C124.518 34.1112 124.531 33.0876 125.085 31.8298C125.633 30.5719 126.101 27.4876 126.094 27.414C126.087 27.3404 127.818 26.8185 127.904 26.0558C127.991 25.293 127.089 22.57 127.19 22.3559C127.29 22.1485 128.218 20.4758 128.092 19.1778C127.965 17.8799 127.798 16.0065 127.11 14.4141C126.421 12.8285 121.592 3.17394 109.019 8.14505C96.3132 13.1697 105.98 23.8479 104.717 30.7726C104.717 30.7726 103.588 32.2312 105.659 34.7067C107.743 37.1956 113.756 37.7375 117.223 39.1493Z" fill="#FCD1C5"/>
<path d="M105.659 34.7066C103.588 32.2311 104.717 30.7726 104.717 30.7726C104.891 29.8091 104.851 28.7721 104.69 27.6882L109.667 28.6383C109.667 28.6383 117.009 22.0949 116.488 25.6007C115.96 29.1334 117.744 29.7422 117.744 29.7422L116.241 31.6624C115.853 32.1575 116.08 32.7329 116.401 33.2816C118.499 36.8945 123.589 35.8039 123.596 35.8106C122.961 36.2254 121.919 36.5265 120.489 36.6737C118.211 36.9079 117.223 39.1559 117.223 39.1559C113.756 37.7375 107.743 37.1955 105.659 34.7066Z" fill="#E2B1A6"/>
<path d="M127.644 10.741C127.644 10.741 128.526 13.3236 127.103 14.4075C125.68 15.4981 124.391 16.5217 124.391 16.5217L124.397 19.8001C124.397 20.2751 124.264 20.7368 124.01 21.1315L122.22 23.8948C121.872 24.43 121.685 25.0589 121.685 25.7012L121.678 27.0393C121.678 27.4341 121.385 27.7619 121.004 27.8021L120.536 27.8556C120.122 27.9024 119.748 27.5946 119.701 27.1665L119.507 25.3065C119.507 25.3065 118.565 23.8078 116.501 25.5942L114.637 26.3636C114.116 26.5777 113.709 26.9992 113.515 27.5344C112.994 28.9662 111.885 31.7963 111.05 32.2647C109.928 32.9003 105.579 30.6456 104.998 29.6553C104.416 28.6585 102.953 22.0214 102.045 18.8567C101.143 15.7122 101.671 7.93768 111.037 5.95058C120.356 3.97685 126.361 7.93099 127.644 10.741Z" fill="#39335E"/>
<path d="M104.998 29.6551C104.416 28.6582 102.953 22.0211 102.045 18.8565C102.045 18.8565 105.666 21.2718 110.369 21.9877C115.078 22.7036 124.397 17.3979 124.397 17.3979L124.404 19.7999C124.404 20.2749 124.27 20.7366 124.017 21.1313L122.226 23.8945C121.879 24.4298 121.692 25.0587 121.692 25.701L121.685 27.0391C121.685 27.4338 121.391 27.7617 121.01 27.8018L120.543 27.8553C120.129 27.9022 119.754 27.5944 119.708 27.1662L119.514 25.3062C119.514 25.3062 118.572 23.8075 116.508 25.5939L113.822 26.6979C113.822 26.6979 112.192 31.6288 111.07 32.2578C109.928 32.9001 105.579 30.652 104.998 29.6551Z" fill="#39335E"/>
<path d="M104.811 29.9697C104.811 29.9697 101.17 32.2178 102.987 35.4025C104.817 38.614 118.011 44.3077 118.666 45.1507C118.666 45.1507 119.187 40.3736 117.436 38.7545C117.436 38.7545 107.329 36.7808 105.759 34.1982C104.203 31.629 104.811 29.9697 104.811 29.9697Z" fill="#F0F6FF"/>
<path d="M104.811 29.9697C104.811 29.9697 104.196 31.629 105.759 34.1982C106.948 36.1518 113.021 37.7576 115.907 38.4199C115.907 38.4199 114.831 39.0288 113.041 42.0931C108.979 39.9855 104.056 37.2692 102.987 35.3958C101.17 32.2178 104.811 29.9697 104.811 29.9697Z" fill="#C4CCD6"/>
<path d="M102.352 40.1665C102.352 40.1665 108.231 43.5386 111.097 45.064C113.969 46.5962 117.102 48.6234 117.102 48.6234L118.204 47.5262L119.52 50.4299C119.52 50.4299 124.036 53.1463 126.147 55.4077C128.272 57.6825 129.868 60.6531 130.095 61.3289C130.095 61.3289 124.457 53.9224 120.015 51.7212L118.826 51.119L118.151 48.8174L117.062 49.9749C117.062 49.9749 104.142 42.1737 102.352 40.1665Z" fill="#1A8C85"/>
<path d="M117.51 140.069C117.697 139.541 117.971 139.072 118.298 138.798L142.481 118.465C143.116 117.93 143.73 118.338 143.857 119.382L146.683 143.06C146.816 144.15 146.389 145.495 145.741 146.057L125.433 163.647L126.134 170.491L120.062 167.695V167.681C119.788 167.507 119.587 167.119 119.534 166.524L117.276 141.782C117.229 141.22 117.323 140.611 117.51 140.069Z" fill="#453C9E"/>
<path d="M149.074 120.795L143.356 118.319L143.176 118.239C142.969 118.192 142.728 118.259 142.488 118.46L118.305 138.792C117.978 139.067 117.704 139.528 117.517 140.057L118.378 140.478L123.302 142.86L144.498 124.715L149.074 120.795Z" fill="#453C9E"/>
<path d="M151.7 148.708L126.969 170.285C126.288 170.874 125.653 170.426 125.54 169.275L123.135 144.406C123.028 143.315 123.482 141.977 124.143 141.415L148.273 120.976C148.907 120.44 149.529 120.848 149.656 121.892L152.628 145.684C152.762 146.788 152.348 148.139 151.7 148.708Z" fill="#24126A"/>
<path d="M122.467 167.823L120.135 143.021C120.035 141.93 120.489 140.599 121.151 140.037L145.307 119.651C145.507 119.483 145.701 119.41 145.881 119.416C145.654 119.323 145.38 119.376 145.106 119.604L120.944 139.983C120.282 140.545 119.828 141.877 119.928 142.967L122.253 167.769C122.326 168.559 122.634 169.047 123.055 169.061C122.741 168.927 122.527 168.472 122.467 167.823Z" fill="#160A5B"/>
<path d="M131.318 131.299L130.055 130.67C129.768 130.529 129.501 130.476 129.267 130.529L129.167 130.549C129.04 130.576 128.973 130.71 128.993 130.904L129.02 131.131L132.581 132.911L132.554 132.677C132.534 132.483 132.427 132.262 132.28 132.095L132.16 131.961C131.899 131.68 131.605 131.446 131.318 131.299Z" fill="#160A5B"/>
<path d="M130.87 134.363L132.581 132.918L129.047 130.629L127.363 132.041L130.87 134.363Z" fill="#160A5B"/>
<path d="M129.615 132.744L128.352 132.108C128.065 131.968 127.791 131.914 127.564 131.968L127.464 131.988C127.337 132.014 127.27 132.155 127.29 132.349L127.317 132.577L130.877 134.363L130.85 134.129C130.83 133.935 130.724 133.714 130.583 133.547L130.463 133.413C130.189 133.118 129.902 132.884 129.615 132.744Z" fill="url(#paint6_linear)"/>
<path d="M128.853 133.353L128.746 132.309L128.853 132.363L128.967 133.406L128.853 133.353Z" fill="#722318"/>
<path d="M128.746 132.309L130.503 130.891L130.597 130.937L128.853 132.363L128.746 132.309Z" fill="#722318"/>
<path d="M139 124.829L137.738 124.207C137.45 124.066 137.183 124.02 136.956 124.066L136.856 124.086C136.729 124.113 136.669 124.247 136.689 124.441L136.716 124.669L140.27 126.428L140.243 126.201C140.223 126.007 140.116 125.793 139.969 125.632L139.849 125.498C139.581 125.204 139.287 124.976 139 124.829Z" fill="#160A5B"/>
<path d="M138.58 127.86L140.263 126.428L136.743 124.167L135.079 125.565L138.58 127.86Z" fill="#160A5B"/>
<path d="M137.317 126.254L136.054 125.625C135.767 125.485 135.5 125.438 135.266 125.485L135.166 125.505C135.039 125.532 134.979 125.666 134.999 125.86L135.026 126.087L138.58 127.853L138.553 127.626C138.533 127.432 138.426 127.218 138.279 127.05L138.159 126.917C137.891 126.629 137.604 126.395 137.317 126.254Z" fill="url(#paint7_linear)"/>
<path d="M136.569 126.857L136.455 125.826L136.562 125.88L136.676 126.91L136.569 126.857Z" fill="#722318"/>
<path d="M136.455 125.826L138.186 124.428L138.279 124.475L136.562 125.88L136.455 125.826Z" fill="#722318"/>
<path d="M128.065 127.351L128.519 131.767L129.662 130.804L129.214 126.515C129.147 125.893 129.454 125.083 129.895 124.709L134.819 120.587C135.26 120.219 135.667 120.42 135.741 121.042L136.215 125.284L137.344 124.334L136.856 119.978C136.703 118.613 135.794 118.172 134.825 118.981L129.575 123.37C128.606 124.187 127.925 125.966 128.065 127.351Z" fill="#453C9E"/>
<path d="M136.549 120.293L134.518 120.085L128.653 125.565L128.399 128.944L128.519 131.767L129.835 132.423L129.875 128.904L129.949 126.495L131.165 124.755C131.165 124.755 133.362 122.976 133.389 122.929C133.409 122.875 136.549 120.293 136.549 120.293Z" fill="#453C9E"/>
<path d="M137.531 125.933L136.222 125.284L135.875 122.159L137.124 122.26L137.491 122.32L137.531 125.933Z" fill="#453C9E"/>
<path d="M137.484 119.329L136.074 118.64C136.074 118.64 136.442 119.41 136.449 119.403C136.455 119.396 136.91 119.563 136.923 119.563C136.93 119.557 137.484 119.329 137.484 119.329Z" fill="#453C9E"/>
<path d="M129.374 128L129.835 132.422L130.978 131.459L130.523 127.163C130.457 126.535 130.764 125.732 131.205 125.357L136.128 121.229C136.569 120.861 136.977 121.062 137.05 121.684L137.531 125.932L138.66 124.982L138.166 120.627C138.012 119.262 137.104 118.814 136.135 119.623L130.891 124.019C129.909 124.835 129.234 126.622 129.374 128Z" fill="#160A5B"/>
<path d="M134.879 116.874C134.879 116.874 135.714 121.189 135.48 122.273C135.246 123.357 133.182 125.451 131.939 125.833C130.697 126.214 131.205 124.735 130.924 123.799C130.643 122.869 130.69 120.842 130.69 120.842L134.879 116.874Z" fill="#FCD1C5"/>
<path d="M130.69 120.842L134.879 116.874C134.879 116.874 135.052 117.757 135.213 118.828C135.213 118.834 133.656 122.039 130.817 123.31C130.657 122.293 130.69 120.842 130.69 120.842Z" fill="#E2B1A6"/>
<path d="M135.193 117.195C135.193 117.195 133.71 121.845 129.989 122.287L131.251 117.195C131.251 117.195 134.398 116.305 134.491 116.292C134.585 116.285 135.193 117.195 135.193 117.195Z" fill="#17BCB2"/>
<path d="M110.977 62.6064C107.53 73.1241 116.167 89.4692 117.41 94.2463C118.666 99.0702 131.799 121.383 131.799 121.39C131.792 121.397 131.792 121.397 131.786 121.403C131.859 121.537 131.913 121.624 131.913 121.624C131.639 121.838 131.311 122.072 131.058 122.206C130.71 122.34 130.864 122.327 130.47 122.427C130.189 122.481 129.909 122.374 129.715 122.113C126.649 117.978 118.051 100.736 117.784 100C117.497 99.2174 112.059 85.4013 110.689 82.337C109.58 79.8816 105.933 68.1262 110.977 62.6064Z" fill="#17BCB2"/>
<defs>
<linearGradient id="paint0_linear" x1="222.805" y1="118.364" x2="168.048" y2="131.736" gradientUnits="userSpaceOnUse">
<stop stop-color="#5761D7"/>
<stop offset="0.1779" stop-color="#5C66D9"/>
<stop offset="0.3876" stop-color="#6A73DF"/>
<stop offset="0.6134" stop-color="#8289E8"/>
<stop offset="0.849" stop-color="#A3A7F5"/>
<stop offset="1" stop-color="#BCBEFF"/>
</linearGradient>
<linearGradient id="paint1_linear" x1="223.213" y1="113.479" x2="283.836" y2="113.479" gradientUnits="userSpaceOnUse">
<stop stop-color="#5761D7"/>
<stop offset="0.1779" stop-color="#5C66D9"/>
<stop offset="0.3876" stop-color="#6A73DF"/>
<stop offset="0.6134" stop-color="#8289E8"/>
<stop offset="0.849" stop-color="#A3A7F5"/>
<stop offset="1" stop-color="#BCBEFF"/>
</linearGradient>
<linearGradient id="paint2_linear" x1="216.379" y1="112.174" x2="202.217" y2="98.4769" gradientUnits="userSpaceOnUse">
<stop stop-color="#5761D7"/>
<stop offset="0.1779" stop-color="#5C66D9"/>
<stop offset="0.3876" stop-color="#6A73DF"/>
<stop offset="0.6134" stop-color="#8289E8"/>
<stop offset="0.849" stop-color="#A3A7F5"/>
<stop offset="1" stop-color="#BCBEFF"/>
</linearGradient>
<linearGradient id="paint3_linear" x1="93.0853" y1="91.6403" x2="271.91" y2="91.6403" gradientUnits="userSpaceOnUse">
<stop stop-color="#42E8E0"/>
<stop offset="0.1507" stop-color="#43E3E0"/>
<stop offset="0.3285" stop-color="#45D5DF"/>
<stop offset="0.5199" stop-color="#49BDDD"/>
<stop offset="0.7209" stop-color="#4E9CDB"/>
<stop offset="0.9274" stop-color="#5472D8"/>
<stop offset="1" stop-color="#5761D7"/>
</linearGradient>
<linearGradient id="paint4_linear" x1="275.903" y1="106.674" x2="-35.9161" y2="97.386" gradientUnits="userSpaceOnUse">
<stop stop-color="#A6A6E7"/>
<stop offset="1" stop-color="#EEEFFF"/>
</linearGradient>
<linearGradient id="paint5_linear" x1="230.477" y1="138.192" x2="158.869" y2="61.4856" gradientUnits="userSpaceOnUse">
<stop stop-color="#E8EDFE"/>
<stop offset="1" stop-color="#EEF4FF"/>
</linearGradient>
<linearGradient id="paint6_linear" x1="130.965" y1="133.3" x2="127.22" y2="132.973" gradientUnits="userSpaceOnUse">
<stop stop-color="#5761D7"/>
<stop offset="0.0726" stop-color="#5472D8"/>
<stop offset="0.2791" stop-color="#4E9CDB"/>
<stop offset="0.4801" stop-color="#49BDDD"/>
<stop offset="0.6715" stop-color="#45D5DF"/>
<stop offset="0.8493" stop-color="#43E3E0"/>
<stop offset="1" stop-color="#42E8E0"/>
</linearGradient>
<linearGradient id="paint7_linear" x1="138.671" y1="126.808" x2="134.935" y2="126.481" gradientUnits="userSpaceOnUse">
<stop stop-color="#5761D7"/>
<stop offset="0.0726" stop-color="#5472D8"/>
<stop offset="0.2791" stop-color="#4E9CDB"/>
<stop offset="0.4801" stop-color="#49BDDD"/>
<stop offset="0.6715" stop-color="#45D5DF"/>
<stop offset="0.8493" stop-color="#43E3E0"/>
<stop offset="1" stop-color="#42E8E0"/>
</linearGradient>
</defs>
</svg>
