<svg width="660" height="543" viewBox="0 0 660 543" fill="none" xmlns="http://www.w3.org/2000/svg">
<path d="M9.17855 322.197L50.3619 297.239L51.3246 296.641L120.725 254.552L121.679 253.954L181.787 217.518C184.546 215.836 187.711 214.939 190.942 214.925C194.173 214.911 197.347 215.779 200.12 217.437L264.913 255.924L265.897 256.522L322.211 289.965C324.947 291.595 328.07 292.459 331.254 292.468C334.438 292.477 337.566 291.63 340.311 290.016L346.679 286.294L347.313 285.92L399.684 255.248L399.821 255.168L400.667 254.674L461.487 219.061C464.24 217.442 467.379 216.594 470.572 216.609C473.766 216.623 476.897 217.498 479.635 219.142L539.13 254.719L540.105 255.293L610.935 297.664L611.909 298.262L650.668 321.438C662.878 328.739 662.866 346.985 650.647 354.268L608.845 379.157L607.882 379.755L539.866 420.32L538.903 420.894L469.748 462.134L468.785 462.708L398.826 504.442L397.851 505.04L339.396 539.906C336.647 541.554 333.502 542.427 330.297 542.431C327.091 542.434 323.945 541.569 321.192 539.927L262.294 505.025L261.311 504.427L190.191 462.239L189.217 461.665L120.752 421.07L119.768 420.472L54.2964 381.654L53.3128 381.056L9.33402 354.986C-2.86404 347.765 -2.95074 329.549 9.17855 322.197Z" fill="#F9F8FF"/>
<path opacity="0.3" d="M399.423 255.087L399.687 254.926L399.812 255.159L400.661 254.663L469.541 295.864L470.507 296.438L541.345 338.808L542.317 339.394L608.832 379.172L607.87 379.758L541.345 339.968L540.371 339.385L469.532 297.015L468.567 296.438L399.95 255.401L399.678 255.24L399.423 255.087Z" fill="#908ABC"/>
<path opacity="0.3" d="M318.528 289.095L319.015 288.228L331.126 295.469L332.11 296.055L400.27 336.832L401.244 337.406L472.074 379.776L473.045 380.362L539.854 420.323L538.891 420.897L472.074 380.936L471.099 380.353L400.27 337.983H400.261L399.298 337.406L331.135 296.641L330.152 296.046L318.528 289.095Z" fill="#908ABC"/>
<path opacity="0.3" d="M120.725 254.552L121.679 253.966L194.541 297.547L195.516 298.133L260.716 337.125L261.69 337.711L329.862 378.476L330.825 379.062H330.834L401.663 421.423L402.638 422.006L469.736 462.137L468.773 462.711H468.764L401.663 422.58L400.691 421.997L329.85 379.636L328.887 379.05L260.716 338.285L259.744 337.699L194.541 298.707L193.57 298.124L120.725 254.552Z" fill="#908ABC"/>
<path opacity="0.3" d="M50.3616 297.224L51.3243 296.641L123.293 339.675L124.276 340.261L189.47 379.253L190.442 379.839H190.451L258.614 420.616L259.588 421.19L330.415 463.56L331.398 464.146L398.793 504.448L397.818 505.034L330.415 464.72L329.434 464.134L258.605 421.776L257.63 421.19L189.47 380.422L188.487 379.839L123.293 340.847L122.309 340.261L50.3616 297.224Z" fill="#908ABC"/>
<path opacity="0.3" d="M261.31 504.427L329.434 464.134L330.415 463.56L400.691 421.997L401.663 421.423L471.099 380.353L472.074 379.776L540.371 339.385L541.345 338.808L610.916 297.658L611.891 298.244L542.317 339.394L541.345 339.968L473.045 380.362L472.074 380.936L402.637 422.006L401.663 422.58L331.398 464.146L330.415 464.72L262.294 505.013L261.31 504.427Z" fill="#908ABC"/>
<path opacity="0.3" d="M189.208 461.665L257.63 421.19L258.614 420.616L328.887 379.05L329.862 378.476L399.298 337.406L400.27 336.832L468.567 296.438L469.542 295.864L539.115 254.713L540.087 255.287L470.507 296.438L469.533 297.015L401.244 337.406L400.27 337.983H400.261L330.834 379.062H330.825L329.85 379.636L259.589 421.19L258.605 421.776L190.191 462.239H190.179L189.208 461.665Z" fill="#908ABC"/>
<path opacity="0.3" d="M119.771 420.484L188.486 379.839L189.47 379.253L259.743 337.699L260.715 337.125L330.151 296.046L331.126 295.469L346.676 286.282L347.306 285.908L399.423 255.087L399.686 254.926L399.812 255.159L399.949 255.401L400.174 255.802L332.11 296.055L331.135 296.641L261.69 337.711L260.715 338.285L190.451 379.839H190.442L189.47 380.422L120.751 421.067L119.771 420.484Z" fill="#908ABC"/>
<path opacity="0.3" d="M53.3129 381.068L122.31 340.261L123.293 339.675L193.57 298.124L194.541 297.547L264.913 255.924L265.897 256.51L195.516 298.133L194.541 298.707L124.277 340.261L123.293 340.847L54.2965 381.654L53.3129 381.068Z" fill="#908ABC"/>
<path opacity="0.45" d="M470.045 433.148L345.108 504.838C341.418 506.958 337.226 508.08 332.956 508.089C328.685 508.099 324.488 506.996 320.788 504.892L101.552 369.048C85.3562 359.831 92.8127 352.005 109.048 342.858L210.085 285.94C213.724 283.892 217.839 282.809 222.028 282.796C226.218 282.783 230.34 283.84 233.991 285.866L452.606 408.168C468.921 417.221 486.229 423.849 470.045 433.148Z" fill="#E1E1EF"/>
<path d="M218.829 123.953L242.815 137.671C250.029 141.768 256.341 140.165 258.686 133.929L305.937 6.19418C311.347 -8.41431 333.35 4.76897 338.039 25.4346L367.256 154.061C369.42 163.503 375.912 172.767 383.487 177.042L390.521 180.962C397.374 184.881 403.325 183.634 406.031 178.111L415.589 157.98C421.541 145.509 441.559 157.267 446.97 176.508C449.495 185.415 455.807 193.967 462.84 197.886L468.972 201.271C476.366 205.547 482.859 203.765 485.023 196.995L493.86 170.272C498.73 155.13 520.913 167.778 525.962 188.444L555.179 307.45C557.523 316.892 564.748 323.945 572.323 328.043L605.316 348.781L218.829 123.953Z" fill="url(#paint0_linear)"/>
<path d="M193.377 137.485L217.363 151.24C224.577 155.348 230.89 153.741 233.234 147.489L280.485 19.4081C285.896 4.7601 307.898 17.979 312.588 38.7005L341.804 167.674C343.968 177.142 350.461 186.431 358.035 190.718L365.069 194.648C371.922 198.578 377.874 197.327 380.579 191.79L390.137 171.604C396.089 159.1 416.108 170.89 421.518 190.182C424.043 199.114 430.355 207.688 437.389 211.618L443.521 215.012C450.915 219.299 457.408 217.513 459.572 210.725L468.409 183.93C473.278 168.746 495.461 181.429 500.511 202.15L529.727 321.478C532.072 330.945 539.768 339.017 547.343 343.125L579.864 362.921L193.377 137.485Z" fill="url(#paint1_linear)"/>
<path d="M366.907 418.482C370.257 418.482 372.973 415.768 372.973 412.42C372.973 409.072 370.257 406.357 366.907 406.357C363.557 406.357 360.841 409.072 360.841 412.42C360.841 415.768 363.557 418.482 366.907 418.482Z" fill="#24126A"/>
<path d="M427.389 350.013C430.739 350.013 433.455 347.299 433.455 343.951C433.455 340.603 430.739 337.889 427.389 337.889C424.038 337.889 421.323 340.603 421.323 343.951C421.323 347.299 424.038 350.013 427.389 350.013Z" fill="#24126A"/>
<path d="M440.591 396.729C443.941 396.729 446.657 394.015 446.657 390.666C446.657 387.318 443.941 384.604 440.591 384.604C437.241 384.604 434.525 387.318 434.525 390.666C434.525 394.015 437.241 396.729 440.591 396.729Z" fill="#24126A"/>
<path d="M307.853 385.139C311.203 385.139 313.919 382.425 313.919 379.077C313.919 375.729 311.203 373.014 307.853 373.014C304.503 373.014 301.787 375.729 301.787 379.077C301.787 382.425 304.503 385.139 307.853 385.139Z" fill="#24126A"/>
<path d="M345.855 343.773C349.205 343.773 351.921 341.058 351.921 337.71C351.921 334.362 349.205 331.648 345.855 331.648C342.504 331.648 339.789 334.362 339.789 337.71C339.789 341.058 342.504 343.773 345.855 343.773Z" fill="#24126A"/>
<path d="M375.65 360.355L308.21 373.371C307.853 373.371 307.675 373.371 307.318 373.549V373.193L304.107 372.301V376.046C304.107 376.224 304.107 376.402 304.107 376.581C304.463 378.007 306.961 379.077 309.459 378.899L376.898 365.882L375.65 360.355Z" fill="url(#paint2_linear)"/>
<path d="M432.027 337.354L429.887 339.137C428.102 338.423 425.426 338.602 423.642 339.671L375.649 360.533L382.429 364.456L430.422 343.594C431.492 342.881 432.027 342.168 432.027 341.276V337.354Z" fill="url(#paint3_linear)"/>
<path d="M350.494 332.539C349.245 331.113 346.39 330.578 344.071 331.291C343.714 331.291 343.536 331.47 343.357 331.648C343.179 331.47 343.179 331.291 343 331.113C342.644 330.756 341.573 330.043 341.573 330.043V333.787C341.573 334.144 341.752 334.501 342.108 335.036L373.152 363.386L381.716 360.89L350.494 332.539Z" fill="url(#paint4_linear)"/>
<path d="M444.873 384.248L443.803 384.604L443.089 386.031C442.911 385.852 442.554 385.852 442.197 385.674L381.359 360.89L377.077 365.704L437.915 390.488C440.235 391.201 443.089 390.667 444.338 389.24C444.695 388.883 444.873 388.349 444.873 387.992V384.248Z" fill="#9D9BB4"/>
<path d="M372.973 363.386L362.982 406.179L362.268 405.822V409.745C362.447 410.993 364.052 412.063 366.193 412.241C368.87 412.42 371.189 411.528 371.546 409.923L382.25 364.099L372.973 363.386Z" fill="#E1E1EF"/>
<path d="M442.375 381.93L385.997 358.928L430.6 339.493C432.563 338.423 432.741 336.64 431.135 335.57L430.6 335.214C428.816 334.144 425.783 334.322 423.821 335.57L379.218 355.006L350.493 328.795C349.245 327.368 346.39 326.833 344.071 327.547C341.751 328.26 340.859 329.865 341.93 331.291L370.654 357.502L308.032 369.627C305.355 369.805 303.75 371.231 304.106 372.836C304.463 374.262 306.961 375.332 309.459 375.154L372.081 363.029L362.09 405.466C361.733 406.892 363.518 408.319 366.015 408.675C368.691 408.854 371.011 407.962 371.368 406.357L381.359 363.921L437.737 386.922C440.056 387.635 442.911 387.1 444.16 385.674C445.587 384.248 444.695 382.465 442.375 381.93ZM379.931 358.928L378.861 360.176L376.542 359.998L376.185 358.75L378.326 358.215L379.931 358.928Z" fill="#E1E1EF"/>
<path d="M377.969 362.494C375.292 362.494 372.973 360.355 372.973 357.502V300.623H382.786V357.502C382.786 360.355 380.645 362.494 377.969 362.494Z" fill="#24126A"/>
<path d="M351.742 233.045C351.564 231.797 350.85 230.549 349.244 229.657L348.174 229.123C344.427 226.983 337.648 227.161 333.187 229.657L302.144 247.666C299.824 249.093 298.576 250.697 298.576 252.302V257.651C298.576 259.078 299.468 260.326 301.073 261.396L302.144 261.931C305.89 264.07 312.67 263.892 317.13 261.396L348.174 243.387C350.493 242.139 351.742 240.356 351.742 238.751V233.045Z" fill="#9D9BB4"/>
<path d="M302.144 256.76L301.073 256.225C297.327 254.085 297.684 250.163 302.144 247.666L333.187 229.658C337.648 227.161 344.249 226.805 348.174 229.123L349.244 229.658C352.991 231.797 352.634 235.72 348.174 238.216L317.13 256.225C312.492 258.721 305.89 258.899 302.144 256.76Z" fill="#CFCCDC"/>
<path d="M367.978 281.722L302.857 319.345C299.646 321.128 296.97 319.166 296.97 314.887C296.97 310.608 299.646 305.615 302.857 303.654L377.433 260.682V263.714C377.433 270.668 373.152 278.691 367.978 281.722Z" fill="#515151"/>
<path d="M372.795 121.248C370.475 120 367.621 120.179 364.409 121.962L362.447 123.031C355.31 127.132 349.423 138.366 349.423 147.994V276.73L366.729 266.745V270.846L346.033 287.785L298.932 319.345L365.302 356.789L403.482 327.547L425.248 309.003L438.807 158.336L372.795 121.248Z" fill="#E1E1EF"/>
<path d="M324.089 333.966C324.089 333.966 322.304 329.33 325.873 325.764C329.441 322.198 347.639 314.531 349.066 313.817C350.315 312.926 356.916 308.112 356.916 308.112L358.879 303.654C358.879 303.654 321.591 307.22 321.234 307.933C320.699 308.468 303.75 323.624 304.285 324.337C304.82 325.05 315.882 327.725 315.882 327.725L318.023 330.756L324.089 333.966Z" fill="#2D2D2D"/>
<path d="M430.422 159.406L428.459 160.475C421.323 164.576 415.435 175.81 415.435 185.438V314.174L368.87 341.098C365.658 342.881 362.982 347.873 362.982 352.331C362.982 356.61 365.658 358.572 368.87 356.789L433.99 319.166C439.164 316.135 443.446 308.112 443.446 300.979V297.948V169.212C443.446 159.584 437.558 155.305 430.422 159.406Z" fill="#B5B3C9"/>
<path d="M306.604 361.781C306.604 361.781 296.97 368.022 293.758 371.588C290.547 375.154 284.124 382.643 286.8 386.209C289.476 389.775 298.397 391.736 308.031 382.821C317.665 373.906 314.989 373.371 323.018 369.092C331.225 364.634 333.366 359.998 332.474 357.145C331.403 354.471 327.478 349.656 325.159 350.726C322.839 351.796 306.604 361.781 306.604 361.781Z" fill="#160A5B"/>
<path d="M344.28 383.427C344.28 383.427 340.89 391.094 339.106 393.591C337.322 396.087 328.758 410.529 333.219 413.917C337.679 417.305 346.243 416.414 353.022 409.103C359.802 401.793 361.229 392.877 362.835 390.024C364.441 387.172 368.722 379.326 366.76 374.869C364.797 370.411 364.441 369.519 364.441 369.519L344.28 383.427Z" fill="#160A5B"/>
<path d="M318.379 279.761C318.379 279.761 289.834 307.933 285.195 322.019C285.195 322.019 283.232 329.686 288.763 335.571C294.294 341.633 306.069 361.068 306.069 361.068C306.069 361.068 314.811 371.588 326.051 363.208C326.051 363.208 331.225 355.006 328.014 349.657C324.802 344.307 316.595 327.012 316.595 327.012C316.595 327.012 334.972 314.352 343.892 311.321C352.991 308.112 357.808 305.615 357.808 305.615C357.808 305.615 356.203 314.174 349.601 322.376C343 330.756 331.939 343.951 335.685 353.401C339.432 362.673 341.573 365.526 344.963 370.875C348.352 376.224 351.742 387.457 354.597 388.527C357.63 389.775 371.189 391.023 373.33 382.108C375.471 373.193 368.691 355.897 365.658 350.191C365.658 350.191 402.59 307.577 405.979 302.941C409.369 298.305 329.798 272.451 318.379 279.761Z" fill="#24126A"/>
<path d="M327.835 349.656C324.624 344.307 316.417 327.012 316.417 327.012C316.417 327.012 334.793 314.352 343.714 311.321C352.813 308.111 357.63 305.615 357.63 305.615C359.414 303.297 364.945 294.025 367.442 286.893C346.568 280.831 324.088 276.195 318.379 279.761C320.342 284.754 331.046 284.754 331.046 284.754C331.046 284.754 334.971 294.382 337.648 295.63C340.324 296.878 346.568 295.452 346.568 295.452C346.568 295.452 345.498 297.057 341.037 300.266C336.577 303.476 308.567 326.477 308.567 326.477C308.567 326.477 310.172 327.368 317.666 340.92C325.159 354.471 326.051 363.386 326.051 363.386C326.051 363.386 331.046 355.184 327.835 349.656Z" fill="#160A5B"/>
<path d="M390.993 294.56C374.579 292.956 355.31 292.777 359.592 301.514C366.907 316.135 381.715 316.849 381.715 316.849C381.537 322.198 359.057 348.23 359.057 348.23C359.057 348.23 359.057 348.23 364.409 358.393C369.762 368.557 369.048 387.279 369.048 387.279C371.011 386.209 372.616 384.426 373.33 381.93C375.471 373.014 368.691 355.719 365.658 350.013C365.658 350.013 402.589 307.398 405.979 302.762C406.871 301.514 400.627 298.305 390.993 294.56Z" fill="#160A5B"/>
<path d="M289.477 204.695L293.937 201.307C293.937 201.307 317.666 188.113 325.516 184.012C329.798 181.694 334.258 177.593 337.291 174.383C340.324 171.174 344.606 169.391 349.066 169.391L390.458 169.212C390.458 169.212 395.275 176.879 396.88 178.484C398.129 179.554 409.369 189.004 417.398 196.849C421.858 201.129 425.069 206.478 426.853 212.54C431.492 228.766 431.314 261.574 432.027 284.932C432.027 284.932 429.173 286.002 422.036 287.607C414.9 289.033 415.792 288.141 415.792 288.141C415.792 288.141 405.266 311.856 390.814 314.174C376.541 316.492 357.095 309.716 353.705 287.25C353.705 287.25 325.694 283.149 318.201 279.939C317.487 279.583 317.309 278.87 317.666 278.156C321.055 273.699 333.723 256.225 334.793 244.992C336.22 231.975 335.685 212.897 334.793 207.726C334.793 207.726 313.741 215.75 306.961 216.998C306.961 216.998 281.27 245.17 270.565 252.837C270.565 252.837 274.312 247.131 266.818 243.209L289.477 204.695Z" fill="#17BCB2"/>
<path d="M422.215 287.25C423.285 287.072 424.177 286.715 425.069 286.537L423.642 283.684L384.748 279.583L362.09 280.831L354.24 288.32C354.597 290.816 355.311 292.956 356.024 294.917C356.024 294.917 365.658 296.344 370.119 295.274C374.579 294.382 409.191 299.375 409.191 299.375C413.116 293.669 415.614 288.498 415.792 287.785C415.97 288.141 416.327 288.498 422.215 287.25Z" fill="#39335E"/>
<path d="M369.583 273.699C369.583 273.52 369.405 273.52 369.227 273.52C367.264 273.52 355.132 273.164 350.672 271.559C345.676 269.776 340.324 270.133 340.146 270.489C339.789 270.846 331.582 274.234 331.047 275.66C330.69 276.908 329.798 281.366 330.868 282.971C331.939 284.575 332.474 285.645 332.474 285.645L333.366 285.824C333.366 285.824 334.436 287.963 335.15 288.855C335.507 289.211 335.685 289.568 335.864 289.924C336.399 290.994 337.291 292.956 337.648 292.956C338.183 292.956 340.681 293.491 341.394 293.312C341.93 293.134 342.465 291.529 342.108 290.816C342.108 290.638 342.108 290.459 342.286 290.459C343.535 290.281 346.747 289.925 351.029 290.281C356.381 290.816 364.053 287.25 364.766 286.893C364.766 286.893 364.766 286.893 364.945 286.893L372.616 286.18C372.795 286.18 372.973 286.002 372.973 285.824L369.583 273.699Z" fill="#FCD1C5"/>
<path d="M360.484 193.462C360.484 193.462 354.062 217.355 360.841 241.961C360.841 241.961 385.819 195.423 388.495 187.934C391.171 180.445 392.242 175.096 389.744 172.243C387.246 169.569 364.588 183.477 364.588 183.477L360.484 193.462Z" fill="#F0F6FF"/>
<path d="M366.907 230.906C366.907 230.906 371.724 216.285 370.832 211.649C369.94 207.013 368.87 203.625 368.87 203.625L373.151 199.702L375.114 203.625C375.114 203.625 384.57 196.671 385.105 195.423C385.105 195.423 377.433 200.594 375.114 201.485C375.114 201.485 374.044 199.702 372.438 198.989C371.011 198.276 367.264 203.447 367.264 203.447L366.55 212.184L362.804 232.689L364.052 235.72L366.907 230.906Z" fill="#C4CCD6"/>
<path d="M362.804 193.64C362.804 193.64 361.912 203.09 362.625 203.625C363.339 204.338 366.372 204.338 367.621 203.625C369.048 202.912 372.438 198.811 372.438 198.811C372.438 198.811 368.156 191.322 362.804 193.64Z" fill="#24126A"/>
<path d="M367.799 202.02C367.799 202.02 370.297 208.618 367.978 217.533C365.658 226.448 364.588 234.828 364.588 234.828L360.841 241.782C360.841 241.782 356.203 228.231 357.808 214.502C358.522 208.439 363.161 202.912 363.161 202.912L367.799 202.02Z" fill="#24126A"/>
<path d="M348.888 155.305C348.888 155.305 347.817 161.189 348.174 162.258C348.531 163.328 350.136 164.041 349.78 166.359C349.423 168.677 350.672 175.453 351.385 177.593C351.385 177.593 350.85 180.089 351.564 180.802C352.277 181.515 353.169 181.515 353.705 182.585C354.418 183.655 354.597 189.539 356.916 191.5C359.235 193.462 362.447 193.818 364.053 193.462C365.658 193.105 367.264 191.857 367.264 191.857L370.832 193.283C370.832 193.283 389.387 188.113 388.852 174.918V173.492C388.852 173.492 390.101 171.709 390.636 170.46C390.993 169.212 394.026 163.863 392.598 161.545C392.598 161.545 399.735 133.195 377.612 131.412C355.132 129.807 351.742 145.498 348.888 155.305Z" fill="#FCD1C5"/>
<path d="M388.673 175.096C387.781 174.383 386.889 174.027 386.176 174.205C383.678 174.74 384.213 169.391 384.213 169.391C384.213 169.391 383.678 170.282 382.429 177.058C381.18 183.833 367.086 191.857 367.086 191.857L370.654 193.283C370.654 193.283 389.209 188.113 388.673 175.096Z" fill="#E2B1A6"/>
<path d="M348.887 143.002C346.747 147.638 345.676 153.165 350.136 156.909C350.136 156.909 353.883 157.979 361.198 154.591C366.015 152.273 371.011 153.343 373.687 154.235C374.936 154.591 375.649 155.84 375.649 157.088L375.471 161.189C375.471 162.258 376.006 163.15 377.077 163.685L380.466 165.111L381.18 169.034C381.358 170.104 382.607 170.817 383.678 170.46L384.57 170.104C384.57 170.104 385.105 161.367 392.241 161.724C392.241 161.724 398.129 149.064 392.063 137.474C385.997 125.884 369.762 126.776 366.193 128.024C361.555 129.807 362.268 129.45 359.592 131.055C355.132 134.086 351.207 138.009 348.887 143.002Z" fill="#39335E"/>
<path d="M407.942 231.975C407.942 231.975 404.552 256.76 403.125 263.714L392.242 269.419L411.51 268.171L407.942 231.975Z" fill="#17BCB2"/>
<path d="M392.242 161.724C392.242 161.724 394.204 157.444 394.74 151.56C385.819 158.692 375.828 157.088 375.828 157.088L375.65 161.189C375.65 162.258 376.185 163.15 377.255 163.685L380.645 165.111L381.359 169.034C381.537 170.104 382.786 170.817 383.856 170.46L384.749 170.104C384.57 169.926 385.105 161.189 392.242 161.724Z" fill="#39335E"/>
<path d="M397.059 183.477C397.059 183.477 391.35 203.268 390.101 207.013L385.462 206.478L386.354 212.719L361.376 245.527L389.03 213.788L387.96 208.261L392.242 208.618L397.059 183.477Z" fill="#1A8C85"/>
<path d="M372.616 290.638C372.616 290.638 430.957 288.676 432.563 287.606C433.99 286.537 434.347 271.559 434.168 262.822C433.99 256.76 434.168 232.867 428.994 216.106C433.098 230.371 430.957 280.474 428.994 282.971C427.21 285.467 371.546 287.072 371.546 287.072C372.26 289.211 372.616 290.638 372.616 290.638Z" fill="#263649"/>
<path d="M257.898 243.922C257.898 243.922 257.719 245.348 255.222 246.775C252.724 248.201 246.123 251.411 245.052 252.302C243.982 253.194 239.343 257.295 239.165 257.83C238.986 258.365 237.559 263 237.559 263.357C237.559 263.714 238.094 265.853 238.094 265.853L236.667 272.807C236.667 272.807 234.883 275.482 236.845 276.195C238.808 276.908 240.057 274.769 240.057 274.59C240.057 274.59 243.09 273.164 245.231 271.381C247.371 269.598 256.292 262.466 257.719 263C259.147 263.357 257.898 266.032 257.184 266.388C256.47 266.745 251.832 271.381 253.794 274.59C255.757 277.8 257.006 272.807 258.433 271.737C259.682 270.668 262.536 266.745 264.321 266.21C266.105 265.675 269.138 259.256 269.494 256.403C269.851 253.55 271.992 251.767 272.706 250.697C273.42 249.806 271.1 242.674 271.1 242.674L262.358 239.999L259.325 241.961L257.898 243.922Z" fill="#FCD1C5"/>
<path d="M424.534 206.3C422.75 203.447 421.858 205.586 419.36 207.904C415.97 211.114 411.867 216.106 409.726 222.525C405.801 234.115 407.228 262.822 408.477 266.923C408.477 266.923 371.903 272.986 369.405 272.807C366.907 272.629 372.616 290.638 372.616 290.638C372.616 290.638 430.957 288.676 432.563 287.607C433.99 286.537 434.347 271.559 434.168 262.822C433.99 255.512 434.168 221.456 424.534 206.3Z" fill="#334659"/>
<path d="M372.616 290.638C372.616 290.638 430.957 288.676 432.562 287.607C433.99 286.537 434.346 271.559 434.168 262.822C433.99 256.76 434.168 232.867 428.994 216.106C433.098 230.371 430.957 280.474 428.994 282.971C427.21 285.467 371.546 287.072 371.546 287.072C372.259 289.211 372.616 290.638 372.616 290.638Z" fill="#263649"/>
<path d="M440.948 284.219C440.769 282.971 440.056 281.723 438.45 280.831L437.38 280.296C433.633 278.156 426.853 278.335 422.393 280.831L391.349 298.84C389.03 300.266 387.781 301.871 387.781 303.476V308.825C387.781 310.251 388.673 311.499 390.279 312.569L391.349 313.104C395.096 315.244 401.876 315.066 406.336 312.569L437.38 294.56C439.699 293.312 440.948 291.529 440.948 289.925V284.219Z" fill="#9D9BB4"/>
<path d="M144.031 255.977L122.586 344.147L117.022 343.504L130.099 250.745L144.031 255.977Z" fill="#EDBF96"/>
<path d="M148.971 258.56L125.37 344.467L122.586 344.147L144.032 255.977L148.971 258.56Z" fill="#D19865"/>
<path d="M365.554 394.547L344.109 482.717L338.545 482.074L351.622 389.315L365.554 394.547Z" fill="#EDBF96"/>
<path d="M370.494 397.13L346.893 483.037L344.11 482.717L365.555 394.547L370.494 397.13Z" fill="#D19865"/>
<path d="M458.733 341.24L472.863 431.343L474.758 429.378L463.446 337.469L458.733 341.24Z" fill="#EDBF96"/>
<path d="M446.95 345.011L470.045 431.343H472.863L458.733 340.769L446.95 345.011Z" fill="#D19865"/>
<path d="M391.349 307.933L390.279 307.398C386.532 305.259 386.889 301.336 391.349 298.84L422.393 280.831C426.853 278.335 433.455 277.978 437.38 280.296L438.45 280.831C442.197 282.971 441.84 286.893 437.38 289.39L406.336 307.398C401.876 309.895 395.096 310.251 391.349 307.933Z" fill="#CFCCDC"/>
<path opacity="0.5" d="M372.26 411.172L111.6 260.683L213.83 201.842L474.489 352.153L372.26 411.172Z" fill="url(#paint5_linear)"/>
<path d="M111.6 251.589V260.683L372.26 411.172L474.489 352.153V343.059L372.26 402.078L111.6 251.589Z" fill="url(#paint6_linear)"/>
<path d="M372.26 402.078L111.6 251.589L213.83 192.57L474.489 343.059L372.26 402.078Z" fill="url(#paint7_linear)"/>
<path d="M372.26 401.187L112.314 251.232L111.6 251.589L372.26 402.078L474.489 343.059L473.776 342.524L372.26 401.187Z" fill="#E1E1EF"/>
<path opacity="0.3" d="M341.216 292.064C341.216 292.064 348.531 294.739 354.062 293.669C359.593 292.777 386.533 292.242 386.533 292.242L382.251 289.746L372.795 283.149L349.423 284.754L340.324 287.963L341.216 292.064Z" fill="#180D5B"/>
<path d="M369.583 273.699C369.583 273.52 369.405 273.52 369.227 273.52C367.264 273.52 355.132 273.164 350.672 271.559C345.676 269.776 340.324 270.133 340.146 270.489C339.789 270.846 331.582 274.234 331.047 275.66C330.69 276.908 329.798 281.366 330.868 282.971C331.939 284.575 332.474 285.645 332.474 285.645L333.366 285.823C333.366 285.823 334.436 287.963 335.15 288.855C335.507 289.211 335.685 289.568 335.864 289.924C336.399 290.994 337.291 292.956 337.648 292.956C338.183 292.956 340.681 293.491 341.394 293.312C341.93 293.134 342.465 291.529 342.108 290.816C342.108 290.638 342.108 290.459 342.286 290.459C343.535 290.281 346.747 289.924 351.029 290.281C356.381 290.816 364.053 287.25 364.766 286.893C364.766 286.893 364.766 286.893 364.945 286.893L372.616 286.18C372.795 286.18 372.973 286.002 372.973 285.823L369.583 273.699Z" fill="#FCD1C5"/>
<path d="M424.534 206.3C422.75 203.447 421.858 205.586 419.36 207.904C415.97 211.114 411.867 216.106 409.726 222.525C405.801 234.115 407.228 262.822 408.477 266.923C408.477 266.923 371.903 272.986 369.405 272.807C366.907 272.629 372.616 290.638 372.616 290.638C372.616 290.638 430.957 288.676 432.563 287.607C433.99 286.537 434.347 271.559 434.168 262.822C433.99 255.512 434.168 221.456 424.534 206.3Z" fill="#1BC8BD"/>
<path d="M372.617 290.638C372.617 290.638 430.957 288.676 432.563 287.606C433.99 286.537 434.347 271.559 434.169 262.822C433.99 256.76 434.169 232.867 428.995 216.106C433.098 230.371 430.957 280.474 428.995 282.971C427.21 285.467 371.546 287.072 371.546 287.072C372.26 289.211 372.617 290.638 372.617 290.638Z" fill="#1A8C85"/>
<path opacity="0.3" d="M267.889 260.683C267.889 260.683 288.763 244.457 291.796 242.852C294.829 241.247 296.078 239.999 296.078 239.999L289.12 235.898L277.345 240.712L262.536 255.512L239.7 271.737V275.482C239.7 275.482 258.611 267.458 260.752 266.032C262.536 264.784 267.889 260.683 267.889 260.683Z" fill="#180D5B"/>
<path opacity="0.63" d="M255.579 275.482C255.579 275.482 260.039 271.559 262.894 270.133C265.748 268.885 270.387 265.318 270.922 262.644C271.457 259.969 276.274 253.907 276.274 253.907L268.603 258.365L257.541 264.784L239.165 275.482C239.165 275.482 240.235 276.73 242.555 276.017C244.874 275.304 249.156 272.451 251.297 272.272C253.259 272.094 256.649 271.381 256.649 271.381L255.579 275.482Z" fill="#2D2D2D"/>
<path d="M257.898 243.922C257.898 243.922 257.719 245.348 255.222 246.775C252.724 248.201 246.123 251.411 245.052 252.302C243.982 253.194 239.343 257.295 239.165 257.83C238.986 258.365 237.559 263 237.559 263.357C237.559 263.714 238.094 265.853 238.094 265.853L236.667 272.807C236.667 272.807 234.883 275.482 236.845 276.195C238.808 276.908 240.057 274.769 240.057 274.59C240.057 274.59 243.09 273.164 245.231 271.381C247.371 269.598 256.292 262.466 257.719 263C259.147 263.357 257.898 266.032 257.184 266.388C256.47 266.745 251.832 271.381 253.794 274.59C255.757 277.8 257.006 272.807 258.433 271.737C259.682 270.668 262.536 266.745 264.321 266.21C266.105 265.675 269.138 259.256 269.494 256.403C269.851 253.55 271.992 251.767 272.706 250.697C273.42 249.806 271.1 242.674 271.1 242.674L262.358 239.999L259.325 241.961L257.898 243.922Z" fill="#FCD1C5"/>
<path d="M337.113 195.78C337.113 195.78 336.756 182.763 339.075 172.6C338.54 173.135 337.826 173.492 337.291 174.205C334.08 177.414 329.798 181.694 325.516 183.833C317.666 188.113 293.937 201.129 293.937 201.129L289.477 204.517C275.561 215.393 260.039 239.108 257.898 243.744C258.968 242.317 261.823 239.999 267.175 242.674C274.49 246.596 271.1 252.481 271.1 252.481C281.805 244.813 307.318 216.463 307.318 216.463C313.562 215.215 332.474 208.083 334.972 207.191C336.221 203.625 337.113 199.702 337.113 195.78Z" fill="#1BC8BD"/>
<path d="M204.374 284.932L209.37 287.607L260.217 258.365C261.109 257.83 262.536 258.008 263.607 258.543L351.207 309.181C352.099 308.646 355.845 306.863 355.845 306.863L354.061 311.678C354.061 311.856 353.883 312.034 353.526 312.213L300.003 343.059C299.11 343.594 297.683 343.416 296.613 342.881L206.872 291.173C206.515 290.994 206.158 290.638 206.158 290.459L204.374 284.932Z" fill="#CDCADD"/>
<path d="M205.266 285.645L297.148 338.602C298.218 339.137 299.646 339.315 300.538 338.78L355.31 307.22C356.202 306.685 356.024 305.794 355.132 305.259L263.25 252.302C262.179 251.767 260.752 251.589 259.86 252.124L205.088 283.684C204.017 284.219 204.196 285.11 205.266 285.645Z" fill="#E1E1EF"/>
<path d="M205.266 285.11L297.148 338.067C298.218 338.602 299.646 338.78 300.538 338.245L355.31 306.685C355.667 306.507 355.845 306.328 355.845 306.15C356.024 306.507 355.845 307.042 355.31 307.22L300.538 338.78C299.646 339.315 298.218 339.136 297.148 338.602L205.266 285.645C204.552 285.288 204.374 284.754 204.552 284.219C204.552 284.575 204.731 284.932 205.266 285.11Z" fill="white"/>
<path d="M324.445 314.352L248.085 270.311C247.55 269.954 247.014 269.954 246.479 270.311L219.361 286.002C219.004 286.18 219.004 286.715 219.361 287.072L295.721 331.113C296.256 331.469 296.791 331.469 297.326 331.113L324.623 315.422C324.802 315.244 324.802 314.709 324.445 314.352Z" fill="#9D9BB4"/>
<path d="M324.445 315.422L324.088 315.6L248.085 271.737C247.55 271.381 247.014 271.381 246.479 271.737L219.539 287.25L219.182 287.072C218.825 286.893 218.825 286.358 219.182 286.002L246.301 270.311C246.836 269.954 247.371 269.954 247.907 270.311L324.267 314.352C324.802 314.709 324.802 315.244 324.445 315.422Z" fill="#9198DB"/>
<path d="M244.339 274.412L314.633 314.887L318.201 313.461L247.371 272.629L244.339 274.412Z" fill="#24126A"/>
<path d="M237.202 278.513L299.289 314.352L302.322 312.747L240.057 276.73L237.202 278.513Z" fill="#24126A"/>
<path d="M232.385 281.187L305.712 323.446L308.567 321.841L235.418 279.583L232.385 281.187Z" fill="#24126A"/>
<path d="M227.746 284.04L300.895 326.299L303.928 324.515L230.601 282.257L227.746 284.04Z" fill="#24126A"/>
<path d="M222.929 286.715L296.256 328.973L299.111 327.19L225.962 284.932L222.929 286.715Z" fill="#24126A"/>
<path d="M314.633 314.887L317.666 316.67L320.52 314.887L317.666 313.282L314.633 314.887Z" fill="#24126A"/>
<path d="M295.721 312.391L310.351 320.771L313.384 319.166L298.575 310.608L295.721 312.391Z" fill="#24126A"/>
<path d="M297.148 294.739L276.63 282.792C275.738 282.257 275.738 281.544 276.63 281.188L290.725 272.986C291.617 272.451 292.866 272.451 293.58 272.986L314.097 284.932C314.989 285.467 314.989 286.18 314.097 286.537L300.002 294.739C299.289 295.095 298.04 295.095 297.148 294.739Z" fill="#CFCCDC"/>
<path d="M314.275 285.645L293.757 273.699C292.865 273.164 291.616 273.164 290.903 273.699L276.808 281.901C276.63 282.079 276.451 282.257 276.273 282.436C276.095 282.079 276.273 281.544 276.808 281.188L290.903 272.986C291.795 272.451 293.044 272.451 293.757 272.986L314.275 284.932C314.81 285.289 314.988 285.645 314.81 286.18C314.632 285.823 314.453 285.645 314.275 285.645Z" fill="#9198DB"/>
<path d="M204.553 283.506L216.15 214.68L215.258 214.323L216.685 213.432C217.042 213.254 217.398 213.254 217.755 213.432L310.529 266.923C311.243 267.28 311.957 268.528 311.778 269.241L300.003 338.602C300.003 338.958 299.825 339.137 299.468 339.315L298.04 340.028L297.862 338.78L205.623 285.467C205.088 285.467 204.374 284.219 204.553 283.506Z" fill="#CFCCDC"/>
<path d="M309.994 269.063L311.599 268.35C311.778 268.706 311.778 269.063 311.778 269.419L300.003 338.78C300.003 339.137 299.824 339.315 299.467 339.493L298.04 340.206L297.862 338.958L293.223 336.284L309.994 269.063Z" fill="#9D9BB4"/>
<path d="M204.374 286.715L297.148 340.206C297.862 340.563 298.397 340.385 298.576 339.671L310.351 270.311C310.529 269.598 309.994 268.35 309.102 267.993L216.328 214.502C215.614 214.145 215.079 214.323 214.901 215.037L203.125 284.397C202.947 285.11 203.482 286.18 204.374 286.715Z" fill="#F9F8FF"/>
<defs>
<linearGradient id="paint0_linear" x1="458.094" y1="-86.7546" x2="461.453" y2="312.184" gradientUnits="userSpaceOnUse">
<stop offset="0.16" stop-color="white"/>
<stop offset="1" stop-color="#41D4CC"/>
</linearGradient>
<linearGradient id="paint1_linear" x1="427.76" y1="-45.4064" x2="402.689" y2="384.822" gradientUnits="userSpaceOnUse">
<stop offset="0.16" stop-color="white"/>
<stop offset="1" stop-color="#FF9D33"/>
</linearGradient>
<linearGradient id="paint2_linear" x1="374.849" y1="360.7" x2="263.704" y2="387.842" gradientUnits="userSpaceOnUse">
<stop stop-color="#5761D7"/>
<stop offset="0.1779" stop-color="#5C66D9"/>
<stop offset="0.3876" stop-color="#6A73DF"/>
<stop offset="0.6134" stop-color="#8289E8"/>
<stop offset="0.849" stop-color="#A3A7F5"/>
<stop offset="1" stop-color="#BCBEFF"/>
</linearGradient>
<linearGradient id="paint3_linear" x1="375.679" y1="350.784" x2="498.732" y2="350.784" gradientUnits="userSpaceOnUse">
<stop stop-color="#5761D7"/>
<stop offset="0.1779" stop-color="#5C66D9"/>
<stop offset="0.3876" stop-color="#6A73DF"/>
<stop offset="0.6134" stop-color="#8289E8"/>
<stop offset="0.849" stop-color="#A3A7F5"/>
<stop offset="1" stop-color="#BCBEFF"/>
</linearGradient>
<linearGradient id="paint4_linear" x1="361.807" y1="348.135" x2="333.062" y2="320.332" gradientUnits="userSpaceOnUse">
<stop stop-color="#5761D7"/>
<stop offset="0.1779" stop-color="#5C66D9"/>
<stop offset="0.3876" stop-color="#6A73DF"/>
<stop offset="0.6134" stop-color="#8289E8"/>
<stop offset="0.849" stop-color="#A3A7F5"/>
<stop offset="1" stop-color="#BCBEFF"/>
</linearGradient>
<linearGradient id="paint5_linear" x1="111.545" y1="306.455" x2="474.523" y2="306.455" gradientUnits="userSpaceOnUse">
<stop stop-color="#42E8E0"/>
<stop offset="0.1507" stop-color="#43E3E0"/>
<stop offset="0.3285" stop-color="#45D5DF"/>
<stop offset="0.5199" stop-color="#49BDDD"/>
<stop offset="0.7209" stop-color="#4E9CDB"/>
<stop offset="0.9274" stop-color="#5472D8"/>
<stop offset="1" stop-color="#5761D7"/>
</linearGradient>
<linearGradient id="paint6_linear" x1="482.629" y1="336.97" x2="-150.302" y2="318.118" gradientUnits="userSpaceOnUse">
<stop stop-color="#A6A6E7"/>
<stop offset="1" stop-color="#EEEFFF"/>
</linearGradient>
<linearGradient id="paint7_linear" x1="390.423" y1="400.945" x2="245.073" y2="245.247" gradientUnits="userSpaceOnUse">
<stop stop-color="#E8EDFE"/>
<stop offset="1" stop-color="#EEF4FF"/>
</linearGradient>
</defs>
</svg>
