<svg width="325" height="268" viewBox="0 0 325 268" fill="none" xmlns="http://www.w3.org/2000/svg">
<path d="M4.45623 158.734L24.7456 146.438L25.2199 146.143L59.4106 125.408L59.8805 125.113L89.4934 107.163C90.8524 106.334 92.412 105.892 94.0038 105.885C95.5956 105.878 97.1591 106.306 98.5253 107.123L130.446 126.084L130.931 126.378L158.675 142.854C160.022 143.657 161.561 144.083 163.13 144.087C164.698 144.092 166.24 143.674 167.592 142.879L170.729 141.045L171.041 140.861L196.842 125.751L196.91 125.711L197.327 125.468L227.29 107.923C228.647 107.125 230.193 106.707 231.766 106.714C233.34 106.721 234.882 107.153 236.231 107.962L265.542 125.49L266.022 125.773L300.917 146.647L301.397 146.942L320.492 158.36C326.507 161.956 326.501 170.946 320.482 174.534L299.887 186.796L299.413 187.09L265.904 207.075L265.43 207.357L231.36 227.675L230.886 227.958L196.42 248.518L195.939 248.813L167.141 265.99C165.787 266.802 164.237 267.232 162.658 267.234C161.079 267.235 159.529 266.809 158.172 266L129.156 248.805L128.671 248.511L93.6338 227.726L93.1536 227.444L59.4239 207.444L58.9393 207.15L26.684 188.025L26.1994 187.731L4.53282 174.887C-1.47667 171.33 -1.51938 162.356 4.45623 158.734Z" fill="#F9F8FF"/>
<path opacity="0.3" d="M196.714 125.671L196.844 125.592L196.906 125.706L197.324 125.462L231.258 145.76L231.734 146.043L266.633 166.917L267.112 167.206L299.881 186.803L299.407 187.092L266.633 167.489L266.153 167.201L231.254 146.327L230.778 146.043L196.973 125.826L196.839 125.746L196.714 125.671Z" fill="#908ABC"/>
<path opacity="0.3" d="M156.86 142.426L157.1 141.999L163.067 145.566L163.552 145.855L197.131 165.944L197.611 166.226L232.506 187.101L232.985 187.389L265.898 207.076L265.424 207.359L232.506 187.672L232.026 187.385L197.131 166.511H197.127L196.652 166.226L163.071 146.143L162.587 145.85L156.86 142.426Z" fill="#908ABC"/>
<path opacity="0.3" d="M59.4106 125.407L59.8805 125.119L95.7769 146.589L96.2571 146.878L128.378 166.088L128.859 166.376L162.444 186.46L162.918 186.748H162.923L197.817 207.618L198.298 207.905L231.354 227.676L230.88 227.959H230.876L197.817 208.188L197.339 207.901L162.438 187.031L161.964 186.742L128.378 166.659L127.9 166.371L95.7769 147.161L95.2982 146.874L59.4106 125.407Z" fill="#908ABC"/>
<path opacity="0.3" d="M24.7454 146.431L25.2196 146.144L60.6756 167.345L61.1602 167.633L93.2786 186.843L93.7573 187.132H93.7617L127.343 207.221L127.823 207.504L162.716 228.378L163.201 228.666L196.403 248.521L195.923 248.81L162.716 228.949L162.233 228.661L127.338 207.792L126.858 207.504L93.2786 187.419L92.794 187.132L60.6756 167.922L60.191 167.633L24.7454 146.431Z" fill="#908ABC"/>
<path opacity="0.3" d="M128.671 248.511L162.233 228.66L162.716 228.378L197.338 207.901L197.817 207.618L232.025 187.385L232.506 187.101L266.153 167.201L266.633 166.917L300.908 146.644L301.388 146.933L267.112 167.206L266.633 167.489L232.984 187.389L232.506 187.672L198.297 207.905L197.817 208.188L163.201 228.666L162.716 228.949L129.156 248.799L128.671 248.511Z" fill="#908ABC"/>
<path opacity="0.3" d="M93.1492 227.444L126.858 207.504L127.343 207.221L161.964 186.743L162.444 186.46L196.652 166.227L197.131 165.944L230.778 146.043L231.258 145.76L265.535 125.487L266.013 125.77L231.734 146.043L231.254 146.328L197.611 166.227L197.131 166.511H197.127L162.923 186.749H162.918L162.438 187.032L127.823 207.504L127.338 207.792L93.6338 227.727H93.6279L93.1492 227.444Z" fill="#908ABC"/>
<path opacity="0.3" d="M58.9404 207.155L92.7939 187.131L93.2785 186.842L127.899 166.37L128.378 166.088L162.586 145.85L163.067 145.565L170.727 141.039L171.038 140.855L196.714 125.671L196.843 125.591L196.905 125.706L196.973 125.826L197.084 126.023L163.551 145.854L163.071 146.143L128.858 166.376L128.378 166.659L93.7616 187.131H93.7572L93.2785 187.418L59.4235 207.443L58.9404 207.155Z" fill="#908ABC"/>
<path opacity="0.3" d="M26.1995 187.737L60.1914 167.633L60.676 167.345L95.2983 146.874L95.777 146.59L130.446 126.084L130.931 126.373L96.2571 146.879L95.777 147.161L61.1605 167.633L60.676 167.922L26.6841 188.026L26.1995 187.737Z" fill="#908ABC"/>
<path opacity="0.45" d="M231.506 213.395L169.955 248.713C168.137 249.758 166.072 250.311 163.968 250.315C161.864 250.32 159.796 249.777 157.974 248.74L49.965 181.815C41.986 177.274 45.6595 173.419 53.658 168.913L103.435 140.872C105.228 139.863 107.255 139.329 109.319 139.322C111.383 139.316 113.413 139.837 115.213 140.835L222.915 201.088C230.953 205.548 239.48 208.814 231.506 213.395Z" fill="#E1E1EF"/>
<path d="M107.742 61.0665L119.559 67.8247C123.113 69.8434 126.223 69.0535 127.378 65.9816L150.657 3.05162C153.322 -4.14539 164.162 2.34948 166.472 12.5306L180.866 75.8994C181.932 80.5511 185.131 85.1151 188.862 87.2215L192.328 89.1524C195.704 91.0833 198.636 90.469 199.969 87.7481L204.678 77.8303C207.61 71.6865 217.472 77.4792 220.138 86.9582C221.382 91.3466 224.491 95.5595 227.957 97.4904L230.978 99.158C234.62 101.264 237.819 100.387 238.885 97.0516L243.239 83.8863C245.638 76.426 256.566 82.6576 259.054 92.8387L273.448 151.468C274.603 156.12 278.163 159.595 281.894 161.613L298.148 171.83L107.742 61.0665Z" fill="url(#paint0_linear)"/>
<path d="M95.2031 67.7331L107.02 74.5095C110.574 76.5336 113.684 75.7416 114.839 72.6614L138.118 9.56134C140.783 2.34487 151.623 8.85729 153.933 19.0659L168.327 82.606C169.393 87.2703 172.592 91.8466 176.324 93.9587L179.789 95.8949C183.165 97.831 186.097 97.215 187.43 94.4868L192.139 84.5421C195.071 78.3817 204.933 84.1901 207.599 93.6947C208.843 98.095 211.953 102.319 215.418 104.255L218.439 105.928C222.082 108.04 225.28 107.16 226.346 103.815L230.7 90.6145C233.099 83.134 244.028 89.3824 246.515 99.5911L260.909 158.379C262.064 163.043 265.856 167.02 269.588 169.044L285.61 178.796L95.2031 67.7331Z" fill="url(#paint1_linear)"/>
<path d="M180.695 206.17C182.345 206.17 183.683 204.832 183.683 203.183C183.683 201.533 182.345 200.196 180.695 200.196C179.045 200.196 177.707 201.533 177.707 203.183C177.707 204.832 179.045 206.17 180.695 206.17Z" fill="#24126A"/>
<path d="M210.492 172.438C212.142 172.438 213.48 171.101 213.48 169.451C213.48 167.802 212.142 166.464 210.492 166.464C208.841 166.464 207.503 167.802 207.503 169.451C207.503 171.101 208.841 172.438 210.492 172.438Z" fill="#24126A"/>
<path d="M216.996 195.453C218.647 195.453 219.985 194.116 219.985 192.467C219.985 190.817 218.647 189.48 216.996 189.48C215.346 189.48 214.008 190.817 214.008 192.467C214.008 194.116 215.346 195.453 216.996 195.453Z" fill="#24126A"/>
<path d="M151.601 189.744C153.252 189.744 154.59 188.407 154.59 186.757C154.59 185.108 153.252 183.771 151.601 183.771C149.951 183.771 148.613 185.108 148.613 186.757C148.613 188.407 149.951 189.744 151.601 189.744Z" fill="#24126A"/>
<path d="M170.323 169.364C171.974 169.364 173.312 168.027 173.312 166.377C173.312 164.728 171.974 163.391 170.323 163.391C168.673 163.391 167.335 164.728 167.335 166.377C167.335 168.027 168.673 169.364 170.323 169.364Z" fill="#24126A"/>
<path d="M185.002 177.533L151.777 183.946C151.601 183.946 151.514 183.946 151.338 184.034V183.858L149.756 183.419V185.263C149.756 185.351 149.756 185.439 149.756 185.527C149.931 186.23 151.162 186.757 152.392 186.669L185.617 180.256L185.002 177.533Z" fill="url(#paint2_linear)"/>
<path d="M212.777 166.201L211.722 167.08C210.843 166.728 209.525 166.816 208.646 167.343L185.002 177.621L188.342 179.553L211.986 169.276C212.513 168.924 212.777 168.573 212.777 168.134V166.201Z" fill="url(#paint3_linear)"/>
<path d="M172.608 163.829C171.993 163.127 170.587 162.863 169.444 163.215C169.268 163.215 169.18 163.302 169.093 163.39C169.005 163.302 169.005 163.215 168.917 163.127C168.741 162.951 168.214 162.6 168.214 162.6V164.444C168.214 164.62 168.302 164.796 168.477 165.059L183.771 179.026L187.99 177.797L172.608 163.829Z" fill="url(#paint4_linear)"/>
<path d="M219.106 189.304L218.578 189.48L218.227 190.182C218.139 190.094 217.963 190.094 217.787 190.007L187.815 177.796L185.705 180.168L215.678 192.378C216.82 192.73 218.227 192.466 218.842 191.764C219.018 191.588 219.106 191.324 219.106 191.149V189.304Z" fill="#9D9BB4"/>
<path d="M183.683 179.026L178.761 200.109L178.41 199.933V201.866C178.498 202.481 179.289 203.008 180.343 203.095C181.662 203.183 182.804 202.744 182.98 201.953L188.254 179.378L183.683 179.026Z" fill="#E1E1EF"/>
<path d="M217.875 188.162L190.1 176.83L212.074 167.255C213.041 166.728 213.129 165.85 212.338 165.323L212.074 165.147C211.195 164.62 209.701 164.708 208.734 165.323L186.76 174.898L172.609 161.985C171.993 161.282 170.587 161.018 169.444 161.37C168.302 161.721 167.862 162.512 168.389 163.215L182.541 176.128L151.689 182.101C150.371 182.189 149.58 182.891 149.756 183.682C149.931 184.385 151.162 184.912 152.392 184.824L183.244 178.851L178.322 199.757C178.146 200.46 179.025 201.163 180.255 201.339C181.574 201.426 182.717 200.987 182.892 200.197L187.815 179.29L215.59 190.622C216.732 190.973 218.139 190.71 218.754 190.007C219.457 189.304 219.018 188.426 217.875 188.162ZM187.111 176.83L186.584 177.445L185.441 177.357L185.266 176.742L186.32 176.479L187.111 176.83Z" fill="#E1E1EF"/>
<path d="M186.144 178.587C184.826 178.587 183.683 177.533 183.683 176.128V148.105H188.518V176.128C188.518 177.533 187.463 178.587 186.144 178.587Z" fill="#24126A"/>
<path d="M173.224 114.812C173.136 114.197 172.784 113.582 171.993 113.143L171.466 112.879C169.62 111.825 166.28 111.913 164.083 113.143L148.789 122.015C147.646 122.718 147.031 123.508 147.031 124.299V126.934C147.031 127.637 147.47 128.252 148.261 128.779L148.789 129.042C150.634 130.096 153.975 130.009 156.172 128.779L171.466 119.907C172.608 119.292 173.224 118.413 173.224 117.623V114.812Z" fill="#9D9BB4"/>
<path d="M148.789 126.496L148.261 126.232C146.415 125.178 146.591 123.246 148.789 122.016L164.083 113.144C166.28 111.914 169.532 111.738 171.466 112.88L171.993 113.144C173.839 114.198 173.663 116.13 171.466 117.36L156.172 126.232C153.887 127.462 150.634 127.55 148.789 126.496Z" fill="#CFCCDC"/>
<path d="M181.223 138.793L149.141 157.328C147.558 158.207 146.24 157.24 146.24 155.132C146.24 153.024 147.558 150.564 149.141 149.598L185.881 128.428V129.921C185.881 133.347 183.772 137.3 181.223 138.793Z" fill="#515151"/>
<path d="M183.596 59.7344C182.453 59.1194 181.047 59.2073 179.465 60.0857L178.498 60.6128C174.982 62.6332 172.081 68.1673 172.081 72.9109V136.334L180.607 131.415V133.435L170.411 141.78L147.207 157.328L179.904 175.775L198.714 161.369L209.437 152.233L216.117 78.0058L183.596 59.7344Z" fill="#E1E1EF"/>
<path d="M159.6 164.532C159.6 164.532 158.721 162.248 160.479 160.491C162.237 158.734 171.202 154.957 171.905 154.605C172.521 154.166 175.773 151.794 175.773 151.794L176.74 149.598C176.74 149.598 158.369 151.355 158.194 151.706C157.93 151.97 149.58 159.437 149.844 159.788C150.107 160.139 155.557 161.457 155.557 161.457L156.612 162.95L159.6 164.532Z" fill="#2D2D2D"/>
<path d="M211.986 78.5331L211.019 79.0601C207.503 81.0805 204.603 86.6147 204.603 91.3582V154.781L181.662 168.045C180.08 168.924 178.761 171.384 178.761 173.58C178.761 175.688 180.08 176.654 181.662 175.776L213.744 157.241C216.293 155.747 218.402 151.794 218.402 148.281V146.787V83.3645C218.402 78.6209 215.502 76.5127 211.986 78.5331Z" fill="#B5B3C9"/>
<path d="M150.986 178.235C150.986 178.235 146.239 181.309 144.657 183.066C143.075 184.823 139.911 188.513 141.229 190.269C142.548 192.026 146.943 192.993 151.689 188.6C156.435 184.208 155.117 183.945 159.072 181.836C163.115 179.64 164.17 177.356 163.731 175.951C163.203 174.633 161.27 172.261 160.127 172.789C158.984 173.316 150.986 178.235 150.986 178.235Z" fill="#160A5B"/>
<path d="M169.547 188.9C169.547 188.9 167.877 192.677 166.998 193.907C166.119 195.137 161.9 202.252 164.098 203.921C166.295 205.59 170.514 205.151 173.854 201.549C177.194 197.948 177.897 193.555 178.689 192.15C179.48 190.744 181.589 186.879 180.622 184.683C179.655 182.487 179.48 182.048 179.48 182.048L169.547 188.9Z" fill="#160A5B"/>
<path d="M156.787 137.827C156.787 137.827 142.724 151.706 140.438 158.646C140.438 158.646 139.471 162.423 142.196 165.322C144.921 168.309 150.722 177.884 150.722 177.884C150.722 177.884 155.029 183.067 160.567 178.938C160.567 178.938 163.116 174.897 161.533 172.262C159.951 169.627 155.908 161.106 155.908 161.106C155.908 161.106 164.961 154.869 169.356 153.375C173.839 151.794 176.212 150.565 176.212 150.565C176.212 150.565 175.421 154.781 172.169 158.822C168.917 162.95 163.467 169.451 165.313 174.107C167.159 178.674 168.213 180.08 169.884 182.715C171.554 185.351 173.224 190.885 174.63 191.412C176.124 192.027 182.804 192.642 183.859 188.249C184.914 183.857 181.574 175.336 180.079 172.525C180.079 172.525 198.274 151.531 199.944 149.247C201.614 146.963 162.412 134.226 156.787 137.827Z" fill="#24126A"/>
<path d="M161.445 172.262C159.863 169.627 155.82 161.106 155.82 161.106C155.82 161.106 164.873 154.869 169.268 153.375C173.751 151.794 176.124 150.565 176.124 150.565C177.003 149.423 179.728 144.855 180.958 141.341C170.675 138.354 159.6 136.07 156.787 137.827C157.754 140.287 163.028 140.287 163.028 140.287C163.028 140.287 164.961 145.03 166.28 145.645C167.598 146.26 170.675 145.557 170.675 145.557C170.675 145.557 170.147 146.348 167.95 147.929C165.752 149.51 151.953 160.842 151.953 160.842C151.953 160.842 152.744 161.281 156.435 167.958C160.127 174.634 160.566 179.026 160.566 179.026C160.566 179.026 163.028 174.985 161.445 172.262Z" fill="#160A5B"/>
<path d="M192.561 145.119C184.474 144.328 174.982 144.24 177.091 148.544C180.695 155.748 187.99 156.099 187.99 156.099C187.902 158.734 176.828 171.559 176.828 171.559C176.828 171.559 176.828 171.559 179.464 176.566C182.101 181.574 181.75 190.797 181.75 190.797C182.717 190.27 183.508 189.392 183.859 188.162C184.914 183.77 181.574 175.249 180.08 172.438C180.08 172.438 198.274 151.443 199.944 149.159C200.384 148.544 197.307 146.963 192.561 145.119Z" fill="#160A5B"/>
<path d="M142.548 100.845L144.745 99.1761C144.745 99.1761 156.435 92.6757 160.303 90.6553C162.412 89.5133 164.61 87.4929 166.104 85.9117C167.598 84.3305 169.708 83.4521 171.905 83.4521L192.297 83.3643C192.297 83.3643 194.67 87.1415 195.461 87.9321C196.077 88.4592 201.614 93.1149 205.569 96.98C207.767 99.0882 209.349 101.724 210.228 104.71C212.513 112.704 212.425 128.867 212.777 140.375C212.777 140.375 211.37 140.902 207.855 141.692C204.339 142.395 204.778 141.956 204.778 141.956C204.778 141.956 199.592 153.639 192.473 154.781C185.441 155.923 175.86 152.585 174.19 141.517C174.19 141.517 160.391 139.496 156.699 137.915C156.348 137.739 156.26 137.388 156.435 137.037C158.105 134.841 164.346 126.232 164.873 120.698C165.577 114.285 165.313 104.886 164.873 102.338C164.873 102.338 154.502 106.291 151.162 106.906C151.162 106.906 138.505 120.786 133.231 124.563C133.231 124.563 135.077 121.752 131.385 119.819L142.548 100.845Z" fill="#17BCB2"/>
<path d="M207.943 141.517C208.47 141.429 208.91 141.253 209.349 141.165L208.646 139.76L189.485 137.739L178.322 138.354L174.454 142.044C174.63 143.273 174.982 144.328 175.333 145.294C175.333 145.294 180.08 145.997 182.277 145.469C184.474 145.03 201.526 147.49 201.526 147.49C203.46 144.679 204.691 142.131 204.778 141.78C204.866 141.956 205.042 142.131 207.943 141.517Z" fill="#39335E"/>
<path d="M182.013 134.841C182.013 134.753 181.925 134.753 181.838 134.753C180.871 134.753 174.894 134.577 172.696 133.787C170.235 132.908 167.598 133.084 167.511 133.26C167.335 133.435 163.291 135.104 163.028 135.807C162.852 136.422 162.413 138.618 162.94 139.409C163.467 140.199 163.731 140.726 163.731 140.726L164.17 140.814C164.17 140.814 164.698 141.868 165.049 142.308C165.225 142.483 165.313 142.659 165.401 142.835C165.665 143.362 166.104 144.328 166.28 144.328C166.544 144.328 167.774 144.591 168.126 144.504C168.389 144.416 168.653 143.625 168.477 143.274C168.477 143.186 168.477 143.098 168.565 143.098C169.181 143.01 170.763 142.835 172.872 143.01C175.509 143.274 179.289 141.517 179.64 141.341C179.64 141.341 179.64 141.341 179.728 141.341L183.508 140.99C183.595 140.99 183.683 140.902 183.683 140.814L182.013 134.841Z" fill="#FCD1C5"/>
<path d="M177.531 95.3111C177.531 95.3111 174.366 107.082 177.707 119.205C177.707 119.205 190.012 96.2774 191.33 92.588C192.649 88.8986 193.176 86.2633 191.946 84.8578C190.715 83.5401 179.552 90.3919 179.552 90.3919L177.531 95.3111Z" fill="#F0F6FF"/>
<path d="M180.695 113.758C180.695 113.758 183.068 106.555 182.628 104.271C182.189 101.987 181.662 100.318 181.662 100.318L183.771 98.3851L184.738 100.318C184.738 100.318 189.396 96.8918 189.66 96.2769C189.66 96.2769 185.881 98.8243 184.738 99.2635C184.738 99.2635 184.211 98.3851 183.419 98.0337C182.716 97.6824 180.87 100.23 180.87 100.23L180.519 104.534L178.673 114.636L179.288 116.129L180.695 113.758Z" fill="#C4CCD6"/>
<path d="M178.673 95.3985C178.673 95.3985 178.233 100.054 178.585 100.318C178.937 100.669 180.431 100.669 181.046 100.318C181.749 99.9664 183.419 97.946 183.419 97.946C183.419 97.946 181.31 94.2565 178.673 95.3985Z" fill="#24126A"/>
<path d="M181.134 99.5273C181.134 99.5273 182.365 102.778 181.222 107.17C180.08 111.562 179.552 115.691 179.552 115.691L177.706 119.116C177.706 119.116 175.421 112.44 176.212 105.676C176.564 102.69 178.849 99.9666 178.849 99.9666L181.134 99.5273Z" fill="#24126A"/>
<path d="M171.817 76.5128C171.817 76.5128 171.29 79.4116 171.466 79.9387C171.642 80.4657 172.433 80.8171 172.257 81.9591C172.081 83.101 172.696 86.4391 173.048 87.4932C173.048 87.4932 172.784 88.723 173.136 89.0744C173.487 89.4258 173.927 89.4258 174.191 89.9528C174.542 90.4799 174.63 93.3787 175.773 94.345C176.915 95.3113 178.498 95.487 179.289 95.3113C180.08 95.1356 180.871 94.5207 180.871 94.5207L182.629 95.2234C182.629 95.2234 191.77 92.676 191.506 86.1756V85.4728C191.506 85.4728 192.121 84.5944 192.385 83.9795C192.561 83.3646 194.055 80.7293 193.352 79.5873C193.352 79.5873 196.868 65.6202 185.969 64.7418C174.894 63.9512 173.224 71.6814 171.817 76.5128Z" fill="#FCD1C5"/>
<path d="M191.418 86.2631C190.979 85.9118 190.539 85.7361 190.188 85.8239C188.957 86.0874 189.221 83.4521 189.221 83.4521C189.221 83.4521 188.957 83.8914 188.342 87.2294C187.726 90.5675 180.783 94.5204 180.783 94.5204L182.541 95.2232C182.541 95.2232 191.682 92.6757 191.418 86.2631Z" fill="#E2B1A6"/>
<path d="M171.817 70.4514C170.762 72.7353 170.235 75.4585 172.432 77.3032C172.432 77.3032 174.278 77.8302 177.882 76.1612C180.255 75.0192 182.716 75.5463 184.035 75.9855C184.65 76.1612 185.002 76.7761 185.002 77.391L184.914 79.4114C184.914 79.9385 185.177 80.3777 185.705 80.6412L187.375 81.344L187.726 83.2765C187.814 83.8036 188.43 84.155 188.957 83.9793L189.396 83.8036C189.396 83.8036 189.66 79.4993 193.176 79.6749C193.176 79.6749 196.076 73.4381 193.088 67.7282C190.1 62.0184 182.101 62.4576 180.343 63.0725C178.058 63.951 178.409 63.7753 177.091 64.5659C174.894 66.0592 172.96 67.9918 171.817 70.4514Z" fill="#39335E"/>
<path d="M200.911 114.285C200.911 114.285 199.241 126.495 198.538 129.921L193.176 132.732L202.669 132.117L200.911 114.285Z" fill="#17BCB2"/>
<path d="M193.176 79.6746C193.176 79.6746 194.143 77.5663 194.407 74.6675C190.012 78.1812 185.09 77.3906 185.09 77.3906L185.002 79.411C185.002 79.9381 185.265 80.3773 185.793 80.6408L187.463 81.3436L187.814 83.2761C187.902 83.8032 188.518 84.1546 189.045 83.9789L189.484 83.8032C189.397 83.7154 189.66 79.411 193.176 79.6746Z" fill="#39335E"/>
<path d="M195.549 90.3921C195.549 90.3921 192.737 100.143 192.122 101.987L189.836 101.724L190.276 104.798L177.97 120.962L191.594 105.325L191.067 102.602L193.176 102.778L195.549 90.3921Z" fill="#1A8C85"/>
<path d="M183.507 143.186C183.507 143.186 212.249 142.22 213.04 141.693C213.744 141.165 213.919 133.787 213.832 129.482C213.744 126.496 213.832 114.725 211.283 106.467C213.304 113.495 212.249 138.179 211.283 139.409C210.404 140.638 182.98 141.429 182.98 141.429C183.332 142.483 183.507 143.186 183.507 143.186Z" fill="#263649"/>
<path d="M126.99 120.17C126.99 120.17 126.902 120.873 125.672 121.576C124.441 122.279 121.189 123.86 120.662 124.299C120.134 124.738 117.849 126.759 117.761 127.022C117.673 127.286 116.97 129.57 116.97 129.745C116.97 129.921 117.234 130.975 117.234 130.975L116.531 134.401C116.531 134.401 115.652 135.719 116.619 136.07C117.585 136.421 118.201 135.367 118.201 135.279C118.201 135.279 119.695 134.577 120.75 133.698C121.804 132.82 126.199 129.306 126.902 129.57C127.606 129.745 126.99 131.063 126.639 131.239C126.287 131.414 124.002 133.698 124.969 135.279C125.936 136.861 126.551 134.401 127.254 133.874C127.869 133.347 129.276 131.414 130.155 131.151C131.033 130.887 132.528 127.725 132.704 126.319C132.879 124.914 133.934 124.035 134.286 123.508C134.637 123.069 133.495 119.555 133.495 119.555L129.188 118.238L127.693 119.204L126.99 120.17Z" fill="#FCD1C5"/>
<path d="M209.085 101.636C208.206 100.231 207.767 101.285 206.536 102.427C204.866 104.008 202.845 106.468 201.79 109.63C199.856 115.34 200.559 129.483 201.175 131.503C201.175 131.503 183.156 134.49 181.925 134.402C180.695 134.314 183.508 143.186 183.508 143.186C183.508 143.186 212.25 142.22 213.041 141.693C213.744 141.166 213.92 133.787 213.832 129.483C213.744 125.881 213.832 109.103 209.085 101.636Z" fill="#334659"/>
<path d="M183.508 143.186C183.508 143.186 212.25 142.22 213.041 141.693C213.744 141.166 213.92 133.787 213.832 129.483C213.744 126.496 213.832 114.725 211.283 106.468C213.304 113.495 212.25 138.179 211.283 139.409C210.404 140.639 182.98 141.429 182.98 141.429C183.332 142.484 183.508 143.186 183.508 143.186Z" fill="#263649"/>
<path d="M217.172 140.023C217.084 139.408 216.733 138.793 215.941 138.354L215.414 138.091C213.568 137.036 210.228 137.124 208.031 138.354L192.737 147.226C191.594 147.929 190.979 148.72 190.979 149.51V152.146C190.979 152.848 191.418 153.463 192.21 153.99L192.737 154.254C194.583 155.308 197.923 155.22 200.12 153.99L215.414 145.118C216.557 144.503 217.172 143.625 217.172 142.834V140.023Z" fill="#9D9BB4"/>
<path d="M70.893 126.11L60.3278 169.548L57.5867 169.231L64.0292 123.532L70.893 126.11Z" fill="#EDBF96"/>
<path d="M73.3263 127.382L61.6992 169.705L60.3279 169.548L70.8931 126.11L73.3263 127.382Z" fill="#D19865"/>
<path d="M180.028 194.378L169.463 237.816L166.722 237.499L173.165 191.8L180.028 194.378Z" fill="#EDBF96"/>
<path d="M182.462 195.65L170.835 237.973L169.464 237.815L180.029 194.377L182.462 195.65Z" fill="#D19865"/>
<path d="M225.934 168.116L232.895 212.506L233.829 211.538L228.256 166.258L225.934 168.116Z" fill="#EDBF96"/>
<path d="M220.129 169.973L231.507 212.505H232.895L225.934 167.883L220.129 169.973Z" fill="#D19865"/>
<path d="M192.737 151.707L192.209 151.444C190.363 150.389 190.539 148.457 192.737 147.227L208.031 138.355C210.228 137.125 213.48 136.949 215.414 138.091L215.941 138.355C217.787 139.409 217.611 141.342 215.414 142.571L200.12 151.444C197.923 152.673 194.582 152.849 192.737 151.707Z" fill="#CFCCDC"/>
<path opacity="0.5" d="M183.332 202.568L54.9155 128.428L105.28 99.4399L233.696 173.492L183.332 202.568Z" fill="url(#paint5_linear)"/>
<path d="M54.9155 123.948V128.428L183.332 202.568L233.696 173.491V169.011L183.332 198.088L54.9155 123.948Z" fill="url(#paint6_linear)"/>
<path d="M183.332 198.088L54.9155 123.948L105.28 94.8716L233.696 169.011L183.332 198.088Z" fill="url(#paint7_linear)"/>
<path d="M183.332 197.648L55.2671 123.772L54.9155 123.948L183.332 198.088L233.696 169.011L233.345 168.748L183.332 197.648Z" fill="#E1E1EF"/>
<path opacity="0.3" d="M168.038 143.889C168.038 143.889 171.642 145.206 174.367 144.679C177.091 144.24 190.364 143.977 190.364 143.977L188.254 142.747L183.596 139.497L172.081 140.287L167.599 141.868L168.038 143.889Z" fill="#180D5B"/>
<path d="M182.013 134.841C182.013 134.753 181.925 134.753 181.838 134.753C180.871 134.753 174.894 134.577 172.696 133.787C170.235 132.908 167.598 133.084 167.511 133.26C167.335 133.435 163.291 135.104 163.028 135.807C162.852 136.422 162.413 138.618 162.94 139.409C163.467 140.199 163.731 140.726 163.731 140.726L164.17 140.814C164.17 140.814 164.698 141.868 165.049 142.308C165.225 142.483 165.313 142.659 165.401 142.835C165.665 143.362 166.104 144.328 166.28 144.328C166.544 144.328 167.774 144.591 168.126 144.504C168.389 144.416 168.653 143.625 168.477 143.274C168.477 143.186 168.477 143.098 168.565 143.098C169.181 143.01 170.763 142.835 172.872 143.01C175.509 143.274 179.289 141.517 179.64 141.341C179.64 141.341 179.64 141.341 179.728 141.341L183.508 140.99C183.595 140.99 183.683 140.902 183.683 140.814L182.013 134.841Z" fill="#FCD1C5"/>
<path d="M209.085 101.636C208.206 100.231 207.767 101.285 206.536 102.427C204.866 104.008 202.845 106.468 201.79 109.63C199.856 115.34 200.559 129.483 201.175 131.503C201.175 131.503 183.156 134.49 181.925 134.402C180.695 134.314 183.508 143.186 183.508 143.186C183.508 143.186 212.25 142.22 213.041 141.693C213.744 141.166 213.92 133.787 213.832 129.483C213.744 125.881 213.832 109.103 209.085 101.636Z" fill="#1BC8BD"/>
<path d="M183.508 143.185C183.508 143.185 212.25 142.219 213.041 141.692C213.744 141.165 213.92 133.786 213.832 129.482C213.744 126.495 213.832 114.724 211.283 106.467C213.305 113.494 212.25 138.178 211.283 139.408C210.404 140.638 182.98 141.428 182.98 141.428C183.332 142.483 183.508 143.185 183.508 143.185Z" fill="#1A8C85"/>
<path opacity="0.3" d="M131.912 128.428C131.912 128.428 142.196 120.435 143.691 119.644C145.185 118.854 145.8 118.239 145.8 118.239L142.372 116.218L136.571 118.59L129.276 125.881L118.025 133.875V135.719C118.025 135.719 127.342 131.767 128.397 131.064C129.276 130.449 131.912 128.428 131.912 128.428Z" fill="#180D5B"/>
<path opacity="0.63" d="M125.848 135.719C125.848 135.719 128.045 133.787 129.452 133.084C130.858 132.469 133.143 130.712 133.407 129.395C133.671 128.077 136.044 125.09 136.044 125.09L132.264 127.286L126.815 130.449L117.761 135.719C117.761 135.719 118.289 136.334 119.431 135.983C120.574 135.632 122.684 134.226 123.738 134.138C124.705 134.05 126.375 133.699 126.375 133.699L125.848 135.719Z" fill="#2D2D2D"/>
<path d="M126.99 120.171C126.99 120.171 126.902 120.874 125.672 121.576C124.441 122.279 121.189 123.86 120.662 124.299C120.134 124.739 117.849 126.759 117.761 127.023C117.673 127.286 116.97 129.57 116.97 129.746C116.97 129.921 117.234 130.976 117.234 130.976L116.531 134.401C116.531 134.401 115.652 135.719 116.619 136.07C117.585 136.422 118.201 135.368 118.201 135.28C118.201 135.28 119.695 134.577 120.75 133.699C121.804 132.82 126.199 129.307 126.902 129.57C127.606 129.746 126.99 131.063 126.639 131.239C126.287 131.415 124.002 133.699 124.969 135.28C125.936 136.861 126.551 134.401 127.254 133.874C127.869 133.347 129.276 131.415 130.155 131.151C131.033 130.888 132.528 127.725 132.704 126.32C132.879 124.914 133.934 124.036 134.286 123.509C134.637 123.07 133.495 119.556 133.495 119.556L129.188 118.238L127.693 119.205L126.99 120.171Z" fill="#FCD1C5"/>
<path d="M166.016 96.4528C166.016 96.4528 165.841 90.0403 166.983 85.0332C166.72 85.2967 166.368 85.4724 166.104 85.8238C164.522 87.405 162.413 89.5132 160.303 90.5673C156.436 92.6756 144.745 99.0881 144.745 99.0881L142.548 100.757C135.692 106.116 128.045 117.799 126.99 120.083C127.518 119.38 128.924 118.238 131.561 119.556C135.165 121.488 133.495 124.387 133.495 124.387C138.769 120.61 151.338 106.643 151.338 106.643C154.414 106.028 163.731 102.514 164.962 102.075C165.577 100.318 166.016 98.3854 166.016 96.4528Z" fill="#1BC8BD"/>
<path d="M100.622 140.375L103.083 141.693L128.133 127.287C128.573 127.023 129.276 127.111 129.803 127.374L172.96 152.322C173.4 152.058 175.245 151.18 175.245 151.18L174.366 153.552C174.366 153.64 174.279 153.727 174.103 153.815L147.734 169.012C147.294 169.276 146.591 169.188 146.064 168.924L101.852 143.45C101.676 143.362 101.501 143.186 101.501 143.098L100.622 140.375Z" fill="#CDCADD"/>
<path d="M101.061 140.726L146.328 166.816C146.855 167.079 147.558 167.167 147.998 166.904L174.982 151.355C175.421 151.092 175.333 150.653 174.894 150.389L129.627 124.3C129.1 124.036 128.397 123.948 127.957 124.212L100.973 139.76C100.446 140.024 100.534 140.463 101.061 140.726Z" fill="#E1E1EF"/>
<path d="M101.061 140.463L146.327 166.553C146.855 166.816 147.558 166.904 147.997 166.64L174.981 151.092C175.157 151.004 175.245 150.917 175.245 150.829C175.333 151.004 175.245 151.268 174.981 151.356L147.997 166.904C147.558 167.168 146.855 167.08 146.327 166.816L101.061 140.727C100.709 140.551 100.621 140.287 100.709 140.024C100.709 140.2 100.797 140.375 101.061 140.463Z" fill="white"/>
<path d="M159.776 154.869L122.156 133.172C121.893 132.996 121.629 132.996 121.365 133.172L108.005 140.902C107.829 140.99 107.829 141.253 108.005 141.429L145.625 163.126C145.888 163.302 146.152 163.302 146.416 163.126L159.864 155.396C159.952 155.308 159.952 155.045 159.776 154.869Z" fill="#9D9BB4"/>
<path d="M159.775 155.396L159.6 155.484L122.156 133.875C121.892 133.699 121.629 133.699 121.365 133.875L108.093 141.517L107.917 141.429C107.741 141.341 107.741 141.078 107.917 140.902L121.277 133.172C121.541 132.996 121.804 132.996 122.068 133.172L159.688 154.869C159.951 155.045 159.951 155.308 159.775 155.396Z" fill="#9198DB"/>
<path d="M120.31 135.192L154.941 155.133L156.699 154.43L121.805 134.314L120.31 135.192Z" fill="#24126A"/>
<path d="M116.795 137.213L147.383 154.869L148.877 154.079L118.201 136.334L116.795 137.213Z" fill="#24126A"/>
<path d="M114.421 138.53L150.546 159.349L151.953 158.559L115.915 137.74L114.421 138.53Z" fill="#24126A"/>
<path d="M112.136 139.936L148.174 160.754L149.668 159.876L113.543 139.057L112.136 139.936Z" fill="#24126A"/>
<path d="M109.763 141.253L145.888 162.072L147.295 161.194L111.257 140.375L109.763 141.253Z" fill="#24126A"/>
<path d="M154.942 155.133L156.436 156.011L157.842 155.133L156.436 154.342L154.942 155.133Z" fill="#24126A"/>
<path d="M145.625 153.903L152.832 158.031L154.326 157.241L147.031 153.024L145.625 153.903Z" fill="#24126A"/>
<path d="M146.327 145.207L136.219 139.322C135.78 139.058 135.78 138.707 136.219 138.531L143.163 134.49C143.603 134.227 144.218 134.227 144.569 134.49L154.677 140.376C155.117 140.639 155.117 140.991 154.677 141.166L147.734 145.207C147.382 145.383 146.767 145.383 146.327 145.207Z" fill="#CFCCDC"/>
<path d="M154.766 140.727L144.658 134.842C144.219 134.578 143.603 134.578 143.252 134.842L136.308 138.882C136.22 138.97 136.132 139.058 136.044 139.146C135.956 138.97 136.044 138.707 136.308 138.531L143.252 134.49C143.691 134.227 144.306 134.227 144.658 134.49L154.766 140.376C155.03 140.551 155.118 140.727 155.03 140.991C154.942 140.815 154.854 140.727 154.766 140.727Z" fill="#9198DB"/>
<path d="M100.71 139.672L106.423 105.765L105.983 105.589L106.687 105.15C106.862 105.062 107.038 105.062 107.214 105.15L152.92 131.503C153.271 131.679 153.623 132.293 153.535 132.645L147.734 166.816C147.734 166.992 147.646 167.079 147.47 167.167L146.767 167.519L146.679 166.904L101.237 140.639C100.973 140.639 100.622 140.024 100.71 139.672Z" fill="#CFCCDC"/>
<path d="M152.656 132.557L153.447 132.206C153.535 132.381 153.535 132.557 153.535 132.733L147.734 166.904C147.734 167.079 147.646 167.167 147.47 167.255L146.767 167.606L146.679 166.992L144.394 165.674L152.656 132.557Z" fill="#9D9BB4"/>
<path d="M100.622 141.254L146.328 167.607C146.679 167.782 146.943 167.695 147.031 167.343L152.832 133.172C152.92 132.821 152.656 132.206 152.217 132.03L106.511 105.677C106.159 105.502 105.895 105.589 105.807 105.941L100.006 140.112C99.9184 140.463 100.182 140.99 100.622 141.254Z" fill="#F9F8FF"/>
<defs>
<linearGradient id="paint0_linear" x1="225.619" y1="-42.7405" x2="227.273" y2="153.801" gradientUnits="userSpaceOnUse">
<stop offset="0.16" stop-color="white"/>
<stop offset="1" stop-color="#41D4CC"/>
</linearGradient>
<linearGradient id="paint1_linear" x1="210.674" y1="-22.3701" x2="198.322" y2="189.586" gradientUnits="userSpaceOnUse">
<stop offset="0.16" stop-color="white"/>
<stop offset="1" stop-color="#FF9D33"/>
</linearGradient>
<linearGradient id="paint2_linear" x1="184.608" y1="177.703" x2="129.851" y2="191.075" gradientUnits="userSpaceOnUse">
<stop stop-color="#5761D7"/>
<stop offset="0.1779" stop-color="#5C66D9"/>
<stop offset="0.3876" stop-color="#6A73DF"/>
<stop offset="0.6134" stop-color="#8289E8"/>
<stop offset="0.849" stop-color="#A3A7F5"/>
<stop offset="1" stop-color="#BCBEFF"/>
</linearGradient>
<linearGradient id="paint3_linear" x1="185.016" y1="172.818" x2="245.64" y2="172.818" gradientUnits="userSpaceOnUse">
<stop stop-color="#5761D7"/>
<stop offset="0.1779" stop-color="#5C66D9"/>
<stop offset="0.3876" stop-color="#6A73DF"/>
<stop offset="0.6134" stop-color="#8289E8"/>
<stop offset="0.849" stop-color="#A3A7F5"/>
<stop offset="1" stop-color="#BCBEFF"/>
</linearGradient>
<linearGradient id="paint4_linear" x1="178.182" y1="171.513" x2="164.02" y2="157.815" gradientUnits="userSpaceOnUse">
<stop stop-color="#5761D7"/>
<stop offset="0.1779" stop-color="#5C66D9"/>
<stop offset="0.3876" stop-color="#6A73DF"/>
<stop offset="0.6134" stop-color="#8289E8"/>
<stop offset="0.849" stop-color="#A3A7F5"/>
<stop offset="1" stop-color="#BCBEFF"/>
</linearGradient>
<linearGradient id="paint5_linear" x1="54.8883" y1="150.979" x2="233.713" y2="150.979" gradientUnits="userSpaceOnUse">
<stop stop-color="#42E8E0"/>
<stop offset="0.1507" stop-color="#43E3E0"/>
<stop offset="0.3285" stop-color="#45D5DF"/>
<stop offset="0.5199" stop-color="#49BDDD"/>
<stop offset="0.7209" stop-color="#4E9CDB"/>
<stop offset="0.9274" stop-color="#5472D8"/>
<stop offset="1" stop-color="#5761D7"/>
</linearGradient>
<linearGradient id="paint6_linear" x1="237.706" y1="166.012" x2="-74.1132" y2="156.724" gradientUnits="userSpaceOnUse">
<stop stop-color="#A6A6E7"/>
<stop offset="1" stop-color="#EEEFFF"/>
</linearGradient>
<linearGradient id="paint7_linear" x1="192.28" y1="197.53" x2="120.672" y2="120.824" gradientUnits="userSpaceOnUse">
<stop stop-color="#E8EDFE"/>
<stop offset="1" stop-color="#EEF4FF"/>
</linearGradient>
</defs>
</svg>
