<svg width="107" height="100" viewBox="0 0 107 100" fill="none" xmlns="http://www.w3.org/2000/svg">
<path d="M54.75 100C76.8414 100 94.75 82.0914 94.75 60C94.75 37.9086 76.8414 20 54.75 20C32.6586 20 14.75 37.9086 14.75 60C14.75 82.0914 32.6586 100 54.75 100Z" fill="url(#paint0_linear)"/>
<path d="M53.5 10L8.5 86.25H53.5H98.5L53.5 10Z" stroke="#4D5152" stroke-width="2" stroke-miterlimit="10" stroke-linejoin="round"/>
<circle cx="8.5" cy="86.25" r="7.5" fill="white" stroke="#4D5152" stroke-width="2" stroke-miterlimit="10" stroke-linejoin="round"/>
<g clip-path="url(#clip0)">
<path d="M7.25 86.25H9.75" stroke="#4D5152" stroke-width="2" stroke-miterlimit="10" stroke-linejoin="round"/>
</g>
<circle cx="98.5" cy="86.25" r="7.5" fill="white" stroke="#4D5152" stroke-width="2" stroke-miterlimit="10" stroke-linejoin="round"/>
<g clip-path="url(#clip1)">
<path d="M97.25 86.25H99.75" stroke="#4D5152" stroke-width="2" stroke-miterlimit="10" stroke-linejoin="round"/>
</g>
<circle cx="53.5" cy="8.75" r="7.5" fill="white" stroke="#4D5152" stroke-width="2" stroke-miterlimit="10" stroke-linejoin="round"/>
<defs>
<linearGradient id="paint0_linear" x1="94.75" y1="100" x2="54.6914" y2="-2.80068" gradientUnits="userSpaceOnUse">
<stop stop-color="#36D4BE"/>
<stop offset="1" stop-color="#F2BB31"/>
</linearGradient>
<clipPath id="clip0">
<rect width="2.5" height="2.5" fill="white" transform="translate(7.25 85)"/>
</clipPath>
<clipPath id="clip1">
<rect width="2.5" height="2.5" fill="white" transform="translate(97.25 85)"/>
</clipPath>
</defs>
</svg>
