<svg width="70" height="70" viewBox="0 0 70 70" fill="none" xmlns="http://www.w3.org/2000/svg">
<path d="M10.9375 68.9062C16.3741 68.9062 20.7812 64.4991 20.7812 59.0625C20.7812 53.6259 16.3741 49.2188 10.9375 49.2188C5.50095 49.2188 1.09375 53.6259 1.09375 59.0625C1.09375 64.4991 5.50095 68.9062 10.9375 68.9062Z" fill="white"/>
<path d="M35 68.9062C40.4366 68.9062 44.8438 64.4991 44.8438 59.0625C44.8438 53.6259 40.4366 49.2188 35 49.2188C29.5634 49.2188 25.1562 53.6259 25.1562 59.0625C25.1562 64.4991 29.5634 68.9062 35 68.9062Z" fill="white"/>
<path d="M59.0625 25.1562C59.0625 27.5734 57.1047 29.5312 54.6875 29.5312H15.3125C12.8953 29.5312 10.9375 27.5734 10.9375 25.1562V5.46875C10.9375 3.05156 12.8953 1.09375 15.3125 1.09375H54.6875C57.1047 1.09375 59.0625 3.05156 59.0625 5.46875V25.1562Z" fill="white"/>
<path d="M59.0625 25.1562C59.0625 27.5734 57.1047 29.5312 54.6875 29.5312H15.3125C12.8953 29.5312 10.9375 27.5734 10.9375 25.1562V5.46875C10.9375 3.05156 12.8953 1.09375 15.3125 1.09375H54.6875C57.1047 1.09375 59.0625 3.05156 59.0625 5.46875V25.1562Z" stroke="#4D5152" stroke-width="2" stroke-miterlimit="10" stroke-linejoin="round"/>
<path d="M35 32.8125V45.9375" stroke="#4D5152" stroke-width="2" stroke-miterlimit="10" stroke-linejoin="round"/>
<path d="M9.84375 39.375H60.1562" stroke="#4D5152" stroke-width="2" stroke-miterlimit="10" stroke-linejoin="round"/>
<path d="M10.9375 45.9375V39.375" stroke="#4D5152" stroke-width="2" stroke-miterlimit="10" stroke-linejoin="round"/>
<path d="M59.0625 45.9375V39.375" stroke="#4D5152" stroke-width="2" stroke-miterlimit="10" stroke-linejoin="round"/>
<path d="M55.7812 24.0625C55.7812 25.2656 54.7969 26.25 53.5938 26.25H16.4062C15.2031 26.25 14.2188 25.2656 14.2188 24.0625V8.75C14.2188 7.54688 15.2031 4.375 16.4062 4.375H53.5938C54.7969 4.375 55.7812 7.54688 55.7812 8.75V24.0625Z" fill="url(#paint0_linear)"/>
<path d="M33.9062 15.3125H36.0938" stroke="#4D5152" stroke-width="2" stroke-miterlimit="10" stroke-linejoin="round"/>
<path d="M38.2812 15.3125H40.4688" stroke="#4D5152" stroke-width="2" stroke-miterlimit="10" stroke-linejoin="round"/>
<path d="M29.5312 15.3125H31.7188" stroke="#4D5152" stroke-width="2" stroke-miterlimit="10" stroke-linejoin="round"/>
<path d="M35 68.9062C40.4366 68.9062 44.8438 64.4991 44.8438 59.0625C44.8438 53.6259 40.4366 49.2188 35 49.2188C29.5634 49.2188 25.1562 53.6259 25.1562 59.0625C25.1562 64.4991 29.5634 68.9062 35 68.9062Z" stroke="#4D5152" stroke-width="2" stroke-miterlimit="10" stroke-linejoin="round"/>
<path d="M10.9375 68.9062C16.3741 68.9062 20.7812 64.4991 20.7812 59.0625C20.7812 53.6259 16.3741 49.2188 10.9375 49.2188C5.50095 49.2188 1.09375 53.6259 1.09375 59.0625C1.09375 64.4991 5.50095 68.9062 10.9375 68.9062Z" stroke="#4D5152" stroke-width="2" stroke-miterlimit="10" stroke-linejoin="round"/>
<path d="M59.0625 68.9062C64.4991 68.9062 68.9062 64.4991 68.9062 59.0625C68.9062 53.6259 64.4991 49.2188 59.0625 49.2188C53.6259 49.2188 49.2188 53.6259 49.2188 59.0625C49.2188 64.4991 53.6259 68.9062 59.0625 68.9062Z" fill="white"/>
<path d="M59.0625 68.9062C64.4991 68.9062 68.9062 64.4991 68.9062 59.0625C68.9062 53.6259 64.4991 49.2188 59.0625 49.2188C53.6259 49.2188 49.2188 53.6259 49.2188 59.0625C49.2188 64.4991 53.6259 68.9062 59.0625 68.9062Z" stroke="#4D5152" stroke-width="2" stroke-miterlimit="10" stroke-linejoin="round"/>
<defs>
<linearGradient id="paint0_linear" x1="55.7812" y1="26.25" x2="49.4089" y2="-4.82093" gradientUnits="userSpaceOnUse">
<stop stop-color="#36D4BE"/>
<stop offset="1" stop-color="#F2BB31"/>
</linearGradient>
</defs>
</svg>
