<svg width="7" height="6" viewBox="0 0 7 6" fill="none" xmlns="http://www.w3.org/2000/svg">
<path d="M3.21987 5.24655H5.26493C5.26493 5.24655 5.26493 4.47397 5.15131 4.15585C5.06042 3.88318 4.37874 3.67867 3.67433 3.406V2.83792C3.67433 2.83792 3.90155 2.70159 3.90155 2.15624C4.12878 2.15624 4.12878 1.70178 3.90155 1.70178C3.90155 1.65633 4.15151 1.31549 4.08334 1.02009C3.96972 0.588355 2.67452 0.588355 2.5609 1.02009C2.01555 0.906476 2.31095 1.63361 2.31095 1.70178V2.15624C2.31095 2.70159 2.76541 2.83792 2.76541 2.83792V3.406C2.12917 3.65595 1.37931 3.86045 1.28842 4.15585C1.1748 4.47397 1.1748 5.24655 1.1748 5.24655H3.21987Z" stroke="white" stroke-width="0.340844" stroke-miterlimit="10" stroke-linejoin="round"/>
<path d="M5.15165 5.24655H6.17418C6.17418 5.24655 6.17418 4.47397 6.06056 4.15585C5.96967 3.88317 5.28798 3.56505 4.58357 3.29238V2.95153C4.58357 2.95153 4.8108 2.8152 4.8108 2.26985C5.03803 2.26985 5.03803 1.81539 4.8108 1.81539C4.8108 1.76994 5.06075 1.38365 4.99259 1.08825C4.94714 0.883748 4.5154 0.565627 4.17456 0.792856" stroke="white" stroke-width="0.340844" stroke-miterlimit="10" stroke-linecap="round" stroke-linejoin="round"/>
</svg>
