<svg width="89" height="90" viewBox="0 0 89 90" fill="none" xmlns="http://www.w3.org/2000/svg">
<g clip-path="url(#clip0)">
<path d="M53.5804 53.5804L44.125 56.7322L34.6697 53.5804V47.2769L44.125 48.8527L53.5804 47.2769V53.5804Z" fill="white"/>
<path d="M59.884 61.46C70.9152 67.7635 86.6741 66.1876 86.6741 81.9466V88.2501H1.57593V81.9466C1.57593 66.1876 17.3349 67.7635 28.3661 61.46" fill="url(#paint0_linear)"/>
<path d="M50.4285 69.3395L44.1249 63.0359L37.8213 69.3395L28.366 61.46L31.5178 53.5806L44.1249 56.7324L56.732 53.5806L59.8838 61.46L50.4285 69.3395Z" fill="white"/>
<path d="M26.7903 22.0624C26.7903 12.4495 34.5122 7.87939 44.1251 7.87939C53.738 7.87939 61.4599 12.4495 61.4599 22.0624L53.5805 25.2142L44.1251 22.0624L34.6697 18.9106L26.7903 22.0624Z" fill="#FFB957"/>
<path d="M61.4599 22.0624V31.5178C59.884 42.549 53.5805 47.2767 53.5805 47.2767C50.4287 48.8526 44.1251 48.8526 44.1251 48.8526C44.1251 48.8526 37.8215 48.8526 34.6697 47.2767C34.6697 47.2767 28.3662 42.549 26.7903 31.5178V22.0624L34.6697 18.9106L44.1251 22.0624L53.5805 25.2142L61.4599 22.0624Z" fill="white"/>
<path d="M26.7901 37.8214C22.3776 37.8214 18.9106 34.3545 18.9106 29.942C18.9106 25.5295 22.3776 22.0625 26.7901 22.0625" fill="url(#paint1_linear)"/>
<path d="M61.4597 22.0625C65.8722 22.0625 69.3392 25.5295 69.3392 29.942C69.3392 34.3545 65.8722 37.8214 61.4597 37.8214" fill="url(#paint2_linear)"/>
<path d="M59.884 61.46C70.9152 67.7635 86.6741 66.1876 86.6741 81.9466V88.2501H1.57593V81.9466C1.57593 66.1876 17.3349 67.7635 28.3661 61.46" stroke="#4D5152" stroke-width="2" stroke-miterlimit="10"/>
<path d="M50.4285 69.3395L44.1249 63.0359L37.8213 69.3395L28.366 61.46L31.5178 53.5806L44.1249 56.7324L56.732 53.5806L59.8838 61.46L50.4285 69.3395Z" stroke="#4D5152" stroke-width="2" stroke-miterlimit="10"/>
<path d="M53.5803 47.2769V53.5804" stroke="#4D5152" stroke-width="2" stroke-miterlimit="10"/>
<path d="M34.6697 53.5804V47.2769" stroke="#4D5152" stroke-width="2" stroke-miterlimit="10"/>
<path d="M61.4599 22.0625V31.5179C59.884 42.5491 53.5805 47.2768 53.5805 47.2768C50.4287 48.8527 44.1251 48.8527 44.1251 48.8527C44.1251 48.8527 37.8215 48.8527 34.6697 47.2768C34.6697 47.2768 28.3662 42.5491 26.7903 31.5179V22.0625" stroke="#4D5152" stroke-width="2" stroke-miterlimit="10"/>
<path d="M26.7903 22.0624C26.7903 12.4495 34.5122 7.87939 44.1251 7.87939C53.738 7.87939 61.4599 12.4495 61.4599 22.0624" stroke="#4D5152" stroke-width="2" stroke-miterlimit="10"/>
<path d="M61.4597 22.0625C65.8722 22.0625 69.3392 25.5295 69.3392 29.942C69.3392 34.3545 65.8722 37.8214 61.4597 37.8214" stroke="#4D5152" stroke-width="2" stroke-miterlimit="10"/>
<path d="M20.4866 25.2141C20.4866 9.45515 31.0451 1.57568 44.125 1.57568C57.2049 1.57568 67.7634 9.45515 67.7634 25.2141" stroke="#4D5152" stroke-width="2" stroke-miterlimit="10"/>
<path d="M44.125 40.9731C58.308 40.9731 61.4598 37.8213 61.4598 37.8213" stroke="#4D5152" stroke-width="2" stroke-miterlimit="10"/>
<path d="M42.5491 81.9463H45.7009" stroke="#4D5152" stroke-width="2" stroke-miterlimit="10"/>
<path d="M42.5491 75.6431H45.7009" stroke="#4D5152" stroke-width="2" stroke-miterlimit="10"/>
<path d="M28.366 37.8214H26.7901C22.3776 37.8214 18.9106 34.3545 18.9106 29.942C18.9106 25.5295 22.3776 22.0625 26.7901 22.0625" stroke="#4D5152" stroke-width="2" stroke-miterlimit="10"/>
<path d="M26.7903 22.0624L34.6697 18.9106L44.1251 22.0624L53.5805 25.2142L61.4599 22.0624" stroke="#4D5152" stroke-width="2" stroke-miterlimit="10"/>
</g>
<defs>
<linearGradient id="paint0_linear" x1="86.6741" y1="88.2501" x2="81.8819" y2="49.1851" gradientUnits="userSpaceOnUse">
<stop stop-color="#36D4BE"/>
<stop offset="1" stop-color="#F2BB31"/>
</linearGradient>
<linearGradient id="paint1_linear" x1="26.7901" y1="37.8214" x2="15.4807" y2="23.3101" gradientUnits="userSpaceOnUse">
<stop stop-color="#36D4BE"/>
<stop offset="1" stop-color="#F2BB31"/>
</linearGradient>
<linearGradient id="paint2_linear" x1="69.3392" y1="37.8214" x2="58.0298" y2="23.3101" gradientUnits="userSpaceOnUse">
<stop stop-color="#36D4BE"/>
<stop offset="1" stop-color="#F2BB31"/>
</linearGradient>
<clipPath id="clip0">
<rect width="88.25" height="89.8259" fill="white"/>
</clipPath>
</defs>
</svg>
