<svg width="660" height="475" viewBox="0 0 660 475" fill="none" xmlns="http://www.w3.org/2000/svg">
<path d="M9.04525 254.273L50.2286 229.315L51.1913 228.717L120.592 186.627L121.545 186.029L181.654 149.594C184.412 147.911 187.578 147.014 190.809 147C194.04 146.986 197.214 147.855 199.987 149.513L264.78 188L265.764 188.598L322.078 222.041C324.814 223.67 327.937 224.534 331.121 224.543C334.305 224.552 337.433 223.705 340.178 222.091L346.546 218.369L347.18 217.995L399.551 187.324L399.688 187.243L400.534 186.75L461.354 151.136C464.107 149.517 467.245 148.67 470.439 148.684C473.633 148.698 476.763 149.573 479.502 151.217L538.997 186.795L539.972 187.369L610.801 229.739L611.776 230.337L650.535 253.513C662.745 260.814 662.733 279.06 650.514 286.343L608.711 311.233L607.749 311.831L539.733 352.395L538.77 352.969L469.615 394.21L468.652 394.784L398.693 436.517L397.718 437.115L339.263 471.981C336.514 473.63 333.369 474.502 330.164 474.506C326.958 474.51 323.811 473.644 321.058 472.002L262.161 437.1L261.177 436.502L190.058 394.314L189.083 393.74L120.619 353.146L119.635 352.548L54.1631 313.729L53.1795 313.131L9.20072 287.061C-2.99734 279.841 -3.08404 261.624 9.04525 254.273Z" fill="#F9F8FF"/>
<path opacity="0.45" d="M550.532 316.353L425.595 388.042C421.905 390.162 417.713 391.284 413.442 391.294C409.172 391.303 404.975 390.201 401.275 388.097L182.039 252.253C165.843 243.035 173.299 235.209 189.535 226.063L290.572 169.145C294.211 167.097 298.326 166.013 302.515 166C306.705 165.987 310.827 167.045 314.478 169.07L533.093 291.373C549.408 300.425 566.715 307.053 550.532 316.353Z" fill="#E1E1EF"/>
<path opacity="0.3" d="M399.29 187.163L399.553 187.001L399.679 187.234L400.528 186.738L469.408 227.939L470.374 228.513L541.212 270.884L542.184 271.47L608.699 311.248L607.736 311.834L541.212 272.044L540.238 271.461L469.399 229.09L468.433 228.513L399.816 187.476L399.544 187.315L399.29 187.163Z" fill="#908ABC"/>
<path opacity="0.3" d="M318.394 221.171L318.882 220.304L330.993 227.545L331.977 228.131L400.136 268.907L401.111 269.481L471.94 311.852L472.912 312.438L539.72 352.398L538.758 352.972L471.94 313.012L470.966 312.429L400.136 270.059H400.127L399.165 269.481L331.002 228.717L330.018 228.122L318.394 221.171Z" fill="#908ABC"/>
<path opacity="0.3" d="M120.592 186.627L121.545 186.041L194.408 229.623L195.383 230.209L260.582 269.2L261.557 269.786L329.729 310.551L330.691 311.137H330.7L401.53 353.499L402.504 354.082L469.603 394.213L468.64 394.787H468.631L401.53 354.656L400.558 354.073L329.717 311.711L328.754 311.125L260.582 270.36L259.611 269.774L194.408 230.783L193.436 230.2L120.592 186.627Z" fill="#908ABC"/>
<path opacity="0.3" d="M50.2283 229.3L51.191 228.717L123.16 271.751L124.143 272.337L189.337 311.329L190.309 311.915H190.318L258.48 352.691L259.455 353.265L330.281 395.636L331.265 396.222L398.659 436.523L397.685 437.109L330.281 396.796L329.301 396.21L258.471 353.851L257.497 353.265L189.337 312.498L188.353 311.915L123.16 272.923L122.176 272.337L50.2283 229.3Z" fill="#908ABC"/>
<path opacity="0.3" d="M261.177 436.502L329.301 396.21L330.281 395.636L400.558 354.073L401.529 353.499L470.966 312.429L471.94 311.852L540.237 271.461L541.212 270.884L610.783 229.733L611.758 230.319L542.184 271.47L541.212 272.044L472.912 312.438L471.94 313.012L402.504 354.081L401.529 354.656L331.265 396.222L330.281 396.796L262.161 437.088L261.177 436.502Z" fill="#908ABC"/>
<path opacity="0.3" d="M189.074 393.74L257.497 353.265L258.481 352.691L328.754 311.125L329.729 310.551L399.165 269.481L400.136 268.907L468.434 228.513L469.408 227.939L538.982 186.789L539.954 187.363L470.374 228.513L469.399 229.09L401.111 269.481L400.136 270.059H400.128L330.7 311.137H330.691L329.717 311.711L259.455 353.265L258.472 353.851L190.058 394.314H190.046L189.074 393.74Z" fill="#908ABC"/>
<path opacity="0.3" d="M119.637 352.56L188.353 311.915L189.337 311.329L259.61 269.774L260.582 269.2L330.018 228.122L330.993 227.545L346.542 218.357L347.173 217.984L399.29 187.162L399.553 187.001L399.679 187.234L399.816 187.476L400.04 187.877L331.976 228.131L331.002 228.717L261.556 269.786L260.582 270.36L190.317 311.915H190.308L189.337 312.498L120.618 353.143L119.637 352.56Z" fill="#908ABC"/>
<path opacity="0.3" d="M53.1796 313.143L122.176 272.337L123.16 271.751L193.436 230.2L194.408 229.623L264.78 188L265.764 188.586L195.383 230.208L194.408 230.783L124.144 272.337L123.16 272.923L54.1632 313.729L53.1796 313.143Z" fill="#908ABC"/>
<path d="M444.307 298.039C447.657 298.039 450.373 295.324 450.373 291.976C450.373 288.628 447.657 285.914 444.307 285.914C440.957 285.914 438.241 288.628 438.241 291.976C438.241 295.324 440.957 298.039 444.307 298.039Z" fill="#24126A"/>
<path d="M504.788 229.57C508.138 229.57 510.854 226.855 510.854 223.507C510.854 220.159 508.138 217.445 504.788 217.445C501.438 217.445 498.722 220.159 498.722 223.507C498.722 226.855 501.438 229.57 504.788 229.57Z" fill="#24126A"/>
<path d="M517.991 276.285C521.341 276.285 524.057 273.571 524.057 270.223C524.057 266.875 521.341 264.161 517.991 264.161C514.64 264.161 511.925 266.875 511.925 270.223C511.925 273.571 514.64 276.285 517.991 276.285Z" fill="#24126A"/>
<path d="M385.253 264.696C388.603 264.696 391.319 261.981 391.319 258.633C391.319 255.285 388.603 252.571 385.253 252.571C381.902 252.571 379.187 255.285 379.187 258.633C379.187 261.981 381.902 264.696 385.253 264.696Z" fill="#24126A"/>
<path d="M423.254 223.329C426.604 223.329 429.32 220.615 429.32 217.267C429.32 213.918 426.604 211.204 423.254 211.204C419.904 211.204 417.188 213.918 417.188 217.267C417.188 220.615 419.904 223.329 423.254 223.329Z" fill="#24126A"/>
<path d="M453.049 239.911L385.61 252.927C385.253 252.927 385.074 252.927 384.718 253.106V252.749L381.506 251.858V255.602C381.506 255.78 381.506 255.959 381.506 256.137C381.863 257.563 384.361 258.633 386.858 258.455L454.298 245.439L453.049 239.911Z" fill="url(#paint0_linear)"/>
<path d="M509.427 216.91L507.286 218.693C505.502 217.98 502.826 218.158 501.042 219.228L453.049 240.09L459.829 244.012L507.821 223.151C508.892 222.437 509.427 221.724 509.427 220.833V216.91Z" fill="url(#paint1_linear)"/>
<path d="M427.893 212.096C426.644 210.669 423.79 210.134 421.47 210.848C421.114 210.848 420.935 211.026 420.757 211.204C420.578 211.026 420.578 210.848 420.4 210.669C420.043 210.313 418.973 209.599 418.973 209.599V213.344C418.973 213.701 419.151 214.057 419.508 214.592L450.552 242.942L459.115 240.446L427.893 212.096Z" fill="url(#paint2_linear)"/>
<path d="M522.273 263.804L521.202 264.161L520.489 265.587C520.31 265.409 519.953 265.409 519.597 265.23L458.758 240.446L454.476 245.26L515.315 270.045C517.634 270.758 520.489 270.223 521.738 268.797C522.094 268.44 522.273 267.905 522.273 267.548V263.804Z" fill="#9D9BB4"/>
<path d="M450.373 242.942L440.382 285.736L439.668 285.379V289.302C439.846 290.55 441.452 291.62 443.593 291.798C446.269 291.976 448.589 291.085 448.945 289.48L459.65 243.656L450.373 242.942Z" fill="#E1E1EF"/>
<path d="M519.775 261.486L463.397 238.485L508 219.05C509.962 217.98 510.141 216.197 508.535 215.127L508 214.77C506.216 213.7 503.183 213.879 501.22 215.127L456.617 234.562L427.893 208.351C426.644 206.925 423.79 206.39 421.47 207.103C419.151 207.816 418.259 209.421 419.329 210.848L448.054 237.058L385.431 249.183C382.755 249.361 381.149 250.788 381.506 252.393C381.863 253.819 384.361 254.889 386.858 254.71L449.481 242.586L439.49 285.022C439.133 286.449 440.917 287.875 443.415 288.232C446.091 288.41 448.41 287.519 448.767 285.914L458.758 243.477L515.136 266.479C517.456 267.192 520.31 266.657 521.559 265.23C522.986 263.804 522.094 262.021 519.775 261.486ZM457.331 238.485L456.26 239.733L453.941 239.555L453.584 238.306L455.725 237.772L457.331 238.485Z" fill="#E1E1EF"/>
<path d="M455.368 242.051C452.692 242.051 450.373 239.911 450.373 237.058V180.179H460.185V237.058C460.185 239.911 458.044 242.051 455.368 242.051Z" fill="#24126A"/>
<path d="M429.142 112.602C428.963 111.354 428.25 110.105 426.644 109.214L425.573 108.679C421.827 106.539 415.047 106.718 410.587 109.214L379.543 127.223C377.224 128.649 375.975 130.254 375.975 131.859V137.208C375.975 138.634 376.867 139.882 378.473 140.952L379.543 141.487C383.29 143.627 390.07 143.448 394.53 140.952L425.573 122.943C427.893 121.695 429.142 119.912 429.142 118.307V112.602Z" fill="#9D9BB4"/>
<path d="M379.543 136.316L378.473 135.781C374.726 133.642 375.083 129.719 379.543 127.223L410.587 109.214C415.047 106.718 421.648 106.361 425.573 108.679L426.644 109.214C430.391 111.354 430.034 115.276 425.573 117.773L394.53 135.781C389.891 138.278 383.29 138.456 379.543 136.316Z" fill="#CFCCDC"/>
<path d="M445.377 161.279L380.257 198.901C377.046 200.684 374.369 198.723 374.369 194.444C374.369 190.164 377.046 185.172 380.257 183.21L454.833 140.239V143.27C454.833 150.224 450.551 158.248 445.377 161.279Z" fill="#515151"/>
<path d="M450.194 0.804862C447.875 -0.443269 445.02 -0.264976 441.809 1.51807L439.846 2.58791C432.71 6.68891 426.822 17.9221 426.822 27.5505V156.286L444.128 146.301V150.402L423.433 167.341L376.332 198.901L442.701 236.345L480.881 207.103L502.647 188.56L516.207 37.8922L450.194 0.804862Z" fill="#E1E1EF"/>
<path d="M401.488 213.522C401.488 213.522 399.704 208.886 403.272 205.32C406.84 201.754 425.038 194.087 426.466 193.374C427.714 192.482 434.316 187.668 434.316 187.668L436.278 183.21C436.278 183.21 398.99 186.776 398.633 187.49C398.098 188.025 381.149 203.18 381.684 203.894C382.22 204.607 393.281 207.281 393.281 207.281L395.422 210.313L401.488 213.522Z" fill="#2D2D2D"/>
<path d="M507.821 38.9619L505.859 40.0318C498.722 44.1328 492.835 55.3659 492.835 64.9944V193.73L446.269 220.654C443.058 222.437 440.382 227.43 440.382 231.887C440.382 236.167 443.058 238.128 446.269 236.345L511.39 198.723C516.563 195.692 520.845 187.668 520.845 180.536V177.505V48.7687C520.845 39.1402 514.958 34.8609 507.821 38.9619Z" fill="#B5B3C9"/>
<path d="M384.004 241.338C384.004 241.338 374.369 247.578 371.158 251.144C367.946 254.71 361.524 262.199 364.2 265.765C366.876 269.331 375.797 271.293 385.431 262.378C395.065 253.462 392.389 252.927 400.417 248.648C408.624 244.19 410.765 239.555 409.873 236.702C408.803 234.027 404.878 229.213 402.558 230.283C400.239 231.353 384.004 241.338 384.004 241.338Z" fill="#160A5B"/>
<path d="M421.68 262.984C421.68 262.984 418.29 270.651 416.506 273.147C414.722 275.643 406.158 290.086 410.618 293.474C415.078 296.861 423.642 295.97 430.422 288.659C437.201 281.349 438.629 272.434 440.234 269.581C441.84 266.728 446.122 258.883 444.159 254.425C442.197 249.967 441.84 249.076 441.84 249.076L421.68 262.984Z" fill="#160A5B"/>
<path d="M395.779 159.317C395.779 159.317 367.233 187.49 362.594 201.576C362.594 201.576 360.632 209.243 366.163 215.127C371.693 221.189 383.469 240.624 383.469 240.624C383.469 240.624 392.211 251.144 403.451 242.764C403.451 242.764 408.625 234.562 405.413 229.213C402.202 223.864 393.995 206.568 393.995 206.568C393.995 206.568 412.371 193.909 421.292 190.877C430.391 187.668 435.208 185.172 435.208 185.172C435.208 185.172 433.602 193.73 427.001 201.932C420.4 210.313 409.338 223.507 413.085 232.957C416.831 242.229 418.972 245.082 422.362 250.431C425.752 255.78 429.142 267.013 431.996 268.083C435.029 269.331 448.589 270.58 450.73 261.664C452.871 252.749 446.091 235.453 443.058 229.748C443.058 229.748 479.989 187.133 483.379 182.497C486.769 177.861 407.197 152.007 395.779 159.317Z" fill="#24126A"/>
<path d="M405.235 229.213C402.023 223.864 393.816 206.568 393.816 206.568C393.816 206.568 412.193 193.908 421.113 190.877C430.212 187.668 435.029 185.172 435.029 185.172C436.813 182.854 442.344 173.582 444.842 166.45C423.968 160.387 401.488 155.751 395.779 159.317C397.741 164.31 408.446 164.31 408.446 164.31C408.446 164.31 412.371 173.938 415.047 175.187C417.723 176.435 423.968 175.008 423.968 175.008C423.968 175.008 422.897 176.613 418.437 179.822C413.977 183.032 385.966 206.033 385.966 206.033C385.966 206.033 387.572 206.925 395.065 220.476C402.558 234.027 403.45 242.942 403.45 242.942C403.45 242.942 408.446 234.74 405.235 229.213Z" fill="#160A5B"/>
<path d="M468.392 174.117C451.978 172.512 432.71 172.334 436.992 181.071C444.307 195.692 459.115 196.405 459.115 196.405C458.936 201.754 436.457 227.786 436.457 227.786C436.457 227.786 436.457 227.786 441.809 237.95C447.161 248.113 446.448 266.835 446.448 266.835C448.41 265.765 450.016 263.982 450.73 261.486C452.87 252.571 446.091 235.275 443.058 229.57C443.058 229.57 479.989 186.955 483.379 182.319C484.271 181.071 478.026 177.861 468.392 174.117Z" fill="#160A5B"/>
<path d="M366.876 84.2512L371.336 80.8634C371.336 80.8634 395.065 67.6689 402.915 63.5679C407.197 61.2499 411.657 57.1489 414.69 53.9395C417.723 50.73 422.005 48.9469 426.466 48.9469L467.857 48.7686C467.857 48.7686 472.674 56.4357 474.28 58.0405C475.529 59.1103 486.769 68.5604 494.797 76.4058C499.257 80.6851 502.469 86.0343 504.253 92.0966C508.892 108.322 508.713 141.13 509.427 164.488C509.427 164.488 506.572 165.558 499.436 167.163C492.299 168.589 493.191 167.698 493.191 167.698C493.191 167.698 482.665 191.412 468.214 193.73C453.941 196.048 434.494 189.273 431.104 166.806C431.104 166.806 403.094 162.705 395.6 159.496C394.887 159.139 394.708 158.426 395.065 157.713C398.455 153.255 411.122 135.781 412.193 124.548C413.62 111.532 413.085 92.4532 412.193 87.2824C412.193 87.2824 391.14 95.3061 384.36 96.5542C384.36 96.5542 358.669 124.726 347.965 132.393C347.965 132.393 351.711 126.688 344.218 122.765L366.876 84.2512Z" fill="#17BCB2"/>
<path d="M499.614 166.806C500.685 166.628 501.577 166.271 502.469 166.093L501.042 163.24L462.148 159.139L439.49 160.387L431.64 167.876C431.996 170.372 432.71 172.512 433.424 174.473C433.424 174.473 443.058 175.9 447.518 174.83C451.979 173.938 486.59 178.931 486.59 178.931C490.515 173.225 493.013 168.054 493.192 167.341C493.37 167.698 493.727 168.054 499.614 166.806Z" fill="#39335E"/>
<path d="M446.983 153.255C446.983 153.077 446.805 153.077 446.626 153.077C444.664 153.077 432.532 152.72 428.071 151.115C423.076 149.332 417.723 149.689 417.545 150.046C417.188 150.402 408.981 153.79 408.446 155.216C408.089 156.465 407.197 160.922 408.268 162.527C409.338 164.132 409.873 165.202 409.873 165.202L410.765 165.38C410.765 165.38 411.836 167.519 412.55 168.411C412.906 168.768 413.085 169.124 413.263 169.481C413.798 170.551 414.69 172.512 415.047 172.512C415.583 172.512 418.08 173.047 418.794 172.869C419.329 172.69 419.864 171.086 419.508 170.372C419.508 170.194 419.508 170.016 419.686 170.016C420.935 169.837 424.146 169.481 428.428 169.837C433.781 170.372 441.452 166.806 442.166 166.45C442.166 166.45 442.166 166.45 442.344 166.45L450.016 165.736C450.194 165.736 450.373 165.558 450.373 165.38L446.983 153.255Z" fill="#FCD1C5"/>
<path d="M437.884 73.018C437.884 73.018 431.461 96.9108 438.241 121.517C438.241 121.517 463.218 74.9793 465.894 67.4906C468.571 60.0018 469.641 54.6526 467.143 51.7998C464.646 49.1252 441.987 63.0329 441.987 63.0329L437.884 73.018Z" fill="#F0F6FF"/>
<path d="M444.307 110.462C444.307 110.462 449.124 95.841 448.232 91.2051C447.34 86.5692 446.269 83.1814 446.269 83.1814L450.551 79.2587L452.514 83.1814C452.514 83.1814 461.969 76.2275 462.505 74.9794C462.505 74.9794 454.833 80.1502 452.514 81.0417C452.514 81.0417 451.443 79.2587 449.837 78.5455C448.41 77.8322 444.663 83.0031 444.663 83.0031L443.95 91.74L440.203 112.245L441.452 115.276L444.307 110.462Z" fill="#C4CCD6"/>
<path d="M440.203 73.1964C440.203 73.1964 439.311 82.6465 440.025 83.1814C440.739 83.8947 443.772 83.8947 445.02 83.1814C446.448 82.4682 449.838 78.3672 449.838 78.3672C449.838 78.3672 445.556 70.8784 440.203 73.1964Z" fill="#24126A"/>
<path d="M445.199 81.5767C445.199 81.5767 447.697 88.1739 445.377 97.0892C443.058 106.004 441.987 114.385 441.987 114.385L438.241 121.339C438.241 121.339 433.602 107.787 435.208 94.058C435.921 87.9956 440.56 82.4682 440.56 82.4682L445.199 81.5767Z" fill="#24126A"/>
<path d="M426.287 34.8609C426.287 34.8609 425.217 40.7449 425.573 41.8147C425.93 42.8846 427.536 43.5978 427.179 45.9157C426.822 48.2337 428.071 55.0093 428.785 57.1489C428.785 57.1489 428.25 59.6452 428.963 60.3584C429.677 61.0716 430.569 61.0716 431.104 62.1414C431.818 63.2113 431.996 69.0953 434.316 71.0567C436.635 73.018 439.846 73.3746 441.452 73.018C443.058 72.6614 444.663 71.4133 444.663 71.4133L448.232 72.8397C448.232 72.8397 466.786 67.6689 466.251 54.4744V53.0479C466.251 53.0479 467.5 51.2649 468.035 50.0167C468.392 48.7686 471.425 43.4195 469.998 41.1015C469.998 41.1015 477.134 12.7511 455.011 10.968C432.531 9.3633 429.142 25.0541 426.287 34.8609Z" fill="#FCD1C5"/>
<path d="M466.073 54.6528C465.181 53.9395 464.289 53.5829 463.575 53.7612C461.077 54.2962 461.613 48.947 461.613 48.947C461.613 48.947 461.077 49.8385 459.828 56.6141C458.58 63.3897 444.485 71.4134 444.485 71.4134L448.053 72.8398C448.053 72.8398 466.608 67.669 466.073 54.6528Z" fill="#E2B1A6"/>
<path d="M426.287 22.5579C424.146 27.1938 423.076 32.7212 427.536 36.4656C427.536 36.4656 431.283 37.5354 438.597 34.1477C443.415 31.8297 448.41 32.8995 451.086 33.7911C452.335 34.1477 453.049 35.3958 453.049 36.6439L452.87 40.7449C452.87 41.8147 453.406 42.7063 454.476 43.2412L457.866 44.6676L458.579 48.5903C458.758 49.6601 460.007 50.3734 461.077 50.0168L461.969 49.6601C461.969 49.6601 462.505 40.9232 469.641 41.2798C469.641 41.2798 475.529 28.6202 469.463 17.0304C463.397 5.44064 447.161 6.33216 443.593 7.58029C438.954 9.36333 439.668 9.00673 436.992 10.6115C432.531 13.6426 428.606 17.5653 426.287 22.5579Z" fill="#39335E"/>
<path d="M485.341 111.532C485.341 111.532 481.951 136.316 480.524 143.27L469.641 148.976L488.91 147.728L485.341 111.532Z" fill="#17BCB2"/>
<path d="M469.641 41.2798C469.641 41.2798 471.604 37.0005 472.139 31.1165C463.219 38.2486 453.227 36.6439 453.227 36.6439L453.049 40.7449C453.049 41.8147 453.584 42.7063 454.655 43.2412L458.045 44.6676L458.758 48.5903C458.937 49.6601 460.186 50.3734 461.256 50.0168L462.148 49.6601C461.97 49.4818 462.505 40.7449 469.641 41.2798Z" fill="#39335E"/>
<path d="M474.458 63.033C474.458 63.033 468.749 82.8248 467.5 86.5692L462.862 86.0343L463.754 92.275L438.776 125.083L466.43 93.3448L465.359 87.8173L469.641 88.174L474.458 63.033Z" fill="#1A8C85"/>
<path d="M450.016 170.194C450.016 170.194 508.356 168.233 509.962 167.163C511.389 166.093 511.746 151.115 511.568 142.378C511.389 136.316 511.568 112.423 506.394 95.6627C510.497 109.927 508.356 160.031 506.394 162.527C504.61 165.023 448.945 166.628 448.945 166.628C449.659 168.768 450.016 170.194 450.016 170.194Z" fill="#263649"/>
<path d="M335.297 123.478C335.297 123.478 335.119 124.905 332.621 126.331C330.123 127.758 323.522 130.967 322.452 131.859C321.381 132.75 316.743 136.851 316.564 137.386C316.386 137.921 314.958 142.557 314.958 142.913C314.958 143.27 315.494 145.41 315.494 145.41L314.066 152.364C314.066 152.364 312.282 155.038 314.245 155.751C316.207 156.465 317.456 154.325 317.456 154.147C317.456 154.147 320.489 152.72 322.63 150.937C324.771 149.154 333.692 142.022 335.119 142.557C336.546 142.913 335.297 145.588 334.584 145.945C333.87 146.301 329.231 150.937 331.194 154.147C333.156 157.356 334.405 152.364 335.833 151.294C337.081 150.224 339.936 146.301 341.72 145.766C343.504 145.231 346.537 138.812 346.894 135.96C347.251 133.107 349.392 131.324 350.105 130.254C350.819 129.362 348.5 122.23 348.5 122.23L339.758 119.556L336.725 121.517L335.297 123.478Z" fill="#FCD1C5"/>
<path d="M501.934 85.8561C500.15 83.0032 499.257 85.1429 496.76 87.4608C493.37 90.6703 489.266 95.6628 487.125 102.082C483.2 113.672 484.628 142.379 485.877 146.48C485.877 146.48 449.302 152.542 446.804 152.364C444.307 152.185 450.016 170.194 450.016 170.194C450.016 170.194 508.356 168.233 509.962 167.163C511.389 166.093 511.746 151.116 511.568 142.379C511.389 135.068 511.568 101.012 501.934 85.8561Z" fill="#334659"/>
<path d="M450.016 170.194C450.016 170.194 508.356 168.233 509.962 167.163C511.389 166.093 511.746 151.116 511.568 142.379C511.389 136.316 511.568 112.423 506.394 95.6628C510.497 109.927 508.356 160.031 506.394 162.527C504.609 165.023 448.945 166.628 448.945 166.628C449.659 168.768 450.016 170.194 450.016 170.194Z" fill="#263649"/>
<path d="M518.348 163.775C518.169 162.527 517.455 161.279 515.85 160.387L514.779 159.852C511.033 157.713 504.253 157.891 499.793 160.387L468.749 178.396C466.43 179.823 465.181 181.427 465.181 183.032V188.381C465.181 189.808 466.073 191.056 467.679 192.126L468.749 192.66C472.496 194.8 479.275 194.622 483.736 192.126L514.779 174.117C517.099 172.869 518.348 171.086 518.348 169.481V163.775Z" fill="#9D9BB4"/>
<path d="M221.431 135.534L199.985 223.704L194.422 223.061L207.499 130.302L221.431 135.534Z" fill="#EDBF96"/>
<path d="M226.37 138.117L202.769 224.023L199.986 223.704L221.431 135.534L226.37 138.117Z" fill="#D19865"/>
<path d="M442.954 274.104L421.509 362.273L415.945 361.631L429.022 268.872L442.954 274.104Z" fill="#EDBF96"/>
<path d="M447.893 276.687L424.293 362.593L421.509 362.273L442.954 274.103L447.893 276.687Z" fill="#D19865"/>
<path d="M536.133 220.796L550.263 310.899L552.158 308.934L540.846 217.026L536.133 220.796Z" fill="#EDBF96"/>
<path d="M524.35 224.567L547.445 310.899H550.263L536.133 220.325L524.35 224.567Z" fill="#D19865"/>
<path d="M468.749 187.49L467.679 186.955C463.932 184.815 464.289 180.892 468.749 178.396L499.793 160.387C504.253 157.891 510.854 157.534 514.779 159.852L515.85 160.387C519.596 162.527 519.24 166.45 514.779 168.946L483.736 186.955C479.275 189.451 472.496 189.808 468.749 187.49Z" fill="#CFCCDC"/>
<path opacity="0.5" d="M449.659 290.728L189 140.239L291.23 81.3984L551.889 231.709L449.659 290.728Z" fill="url(#paint3_linear)"/>
<path d="M189 131.145V140.239L449.659 290.728L551.889 231.709V222.616L449.659 281.634L189 131.145Z" fill="url(#paint4_linear)"/>
<path d="M449.659 281.634L189 131.145L291.23 72.1266L551.889 222.616L449.659 281.634Z" fill="url(#paint5_linear)"/>
<path d="M449.659 280.743L189.714 130.789L189 131.145L449.659 281.634L551.889 222.616L551.175 222.081L449.659 280.743Z" fill="#E1E1EF"/>
<path opacity="0.3" d="M418.616 171.621C418.616 171.621 425.931 174.295 431.461 173.225C436.992 172.334 463.932 171.799 463.932 171.799L459.65 169.303L450.195 162.705L426.823 164.31L417.724 167.52L418.616 171.621Z" fill="#180D5B"/>
<path d="M446.983 153.255C446.983 153.077 446.805 153.077 446.626 153.077C444.664 153.077 432.532 152.72 428.071 151.116C423.076 149.332 417.723 149.689 417.545 150.046C417.188 150.402 408.981 153.79 408.446 155.217C408.089 156.465 407.197 160.922 408.268 162.527C409.338 164.132 409.873 165.202 409.873 165.202L410.765 165.38C410.765 165.38 411.836 167.52 412.55 168.411C412.906 168.768 413.085 169.124 413.263 169.481C413.798 170.551 414.69 172.512 415.047 172.512C415.583 172.512 418.08 173.047 418.794 172.869C419.329 172.69 419.864 171.086 419.508 170.372C419.508 170.194 419.508 170.016 419.686 170.016C420.935 169.837 424.146 169.481 428.428 169.837C433.781 170.372 441.452 166.806 442.166 166.45C442.166 166.45 442.166 166.45 442.344 166.45L450.016 165.736C450.194 165.736 450.373 165.558 450.373 165.38L446.983 153.255Z" fill="#FCD1C5"/>
<path d="M501.934 85.8561C500.15 83.0032 499.257 85.1429 496.76 87.4608C493.37 90.6703 489.266 95.6628 487.125 102.082C483.2 113.672 484.628 142.379 485.877 146.48C485.877 146.48 449.302 152.542 446.804 152.364C444.307 152.185 450.016 170.194 450.016 170.194C450.016 170.194 508.356 168.233 509.962 167.163C511.389 166.093 511.746 151.116 511.568 142.379C511.389 135.068 511.568 101.012 501.934 85.8561Z" fill="#1BC8BD"/>
<path d="M450.016 170.194C450.016 170.194 508.357 168.233 509.962 167.163C511.39 166.093 511.746 151.115 511.568 142.379C511.39 136.316 511.568 112.423 506.394 95.6627C510.498 109.927 508.357 160.031 506.394 162.527C504.61 165.023 448.946 166.628 448.946 166.628C449.659 168.768 450.016 170.194 450.016 170.194Z" fill="#1A8C85"/>
<path opacity="0.3" d="M345.288 140.239C345.288 140.239 366.163 124.013 369.196 122.409C372.229 120.804 373.477 119.556 373.477 119.556L366.519 115.455L354.744 120.269L339.936 135.068L317.099 151.294V155.038C317.099 155.038 336.011 147.015 338.152 145.588C339.936 144.34 345.288 140.239 345.288 140.239Z" fill="#180D5B"/>
<path opacity="0.63" d="M332.978 155.038C332.978 155.038 337.438 151.116 340.293 149.689C343.148 148.441 347.786 144.875 348.322 142.2C348.857 139.526 353.674 133.463 353.674 133.463L346.002 137.921L334.941 144.34L316.564 155.038C316.564 155.038 317.635 156.286 319.954 155.573C322.273 154.86 326.555 152.007 328.696 151.829C330.659 151.65 334.049 150.937 334.049 150.937L332.978 155.038Z" fill="#2D2D2D"/>
<path d="M335.297 123.478C335.297 123.478 335.119 124.905 332.621 126.331C330.123 127.758 323.522 130.967 322.452 131.859C321.381 132.75 316.743 136.851 316.564 137.386C316.386 137.921 314.958 142.557 314.958 142.914C314.958 143.27 315.494 145.41 315.494 145.41L314.066 152.364C314.066 152.364 312.282 155.038 314.245 155.751C316.207 156.465 317.456 154.325 317.456 154.147C317.456 154.147 320.489 152.72 322.63 150.937C324.771 149.154 333.692 142.022 335.119 142.557C336.546 142.914 335.297 145.588 334.584 145.945C333.87 146.301 329.231 150.937 331.194 154.147C333.156 157.356 334.405 152.364 335.833 151.294C337.081 150.224 339.936 146.301 341.72 145.766C343.504 145.231 346.537 138.813 346.894 135.96C347.251 133.107 349.392 131.324 350.105 130.254C350.819 129.362 348.5 122.23 348.5 122.23L339.758 119.556L336.725 121.517L335.297 123.478Z" fill="#FCD1C5"/>
<path d="M414.512 75.3361C414.512 75.3361 414.155 62.3199 416.475 52.1565C415.94 52.6914 415.226 53.048 414.691 53.7612C411.479 56.9707 407.197 61.25 402.915 63.3897C395.065 67.669 371.337 80.6852 371.337 80.6852L366.876 84.073C352.96 94.9496 337.438 118.664 335.297 123.3C336.368 121.874 339.223 119.556 344.575 122.23C351.89 126.153 348.5 132.037 348.5 132.037C359.205 124.37 384.717 96.0194 384.717 96.0194C390.962 94.7713 409.874 87.6391 412.371 86.7476C413.62 83.1815 414.512 79.2588 414.512 75.3361Z" fill="#1BC8BD"/>
<path d="M281.774 164.488L286.769 167.163L337.616 137.921C338.508 137.386 339.936 137.564 341.006 138.099L428.606 188.738C429.498 188.203 433.245 186.42 433.245 186.42L431.461 191.234C431.461 191.412 431.282 191.591 430.926 191.769L377.402 222.616C376.51 223.15 375.083 222.972 374.012 222.437L284.271 170.729C283.914 170.551 283.558 170.194 283.558 170.016L281.774 164.488Z" fill="#CDCADD"/>
<path d="M282.666 165.201L374.547 218.158C375.618 218.693 377.045 218.871 377.937 218.336L432.71 186.776C433.602 186.241 433.423 185.35 432.531 184.815L340.649 131.859C339.579 131.324 338.152 131.145 337.259 131.68L282.487 163.24C281.417 163.775 281.595 164.667 282.666 165.201Z" fill="#E1E1EF"/>
<path d="M282.665 164.667L374.547 217.623C375.618 218.158 377.045 218.336 377.937 217.801L432.71 186.241C433.066 186.063 433.245 185.885 433.245 185.706C433.423 186.063 433.245 186.598 432.71 186.776L377.937 218.336C377.045 218.871 375.618 218.693 374.547 218.158L282.665 165.201C281.952 164.845 281.773 164.31 281.952 163.775C281.952 164.132 282.13 164.488 282.665 164.667Z" fill="white"/>
<path d="M401.844 193.908L325.484 149.867C324.949 149.511 324.414 149.511 323.879 149.867L296.76 165.558C296.403 165.736 296.403 166.271 296.76 166.628L373.12 210.669C373.655 211.026 374.191 211.026 374.726 210.669L402.023 194.978C402.201 194.8 402.201 194.265 401.844 193.908Z" fill="#9D9BB4"/>
<path d="M401.845 194.978L401.488 195.157L325.484 151.294C324.949 150.937 324.414 150.937 323.879 151.294L296.939 166.806L296.582 166.628C296.225 166.45 296.225 165.915 296.582 165.558L323.7 149.867C324.236 149.511 324.771 149.511 325.306 149.867L401.666 193.908C402.201 194.265 402.201 194.8 401.845 194.978Z" fill="#9198DB"/>
<path d="M321.738 153.968L392.032 194.443L395.6 193.017L324.771 152.185L321.738 153.968Z" fill="#24126A"/>
<path d="M314.601 158.069L376.689 193.908L379.722 192.304L317.456 156.286L314.601 158.069Z" fill="#24126A"/>
<path d="M309.784 160.744L383.112 203.002L385.966 201.397L312.817 159.139L309.784 160.744Z" fill="#24126A"/>
<path d="M305.146 163.597L378.295 205.855L381.328 204.072L308 161.814L305.146 163.597Z" fill="#24126A"/>
<path d="M300.329 166.271L373.656 208.529L376.51 206.746L303.362 164.488L300.329 166.271Z" fill="#24126A"/>
<path d="M392.032 194.443L395.065 196.226L397.92 194.443L395.065 192.839L392.032 194.443Z" fill="#24126A"/>
<path d="M373.12 191.947L387.75 200.327L390.783 198.723L375.975 190.164L373.12 191.947Z" fill="#24126A"/>
<path d="M374.547 174.295L354.03 162.349C353.138 161.814 353.138 161.1 354.03 160.744L368.125 152.542C369.017 152.007 370.265 152.007 370.979 152.542L391.496 164.488C392.389 165.023 392.389 165.736 391.496 166.093L377.402 174.295C376.688 174.652 375.439 174.652 374.547 174.295Z" fill="#CFCCDC"/>
<path d="M391.674 165.201L371.157 153.255C370.265 152.72 369.016 152.72 368.302 153.255L354.208 161.457C354.029 161.635 353.851 161.814 353.673 161.992C353.494 161.635 353.673 161.1 354.208 160.744L368.302 152.542C369.194 152.007 370.443 152.007 371.157 152.542L391.674 164.488C392.209 164.845 392.388 165.201 392.209 165.736C392.031 165.38 391.853 165.201 391.674 165.201Z" fill="#9198DB"/>
<path d="M281.952 163.062L293.549 94.2363L292.657 93.8797L294.084 92.9882C294.441 92.8099 294.798 92.8099 295.155 92.9882L387.929 146.48C388.642 146.836 389.356 148.084 389.178 148.797L377.402 218.158C377.402 218.515 377.224 218.693 376.867 218.871L375.44 219.584L375.262 218.336L283.023 165.023C282.488 165.023 281.774 163.775 281.952 163.062Z" fill="#CFCCDC"/>
<path d="M387.393 148.619L388.999 147.906C389.177 148.263 389.177 148.619 389.177 148.976L377.402 218.336C377.402 218.693 377.224 218.871 376.867 219.05L375.44 219.763L375.261 218.515L370.623 215.84L387.393 148.619Z" fill="#9D9BB4"/>
<path d="M281.774 166.271L374.548 219.763C375.261 220.119 375.797 219.941 375.975 219.228L387.75 149.867C387.929 149.154 387.393 147.906 386.501 147.549L293.727 94.058C293.014 93.7014 292.478 93.8797 292.3 94.5929L280.525 163.953C280.346 164.667 280.882 165.736 281.774 166.271Z" fill="#F9F8FF"/>
<path d="M234.033 353.671C234.033 353.671 240.325 355.219 246.4 355.464C252.488 355.708 269.031 359.022 268.624 365.215C268.217 371.434 259.566 380.357 248.732 381.674C237.884 382.992 223.945 379.868 216.867 380.058C209.788 380.248 204.948 373.023 207.714 366.084C210.466 359.212 234.033 353.671 234.033 353.671Z" fill="#160A5B"/>
<path d="M197.503 337.048C197.503 337.048 195.185 340.783 196.324 343.078C197.463 345.373 200.5 351.077 210.399 345.563C220.256 340.063 239.294 332.2 239.294 332.2C239.294 332.2 250.21 326.388 249.613 319.516C249.017 312.699 238.969 313.717 238.969 313.717L197.503 337.048Z" fill="#160A5B"/>
<path d="M261.817 239.716C261.817 239.716 257.613 284.288 248.664 301.182C239.579 318.348 237.07 349.801 235.172 355.803C233.26 361.847 227.375 370.511 218.1 372.358C208.812 374.205 207.293 367.876 207.754 364.074C208.215 360.285 210.792 354.16 210.819 350.059C210.846 345.971 209.897 344.056 209.761 342.168C209.761 342.168 199.13 345.305 197.517 337.048C197.517 337.048 198.384 334.645 198.52 333.422C198.656 332.2 197.612 302.35 197.354 298.738C197.096 295.139 199.035 275.624 201.991 266.008C204.92 256.488 203.944 236.213 203.944 236.213L234.209 231.989L261.817 239.716Z" fill="#24126A"/>
<path d="M201.978 266.022C204.907 256.502 203.931 236.226 203.931 236.226L206.575 235.86C206.697 238.671 207.321 256.461 204.636 265.207C201.693 274.809 199.781 294.31 200.039 297.909C200.297 301.522 201.395 331.331 201.246 332.567C201.11 333.789 200.242 336.193 200.242 336.193C201.87 344.436 212.487 341.299 212.487 341.299C212.636 343.173 213.585 345.088 213.558 349.176C213.531 353.277 210.968 359.402 210.507 363.177C210.06 366.98 211.578 373.295 220.867 371.448C221.151 371.394 221.409 371.271 221.694 371.204C220.541 371.692 219.348 372.1 218.073 372.344C208.785 374.191 207.266 367.863 207.727 364.06C208.188 360.271 210.765 354.146 210.792 350.045C210.819 345.957 209.87 343.662 209.721 341.788C209.721 341.788 199.103 345.292 197.476 337.048C197.476 337.048 198.344 334.645 198.48 333.422C198.615 332.2 197.571 302.35 197.313 298.738C197.083 295.139 199.036 275.637 201.978 266.022Z" fill="#24126A"/>
<path d="M212.893 239.445C212.893 239.445 213.015 246.398 215.917 252.251C215.917 252.251 215.863 275.936 218.29 287.941C218.29 287.941 214.371 312.033 211.903 319.625C209.422 327.27 209.747 342.168 209.747 342.168C209.747 342.168 208.541 342.616 206.805 342.684C205.069 342.752 204.947 313.242 207.605 308.027C210.249 302.839 212.27 279.847 211.266 272.84C210.276 265.873 210.615 245.95 209.3 242.419C207.985 238.915 210.954 237.055 210.954 237.055L212.893 239.445Z" fill="#160A5B"/>
<path d="M238.372 78.6646C238.372 78.6646 247.159 85.0339 246.711 96.0342L240.176 94.6218C240.189 94.6218 242.128 82.4536 238.372 78.6646Z" fill="#160A5B"/>
<path d="M234.955 249.155C214.9 249.766 204.079 240.871 204.079 240.871C204.039 238.06 203.944 236.213 203.944 236.213L234.209 231.989L261.83 239.703C261.83 239.703 261.003 248.49 259.295 259.748C254.372 260.277 249.545 248.177 249.545 248.177L235.782 249.046C235.769 249.06 254.996 248.544 234.955 249.155Z" fill="#160A5B"/>
<path d="M257.939 240.368C257.939 240.368 214.331 258.2 193.245 224.384C192.649 223.42 192.364 222.238 192.405 221.057L192.676 213.18C192.717 212.175 192.567 211.184 192.256 210.26C191.578 208.264 191.428 206.077 191.822 203.959C193.449 195.145 197.869 171.203 198.913 164.562C200.174 156.454 195.89 124.01 188.649 109.968C181.516 96.1157 199.835 64.9754 199.835 64.9754C199.835 64.9754 204.324 57.7098 213.124 60.1951C213.124 60.1951 204.73 66.0755 209.327 72.2818C213.951 78.5288 227.728 83.5129 227.728 83.5129C227.728 83.5129 253.22 96.754 261.939 112.874C261.939 112.874 264.936 121.253 265.207 131.86C265.478 142.575 264.285 168.31 264.732 171.882C265.18 175.467 266.536 199.98 266.387 201.134C266.265 202.275 257.939 240.368 257.939 240.368Z" fill="#17BCB2"/>
<path d="M209.029 64.6902C208.337 62.9247 208.541 61.2272 209.192 59.7469C210.398 59.7061 211.687 59.7876 213.138 60.195C213.124 60.195 210.534 62.0148 209.029 64.6902Z" fill="#17BCB2"/>
<path d="M244.732 244.022C244.732 244.022 219.05 174.571 220.27 149.352C221.463 124.771 257.763 199.151 257.763 199.151L257.952 240.368C257.939 240.368 249.708 243.41 244.732 244.022Z" fill="#13978F"/>
<path d="M192.974 203.456C193.286 204.38 193.435 205.358 193.394 206.363L193.137 214.199C193.096 215.38 193.381 216.548 193.978 217.499C214.995 251.083 258.454 233.374 258.454 233.374C258.454 233.374 264.434 206.05 266.305 197.209C266.4 199.369 266.441 200.876 266.414 201.134C266.264 202.275 257.952 240.368 257.952 240.368C257.952 240.368 214.344 258.2 193.259 224.384C192.662 223.42 192.377 222.238 192.418 221.057L192.689 213.18C192.73 212.175 192.581 211.184 192.269 210.26C191.591 208.264 191.442 206.077 191.835 203.959C192.011 203.035 192.215 201.922 192.432 200.713C192.513 201.65 192.676 202.574 192.974 203.456Z" fill="#17BCB2"/>
<path d="M189.354 103.816C196.567 117.777 200.852 150.003 199.605 158.057C199.483 158.804 199.32 159.781 199.13 160.909C199.171 149.284 195.076 122.435 188.662 109.968C186.655 106.084 186.71 100.801 187.754 95.2329C187.672 98.4515 188.106 101.412 189.354 103.816Z" fill="#17BCB2"/>
<path d="M258.59 161.968C257.654 156.305 257.112 150.614 257.057 144.938C256.949 135.065 254.169 118.673 236.325 121.525C211.104 125.545 221.897 160.936 224.65 167.128C227.429 173.348 238.467 201.379 239.05 202.981C239.593 204.475 257.044 239.472 263.268 247.865C263.837 248.639 264.841 248.748 265.546 248.15C268.068 245.991 273.749 240.857 274.495 237.612C275.444 233.442 271.81 218.286 271.81 218.286C271.81 218.286 261.98 180.451 261.152 178.699C260.529 177.368 260.095 171.148 258.59 161.968Z" fill="#17BCB2"/>
<path d="M237.938 79.4658C237.938 79.4658 239.945 74.9027 244.569 74.4274C249.193 73.9521 251.823 72.6619 252.284 70.9508C252.746 69.2396 252.773 67.1618 253.898 64.6086C255.01 62.0555 255.959 55.7949 255.946 55.6455C255.932 55.4961 259.444 54.4368 259.62 52.8886C259.797 51.3404 257.966 45.8131 258.169 45.3786C258.373 44.9576 260.258 41.5624 260 38.9278C259.742 36.2932 259.403 32.4906 258.007 29.2584C256.61 26.0398 246.806 6.44308 221.287 16.5334C195.496 26.7324 215.117 48.407 212.554 62.4629C212.554 62.4629 210.263 65.4235 214.466 70.4483C218.697 75.5003 230.901 76.6003 237.938 79.4658Z" fill="#FCD1C5"/>
<path d="M214.466 70.4484C210.263 65.4236 212.555 62.463 212.555 62.463C212.907 60.5074 212.826 58.4024 212.5 56.2024L222.602 58.1308C222.602 58.1308 237.504 44.849 236.447 51.9652C235.376 59.1358 238.996 60.3716 238.996 60.3716L235.945 64.2692C235.159 65.2742 235.62 66.4421 236.27 67.5557C240.528 74.8892 250.861 72.6756 250.874 72.6892C249.586 73.5312 247.471 74.1423 244.569 74.4411C239.945 74.9164 237.938 79.4795 237.938 79.4795C230.901 76.6004 218.697 75.5004 214.466 70.4484Z" fill="#E2B1A6"/>
<path d="M259.092 21.8028C259.092 21.8028 260.881 27.0449 257.993 29.2449C255.105 31.4586 252.488 33.5364 252.488 33.5364L252.502 40.1909C252.502 41.1551 252.23 42.0922 251.715 42.8934L248.081 48.5022C247.376 49.5886 246.996 50.8652 246.996 52.1689L246.983 54.8851C246.983 55.6863 246.386 56.3518 245.613 56.4332L244.664 56.5419C243.823 56.6369 243.064 56.0122 242.969 55.1431L242.576 51.3677C242.576 51.3677 240.664 48.3256 236.474 51.9516L232.691 53.5134C231.633 53.948 230.806 54.8036 230.413 55.89C229.355 58.7963 227.104 64.5408 225.409 65.4915C223.131 66.7816 214.304 62.205 213.124 60.1951C211.944 58.1715 208.975 44.6996 207.131 38.276C205.3 31.8932 206.371 16.1125 225.382 12.0791C244.298 8.07284 256.488 16.099 259.092 21.8028Z" fill="#39335E"/>
<path d="M213.124 60.1951C211.945 58.1716 208.975 44.6997 207.131 38.2761C207.131 38.2761 214.48 43.1786 224.026 44.6318C233.586 46.0849 252.502 35.3155 252.502 35.3155L252.515 40.1909C252.515 41.1551 252.244 42.0922 251.729 42.8934L248.095 48.5022C247.39 49.5887 247.01 50.8652 247.01 52.169L246.996 54.8851C246.996 55.6863 246.4 56.3518 245.627 56.4333L244.678 56.5419C243.837 56.637 243.078 56.0123 242.983 55.1431L242.59 51.3677C242.59 51.3677 240.678 48.3257 236.488 51.9517L231.037 54.1925C231.037 54.1925 227.728 64.2014 225.45 65.4779C223.131 66.7817 214.304 62.2186 213.124 60.1951Z" fill="#39335E"/>
<path d="M212.744 60.8334C212.744 60.8334 205.354 65.3964 209.043 71.8608C212.758 78.3795 239.538 89.9365 240.867 91.6477C240.867 91.6477 241.925 81.9512 238.372 78.6647C238.372 78.6647 217.856 74.6584 214.67 69.4163C211.51 64.2014 212.744 60.8334 212.744 60.8334Z" fill="#F0F6FF"/>
<path d="M212.744 60.8334C212.744 60.8334 211.497 64.2014 214.67 69.4163C217.083 73.3818 229.409 76.6412 235.267 77.9856C235.267 77.9856 233.084 79.2215 229.45 85.4414C221.206 81.1635 211.212 75.6498 209.043 71.8472C205.354 65.3964 212.744 60.8334 212.744 60.8334Z" fill="#C4CCD6"/>
<path d="M207.754 81.5301C207.754 81.5301 219.687 88.3747 225.504 91.4711C231.335 94.581 237.694 98.6959 237.694 98.6959L239.931 96.4687L242.603 102.363C242.603 102.363 251.769 107.876 256.054 112.467C260.366 117.084 263.607 123.114 264.068 124.485C264.068 124.485 252.623 109.452 243.606 104.984L241.192 103.761L239.823 99.0898L237.613 101.439C237.613 101.439 211.388 85.6043 207.754 81.5301Z" fill="#1A8C85"/>
<path d="M238.521 284.314C238.901 283.241 239.457 282.29 240.121 281.734L289.207 240.462C290.496 239.376 291.743 240.204 292.001 242.323L297.737 290.384C298.008 292.598 297.14 295.328 295.825 296.468L254.603 332.172L256.027 346.065L243.701 340.388V340.361C243.145 340.008 242.738 339.22 242.63 338.011L238.047 287.79C237.952 286.65 238.142 285.414 238.521 284.314Z" fill="#453C9E"/>
<path d="M302.591 245.189L290.984 240.165L290.618 240.002C290.197 239.907 289.709 240.042 289.221 240.45L240.135 281.721C239.471 282.278 238.915 283.215 238.535 284.288L240.284 285.144L250.278 289.978L293.303 253.148L302.591 245.189Z" fill="#453C9E"/>
<path d="M307.92 301.848L257.722 345.645C256.339 346.84 255.05 345.93 254.82 343.594L249.938 293.115C249.721 290.902 250.643 288.186 251.986 287.045L300.964 245.556C302.252 244.47 303.513 245.298 303.771 247.417L309.805 295.709C310.076 297.95 309.235 300.693 307.92 301.848Z" fill="#24126A"/>
<path d="M248.582 340.647L243.85 290.304C243.647 288.09 244.569 285.388 245.911 284.247L294.943 242.867C295.35 242.528 295.743 242.378 296.109 242.392C295.648 242.202 295.092 242.31 294.536 242.772L245.491 284.139C244.148 285.279 243.226 287.982 243.43 290.195L248.149 340.539C248.298 342.141 248.921 343.132 249.776 343.16C249.138 342.888 248.704 341.965 248.582 340.647Z" fill="#160A5B"/>
<path d="M266.549 266.511L263.986 265.234C263.403 264.949 262.861 264.841 262.386 264.949L262.183 264.99C261.925 265.044 261.79 265.316 261.83 265.71L261.885 266.171L269.112 269.784L269.058 269.309C269.017 268.915 268.8 268.467 268.502 268.127L268.258 267.855C267.729 267.285 267.132 266.81 266.549 266.511Z" fill="#160A5B"/>
<path d="M265.64 272.731L269.112 269.797L261.939 265.153L258.521 268.018L265.64 272.731Z" fill="#160A5B"/>
<path d="M263.091 269.444L260.528 268.154C259.945 267.869 259.389 267.76 258.928 267.869L258.725 267.91C258.467 267.964 258.332 268.249 258.372 268.643L258.427 269.105L265.654 272.731L265.6 272.256C265.559 271.862 265.342 271.414 265.057 271.074L264.813 270.802C264.257 270.205 263.674 269.73 263.091 269.444Z" fill="url(#paint6_linear)"/>
<path d="M261.546 270.68L261.329 268.562L261.546 268.67L261.776 270.789L261.546 270.68Z" fill="#722318"/>
<path d="M261.329 268.562L264.895 265.683L265.085 265.778L261.546 268.67L261.329 268.562Z" fill="#722318"/>
<path d="M282.143 253.379L279.58 252.116C278.997 251.83 278.454 251.735 277.993 251.83L277.79 251.871C277.532 251.925 277.41 252.197 277.451 252.591L277.505 253.053L284.719 256.624L284.665 256.163C284.624 255.769 284.407 255.334 284.109 255.008L283.865 254.737C283.322 254.139 282.726 253.677 282.143 253.379Z" fill="#160A5B"/>
<path d="M281.289 259.53L284.706 256.624L277.56 252.034L274.183 254.872L281.289 259.53Z" fill="#160A5B"/>
<path d="M278.726 256.271L276.163 254.995C275.58 254.709 275.037 254.614 274.563 254.709L274.359 254.75C274.102 254.804 273.98 255.076 274.02 255.47L274.075 255.932L281.289 259.517L281.234 259.055C281.194 258.661 280.977 258.227 280.678 257.887L280.434 257.616C279.892 257.032 279.309 256.556 278.726 256.271Z" fill="url(#paint7_linear)"/>
<path d="M277.207 257.493L276.977 255.402L277.194 255.511L277.424 257.602L277.207 257.493Z" fill="#722318"/>
<path d="M276.977 255.402L280.489 252.564L280.679 252.659L277.194 255.511L276.977 255.402Z" fill="#722318"/>
<path d="M259.946 258.498L260.868 267.462L263.187 265.506L262.278 256.801C262.142 255.538 262.766 253.895 263.661 253.134L273.655 244.768C274.55 244.022 275.377 244.429 275.526 245.692L276.489 254.302L278.78 252.374L277.79 243.533C277.478 240.762 275.634 239.866 273.668 241.509L263.01 250.418C261.044 252.075 259.661 255.687 259.946 258.498Z" fill="#453C9E"/>
<path d="M277.166 244.171L273.044 243.75L261.139 254.872L260.623 261.731L260.867 267.462L263.539 268.792L263.62 261.649L263.769 256.76L266.237 253.229C266.237 253.229 270.698 249.617 270.753 249.522C270.793 249.413 277.166 244.171 277.166 244.171Z" fill="#453C9E"/>
<path d="M279.16 255.619L276.502 254.302L275.797 247.96L278.333 248.164L279.079 248.286L279.16 255.619Z" fill="#453C9E"/>
<path d="M279.065 242.215L276.204 240.816C276.204 240.816 276.949 242.378 276.963 242.365C276.977 242.351 277.899 242.691 277.926 242.691C277.939 242.677 279.065 242.215 279.065 242.215Z" fill="#453C9E"/>
<path d="M262.603 259.816L263.539 268.792L265.858 266.837L264.936 258.118C264.8 256.842 265.424 255.212 266.319 254.451L276.312 246.072C277.207 245.325 278.034 245.733 278.184 246.996L279.16 255.619L281.452 253.691L280.448 244.85C280.136 242.079 278.292 241.17 276.326 242.813L265.682 251.735C263.688 253.392 262.319 257.018 262.603 259.816Z" fill="#160A5B"/>
<path d="M273.777 237.231C273.777 237.231 275.472 245.991 274.997 248.191C274.523 250.391 270.333 254.642 267.811 255.416C265.288 256.19 266.319 253.189 265.749 251.287C265.18 249.4 265.275 245.285 265.275 245.285L273.777 237.231Z" fill="#FCD1C5"/>
<path d="M265.275 245.285L273.777 237.231C273.777 237.231 274.129 239.024 274.455 241.197C274.455 241.21 271.295 247.716 265.532 250.296C265.207 248.232 265.275 245.285 265.275 245.285Z" fill="#E2B1A6"/>
<path d="M274.414 237.883C274.414 237.883 271.404 247.322 263.851 248.218L266.414 237.883C266.414 237.883 272.8 236.077 272.99 236.05C273.18 236.036 274.414 237.883 274.414 237.883Z" fill="#17BCB2"/>
<path d="M225.26 127.079C218.263 148.428 235.796 181.605 238.318 191.302C240.867 201.093 267.525 246.385 267.525 246.398C267.512 246.412 267.512 246.412 267.498 246.425C267.648 246.697 267.756 246.874 267.756 246.874C267.2 247.308 266.536 247.783 266.02 248.055C265.315 248.327 265.627 248.299 264.827 248.503C264.258 248.612 263.688 248.395 263.295 247.865C257.071 239.472 239.62 204.475 239.077 202.981C238.494 201.392 227.456 173.348 224.677 167.128C222.426 162.144 215.022 138.283 225.26 127.079Z" fill="#17BCB2"/>
<defs>
<linearGradient id="paint0_linear" x1="452.249" y1="240.256" x2="341.103" y2="267.399" gradientUnits="userSpaceOnUse">
<stop stop-color="#5761D7"/>
<stop offset="0.1779" stop-color="#5C66D9"/>
<stop offset="0.3876" stop-color="#6A73DF"/>
<stop offset="0.6134" stop-color="#8289E8"/>
<stop offset="0.849" stop-color="#A3A7F5"/>
<stop offset="1" stop-color="#BCBEFF"/>
</linearGradient>
<linearGradient id="paint1_linear" x1="453.078" y1="230.34" x2="576.131" y2="230.34" gradientUnits="userSpaceOnUse">
<stop stop-color="#5761D7"/>
<stop offset="0.1779" stop-color="#5C66D9"/>
<stop offset="0.3876" stop-color="#6A73DF"/>
<stop offset="0.6134" stop-color="#8289E8"/>
<stop offset="0.849" stop-color="#A3A7F5"/>
<stop offset="1" stop-color="#BCBEFF"/>
</linearGradient>
<linearGradient id="paint2_linear" x1="439.206" y1="227.691" x2="410.461" y2="199.888" gradientUnits="userSpaceOnUse">
<stop stop-color="#5761D7"/>
<stop offset="0.1779" stop-color="#5C66D9"/>
<stop offset="0.3876" stop-color="#6A73DF"/>
<stop offset="0.6134" stop-color="#8289E8"/>
<stop offset="0.849" stop-color="#A3A7F5"/>
<stop offset="1" stop-color="#BCBEFF"/>
</linearGradient>
<linearGradient id="paint3_linear" x1="188.945" y1="186.012" x2="551.922" y2="186.012" gradientUnits="userSpaceOnUse">
<stop stop-color="#42E8E0"/>
<stop offset="0.1507" stop-color="#43E3E0"/>
<stop offset="0.3285" stop-color="#45D5DF"/>
<stop offset="0.5199" stop-color="#49BDDD"/>
<stop offset="0.7209" stop-color="#4E9CDB"/>
<stop offset="0.9274" stop-color="#5472D8"/>
<stop offset="1" stop-color="#5761D7"/>
</linearGradient>
<linearGradient id="paint4_linear" x1="560.028" y1="216.527" x2="-72.9024" y2="197.675" gradientUnits="userSpaceOnUse">
<stop stop-color="#A6A6E7"/>
<stop offset="1" stop-color="#EEEFFF"/>
</linearGradient>
<linearGradient id="paint5_linear" x1="467.822" y1="280.502" x2="322.473" y2="124.804" gradientUnits="userSpaceOnUse">
<stop stop-color="#E8EDFE"/>
<stop offset="1" stop-color="#EEF4FF"/>
</linearGradient>
<linearGradient id="paint6_linear" x1="265.833" y1="270.574" x2="258.231" y2="269.909" gradientUnits="userSpaceOnUse">
<stop stop-color="#5761D7"/>
<stop offset="0.0726" stop-color="#5472D8"/>
<stop offset="0.2791" stop-color="#4E9CDB"/>
<stop offset="0.4801" stop-color="#49BDDD"/>
<stop offset="0.6715" stop-color="#45D5DF"/>
<stop offset="0.8493" stop-color="#43E3E0"/>
<stop offset="1" stop-color="#42E8E0"/>
</linearGradient>
<linearGradient id="paint7_linear" x1="281.475" y1="257.394" x2="273.891" y2="256.731" gradientUnits="userSpaceOnUse">
<stop stop-color="#5761D7"/>
<stop offset="0.0726" stop-color="#5472D8"/>
<stop offset="0.2791" stop-color="#4E9CDB"/>
<stop offset="0.4801" stop-color="#49BDDD"/>
<stop offset="0.6715" stop-color="#45D5DF"/>
<stop offset="0.8493" stop-color="#43E3E0"/>
<stop offset="1" stop-color="#42E8E0"/>
</linearGradient>
</defs>
</svg>
