<svg width="110" height="110" viewBox="0 0 110 110" fill="none" xmlns="http://www.w3.org/2000/svg">
<path d="M55 110C85.3757 110 110 85.3757 110 55C110 24.6243 85.3757 0 55 0C24.6243 0 0 24.6243 0 55C0 85.3757 24.6243 110 55 110Z" fill="url(#paint0_linear)"/>
<path d="M108.281 53.2812C108.281 53.2812 84.3906 82.5 55 82.5C25.6094 82.5 1.71875 53.2812 1.71875 53.2812C1.71875 53.2812 25.6094 24.0625 55 24.0625C84.3906 24.0625 108.281 53.2812 108.281 53.2812Z" fill="white"/>
<path d="M108.281 53.2812C108.281 53.2812 84.3906 82.5 55 82.5C25.6094 82.5 1.71875 53.2812 1.71875 53.2812C1.71875 53.2812 25.6094 24.0625 55 24.0625C84.3906 24.0625 108.281 53.2812 108.281 53.2812Z" stroke="#4D5152" stroke-width="2" stroke-miterlimit="10" stroke-linejoin="round"/>
<path d="M55 72.1875C65.4416 72.1875 73.9062 63.7229 73.9062 53.2812C73.9062 42.8396 65.4416 34.375 55 34.375C44.5584 34.375 36.0938 42.8396 36.0938 53.2812C36.0938 63.7229 44.5584 72.1875 55 72.1875Z" fill="url(#paint1_linear)"/>
<path d="M55 82.5C71.1371 82.5 84.2188 69.4183 84.2188 53.2812C84.2188 37.1442 71.1371 24.0625 55 24.0625C38.8629 24.0625 25.7812 37.1442 25.7812 53.2812C25.7812 69.4183 38.8629 82.5 55 82.5Z" stroke="#4D5152" stroke-width="2" stroke-miterlimit="10" stroke-linejoin="round"/>
<path d="M53.2812 32.6562C42.9688 32.6562 34.375 41.25 34.375 51.5625H53.2812V32.6562Z" fill="#FFB957"/>
<path d="M56.7188 34.375C65.3125 34.375 73.9062 42.7969 73.9062 53.2812C73.9062 63.7656 65.4844 72.1875 55 72.1875C44.5156 72.1875 36.0938 63.5938 36.0938 55" stroke="#4D5152" stroke-width="2" stroke-miterlimit="10" stroke-linejoin="round"/>
<defs>
<linearGradient id="paint0_linear" x1="110" y1="110" x2="54.9195" y2="-31.3509" gradientUnits="userSpaceOnUse">
<stop stop-color="#36D4BE"/>
<stop offset="1" stop-color="#F2BB31"/>
</linearGradient>
<linearGradient id="paint1_linear" x1="73.9062" y1="72.1875" x2="54.9723" y2="23.5981" gradientUnits="userSpaceOnUse">
<stop stop-color="#36D4BE"/>
<stop offset="1" stop-color="#F2BB31"/>
</linearGradient>
</defs>
</svg>
