<svg width="77" height="53" viewBox="0 0 77 53" fill="none" xmlns="http://www.w3.org/2000/svg">
<rect x="0.926025" y="3.01318" width="18.6328" height="11.3615" rx="3.63567" fill="#407E43"/>
<path d="M4.24597 7.05859V5.54298H4.05737V7.05859H4.24597ZM5.13729 7.08586C5.5463 7.08586 5.69627 6.8609 5.69627 6.64049C5.69627 6.07469 4.79872 6.27011 4.79872 5.92927C4.79872 5.78611 4.92824 5.6884 5.11002 5.6884C5.2759 5.6884 5.43496 5.74521 5.54857 5.87019L5.66219 5.73158C5.53494 5.59751 5.35543 5.52025 5.12366 5.52025C4.82599 5.52025 4.6033 5.69067 4.6033 5.94063C4.6033 6.48143 5.50086 6.26556 5.50086 6.6564C5.50086 6.77229 5.41451 6.91771 5.14411 6.91771C4.93051 6.91771 4.76691 6.81319 4.66693 6.70184L4.55558 6.845C4.68056 6.98588 4.8737 7.08586 5.13729 7.08586ZM6.57356 7.05859V5.71112H7.05528V5.54298H5.9055V5.71112H6.38496V7.05859H6.57356ZM7.40591 7.08586C7.67631 7.08586 7.88763 6.93135 7.88763 6.60186V5.54298H7.69903V6.59959C7.69903 6.78819 7.58087 6.91771 7.39454 6.91771C7.26275 6.91771 7.17413 6.84727 7.10824 6.76774L7.01053 6.91089C7.11505 7.0336 7.24457 7.08586 7.40591 7.08586Z" fill="white"/>
<path d="M4.82904 11.2397V8.81476H4.56363L3.95648 9.44009L4.13826 9.62551L4.52728 9.21468V11.2397H4.82904ZM6.10649 11.2397V8.81476H5.84109L5.23393 9.44009L5.41571 9.62551L5.80473 9.21468V11.2397H6.10649ZM7.07491 11.1525C7.07491 10.978 6.96584 10.8762 6.84586 10.8762C6.73679 10.8762 6.65317 10.9671 6.65317 11.0725C6.65317 11.1816 6.72589 11.2579 6.82769 11.2579C6.84586 11.2579 6.87131 11.2543 6.87859 11.2507C6.86404 11.3706 6.75861 11.5124 6.64227 11.5888L6.77679 11.7015C6.94403 11.5815 7.07491 11.3743 7.07491 11.1525ZM8.32456 11.2834C8.85537 11.2834 9.1753 10.9125 9.1753 10.4908C9.1753 9.97453 8.81901 9.7164 8.38273 9.7164C8.07006 9.7164 7.80102 9.92727 7.69559 10.0945C7.69195 10.0618 7.69195 10.0327 7.69195 9.99998C7.69195 9.52371 7.90646 9.04744 8.37546 9.04744C8.62995 9.04744 8.77175 9.14924 8.89536 9.29466L9.04806 9.06925C8.89899 8.89838 8.68812 8.7784 8.37546 8.7784C7.69559 8.7784 7.39019 9.37465 7.39019 10.0327C7.39019 10.6908 7.64832 11.2834 8.32456 11.2834ZM8.31365 11.0143C7.89191 11.0143 7.73194 10.6435 7.70286 10.3417C7.83738 10.1272 8.07006 9.97817 8.31002 9.97817C8.62268 9.97817 8.86991 10.1454 8.86991 10.5017C8.86991 10.7344 8.68812 11.0143 8.31365 11.0143ZM10.0927 9.97453C10.4417 9.97453 10.6816 9.72004 10.6816 9.38192C10.6816 9.04017 10.4417 8.7784 10.0927 8.7784C9.74727 8.7784 9.51095 9.04017 9.51095 9.38192C9.51095 9.72004 9.74727 9.97453 10.0927 9.97453ZM10.0599 11.2397L11.6124 8.81476H11.4124L9.86361 11.2397H10.0599ZM11.3579 11.2834C11.7033 11.2834 11.9432 11.0289 11.9432 10.6908C11.9432 10.349 11.7033 10.0872 11.3579 10.0872C11.0125 10.0872 10.7762 10.349 10.7762 10.6908C10.7762 11.0289 11.0125 11.2834 11.3579 11.2834ZM10.0927 9.79275C9.87815 9.79275 9.72909 9.61097 9.72909 9.38192C9.72909 9.14197 9.87815 8.96382 10.0927 8.96382C10.3108 8.96382 10.4635 9.14197 10.4635 9.38192C10.4635 9.61097 10.3108 9.79275 10.0927 9.79275ZM11.3579 11.1016C11.1397 11.1016 10.9907 10.9198 10.9907 10.6908C10.9907 10.4508 11.1397 10.2727 11.3579 10.2727C11.576 10.2727 11.7287 10.4508 11.7287 10.6908C11.7287 10.9198 11.576 11.1016 11.3579 11.1016Z" fill="white"/>
<rect x="20.0134" y="3.01318" width="18.6328" height="11.3615" rx="3.63567" fill="#407E43"/>
<path d="M23.3334 7.05859V5.54298H23.1448V7.05859H23.3334ZM24.2247 7.08586C24.6337 7.08586 24.7837 6.8609 24.7837 6.64049C24.7837 6.07469 23.8861 6.27011 23.8861 5.92927C23.8861 5.78611 24.0156 5.6884 24.1974 5.6884C24.3633 5.6884 24.5224 5.74521 24.636 5.87019L24.7496 5.73158C24.6223 5.59751 24.4428 5.52025 24.2111 5.52025C23.9134 5.52025 23.6907 5.69067 23.6907 5.94063C23.6907 6.48143 24.5883 6.26556 24.5883 6.6564C24.5883 6.77229 24.5019 6.91771 24.2315 6.91771C24.0179 6.91771 23.8543 6.81319 23.7543 6.70184L23.643 6.845C23.768 6.98588 23.9611 7.08586 24.2247 7.08586ZM25.2993 7.05859V6.36782H26.0878V6.19967H25.2993V5.71112H26.1037V5.54298H25.1107V7.05859H25.2993ZM26.5155 7.08586C26.7859 7.08586 26.9972 6.93135 26.9972 6.60186V5.54298H26.8086V6.59959C26.8086 6.78819 26.6905 6.91771 26.5041 6.91771C26.3723 6.91771 26.2837 6.84727 26.2178 6.76774L26.1201 6.91089C26.2246 7.0336 26.3542 7.08586 26.5155 7.08586Z" fill="white"/>
<path d="M23.9164 11.2397V8.81476H23.651L23.0439 9.44009L23.2257 9.62551L23.6147 9.21468V11.2397H23.9164ZM25.2121 11.2834C25.7465 11.2834 26.0701 10.9889 26.0701 10.5853C26.0701 10.1963 25.732 10.0073 25.5102 9.98908C25.7392 9.94908 26.0337 9.77457 26.0337 9.42555C26.0337 9.01472 25.6774 8.7784 25.2121 8.7784C24.8376 8.7784 24.5577 8.94201 24.3831 9.15287L24.5504 9.34193C24.7285 9.14924 24.9249 9.04744 25.1903 9.04744C25.4847 9.04744 25.732 9.19287 25.732 9.46191C25.732 9.74185 25.4738 9.86183 25.1684 9.86183C25.0703 9.86183 24.9576 9.86183 24.9176 9.85819V10.1345C24.9539 10.1309 25.0666 10.1309 25.1684 10.1309C25.5247 10.1309 25.772 10.2581 25.772 10.5599C25.772 10.8398 25.5575 11.0143 25.2048 11.0143C24.9176 11.0143 24.6704 10.8835 24.5286 10.6944L24.3504 10.8835C24.4995 11.1016 24.8012 11.2834 25.2121 11.2834ZM26.9541 11.1525C26.9541 10.978 26.845 10.8762 26.725 10.8762C26.6159 10.8762 26.5323 10.9671 26.5323 11.0725C26.5323 11.1816 26.605 11.2579 26.7068 11.2579C26.725 11.2579 26.7505 11.2543 26.7577 11.2507C26.7432 11.3706 26.6378 11.5124 26.5214 11.5888L26.6559 11.7015C26.8232 11.5815 26.9541 11.3743 26.9541 11.1525ZM28.2555 11.2834C28.7318 11.2834 29.1244 11.0361 29.1244 10.6253C29.1244 10.3017 28.8481 10.08 28.5464 9.98908C28.8263 9.90909 29.0881 9.72731 29.0881 9.40737C29.0881 8.97109 28.6554 8.7784 28.2555 8.7784C27.852 8.7784 27.4266 8.97109 27.4266 9.40737C27.4266 9.72731 27.6847 9.90909 27.9647 9.98908C27.6629 10.08 27.3866 10.3017 27.3866 10.6253C27.3866 11.0398 27.7756 11.2834 28.2555 11.2834ZM28.2555 9.86546C28.1101 9.84001 27.7283 9.74185 27.7283 9.44736C27.7283 9.1965 27.961 9.04744 28.2555 9.04744C28.5464 9.04744 28.7827 9.1965 28.7827 9.44736C28.7827 9.74185 28.4046 9.84001 28.2555 9.86546ZM28.2555 11.0143C27.9538 11.0143 27.6884 10.8544 27.6884 10.5926C27.6884 10.2763 28.1065 10.1418 28.2555 10.1236C28.4046 10.1418 28.819 10.2763 28.819 10.5926C28.819 10.8544 28.5536 11.0143 28.2555 11.0143ZM30.0499 9.97453C30.3989 9.97453 30.6389 9.72004 30.6389 9.38192C30.6389 9.04017 30.3989 8.7784 30.0499 8.7784C29.7045 8.7784 29.4682 9.04017 29.4682 9.38192C29.4682 9.72004 29.7045 9.97453 30.0499 9.97453ZM30.0172 11.2397L31.5696 8.81476H31.3697L29.8209 11.2397H30.0172ZM31.3151 11.2834C31.6605 11.2834 31.9005 11.0289 31.9005 10.6908C31.9005 10.349 31.6605 10.0872 31.3151 10.0872C30.9697 10.0872 30.7334 10.349 30.7334 10.6908C30.7334 11.0289 30.9697 11.2834 31.3151 11.2834ZM30.0499 9.79275C29.8354 9.79275 29.6864 9.61097 29.6864 9.38192C29.6864 9.14197 29.8354 8.96382 30.0499 8.96382C30.2681 8.96382 30.4208 9.14197 30.4208 9.38192C30.4208 9.61097 30.2681 9.79275 30.0499 9.79275ZM31.3151 11.1016C31.097 11.1016 30.9479 10.9198 30.9479 10.6908C30.9479 10.4508 31.097 10.2727 31.3151 10.2727C31.5333 10.2727 31.686 10.4508 31.686 10.6908C31.686 10.9198 31.5333 11.1016 31.3151 11.1016Z" fill="white"/>
<rect x="39.1006" y="3.01318" width="18.6328" height="11.3615" rx="3.63567" fill="#DC883A"/>
<path d="M42.4203 7.05859V5.54298H42.2317V7.05859H42.4203ZM44.0751 7.05859V5.54298H43.8865V6.72684L43.0139 5.54298H42.8208V7.05859H43.0094V5.84973L43.8933 7.05859H44.0751ZM44.6636 7.05859V6.36782H45.4521V6.19967H44.6636V5.71112H45.468V5.54298H44.475V7.05859H44.6636ZM45.8798 7.08586C46.1502 7.08586 46.3615 6.93135 46.3615 6.60186V5.54298H46.1729V6.59959C46.1729 6.78819 46.0548 6.91771 45.8684 6.91771C45.7366 6.91771 45.648 6.84727 45.5821 6.76774L45.4844 6.91089C45.5889 7.0336 45.7185 7.08586 45.8798 7.08586Z" fill="white"/>
<path d="M42.8288 11.2397L43.8214 9.02199V8.81476H42.1671V9.0838H43.4724L42.4944 11.2397H42.8288ZM44.2594 11.1525C44.2594 10.978 44.1503 10.8762 44.0303 10.8762C43.9212 10.8762 43.8376 10.9671 43.8376 11.0725C43.8376 11.1816 43.9103 11.2579 44.0121 11.2579C44.0303 11.2579 44.0558 11.2543 44.063 11.2507C44.0485 11.3706 43.9431 11.5124 43.8267 11.5888L43.9612 11.7015C44.1285 11.5815 44.2594 11.3743 44.2594 11.1525ZM45.5972 11.2834C46.0844 11.2834 46.4588 10.978 46.4588 10.4835C46.4588 9.98544 46.0916 9.70913 45.6881 9.70913C45.4445 9.70913 45.2372 9.81093 45.1209 9.92727V9.0838H46.3025V8.81476H44.8191V10.1236L45.0409 10.1999C45.2045 10.04 45.3863 9.9709 45.6008 9.9709C45.928 9.9709 46.1571 10.1745 46.1571 10.4944C46.1571 10.7889 45.928 11.0143 45.5972 11.0143C45.299 11.0143 45.0882 10.898 44.9282 10.6944L44.7428 10.8944C44.9246 11.1343 45.1863 11.2834 45.5972 11.2834ZM47.3872 9.97453C47.7362 9.97453 47.9761 9.72004 47.9761 9.38192C47.9761 9.04017 47.7362 8.7784 47.3872 8.7784C47.0418 8.7784 46.8055 9.04017 46.8055 9.38192C46.8055 9.72004 47.0418 9.97453 47.3872 9.97453ZM47.3544 11.2397L48.9069 8.81476H48.7069L47.1581 11.2397H47.3544ZM48.6524 11.2834C48.9978 11.2834 49.2377 11.0289 49.2377 10.6908C49.2377 10.349 48.9978 10.0872 48.6524 10.0872C48.307 10.0872 48.0707 10.349 48.0707 10.6908C48.0707 11.0289 48.307 11.2834 48.6524 11.2834ZM47.3872 9.79275C47.1727 9.79275 47.0236 9.61097 47.0236 9.38192C47.0236 9.14197 47.1727 8.96382 47.3872 8.96382C47.6053 8.96382 47.758 9.14197 47.758 9.38192C47.758 9.61097 47.6053 9.79275 47.3872 9.79275ZM48.6524 11.1016C48.4342 11.1016 48.2852 10.9198 48.2852 10.6908C48.2852 10.4508 48.4342 10.2727 48.6524 10.2727C48.8705 10.2727 49.0232 10.4508 49.0232 10.6908C49.0232 10.9198 48.8705 11.1016 48.6524 11.1016Z" fill="white"/>
<rect x="58.1877" y="3.01318" width="18.6328" height="11.3615" rx="3.63567" fill="#F06868"/>
<path d="M61.5074 7.05859V5.54298H61.3188V7.05859H61.5074ZM63.1623 7.05859V5.54298H62.9737V6.72684L62.1011 5.54298H61.9079V7.05859H62.0965V5.84973L62.9805 7.05859H63.1623ZM64.1257 7.05859V5.71112H64.6074V5.54298H63.4577V5.71112H63.9371V7.05859H64.1257ZM64.9581 7.08586C65.2285 7.08586 65.4398 6.93135 65.4398 6.60186V5.54298H65.2512V6.59959C65.2512 6.78819 65.133 6.91771 64.9467 6.91771C64.8149 6.91771 64.7263 6.84727 64.6604 6.76774L64.5627 6.91089C64.6672 7.0336 64.7967 7.08586 64.9581 7.08586Z" fill="white"/>
<path d="M63.0031 11.2397V10.9707H61.8142C62.4904 10.4363 62.9922 9.98544 62.9922 9.49099C62.9922 9.00745 62.5813 8.7784 62.1778 8.7784C61.836 8.7784 61.5197 8.91656 61.3343 9.16015L61.5197 9.35284C61.6615 9.17105 61.8869 9.04744 62.1778 9.04744C62.4286 9.04744 62.6831 9.18196 62.6831 9.49099C62.6831 9.90909 62.2105 10.3127 61.3379 10.9998V11.2397H63.0031ZM63.9643 11.1525C63.9643 10.978 63.8552 10.8762 63.7353 10.8762C63.6262 10.8762 63.5426 10.9671 63.5426 11.0725C63.5426 11.1816 63.6153 11.2579 63.7171 11.2579C63.7353 11.2579 63.7607 11.2543 63.768 11.2507C63.7534 11.3706 63.648 11.5124 63.5317 11.5888L63.6662 11.7015C63.8334 11.5815 63.9643 11.3743 63.9643 11.1525ZM64.8726 11.2397V8.81476H64.6072L64.0001 9.44009L64.1819 9.62551L64.5709 9.21468V11.2397H64.8726ZM65.8956 9.97453C66.2446 9.97453 66.4846 9.72004 66.4846 9.38192C66.4846 9.04017 66.2446 8.7784 65.8956 8.7784C65.5502 8.7784 65.3139 9.04017 65.3139 9.38192C65.3139 9.72004 65.5502 9.97453 65.8956 9.97453ZM65.8629 11.2397L67.4153 8.81476H67.2154L65.6666 11.2397H65.8629ZM67.1608 11.2834C67.5062 11.2834 67.7462 11.0289 67.7462 10.6908C67.7462 10.349 67.5062 10.0872 67.1608 10.0872C66.8154 10.0872 66.5791 10.349 66.5791 10.6908C66.5791 11.0289 66.8154 11.2834 67.1608 11.2834ZM65.8956 9.79275C65.6811 9.79275 65.532 9.61097 65.532 9.38192C65.532 9.14197 65.6811 8.96382 65.8956 8.96382C66.1137 8.96382 66.2664 9.14197 66.2664 9.38192C66.2664 9.61097 66.1137 9.79275 65.8956 9.79275ZM67.1608 11.1016C66.9427 11.1016 66.7936 10.9198 66.7936 10.6908C66.7936 10.4508 66.9427 10.2727 67.1608 10.2727C67.379 10.2727 67.5317 10.4508 67.5317 10.6908C67.5317 10.9198 67.379 11.1016 67.1608 11.1016Z" fill="white"/>
<rect x="0.926025" y="14.8291" width="18.6328" height="11.3615" rx="3.63567" fill="#DC883A"/>
<path d="M4.24597 18.874V17.3584H4.05737V18.874H4.24597ZM5.13729 18.9013C5.5463 18.9013 5.69627 18.6763 5.69627 18.4559C5.69627 17.8901 4.79872 18.0855 4.79872 17.7447C4.79872 17.6015 4.92824 17.5038 5.11002 17.5038C5.2759 17.5038 5.43496 17.5606 5.54857 17.6856L5.66219 17.547C5.53494 17.4129 5.35543 17.3357 5.12366 17.3357C4.82599 17.3357 4.6033 17.5061 4.6033 17.7561C4.6033 18.2969 5.50086 18.081 5.50086 18.4718C5.50086 18.5877 5.41451 18.7331 5.14411 18.7331C4.93051 18.7331 4.76691 18.6286 4.66693 18.5173L4.55558 18.6604C4.68056 18.8013 4.8737 18.9013 5.13729 18.9013ZM6.57356 18.874V17.5266H7.05528V17.3584H5.9055V17.5266H6.38496V18.874H6.57356ZM7.53999 18.874V18.2719H7.96036C8.26031 18.2719 8.43527 18.0628 8.43527 17.8151C8.43527 17.5675 8.26485 17.3584 7.96036 17.3584H7.35139V18.874H7.53999ZM7.93764 18.1037H7.53999V17.5266H7.93764C8.11715 17.5266 8.23986 17.6447 8.23986 17.8151C8.23986 17.9856 8.11715 18.1037 7.93764 18.1037Z" fill="white"/>
<path d="M4.97446 23.0993C5.46164 23.0993 5.83612 22.7939 5.83612 22.2994C5.83612 21.8014 5.46891 21.525 5.06535 21.525C4.82176 21.525 4.61453 21.6268 4.49819 21.7432V20.8997H5.67978V20.6307H4.19643V21.9395L4.41821 22.0159C4.58181 21.8559 4.76359 21.7868 4.9781 21.7868C5.30531 21.7868 5.53435 21.9904 5.53435 22.3104C5.53435 22.6048 5.30531 22.8303 4.97446 22.8303C4.67634 22.8303 4.46547 22.7139 4.3055 22.5103L4.12008 22.7103C4.30186 22.9502 4.56363 23.0993 4.97446 23.0993ZM6.70992 22.9684C6.70992 22.7939 6.60085 22.6921 6.48088 22.6921C6.37181 22.6921 6.28819 22.783 6.28819 22.8884C6.28819 22.9975 6.3609 23.0738 6.4627 23.0738C6.48088 23.0738 6.50633 23.0702 6.5136 23.0666C6.49906 23.1865 6.39362 23.3283 6.27728 23.4047L6.4118 23.5174C6.57904 23.3974 6.70992 23.1902 6.70992 22.9684ZM8.52401 23.0557V22.4412H8.86576V22.1758H8.52401V20.6307H8.10954L7.06974 22.1904V22.4412H8.22225V23.0557H8.52401ZM8.22225 22.1758H7.3715L8.22225 20.9106V22.1758ZM9.72057 21.7905C10.0696 21.7905 10.3095 21.536 10.3095 21.1978C10.3095 20.8561 10.0696 20.5943 9.72057 20.5943C9.37518 20.5943 9.13886 20.8561 9.13886 21.1978C9.13886 21.536 9.37518 21.7905 9.72057 21.7905ZM9.68785 23.0557L11.2403 20.6307H11.0403L9.49152 23.0557H9.68785ZM10.9858 23.0993C11.3312 23.0993 11.5711 22.8448 11.5711 22.5067C11.5711 22.1649 11.3312 21.9032 10.9858 21.9032C10.6404 21.9032 10.4041 22.1649 10.4041 22.5067C10.4041 22.8448 10.6404 23.0993 10.9858 23.0993ZM9.72057 21.6087C9.50606 21.6087 9.357 21.4269 9.357 21.1978C9.357 20.9579 9.50606 20.7797 9.72057 20.7797C9.93871 20.7797 10.0914 20.9579 10.0914 21.1978C10.0914 21.4269 9.93871 21.6087 9.72057 21.6087ZM10.9858 22.9175C10.7676 22.9175 10.6186 22.7357 10.6186 22.5067C10.6186 22.2667 10.7676 22.0886 10.9858 22.0886C11.2039 22.0886 11.3566 22.2667 11.3566 22.5067C11.3566 22.7357 11.2039 22.9175 10.9858 22.9175Z" fill="white"/>
<rect x="20.0132" y="14.8291" width="18.6328" height="11.3615" rx="3.63567" fill="#24FF00" fill-opacity="0.25"/>
<path d="M23.3331 18.874V17.3584H23.1445V18.874H23.3331ZM24.2244 18.9013C24.6335 18.9013 24.7834 18.6763 24.7834 18.4559C24.7834 17.8901 23.8859 18.0855 23.8859 17.7447C23.8859 17.6015 24.0154 17.5038 24.1972 17.5038C24.3631 17.5038 24.5221 17.5606 24.6357 17.6856L24.7493 17.547C24.6221 17.4129 24.4426 17.3357 24.2108 17.3357C23.9131 17.3357 23.6905 17.5061 23.6905 17.7561C23.6905 18.2969 24.588 18.081 24.588 18.4718C24.588 18.5877 24.5017 18.7331 24.2313 18.7331C24.0177 18.7331 23.8541 18.6286 23.7541 18.5173L23.6427 18.6604C23.7677 18.8013 23.9609 18.9013 24.2244 18.9013ZM25.2991 18.874V18.1832H26.0876V18.0151H25.2991V17.5266H26.1035V17.3584H25.1105V18.874H25.2991ZM26.5939 18.874V18.2719H27.0142C27.3142 18.2719 27.4891 18.0628 27.4891 17.8151C27.4891 17.5675 27.3187 17.3584 27.0142 17.3584H26.4053V18.874H26.5939ZM26.9915 18.1037H26.5939V17.5266H26.9915C27.171 17.5266 27.2937 17.6447 27.2937 17.8151C27.2937 17.9856 27.171 18.1037 26.9915 18.1037Z" fill="white"/>
<path d="M23.9162 23.0557V20.6307H23.6508L23.0436 21.256L23.2254 21.4414L23.6144 21.0306V23.0557H23.9162ZM26.1062 23.0557V22.7866H24.9173C25.5936 22.2522 26.0953 21.8014 26.0953 21.3069C26.0953 20.8234 25.6845 20.5943 25.2809 20.5943C24.9392 20.5943 24.6228 20.7325 24.4374 20.9761L24.6228 21.1688C24.7646 20.987 24.9901 20.8634 25.2809 20.8634C25.5318 20.8634 25.7863 20.9979 25.7863 21.3069C25.7863 21.725 25.3136 22.1286 24.4411 22.8157V23.0557H26.1062ZM27.0674 22.9684C27.0674 22.7939 26.9584 22.6921 26.8384 22.6921C26.7293 22.6921 26.6457 22.783 26.6457 22.8884C26.6457 22.9975 26.7184 23.0738 26.8202 23.0738C26.8384 23.0738 26.8638 23.0702 26.8711 23.0666C26.8566 23.1865 26.7511 23.3283 26.6348 23.4047L26.7693 23.5174C26.9366 23.3974 27.0674 23.1902 27.0674 22.9684ZM28.3689 23.0993C28.8452 23.0993 29.2378 22.8521 29.2378 22.4412C29.2378 22.1177 28.9615 21.8959 28.6597 21.805C28.9397 21.725 29.2015 21.5432 29.2015 21.2233C29.2015 20.787 28.7688 20.5943 28.3689 20.5943C27.9653 20.5943 27.54 20.787 27.54 21.2233C27.54 21.5432 27.7981 21.725 28.078 21.805C27.7763 21.8959 27.5 22.1177 27.5 22.4412C27.5 22.8557 27.889 23.0993 28.3689 23.0993ZM28.3689 21.6814C28.2235 21.6559 27.8417 21.5578 27.8417 21.2633C27.8417 21.0124 28.0744 20.8634 28.3689 20.8634C28.6597 20.8634 28.8961 21.0124 28.8961 21.2633C28.8961 21.5578 28.518 21.6559 28.3689 21.6814ZM28.3689 22.8303C28.0671 22.8303 27.8017 22.6703 27.8017 22.4085C27.8017 22.0922 28.2198 21.9577 28.3689 21.9395C28.518 21.9577 28.9324 22.0922 28.9324 22.4085C28.9324 22.6703 28.667 22.8303 28.3689 22.8303ZM30.1633 21.7905C30.5123 21.7905 30.7523 21.536 30.7523 21.1978C30.7523 20.8561 30.5123 20.5943 30.1633 20.5943C29.8179 20.5943 29.5816 20.8561 29.5816 21.1978C29.5816 21.536 29.8179 21.7905 30.1633 21.7905ZM30.1306 23.0557L31.683 20.6307H31.483L29.9342 23.0557H30.1306ZM31.4285 23.0993C31.7739 23.0993 32.0138 22.8448 32.0138 22.5067C32.0138 22.1649 31.7739 21.9032 31.4285 21.9032C31.0831 21.9032 30.8468 22.1649 30.8468 22.5067C30.8468 22.8448 31.0831 23.0993 31.4285 23.0993ZM30.1633 21.6087C29.9488 21.6087 29.7997 21.4269 29.7997 21.1978C29.7997 20.9579 29.9488 20.7797 30.1633 20.7797C30.3814 20.7797 30.5341 20.9579 30.5341 21.1978C30.5341 21.4269 30.3814 21.6087 30.1633 21.6087ZM31.4285 22.9175C31.2104 22.9175 31.0613 22.7357 31.0613 22.5067C31.0613 22.2667 31.2104 22.0886 31.4285 22.0886C31.6466 22.0886 31.7993 22.2667 31.7993 22.5067C31.7993 22.7357 31.6466 22.9175 31.4285 22.9175Z" fill="white"/>
<rect x="39.1006" y="14.8291" width="18.6328" height="11.3615" rx="3.63567" fill="#DC883A"/>
<path d="M42.4203 18.874V17.3584H42.2317V18.874H42.4203ZM44.0751 18.874V17.3584H43.8865V18.5423L43.0139 17.3584H42.8208V18.874H43.0094V17.6652L43.8933 18.874H44.0751ZM44.6636 18.874V18.1832H45.4521V18.0151H44.6636V17.5266H45.468V17.3584H44.475V18.874H44.6636ZM45.9584 18.874V18.2719H46.3788C46.6787 18.2719 46.8537 18.0628 46.8537 17.8151C46.8537 17.5675 46.6833 17.3584 46.3788 17.3584H45.7698V18.874H45.9584ZM46.3561 18.1037H45.9584V17.5266H46.3561C46.5356 17.5266 46.6583 17.6447 46.6583 17.8151C46.6583 17.9856 46.5356 18.1037 46.3561 18.1037Z" fill="white"/>
<path d="M43.1742 23.0993C43.705 23.0993 44.025 22.7285 44.025 22.3067C44.025 21.7905 43.6687 21.5323 43.2324 21.5323C42.9197 21.5323 42.6507 21.7432 42.5453 21.9104C42.5416 21.8777 42.5416 21.8486 42.5416 21.8159C42.5416 21.3396 42.7561 20.8634 43.2251 20.8634C43.4796 20.8634 43.6214 20.9652 43.745 21.1106L43.8977 20.8852C43.7487 20.7143 43.5378 20.5943 43.2251 20.5943C42.5453 20.5943 42.2399 21.1906 42.2399 21.8486C42.2399 22.5067 42.498 23.0993 43.1742 23.0993ZM43.1633 22.8303C42.7416 22.8303 42.5816 22.4594 42.5525 22.1577C42.687 21.9432 42.9197 21.7941 43.1597 21.7941C43.4724 21.7941 43.7196 21.9613 43.7196 22.3176C43.7196 22.5503 43.5378 22.8303 43.1633 22.8303ZM44.8878 22.9684C44.8878 22.7939 44.7787 22.6921 44.6587 22.6921C44.5497 22.6921 44.4661 22.783 44.4661 22.8884C44.4661 22.9975 44.5388 23.0738 44.6406 23.0738C44.6587 23.0738 44.6842 23.0702 44.6915 23.0666C44.6769 23.1865 44.5715 23.3283 44.4551 23.4047L44.5897 23.5174C44.7569 23.3974 44.8878 23.1902 44.8878 22.9684ZM46.0984 23.0993C46.6328 23.0993 46.9564 22.8048 46.9564 22.4012C46.9564 22.0122 46.6183 21.8232 46.3965 21.805C46.6255 21.765 46.92 21.5905 46.92 21.2415C46.92 20.8306 46.5637 20.5943 46.0984 20.5943C45.7239 20.5943 45.4439 20.7579 45.2694 20.9688L45.4367 21.1578C45.6148 20.9652 45.8111 20.8634 46.0765 20.8634C46.371 20.8634 46.6183 21.0088 46.6183 21.2778C46.6183 21.5578 46.3601 21.6777 46.0547 21.6777C45.9566 21.6777 45.8439 21.6777 45.8039 21.6741V21.9504C45.8402 21.9468 45.9529 21.9468 46.0547 21.9468C46.411 21.9468 46.6582 22.074 46.6582 22.3758C46.6582 22.6557 46.4437 22.8303 46.0911 22.8303C45.8039 22.8303 45.5566 22.6994 45.4148 22.5103L45.2367 22.6994C45.3858 22.9175 45.6875 23.0993 46.0984 23.0993ZM47.8949 21.7905C48.2439 21.7905 48.4839 21.536 48.4839 21.1978C48.4839 20.8561 48.2439 20.5943 47.8949 20.5943C47.5495 20.5943 47.3132 20.8561 47.3132 21.1978C47.3132 21.536 47.5495 21.7905 47.8949 21.7905ZM47.8622 23.0557L49.4146 20.6307H49.2146L47.6658 23.0557H47.8622ZM49.1601 23.0993C49.5055 23.0993 49.7454 22.8448 49.7454 22.5067C49.7454 22.1649 49.5055 21.9032 49.1601 21.9032C48.8147 21.9032 48.5784 22.1649 48.5784 22.5067C48.5784 22.8448 48.8147 23.0993 49.1601 23.0993ZM47.8949 21.6087C47.6804 21.6087 47.5313 21.4269 47.5313 21.1978C47.5313 20.9579 47.6804 20.7797 47.8949 20.7797C48.113 20.7797 48.2657 20.9579 48.2657 21.1978C48.2657 21.4269 48.113 21.6087 47.8949 21.6087ZM49.1601 22.9175C48.942 22.9175 48.7929 22.7357 48.7929 22.5067C48.7929 22.2667 48.942 22.0886 49.1601 22.0886C49.3782 22.0886 49.5309 22.2667 49.5309 22.5067C49.5309 22.7357 49.3782 22.9175 49.1601 22.9175Z" fill="white"/>
<rect x="58.1877" y="14.8291" width="18.6328" height="11.3615" rx="3.63567" fill="#F06868"/>
<path d="M61.5074 18.874V17.3584H61.3188V18.874H61.5074ZM63.1623 18.874V17.3584H62.9737V18.5423L62.1011 17.3584H61.9079V18.874H62.0965V17.6652L62.9805 18.874H63.1623ZM64.1257 18.874V17.5266H64.6074V17.3584H63.4577V17.5266H63.9371V18.874H64.1257ZM65.0922 18.874V18.2719H65.5125C65.8125 18.2719 65.9874 18.0628 65.9874 17.8151C65.9874 17.5675 65.817 17.3584 65.5125 17.3584H64.9036V18.874H65.0922ZM65.4898 18.1037H65.0922V17.5266H65.4898C65.6693 17.5266 65.792 17.6447 65.792 17.8151C65.792 17.9856 65.6693 18.1037 65.4898 18.1037Z" fill="white"/>
<path d="M62.1087 23.0993C62.6431 23.0993 62.9667 22.8048 62.9667 22.4012C62.9667 22.0122 62.6286 21.8232 62.4068 21.805C62.6359 21.765 62.9303 21.5905 62.9303 21.2415C62.9303 20.8306 62.5741 20.5943 62.1087 20.5943C61.7342 20.5943 61.4543 20.7579 61.2798 20.9688L61.447 21.1578C61.6251 20.9652 61.8215 20.8634 62.0869 20.8634C62.3814 20.8634 62.6286 21.0088 62.6286 21.2778C62.6286 21.5578 62.3705 21.6777 62.0651 21.6777C61.9669 21.6777 61.8542 21.6777 61.8142 21.6741V21.9504C61.8506 21.9468 61.9633 21.9468 62.0651 21.9468C62.4214 21.9468 62.6686 22.074 62.6686 22.3758C62.6686 22.6557 62.4541 22.8303 62.1014 22.8303C61.8142 22.8303 61.567 22.6994 61.4252 22.5103L61.247 22.6994C61.3961 22.9175 61.6979 23.0993 62.1087 23.0993ZM63.8507 22.9684C63.8507 22.7939 63.7416 22.6921 63.6216 22.6921C63.5126 22.6921 63.4289 22.783 63.4289 22.8884C63.4289 22.9975 63.5017 23.0738 63.6035 23.0738C63.6216 23.0738 63.6471 23.0702 63.6544 23.0666C63.6398 23.1865 63.5344 23.3283 63.418 23.4047L63.5526 23.5174C63.7198 23.3974 63.8507 23.1902 63.8507 22.9684ZM65.0612 23.0993C65.5957 23.0993 65.9193 22.8048 65.9193 22.4012C65.9193 22.0122 65.5811 21.8232 65.3594 21.805C65.5884 21.765 65.8829 21.5905 65.8829 21.2415C65.8829 20.8306 65.5266 20.5943 65.0612 20.5943C64.6868 20.5943 64.4068 20.7579 64.2323 20.9688L64.3996 21.1578C64.5777 20.9652 64.774 20.8634 65.0394 20.8634C65.3339 20.8634 65.5811 21.0088 65.5811 21.2778C65.5811 21.5578 65.323 21.6777 65.0176 21.6777C64.9195 21.6777 64.8068 21.6777 64.7668 21.6741V21.9504C64.8031 21.9468 64.9158 21.9468 65.0176 21.9468C65.3739 21.9468 65.6211 22.074 65.6211 22.3758C65.6211 22.6557 65.4066 22.8303 65.054 22.8303C64.7668 22.8303 64.5195 22.6994 64.3777 22.5103L64.1996 22.6994C64.3487 22.9175 64.6504 23.0993 65.0612 23.0993ZM66.8578 21.7905C67.2068 21.7905 67.4468 21.536 67.4468 21.1978C67.4468 20.8561 67.2068 20.5943 66.8578 20.5943C66.5124 20.5943 66.2761 20.8561 66.2761 21.1978C66.2761 21.536 66.5124 21.7905 66.8578 21.7905ZM66.8251 23.0557L68.3775 20.6307H68.1775L66.6287 23.0557H66.8251ZM68.123 23.0993C68.4684 23.0993 68.7083 22.8448 68.7083 22.5067C68.7083 22.1649 68.4684 21.9032 68.123 21.9032C67.7776 21.9032 67.5413 22.1649 67.5413 22.5067C67.5413 22.8448 67.7776 23.0993 68.123 23.0993ZM66.8578 21.6087C66.6433 21.6087 66.4942 21.4269 66.4942 21.1978C66.4942 20.9579 66.6433 20.7797 66.8578 20.7797C67.0759 20.7797 67.2286 20.9579 67.2286 21.1978C67.2286 21.4269 67.0759 21.6087 66.8578 21.6087ZM68.123 22.9175C67.9048 22.9175 67.7558 22.7357 67.7558 22.5067C67.7558 22.2667 67.9048 22.0886 68.123 22.0886C68.3411 22.0886 68.4938 22.2667 68.4938 22.5067C68.4938 22.7357 68.3411 22.9175 68.123 22.9175Z" fill="white"/>
<rect x="0.926025" y="26.645" width="18.6328" height="11.3615" rx="3.63567" fill="#DC883A"/>
<path d="M5.05036 30.6899V30.5218H4.24597V29.9992H5.03445V29.831H4.24597V29.3425H5.05036V29.1743H4.05737V30.6899H5.05036ZM5.88732 30.7172C6.29634 30.7172 6.44631 30.4923 6.44631 30.2718C6.44631 29.706 5.54875 29.9015 5.54875 29.5606C5.54875 29.4175 5.67827 29.3197 5.86006 29.3197C6.02593 29.3197 6.18499 29.3766 6.29861 29.5015L6.41222 29.3629C6.28497 29.2289 6.10546 29.1516 5.87369 29.1516C5.57602 29.1516 5.35333 29.322 5.35333 29.572C5.35333 30.1128 6.25089 29.8969 6.25089 30.2877C6.25089 30.4036 6.16454 30.5491 5.89414 30.5491C5.68054 30.5491 5.51694 30.4445 5.41696 30.3332L5.30562 30.4763C5.43059 30.6172 5.62374 30.7172 5.88732 30.7172ZM7.32359 30.6899V29.3425H7.80531V29.1743H6.65554V29.3425H7.13499V30.6899H7.32359ZM8.29002 30.6899V30.0878H8.7104C9.01034 30.0878 9.18531 29.8787 9.18531 29.6311C9.18531 29.3834 9.01488 29.1743 8.7104 29.1743H8.10142V30.6899H8.29002ZM8.68767 29.9196H8.29002V29.3425H8.68767C8.86718 29.3425 8.98989 29.4606 8.98989 29.6311C8.98989 29.8015 8.86718 29.9196 8.68767 29.9196Z" fill="white"/>
<path d="M4.99991 34.9147C5.53072 34.9147 5.85066 34.5439 5.85066 34.1221C5.85066 33.6059 5.49436 33.3477 5.05808 33.3477C4.74542 33.3477 4.47638 33.5586 4.37094 33.7259C4.36731 33.6931 4.36731 33.6641 4.36731 33.6313C4.36731 33.1551 4.58181 32.6788 5.05081 32.6788C5.30531 32.6788 5.4471 32.7806 5.57071 32.926L5.72341 32.7006C5.57435 32.5297 5.36348 32.4097 5.05081 32.4097C4.37094 32.4097 4.06555 33.006 4.06555 33.6641C4.06555 34.3221 4.32368 34.9147 4.99991 34.9147ZM4.98901 34.6457C4.56727 34.6457 4.4073 34.2748 4.37821 33.9731C4.51273 33.7586 4.74542 33.6095 4.98537 33.6095C5.29804 33.6095 5.54526 33.7768 5.54526 34.1331C5.54526 34.3657 5.36348 34.6457 4.98901 34.6457ZM6.71348 34.7838C6.71348 34.6093 6.60441 34.5075 6.48443 34.5075C6.37536 34.5075 6.29174 34.5984 6.29174 34.7039C6.29174 34.8129 6.36445 34.8893 6.46625 34.8893C6.48443 34.8893 6.50988 34.8856 6.51715 34.882C6.50261 35.002 6.39717 35.1438 6.28083 35.2201L6.41535 35.3328C6.58259 35.2128 6.71348 35.0056 6.71348 34.7838ZM7.92404 34.9147C8.45848 34.9147 8.78206 34.6202 8.78206 34.2167C8.78206 33.8277 8.44394 33.6386 8.22216 33.6204C8.45121 33.5804 8.7457 33.4059 8.7457 33.0569C8.7457 32.6461 8.3894 32.4097 7.92404 32.4097C7.54956 32.4097 7.26962 32.5734 7.09511 32.7842L7.26235 32.9733C7.44049 32.7806 7.63682 32.6788 7.90222 32.6788C8.19671 32.6788 8.44394 32.8242 8.44394 33.0933C8.44394 33.3732 8.18581 33.4932 7.88041 33.4932C7.78225 33.4932 7.66954 33.4932 7.62955 33.4895V33.7659C7.66591 33.7622 7.77861 33.7622 7.88041 33.7622C8.23671 33.7622 8.48393 33.8895 8.48393 34.1912C8.48393 34.4712 8.26943 34.6457 7.91677 34.6457C7.62955 34.6457 7.38232 34.5148 7.24053 34.3257L7.06239 34.5148C7.21145 34.7329 7.51321 34.9147 7.92404 34.9147ZM9.72057 33.6059C10.0696 33.6059 10.3095 33.3514 10.3095 33.0133C10.3095 32.6715 10.0696 32.4097 9.72057 32.4097C9.37518 32.4097 9.13886 32.6715 9.13886 33.0133C9.13886 33.3514 9.37518 33.6059 9.72057 33.6059ZM9.68785 34.8711L11.2403 32.4461H11.0403L9.49152 34.8711H9.68785ZM10.9858 34.9147C11.3312 34.9147 11.5711 34.6602 11.5711 34.3221C11.5711 33.9804 11.3312 33.7186 10.9858 33.7186C10.6404 33.7186 10.4041 33.9804 10.4041 34.3221C10.4041 34.6602 10.6404 34.9147 10.9858 34.9147ZM9.72057 33.4241C9.50606 33.4241 9.357 33.2423 9.357 33.0133C9.357 32.7733 9.50606 32.5952 9.72057 32.5952C9.93871 32.5952 10.0914 32.7733 10.0914 33.0133C10.0914 33.2423 9.93871 33.4241 9.72057 33.4241ZM10.9858 34.7329C10.7676 34.7329 10.6186 34.5512 10.6186 34.3221C10.6186 34.0822 10.7676 33.904 10.9858 33.904C11.2039 33.904 11.3566 34.0822 11.3566 34.3221C11.3566 34.5512 11.2039 34.7329 10.9858 34.7329Z" fill="white"/>
<rect x="20.0132" y="26.645" width="18.6328" height="11.3615" rx="3.63567" fill="#DC883A"/>
<path d="M24.1375 30.6899V30.5218H23.3331V29.9992H24.1216V29.831H23.3331V29.3425H24.1375V29.1743H23.1445V30.6899H24.1375ZM24.9745 30.7172C25.3835 30.7172 25.5335 30.4923 25.5335 30.2718C25.5335 29.706 24.6359 29.9015 24.6359 29.5606C24.6359 29.4175 24.7654 29.3197 24.9472 29.3197C25.1131 29.3197 25.2722 29.3766 25.3858 29.5015L25.4994 29.3629C25.3721 29.2289 25.1926 29.1516 24.9608 29.1516C24.6632 29.1516 24.4405 29.322 24.4405 29.572C24.4405 30.1128 25.338 29.8969 25.338 30.2877C25.338 30.4036 25.2517 30.5491 24.9813 30.5491C24.7677 30.5491 24.6041 30.4445 24.5041 30.3332L24.3928 30.4763C24.5178 30.6172 24.7109 30.7172 24.9745 30.7172ZM26.0491 30.6899V29.9992H26.8376V29.831H26.0491V29.3425H26.8535V29.1743H25.8605V30.6899H26.0491ZM27.3439 30.6899V30.0878H27.7643C28.0642 30.0878 28.2392 29.8787 28.2392 29.6311C28.2392 29.3834 28.0688 29.1743 27.7643 29.1743H27.1553V30.6899H27.3439ZM27.7415 29.9196H27.3439V29.3425H27.7415C27.9211 29.3425 28.0438 29.4606 28.0438 29.6311C28.0438 29.8015 27.9211 29.9196 27.7415 29.9196Z" fill="white"/>
<path d="M24.0253 34.9147C24.5015 34.9147 24.8942 34.6675 24.8942 34.2567C24.8942 33.9331 24.6179 33.7113 24.3161 33.6204C24.5961 33.5404 24.8578 33.3587 24.8578 33.0387C24.8578 32.6024 24.4252 32.4097 24.0253 32.4097C23.6217 32.4097 23.1963 32.6024 23.1963 33.0387C23.1963 33.3587 23.4545 33.5404 23.7344 33.6204C23.4327 33.7113 23.1563 33.9331 23.1563 34.2567C23.1563 34.6711 23.5454 34.9147 24.0253 34.9147ZM24.0253 33.4968C23.8798 33.4714 23.4981 33.3732 23.4981 33.0787C23.4981 32.8278 23.7308 32.6788 24.0253 32.6788C24.3161 32.6788 24.5524 32.8278 24.5524 33.0787C24.5524 33.3732 24.1743 33.4714 24.0253 33.4968ZM24.0253 34.6457C23.7235 34.6457 23.4581 34.4857 23.4581 34.2239C23.4581 33.9076 23.8762 33.7731 24.0253 33.7549C24.1743 33.7731 24.5888 33.9076 24.5888 34.2239C24.5888 34.4857 24.3234 34.6457 24.0253 34.6457ZM25.7651 34.7838C25.7651 34.6093 25.6561 34.5075 25.5361 34.5075C25.427 34.5075 25.3434 34.5984 25.3434 34.7039C25.3434 34.8129 25.4161 34.8893 25.5179 34.8893C25.5361 34.8893 25.5615 34.8856 25.5688 34.882C25.5543 35.002 25.4488 35.1438 25.3325 35.2201L25.467 35.3328C25.6342 35.2128 25.7651 35.0056 25.7651 34.7838ZM27.1029 34.9147C27.5901 34.9147 27.9646 34.6093 27.9646 34.1149C27.9646 33.6168 27.5974 33.3405 27.1938 33.3405C26.9502 33.3405 26.743 33.4423 26.6267 33.5586V32.7151H27.8083V32.4461H26.3249V33.7549L26.5467 33.8313C26.7103 33.6713 26.8921 33.6022 27.1066 33.6022C27.4338 33.6022 27.6628 33.8058 27.6628 34.1258C27.6628 34.4203 27.4338 34.6457 27.1029 34.6457C26.8048 34.6457 26.5939 34.5293 26.434 34.3257L26.2486 34.5257C26.4303 34.7657 26.6921 34.9147 27.1029 34.9147ZM28.8929 33.6059C29.242 33.6059 29.4819 33.3514 29.4819 33.0133C29.4819 32.6715 29.242 32.4097 28.8929 32.4097C28.5475 32.4097 28.3112 32.6715 28.3112 33.0133C28.3112 33.3514 28.5475 33.6059 28.8929 33.6059ZM28.8602 34.8711L30.4126 32.4461H30.2127L28.6639 34.8711H28.8602ZM30.1581 34.9147C30.5035 34.9147 30.7435 34.6602 30.7435 34.3221C30.7435 33.9804 30.5035 33.7186 30.1581 33.7186C29.8128 33.7186 29.5764 33.9804 29.5764 34.3221C29.5764 34.6602 29.8128 34.9147 30.1581 34.9147ZM28.8929 33.4241C28.6784 33.4241 28.5294 33.2423 28.5294 33.0133C28.5294 32.7733 28.6784 32.5952 28.8929 32.5952C29.1111 32.5952 29.2638 32.7733 29.2638 33.0133C29.2638 33.2423 29.1111 33.4241 28.8929 33.4241ZM30.1581 34.7329C29.94 34.7329 29.7909 34.5512 29.7909 34.3221C29.7909 34.0822 29.94 33.904 30.1581 33.904C30.3763 33.904 30.529 34.0822 30.529 34.3221C30.529 34.5512 30.3763 34.7329 30.1581 34.7329Z" fill="white"/>
<rect x="39.1006" y="26.645" width="18.6328" height="11.3615" rx="3.63567" fill="#F06868"/>
<path d="M43.2247 30.6899V30.5218H42.4203V29.9992H43.2088V29.831H42.4203V29.3425H43.2247V29.1743H42.2317V30.6899H43.2247ZM44.8251 30.6899V29.1743H44.6365V30.3582L43.764 29.1743H43.5708V30.6899H43.7594V29.4811L44.6433 30.6899H44.8251ZM45.4137 30.6899V29.9992H46.2022V29.831H45.4137V29.3425H46.2181V29.1743H45.2251V30.6899H45.4137ZM46.7084 30.6899V30.0878H47.1288C47.4287 30.0878 47.6037 29.8787 47.6037 29.6311C47.6037 29.3834 47.4333 29.1743 47.1288 29.1743H46.5198V30.6899H46.7084ZM47.1061 29.9196H46.7084V29.3425H47.1061C47.2856 29.3425 47.4083 29.4606 47.4083 29.6311C47.4083 29.8015 47.2856 29.9196 47.1061 29.9196Z" fill="white"/>
<path d="M43.6251 34.8711V34.2567H43.9668V33.9913H43.6251V32.4461H43.2106L42.1708 34.0058V34.2567H43.3233V34.8711H43.6251ZM43.3233 33.9913H42.4725L43.3233 32.7261V33.9913ZM44.7671 34.7838C44.7671 34.6093 44.658 34.5075 44.538 34.5075C44.429 34.5075 44.3453 34.5984 44.3453 34.7039C44.3453 34.8129 44.4181 34.8893 44.5199 34.8893C44.538 34.8893 44.5635 34.8856 44.5708 34.882C44.5562 35.002 44.4508 35.1438 44.3344 35.2201L44.469 35.3328C44.6362 35.2128 44.7671 35.0056 44.7671 34.7838ZM45.6754 34.8711V32.4461H45.41L44.8029 33.0714L44.9846 33.2569L45.3737 32.846V34.8711H45.6754ZM46.6984 33.6059C47.0474 33.6059 47.2874 33.3514 47.2874 33.0133C47.2874 32.6715 47.0474 32.4097 46.6984 32.4097C46.353 32.4097 46.1167 32.6715 46.1167 33.0133C46.1167 33.3514 46.353 33.6059 46.6984 33.6059ZM46.6657 34.8711L48.2181 32.4461H48.0181L46.4693 34.8711H46.6657ZM47.9636 34.9147C48.309 34.9147 48.5489 34.6602 48.5489 34.3221C48.5489 33.9804 48.309 33.7186 47.9636 33.7186C47.6182 33.7186 47.3819 33.9804 47.3819 34.3221C47.3819 34.6602 47.6182 34.9147 47.9636 34.9147ZM46.6984 33.4241C46.4839 33.4241 46.3348 33.2423 46.3348 33.0133C46.3348 32.7733 46.4839 32.5952 46.6984 32.5952C46.9165 32.5952 47.0692 32.7733 47.0692 33.0133C47.0692 33.2423 46.9165 33.4241 46.6984 33.4241ZM47.9636 34.7329C47.7455 34.7329 47.5964 34.5512 47.5964 34.3221C47.5964 34.0822 47.7455 33.904 47.9636 33.904C48.1817 33.904 48.3344 34.0822 48.3344 34.3221C48.3344 34.5512 48.1817 34.7329 47.9636 34.7329Z" fill="white"/>
<rect x="58.1877" y="26.645" width="18.6328" height="11.3615" rx="3.63567" fill="#F06868"/>
<path d="M62.3118 30.6899V30.5218H61.5074V29.9992H62.2959V29.831H61.5074V29.3425H62.3118V29.1743H61.3188V30.6899H62.3118ZM63.9123 30.6899V29.1743H63.7237V30.3582L62.8511 29.1743H62.658V30.6899H62.8466V29.4811L63.7305 30.6899H63.9123ZM64.8758 30.6899V29.3425H65.3575V29.1743H64.2077V29.3425H64.6872V30.6899H64.8758ZM65.8422 30.6899V30.0878H66.2626C66.5625 30.0878 66.7375 29.8787 66.7375 29.6311C66.7375 29.3834 66.5671 29.1743 66.2626 29.1743H65.6536V30.6899H65.8422ZM66.2398 29.9196H65.8422V29.3425H66.2398C66.4194 29.3425 66.5421 29.4606 66.5421 29.6311C66.5421 29.8015 66.4194 29.9196 66.2398 29.9196Z" fill="white"/>
<path d="M62.1087 34.9147C62.6431 34.9147 62.9667 34.6202 62.9667 34.2167C62.9667 33.8277 62.6286 33.6386 62.4068 33.6204C62.6359 33.5804 62.9303 33.4059 62.9303 33.0569C62.9303 32.6461 62.5741 32.4097 62.1087 32.4097C61.7342 32.4097 61.4543 32.5734 61.2798 32.7842L61.447 32.9733C61.6251 32.7806 61.8215 32.6788 62.0869 32.6788C62.3814 32.6788 62.6286 32.8242 62.6286 33.0933C62.6286 33.3732 62.3705 33.4932 62.0651 33.4932C61.9669 33.4932 61.8542 33.4932 61.8142 33.4895V33.7659C61.8506 33.7622 61.9633 33.7622 62.0651 33.7622C62.4214 33.7622 62.6686 33.8895 62.6686 34.1912C62.6686 34.4712 62.4541 34.6457 62.1014 34.6457C61.8142 34.6457 61.567 34.5148 61.4252 34.3257L61.247 34.5148C61.3961 34.7329 61.6979 34.9147 62.1087 34.9147ZM63.8507 34.7838C63.8507 34.6093 63.7416 34.5075 63.6216 34.5075C63.5126 34.5075 63.4289 34.5984 63.4289 34.7039C63.4289 34.8129 63.5017 34.8893 63.6035 34.8893C63.6216 34.8893 63.6471 34.8856 63.6544 34.882C63.6398 35.002 63.5344 35.1438 63.418 35.2201L63.5526 35.3328C63.7198 35.2128 63.8507 35.0056 63.8507 34.7838ZM65.9556 34.8711V34.6021H64.7668C65.443 34.0676 65.9447 33.6168 65.9447 33.1223C65.9447 32.6388 65.5339 32.4097 65.1303 32.4097C64.7886 32.4097 64.4723 32.5479 64.2869 32.7915L64.4723 32.9842C64.6141 32.8024 64.8395 32.6788 65.1303 32.6788C65.3812 32.6788 65.6357 32.8133 65.6357 33.1223C65.6357 33.5404 65.163 33.944 64.2905 34.6311V34.8711H65.9556ZM66.9714 33.6059C67.3204 33.6059 67.5604 33.3514 67.5604 33.0133C67.5604 32.6715 67.3204 32.4097 66.9714 32.4097C66.626 32.4097 66.3897 32.6715 66.3897 33.0133C66.3897 33.3514 66.626 33.6059 66.9714 33.6059ZM66.9387 34.8711L68.4911 32.4461H68.2911L66.7423 34.8711H66.9387ZM68.2366 34.9147C68.582 34.9147 68.8219 34.6602 68.8219 34.3221C68.8219 33.9804 68.582 33.7186 68.2366 33.7186C67.8912 33.7186 67.6549 33.9804 67.6549 34.3221C67.6549 34.6602 67.8912 34.9147 68.2366 34.9147ZM66.9714 33.4241C66.7569 33.4241 66.6078 33.2423 66.6078 33.0133C66.6078 32.7733 66.7569 32.5952 66.9714 32.5952C67.1895 32.5952 67.3422 32.7733 67.3422 33.0133C67.3422 33.2423 67.1895 33.4241 66.9714 33.4241ZM68.2366 34.7329C68.0185 34.7329 67.8694 34.5512 67.8694 34.3221C67.8694 34.0822 68.0185 33.904 68.2366 33.904C68.4547 33.904 68.6074 34.0822 68.6074 34.3221C68.6074 34.5512 68.4547 34.7329 68.2366 34.7329Z" fill="white"/>
<rect x="0.926025" y="38.4609" width="18.6328" height="11.3615" rx="3.63567" fill="#F06868"/>
<path d="M5.05036 42.2788V42.1107H4.24597V41.588H5.03445V41.4199H4.24597V40.9313H5.05036V40.7632H4.05737V42.2788H5.05036ZM5.88732 42.3061C6.29634 42.3061 6.44631 42.0811 6.44631 41.8607C6.44631 41.2949 5.54875 41.4903 5.54875 41.1495C5.54875 41.0063 5.67827 40.9086 5.86006 40.9086C6.02593 40.9086 6.18499 40.9654 6.29861 41.0904L6.41222 40.9518C6.28497 40.8177 6.10546 40.7405 5.87369 40.7405C5.57602 40.7405 5.35333 40.9109 5.35333 41.1608C5.35333 41.7016 6.25089 41.4858 6.25089 41.8766C6.25089 41.9925 6.16454 42.1379 5.89414 42.1379C5.68054 42.1379 5.51694 42.0334 5.41696 41.9221L5.30562 42.0652C5.43059 42.2061 5.62374 42.3061 5.88732 42.3061ZM7.32359 42.2788V40.9313H7.80531V40.7632H6.65554V40.9313H7.13499V42.2788H7.32359ZM8.15594 42.3061C8.42634 42.3061 8.63767 42.1516 8.63767 41.8221V40.7632H8.44907V41.8198C8.44907 42.0084 8.33091 42.1379 8.14458 42.1379C8.01279 42.1379 7.92417 42.0675 7.85827 41.988L7.76056 42.1311C7.86509 42.2538 7.99461 42.3061 8.15594 42.3061Z" fill="white"/>
<path d="M4.82904 46.6875V44.2625H4.56363L3.95648 44.8878L4.13826 45.0733L4.52728 44.6624V46.6875H4.82904ZM5.79746 46.6002C5.79746 46.4257 5.68839 46.3239 5.56841 46.3239C5.45934 46.3239 5.37572 46.4148 5.37572 46.5203C5.37572 46.6293 5.44843 46.7057 5.55023 46.7057C5.56841 46.7057 5.59386 46.702 5.60113 46.6984C5.58659 46.8184 5.48115 46.9602 5.36481 47.0365L5.49933 47.1492C5.66657 47.0293 5.79746 46.822 5.79746 46.6002ZM6.5739 46.6875L7.56644 44.4697V44.2625H5.91221V44.5315H7.21741L6.23942 46.6875H6.5739ZM8.41045 45.4223C8.75947 45.4223 8.99943 45.1678 8.99943 44.8297C8.99943 44.4879 8.75947 44.2262 8.41045 44.2262C8.06506 44.2262 7.82874 44.4879 7.82874 44.8297C7.82874 45.1678 8.06506 45.4223 8.41045 45.4223ZM8.37773 46.6875L9.93016 44.2625H9.7302L8.1814 46.6875H8.37773ZM9.67566 46.7311C10.0211 46.7311 10.261 46.4766 10.261 46.1385C10.261 45.7968 10.0211 45.535 9.67566 45.535C9.33027 45.535 9.09396 45.7968 9.09396 46.1385C9.09396 46.4766 9.33027 46.7311 9.67566 46.7311ZM8.41045 45.2405C8.19595 45.2405 8.04688 45.0587 8.04688 44.8297C8.04688 44.5897 8.19595 44.4116 8.41045 44.4116C8.62859 44.4116 8.78129 44.5897 8.78129 44.8297C8.78129 45.0587 8.62859 45.2405 8.41045 45.2405ZM9.67566 46.5493C9.45752 46.5493 9.30846 46.3676 9.30846 46.1385C9.30846 45.8986 9.45752 45.7204 9.67566 45.7204C9.8938 45.7204 10.0465 45.8986 10.0465 46.1385C10.0465 46.3676 9.8938 46.5493 9.67566 46.5493Z" fill="white"/>
<rect x="20.0134" y="38.4609" width="18.6328" height="11.3615" rx="3.63567" fill="#F06868"/>
<path d="M24.1378 42.2788V42.1107H23.3334V41.588H24.1219V41.4199H23.3334V40.9313H24.1378V40.7632H23.1448V42.2788H24.1378ZM24.9747 42.3061C25.3837 42.3061 25.5337 42.0811 25.5337 41.8607C25.5337 41.2949 24.6362 41.4903 24.6362 41.1495C24.6362 41.0063 24.7657 40.9086 24.9475 40.9086C25.1133 40.9086 25.2724 40.9654 25.386 41.0904L25.4996 40.9518C25.3724 40.8177 25.1929 40.7405 24.9611 40.7405C24.6634 40.7405 24.4407 40.9109 24.4407 41.1608C24.4407 41.7016 25.3383 41.4858 25.3383 41.8766C25.3383 41.9925 25.2519 42.1379 24.9815 42.1379C24.7679 42.1379 24.6043 42.0334 24.5044 41.9221L24.393 42.0652C24.518 42.2061 24.7111 42.3061 24.9747 42.3061ZM26.0494 42.2788V41.588H26.8379V41.4199H26.0494V40.9313H26.8538V40.7632H25.8608V42.2788H26.0494ZM27.2655 42.3061C27.5359 42.3061 27.7473 42.1516 27.7473 41.8221V40.7632H27.5587V41.8198C27.5587 42.0084 27.4405 42.1379 27.2542 42.1379C27.1224 42.1379 27.0338 42.0675 26.9679 41.988L26.8702 42.1311C26.9747 42.2538 27.1042 42.3061 27.2655 42.3061Z" fill="white"/>
<path d="M24.5381 46.6875V46.0731H24.8799V45.8077H24.5381V44.2625H24.1237L23.0839 45.8222V46.0731H24.2364V46.6875H24.5381ZM24.2364 45.8077H23.3856L24.2364 44.5425V45.8077ZM25.6802 46.6002C25.6802 46.4257 25.5711 46.3239 25.4511 46.3239C25.342 46.3239 25.2584 46.4148 25.2584 46.5203C25.2584 46.6293 25.3311 46.7057 25.4329 46.7057C25.4511 46.7057 25.4766 46.702 25.4838 46.6984C25.4693 46.8184 25.3639 46.9602 25.2475 47.0365L25.382 47.1492C25.5493 47.0293 25.6802 46.822 25.6802 46.6002ZM27.4942 46.6875V46.0731H27.836V45.8077H27.4942V44.2625H27.0798L26.04 45.8222V46.0731H27.1925V46.6875H27.4942ZM27.1925 45.8077H26.3417L27.1925 44.5425V45.8077ZM28.6908 45.4223C29.0398 45.4223 29.2798 45.1678 29.2798 44.8297C29.2798 44.4879 29.0398 44.2262 28.6908 44.2262C28.3454 44.2262 28.1091 44.4879 28.1091 44.8297C28.1091 45.1678 28.3454 45.4223 28.6908 45.4223ZM28.6581 46.6875L30.2105 44.2625H30.0106L28.4618 46.6875H28.6581ZM29.956 46.7311C30.3014 46.7311 30.5414 46.4766 30.5414 46.1385C30.5414 45.7968 30.3014 45.535 29.956 45.535C29.6106 45.535 29.3743 45.7968 29.3743 46.1385C29.3743 46.4766 29.6106 46.7311 29.956 46.7311ZM28.6908 45.2405C28.4763 45.2405 28.3272 45.0587 28.3272 44.8297C28.3272 44.5897 28.4763 44.4116 28.6908 44.4116C28.9089 44.4116 29.0616 44.5897 29.0616 44.8297C29.0616 45.0587 28.9089 45.2405 28.6908 45.2405ZM29.956 46.5493C29.7379 46.5493 29.5888 46.3676 29.5888 46.1385C29.5888 45.8986 29.7379 45.7204 29.956 45.7204C30.1742 45.7204 30.3269 45.8986 30.3269 46.1385C30.3269 46.3676 30.1742 46.5493 29.956 46.5493Z" fill="white"/>
<rect x="39.1006" y="38.4609" width="18.6328" height="11.3615" rx="3.63567" fill="#F06868"/>
<path d="M43.2247 42.2788V42.1107H42.4203V41.588H43.2088V41.4199H42.4203V40.9313H43.2247V40.7632H42.2317V42.2788H43.2247ZM44.8251 42.2788V40.7632H44.6365V41.9471L43.764 40.7632H43.5708V42.2788H43.7594V41.0699L44.6433 42.2788H44.8251ZM45.4137 42.2788V41.588H46.2022V41.4199H45.4137V40.9313H46.2181V40.7632H45.2251V42.2788H45.4137ZM46.6298 42.3061C46.9002 42.3061 47.1116 42.1516 47.1116 41.8221V40.7632H46.923V41.8198C46.923 42.0084 46.8048 42.1379 46.6185 42.1379C46.4867 42.1379 46.3981 42.0675 46.3322 41.988L46.2344 42.1311C46.339 42.2538 46.4685 42.3061 46.6298 42.3061Z" fill="white"/>
<path d="M43.9159 46.6875V46.4185H42.727C43.4033 45.884 43.905 45.4332 43.905 44.9387C43.905 44.4552 43.4942 44.2262 43.0906 44.2262C42.7489 44.2262 42.4326 44.3643 42.2471 44.6079L42.4326 44.8006C42.5743 44.6188 42.7998 44.4952 43.0906 44.4952C43.3415 44.4952 43.596 44.6297 43.596 44.9387C43.596 45.3568 43.1233 45.7604 42.2508 46.4475V46.6875H43.9159ZM44.8771 46.6002C44.8771 46.4257 44.7681 46.3239 44.6481 46.3239C44.539 46.3239 44.4554 46.4148 44.4554 46.5203C44.4554 46.6293 44.5281 46.7057 44.6299 46.7057C44.6481 46.7057 44.6735 46.702 44.6808 46.6984C44.6663 46.8184 44.5608 46.9602 44.4445 47.0365L44.579 47.1492C44.7463 47.0293 44.8771 46.822 44.8771 46.6002ZM46.215 46.7311C46.7021 46.7311 47.0766 46.4257 47.0766 45.9313C47.0766 45.4332 46.7094 45.1569 46.3058 45.1569C46.0623 45.1569 45.855 45.2587 45.7387 45.375V44.5315H46.9203V44.2625H45.4369V45.5714L45.6587 45.6477C45.8223 45.4877 46.0041 45.4187 46.2186 45.4187C46.5458 45.4187 46.7748 45.6222 46.7748 45.9422C46.7748 46.2367 46.5458 46.4621 46.215 46.4621C45.9168 46.4621 45.706 46.3457 45.546 46.1422L45.3606 46.3421C45.5424 46.5821 45.8041 46.7311 46.215 46.7311ZM48.0049 45.4223C48.354 45.4223 48.5939 45.1678 48.5939 44.8297C48.5939 44.4879 48.354 44.2262 48.0049 44.2262C47.6596 44.2262 47.4232 44.4879 47.4232 44.8297C47.4232 45.1678 47.6596 45.4223 48.0049 45.4223ZM47.9722 46.6875L49.5247 44.2625H49.3247L47.7759 46.6875H47.9722ZM49.2702 46.7311C49.6155 46.7311 49.8555 46.4766 49.8555 46.1385C49.8555 45.7968 49.6155 45.535 49.2702 45.535C48.9248 45.535 48.6885 45.7968 48.6885 46.1385C48.6885 46.4766 48.9248 46.7311 49.2702 46.7311ZM48.0049 45.2405C47.7904 45.2405 47.6414 45.0587 47.6414 44.8297C47.6414 44.5897 47.7904 44.4116 48.0049 44.4116C48.2231 44.4116 48.3758 44.5897 48.3758 44.8297C48.3758 45.0587 48.2231 45.2405 48.0049 45.2405ZM49.2702 46.5493C49.052 46.5493 48.903 46.3676 48.903 46.1385C48.903 45.8986 49.052 45.7204 49.2702 45.7204C49.4883 45.7204 49.641 45.8986 49.641 46.1385C49.641 46.3676 49.4883 46.5493 49.2702 46.5493Z" fill="white"/>
<rect x="58.1877" y="38.4609" width="18.6328" height="11.3615" rx="3.63567" fill="#F06868"/>
<path d="M62.3118 42.2788V42.1107H61.5074V41.588H62.2959V41.4199H61.5074V40.9313H62.3118V40.7632H61.3188V42.2788H62.3118ZM63.9123 42.2788V40.7632H63.7237V41.9471L62.8511 40.7632H62.658V42.2788H62.8466V41.0699L63.7305 42.2788H63.9123ZM64.8758 42.2788V40.9313H65.3575V40.7632H64.2077V40.9313H64.6872V42.2788H64.8758ZM65.7081 42.3061C65.9785 42.3061 66.1898 42.1516 66.1898 41.8221V40.7632H66.0012V41.8198C66.0012 42.0084 65.8831 42.1379 65.6967 42.1379C65.565 42.1379 65.4763 42.0675 65.4104 41.988L65.3127 42.1311C65.4173 42.2538 65.5468 42.3061 65.7081 42.3061Z" fill="white"/>
<path d="M62.0905 46.6875V44.2625H61.8251L61.218 44.8878L61.3997 45.0733L61.7888 44.6624V46.6875H62.0905ZM63.0589 46.6002C63.0589 46.4257 62.9499 46.3239 62.8299 46.3239C62.7208 46.3239 62.6372 46.4148 62.6372 46.5203C62.6372 46.6293 62.7099 46.7057 62.8117 46.7057C62.8299 46.7057 62.8553 46.702 62.8626 46.6984C62.8481 46.8184 62.7426 46.9602 62.6263 47.0365L62.7608 47.1492C62.928 47.0293 63.0589 46.822 63.0589 46.6002ZM64.3604 46.7311C64.8367 46.7311 65.2293 46.4839 65.2293 46.0731C65.2293 45.7495 64.953 45.5277 64.6512 45.4368C64.9312 45.3568 65.193 45.1751 65.193 44.8551C65.193 44.4188 64.7603 44.2262 64.3604 44.2262C63.9568 44.2262 63.5315 44.4188 63.5315 44.8551C63.5315 45.1751 63.7896 45.3568 64.0695 45.4368C63.7678 45.5277 63.4915 45.7495 63.4915 46.0731C63.4915 46.4875 63.8805 46.7311 64.3604 46.7311ZM64.3604 45.3132C64.215 45.2878 63.8332 45.1896 63.8332 44.8951C63.8332 44.6443 64.0659 44.4952 64.3604 44.4952C64.6512 44.4952 64.8876 44.6443 64.8876 44.8951C64.8876 45.1896 64.5094 45.2878 64.3604 45.3132ZM64.3604 46.4621C64.0586 46.4621 63.7932 46.3021 63.7932 46.0404C63.7932 45.724 64.2113 45.5895 64.3604 45.5714C64.5094 45.5895 64.9239 45.724 64.9239 46.0404C64.9239 46.3021 64.6585 46.4621 64.3604 46.4621ZM66.1548 45.4223C66.5038 45.4223 66.7438 45.1678 66.7438 44.8297C66.7438 44.4879 66.5038 44.2262 66.1548 44.2262C65.8094 44.2262 65.5731 44.4879 65.5731 44.8297C65.5731 45.1678 65.8094 45.4223 66.1548 45.4223ZM66.1221 46.6875L67.6745 44.2625H67.4745L65.9257 46.6875H66.1221ZM67.42 46.7311C67.7654 46.7311 68.0053 46.4766 68.0053 46.1385C68.0053 45.7968 67.7654 45.535 67.42 45.535C67.0746 45.535 66.8383 45.7968 66.8383 46.1385C66.8383 46.4766 67.0746 46.7311 67.42 46.7311ZM66.1548 45.2405C65.9403 45.2405 65.7912 45.0587 65.7912 44.8297C65.7912 44.5897 65.9403 44.4116 66.1548 44.4116C66.3729 44.4116 66.5256 44.5897 66.5256 44.8297C66.5256 45.0587 66.3729 45.2405 66.1548 45.2405ZM67.42 46.5493C67.2019 46.5493 67.0528 46.3676 67.0528 46.1385C67.0528 45.8986 67.2019 45.7204 67.42 45.7204C67.6381 45.7204 67.7908 45.8986 67.7908 46.1385C67.7908 46.3676 67.6381 46.5493 67.42 46.5493Z" fill="white"/>
</svg>
