<svg width="77" height="53" viewBox="0 0 77 53" fill="none" xmlns="http://www.w3.org/2000/svg">
<path d="M26.8907 46.7555L23.5959 13.3528C35.1846 16.2689 58.3619 22.1012 58.3619 22.1012L49.5 46.7555L52.6812 13.3528L18.0288 22.1012L26.8907 46.7555Z" stroke="white" stroke-width="0.454458"/>
<path d="M37.7977 7.55811L19.2786 38.5749H56.9986L37.7977 7.55811Z" stroke="white" stroke-width="0.454458"/>
<circle cx="38.028" cy="28.6901" r="21.3595" transform="rotate(-0.0729365 38.028 28.6901)" stroke="white" stroke-opacity="0.2" stroke-width="0.454458"/>
<circle cx="18.9535" cy="38.7127" r="1.13615" transform="rotate(-0.0729365 18.9535 38.7127)" fill="#4C595C" stroke="#FF8A00" stroke-width="0.454458"/>
<circle cx="17.7955" cy="21.6722" r="1.13615" transform="rotate(-0.0729365 17.7955 21.6722)" fill="#4C595C" stroke="#FF405C" stroke-width="0.454458"/>
<circle cx="23.4652" cy="12.803" r="1.36337" transform="rotate(-0.0729365 23.4652 12.803)" fill="#B82649"/>
<circle cx="38.0006" cy="7.10383" r="1.36337" transform="rotate(-0.0729365 38.0006 7.10383)" fill="#D141DD"/>
<circle cx="52.778" cy="12.993" r="1.36337" transform="rotate(-0.0729365 52.778 12.993)" fill="#2871FF"/>
<circle cx="58.6974" cy="22.0745" r="1.13615" transform="rotate(-0.0729365 58.6974 22.0745)" fill="#4C595C" stroke="#17BCB2" stroke-width="0.454458"/>
<circle cx="56.9005" cy="38.6644" r="1.13615" transform="rotate(-0.0729365 56.9005 38.6644)" fill="#4C595C" stroke="#008B48" stroke-width="0.454458"/>
<circle cx="49.6398" cy="46.8538" r="1.13615" transform="rotate(-0.0729365 49.6398 46.8538)" fill="#4C595C" stroke="#68F8B0" stroke-width="0.454458"/>
<circle cx="26.9166" cy="46.8831" r="1.13615" transform="rotate(-0.0729365 26.9166 46.8831)" fill="#4C595C" stroke="#FFF38B" stroke-width="0.454458"/>
<path d="M55.9224 10.5361V8.41427H55.6902L55.1589 8.96143L55.318 9.12368L55.6584 8.7642V10.5361H55.9224ZM57.8443 10.5361V10.3007H56.8041C57.3958 9.83309 57.8348 9.43862 57.8348 9.00597C57.8348 8.58287 57.4753 8.38245 57.1222 8.38245C56.8232 8.38245 56.5464 8.50334 56.3842 8.71648L56.5464 8.88509C56.6705 8.72603 56.8677 8.61786 57.1222 8.61786C57.3417 8.61786 57.5644 8.73557 57.5644 9.00597C57.5644 9.37181 57.1508 9.72492 56.3873 10.3262V10.5361H57.8443ZM58.7388 9.42907C59.0442 9.42907 59.2542 9.20639 59.2542 8.91054C59.2542 8.6115 59.0442 8.38245 58.7388 8.38245C58.4366 8.38245 58.2298 8.6115 58.2298 8.91054C58.2298 9.20639 58.4366 9.42907 58.7388 9.42907ZM58.7102 10.5361L60.0686 8.41427H59.8936L58.5384 10.5361H58.7102ZM59.8459 10.5743C60.1481 10.5743 60.358 10.3516 60.358 10.0558C60.358 9.75674 60.1481 9.52769 59.8459 9.52769C59.5437 9.52769 59.3369 9.75674 59.3369 10.0558C59.3369 10.3516 59.5437 10.5743 59.8459 10.5743ZM58.7388 9.27001C58.5511 9.27001 58.4207 9.11095 58.4207 8.91054C58.4207 8.70058 58.5511 8.5447 58.7388 8.5447C58.9297 8.5447 59.0633 8.70058 59.0633 8.91054C59.0633 9.11095 58.9297 9.27001 58.7388 9.27001ZM59.8459 10.4152C59.655 10.4152 59.5246 10.2562 59.5246 10.0558C59.5246 9.84581 59.655 9.68993 59.8459 9.68993C60.0367 9.68993 60.1704 9.84581 60.1704 10.0558C60.1704 10.2562 60.0367 10.4152 59.8459 10.4152Z" fill="white"/>
<path d="M18.1295 8.96777L18.998 7.02724V6.84591H17.5505V7.08132H18.6926L17.8369 8.96777H18.1295ZM20.7634 8.96777V8.73236H19.7231C20.3148 8.26473 20.7538 7.87026 20.7538 7.43761C20.7538 7.01451 20.3943 6.8141 20.0412 6.8141C19.7422 6.8141 19.4654 6.93498 19.3032 7.14812L19.4654 7.31673C19.5895 7.15767 19.7867 7.0495 20.0412 7.0495C20.2607 7.0495 20.4834 7.16721 20.4834 7.43761C20.4834 7.80345 20.0699 8.15657 19.3064 8.75781V8.96777H20.7634ZM21.6578 7.86071C21.9632 7.86071 22.1732 7.63803 22.1732 7.34218C22.1732 7.04314 21.9632 6.8141 21.6578 6.8141C21.3556 6.8141 21.1488 7.04314 21.1488 7.34218C21.1488 7.63803 21.3556 7.86071 21.6578 7.86071ZM21.6292 8.96777L22.9876 6.84591H22.8126L21.4574 8.96777H21.6292ZM22.7649 9.00595C23.0671 9.00595 23.2771 8.78326 23.2771 8.48741C23.2771 8.18838 23.0671 7.95933 22.7649 7.95933C22.4627 7.95933 22.2559 8.18838 22.2559 8.48741C22.2559 8.78326 22.4627 9.00595 22.7649 9.00595ZM21.6578 7.70165C21.4701 7.70165 21.3397 7.54259 21.3397 7.34218C21.3397 7.13222 21.4701 6.97634 21.6578 6.97634C21.8487 6.97634 21.9823 7.13222 21.9823 7.34218C21.9823 7.54259 21.8487 7.70165 21.6578 7.70165ZM22.7649 8.84689C22.574 8.84689 22.4436 8.68783 22.4436 8.48741C22.4436 8.27745 22.574 8.12157 22.7649 8.12157C22.9558 8.12157 23.0894 8.27745 23.0894 8.48741C23.0894 8.68783 22.9558 8.84689 22.7649 8.84689Z" fill="white"/>
<path d="M36.2203 3.28711V1.16524H35.9881L35.4568 1.71241L35.6159 1.87465L35.9563 1.51518V3.28711H36.2203ZM37.8877 3.28711V2.74949H38.1868V2.51726H37.8877V1.16524H37.5251L36.6153 2.52998V2.74949H37.6237V3.28711H37.8877ZM37.6237 2.51726H36.8793L37.6237 1.4102V2.51726ZM38.9404 2.18005C39.2458 2.18005 39.4558 1.95736 39.4558 1.66151C39.4558 1.36248 39.2458 1.13343 38.9404 1.13343C38.6382 1.13343 38.4314 1.36248 38.4314 1.66151C38.4314 1.95736 38.6382 2.18005 38.9404 2.18005ZM38.9118 3.28711L40.2702 1.16524H40.0952L38.74 3.28711H38.9118ZM40.0475 3.32528C40.3497 3.32528 40.5596 3.1026 40.5596 2.80675C40.5596 2.50771 40.3497 2.27867 40.0475 2.27867C39.7453 2.27867 39.5385 2.50771 39.5385 2.80675C39.5385 3.1026 39.7453 3.32528 40.0475 3.32528ZM38.9404 2.02099C38.7527 2.02099 38.6223 1.86193 38.6223 1.66151C38.6223 1.45155 38.7527 1.29567 38.9404 1.29567C39.1313 1.29567 39.2649 1.45155 39.2649 1.66151C39.2649 1.86193 39.1313 2.02099 38.9404 2.02099ZM40.0475 3.16622C39.8566 3.16622 39.7262 3.00716 39.7262 2.80675C39.7262 2.59679 39.8566 2.44091 40.0475 2.44091C40.2383 2.44091 40.372 2.59679 40.372 2.80675C40.372 3.00716 40.2383 3.16622 40.0475 3.16622Z" fill="white"/>
</svg>
