<svg width="329" height="292" viewBox="0 0 329 292" fill="none" xmlns="http://www.w3.org/2000/svg">
<path d="M328.26 176.672C328.206 195.231 328.151 178.893 328.097 197.452C328.015 221.615 312.19 245.722 280.512 264.172C216.803 301.262 113.148 301.29 49.0021 264.172C16.7243 245.504 0.59912 221.013 0.680974 196.55L0.844682 182.5C0.762828 206.963 16.8881 201.115 49.1658 219.783C113.312 256.901 216.966 256.874 280.676 219.783C312.354 201.334 328.179 200.835 328.26 176.672Z" fill="url(#paint0_linear)"/>
<path d="M279.906 114.268C344.086 151.27 344.414 211.259 280.67 248.289C216.926 285.291 113.216 285.318 49.0354 248.289C-15.1452 211.287 -15.4728 151.27 48.2711 114.268C112.015 77.2387 215.725 77.2387 279.906 114.268Z" fill="url(#paint1_linear)"/>
<path opacity="0.2" d="M18.0543 169.735L100.629 121.722C101.751 121.075 103.128 121.068 104.25 121.716L166.511 157.682C167.475 158.239 167.475 159.624 166.518 160.182L83.9434 208.194C82.8282 208.841 81.4446 208.848 80.3226 208.201L18.0612 172.235C17.0975 171.684 17.0906 170.292 18.0543 169.735Z" fill="#455A64"/>
<path d="M164.343 146.558L102.439 110.799L20.2227 158.604L82.1262 194.364L164.343 146.558Z" fill="white"/>
<path d="M82.1262 194.364L82.0918 205.053L164.309 157.247L164.343 146.558L82.1262 194.364Z" fill="#D5FBFC"/>
<path d="M82.1262 194.364L82.0918 205.053L164.309 157.247L164.343 146.558L82.1262 194.364Z" fill="#AEDBE5"/>
<path d="M20.2229 158.604L20.1885 169.293L82.092 205.053L82.1264 194.363L20.2229 158.604Z" fill="#D9F2F9"/>
<path d="M118.038 140.862L116.056 142.012L86.3257 124.842L88.3081 123.685L118.038 140.862Z" fill="#9CAAD1"/>
<path d="M83.7858 141.723L81.8033 142.88L68.5112 135.201L70.4937 134.044L83.7858 141.723Z" fill="#9CAAD1"/>
<path d="M149.702 149.975L147.72 151.125L94.2485 120.235L96.2241 119.084L149.702 149.975Z" fill="#9CAAD1"/>
<path d="M145.737 152.282L143.762 153.425L90.2837 122.535L92.2661 121.385L145.737 152.282Z" fill="#9CAAD1"/>
<path d="M135.846 158.033L133.863 159.183L80.3853 128.293L82.3677 127.143L135.846 158.033Z" fill="#9CAAD1"/>
<path d="M64.8015 160.071L62.8259 161.222L43.2285 149.899L45.2041 148.749L64.8015 160.071Z" fill="#9CAAD1"/>
<path d="M131.888 160.333L129.905 161.484L76.4341 130.594L78.4096 129.443L131.888 160.333Z" fill="#9CAAD1"/>
<path d="M127.923 162.634L125.947 163.784L72.4692 132.894L74.4517 131.744L127.923 162.634Z" fill="#9CAAD1"/>
<path d="M101.063 163.811L99.0877 164.962L58.0688 141.269L60.0513 140.119L101.063 163.811Z" fill="#9CAAD1"/>
<path d="M117.487 168.708L115.505 169.858L62.0337 138.968L64.0093 137.818L117.487 168.708Z" fill="#9CAAD1"/>
<path d="M64.7115 172.634L62.736 173.784L32.3452 156.228L34.3208 155.078L64.7115 172.634Z" fill="#9CAAD1"/>
<path d="M106.598 175.038L104.615 176.188L51.144 145.298L53.1265 144.148L106.598 175.038Z" fill="#9CAAD1"/>
<path d="M102.64 177.338L100.664 178.489L47.186 147.598L49.1616 146.448L102.64 177.338Z" fill="#9CAAD1"/>
<path d="M91.7569 183.668L89.7744 184.818L36.2964 153.928L38.2788 152.778L91.7569 183.668Z" fill="#9CAAD1"/>
<path d="M119.78 128.1L117.797 129.257L98.1997 117.934L100.182 116.784L119.78 128.1Z" fill="#9CAAD1"/>
<path d="M178.049 56.0602L81.6452 0.471886C80.6195 -0.120432 79.6971 -0.134206 79.0638 0.313476L75.6909 2.28328V2.29705C76.3036 2.02844 77.0952 2.1042 77.9694 2.60698L174.373 58.1953C176.28 59.2973 177.829 61.9765 177.822 64.1667L177.794 74.4703L177.615 138.103C177.615 139.157 177.243 139.901 176.658 140.273L176.665 140.279L180.135 138.248C180.238 138.2 180.334 138.144 180.424 138.082C180.961 137.69 181.284 136.967 181.291 135.961L181.47 72.3283L181.497 62.0247C181.504 59.8414 179.962 57.1622 178.049 56.0602Z" fill="url(#paint2_linear)"/>
<path d="M177.616 138.117L177.795 74.4839L177.822 64.1803C177.829 61.9832 176.287 59.3109 174.373 58.2089L77.9698 2.61371C77.0956 2.10404 76.304 2.03517 75.6913 2.30378C74.9686 2.6206 74.5074 3.40576 74.5005 4.5904L74.4729 14.894L74.294 78.5268C74.2871 80.7239 75.829 83.3962 77.7426 84.4982L174.146 140.086C175.138 140.658 176.026 140.686 176.659 140.286C177.244 139.907 177.609 139.17 177.616 138.117Z" fill="url(#paint3_linear)"/>
<path d="M167.799 74.413L167.654 126.551C167.654 127.419 167.351 128.025 166.87 128.328L166.877 128.335L169.286 126.936C169.368 126.895 169.451 126.854 169.52 126.799C169.96 126.482 170.229 125.883 170.229 125.063L170.373 72.9253L167.799 74.413Z" fill="#D9F2F9"/>
<path d="M167.572 59.5841L80.688 9.38866C79.8482 8.89965 79.091 8.89276 78.5678 9.26468L76.2412 10.6146V10.6284C76.7437 10.408 77.3908 10.47 78.1066 10.8832L164.99 61.0787C166.553 61.981 167.82 64.178 167.813 65.9757L167.792 74.4196L170.366 72.925L170.387 64.4811C170.401 62.6766 169.134 60.4864 167.572 59.5841Z" fill="url(#paint4_linear)"/>
<path d="M167.647 126.557L167.792 74.4197L75.2427 20.9458L75.0982 73.0835C75.0913 74.8811 76.3579 77.0713 77.9204 77.9736L164.804 128.169C165.616 128.637 166.346 128.658 166.862 128.327C167.344 128.024 167.647 127.418 167.647 126.557Z" fill="white"/>
<path d="M167.799 74.4125L167.82 65.9685C167.827 64.1709 166.56 61.9738 164.997 61.0715L78.1067 10.883C77.3908 10.4697 76.7369 10.4077 76.2413 10.6281C75.6493 10.883 75.2707 11.5304 75.2638 12.5015L75.2432 20.9455L167.799 74.4125Z" fill="url(#paint5_linear)"/>
<path d="M145.792 92.1407C146.887 92.7744 147.768 94.3034 147.768 95.5638L147.761 99.1659C147.754 100.426 146.866 100.936 145.772 100.302L138.275 95.9701C137.181 95.3365 136.3 93.8075 136.3 92.5471L136.307 88.945C136.314 87.6846 137.202 87.1749 138.296 87.8085L145.792 92.1407Z" fill="#8DFFEB"/>
<path d="M145.757 103.058C146.852 103.691 147.733 105.22 147.733 106.481L147.726 110.083C147.719 111.343 146.831 111.853 145.737 111.219L138.241 106.887C137.146 106.253 136.265 104.724 136.265 103.464L136.272 99.8619C136.279 98.6015 137.167 98.0919 138.261 98.7255L145.757 103.058Z" fill="#8DFFEB"/>
<path d="M132.094 73.2901C133.188 73.9238 134.069 75.4597 134.069 76.7132L134.063 80.3153C134.056 81.5757 133.168 82.0853 132.073 81.4517L124.584 77.1264C123.49 76.4928 122.602 74.9569 122.608 73.6965L122.615 70.0944C122.622 68.834 123.51 68.3243 124.605 68.9579L132.094 73.2901Z" fill="#8DFFEB"/>
<path d="M132.128 62.3731C133.223 63.0068 134.104 64.5427 134.104 65.7962L134.097 69.3983C134.09 70.6587 133.202 71.1684 132.107 70.5347L124.618 66.2094C123.524 65.5758 122.636 64.0399 122.643 62.7795L122.65 59.1774C122.656 57.917 123.544 57.4073 124.639 58.0409L132.128 62.3731Z" fill="#8DFFEB"/>
<path d="M118.341 76.2793C119.435 76.913 120.323 78.4489 120.316 79.7093L120.309 83.3114C120.302 84.5718 119.414 85.0814 118.32 84.4478L110.831 80.1225C109.736 79.4889 108.848 77.953 108.855 76.6926L108.862 73.0905C108.869 71.8301 109.757 71.3204 110.851 71.954L118.341 76.2793Z" fill="#8DFFEB"/>
<path d="M118.133 65.3296C119.227 65.9633 120.115 67.4992 120.108 68.7596L120.101 72.3617C120.094 73.6221 119.206 74.1317 118.112 73.4981L110.623 69.1728C109.528 68.5392 108.64 67.0033 108.647 65.7429L108.654 62.1408C108.661 60.8804 109.549 60.3707 110.643 61.0043L118.133 65.3296Z" fill="#8DFFEB"/>
<path d="M118.402 54.4468C119.497 55.0805 120.384 56.6163 120.378 57.8767L120.371 61.4789C120.364 62.7393 119.476 63.2489 118.381 62.6153L110.892 58.29C109.798 57.6563 108.91 56.1205 108.917 54.8601L108.923 51.2579C108.93 49.9975 109.818 49.4879 110.913 50.1215L118.402 54.4468Z" fill="#8DFFEB"/>
<path d="M132.067 84.2066C133.161 84.8403 134.042 86.3693 134.042 87.6297L134.035 91.2318C134.028 92.4922 133.14 93.0019 132.046 92.3682L124.557 88.0429C123.462 87.4093 122.574 85.8734 122.581 84.613L122.588 81.0109C122.595 79.7505 123.483 79.2408 124.577 79.8744L132.067 84.2066Z" fill="#8DFFEB"/>
<path d="M159.58 78.2354C160.674 78.8691 161.555 80.405 161.555 81.6585L161.548 85.2606C161.542 86.521 160.654 87.0307 159.559 86.397L152.063 82.0648C150.968 81.4312 150.087 79.9022 150.087 78.6418L150.094 75.0397C150.101 73.7793 150.989 73.2696 152.084 73.9033L159.58 78.2354Z" fill="#8DFFEB"/>
<path d="M159.545 89.1515C160.64 89.7851 161.521 91.321 161.521 92.5745L161.514 96.1766C161.507 97.437 160.619 97.9467 159.524 97.313L152.028 92.9809C150.934 92.3472 150.053 90.8182 150.053 89.5578L150.06 85.9557C150.066 84.6953 150.954 84.1856 152.049 84.8193L159.545 89.1515Z" fill="#8DFFEB"/>
<path d="M159.484 110.985C160.578 111.619 161.459 113.148 161.459 114.408L161.452 118.011C161.445 119.271 160.557 119.781 159.463 119.147L151.967 114.815C150.872 114.181 149.991 112.652 149.991 111.392L149.998 107.79C150.005 106.529 150.893 106.02 151.987 106.653L159.484 110.985Z" fill="#8DFFEB"/>
<path d="M159.518 100.068C160.612 100.702 161.493 102.231 161.493 103.491L161.486 107.093C161.48 108.354 160.592 108.863 159.497 108.23L152.001 103.897C150.906 103.264 150.025 101.735 150.025 100.474L150.032 96.8722C150.039 95.6118 150.927 95.1021 152.022 95.7358L159.518 100.068Z" fill="#8DFFEB"/>
<path d="M145.82 81.2174C146.914 81.851 147.795 83.3869 147.795 84.6404L147.788 88.2425C147.781 89.5029 146.893 90.0126 145.799 89.379L138.303 85.0468C137.208 84.4131 136.327 82.8841 136.327 81.6237L136.334 78.0216C136.341 76.7612 137.229 76.2515 138.323 76.8852L145.82 81.2174Z" fill="#8DFFEB"/>
<path d="M145.854 70.3009C146.949 70.9345 147.83 72.4704 147.83 73.7239L147.823 77.326C147.816 78.5864 146.928 79.0961 145.834 78.4625L138.337 74.1303C137.243 73.4966 136.362 71.9676 136.362 70.7072L136.369 67.1051C136.376 65.8447 137.264 65.335 138.358 65.9687L145.854 70.3009Z" fill="#8DFFEB"/>
<path d="M132.032 95.13C133.126 95.7636 134.008 97.2926 134.008 98.553L134.001 102.155C133.994 103.416 133.106 103.925 132.011 103.292L124.522 98.9663C123.428 98.3326 122.54 96.7967 122.546 95.5363L122.553 91.9342C122.56 90.6738 123.448 90.1641 124.543 90.7978L132.032 95.13Z" fill="#8DFFEB"/>
<path d="M104.58 79.2681C105.675 79.9017 106.563 81.4376 106.556 82.698L106.549 86.3001C106.542 87.5605 105.654 88.0702 104.56 87.4366L97.0703 83.1113C95.9759 82.4776 95.0879 80.9417 95.0948 79.6813L95.1016 76.0792C95.1085 74.8188 95.9965 74.3092 97.091 74.9428L104.58 79.2681Z" fill="#8DFFEB"/>
<path d="M90.9514 38.5845C92.0458 39.2181 92.9338 40.754 92.9269 42.0144L92.92 45.6166C92.9132 46.8769 92.0252 47.3866 90.9307 46.753L83.4414 42.4277C82.347 41.794 81.459 40.2581 81.4659 38.9977L81.4727 35.3956C81.4796 34.1352 82.3676 33.6256 83.4621 34.2592L90.9514 38.5845Z" fill="#FFC77E"/>
<path d="M90.9167 49.5078C92.0112 50.1415 92.8991 51.6774 92.8923 52.9378L92.8854 56.5399C92.8785 57.8003 91.9905 58.31 90.896 57.6763L83.4068 53.351C82.3123 52.7174 81.4243 51.1815 81.4312 49.9211L81.4381 46.319C81.445 45.0586 82.3329 44.5489 83.4274 45.1826L90.9167 49.5078Z" fill="#FFC77E"/>
<path d="M90.8893 60.4243C91.9838 61.058 92.8718 62.5939 92.8649 63.8543L92.858 67.4564C92.8511 68.7168 91.9632 69.2265 90.8687 68.5928L83.3794 64.2675C82.2849 63.6339 81.397 62.098 81.4038 60.8376L81.4107 57.2355C81.4176 55.9751 82.3056 55.4654 83.4001 56.0991L90.8893 60.4243Z" fill="#FFC77E"/>
<path d="M90.8547 71.3409C91.9492 71.9745 92.8371 73.5104 92.8302 74.7708L92.8234 78.3729C92.8165 79.6333 91.9285 80.143 90.834 79.5093L83.3447 75.184C82.2503 74.5504 81.3623 73.0145 81.3692 71.7541L81.3761 68.152C81.3829 66.8916 82.2709 66.3819 83.3654 67.0156L90.8547 71.3409Z" fill="#FFC77E"/>
<path d="M104.676 46.5191C105.771 47.1527 106.659 48.6886 106.652 49.949L106.645 53.5511C106.638 54.8115 105.75 55.3212 104.656 54.6876L97.1665 50.3623C96.072 49.7286 95.1841 48.1927 95.191 46.9323L95.1978 43.3302C95.2047 42.0698 96.0927 41.5601 97.1872 42.1938L104.676 46.5191Z" fill="#8DFFEB"/>
<path d="M104.642 57.4351C105.737 58.0687 106.625 59.6046 106.618 60.865L106.611 64.4671C106.604 65.7275 105.716 66.2372 104.622 65.6036L97.1323 61.2783C96.0379 60.6446 95.1499 59.1087 95.1568 57.8483L95.1637 54.2462C95.1705 52.9858 96.0585 52.4762 97.153 53.1098L104.642 57.4351Z" fill="#8DFFEB"/>
<path d="M104.615 68.3516C105.709 68.9852 106.597 70.5211 106.59 71.7815L106.584 75.3836C106.577 76.644 105.689 77.1537 104.594 76.5201L97.105 72.1948C96.0105 71.5611 95.1226 70.0252 95.1294 68.7648L95.1363 65.1627C95.1432 63.9023 96.0312 63.3927 97.1257 64.0263L104.615 68.3516Z" fill="#8DFFEB"/>
<path d="M118.306 87.1958C119.4 87.8295 120.288 89.3654 120.281 90.6258L120.275 94.2279C120.268 95.4883 119.38 95.998 118.285 95.3643L110.796 91.039C109.701 90.4054 108.813 88.8695 108.82 87.6091L108.827 84.007C108.834 82.7466 109.722 82.2369 110.817 82.8705L118.306 87.1958Z" fill="#8DFFEB"/>
<path d="M95.0327 5.18746C95.0398 5.18746 95.0469 5.18746 95.054 5.18746C95.054 5.18035 95.0469 5.18035 95.0327 5.18746C95.0398 5.18035 95.0327 5.18746 95.0327 5.18746Z" fill="white"/>
<path d="M91.4537 22.2819C91.1784 22.1235 90.9237 22.0408 90.6896 22.027C90.4074 22.0064 90.1665 22.089 89.9737 22.2543C89.7122 22.4747 89.547 22.8535 89.5401 23.3701C89.5332 24.5823 90.3868 26.0562 91.4399 26.6623C91.6602 26.7931 91.8667 26.8551 92.0663 26.8896C92.4587 26.9584 92.8029 26.8551 93.03 26.5934C93.2297 26.3592 93.3467 26.0149 93.3536 25.5672C93.3536 24.3619 92.5069 22.888 91.4537 22.2819Z" fill="#A34262"/>
<path d="M101.29 10.6488C101.269 10.387 101.228 10.1047 101.166 9.81538C101.159 9.78094 101.152 9.74651 101.145 9.71896V9.70518V9.6983C101.145 9.69141 101.145 9.68452 101.138 9.67763C101.125 9.61564 101.111 9.55366 101.097 9.49856C101.09 9.47101 101.083 9.44346 101.077 9.4228C101.077 9.41591 101.077 9.40902 101.077 9.40902V9.40214C101.07 9.38147 101.063 9.36081 101.063 9.34015C101.049 9.29882 101.042 9.2575 101.028 9.21618C101.028 9.20929 101.021 9.2024 101.021 9.19551C101.021 9.18863 101.021 9.18863 101.021 9.18174C101.021 9.17485 101.021 9.17485 101.015 9.16796C100.994 9.0922 100.973 9.02333 100.953 8.95445C100.946 8.94068 100.946 8.93379 100.939 8.92002V8.91313C100.939 8.90624 100.932 8.89935 100.932 8.89247C100.911 8.83737 100.898 8.78227 100.877 8.72717C100.367 7.26015 99.452 6.22704 98.2887 5.66227C98.2543 5.64161 98.213 5.62783 98.1717 5.60717C98.151 5.59339 98.1235 5.58651 98.1028 5.57273C98.0891 5.56585 98.0753 5.55896 98.0684 5.55896C98.0546 5.55207 98.0477 5.55207 98.034 5.54518H98.0271H98.0202C97.9927 5.53141 97.972 5.52452 97.9445 5.51075C97.7655 5.43498 97.6003 5.37989 97.4558 5.33856C97.442 5.33167 97.4282 5.33167 97.4076 5.32479C97.3732 5.3179 97.3456 5.30412 97.3043 5.29724L97.2768 5.29035L97.1598 5.2628C97.1529 5.2628 97.1391 5.25591 97.1322 5.25591C97.1047 5.24903 97.0841 5.24214 97.0565 5.23525L97.029 5.22836C97.0083 5.22148 96.9877 5.22148 96.967 5.21459C96.9602 5.21459 96.9533 5.21459 96.9533 5.2077L96.9257 5.20081L96.967 5.2077C96.8707 5.18704 96.7674 5.17326 96.6642 5.15949C96.616 5.1526 96.5678 5.1526 96.5196 5.14571C96.4921 5.14571 96.4714 5.13883 96.4439 5.13883C96.3888 5.13194 96.3269 5.13194 96.2787 5.12505H96.2443L96.1204 5.11816C96.1066 5.11816 96.0928 5.11816 96.086 5.11816H96.0791H96.0515H96.086C96.0791 5.11816 96.0722 5.11816 96.0653 5.11816C96.0309 5.11816 95.9965 5.11816 95.962 5.11816H95.9552H95.8726C95.7624 5.11816 95.6454 5.12505 95.5146 5.13194C95.4183 5.13883 95.3081 5.1526 95.2049 5.16638C95.1704 5.17326 95.1429 5.17326 95.1154 5.18015C95.0947 5.18015 95.081 5.18704 95.0603 5.18704H95.0328C95.0121 5.19393 94.9846 5.19393 94.9639 5.20081C94.84 5.22148 94.723 5.24214 94.606 5.26969C94.5991 5.26969 94.5853 5.27657 94.5785 5.27657L94.5647 5.28346C94.5578 5.28346 94.5578 5.28346 94.5509 5.28346C94.5027 5.29035 94.2343 5.34545 93.8282 5.4832C93.8075 5.49008 93.78 5.49697 93.7593 5.50386C93.7318 5.51075 93.7043 5.52452 93.6767 5.53141C93.6698 5.53141 93.663 5.5383 93.6561 5.5383C93.2912 5.63472 92.8851 5.81379 92.4446 6.05485C90.6893 6.95022 88.9133 8.51366 87.3576 10.7727C87.337 10.8072 87.3163 10.8347 87.2957 10.8623C87.2613 10.9105 87.2269 10.9587 87.1993 11.0069C87.1511 11.0827 87.0961 11.1584 87.0479 11.2411C86.9722 11.3582 86.9102 11.4615 86.8483 11.551C86.8414 11.5579 86.8414 11.5648 86.8345 11.5717C86.7381 11.7232 86.6762 11.8334 86.6486 11.8816C86.6349 11.9023 86.628 11.916 86.6142 11.9367C86.5454 12.0538 86.4766 12.164 86.4146 12.2811C86.3733 12.3499 86.3389 12.4188 86.2976 12.4877C86.2976 12.4946 86.2907 12.5015 86.2907 12.5015C86.2838 12.5084 86.2838 12.5152 86.2769 12.5221C86.215 12.6323 86.153 12.7425 86.0911 12.8596C86.0704 12.9009 86.0429 12.9423 86.0222 12.9905C85.6712 13.6517 85.3683 14.3404 85.1136 15.0636C84.8176 15.8556 84.6042 16.6615 84.501 17.4535C84.4666 17.6464 84.4322 17.853 84.4046 18.039C84.3908 18.1078 84.3771 18.218 84.3633 18.3558C84.3495 18.4797 84.3358 18.5899 84.3289 18.7139V18.7277C84.3289 18.7346 84.3289 18.7484 84.3289 18.7552C84.3082 18.9894 84.2945 19.2649 84.2876 19.568C84.2876 19.5611 84.2876 19.5542 84.2876 19.5473C84.2876 19.5542 84.2876 19.5611 84.2876 19.568C84.2876 19.568 84.2876 19.568 84.2876 19.5748V19.5817V19.5748V19.5817C84.2876 19.6988 84.2876 19.8366 84.2945 19.9812C84.2945 19.9881 84.2945 19.9881 84.2945 19.995C84.2945 20.0707 84.3014 20.1396 84.3014 20.2085V20.2291V20.236C84.3014 20.3118 84.3082 20.3807 84.3151 20.4427C84.322 20.5597 84.3358 20.6975 84.3496 20.8352C84.3496 20.8421 84.3496 20.849 84.3496 20.8559C84.3496 20.8697 84.3564 20.8903 84.3564 20.9041C84.3564 20.911 84.3564 20.9179 84.3564 20.9179C84.3633 20.9799 84.3702 21.0488 84.384 21.1245C84.3909 21.1521 84.3909 21.1727 84.3977 21.2003C84.4046 21.2485 84.4115 21.2898 84.4184 21.3311C84.4184 21.3449 84.4253 21.3656 84.4253 21.3793C84.4253 21.3793 84.4253 21.3862 84.4253 21.3931C84.439 21.4758 84.4528 21.5515 84.4666 21.6204C84.4735 21.6411 84.4735 21.6617 84.4803 21.6824L84.4872 21.7031C84.4872 21.7099 84.4941 21.7237 84.4941 21.7306C84.5561 22.0199 84.6318 22.2747 84.7075 22.4882C84.7213 22.5227 84.7281 22.5502 84.7419 22.5846C84.7419 22.5778 84.7419 22.5778 84.735 22.5709L84.7419 22.5846C84.7694 22.6673 84.8039 22.7499 84.8383 22.8395L84.852 22.8808C84.8589 22.9015 84.8727 22.9221 84.8796 22.9359L84.9071 23.0117C84.914 23.0254 84.9209 23.0392 84.9278 23.053C84.9553 23.115 84.9828 23.177 85.0104 23.239C85.0173 23.2458 85.0173 23.2527 85.0241 23.2665C85.031 23.2803 85.0379 23.294 85.0448 23.3078C85.0861 23.3974 85.1412 23.5007 85.1962 23.5971C85.2238 23.6453 85.2513 23.6935 85.2788 23.7348C85.2995 23.7693 85.3132 23.7968 85.3339 23.8175C85.6024 24.2514 85.9121 24.6302 86.2838 24.9539C86.8896 25.498 87.6055 25.8768 88.4177 26.0628C88.4728 26.0766 88.5347 26.0903 88.6036 26.1041C89.526 26.2901 90.4828 26.2281 91.4258 25.9664C91.5566 25.9457 91.6943 25.9113 91.8251 25.8768C92.0591 25.9182 92.2587 25.8562 92.3895 25.7046C92.5065 25.5669 92.5754 25.3603 92.5822 25.0986C92.5822 24.3823 92.0866 23.5144 91.4602 23.1563C91.3019 23.0668 91.1505 23.0186 91.0059 23.0048C90.8407 22.991 90.6962 23.0392 90.586 23.1356C90.5723 23.1425 90.5585 23.1425 90.5447 23.1494C90.5172 23.1563 90.4896 23.1632 90.4621 23.1701C90.3795 23.1907 90.2969 23.2045 90.2143 23.2183C90.2005 23.2183 90.1937 23.2252 90.1799 23.2252C90.1386 23.2321 90.0973 23.2389 90.056 23.2458C89.6499 23.2872 89.2644 23.2596 88.9133 23.1494C88.8996 23.1425 88.8789 23.1356 88.8651 23.1288C88.7619 23.0943 88.6518 23.053 88.5554 22.9979C88.1699 22.7637 87.8946 22.4193 87.7018 22.0474C87.6812 22.013 87.6674 21.9786 87.6468 21.9372C87.6261 21.8959 87.6123 21.8546 87.5917 21.8201C87.5779 21.7857 87.5642 21.7513 87.5504 21.7099C87.3921 21.2967 87.3163 20.8697 87.275 20.4909C87.2682 20.1947 87.22 19.9054 87.2269 19.6093C87.275 18.4453 87.5022 17.3364 87.8395 16.2895C87.9014 16.1036 87.9772 15.9107 88.046 15.7248C88.2387 15.2358 88.459 14.7261 88.7206 14.2096L88.7275 14.1889C88.7757 14.0925 88.8307 13.996 88.8789 13.8996L89.1611 13.3968L89.5191 12.8183C89.526 12.8114 89.5328 12.7976 89.5397 12.7907L89.7256 12.5152C89.877 12.3017 90.0285 12.0882 90.1868 11.8885C90.2281 11.8334 90.2694 11.7783 90.3107 11.7301C91.1298 10.697 92.0453 9.81538 92.9608 9.18174C92.9952 9.16108 93.0297 9.13353 93.0641 9.11286C93.1536 9.05088 93.2431 8.99578 93.3257 8.94068C93.3945 8.89935 93.4702 8.85803 93.539 8.80982C93.5941 8.77538 93.6561 8.74094 93.7111 8.71339C94.193 8.45856 94.6404 8.27949 95.0603 8.16929C95.1154 8.15551 95.1636 8.14174 95.2186 8.13485C95.2943 8.12108 95.3701 8.1073 95.4389 8.09353C95.4458 8.09353 95.4527 8.09353 95.4596 8.08664C95.5353 8.07287 95.6179 8.06598 95.6936 8.05909C95.7211 8.05909 95.7487 8.0522 95.7762 8.0522C96.2443 8.03154 96.6848 8.11419 97.0772 8.32081C97.7173 8.72717 98.1304 9.4779 98.3025 10.449L101.434 12.2535C101.462 11.6612 101.428 11.1102 101.29 10.6488ZM87.2131 19.6437C87.2131 19.6368 87.2131 19.6299 87.2131 19.6231V19.6437ZM87.8946 16.0898C87.8946 16.0829 87.9014 16.076 87.9014 16.0692C87.9083 16.0554 87.9152 16.0347 87.9221 16.0209C87.9152 16.0485 87.9014 16.0692 87.8946 16.0898Z" fill="#C7D2D7"/>
<path d="M111.457 33.8185C111.181 33.6601 110.927 33.5774 110.693 33.5637C110.41 33.543 110.169 33.6257 109.977 33.791C109.715 34.0114 109.55 34.3902 109.543 34.9067C109.536 36.1189 110.39 37.5928 111.443 38.1989C111.663 38.3229 111.87 38.3917 112.069 38.4262C112.462 38.4951 112.806 38.3917 113.033 38.13C113.233 37.8959 113.35 37.5515 113.356 37.1038C113.356 35.8985 112.51 34.4246 111.457 33.8185Z" fill="#A34262"/>
<path d="M121.293 22.1854C121.273 21.9237 121.231 21.6413 121.169 21.352C121.163 21.3176 121.156 21.2831 121.149 21.2556V21.2418V21.2349C121.149 21.228 121.149 21.2211 121.142 21.2143C121.128 21.1523 121.114 21.0903 121.101 21.0352C121.094 21.0076 121.087 20.9801 121.08 20.9594C121.08 20.9525 121.08 20.9456 121.08 20.9456V20.9388C121.073 20.9181 121.066 20.8974 121.066 20.8768C121.052 20.8354 121.045 20.7941 121.032 20.7528C121.032 20.7459 121.025 20.739 121.025 20.7321C121.025 20.7252 121.025 20.7252 121.025 20.7184C121.025 20.7115 121.025 20.7115 121.018 20.7046C120.997 20.6288 120.977 20.5599 120.956 20.4911C120.949 20.4773 120.949 20.4704 120.942 20.4566V20.4498C120.942 20.4429 120.935 20.436 120.935 20.4291C120.915 20.374 120.901 20.3189 120.88 20.2638C120.371 18.7968 119.455 17.7637 118.292 17.1989C118.258 17.1782 118.216 17.1645 118.175 17.1438C118.154 17.13 118.127 17.1231 118.106 17.1094C118.092 17.1025 118.079 17.0956 118.072 17.0956C118.058 17.0887 118.051 17.0887 118.037 17.0818H118.031H118.024C117.996 17.068 117.975 17.0611 117.948 17.0474C117.769 16.9716 117.604 16.9165 117.459 16.8752C117.445 16.8683 117.432 16.8683 117.411 16.8614C117.377 16.8545 117.349 16.8407 117.308 16.8339L117.28 16.827L117.163 16.7994C117.156 16.7994 117.143 16.7925 117.136 16.7925C117.108 16.7856 117.087 16.7788 117.06 16.7719L117.032 16.765C117.012 16.7581 116.991 16.7581 116.97 16.7512C116.964 16.7512 116.957 16.7512 116.957 16.7443L116.929 16.7374L116.97 16.7443C116.874 16.7237 116.771 16.7099 116.668 16.6961C116.619 16.6892 116.571 16.6892 116.523 16.6823C116.495 16.6823 116.475 16.6754 116.447 16.6754C116.392 16.6686 116.33 16.6686 116.282 16.6617H116.248L116.124 16.6548C116.11 16.6548 116.096 16.6548 116.089 16.6548H116.082H116.055H116.089C116.082 16.6548 116.076 16.6548 116.069 16.6548C116.034 16.6548 116 16.6548 115.965 16.6548H115.959H115.876C115.766 16.6548 115.649 16.6617 115.518 16.6686C115.422 16.6754 115.312 16.6892 115.208 16.703C115.174 16.7099 115.146 16.7099 115.119 16.7168C115.098 16.7168 115.084 16.7237 115.064 16.7237H115.036C115.016 16.7305 114.988 16.7305 114.967 16.7374C114.843 16.7581 114.726 16.7788 114.609 16.8063C114.603 16.8063 114.589 16.8132 114.582 16.8132L114.568 16.8201C114.561 16.8201 114.561 16.8201 114.554 16.8201C114.506 16.827 114.238 16.8821 113.832 17.0198C113.811 17.0267 113.783 17.0336 113.763 17.0405C113.735 17.0474 113.708 17.0611 113.68 17.068C113.673 17.068 113.666 17.0749 113.659 17.0749C113.295 17.1713 112.889 17.3504 112.448 17.5915C110.693 18.4868 108.917 20.0503 107.361 22.3094C107.34 22.3438 107.32 22.3713 107.299 22.3989C107.265 22.4471 107.23 22.4953 107.203 22.5435C107.155 22.6193 107.099 22.695 107.051 22.7777C106.976 22.8948 106.914 22.9981 106.852 23.0876C106.845 23.0945 106.845 23.1014 106.838 23.1083C106.742 23.2598 106.68 23.37 106.652 23.4182C106.638 23.4389 106.631 23.4527 106.618 23.4733C106.549 23.5904 106.48 23.7006 106.418 23.8177C106.377 23.8866 106.342 23.9554 106.301 24.0243C106.301 24.0312 106.294 24.0381 106.294 24.0381C106.287 24.045 106.287 24.0519 106.28 24.0588C106.218 24.169 106.156 24.2792 106.094 24.3962C106.074 24.4376 106.046 24.4789 106.026 24.5271C105.675 25.1883 105.372 25.877 105.117 26.6002C104.821 27.3923 104.608 28.1981 104.504 28.9901C104.47 29.183 104.436 29.3896 104.408 29.5756C104.394 29.6444 104.381 29.7546 104.367 29.8924C104.353 30.0164 104.339 30.1266 104.332 30.2505V30.2643C104.332 30.2712 104.332 30.285 104.332 30.2919C104.312 30.526 104.298 30.8015 104.291 31.1046C104.291 31.0977 104.291 31.0908 104.291 31.0839C104.291 31.0908 104.291 31.0977 104.291 31.1046C104.291 31.1046 104.291 31.1046 104.291 31.1115V31.1184V31.1115V31.1184C104.291 31.2354 104.291 31.3732 104.298 31.5178C104.298 31.5247 104.298 31.5247 104.298 31.5316C104.298 31.6074 104.305 31.6762 104.305 31.7451V31.7658V31.7727C104.305 31.8484 104.312 31.9173 104.319 31.9793C104.325 32.0964 104.339 32.2341 104.353 32.3719C104.353 32.3788 104.353 32.3856 104.353 32.3925C104.353 32.4063 104.36 32.427 104.36 32.4407C104.36 32.4476 104.36 32.4545 104.36 32.4545C104.367 32.5165 104.374 32.5854 104.387 32.6542C104.394 32.6818 104.394 32.7025 104.401 32.73C104.408 32.7782 104.415 32.8195 104.422 32.8609C104.422 32.8746 104.429 32.8953 104.429 32.9091C104.429 32.9091 104.429 32.916 104.429 32.9229C104.442 33.0055 104.456 33.0813 104.47 33.1501C104.477 33.1708 104.477 33.1915 104.484 33.2121L104.491 33.2328C104.491 33.2397 104.498 33.2534 104.498 33.2603C104.559 33.5496 104.635 33.8044 104.711 34.018C104.725 34.0455 104.732 34.0799 104.745 34.1144C104.745 34.1075 104.745 34.1075 104.738 34.1006L104.745 34.1144C104.773 34.197 104.807 34.2797 104.842 34.3692L104.855 34.4105C104.862 34.4312 104.876 34.4519 104.883 34.4656L104.911 34.5414C104.917 34.5552 104.924 34.5689 104.931 34.5827C104.959 34.6447 104.986 34.7067 105.014 34.7687C105.021 34.7756 105.021 34.7825 105.028 34.7962C105.034 34.81 105.041 34.8238 105.048 34.8376C105.089 34.9271 105.145 35.0304 105.2 35.1268C105.227 35.175 105.255 35.2232 105.282 35.2646C105.303 35.299 105.317 35.3266 105.337 35.3472C105.606 35.7811 105.916 36.1599 106.287 36.4836C106.893 37.0278 107.609 37.4066 108.421 37.5925C108.476 37.6063 108.538 37.6201 108.607 37.6338C109.529 37.8198 110.486 37.7578 111.429 37.4961C111.56 37.4754 111.698 37.441 111.828 37.4066C112.063 37.4479 112.262 37.3859 112.393 37.2344C112.51 37.0966 112.579 36.89 112.586 36.6283C112.586 35.912 112.09 35.0442 111.464 34.686C111.305 34.5965 111.154 34.5483 111.009 34.5345C110.844 34.5207 110.7 34.5689 110.589 34.6654C110.576 34.6723 110.562 34.6723 110.548 34.6791C110.521 34.686 110.493 34.6929 110.466 34.6998C110.383 34.7205 110.3 34.7342 110.218 34.748C110.204 34.748 110.197 34.7549 110.183 34.7549C110.142 34.7618 110.101 34.7687 110.059 34.7756C109.653 34.8169 109.268 34.7893 108.917 34.6791C108.903 34.6723 108.882 34.6654 108.869 34.6585C108.765 34.624 108.655 34.5827 108.559 34.5276C108.173 34.2934 107.898 33.9491 107.705 33.5772C107.685 33.5427 107.671 33.5083 107.65 33.467C107.63 33.4256 107.616 33.3843 107.595 33.3499C107.581 33.3154 107.568 33.281 107.554 33.2397C107.395 32.8264 107.32 32.3994 107.278 32.0206C107.272 31.7244 107.223 31.4352 107.23 31.139C107.278 29.975 107.506 28.8662 107.843 27.8193C107.905 27.6333 107.981 27.4405 108.049 27.2545C108.242 26.7655 108.462 26.2558 108.724 25.7393L108.731 25.7186C108.779 25.6222 108.834 25.5258 108.882 25.4293L109.165 24.9266L109.522 24.348C109.529 24.3411 109.536 24.3274 109.543 24.3205L109.729 24.045C109.88 23.8315 110.032 23.618 110.19 23.4182C110.231 23.3631 110.273 23.308 110.314 23.2598C111.133 22.2267 112.049 21.3451 112.964 20.7115C112.999 20.6908 113.033 20.6633 113.067 20.6426C113.157 20.5806 113.246 20.5255 113.329 20.4704C113.398 20.4291 113.474 20.3878 113.542 20.3396C113.598 20.3051 113.659 20.2707 113.715 20.2431C114.196 19.9883 114.644 19.8092 115.064 19.699C115.119 19.6852 115.167 19.6715 115.222 19.6646C115.298 19.6508 115.373 19.637 115.442 19.6233C115.449 19.6233 115.456 19.6233 115.463 19.6164C115.539 19.6026 115.621 19.5957 115.697 19.5888C115.725 19.5888 115.752 19.5819 115.78 19.5819C116.248 19.5613 116.688 19.6439 117.081 19.8505C117.721 20.2569 118.134 21.0076 118.306 21.9788L121.438 23.7833C121.465 23.1909 121.424 22.6468 121.293 22.1854ZM107.217 31.1803C107.217 31.1735 107.217 31.1666 107.217 31.1597V31.1803ZM107.898 27.6264C107.898 27.6195 107.905 27.6127 107.905 27.6058C107.912 27.592 107.919 27.5713 107.926 27.5576C107.912 27.5782 107.905 27.5989 107.898 27.6264Z" fill="#C7D2D7"/>
<path d="M131.461 45.341C131.186 45.1825 130.931 45.0999 130.697 45.0861C130.415 45.0655 130.174 45.1481 129.981 45.3134C129.719 45.5338 129.554 45.9126 129.547 46.4292C129.547 47.6414 130.394 49.1153 131.447 49.7214C131.667 49.8453 131.874 49.9142 132.074 49.9486C132.466 50.0175 132.81 49.9142 133.037 49.6525C133.237 49.4183 133.354 49.0739 133.361 48.6263C133.361 47.421 132.514 45.9471 131.461 45.341Z" fill="#A34262"/>
<path d="M141.297 33.7079C141.277 33.4462 141.235 33.1638 141.173 32.8745C141.166 32.8401 141.16 32.8056 141.153 32.7781V32.7574V32.7505C141.153 32.7437 141.153 32.7368 141.146 32.7299C141.132 32.6679 141.118 32.6059 141.104 32.5508C141.098 32.5233 141.091 32.4957 141.084 32.475C141.084 32.4682 141.084 32.4613 141.084 32.4613V32.4544C141.077 32.4337 141.07 32.4131 141.07 32.3924C141.056 32.3511 141.049 32.3097 141.036 32.2684C141.036 32.2615 141.029 32.2547 141.029 32.2478C141.029 32.2409 141.029 32.2409 141.029 32.234C141.029 32.2271 141.029 32.2271 141.022 32.2202C141.001 32.1445 140.981 32.0756 140.96 32.0067C140.953 31.9929 140.953 31.986 140.946 31.9723V31.9654C140.946 31.9585 140.939 31.9516 140.939 31.9447C140.919 31.8896 140.905 31.8345 140.884 31.7794C140.375 30.3124 139.459 29.2793 138.296 28.7145C138.262 28.6939 138.22 28.6801 138.179 28.6594C138.158 28.6456 138.131 28.6388 138.11 28.625C138.096 28.6181 138.083 28.6112 138.076 28.6112C138.062 28.6043 138.055 28.6043 138.041 28.5974H138.034H138.028C138 28.5837 137.979 28.5768 137.952 28.563C137.773 28.4872 137.608 28.4321 137.463 28.3908C137.449 28.3839 137.436 28.3839 137.415 28.377C137.38 28.3701 137.353 28.3564 137.312 28.3495L137.284 28.3426L137.167 28.3151C137.16 28.3151 137.146 28.3082 137.14 28.3082C137.112 28.3013 137.091 28.2944 137.064 28.2875L137.036 28.2806C137.016 28.2737 136.995 28.2737 136.974 28.2668C136.967 28.2668 136.961 28.2668 136.961 28.2599L136.933 28.2531L136.974 28.2599C136.878 28.2393 136.775 28.2255 136.671 28.2117C136.623 28.2049 136.575 28.2048 136.527 28.198C136.499 28.198 136.479 28.1911 136.451 28.1911C136.396 28.1842 136.334 28.1842 136.286 28.1773H136.252L136.128 28.1704C136.114 28.1704 136.1 28.1704 136.093 28.1704H136.086H136.059H136.093C136.086 28.1704 136.08 28.1704 136.073 28.1704C136.038 28.1704 136.004 28.1704 135.969 28.1704H135.962H135.88C135.77 28.1704 135.653 28.1773 135.522 28.1842C135.426 28.1911 135.315 28.2048 135.212 28.2186C135.178 28.2255 135.15 28.2255 135.123 28.2324C135.102 28.2324 135.088 28.2393 135.068 28.2393H135.04C135.019 28.2462 134.992 28.2462 134.971 28.2531C134.847 28.2737 134.73 28.2944 134.613 28.3219C134.606 28.3219 134.593 28.3288 134.586 28.3288L134.572 28.3357C134.565 28.3357 134.565 28.3357 134.558 28.3357C134.51 28.3426 134.242 28.3977 133.835 28.5354C133.815 28.5423 133.787 28.5492 133.767 28.5561C133.739 28.563 133.712 28.5768 133.684 28.5837C133.677 28.5837 133.67 28.5905 133.663 28.5905C133.299 28.687 132.892 28.866 132.452 29.1071C130.697 30.0025 128.921 31.5659 127.365 33.825C127.344 33.8594 127.324 33.887 127.303 33.9145C127.269 33.9627 127.234 34.0109 127.207 34.0592C127.158 34.1349 127.103 34.2107 127.055 34.2933C126.979 34.4104 126.918 34.5137 126.856 34.6033C126.849 34.6101 126.849 34.617 126.842 34.6239C126.745 34.7754 126.683 34.8856 126.656 34.9338C126.642 34.9545 126.635 34.9683 126.622 34.989C126.553 35.106 126.484 35.2162 126.422 35.3333C126.381 35.4022 126.346 35.4711 126.305 35.5399C126.305 35.5468 126.298 35.5537 126.298 35.5537C126.291 35.5606 126.291 35.5675 126.284 35.5744C126.222 35.6846 126.16 35.7948 126.098 35.9119C126.078 35.9532 126.05 35.9945 126.03 36.0358C125.679 36.697 125.376 37.3858 125.121 38.1089C124.825 38.901 124.612 39.7068 124.508 40.4989C124.474 40.6917 124.439 40.8983 124.412 41.0843C124.398 41.1532 124.384 41.2634 124.371 41.4011C124.357 41.5251 124.343 41.6353 124.336 41.7593V41.7731C124.336 41.7799 124.336 41.7937 124.336 41.8006C124.316 42.0348 124.302 42.3103 124.295 42.6133C124.295 42.6064 124.295 42.5995 124.295 42.5927C124.295 42.5995 124.295 42.6064 124.295 42.6133C124.295 42.6133 124.295 42.6133 124.295 42.6202V42.6271V42.6202V42.6271C124.295 42.7442 124.295 42.8819 124.302 43.0266C124.302 43.0334 124.302 43.0335 124.302 43.0403C124.302 43.1161 124.309 43.185 124.309 43.2538V43.2745V43.2814C124.309 43.3572 124.316 43.426 124.322 43.488C124.329 43.6051 124.343 43.7429 124.357 43.8806C124.357 43.8875 124.357 43.8944 124.357 43.9013C124.357 43.915 124.364 43.9357 124.364 43.9495C124.364 43.9564 124.364 43.9632 124.364 43.9632C124.371 44.0252 124.378 44.0941 124.391 44.163C124.398 44.1905 124.398 44.2112 124.405 44.2387C124.412 44.287 124.419 44.3283 124.426 44.3696C124.426 44.3834 124.433 44.404 124.433 44.4178C124.433 44.4178 124.433 44.4247 124.433 44.4316C124.446 44.5142 124.46 44.59 124.474 44.6589C124.481 44.6795 124.481 44.7002 124.488 44.7209L124.495 44.7415C124.495 44.7484 124.501 44.7622 124.501 44.7691C124.563 45.0584 124.639 45.3132 124.715 45.5267C124.729 45.5542 124.735 45.5887 124.749 45.6231C124.749 45.6162 124.749 45.6162 124.742 45.6093L124.749 45.6231C124.777 45.7058 124.811 45.7884 124.846 45.878L124.859 45.9193C124.866 45.9399 124.88 45.9606 124.887 45.9744L124.914 46.0501C124.921 46.0639 124.928 46.0777 124.935 46.0915C124.963 46.1535 124.99 46.2154 125.018 46.2774C125.025 46.2843 125.025 46.2912 125.031 46.305C125.038 46.3187 125.045 46.3325 125.052 46.3463C125.093 46.4358 125.148 46.5391 125.204 46.6356C125.231 46.6838 125.259 46.7251 125.286 46.7733C125.307 46.8078 125.321 46.8353 125.341 46.856C125.61 47.2899 125.919 47.6687 126.291 47.9924C126.897 48.5365 127.613 48.9153 128.425 49.0944C128.48 49.1082 128.542 49.1219 128.611 49.1357C129.533 49.3217 130.49 49.2597 131.433 48.998C131.564 48.9773 131.702 48.9428 131.832 48.9084C132.066 48.9497 132.266 48.8877 132.397 48.7362C132.514 48.5985 132.583 48.3919 132.59 48.1301C132.59 47.4138 132.094 46.546 131.468 46.1879C131.309 46.0983 131.158 46.0501 131.013 46.0364C130.848 46.0226 130.703 46.0708 130.593 46.1672C130.58 46.1741 130.566 46.1741 130.552 46.181C130.525 46.1879 130.497 46.1948 130.469 46.2017C130.387 46.2223 130.304 46.2361 130.222 46.2499C130.208 46.2499 130.201 46.2568 130.187 46.2568C130.146 46.2636 130.105 46.2705 130.063 46.2774C129.657 46.3187 129.272 46.2912 128.921 46.181C128.907 46.1741 128.886 46.1672 128.872 46.1603C128.769 46.1259 128.659 46.0846 128.563 46.0295C128.177 45.7953 127.902 45.4509 127.709 45.079C127.688 45.0446 127.675 45.0101 127.654 44.9688C127.633 44.9275 127.62 44.8862 127.599 44.8517C127.585 44.8173 127.571 44.7829 127.558 44.7415C127.399 44.3283 127.324 43.9013 127.282 43.5225C127.275 43.2263 127.227 42.937 127.234 42.6409C127.282 41.4769 127.51 40.368 127.847 39.3211C127.909 39.1352 127.984 38.9423 128.053 38.7564C128.246 38.2674 128.466 37.7577 128.728 37.2411L128.735 37.2205C128.783 37.124 128.838 37.0276 128.886 36.9312L129.168 36.4284L129.526 35.8499C129.533 35.843 129.54 35.8292 129.547 35.8223L129.733 35.5468C129.884 35.3333 130.036 35.1198 130.194 34.9201C130.235 34.865 130.277 34.8099 130.318 34.7617C131.137 33.7286 132.053 32.847 132.968 32.2133C133.003 32.1927 133.037 32.1651 133.071 32.1445C133.161 32.0825 133.25 32.0274 133.333 31.9723C133.402 31.9309 133.478 31.8896 133.546 31.8414C133.601 31.807 133.663 31.7725 133.718 31.745C134.2 31.4901 134.648 31.3111 135.068 31.2009C135.123 31.1871 135.171 31.1733 135.226 31.1664C135.302 31.1527 135.377 31.1389 135.446 31.1251C135.453 31.1251 135.46 31.1251 135.467 31.1182C135.543 31.1045 135.625 31.0976 135.701 31.0907C135.728 31.0907 135.756 31.0838 135.784 31.0838C136.252 31.0631 136.692 31.1458 137.085 31.3524C137.725 31.7588 138.138 32.5095 138.31 33.4806L141.442 35.2851C141.469 34.7135 141.428 34.1693 141.297 33.7079ZM127.214 42.7029C127.214 42.696 127.214 42.6891 127.214 42.6822V42.7029ZM127.902 39.1489C127.902 39.1421 127.909 39.1352 127.909 39.1283C127.916 39.1145 127.923 39.0939 127.929 39.0801C127.916 39.1007 127.909 39.1214 127.902 39.1489Z" fill="#C7D2D7"/>
<path d="M151.463 56.8776C151.188 56.7192 150.933 56.6365 150.699 56.6227C150.417 56.6021 150.176 56.6847 149.983 56.85C149.722 57.0704 149.557 57.4492 149.55 57.9658C149.55 59.178 150.396 60.6519 151.45 61.258C151.67 61.3888 151.876 61.4508 152.076 61.4853C152.468 61.5541 152.813 61.4508 153.04 61.1891C153.239 60.9549 153.356 60.6106 153.363 60.1629C153.363 58.9576 152.51 57.4906 151.463 56.8776Z" fill="#A34262"/>
<path d="M161.301 45.2445C161.28 44.9827 161.239 44.7004 161.177 44.4111C161.17 44.3766 161.163 44.3422 161.156 44.3147V44.3009V44.294C161.156 44.2871 161.156 44.2802 161.149 44.2733C161.135 44.2113 161.122 44.1494 161.108 44.0943C161.101 44.0667 161.094 44.0392 161.087 44.0185C161.087 44.0116 161.087 44.0047 161.087 44.0047V43.9978C161.08 43.9772 161.073 43.9565 161.073 43.9358C161.06 43.8945 161.053 43.8532 161.039 43.8119C161.039 43.805 161.032 43.7981 161.032 43.7912C161.032 43.7843 161.032 43.7843 161.032 43.7774C161.032 43.7706 161.032 43.7706 161.025 43.7637C161.005 43.6879 160.984 43.619 160.963 43.5502C160.956 43.5364 160.956 43.5295 160.95 43.5157V43.5088C160.95 43.5019 160.943 43.4951 160.943 43.4882C160.922 43.4331 160.908 43.378 160.888 43.3229C160.378 41.8559 159.463 40.8227 158.299 40.258C158.265 40.2373 158.224 40.2235 158.182 40.2029C158.162 40.1891 158.134 40.1822 158.114 40.1684C158.1 40.1616 158.086 40.1547 158.079 40.1547C158.065 40.1478 158.058 40.1478 158.045 40.1409H158.038H158.031C158.003 40.1271 157.983 40.1202 157.955 40.1064C157.776 40.0307 157.611 39.9756 157.467 39.9343C157.453 39.9274 157.439 39.9274 157.418 39.9205C157.384 39.9136 157.356 39.8998 157.315 39.8929L157.288 39.8861L157.171 39.8585C157.164 39.8585 157.15 39.8516 157.143 39.8516C157.115 39.8447 157.095 39.8378 157.067 39.831L157.04 39.8241C157.019 39.8172 156.998 39.8172 156.978 39.8103C156.971 39.8103 156.964 39.8103 156.964 39.8034L156.936 39.7965L156.978 39.8034C156.881 39.7827 156.778 39.769 156.675 39.7552C156.627 39.7483 156.579 39.7483 156.53 39.7414C156.503 39.7414 156.482 39.7345 156.455 39.7345C156.4 39.7276 156.338 39.7276 156.289 39.7208H156.255L156.131 39.7139C156.117 39.7139 156.104 39.7139 156.097 39.7139H156.09H156.062H156.097C156.09 39.7139 156.083 39.7139 156.076 39.7139C156.042 39.7139 156.007 39.7139 155.973 39.7139H155.966H155.883C155.773 39.7139 155.656 39.7208 155.525 39.7276C155.429 39.7345 155.319 39.7483 155.216 39.7621C155.181 39.769 155.154 39.769 155.126 39.7759C155.105 39.7759 155.092 39.7827 155.071 39.7827H155.044C155.023 39.7896 154.995 39.7896 154.975 39.7965C154.851 39.8172 154.734 39.8378 154.617 39.8654C154.61 39.8654 154.596 39.8723 154.589 39.8723L154.575 39.8792C154.569 39.8792 154.569 39.8792 154.562 39.8792C154.513 39.8861 154.245 39.9412 153.839 40.0789C153.818 40.0858 153.791 40.0927 153.77 40.0996C153.743 40.1064 153.715 40.1202 153.687 40.1271C153.681 40.1271 153.674 40.134 153.667 40.134C153.302 40.2304 152.896 40.4095 152.455 40.6506C150.7 41.5459 148.924 43.1094 147.368 45.3684C147.348 45.4029 147.327 45.4304 147.306 45.458C147.272 45.5062 147.238 45.5544 147.21 45.6026C147.162 45.6784 147.107 45.7541 147.059 45.8368C146.983 45.9539 146.921 46.0572 146.859 46.1467C146.852 46.1536 146.852 46.1605 146.845 46.1674C146.749 46.3189 146.687 46.4291 146.659 46.4773C146.646 46.498 146.639 46.5117 146.625 46.5324C146.556 46.6495 146.487 46.7597 146.425 46.8768C146.384 46.9457 146.35 47.0145 146.308 47.0834C146.308 47.0903 146.301 47.0972 146.301 47.0972C146.295 47.1041 146.295 47.1109 146.288 47.1178C146.226 47.228 146.164 47.3382 146.102 47.4553C146.081 47.4966 146.054 47.538 146.033 47.5793C145.682 48.2405 145.379 48.9292 145.124 49.6524C144.828 50.4445 144.615 51.2503 144.512 52.0423C144.477 52.2352 144.443 52.4418 144.415 52.6278C144.402 52.6966 144.388 52.8068 144.374 52.9446C144.36 53.0686 144.347 53.1788 144.34 53.3027V53.3165C144.34 53.3234 144.34 53.3372 144.34 53.3441C144.319 53.5782 144.305 53.8537 144.298 54.1568C144.298 54.1499 144.298 54.143 144.298 54.1361C144.298 54.143 144.298 54.1499 144.298 54.1568C144.298 54.1568 144.298 54.1568 144.298 54.1637V54.1705V54.1637V54.1705C144.298 54.2876 144.298 54.4254 144.305 54.57C144.305 54.5769 144.305 54.5769 144.305 54.5838C144.305 54.6596 144.312 54.7284 144.312 54.7973V54.818V54.8249C144.312 54.9006 144.319 54.9695 144.326 55.0315C144.333 55.1486 144.347 55.2863 144.36 55.4241C144.36 55.4309 144.36 55.4378 144.36 55.4447C144.36 55.4585 144.367 55.4792 144.367 55.4929C144.367 55.4998 144.367 55.5067 144.367 55.5067C144.374 55.5687 144.381 55.6376 144.395 55.7064C144.402 55.734 144.402 55.7547 144.408 55.7822C144.415 55.8304 144.422 55.8717 144.429 55.9131C144.429 55.9268 144.436 55.9475 144.436 55.9613C144.436 55.9613 144.436 55.9682 144.436 55.975C144.45 56.0577 144.464 56.1335 144.477 56.2023C144.484 56.223 144.484 56.2437 144.491 56.2643L144.498 56.285C144.498 56.2919 144.505 56.3056 144.505 56.3125C144.567 56.6018 144.643 56.8566 144.718 57.0701C144.732 57.0977 144.739 57.1321 144.753 57.1666C144.753 57.1597 144.753 57.1597 144.746 57.1528L144.753 57.1666C144.78 57.2492 144.815 57.3319 144.849 57.4214L144.863 57.4627C144.87 57.4834 144.883 57.5041 144.89 57.5178L144.918 57.5936C144.925 57.6074 144.932 57.6211 144.939 57.6349C144.966 57.6969 144.994 57.7589 145.021 57.8209C145.028 57.8278 145.028 57.8347 145.035 57.8484C145.042 57.8622 145.049 57.876 145.056 57.8897C145.097 57.9793 145.152 58.0826 145.207 58.179C145.235 58.2272 145.262 58.2686 145.29 58.3168C145.31 58.3512 145.324 58.3788 145.345 58.3994C145.613 58.8333 145.923 59.2121 146.295 59.5358C146.9 60.0799 147.616 60.4588 148.428 60.6447C148.484 60.6585 148.545 60.6723 148.614 60.686C149.537 60.872 150.494 60.81 151.437 60.5483C151.567 60.5276 151.705 60.4932 151.836 60.4588C152.07 60.5001 152.269 60.4381 152.4 60.2866C152.517 60.1488 152.586 59.9422 152.593 59.6805C152.593 58.9642 152.097 58.0964 151.471 57.7382C151.313 57.6487 151.161 57.6005 151.017 57.5867C150.851 57.5729 150.707 57.6211 150.597 57.7176C150.583 57.7244 150.569 57.7245 150.555 57.7313C150.528 57.7382 150.5 57.7451 150.473 57.752C150.39 57.7727 150.308 57.7864 150.225 57.8002C150.211 57.8002 150.204 57.8071 150.191 57.8071C150.149 57.814 150.108 57.8209 150.067 57.8278C149.661 57.8691 149.275 57.8415 148.924 57.7313C148.91 57.7245 148.89 57.7176 148.876 57.7107C148.773 57.6762 148.662 57.6349 148.566 57.5798C148.181 57.3456 147.905 57.0013 147.713 56.6293C147.692 56.5949 147.678 56.5605 147.657 56.5192C147.637 56.4778 147.623 56.4365 147.602 56.4021C147.589 56.3676 147.575 56.3332 147.561 56.2919C147.403 55.8786 147.327 55.4516 147.286 55.0728C147.279 54.7766 147.231 54.4874 147.238 54.1912C147.286 53.0272 147.513 51.9184 147.85 50.8715C147.912 50.6855 147.988 50.4927 148.057 50.3067C148.249 49.8177 148.47 49.308 148.731 48.7915L148.738 48.7708C148.786 48.6744 148.841 48.578 148.89 48.4815L149.172 47.9788L149.53 47.4002C149.537 47.3933 149.544 47.3796 149.55 47.3727L149.736 47.0972C149.888 46.8837 150.039 46.6702 150.198 46.4704C150.239 46.4153 150.28 46.3602 150.321 46.312C151.141 45.2789 152.056 44.3973 152.972 43.7637C153.006 43.743 153.04 43.7155 153.075 43.6948C153.164 43.6328 153.254 43.5777 153.336 43.5226C153.405 43.4813 153.481 43.44 153.55 43.3917C153.605 43.3573 153.667 43.3229 153.722 43.2953C154.204 43.0405 154.651 42.8614 155.071 42.7512C155.126 42.7374 155.174 42.7237 155.229 42.7168C155.305 42.703 155.381 42.6892 155.45 42.6755C155.457 42.6755 155.463 42.6755 155.47 42.6686C155.546 42.6548 155.629 42.6479 155.704 42.641C155.732 42.641 155.759 42.6341 155.787 42.6341C156.255 42.6135 156.696 42.6961 157.088 42.9027C157.728 43.3091 158.141 44.0598 158.313 45.031L161.445 46.8355C161.473 46.2569 161.431 45.7059 161.301 45.2445ZM147.217 54.2394C147.217 54.2325 147.217 54.2256 147.217 54.2188V54.2394ZM147.905 50.6855C147.905 50.6786 147.912 50.6717 147.912 50.6649C147.919 50.6511 147.926 50.6304 147.933 50.6166C147.919 50.6442 147.912 50.6649 147.905 50.6855Z" fill="#C7D2D7"/>
<path opacity="0.2" d="M193.832 201.472L280.861 251.743C281.976 252.39 283.353 252.39 284.475 251.743L288.825 249.229C289.789 248.671 289.789 247.28 288.825 246.722L201.604 196.554C200.489 195.914 199.112 195.914 197.997 196.561L193.839 198.965C192.876 199.523 192.876 200.914 193.832 201.472Z" fill="#455A64"/>
<path d="M193.192 17.3577C193.777 15.2777 197.983 11.3381 202.168 11.4207C202.319 11.4207 203.07 11.4965 203.345 11.648L284.681 57.9452C286.064 58.7304 287.131 59.915 287.806 61.2994C288.315 62.3463 288.611 63.5033 288.611 64.7155V240.744C288.611 245.228 283.442 249.505 278.589 247.445C278.575 247.439 278.568 247.432 278.554 247.425C278.451 247.384 278.341 247.356 278.245 247.301L196.909 200.928C194.479 199.544 192.979 196.961 192.979 194.164V18.2048C192.985 17.8949 193.068 17.6125 193.192 17.3577Z" fill="url(#paint6_linear)"/>
<path d="M277.268 83.3188C277.268 81.9206 276.517 80.6258 275.299 79.937L199.787 36.9458C198.493 36.2088 196.882 37.1455 196.882 38.6401V180.583C196.882 181.981 197.632 183.276 198.844 183.965L274.363 227.025C275.657 227.762 277.268 226.825 277.268 225.337V83.3188Z" fill="#FFC77E"/>
<path d="M288.611 64.7155V240.744C288.611 245.228 283.442 249.505 278.589 247.445C278.575 247.439 278.568 247.432 278.554 247.425C279.787 247.872 281.15 246.984 281.15 245.606V69.578C281.15 68.0214 280.668 66.5337 279.835 65.2802L287.799 61.2993C288.322 62.3462 288.611 63.5102 288.611 64.7155Z" fill="url(#paint7_linear)"/>
<path opacity="0.2" d="M202.175 11.4207C202.327 11.4207 203.077 11.4965 203.352 11.648L284.688 57.9452C286.072 58.7304 287.139 59.915 287.813 61.2994L279.849 65.2803C279.188 64.2816 278.307 63.4276 277.226 62.8146L195.891 16.5174C194.865 15.932 193.661 16.4072 193.192 17.3577L193.186 17.3508C193.778 15.2777 197.983 11.3381 202.175 11.4207Z" fill="white"/>
<path d="M227.045 45.5823C226.474 45.2517 225.999 45.5066 225.999 46.1678C225.999 46.8221 226.467 47.6417 227.038 47.9723L242.994 57.1876C243.566 57.5182 244.027 57.2427 244.027 56.5815C244.027 55.9272 243.573 55.1283 243.001 54.8046L227.045 45.5823Z" fill="#3C3970"/>
<path d="M247.104 57.1668C246.533 56.8362 246.072 57.0979 246.072 57.7591C246.072 58.4134 246.526 59.2262 247.097 59.5568C247.669 59.8873 248.143 59.6187 248.143 58.9575C248.143 58.2964 247.675 57.4974 247.104 57.1668Z" fill="#3C3970"/>
<path d="M236.889 44.2393C235.746 43.5781 234.824 44.1084 234.824 45.417C234.817 46.7257 235.732 48.3442 236.875 49.0054C238.017 49.6666 238.961 49.1225 238.967 47.8139C238.967 46.4984 238.031 44.9005 236.889 44.2393Z" fill="#3C3970"/>
<path d="M236.882 209.957C234.555 208.614 232.683 209.682 232.676 212.354C232.669 215.027 234.535 218.312 236.854 219.655C239.181 220.998 241.108 219.896 241.115 217.224C241.122 214.558 239.209 211.3 236.882 209.957Z" fill="#3C3970"/>
<path d="M219.956 73.1523C219.956 72.863 219.798 72.5944 219.55 72.4498L203.925 63.5513C203.656 63.3997 203.326 63.5926 203.326 63.9025V81.6238C203.326 81.9131 203.484 82.1817 203.732 82.3264L219.357 91.2387C219.626 91.3902 219.956 91.1973 219.956 90.8874V73.1523Z" fill="white"/>
<path d="M269.791 101.535L225.999 76.2446V79.0065L269.791 104.304V101.535Z" fill="#FF9F55"/>
<path d="M269.791 106.597L225.999 81.2998V84.0617L269.791 109.359V106.597Z" fill="#FF9F55"/>
<path d="M269.791 111.653L225.999 86.3555V89.1242L269.791 114.415V111.653Z" fill="#FF9F55"/>
<path d="M225.999 91.4175V94.1793L241.259 102.995V100.233L225.999 91.4175Z" fill="#FF9F55"/>
<path d="M219.955 101.701C219.955 101.411 219.797 101.143 219.549 100.998L203.924 92.0996C203.655 91.9481 203.325 92.1409 203.325 92.4509V110.172C203.325 110.461 203.483 110.73 203.731 110.875L219.356 119.787C219.625 119.939 219.955 119.746 219.955 119.436V101.701Z" fill="white"/>
<path d="M269.791 130.084L225.999 104.793V107.555L269.791 132.852V130.084Z" fill="#FF9F55"/>
<path d="M269.791 135.146L225.999 109.848V112.61L269.791 137.907V135.146Z" fill="#FF9F55"/>
<path d="M225.999 114.904V117.673L255.157 134.512V131.75L225.999 114.904Z" fill="#FF9F55"/>
<path d="M219.955 130.249C219.955 129.96 219.797 129.691 219.549 129.546L203.924 120.648C203.655 120.496 203.325 120.689 203.325 120.999V138.721C203.325 139.01 203.483 139.278 203.731 139.423L219.356 148.335C219.625 148.487 219.955 148.294 219.955 147.984V130.249Z" fill="white"/>
<path d="M269.791 158.632L225.999 133.334V136.103L269.791 161.394V158.632Z" fill="#FF9F55"/>
<path d="M269.791 163.687L225.999 138.396V141.158L269.791 166.456V163.687Z" fill="#FF9F55"/>
<path d="M225.999 143.452V146.221L232.896 150.202V147.433L225.999 143.452Z" fill="#FF9F55"/>
<path d="M219.955 158.797C219.955 158.508 219.797 158.239 219.549 158.095L203.924 149.196C203.655 149.045 203.325 149.238 203.325 149.548V167.269C203.325 167.558 203.483 167.827 203.731 167.971L219.356 176.884C219.625 177.035 219.955 176.842 219.955 176.532V158.797Z" fill="white"/>
<path d="M269.791 187.18L225.999 161.883V164.652L269.791 189.942V187.18Z" fill="#FF9F55"/>
<path d="M269.791 192.235L225.999 166.945V169.707L269.791 195.004V192.235Z" fill="#FF9F55"/>
<path d="M269.791 197.298L225.999 172V174.769L269.791 200.06V197.298Z" fill="#FF9F55"/>
<path d="M225.999 176.938V179.7L253.539 195.61V192.848L225.999 176.938Z" fill="#FF9F55"/>
<path d="M216.906 74.2955L218.352 76.7956L209.548 81.8165L204.929 73.8134L206.381 72.98L209.554 78.4899L216.906 74.2955Z" fill="#FF634C"/>
<path d="M216.906 102.844L218.352 105.344L209.548 110.365L204.929 102.362L206.381 101.528L209.554 107.038L216.906 102.844Z" fill="#FF634C"/>
<path d="M216.906 131.392L218.352 133.892L209.548 138.913L204.929 130.91L206.381 130.077L209.554 135.587L216.906 131.392Z" fill="#FF634C"/>
<path d="M216.906 159.94L218.352 162.441L209.548 167.462L204.929 159.458L206.381 158.625L209.554 164.128L216.906 159.94Z" fill="#FF634C"/>
<path opacity="0.2" d="M121.301 217.809L191.939 258.431C193.054 259.078 194.431 259.078 195.553 258.431L217.498 245.235C218.461 244.677 218.461 243.285 217.498 242.728L146.666 202.216C145.551 201.575 144.174 201.575 143.059 202.216L121.307 215.302C120.337 215.86 120.337 217.251 121.301 217.809Z" fill="#455A64"/>
<path d="M187.623 219.992C186.474 219.834 184.973 220.44 184.264 221.356C183.913 221.81 183.823 222.258 183.968 222.609L192.18 242.886C192.325 243.237 192.703 243.492 193.275 243.574C194.417 243.733 195.925 243.127 196.627 242.218C196.978 241.763 197.067 241.315 196.923 240.964L188.711 220.688C188.573 220.329 188.195 220.075 187.623 219.992Z" fill="#3C3970"/>
<path d="M141.139 226.776C139.989 226.935 138.489 226.328 137.78 225.412C137.429 224.958 137.339 224.51 137.484 224.159L145.696 203.882C145.84 203.531 146.219 203.276 146.79 203.194C147.933 203.035 149.44 203.641 150.142 204.55C150.494 205.005 150.583 205.453 150.438 205.804L142.226 226.08C142.089 226.439 141.71 226.7 141.139 226.776Z" fill="#3C3970"/>
<path d="M155.856 140.952C149.55 137.309 143.596 135.607 138.316 135.621C125.603 135.663 116.854 145.746 116.805 163.212C116.737 187.924 134.104 218.022 155.601 230.447C171.192 239.456 184.663 236.673 190.92 225.04C193.288 220.639 194.63 214.971 194.644 208.18C194.72 183.461 177.353 153.363 155.856 140.952Z" fill="url(#paint8_linear)"/>
<path d="M188.81 229.804C203.985 220.979 203.945 192.576 188.72 166.365C173.494 140.153 148.85 126.059 133.674 134.884C118.498 143.709 118.538 172.111 133.764 198.323C148.989 224.535 173.634 238.629 188.81 229.804Z" fill="white"/>
<path d="M162.319 144.637L162.299 151.38L160.344 150.25L160.364 143.507L162.319 144.637Z" fill="#4D578F"/>
<path d="M145.531 139.513L148.443 147.041L146.742 147.192L143.831 139.664L145.531 139.513Z" fill="#4D578F"/>
<path d="M132.948 145.87L138.014 152.165L137.03 153.549L131.964 147.247L132.948 145.87Z" fill="#4D578F"/>
<path d="M133.808 165.382L133.801 167.627L127.937 164.238L127.943 161.993L133.808 165.382Z" fill="#4D578F"/>
<path d="M136.947 183.138L137.918 185.652L132.831 186.086L131.86 183.578L136.947 183.138Z" fill="#4D578F"/>
<path d="M146.591 200.687L148.284 202.788L145.338 206.934L143.651 204.833L146.591 200.687Z" fill="#4D578F"/>
<path d="M162.12 214.448L162.099 221.191L160.145 220.061L160.165 213.325L162.12 214.448Z" fill="#4D578F"/>
<path d="M175.715 217.513L178.634 225.041L176.934 225.185L174.022 217.657L175.715 217.513Z" fill="#4D578F"/>
<path d="M185.435 211.148L190.501 217.45L189.516 218.835L184.45 212.526L185.435 211.148Z" fill="#4D578F"/>
<path d="M194.528 200.459L194.521 202.705L188.656 199.316L188.663 197.071L194.528 200.459Z" fill="#4D578F"/>
<path d="M189.634 178.613L190.604 181.12L185.517 181.554L184.547 179.047L189.634 178.613Z" fill="#4D578F"/>
<path d="M177.126 157.765L178.813 159.872L175.867 164.012L174.18 161.911L177.126 157.765Z" fill="#4D578F"/>
<path d="M162.485 186.657L173.705 213.918L173.959 216.838L171.915 214.166L160.695 186.905C161.397 187.091 162.016 186.995 162.485 186.657Z" fill="#4D578F"/>
<path d="M176.259 183.482L178.695 185.169L176.981 186.202L163.448 184.053C163.455 184.143 163.462 184.239 163.462 184.329C163.462 184.473 163.455 184.611 163.442 184.742C163.435 184.797 163.428 184.852 163.421 184.9C163.414 184.976 163.4 185.052 163.393 185.114C163.38 185.183 163.366 185.245 163.345 185.314C163.331 185.362 163.325 185.41 163.311 185.458C163.29 185.534 163.263 185.596 163.228 185.665L163.194 185.761C163.159 185.837 163.125 185.913 163.084 185.982L163.056 186.037C163.008 186.113 162.967 186.181 162.918 186.243C162.836 186.333 162.781 186.402 162.719 186.464C162.643 186.54 162.574 186.588 162.499 186.643C162.024 186.98 161.411 187.07 160.709 186.898C160.557 186.856 160.406 186.808 160.255 186.739L160.179 186.712C160.014 186.643 159.855 186.567 159.69 186.471C157.604 185.265 155.925 182.352 155.932 179.962C155.939 177.565 157.632 176.601 159.711 177.806C159.855 177.889 160 177.979 160.137 178.082C160.179 178.109 160.22 178.144 160.261 178.178C160.365 178.254 160.461 178.33 160.557 178.406C160.606 178.447 160.647 178.481 160.688 178.523C160.785 178.605 160.881 178.702 160.97 178.784L161.081 178.895C161.191 179.005 161.294 179.122 161.397 179.246C161.955 179.9 162.395 180.589 162.733 181.319L176.259 183.482Z" fill="#FF634C"/>
<path d="M160.957 183.275C160.957 182.256 160.241 181.016 159.36 180.5C158.96 180.272 158.602 180.238 158.32 180.348H158.313L158.272 180.376C158.238 180.396 158.203 180.417 158.169 180.438L155.732 181.884C156.021 181.733 156.413 181.76 156.847 182.008C157.735 182.518 158.451 183.764 158.444 184.784C158.444 185.273 158.272 185.617 158.004 185.789L160.461 184.322C160.475 184.315 160.488 184.308 160.502 184.302L160.53 184.281V184.274C160.791 184.095 160.957 183.757 160.957 183.275Z" fill="#4D578F"/>
<path d="M158.444 184.777C158.444 183.757 157.728 182.517 156.847 182.001C156.413 181.753 156.021 181.725 155.732 181.877C155.429 182.035 155.236 182.4 155.236 182.917C155.236 183.936 155.952 185.176 156.833 185.693C157.295 185.961 157.708 185.968 158.004 185.782C158.279 185.61 158.444 185.266 158.444 184.777Z" fill="#5D71AB"/>
<path d="M204.364 157.392C196.682 144.079 186.384 133.238 175.371 126.874C168.597 122.962 162.023 120.979 155.835 120.979C151.299 120.979 147.238 122.039 143.741 124.016L143.734 124.009L143.438 124.188C143.218 124.319 143.004 124.443 142.784 124.581L125.789 134.795C129.389 132.632 133.629 131.468 138.385 131.468C144.574 131.468 151.147 133.452 157.921 137.364C168.934 143.728 179.232 154.562 186.914 167.882C194.603 181.202 198.816 195.514 198.781 208.187C198.747 221.011 194.259 230.805 186.687 235.929L203.146 226.074C203.249 226.012 203.352 225.95 203.455 225.888L203.504 225.86C211.468 220.86 216.197 210.873 216.231 197.697C216.266 185.031 212.053 170.713 204.364 157.392Z" fill="url(#paint9_linear)"/>
<path d="M186.921 167.882C179.239 154.568 168.941 143.727 157.928 137.363C151.154 133.451 144.581 131.468 138.392 131.468C133.636 131.468 129.402 132.632 125.795 134.794L125.431 135.015C125.41 135.029 125.396 135.042 125.376 135.049C117.432 140.056 112.717 150.036 112.676 163.191C112.641 175.864 116.854 190.176 124.536 203.496C132.218 216.817 142.516 227.651 153.536 234.014C160.309 237.927 166.876 239.91 173.065 239.91C177.339 239.91 181.194 238.967 184.553 237.203C184.574 237.196 184.588 237.183 184.608 237.176L186.687 235.922C194.266 230.798 198.747 220.997 198.781 208.18C198.823 195.521 194.61 181.209 186.921 167.882ZM155.608 230.447C134.111 218.029 116.744 187.924 116.813 163.212C116.861 145.745 125.61 135.662 138.324 135.621C143.603 135.607 149.557 137.308 155.863 140.952C177.353 153.37 194.727 183.468 194.658 208.187C194.638 214.971 193.302 220.639 190.934 225.047C184.67 236.673 171.192 239.449 155.608 230.447Z" fill="url(#paint10_linear)"/>
<path d="M216.018 192.58L198.534 202.677C198.699 204.543 198.788 206.382 198.782 208.186C198.768 213.125 198.086 217.615 196.827 221.562L214.104 211.582C215.467 207.511 216.211 202.849 216.224 197.697C216.231 196.023 216.162 194.308 216.018 192.58Z" fill="url(#paint11_linear)"/>
<g opacity="0.2">
<path opacity="0.2" d="M177.724 128.321L159.944 138.59C165.038 141.813 169.953 145.994 174.489 150.912L192.18 140.691C187.678 135.766 182.791 131.572 177.724 128.321Z" fill="white"/>
<path opacity="0.2" d="M197.273 146.765L179.61 156.972C180.856 158.584 182.061 160.251 183.224 161.979L200.874 151.786C199.71 150.057 198.512 148.384 197.273 146.765Z" fill="white"/>
</g>
<path opacity="0.2" d="M38.6772 203.545L101.971 240.186C102.907 240.723 104.057 240.723 104.993 240.186L108.634 238.085C109.44 237.617 109.44 236.453 108.634 235.991L45.485 199.619L35.972 196.884C35.3318 196.699 34.8087 197.401 35.1597 197.966L38.6772 203.545Z" fill="#455A64"/>
<path d="M37.4383 192.932L35.4146 192.581C35.0429 192.519 34.7813 192.925 34.9878 193.235L36.392 195.308C36.2613 194.296 36.6123 193.283 37.4383 192.932Z" fill="#4D578F"/>
<path d="M44.3905 194.15L37.445 192.931C36.619 193.282 36.2679 194.295 36.3987 195.307L40.2604 201.003L44.3905 194.15Z" fill="#E5B7A1"/>
<path d="M105.846 231.109C107.505 230.151 108.855 230.916 108.861 232.831C108.868 234.738 107.526 237.059 105.867 238.024C104.208 238.981 102.859 238.21 102.852 236.302C102.845 234.394 104.187 232.066 105.846 231.109Z" fill="#E5B7A1"/>
<path opacity="0.2" d="M68.8887 208.166L63.9601 205.301L45.1268 194.35C45.1199 194.35 45.113 194.343 45.113 194.343C45.0649 194.316 45.0167 194.288 44.9616 194.268C44.9547 194.261 44.941 194.261 44.9341 194.254C44.9203 194.247 44.8996 194.24 44.8859 194.233C44.8583 194.226 44.8377 194.212 44.8102 194.206C44.7826 194.199 44.7551 194.192 44.7207 194.185C44.7 194.178 44.6863 194.178 44.6656 194.171C44.6587 194.171 44.645 194.164 44.6381 194.164C44.5761 194.157 44.5211 194.144 44.4591 194.144C44.4522 194.144 44.4522 194.144 44.4453 194.144C44.4316 194.144 44.4178 194.144 44.3972 194.144C44.349 194.144 44.3008 194.144 44.2526 194.144C44.2388 194.144 44.2182 194.15 44.2044 194.15C44.1769 194.15 44.1425 194.157 44.1149 194.157C44.0874 194.157 44.0599 194.164 44.0323 194.164C44.0048 194.171 43.9841 194.178 43.9566 194.178C43.9153 194.185 43.874 194.192 43.8327 194.206C43.8121 194.212 43.7914 194.212 43.7639 194.219C43.7157 194.233 43.6606 194.247 43.6124 194.268C43.6055 194.268 43.6055 194.268 43.5987 194.274C43.5367 194.295 43.4748 194.316 43.4128 194.343C43.3853 194.35 43.3646 194.364 43.3371 194.378C43.3164 194.385 43.2889 194.398 43.2683 194.412C43.1788 194.453 43.0824 194.502 42.9929 194.557C42.8965 194.612 42.8002 194.674 42.7038 194.736C42.6763 194.757 42.6419 194.777 42.6143 194.805C42.5524 194.853 42.4904 194.894 42.4285 194.949C42.394 194.977 42.3596 195.004 42.3252 195.032C42.2701 195.08 42.2082 195.128 42.1531 195.184C42.1187 195.211 42.0843 195.246 42.0499 195.28C42.0292 195.301 42.0086 195.321 41.9879 195.342C41.9673 195.363 41.9466 195.39 41.926 195.411C41.8571 195.48 41.7883 195.549 41.7263 195.624C41.7057 195.645 41.685 195.666 41.6644 195.693C41.6437 195.714 41.63 195.735 41.6162 195.755C41.5749 195.803 41.5405 195.852 41.4992 195.9C41.4717 195.934 41.4441 195.962 41.4235 195.996C41.4028 196.024 41.3822 196.051 41.3615 196.079C41.334 196.113 41.3065 196.155 41.2789 196.189C41.2583 196.217 41.2376 196.244 41.2238 196.265C41.1894 196.306 41.1619 196.354 41.1344 196.403C41.1137 196.43 41.0931 196.458 41.0793 196.492C41.0724 196.506 41.0655 196.52 41.0518 196.527C40.9967 196.609 40.9485 196.692 40.8934 196.781C40.8934 196.788 40.8866 196.795 40.8866 196.795C40.8797 196.809 40.8659 196.83 40.859 196.843C40.8246 196.905 40.7902 196.967 40.7558 197.029C40.742 197.057 40.7282 197.084 40.7145 197.119C40.7007 197.146 40.6869 197.181 40.6663 197.208C40.6525 197.236 40.6387 197.264 40.625 197.291C40.5906 197.36 40.5561 197.429 40.5286 197.505C40.5217 197.518 40.5148 197.532 40.508 197.546C40.508 197.553 40.508 197.553 40.5011 197.56C40.4598 197.649 40.4254 197.739 40.3909 197.828C40.3841 197.842 40.3772 197.863 40.3703 197.877C40.3565 197.911 40.3496 197.945 40.3359 197.973C40.3221 198.021 40.3015 198.062 40.2877 198.111C40.2739 198.145 40.267 198.18 40.2533 198.214C40.2395 198.255 40.2257 198.297 40.212 198.338C40.2051 198.366 40.1982 198.386 40.1913 198.414C40.1776 198.462 40.1707 198.503 40.1569 198.551C40.1431 198.6 40.1294 198.655 40.1156 198.703C40.1087 198.724 40.1087 198.737 40.1018 198.758C40.095 198.793 40.0881 198.834 40.0812 198.868C40.0674 198.951 40.0537 199.027 40.0399 199.109C40.0399 199.13 40.033 199.151 40.0261 199.178C40.0192 199.226 40.0192 199.275 40.0123 199.33C40.0123 199.364 40.0055 199.399 40.0055 199.433C39.9986 199.543 39.9917 199.653 39.9917 199.764C39.9917 200.714 40.329 201.375 40.8659 201.692L59.8438 212.726L64.4833 215.426L103.726 238.244C103.189 237.927 102.852 237.266 102.852 236.315C102.852 236.205 102.859 236.095 102.866 235.985C102.866 235.95 102.873 235.916 102.873 235.881C102.88 235.812 102.886 235.737 102.9 235.668C102.914 235.585 102.928 235.509 102.941 235.427C102.948 235.372 102.962 235.317 102.976 235.261C102.99 235.213 103.003 235.158 103.017 235.11C103.038 235.041 103.052 234.965 103.072 234.896C103.086 234.855 103.1 234.814 103.107 234.772C103.134 234.69 103.162 234.614 103.189 234.531C103.203 234.497 103.21 234.462 103.224 234.435C103.265 234.325 103.306 234.215 103.355 234.104C103.361 234.091 103.368 234.077 103.375 234.063C103.416 233.967 103.465 233.87 103.513 233.774C103.527 233.746 103.54 233.712 103.561 233.684C103.609 233.595 103.657 233.505 103.706 233.416C103.712 233.402 103.726 233.381 103.733 233.367C103.795 233.264 103.857 233.161 103.919 233.057C103.94 233.03 103.96 233.002 103.974 232.968C104.022 232.892 104.07 232.823 104.125 232.754C104.153 232.72 104.181 232.679 104.208 232.644C104.249 232.582 104.298 232.527 104.346 232.472C104.387 232.424 104.421 232.376 104.463 232.327C104.497 232.286 104.538 232.238 104.58 232.197C104.649 232.121 104.711 232.052 104.779 231.983C104.821 231.942 104.862 231.893 104.91 231.852C104.945 231.818 104.979 231.79 105.013 231.756C105.069 231.708 105.124 231.652 105.186 231.604C105.22 231.577 105.254 231.549 105.289 231.522C105.351 231.473 105.413 231.425 105.475 231.377C105.502 231.356 105.537 231.329 105.564 231.308C105.66 231.246 105.757 231.184 105.853 231.129C105.95 231.074 106.039 231.026 106.129 230.984C106.149 230.971 106.177 230.964 106.197 230.95C106.287 230.909 106.369 230.874 106.459 230.847C106.466 230.847 106.466 230.847 106.473 230.84C106.548 230.812 106.617 230.798 106.693 230.778C106.734 230.771 106.776 230.757 106.817 230.75C106.872 230.743 106.92 230.73 106.975 230.723C107.003 230.716 107.037 230.716 107.065 230.716C107.127 230.709 107.196 230.709 107.257 230.709C107.271 230.709 107.285 230.709 107.299 230.709C107.374 230.716 107.45 230.723 107.519 230.736C107.54 230.736 107.553 230.743 107.574 230.75C107.629 230.764 107.684 230.778 107.739 230.798C107.753 230.805 107.774 230.812 107.787 230.819C107.856 230.847 107.918 230.874 107.987 230.915L68.8887 208.166Z" fill="white"/>
<path d="M105.853 233.574C106.328 233.299 106.72 233.519 106.72 234.07C106.72 234.621 106.335 235.282 105.86 235.565C105.385 235.84 104.993 235.62 104.993 235.069C104.993 234.518 105.371 233.85 105.853 233.574Z" fill="#4D578F"/>
<defs>
<linearGradient id="paint0_linear" x1="335.608" y1="226.967" x2="-235.708" y2="209.44" gradientUnits="userSpaceOnUse">
<stop stop-color="#A6A6E7"/>
<stop offset="1" stop-color="#EEEFFF"/>
</linearGradient>
<linearGradient id="paint1_linear" x1="252.374" y1="275.026" x2="120.847" y2="134.456" gradientUnits="userSpaceOnUse">
<stop stop-color="#E8EDFE"/>
<stop offset="1" stop-color="#EEF4FF"/>
</linearGradient>
<linearGradient id="paint2_linear" x1="88.4131" y1="39.9865" x2="216.116" y2="203.304" gradientUnits="userSpaceOnUse">
<stop stop-color="#17BFA6"/>
<stop offset="1" stop-color="#17ECC7"/>
</linearGradient>
<linearGradient id="paint3_linear" x1="184.671" y1="234.545" x2="32.6348" y2="155.133" gradientUnits="userSpaceOnUse">
<stop stop-color="#17D6A6"/>
<stop offset="1" stop-color="#17ECC7"/>
</linearGradient>
<linearGradient id="paint4_linear" x1="87.5614" y1="27.6492" x2="130.624" y2="132.729" gradientUnits="userSpaceOnUse">
<stop stop-color="#17BFA6"/>
<stop offset="1" stop-color="#17ECC7"/>
</linearGradient>
<linearGradient id="paint5_linear" x1="173.944" y1="117.812" x2="88.4125" y2="31.296" gradientUnits="userSpaceOnUse">
<stop stop-color="#17D6A6"/>
<stop offset="1" stop-color="#17ECC7"/>
</linearGradient>
<linearGradient id="paint6_linear" x1="294.938" y1="408.62" x2="129.375" y2="361.882" gradientUnits="userSpaceOnUse">
<stop stop-color="#17D6A6"/>
<stop offset="1" stop-color="#17ECC7"/>
</linearGradient>
<linearGradient id="paint7_linear" x1="279.764" y1="114.512" x2="311.489" y2="117.41" gradientUnits="userSpaceOnUse">
<stop stop-color="#17BFA6"/>
<stop offset="1" stop-color="#17ECC7"/>
</linearGradient>
<linearGradient id="paint8_linear" x1="126.165" y1="164.173" x2="216.657" y2="283.41" gradientUnits="userSpaceOnUse">
<stop stop-color="#17BFA6"/>
<stop offset="1" stop-color="#17ECC7"/>
</linearGradient>
<linearGradient id="paint9_linear" x1="222.214" y1="313.991" x2="92.3568" y2="242.645" gradientUnits="userSpaceOnUse">
<stop stop-color="#17D6A6"/>
<stop offset="1" stop-color="#17ECC7"/>
</linearGradient>
<linearGradient id="paint10_linear" x1="204.478" y1="313.552" x2="81.3738" y2="245.295" gradientUnits="userSpaceOnUse">
<stop stop-color="#17D6A6"/>
<stop offset="1" stop-color="#17ECC7"/>
</linearGradient>
<linearGradient id="paint11_linear" x1="199.159" y1="200.841" x2="226.129" y2="231.448" gradientUnits="userSpaceOnUse">
<stop stop-color="#17BFA6"/>
<stop offset="1" stop-color="#17ECC7"/>
</linearGradient>
</defs>
</svg>
