<svg width="109" height="109" viewBox="0 0 109 109" fill="none" xmlns="http://www.w3.org/2000/svg">
<path d="M17.0312 107.297C25.4967 107.297 32.3594 100.434 32.3594 91.9688C32.3594 83.5033 25.4967 76.6406 17.0312 76.6406C8.56576 76.6406 1.70312 83.5033 1.70312 91.9688C1.70312 100.434 8.56576 107.297 17.0312 107.297Z" fill="white"/>
<path d="M54.5 107.297C62.9655 107.297 69.8281 100.434 69.8281 91.9688C69.8281 83.5033 62.9655 76.6406 54.5 76.6406C46.0345 76.6406 39.1719 83.5033 39.1719 91.9688C39.1719 100.434 46.0345 107.297 54.5 107.297Z" fill="white"/>
<path d="M91.9688 39.1719C91.9688 42.9358 88.9202 45.9844 85.1562 45.9844H23.8438C20.0798 45.9844 17.0312 42.9358 17.0312 39.1719V8.51562C17.0312 4.75172 20.0798 1.70312 23.8438 1.70312H85.1562C88.9202 1.70312 91.9688 4.75172 91.9688 8.51562V39.1719Z" fill="white"/>
<path d="M91.9688 39.1719C91.9688 42.9358 88.9202 45.9844 85.1562 45.9844H23.8438C20.0798 45.9844 17.0312 42.9358 17.0312 39.1719V8.51562C17.0312 4.75172 20.0798 1.70312 23.8438 1.70312H85.1562C88.9202 1.70312 91.9688 4.75172 91.9688 8.51562V39.1719Z" stroke="#4D5152" stroke-width="2" stroke-miterlimit="10" stroke-linejoin="round"/>
<path d="M54.5 51.0938V71.5312" stroke="#4D5152" stroke-width="2" stroke-miterlimit="10" stroke-linejoin="round"/>
<path d="M15.3281 61.3125H93.6719" stroke="#4D5152" stroke-width="2" stroke-miterlimit="10" stroke-linejoin="round"/>
<path d="M17.0312 71.5312V61.3125" stroke="#4D5152" stroke-width="2" stroke-miterlimit="10" stroke-linejoin="round"/>
<path d="M91.9688 71.5312V61.3125" stroke="#4D5152" stroke-width="2" stroke-miterlimit="10" stroke-linejoin="round"/>
<path d="M86.8594 37.4688C86.8594 39.3422 85.3266 40.875 83.4531 40.875H25.5469C23.6734 40.875 22.1406 39.3422 22.1406 37.4688V13.625C22.1406 11.7516 23.6734 6.8125 25.5469 6.8125H83.4531C85.3266 6.8125 86.8594 11.7516 86.8594 13.625V37.4688Z" fill="url(#paint0_linear)"/>
<path d="M52.7969 23.8438H56.2031" stroke="#4D5152" stroke-width="2" stroke-miterlimit="10" stroke-linejoin="round"/>
<path d="M59.6094 23.8438H63.0156" stroke="#4D5152" stroke-width="2" stroke-miterlimit="10" stroke-linejoin="round"/>
<path d="M45.9844 23.8438H49.3906" stroke="#4D5152" stroke-width="2" stroke-miterlimit="10" stroke-linejoin="round"/>
<path d="M54.5 107.297C62.9655 107.297 69.8281 100.434 69.8281 91.9688C69.8281 83.5033 62.9655 76.6406 54.5 76.6406C46.0345 76.6406 39.1719 83.5033 39.1719 91.9688C39.1719 100.434 46.0345 107.297 54.5 107.297Z" stroke="#4D5152" stroke-width="2" stroke-miterlimit="10" stroke-linejoin="round"/>
<path d="M17.0312 107.297C25.4967 107.297 32.3594 100.434 32.3594 91.9688C32.3594 83.5033 25.4967 76.6406 17.0312 76.6406C8.56576 76.6406 1.70312 83.5033 1.70312 91.9688C1.70312 100.434 8.56576 107.297 17.0312 107.297Z" stroke="#4D5152" stroke-width="2" stroke-miterlimit="10" stroke-linejoin="round"/>
<path d="M91.9688 107.297C100.434 107.297 107.297 100.434 107.297 91.9688C107.297 83.5033 100.434 76.6406 91.9688 76.6406C83.5033 76.6406 76.6406 83.5033 76.6406 91.9688C76.6406 100.434 83.5033 107.297 91.9688 107.297Z" fill="white"/>
<path d="M91.9688 107.297C100.434 107.297 107.297 100.434 107.297 91.9688C107.297 83.5033 100.434 76.6406 91.9688 76.6406C83.5033 76.6406 76.6406 83.5033 76.6406 91.9688C76.6406 100.434 83.5033 107.297 91.9688 107.297Z" stroke="#4D5152" stroke-width="2" stroke-miterlimit="10" stroke-linejoin="round"/>
<defs>
<linearGradient id="paint0_linear" x1="86.8594" y1="40.875" x2="76.9367" y2="-7.50688" gradientUnits="userSpaceOnUse">
<stop stop-color="#36D4BE"/>
<stop offset="1" stop-color="#F2BB31"/>
</linearGradient>
</defs>
</svg>
