<svg width="90" height="86" viewBox="0 0 90 86" fill="none" xmlns="http://www.w3.org/2000/svg">
<path d="M87.3529 2.6875H23.8235V18.8125H87.3529V2.6875Z" fill="url(#paint0_linear)"/>
<path d="M45 34.9375H23.8235V51.0625H45V34.9375Z" fill="#FFB957"/>
<path d="M66.1765 34.9375H45V51.0625H66.1765V34.9375Z" fill="#FFB957"/>
<path d="M87.353 51.0625H66.1765V67.1875H87.353V51.0625Z" fill="#FFB957"/>
<path d="M66.1765 67.1875H45V83.3125H66.1765V67.1875Z" fill="#FFB957"/>
<path d="M87.3528 2.6875H2.64697V83.3125H87.3528V2.6875Z" stroke="#4D5152" stroke-width="2" stroke-miterlimit="10"/>
<path d="M2.64697 18.8125H87.3528" stroke="#4D5152" stroke-width="2" stroke-miterlimit="10"/>
<path d="M23.8235 2.6875V83.3125" stroke="#4D5152" stroke-width="2" stroke-miterlimit="10"/>
<path d="M45 3.58334V82.4167" stroke="#4D5152" stroke-width="2" stroke-miterlimit="10"/>
<path d="M66.5999 3.58334V82.4167" stroke="#4D5152" stroke-width="2" stroke-miterlimit="10"/>
<path d="M1.7998 35.8333L88.1998 35.8333" stroke="#4D5152" stroke-width="2" stroke-miterlimit="10"/>
<path d="M1.7998 51.9583L88.1998 51.9583" stroke="#4D5152" stroke-width="2" stroke-miterlimit="10"/>
<path d="M1.7998 68.0833L88.1998 68.0833" stroke="#4D5152" stroke-width="2" stroke-miterlimit="10"/>
<defs>
<linearGradient id="paint0_linear" x1="87.3529" y1="18.8125" x2="85.0152" y2="-4.82338" gradientUnits="userSpaceOnUse">
<stop stop-color="#36D4BE"/>
<stop offset="1" stop-color="#F2BB31"/>
</linearGradient>
</defs>
</svg>
