<svg width="327" height="331" viewBox="0 0 327 331" fill="none" xmlns="http://www.w3.org/2000/svg">
<path d="M251.707 250.822C262.436 257.024 262.486 267.089 251.832 273.291L160.7 326.346C150.046 332.548 132.71 332.548 121.989 326.346L30.2502 273.291C19.5214 267.089 19.4633 257.033 30.1173 250.831L121.25 197.776C131.904 191.574 149.239 191.574 159.968 197.776L251.707 250.822Z" fill="#EEEFFF"/>
<path d="M262.918 239.259L162.669 297.617C150.951 304.443 131.879 304.435 120.086 297.617L19.1889 239.259C13.2469 235.821 10.2801 231.317 10.2967 226.813L10.2718 235.97C10.2552 240.474 13.222 244.978 19.164 248.416L120.061 306.774C131.862 313.601 150.926 313.601 162.644 306.774L262.893 248.416C268.719 245.028 271.627 240.591 271.644 236.145L271.669 226.988C271.652 231.433 268.744 235.871 262.918 239.259Z" fill="url(#paint0_linear)"/>
<path d="M262.777 214.55C274.578 221.377 274.636 232.441 262.919 239.267L162.67 297.625C150.944 304.452 131.879 304.443 120.087 297.625L19.1895 239.267C7.38869 232.441 7.32221 221.377 19.0483 214.559L119.297 156.201C131.023 149.374 150.088 149.374 161.888 156.201L262.777 214.55Z" fill="url(#paint1_linear)"/>
<g opacity="0.32">
<g opacity="0.32">
<g opacity="0.32">
<g opacity="0.32">
<path opacity="0.32" d="M122.156 162.561L123.161 161.979L140.68 172.11L139.674 172.693L122.156 162.561Z" fill="url(#paint2_radial)"/>
</g>
<g opacity="0.32">
<path opacity="0.32" d="M140.804 194.962L141.81 194.379L159.545 204.636L158.539 205.218L140.804 194.962Z" fill="url(#paint3_radial)"/>
</g>
<g opacity="0.32">
<path opacity="0.32" d="M159.553 205.801L160.558 205.218L178.285 215.475L177.279 216.057L159.553 205.801Z" fill="url(#paint4_radial)"/>
</g>
<g opacity="0.32">
<path opacity="0.32" d="M122.181 205.801L123.186 205.218L140.921 215.475L139.915 216.057L122.181 205.801Z" fill="url(#paint5_radial)"/>
</g>
<g opacity="0.32">
<path opacity="0.32" d="M140.929 216.64L141.935 216.058L159.661 226.314L158.655 226.897L140.929 216.64Z" fill="url(#paint6_radial)"/>
</g>
<g opacity="0.32">
<path opacity="0.32" d="M159.669 227.488L160.675 226.896L178.409 237.153L177.404 237.744L159.669 227.488Z" fill="url(#paint7_radial)"/>
</g>
<g opacity="0.32">
<path opacity="0.32" d="M122.289 227.496L123.311 226.896L141.045 237.153L140.023 237.752L122.289 227.496Z" fill="url(#paint8_radial)"/>
</g>
</g>
<g opacity="0.32">
<path opacity="0.32" d="M140.68 173.276L141.685 172.693L159.42 182.949L158.414 183.532L140.68 173.276Z" fill="url(#paint9_radial)"/>
</g>
<g opacity="0.32">
<path opacity="0.32" d="M122.064 184.123L123.07 183.532L140.796 193.788L139.79 194.379L122.064 184.123Z" fill="url(#paint10_radial)"/>
</g>
</g>
<g opacity="0.32">
<g opacity="0.32">
<path opacity="0.32" d="M143.871 170.82C145.649 171.852 145.649 173.525 143.896 174.541C142.126 175.573 139.242 175.582 137.463 174.549C135.693 173.525 135.685 171.844 137.455 170.82C139.209 169.796 142.101 169.796 143.871 170.82Z" fill="url(#paint11_radial)"/>
</g>
<g opacity="0.32">
<path opacity="0.32" d="M162.619 181.659C164.398 182.691 164.398 184.356 162.644 185.38C160.874 186.412 157.99 186.42 156.212 185.388C154.442 184.364 154.433 182.683 156.204 181.659C157.957 180.635 160.849 180.635 162.619 181.659Z" fill="url(#paint12_radial)"/>
</g>
<g opacity="0.32">
<path opacity="0.32" d="M125.239 181.667C127.017 182.699 127.025 184.364 125.264 185.388C123.494 186.421 120.626 186.421 118.848 185.388C117.078 184.364 117.061 182.691 118.823 181.667C120.585 180.635 123.469 180.643 125.239 181.667Z" fill="url(#paint13_radial)"/>
</g>
<g opacity="0.32">
<path opacity="0.32" d="M143.979 192.506C145.757 193.538 145.765 195.203 144.004 196.227C142.234 197.26 139.366 197.26 137.588 196.227C135.818 195.203 135.801 193.53 137.563 192.506C139.333 191.482 142.217 191.49 143.979 192.506Z" fill="url(#paint14_radial)"/>
</g>
<g opacity="0.32">
<path opacity="0.32" d="M162.735 203.353C164.506 204.377 164.522 206.051 162.76 207.075C160.99 208.107 158.107 208.099 156.345 207.075C154.566 206.042 154.558 204.377 156.32 203.353C158.09 202.329 160.957 202.329 162.735 203.353Z" fill="url(#paint15_radial)"/>
</g>
<g opacity="0.32">
<path opacity="0.32" d="M125.496 225.04C127.267 226.064 127.283 227.738 125.521 228.762C123.751 229.794 120.868 229.786 119.106 228.762C117.327 227.729 117.319 226.064 119.081 225.04C120.843 224.008 123.71 224.008 125.496 225.04Z" fill="url(#paint16_radial)"/>
</g>
<g opacity="0.32">
<path opacity="0.32" d="M144.236 235.879C146.015 236.912 146.023 238.577 144.261 239.601C142.491 240.633 139.624 240.633 137.846 239.601C136.067 238.568 136.059 236.903 137.821 235.879C139.591 234.855 142.458 234.855 144.236 235.879Z" fill="url(#paint17_radial)"/>
</g>
<g opacity="0.32">
<path opacity="0.32" d="M181.725 257.566C183.503 258.598 183.512 260.263 181.75 261.287C179.98 262.319 177.113 262.319 175.334 261.287C173.556 260.254 173.547 258.589 175.309 257.566C177.071 256.542 179.947 256.533 181.725 257.566Z" fill="url(#paint18_radial)"/>
</g>
<g opacity="0.32">
<path opacity="0.32" d="M125.355 203.354C127.134 204.386 127.142 206.051 125.38 207.075C123.61 208.107 120.743 208.107 118.964 207.075C117.194 206.051 117.178 204.378 118.94 203.354C120.71 202.321 123.593 202.33 125.355 203.354Z" fill="url(#paint19_radial)"/>
</g>
<g opacity="0.32">
<path opacity="0.32" d="M144.112 214.201C145.882 215.225 145.898 216.899 144.137 217.923C142.366 218.955 139.483 218.947 137.721 217.923C135.943 216.89 135.934 215.225 137.696 214.201C139.458 213.177 142.333 213.169 144.112 214.201Z" fill="url(#paint20_radial)"/>
</g>
<g opacity="0.32">
<path opacity="0.32" d="M162.86 225.04C164.639 226.072 164.647 227.737 162.885 228.761C161.115 229.794 158.248 229.794 156.469 228.761C154.691 227.729 154.683 226.064 156.445 225.04C158.206 224.016 161.082 224.008 162.86 225.04Z" fill="url(#paint21_radial)"/>
</g>
<g opacity="0.32">
<path opacity="0.32" d="M181.609 235.879C183.387 236.912 183.395 238.577 181.633 239.601C179.863 240.633 176.996 240.633 175.218 239.601C173.439 238.568 173.431 236.903 175.193 235.879C176.955 234.855 179.822 234.855 181.609 235.879Z" fill="url(#paint22_radial)"/>
</g>
</g>
</g>
<g opacity="0.56">
<path opacity="0.56" d="M162.071 211.412C166.691 214.084 169.467 217.389 170.34 220.719C171.819 221.236 173.207 221.86 174.487 222.593C182.49 227.221 182.88 234.522 175.351 238.901C167.822 243.28 155.24 243.08 147.237 238.452C145.957 237.711 144.885 236.903 143.987 236.054C138.245 235.555 132.544 233.956 127.923 231.284C117.352 225.173 116.43 215.766 125.862 210.28C135.294 204.794 151.5 205.302 162.071 211.412Z" fill="#ACACE9"/>
</g>
<path d="M186.221 109.281L186.728 108.108C186.728 108.108 186.944 104.37 186.911 103.837C186.869 103.312 188.39 101.98 188.564 101.822C188.739 101.664 189.711 100.574 189.711 100.574C189.711 100.574 191.955 97.3518 192.603 96.9022C193.243 96.4527 193.476 97.2769 192.927 98.5589C192.379 99.8409 191.855 101.897 191.855 101.897C191.855 101.897 194.407 103.246 194.698 103.829C194.988 104.411 194.598 107.575 194.324 107.841C194.049 108.108 193.759 107.616 193.759 107.616C193.759 107.616 193.476 109.157 192.188 109.473L191.108 111.871L186.221 109.281Z" fill="url(#paint23_linear)"/>
<path d="M130.399 137.12L133.167 140.375L137.713 136.404L133.458 132.492L130.399 137.12Z" fill="url(#paint24_linear)"/>
<path d="M133.017 97.6182C133.017 97.6182 130.366 98.5506 126.269 103.529C122.172 108.516 114.56 117.215 114.759 121.319C114.959 125.424 130.026 138.552 131.206 138.752C132.377 138.943 135.569 134.847 135.153 132.891C134.738 130.935 126.568 121.619 126.278 121.228C125.987 120.836 135.743 112.645 135.743 112.645L133.017 97.6182Z" fill="#41D4CC"/>
<path d="M148.483 229.685C148.483 229.685 147.669 233.431 147.752 235.896C147.835 238.36 150.162 240.067 152.863 240.258C155.572 240.449 157.691 238.002 163.816 234.93C170.223 231.717 172.484 229.644 171.744 225.39C171.162 222.018 163.409 223.625 157.675 225.023C152.572 226.255 148.483 229.685 148.483 229.685Z" fill="#39335E"/>
<path d="M132.228 217.93C132.228 217.93 130.832 222.351 130.915 224.815C130.998 227.279 132.386 229.835 135.095 230.018C137.804 230.21 141.037 229.452 143.239 222.95C144.444 219.395 148.865 213.701 144.012 210.771C141.087 209.006 140.721 214.95 134.987 216.349C129.868 217.589 132.228 217.93 132.228 217.93Z" fill="#39335E"/>
<path d="M149.306 177.738C148.732 179.22 144.494 207.2 142.799 219.046C141.885 223.55 131.347 224.283 130.89 220.595C130.89 220.595 129.967 193.389 132.352 181.492L132.402 162.953C131.704 159.073 131.422 150.89 132.452 145.462L155.248 152.413L149.306 177.738Z" fill="#39335E"/>
<path d="M140.513 153.67C141.07 156.143 141.419 160.921 143.572 164.21C143.912 164.718 144.212 165.242 144.502 165.767C144.561 166.008 145.425 169.238 146.489 173.567C147.569 177.896 146.671 186.845 147.594 191.466C147.087 196.977 147.627 227.554 147.594 230.11C148.525 233.573 160.201 234.131 161.406 228.279C161.406 228.279 161.481 199.058 162.993 191.382C163.284 189.917 163.425 188.435 163.525 186.954C163.808 182.258 164.315 173.692 164.472 170.112C164.772 163.144 164.979 154.27 164.738 151.664L150.154 154.869L140.513 153.67Z" fill="#39335E"/>
<path d="M137.314 153.504C137.314 153.504 141.511 157.774 148.433 157.483C155.364 157.192 141.02 141.974 141.02 141.974L137.314 153.504Z" fill="url(#paint25_linear)"/>
<path d="M165.32 151.647C165.32 153.604 164.481 159.731 156.802 161.088C149.123 162.462 142.292 158.357 142.292 158.357L141.32 145.845L139.142 156.284C139.142 156.284 132.544 151.906 131.821 149.949C131.106 147.993 131.231 144.213 132.743 136.521C134.256 128.829 133.059 121.353 130.782 111.896C128.505 102.455 130.981 98.0848 133.325 97.5187C135.668 96.9442 140.904 98.6842 140.904 98.6842C140.904 98.6842 149.588 100.091 151.292 101.698C153.004 103.313 160.425 108.841 160.425 108.841L164.298 117.24L163.791 123.559L163.442 128.038C163.159 131.643 163.193 135.264 163.533 138.86C163.658 140.151 163.816 141.449 164.015 142.74C164.647 146.811 165.32 151.165 165.32 151.647Z" fill="#41D4CC"/>
<path d="M159.744 83.3745C159.744 83.3745 159.926 90.6255 159.403 94.4883C158.879 98.3511 154.417 97.9099 154.417 97.9099L154.026 104.312C154.026 104.312 146.837 104.853 144.203 100.399L144.66 95.8286C144.66 95.8286 138.984 89.9429 140.738 83.6492C142.491 77.3639 147.76 75.599 151.658 75.6323C155.563 75.6739 159.594 77.9799 159.744 83.3745Z" fill="url(#paint26_linear)"/>
<path d="M159.819 84.0154C159.819 84.0154 159.636 86.0384 158.289 86.5046C156.951 86.9708 156.976 86.8709 156.976 86.8709V89.5099L155.564 89.9927C155.564 89.9927 155.414 87.7034 154.392 87.5036C153.37 87.3121 153.004 90.5588 153.735 91.4413C154.467 92.3237 155.223 92.074 155.223 92.074C155.223 92.074 153.843 97.3853 151.109 98.326C148.375 99.2667 145.142 97.7266 143.804 96.5861C142.965 95.8701 142.599 95.0543 141.585 92.9398C140.979 91.691 139.524 89.6431 139.308 87.8282C138.718 82.9581 140.746 82.4836 140.746 82.4836C140.746 82.4836 139.807 79.6781 142.957 76.4231C146.106 73.168 151.566 72.7434 154.691 74.5333C157.816 76.3231 160.384 77.0724 161.522 76.7144C162.661 76.3565 162.594 79.0621 161.265 79.8113C161.265 79.8113 163.575 79.778 163.375 80.5605C163.168 81.3431 162.478 84.2985 159.819 84.0154Z" fill="#39335E"/>
<path d="M155.913 105.402C155.913 105.402 155.248 102.03 155.007 101.556C154.766 101.073 153.835 100.832 149.572 100.099C145.308 99.3664 144.112 97.4683 143.33 97.1936C142.549 96.9189 140.896 98.6838 140.896 98.6838C140.896 98.6838 142.674 102.813 148.408 103.987C154.126 105.161 155.913 105.402 155.913 105.402Z" fill="url(#paint27_linear)"/>
<path opacity="0.29" d="M141.743 143.414C141.735 143.414 141.727 143.414 141.727 143.414C141.61 143.406 141.527 143.306 141.535 143.189C141.544 143.064 142.632 130.569 141.768 119.28C140.896 107.925 142.699 103.163 142.774 102.963C142.815 102.855 142.94 102.805 143.04 102.847C143.148 102.888 143.198 103.013 143.156 103.113C143.139 103.163 141.311 108.008 142.175 119.247C143.048 130.569 141.951 143.098 141.943 143.223C141.943 143.339 141.851 143.414 141.743 143.414Z" fill="#3D41C1"/>
<path opacity="0.29" d="M163.525 138.86C163.484 138.827 163.425 138.785 163.384 138.752C153.943 131.559 154.832 117.948 154.832 117.948L163.791 123.567L163.442 128.046C163.151 131.642 163.184 135.264 163.525 138.86Z" fill="#17BCB2"/>
<path d="M185.589 109.948C185.589 109.948 186.238 108.741 186.404 108.616C186.57 108.483 188.257 108.599 189.869 109.548C191.481 110.489 191.789 111.08 191.839 111.23C191.889 111.38 191.398 113.12 191.398 113.12L185.589 109.948Z" fill="url(#paint28_linear)"/>
<path d="M176.348 123.068C176.348 123.068 162.794 109.065 159.403 108.432C156.012 107.8 153.577 112.528 154.832 117.948C156.087 123.367 163.176 127.996 167.531 131.576C171.885 135.156 175.725 136.854 178.974 136.463C182.224 136.071 191.972 114.601 191.598 112.995C191.083 110.772 185.556 108.408 184.841 110.114L176.348 123.068Z" fill="#41D4CC"/>
<path d="M190.659 113.344C190.659 113.585 190.459 113.785 190.218 113.785C189.977 113.785 189.778 113.585 189.778 113.344C189.778 113.103 189.977 112.903 190.218 112.903C190.459 112.911 190.659 113.103 190.659 113.344Z" fill="url(#paint29_linear)"/>
<path d="M190.218 114.885C190.218 115.126 190.019 115.326 189.778 115.326C189.537 115.326 189.337 115.126 189.337 114.885C189.337 114.643 189.537 114.443 189.778 114.443C190.027 114.443 190.218 114.643 190.218 114.885Z" fill="url(#paint30_linear)"/>
<g opacity="0.35">
<path opacity="0.35" d="M257.766 4.59526L261.962 2.15605C265.785 -0.066714 271.071 0.249634 276.913 3.62124L272.716 6.06045C266.874 2.68052 261.58 2.3725 257.766 4.59526Z" fill="#C0C0ED"/>
<path opacity="0.35" d="M291.714 53.4376L287.517 55.8768C291.29 53.679 293.625 49.0087 293.65 42.3738C293.692 29.0205 284.318 12.7619 272.716 6.052L276.913 3.61279C288.514 10.3227 297.88 26.5813 297.847 39.9345C297.822 46.5779 295.487 51.2482 291.714 53.4376Z" fill="#C0C0ED"/>
<path opacity="0.35" d="M272.716 6.06041C284.318 12.7703 293.684 29.0289 293.65 42.3822C293.609 55.7354 284.176 61.13 272.583 54.42C260.974 47.7101 251.608 31.4432 251.641 18.09C251.674 4.73675 261.107 -0.649494 272.716 6.06041Z" fill="#C0C0ED"/>
<path opacity="0.35" d="M289.528 40.0012C289.52 45.6289 287.434 49.4916 284.11 51.1316C281.085 52.6135 277.038 52.2555 272.592 49.6831C263.251 44.2885 255.713 31.2017 255.746 20.4625C255.763 14.0606 258.464 9.92315 262.644 8.79095C262.644 8.79095 262.652 8.78263 262.661 8.78263C265.469 8.01673 268.943 8.61613 272.7 10.7889C282.032 16.1835 289.57 29.2703 289.528 40.0012Z" fill="#C0C0ED"/>
<path opacity="0.35" d="M289.528 40.0012C289.52 45.6289 287.434 49.4916 284.11 51.1316C281.293 51.9308 277.786 51.3481 273.996 49.1503C264.655 43.7557 257.126 30.6606 257.159 19.9297C257.167 14.2771 259.287 10.3977 262.636 8.79095C262.636 8.79095 262.644 8.78263 262.652 8.78263C265.461 8.01673 268.935 8.61613 272.691 10.7889C282.032 16.1835 289.57 29.2703 289.528 40.0012Z" fill="#C0C0ED"/>
<path opacity="0.35" d="M273.398 12.0375C273.572 12.1457 273.713 12.4038 273.713 12.6119L273.705 15.4924C273.705 15.7005 273.564 15.7921 273.389 15.6838C273.215 15.5839 273.082 15.3175 273.082 15.1094L273.09 12.229C273.082 12.0125 273.223 11.9293 273.398 12.0375Z" fill="#C0C0ED"/>
<path opacity="0.35" d="M266.035 9.94839C266.143 10.015 266.243 10.1482 266.301 10.298L267.481 13.5198C267.572 13.7529 267.514 13.9527 267.364 13.9693C267.315 13.9777 267.265 13.961 267.207 13.9277C267.098 13.8611 266.99 13.7279 266.932 13.5697L265.752 10.348C265.669 10.1149 265.719 9.91509 265.869 9.89844C265.927 9.89844 265.985 9.91509 266.035 9.94839Z" fill="#C0C0ED"/>
<path opacity="0.35" d="M260.633 13.1947C260.683 13.228 260.741 13.2779 260.791 13.3362L262.852 16.0335C262.993 16.2249 263.051 16.4997 262.96 16.6245C262.902 16.7161 262.794 16.7161 262.686 16.6495C262.636 16.6162 262.578 16.5663 262.528 16.508L260.467 13.8107C260.317 13.6109 260.267 13.3445 260.35 13.2196C260.425 13.1281 260.525 13.1281 260.633 13.1947Z" fill="#C0C0ED"/>
<path opacity="0.35" d="M261.015 22.3522C261.19 22.4521 261.323 22.7102 261.323 22.9267C261.323 23.1348 261.181 23.218 261.007 23.1181L258.63 21.6696C258.455 21.5614 258.314 21.3033 258.314 21.1035C258.314 20.8871 258.455 20.8038 258.63 20.912L261.015 22.3522Z" fill="#C0C0ED"/>
<path opacity="0.35" d="M262.652 30.8269C262.76 30.8935 262.868 31.0267 262.918 31.1849C263.01 31.418 262.952 31.6178 262.81 31.6345L260.749 31.8176C260.699 31.8259 260.65 31.8093 260.591 31.776C260.483 31.7094 260.375 31.5762 260.317 31.418C260.234 31.1849 260.284 30.9851 260.433 30.9685L262.494 30.7853C262.544 30.777 262.594 30.7936 262.652 30.8269Z" fill="#C0C0ED"/>
<path opacity="0.35" d="M267.148 39.044C267.198 39.0773 267.256 39.1272 267.306 39.1938C267.456 39.3853 267.514 39.6517 267.422 39.7766L266.226 41.5498C266.168 41.6414 266.06 41.6414 265.951 41.5748C265.902 41.5415 265.843 41.4915 265.794 41.4332C265.644 41.2334 265.594 40.967 265.677 40.8422L266.874 39.0773C266.932 38.9774 267.04 38.9774 267.148 39.044Z" fill="#C0C0ED"/>
<path opacity="0.35" d="M273.306 44.7965C273.481 44.9048 273.622 45.1628 273.622 45.3626L273.614 48.2431C273.614 48.4595 273.472 48.5428 273.298 48.4345C273.123 48.3346 272.99 48.0766 272.99 47.8601L272.999 44.9797C272.999 44.7716 273.14 44.6883 273.306 44.7965Z" fill="#C0C0ED"/>
<path opacity="0.35" d="M279.481 46.5447C279.589 46.6113 279.697 46.7445 279.755 46.9027L280.935 50.1161C281.018 50.3492 280.969 50.549 280.819 50.5657C280.769 50.5657 280.719 50.549 280.661 50.524C280.553 50.4574 280.445 50.3242 280.387 50.1661L279.207 46.9526C279.115 46.7195 279.174 46.5197 279.323 46.5031C279.373 46.4948 279.423 46.5114 279.481 46.5447Z" fill="#C0C0ED"/>
<path opacity="0.35" d="M284.01 43.8227C284.06 43.856 284.118 43.906 284.168 43.9726L286.229 46.6698C286.379 46.8613 286.429 47.1277 286.346 47.2526C286.287 47.3358 286.179 47.3442 286.071 47.2776C286.021 47.2443 285.963 47.1943 285.913 47.1277L283.852 44.4304C283.711 44.239 283.653 43.9726 283.736 43.8477C283.794 43.7644 283.902 43.7561 284.01 43.8227Z" fill="#C0C0ED"/>
<path opacity="0.35" d="M288.057 38.8108C288.232 38.919 288.373 39.1771 288.373 39.3852C288.373 39.5933 288.232 39.6766 288.057 39.5683L285.681 38.1198C285.506 38.0199 285.373 37.7618 285.373 37.5537C285.373 37.3373 285.514 37.254 285.689 37.3622L288.057 38.8108Z" fill="#C0C0ED"/>
<path opacity="0.35" d="M286.113 28.7044C286.221 28.771 286.329 28.9042 286.387 29.0624C286.47 29.2955 286.42 29.4953 286.271 29.5119L284.21 29.6951C284.16 29.6951 284.11 29.6784 284.052 29.6534C283.944 29.5868 283.836 29.4536 283.778 29.2955C283.694 29.0624 283.753 28.8542 283.894 28.8459L285.955 28.6628C286.005 28.6544 286.055 28.6711 286.113 28.7044Z" fill="#C0C0ED"/>
<path opacity="0.35" d="M280.744 18.8974C280.794 18.9307 280.852 18.9807 280.902 19.0473C281.052 19.2387 281.102 19.5051 281.018 19.63L279.822 21.4032C279.764 21.4948 279.656 21.4948 279.547 21.4282C279.498 21.3949 279.439 21.345 279.39 21.2867C279.24 21.0869 279.182 20.8205 279.273 20.6956L280.462 18.9224C280.528 18.8392 280.636 18.8308 280.744 18.8974Z" fill="#C0C0ED"/>
<path opacity="0.35" d="M264.713 23.2599L266.542 22.1943C266.592 22.1693 266.658 22.1693 266.725 22.2109C266.766 22.2359 266.799 22.2692 266.841 22.3108L265.013 23.3764C264.971 23.3265 264.929 23.3015 264.896 23.2765C264.821 23.2266 264.755 23.2266 264.713 23.2599Z" fill="#C0C0ED"/>
<path opacity="0.35" d="M272.45 29.9615C272.45 30.3028 272.7 30.7357 272.999 30.9105L271.171 31.9761C270.871 31.8013 270.622 31.3767 270.622 31.0271C270.622 30.8522 270.68 30.7357 270.78 30.6774L272.608 29.6118C272.517 29.6701 272.45 29.795 272.45 29.9615Z" fill="#C0C0ED"/>
<path opacity="0.35" d="M272.999 30.9102C273.148 31.0017 273.29 31.0017 273.389 30.9518L271.561 32.0174C271.461 32.0756 271.328 32.0673 271.17 31.9757C271.719 31.6511 272.45 31.2265 272.999 30.9102Z" fill="#C0C0ED"/>
<path opacity="0.35" d="M270.78 30.6774L272.608 29.6118C272.708 29.5535 272.849 29.5618 272.999 29.6451L271.171 30.7107C271.021 30.6274 270.88 30.6191 270.78 30.6774Z" fill="#C0C0ED"/>
<path opacity="0.35" d="M273.381 30.9437L271.553 32.0093C271.652 31.951 271.711 31.8262 271.711 31.6597C271.711 31.31 271.47 30.8938 271.162 30.7106L272.99 29.645C273.298 29.8198 273.539 30.2444 273.539 30.5941C273.547 30.7689 273.481 30.8938 273.381 30.9437Z" fill="#C0C0ED"/>
<path opacity="0.35" d="M273.838 31.7347L272.01 32.8003C272.201 32.6921 272.326 32.4757 272.35 32.1676L274.179 31.1021C274.154 31.4101 274.029 31.6265 273.838 31.7347Z" fill="#C0C0ED"/>
<path opacity="0.35" d="M282.739 29.7367L280.91 30.8023C281.035 30.7274 280.927 30.4194 280.769 30.3278L282.597 29.2622C282.755 29.3538 282.863 29.6618 282.739 29.7367Z" fill="#C0C0ED"/>
<path opacity="0.35" d="M280.761 30.3279C280.943 30.4362 281.052 30.7858 280.869 30.8191L272.35 32.1677C272.284 32.8171 271.785 33.0752 271.162 32.7172C270.63 32.4092 270.19 31.7515 270.04 31.1105L264.746 23.7595C264.505 23.4265 264.655 23.1268 264.896 23.2684C264.938 23.2933 264.971 23.3266 265.012 23.3683L270.896 29.8451C270.988 29.8701 271.071 29.9034 271.17 29.9533C271.362 30.0615 271.536 30.2197 271.686 30.4029L280.661 30.2863C280.702 30.2946 280.736 30.3113 280.761 30.3279ZM271.17 31.9763C271.478 32.1511 271.719 32.0096 271.719 31.6599C271.719 31.3103 271.478 30.894 271.17 30.7109C270.871 30.5361 270.622 30.6776 270.622 31.0272C270.622 31.3685 270.871 31.8014 271.17 31.9763Z" fill="#C0C0ED"/>
<path opacity="0.35" d="M271.171 30.719C271.478 30.8938 271.719 31.3184 271.719 31.6681C271.719 32.0094 271.478 32.1592 271.171 31.9844C270.871 31.8096 270.622 31.385 270.622 31.0354C270.622 30.6774 270.871 30.5442 271.171 30.719Z" fill="#C0C0ED"/>
<path opacity="0.35" d="M265.021 23.3761L266.849 22.3105L272.733 28.7874L270.905 29.8529L265.021 23.3761Z" fill="#C0C0ED"/>
<path opacity="0.35" d="M270.905 29.8532L272.733 28.7876C272.824 28.8126 272.907 28.8459 273.007 28.8958C273.198 29.004 273.373 29.1622 273.522 29.3454L271.694 30.411C271.536 30.2361 271.362 30.0696 271.179 29.9614C271.079 29.9115 270.988 29.8782 270.905 29.8532Z" fill="#C0C0ED"/>
<path opacity="0.35" d="M271.694 30.4107L273.522 29.3451L282.498 29.2285L280.669 30.2941L271.694 30.4107Z" fill="#C0C0ED"/>
<path opacity="0.35" d="M280.669 30.2941L282.498 29.2285C282.531 29.2285 282.564 29.2368 282.597 29.2535L280.769 30.3191C280.736 30.3108 280.703 30.2941 280.669 30.2941Z" fill="#C0C0ED"/>
</g>
<path d="M251.117 7.92534L255.314 5.48613C259.137 3.26336 264.422 3.57971 270.264 6.95132L266.068 9.39053C260.225 6.0106 254.932 5.70257 251.117 7.92534Z" fill="url(#paint31_linear)"/>
<path d="M285.066 56.7677L280.869 59.2069C284.642 57.0091 286.977 52.3388 287.002 45.7038C287.043 32.3506 277.669 16.092 266.068 9.38208L270.265 6.94287C281.866 13.6528 291.232 29.9114 291.199 43.2646C291.174 49.9079 288.838 54.5782 285.066 56.7677Z" fill="url(#paint32_linear)"/>
<path d="M266.068 9.39049C277.669 16.1004 287.035 32.359 287.002 45.7122C286.96 59.0655 277.528 64.46 265.935 57.7501C254.325 51.0402 244.959 34.7733 244.993 21.42C245.026 8.06683 254.458 2.68058 266.068 9.39049Z" fill="url(#paint33_linear)"/>
<path d="M282.88 43.3313C282.871 48.9589 280.786 52.8217 277.461 54.4617C274.436 55.9436 270.389 55.5856 265.943 53.0132C256.602 47.6186 249.065 34.5318 249.098 23.7926C249.114 17.3907 251.815 13.2532 255.995 12.121C255.995 12.121 256.004 12.1127 256.012 12.1127C258.821 11.3468 262.295 11.9462 266.051 14.119C275.384 19.5136 282.921 32.6004 282.88 43.3313Z" fill="url(#paint34_linear)"/>
<path d="M282.88 43.3313C282.872 48.9589 280.786 52.8217 277.461 54.4617C274.644 55.2609 271.137 54.6782 267.348 52.4804C258.007 47.0858 250.477 33.9907 250.511 23.2598C250.519 17.6072 252.638 13.7277 255.987 12.121C255.987 12.121 255.996 12.1127 256.004 12.1127C258.813 11.3468 262.287 11.9462 266.043 14.119C275.384 19.5136 282.921 32.6004 282.88 43.3313Z" fill="url(#paint35_linear)"/>
<path d="M266.749 15.3681C266.924 15.4763 267.065 15.7344 267.065 15.9425L267.057 18.8229C267.057 19.0311 266.916 19.1226 266.741 19.0144C266.567 18.9145 266.434 18.6481 266.434 18.44L266.442 15.5596C266.434 15.3431 266.575 15.2599 266.749 15.3681Z" fill="#9CA1E2"/>
<path d="M259.386 13.2785C259.494 13.3451 259.594 13.4783 259.652 13.6281L260.832 16.8499C260.924 17.083 260.866 17.2828 260.716 17.2994C260.666 17.3077 260.616 17.2911 260.558 17.2578C260.45 17.1912 260.342 17.058 260.284 16.8998L259.104 13.6781C259.021 13.445 259.071 13.2452 259.22 13.2285C259.278 13.2285 259.336 13.2452 259.386 13.2785Z" fill="#9CA1E2"/>
<path d="M253.984 16.5252C254.034 16.5585 254.092 16.6085 254.142 16.6668L256.203 19.364C256.345 19.5555 256.403 19.8302 256.311 19.9551C256.253 20.0467 256.145 20.0467 256.037 19.9801C255.987 19.9468 255.929 19.8968 255.879 19.8386L253.818 17.1413C253.669 16.9415 253.619 16.6751 253.702 16.5502C253.777 16.4586 253.876 16.4586 253.984 16.5252Z" fill="#9CA1E2"/>
<path d="M254.367 25.6828C254.541 25.7827 254.674 26.0408 254.674 26.2572C254.674 26.4654 254.533 26.5486 254.358 26.4487L251.982 25.0002C251.807 24.8919 251.666 24.6339 251.666 24.4341C251.666 24.2176 251.807 24.1344 251.982 24.2426L254.367 25.6828Z" fill="#9CA1E2"/>
<path d="M256.004 34.1575C256.112 34.2241 256.22 34.3573 256.27 34.5155C256.361 34.7486 256.303 34.9484 256.162 34.965L254.101 35.1482C254.051 35.1565 254.001 35.1399 253.943 35.1066C253.835 35.04 253.727 34.9068 253.669 34.7486C253.586 34.5155 253.635 34.3157 253.785 34.299L255.846 34.1159C255.896 34.1076 255.946 34.1242 256.004 34.1575Z" fill="#9CA1E2"/>
<path d="M260.5 42.3741C260.55 42.4074 260.608 42.4573 260.658 42.5239C260.807 42.7154 260.865 42.9818 260.774 43.1066L259.577 44.8799C259.519 44.9714 259.411 44.9714 259.303 44.9048C259.253 44.8715 259.195 44.8216 259.145 44.7633C258.996 44.5635 258.946 44.2971 259.029 44.1722L260.226 42.4074C260.284 42.3075 260.392 42.3075 260.5 42.3741Z" fill="#9CA1E2"/>
<path d="M266.658 48.1266C266.832 48.2348 266.974 48.4929 266.974 48.6927L266.965 51.5731C266.965 51.7896 266.824 51.8728 266.65 51.7646C266.475 51.6647 266.342 51.4066 266.342 51.1902L266.35 48.3098C266.35 48.1016 266.492 48.0184 266.658 48.1266Z" fill="#9CA1E2"/>
<path d="M272.833 49.8748C272.941 49.9414 273.049 50.0746 273.107 50.2328L274.287 53.4462C274.37 53.6793 274.32 53.8791 274.171 53.8957C274.121 53.8957 274.071 53.8791 274.013 53.8541C273.905 53.7875 273.797 53.6543 273.738 53.4962L272.558 50.2827C272.467 50.0496 272.525 49.8498 272.675 49.8332C272.725 49.8249 272.774 49.8415 272.833 49.8748Z" fill="#9CA1E2"/>
<path d="M277.362 47.1528C277.412 47.1861 277.47 47.236 277.52 47.3026L279.581 49.9999C279.73 50.1914 279.78 50.4578 279.697 50.5827C279.639 50.6659 279.531 50.6742 279.423 50.6076C279.373 50.5743 279.315 50.5244 279.265 50.4578L277.204 47.7605C277.063 47.569 277.005 47.3026 277.088 47.1778C277.146 47.0945 277.254 47.0862 277.362 47.1528Z" fill="#9CA1E2"/>
<path d="M281.409 42.1408C281.583 42.2491 281.725 42.5071 281.725 42.7153C281.725 42.9234 281.583 43.0066 281.409 42.8984L279.032 41.4499C278.858 41.35 278.725 41.0919 278.725 40.8838C278.725 40.6673 278.866 40.5841 279.04 40.6923L281.409 42.1408Z" fill="#9CA1E2"/>
<path d="M279.464 32.0345C279.572 32.1011 279.68 32.2343 279.739 32.3924C279.822 32.6255 279.772 32.8253 279.622 32.842L277.561 33.0251C277.511 33.0251 277.462 33.0085 277.403 32.9835C277.295 32.9169 277.187 32.7837 277.129 32.6255C277.046 32.3924 277.104 32.1843 277.245 32.176L279.306 31.9928C279.356 31.9845 279.406 32.0012 279.464 32.0345Z" fill="#9CA1E2"/>
<path d="M274.096 22.228C274.146 22.2613 274.204 22.3112 274.254 22.3778C274.403 22.5693 274.453 22.8357 274.37 22.9606L273.173 24.7338C273.115 24.8254 273.007 24.8254 272.899 24.7588C272.849 24.7255 272.791 24.6755 272.741 24.6173C272.592 24.4175 272.533 24.1511 272.625 24.0262L273.813 22.253C273.88 22.1697 273.988 22.1614 274.096 22.228Z" fill="#9CA1E2"/>
<path d="M258.065 26.59L259.893 25.5244C259.943 25.4994 260.009 25.4994 260.076 25.541C260.117 25.566 260.151 25.5993 260.192 25.6409L258.364 26.7065C258.322 26.6566 258.281 26.6316 258.248 26.6066C258.173 26.5567 258.106 26.5567 258.065 26.59Z" fill="#EC9941"/>
<path d="M265.802 33.2915C265.802 33.6329 266.051 34.0658 266.35 34.2406L264.522 35.3062C264.223 35.1314 263.973 34.7068 263.973 34.3571C263.973 34.1823 264.032 34.0658 264.131 34.0075L265.96 32.9419C265.868 33.0002 265.802 33.125 265.802 33.2915Z" fill="#2F97ED"/>
<path d="M266.35 34.2407C266.5 34.3323 266.641 34.3323 266.741 34.2823L264.913 35.3479C264.813 35.4062 264.68 35.3979 264.522 35.3063C265.07 34.9816 265.802 34.5571 266.35 34.2407Z" fill="#2F97ED"/>
<path d="M264.131 34.0075L265.96 32.9419C266.059 32.8836 266.201 32.8919 266.35 32.9752L264.522 34.0408C264.372 33.9575 264.231 33.9492 264.131 34.0075Z" fill="white"/>
<path d="M266.733 34.2738L264.904 35.3394C265.004 35.2811 265.062 35.1562 265.062 34.9897C265.062 34.6401 264.821 34.2238 264.514 34.0407L266.342 32.9751C266.649 33.1499 266.891 33.5745 266.891 33.9241C266.899 34.099 266.832 34.2238 266.733 34.2738Z" fill="white"/>
<path d="M267.19 35.0648L265.361 36.1304C265.552 36.0222 265.677 35.8057 265.702 35.4977L267.53 34.4321C267.505 34.7402 267.381 34.9566 267.19 35.0648Z" fill="#EC9941"/>
<path d="M276.09 33.0668L274.262 34.1324C274.387 34.0575 274.279 33.7494 274.121 33.6579L275.949 32.5923C276.107 32.6839 276.215 32.9919 276.09 33.0668Z" fill="#EC9941"/>
<path d="M274.112 33.658C274.295 33.7662 274.403 34.1159 274.22 34.1492L265.702 35.4978C265.636 36.1472 265.137 36.4052 264.514 36.0473C263.982 35.7392 263.541 35.0816 263.392 34.4405L258.098 27.0896C257.857 26.7566 258.007 26.4569 258.248 26.5984C258.289 26.6234 258.322 26.6567 258.364 26.6983L264.248 33.1752C264.339 33.2001 264.422 33.2334 264.522 33.2834C264.713 33.3916 264.888 33.5498 265.037 33.7329L274.013 33.6164C274.054 33.6247 274.087 33.6414 274.112 33.658ZM264.522 35.3063C264.829 35.4812 265.07 35.3396 265.07 34.99C265.07 34.6403 264.829 34.2241 264.522 34.041C264.223 33.8661 263.973 34.0077 263.973 34.3573C263.973 34.6986 264.223 35.1315 264.522 35.3063Z" fill="url(#paint36_linear)"/>
<path d="M264.522 34.0491C264.829 34.2239 265.07 34.6485 265.07 34.9981C265.07 35.3395 264.829 35.4893 264.522 35.3145C264.223 35.1397 263.973 34.7151 263.973 34.3654C263.973 34.0075 264.223 33.8743 264.522 34.0491Z" fill="white"/>
<path d="M258.372 26.7067L260.201 25.6411L266.084 32.1179L264.256 33.1835L258.372 26.7067Z" fill="#EC9941"/>
<path d="M264.256 33.1833L266.084 32.1177C266.176 32.1427 266.259 32.1759 266.359 32.2259C266.55 32.3341 266.724 32.4923 266.874 32.6754L265.046 33.741C264.888 33.5662 264.713 33.3997 264.53 33.2915C264.431 33.2415 264.339 33.2082 264.256 33.1833Z" fill="#EC9941"/>
<path d="M265.045 33.7412L266.874 32.6756L275.849 32.5591L274.021 33.6247L265.045 33.7412Z" fill="#EC9941"/>
<path d="M274.021 33.6247L275.849 32.5591C275.882 32.5591 275.915 32.5674 275.949 32.5841L274.12 33.6497C274.087 33.6413 274.054 33.6247 274.021 33.6247Z" fill="#2F97ED"/>
<g opacity="0.35">
<path d="M221.831 31.0605C223.635 32.1011 225.097 34.6319 225.089 36.7048L224.981 75.8404C224.973 77.9133 223.502 78.7458 221.707 77.7052L168.777 47.0943C166.974 46.0537 165.52 43.5313 165.528 41.4583L165.636 2.32276C165.644 0.249849 167.107 -0.582646 168.91 0.457973L221.831 31.0605Z" fill="url(#paint37_linear)"/>
<path opacity="0.35" d="M179.797 13.3781L179.789 16.6415C177.079 15.1097 174.894 16.3917 174.885 19.5219C174.877 21.5116 175.766 23.7843 177.113 25.5908L175.592 27.4556C173.456 24.6168 172.052 21.0287 172.06 17.8819C172.076 12.9535 175.525 10.9639 179.797 13.3781Z" fill="#C0C0ED"/>
<path opacity="0.35" d="M179.872 13.42C184.168 15.9092 187.65 21.9364 187.634 26.8898C187.617 31.8431 184.118 33.8411 179.822 31.352C178.251 30.4445 176.805 29.0626 175.592 27.4559L177.113 25.5911C177.885 26.6317 178.825 27.5142 179.83 28.0969C182.573 29.6786 184.8 28.4049 184.808 25.2581C184.816 22.1029 182.606 18.2651 179.863 16.6834L179.789 16.6501L179.797 13.3867L179.872 13.42Z" fill="#C0C0ED"/>
<path opacity="0.35" d="M192.869 46.0622C193.634 46.5034 194.24 47.5773 194.24 48.4515C194.24 49.3256 193.617 49.6836 192.861 49.2507C192.096 48.8094 191.481 47.7355 191.481 46.8614C191.481 45.979 192.105 45.6127 192.869 46.0622Z" fill="#C0C0ED"/>
<path opacity="0.35" d="M200.216 25.1831L200.207 28.4382C197.465 26.8481 195.238 28.1218 195.229 31.277C195.221 34.4238 197.423 38.27 200.174 39.8517C202.086 40.9589 203.756 40.6675 204.587 39.3106L207.097 42.2493C205.792 44.3888 203.174 44.8467 200.166 43.1068C195.869 40.6176 192.387 34.582 192.404 29.637C192.412 24.692 195.911 22.7023 200.216 25.1831Z" fill="#C0C0ED"/>
<path opacity="0.35" d="M200.216 25.1831C204.512 27.6639 207.994 33.6995 207.978 38.6529C207.969 40.1347 207.645 41.3418 207.088 42.2576L204.579 39.3189C204.944 38.7361 205.144 37.9619 205.144 37.0212C205.152 33.866 202.941 30.0282 200.199 28.4465L200.216 25.1831Z" fill="#C0C0ED"/>
<path opacity="0.35" d="M221.657 53.5211L221.648 55.3692L213.737 50.7905V48.9424L221.657 53.5211Z" fill="#C0C0ED"/>
<path opacity="0.35" d="M221.673 48.2765L221.665 50.1163L213.745 45.5376L213.753 43.6978L221.673 48.2765Z" fill="#C0C0ED"/>
<path opacity="0.35" d="M221.682 43.0318V44.88L213.762 40.3013L213.77 38.4531L221.682 43.0318Z" fill="#C0C0ED"/>
<path opacity="0.35" d="M221.698 37.7872L221.69 39.6354L213.779 35.0566L213.787 33.2085L221.698 37.7872Z" fill="#C0C0ED"/>
<path opacity="0.35" d="M221.64 58.7657L221.632 60.6139L213.72 56.0352V54.187L221.64 58.7657Z" fill="#C0C0ED"/>
<path opacity="0.35" d="M170.323 33.0171C171.088 33.4583 171.694 34.5322 171.694 35.4063C171.694 36.2804 171.071 36.6384 170.315 36.2055C169.55 35.7643 168.935 34.6904 168.935 33.8162C168.935 32.9338 169.55 32.5758 170.323 33.0171Z" fill="#C0C0ED"/>
<path opacity="0.35" d="M188.091 44.0893L188.082 45.5378L173.888 37.3294L173.896 35.8809L188.091 44.0893Z" fill="#C0C0ED"/>
<path opacity="0.35" d="M170.298 40.2348C171.063 40.676 171.669 41.75 171.669 42.6241C171.669 43.4982 171.046 43.8562 170.29 43.4233C169.525 42.9821 168.91 41.9081 168.91 41.034C168.918 40.1516 169.533 39.7936 170.298 40.2348Z" fill="#C0C0ED"/>
<path opacity="0.35" d="M188.074 51.3153L188.066 52.7639L173.872 44.5471V43.1069L188.074 51.3153Z" fill="#C0C0ED"/>
<path opacity="0.35" d="M210.612 64.3519V65.8005L196.418 57.5921L196.426 56.1436L210.612 64.3519Z" fill="#C0C0ED"/>
<path opacity="0.35" d="M210.637 57.1342L210.629 58.5744L196.443 50.366V48.9258L210.637 57.1342Z" fill="#C0C0ED"/>
<path opacity="0.35" d="M192.853 53.2797C193.617 53.721 194.224 54.7949 194.224 55.669C194.224 56.5431 193.601 56.9011 192.844 56.4682C192.08 56.027 191.465 54.9531 191.465 54.0789C191.465 53.1965 192.08 52.8385 192.853 53.2797Z" fill="#C0C0ED"/>
</g>
<path d="M218.507 34.3906C220.31 35.4312 221.773 37.962 221.765 40.0349L221.657 79.1705C221.648 81.2434 220.177 82.0759 218.382 81.0353L165.453 50.4244C163.65 49.3838 162.195 46.8613 162.204 44.7884L162.312 5.65284C162.32 3.57993 163.783 2.74743 165.586 3.78805L218.507 34.3906Z" fill="url(#paint38_linear)"/>
<path d="M176.473 16.7082L176.464 19.9716C173.755 18.4398 171.57 19.7218 171.561 22.852C171.553 24.8416 172.442 27.1144 173.788 28.9209L172.268 30.7857C170.132 27.9469 168.727 24.3588 168.736 21.212C168.752 16.2836 172.201 14.2939 176.473 16.7082Z" fill="#C1C5F4"/>
<path d="M176.547 16.7496C180.844 19.2388 184.326 25.266 184.309 30.2194C184.293 35.1727 180.794 37.1707 176.498 34.6815C174.927 33.7741 173.481 32.3922 172.268 30.7855L173.788 28.9207C174.561 29.9613 175.5 30.8437 176.506 31.4265C179.248 33.0082 181.476 31.7345 181.484 28.5877C181.492 25.4325 179.282 21.5947 176.539 20.013L176.464 19.9797L176.473 16.7163L176.547 16.7496Z" fill="url(#paint39_linear)"/>
<path d="M189.545 49.3918C190.31 49.833 190.916 50.9069 190.916 51.7811C190.916 52.6552 190.293 53.0132 189.537 52.5803C188.772 52.139 188.157 51.0651 188.157 50.191C188.157 49.3085 188.781 48.9423 189.545 49.3918Z" fill="#C1C5F4"/>
<path d="M196.891 28.5132L196.883 31.7683C194.141 30.1782 191.914 31.4519 191.905 34.6071C191.897 37.7539 194.099 41.6 196.85 43.1818C198.761 44.289 200.432 43.9976 201.263 42.6407L203.773 45.5794C202.468 47.7189 199.85 48.1768 196.842 46.4368C192.545 43.9477 189.063 37.9121 189.08 32.9671C189.088 28.022 192.587 26.0324 196.891 28.5132Z" fill="#C1C5F4"/>
<path d="M196.891 28.5132C201.188 30.994 204.67 37.0296 204.653 41.9829C204.645 43.4648 204.321 44.6719 203.764 45.5876L201.254 42.6489C201.62 42.0662 201.819 41.292 201.819 40.3513C201.828 37.1961 199.617 33.3583 196.875 31.7766L196.891 28.5132Z" fill="url(#paint40_linear)"/>
<path d="M218.332 56.8512L218.324 58.6993L210.413 54.1206V52.2725L218.332 56.8512Z" fill="#C1C5F4"/>
<path d="M218.349 51.6065L218.341 53.4464L210.421 48.8676L210.429 47.0278L218.349 51.6065Z" fill="#C1C5F4"/>
<path d="M218.357 46.3614V48.2096L210.438 43.6309L210.446 41.7827L218.357 46.3614Z" fill="#C1C5F4"/>
<path d="M218.374 41.1168L218.366 42.965L210.454 38.3862L210.462 36.5381L218.374 41.1168Z" fill="#C1C5F4"/>
<path d="M218.316 62.0958L218.308 63.944L210.396 59.3652V57.5171L218.316 62.0958Z" fill="#C1C5F4"/>
<path d="M166.999 36.3466C167.763 36.7879 168.37 37.8618 168.37 38.7359C168.37 39.61 167.747 39.968 166.99 39.5351C166.226 39.0939 165.611 38.02 165.611 37.1458C165.611 36.2634 166.226 35.9054 166.999 36.3466Z" fill="#C1C5F4"/>
<path d="M184.767 47.4189L184.758 48.8674L170.564 40.659L170.572 39.2104L184.767 47.4189Z" fill="#C1C5F4"/>
<path d="M166.974 43.5644C167.738 44.0056 168.345 45.0796 168.345 45.9537C168.345 46.8278 167.722 47.1858 166.965 46.7529C166.201 46.3116 165.586 45.2377 165.586 44.3636C165.594 43.4812 166.209 43.1232 166.974 43.5644Z" fill="#C1C5F4"/>
<path d="M184.75 54.6449L184.742 56.0935L170.547 47.8767V46.4365L184.75 54.6449Z" fill="#C1C5F4"/>
<path d="M207.288 67.6815V69.1301L193.094 60.9217L193.102 59.4731L207.288 67.6815Z" fill="#C1C5F4"/>
<path d="M207.313 60.4643L207.304 61.9045L193.118 53.6961V52.2559L207.313 60.4643Z" fill="#C1C5F4"/>
<path d="M189.528 56.6098C190.293 57.0511 190.9 58.125 190.9 58.9991C190.9 59.8732 190.276 60.2312 189.52 59.7983C188.756 59.3571 188.141 58.2831 188.141 57.409C188.141 56.5266 188.756 56.1686 189.528 56.6098Z" fill="#C1C5F4"/>
<g opacity="0.35">
<path d="M247.959 46.4367C248.84 46.9446 249.547 48.1766 249.547 49.1923L249.414 97.1273C249.414 98.143 248.699 98.5509 247.818 98.0431L235.053 90.6589C234.172 90.151 233.458 88.9189 233.458 87.9033L233.59 39.9682C233.59 38.9526 234.313 38.553 235.194 39.0608L247.959 46.4367Z" fill="url(#paint41_linear)"/>
<path opacity="0.35" d="M241.552 51.4402C242.159 51.7898 242.649 52.6473 242.649 53.3383C242.649 54.0376 242.15 54.3206 241.544 53.971C240.937 53.6213 240.447 52.7722 240.447 52.0729C240.455 51.3652 240.945 51.0822 241.552 51.4402Z" fill="#C0C0ED"/>
<path opacity="0.35" d="M241.51 67.0742C242.117 67.4238 242.607 68.2813 242.607 68.9722C242.607 69.6715 242.109 69.9546 241.502 69.6049C240.895 69.2553 240.405 68.4062 240.405 67.7069C240.405 67.0076 240.895 66.7245 241.51 67.0742Z" fill="#C0C0ED"/>
<path opacity="0.35" d="M241.461 82.7167C242.067 83.0664 242.558 83.9239 242.558 84.6148C242.558 85.3141 242.059 85.5972 241.452 85.2475C240.846 84.8979 240.355 84.0487 240.355 83.3494C240.364 82.6501 240.854 82.3671 241.461 82.7167Z" fill="#C0C0ED"/>
<path opacity="0.35" d="M241.477 78.288C244.211 79.8698 246.422 83.7076 246.413 86.8461C246.405 90.0012 244.178 91.2666 241.444 89.6849C238.71 88.1031 236.499 84.2653 236.507 81.1185C236.516 77.98 238.743 76.7146 241.477 78.288ZM241.452 87.7618C243.264 88.8108 244.743 87.9783 244.743 85.8804C244.751 83.7991 243.28 81.2434 241.469 80.2028C239.657 79.1538 238.178 80.003 238.178 82.0842C238.169 84.1821 239.632 86.7129 241.452 87.7618Z" fill="#C0C0ED"/>
<path opacity="0.35" d="M241.519 62.6535C244.253 64.2353 246.463 68.0731 246.455 71.2116C246.447 74.3667 244.22 75.6321 241.485 74.0504C238.751 72.4687 236.541 68.6309 236.549 65.484C236.566 62.3372 238.785 61.0718 241.519 62.6535ZM241.494 72.119C243.305 73.168 244.785 72.3271 244.785 70.2376C244.793 68.1563 243.322 65.6006 241.51 64.56C239.699 63.511 238.219 64.3602 238.219 66.4414C238.211 68.531 239.682 71.0701 241.494 72.119Z" fill="#C0C0ED"/>
<path opacity="0.35" d="M241.569 47.011C244.303 48.5927 246.513 52.4305 246.505 55.569C246.497 58.7242 244.269 59.9896 241.535 58.4078C238.801 56.8261 236.591 52.9883 236.599 49.8414C236.607 46.6946 238.834 45.4292 241.569 47.011ZM241.535 56.4847C243.347 57.5337 244.826 56.6929 244.835 54.6033C244.843 52.5221 243.372 49.9663 241.56 48.9257C239.749 47.8768 238.269 48.7259 238.269 50.8071C238.261 52.8884 239.724 55.4275 241.535 56.4847Z" fill="#C0C0ED"/>
</g>
<path d="M244.635 49.7668C245.516 50.2746 246.222 51.5067 246.222 52.5224L246.089 100.457C246.089 101.473 245.375 101.881 244.494 101.373L231.729 93.9889C230.848 93.4811 230.133 92.249 230.133 91.2334L230.266 43.2983C230.266 42.2827 230.989 41.8831 231.87 42.3909L244.635 49.7668Z" fill="url(#paint42_linear)"/>
<path d="M238.228 54.7698C238.834 55.1194 239.325 55.9769 239.325 56.6678C239.325 57.3671 238.826 57.6502 238.219 57.3005C237.613 56.9509 237.122 56.1018 237.122 55.4025C237.131 54.6948 237.621 54.4118 238.228 54.7698Z" fill="#C1C5F4"/>
<path d="M238.186 70.4042C238.793 70.7539 239.283 71.6113 239.283 72.3023C239.283 73.0016 238.784 73.2847 238.178 72.935C237.571 72.5854 237.081 71.7362 237.081 71.0369C237.081 70.3376 237.571 70.0546 238.186 70.4042Z" fill="#C1C5F4"/>
<path d="M238.136 86.0468C238.743 86.3965 239.233 87.2539 239.233 87.9449C239.233 88.6442 238.735 88.9272 238.128 88.5776C237.521 88.2279 237.031 87.3788 237.031 86.6795C237.039 85.9802 237.53 85.6972 238.136 86.0468Z" fill="#C1C5F4"/>
<path d="M238.153 81.6181C240.887 83.1998 243.098 87.0377 243.089 90.1762C243.081 93.3313 240.854 94.5967 238.12 93.015C235.385 91.4332 233.175 87.5954 233.183 84.4486C233.191 81.3101 235.419 80.0447 238.153 81.6181ZM238.128 91.0919C239.94 92.1408 241.419 91.3084 241.419 89.2105C241.427 87.1292 239.956 84.5735 238.144 83.5328C236.333 82.4839 234.854 83.333 234.854 85.4143C234.845 87.5122 236.308 90.043 238.128 91.0919Z" fill="url(#paint43_linear)"/>
<path d="M238.194 65.9836C240.928 67.5654 243.139 71.4032 243.131 74.5417C243.122 77.6968 240.895 78.9622 238.161 77.3805C235.427 75.7987 233.216 71.9609 233.225 68.8141C233.241 65.6673 235.46 64.4019 238.194 65.9836ZM238.169 75.4491C239.981 76.498 241.46 75.6572 241.46 73.5676C241.469 71.4864 239.998 68.9307 238.186 67.89C236.374 66.8411 234.895 67.6902 234.895 69.7715C234.887 71.861 236.358 74.4001 238.169 75.4491Z" fill="url(#paint44_linear)"/>
<path d="M238.244 50.341C240.978 51.9228 243.189 55.7606 243.181 58.8991C243.172 62.0543 240.945 63.3196 238.211 61.7379C235.477 60.1562 233.266 56.3184 233.275 53.1715C233.283 50.0247 235.51 48.7593 238.244 50.341ZM238.211 59.8148C240.023 60.8638 241.502 60.023 241.51 57.9334C241.519 55.8522 240.048 53.2964 238.236 52.2558C236.424 51.2068 234.945 52.056 234.945 54.1372C234.937 56.2185 236.399 58.7576 238.211 59.8148Z" fill="url(#paint45_linear)"/>
<g opacity="0.35">
<path d="M209.482 83.3077C211.302 84.3566 212.764 86.9124 212.764 88.9936L212.723 102.33C212.715 104.42 211.244 105.269 209.424 104.212L167.971 80.2358C166.159 79.1868 164.688 76.6394 164.688 74.5498L164.73 61.2133C164.738 59.1237 166.218 58.2829 168.029 59.3318L209.482 83.3077Z" fill="url(#paint46_linear)"/>
<path opacity="0.35" d="M178.126 71.6778C178.417 72.1856 178.559 72.6851 178.559 73.168L178.542 78.5709C178.542 79.0371 178.392 79.3701 178.101 79.5615C177.811 79.7613 177.462 79.7363 177.046 79.4949L172.326 76.7643C171.91 76.5229 171.561 76.1483 171.27 75.6072C170.979 75.0744 170.838 74.5749 170.838 74.1087L170.855 68.7058C170.855 68.2229 171.004 67.8899 171.295 67.7151C171.586 67.5403 171.935 67.5736 172.351 67.815L177.071 70.5456C177.486 70.7954 177.836 71.17 178.126 71.6778ZM172.268 73.501L176.506 71.8859L172.658 69.6632C172.459 69.5466 172.342 69.4967 172.317 69.5133C172.292 69.53 172.276 69.6548 172.276 69.8879L172.268 73.501ZM177.137 77.397L177.146 73.784L172.907 75.3907L176.755 77.6135C176.955 77.73 177.071 77.78 177.096 77.7633C177.121 77.755 177.137 77.6301 177.137 77.397Z" fill="#C0C0ED"/>
<path opacity="0.35" d="M188.382 80.5772C188.382 80.7271 188.357 80.8603 188.323 81.0018C188.282 81.135 188.224 81.2515 188.149 81.3514C188.232 81.5346 188.282 81.7177 188.323 81.8842C188.357 82.059 188.373 82.2172 188.373 82.3754L188.365 84.3234C188.365 84.798 188.215 85.1226 187.924 85.2891C187.634 85.4556 187.276 85.414 186.869 85.1809L182.149 82.4503C181.741 82.2172 181.392 81.8426 181.102 81.3431C180.811 80.8353 180.661 80.3524 180.661 79.8696L180.669 77.9215C180.669 77.7717 180.694 77.6385 180.736 77.5053C180.777 77.3804 180.836 77.2639 180.894 77.1557C180.827 76.9808 180.777 76.7977 180.736 76.6229C180.694 76.448 180.669 76.2732 180.669 76.115L180.678 74.3418C180.678 73.8673 180.827 73.5426 181.118 73.3845C181.409 73.2263 181.758 73.2596 182.174 73.501L186.894 76.2316C187.251 76.4397 187.575 76.7644 187.858 77.1973C188.141 77.6385 188.315 78.0714 188.382 78.496V80.5772ZM186.952 83.1663V81.9258C186.952 81.6928 186.944 81.5512 186.919 81.5096C186.894 81.4597 186.778 81.3847 186.578 81.2682L182.464 78.8872C182.265 78.7707 182.149 78.7207 182.124 78.7374C182.099 78.7457 182.082 78.8706 182.082 79.1037V80.3441C182.082 80.5772 182.099 80.7187 182.115 80.7604C182.14 80.8103 182.257 80.8852 182.456 81.0018L186.57 83.3827C186.769 83.4993 186.886 83.5492 186.911 83.5326C186.944 83.5242 186.952 83.3994 186.952 83.1663ZM186.96 79.5449V78.3461C186.96 78.1213 186.952 77.9798 186.927 77.9299C186.902 77.8882 186.786 77.805 186.586 77.6884L182.473 75.3075C182.273 75.191 182.157 75.141 182.132 75.1577C182.107 75.1743 182.091 75.2992 182.091 75.524V76.7228C182.091 76.9475 182.107 77.0891 182.124 77.1307C182.149 77.1806 182.265 77.2556 182.464 77.3721L186.578 79.753C186.778 79.8696 186.894 79.9195 186.919 79.9029C186.952 79.8946 186.96 79.7697 186.96 79.5449Z" fill="#C0C0ED"/>
<path opacity="0.35" d="M190.468 80.0195L191.889 80.8354L191.88 82.467L190.468 81.6429V80.0195Z" fill="#C0C0ED"/>
<path opacity="0.35" d="M190.451 87.2537V85.6304L191.872 86.4462L191.864 88.0696L190.451 87.2537Z" fill="#C0C0ED"/>
<path opacity="0.35" d="M197.182 82.1838L197.157 91.1331L195.728 90.3089L195.745 83.7073L195.13 84.2234L193.26 83.1412L195.612 81.2764L197.182 82.1838Z" fill="#C0C0ED"/>
<path opacity="0.35" d="M206.606 87.6365L206.598 89.2599L200.689 85.8466C200.49 85.7301 200.374 85.6801 200.349 85.6968C200.324 85.7134 200.307 85.8383 200.307 86.0714V87.137C200.307 87.3701 200.315 87.5033 200.34 87.5532C200.365 87.5949 200.482 87.6781 200.681 87.7947L205.102 90.3504C205.509 90.5835 205.858 90.9581 206.149 91.4576C206.44 91.9655 206.581 92.4483 206.581 92.9228L206.573 94.8709C206.573 95.3454 206.424 95.6701 206.133 95.8366C205.842 96.0031 205.493 95.9698 205.077 95.7283L200.357 92.9977C199.95 92.7647 199.592 92.39 199.302 91.8822C199.011 91.3744 198.869 90.8915 198.869 90.417V89.8343L200.282 90.6501V90.8832C200.282 91.1163 200.29 91.2578 200.315 91.2995C200.34 91.3494 200.457 91.4243 200.656 91.5409L204.77 93.9218C204.969 94.0384 205.086 94.0883 205.111 94.0717C205.135 94.0633 205.152 93.9301 205.152 93.7054V92.465C205.152 92.2319 205.135 92.0903 205.119 92.0487C205.094 91.9988 204.978 91.9238 204.778 91.8073L198.869 88.3857L198.886 83.1743L206.606 87.6365Z" fill="#C0C0ED"/>
</g>
<path d="M206.989 85.8052C208.809 86.8542 210.271 89.4099 210.271 91.4912L210.23 104.828C210.221 106.917 208.751 107.766 206.931 106.709L165.478 82.7333C163.666 81.6844 162.195 79.137 162.195 77.0474L162.237 63.7108C162.245 61.6213 163.724 60.7804 165.536 61.8294L206.989 85.8052Z" fill="url(#paint47_linear)"/>
<path d="M175.633 74.1754C175.924 74.6832 176.065 75.1827 176.065 75.6655L176.049 81.0684C176.049 81.5346 175.899 81.8676 175.608 82.0591C175.317 82.2589 174.968 82.2339 174.553 81.9925L169.833 79.2619C169.417 79.0205 169.068 78.6459 168.777 78.1047C168.486 77.5719 168.345 77.0724 168.345 76.6062L168.362 71.2033C168.362 70.7205 168.511 70.3875 168.802 70.2127C169.093 70.0379 169.442 70.0712 169.857 70.3126L174.578 73.0432C174.993 73.2929 175.342 73.6675 175.633 74.1754ZM169.774 75.9985L174.013 74.3835L170.165 72.1607C169.965 72.0442 169.849 71.9942 169.824 72.0109C169.799 72.0275 169.783 72.1524 169.783 72.3855L169.774 75.9985ZM174.644 79.8946L174.653 76.2816L170.414 77.8883L174.262 80.1111C174.461 80.2276 174.578 80.2775 174.603 80.2609C174.628 80.2526 174.644 80.1277 174.644 79.8946Z" fill="#C1C5F4"/>
<path d="M185.888 83.0748C185.888 83.2246 185.863 83.3578 185.83 83.4993C185.789 83.6325 185.73 83.7491 185.656 83.849C185.739 84.0321 185.789 84.2153 185.83 84.3818C185.863 84.5566 185.88 84.7148 185.88 84.873L185.872 86.821C185.872 87.2955 185.722 87.6202 185.431 87.7867C185.14 87.9532 184.783 87.9116 184.376 87.6785L179.656 84.9479C179.248 84.7148 178.899 84.3402 178.608 83.8407C178.318 83.3328 178.168 82.85 178.168 82.3671L178.176 80.4191C178.176 80.2693 178.201 80.1361 178.243 80.0029C178.284 79.878 178.342 79.7614 178.401 79.6532C178.334 79.4784 178.284 79.2952 178.243 79.1204C178.201 78.9456 178.176 78.7708 178.176 78.6126L178.185 76.8394C178.185 76.3649 178.334 76.0402 178.625 75.882C178.916 75.7238 179.265 75.7571 179.68 75.9986L184.401 78.7291C184.758 78.9373 185.082 79.2619 185.365 79.6948C185.647 80.1361 185.822 80.569 185.888 80.9935V83.0748ZM184.459 85.6638V84.4234C184.459 84.1903 184.451 84.0488 184.426 84.0072C184.401 83.9572 184.284 83.8823 184.085 83.7657L179.971 81.3848C179.772 81.2683 179.656 81.2183 179.631 81.235C179.606 81.2433 179.589 81.3682 179.589 81.6012V82.8417C179.589 83.0748 179.606 83.2163 179.622 83.2579C179.647 83.3079 179.764 83.3828 179.963 83.4993L184.077 85.8803C184.276 85.9968 184.392 86.0468 184.417 86.0301C184.451 86.0218 184.459 85.8969 184.459 85.6638ZM184.467 82.0425V80.8437C184.467 80.6189 184.459 80.4774 184.434 80.4274C184.409 80.3858 184.293 80.3026 184.093 80.186L179.98 77.8051C179.78 77.6885 179.664 77.6386 179.639 77.6552C179.614 77.6719 179.597 77.7968 179.597 78.0215V79.2203C179.597 79.4451 179.614 79.5866 179.631 79.6282C179.656 79.6782 179.772 79.7531 179.971 79.8697L184.085 82.2506C184.284 82.3672 184.401 82.4171 184.426 82.4005C184.459 82.3921 184.467 82.2673 184.467 82.0425Z" fill="#C1C5F4"/>
<path d="M187.974 82.5171L189.395 83.3329L189.387 84.9646L187.974 84.1404V82.5171Z" fill="#C1C5F4"/>
<path d="M187.958 89.7513V88.1279L189.379 88.9438L189.371 90.5671L187.958 89.7513Z" fill="#C1C5F4"/>
<path d="M194.689 84.6813L194.664 93.6307L193.235 92.8065L193.251 86.2048L192.636 86.721L190.767 85.6387L193.118 83.7739L194.689 84.6813Z" fill="#C1C5F4"/>
<path d="M204.113 90.1345L204.105 91.7579L198.196 88.3447C197.997 88.2281 197.88 88.1782 197.855 88.1948C197.831 88.2115 197.814 88.3363 197.814 88.5694V89.635C197.814 89.8681 197.822 90.0013 197.847 90.0513C197.872 90.0929 197.988 90.1762 198.188 90.2927L202.609 92.8485C203.016 93.0816 203.365 93.4562 203.656 93.9557C203.947 94.4635 204.088 94.9463 204.088 95.4209L204.08 97.3689C204.08 97.8434 203.93 98.1681 203.64 98.3346C203.349 98.5011 203 98.4678 202.584 98.2264L197.864 95.4958C197.457 95.2627 197.099 94.8881 196.808 94.3803C196.518 93.8724 196.376 93.3896 196.376 92.9151V92.3323L197.789 93.1482V93.3813C197.789 93.6144 197.797 93.7559 197.822 93.7975C197.847 93.8475 197.964 93.9224 198.163 94.0389L202.277 96.4199C202.476 96.5364 202.592 96.5864 202.617 96.5697C202.642 96.5614 202.659 96.4282 202.659 96.2034V94.963C202.659 94.7299 202.642 94.5884 202.626 94.5467C202.601 94.4968 202.484 94.4219 202.285 94.3053L196.376 90.8838L196.393 85.6724L204.113 90.1345Z" fill="#C1C5F4"/>
<g opacity="0.35">
<path opacity="0.35" d="M247.037 108.791C248.392 109.573 249.497 111.48 249.489 113.045L249.455 124.05C249.447 125.615 248.342 126.24 246.987 125.457L220.286 110.014C218.931 109.232 217.834 107.325 217.834 105.769L217.867 94.763C217.876 93.1896 218.973 92.5652 220.335 93.3478L247.037 108.791Z" fill="#58E0AB"/>
<path opacity="0.35" d="M228.446 102.996C228.762 103.18 229.037 103.471 229.269 103.862C229.502 104.262 229.618 104.653 229.618 105.028V105.602L228.422 104.911V104.653C228.422 104.462 228.413 104.362 228.413 104.345C228.405 104.328 228.322 104.27 228.147 104.17L225.172 102.455C225.006 102.364 224.923 102.314 224.914 102.322C224.906 102.33 224.898 102.422 224.898 102.613V103.329C224.898 103.521 224.906 103.621 224.914 103.637C224.923 103.662 225.006 103.721 225.172 103.812L228.438 105.702C228.754 105.885 229.028 106.177 229.261 106.568C229.494 106.976 229.61 107.35 229.61 107.725V109.09C229.61 109.465 229.494 109.723 229.261 109.848C229.028 109.973 228.754 109.948 228.43 109.765L224.89 107.717C224.565 107.533 224.291 107.234 224.067 106.843C223.842 106.451 223.726 106.06 223.726 105.685V105.103L224.898 105.777V106.035C224.898 106.226 224.906 106.326 224.914 106.351C224.923 106.368 225.006 106.426 225.172 106.518L228.147 108.233C228.313 108.333 228.405 108.374 228.413 108.366C228.422 108.349 228.422 108.258 228.422 108.066V107.35C228.422 107.159 228.413 107.059 228.413 107.042C228.405 107.026 228.322 106.967 228.147 106.867L224.898 104.986C224.574 104.803 224.3 104.503 224.075 104.112C223.851 103.721 223.734 103.329 223.734 102.963V101.598C223.734 101.223 223.851 100.965 224.083 100.832C224.316 100.699 224.59 100.732 224.914 100.923L228.446 102.996Z" fill="#58E0AB"/>
<path opacity="0.35" d="M236.574 107.7V109.057L232.327 106.601V107.958L235.743 109.931V111.288L232.319 109.307V110.664L236.566 113.12L236.557 114.477L231.122 111.338L231.147 104.553L236.574 107.7Z" fill="#58E0AB"/>
<path opacity="0.35" d="M243.605 111.763L243.596 113.12L241.245 111.754L241.228 117.174L240.048 116.5L240.065 111.072L237.713 109.707V108.358L243.605 111.763Z" fill="#58E0AB"/>
</g>
<path d="M244.544 111.288C245.898 112.071 247.004 113.977 246.995 115.542L246.962 126.548C246.954 128.113 245.849 128.737 244.494 127.955L217.792 112.512C216.438 111.729 215.341 109.823 215.341 108.266L215.374 97.2606C215.382 95.6872 216.479 95.0628 217.842 95.8453L244.544 111.288Z" fill="url(#paint48_linear)"/>
<path d="M225.953 105.494C226.269 105.677 226.543 105.968 226.776 106.36C227.009 106.759 227.125 107.151 227.125 107.525V108.1L225.928 107.409V107.151C225.928 106.959 225.92 106.859 225.92 106.843C225.912 106.826 225.829 106.768 225.654 106.668L222.679 104.953C222.513 104.861 222.43 104.811 222.421 104.82C222.413 104.828 222.405 104.92 222.405 105.111V105.827C222.405 106.018 222.413 106.118 222.421 106.135C222.43 106.16 222.513 106.218 222.679 106.31L225.945 108.2C226.261 108.383 226.535 108.674 226.768 109.065C227 109.473 227.117 109.848 227.117 110.223V111.588C227.117 111.962 227 112.221 226.768 112.345C226.535 112.47 226.261 112.445 225.937 112.262L222.396 110.214C222.072 110.031 221.798 109.731 221.574 109.34C221.349 108.949 221.233 108.558 221.233 108.183V107.6L222.405 108.274V108.533C222.405 108.724 222.413 108.824 222.421 108.849C222.43 108.866 222.513 108.924 222.679 109.015L225.654 110.73C225.82 110.83 225.912 110.872 225.92 110.864C225.928 110.847 225.928 110.755 225.928 110.564V109.848C225.928 109.656 225.92 109.557 225.92 109.54C225.912 109.523 225.829 109.465 225.654 109.365L222.405 107.484C222.081 107.3 221.806 107.001 221.582 106.61C221.358 106.218 221.241 105.827 221.241 105.461V104.095C221.241 103.721 221.358 103.463 221.59 103.329C221.823 103.196 222.097 103.23 222.421 103.421L225.953 105.494Z" fill="white"/>
<path d="M234.081 110.198V111.555L229.834 109.099V110.456L233.25 112.429V113.786L229.826 111.804V113.161L234.073 115.617L234.064 116.974L228.629 113.836L228.654 107.051L234.081 110.198Z" fill="white"/>
<path d="M241.112 114.26L241.103 115.617L238.751 114.252L238.735 119.671L237.555 118.997L237.571 113.569L235.219 112.204V110.855L241.112 114.26Z" fill="white"/>
<g opacity="0.35">
<path d="M120.186 15.7258C122.338 14.477 124.1 15.4843 124.108 17.9652L124.2 51.5896C124.208 54.0788 122.463 57.1007 120.302 58.3495L66.1263 89.6846C63.9739 90.9334 62.2121 89.9344 62.2037 87.4452L62.1123 53.8207C62.104 51.3399 63.8492 48.3096 66.0099 47.0609L120.186 15.7258Z" fill="url(#paint49_linear)"/>
<path opacity="0.35" d="M74.5199 61.4214L74.5698 77.9298L68.3951 81.5012L68.3452 64.9928L74.5199 61.4214Z" fill="#C0C0ED"/>
<path opacity="0.35" d="M84.0853 48.376L84.1518 72.3851L77.9771 75.9565L77.9023 51.9557L84.0853 48.376Z" fill="#C0C0ED"/>
<path opacity="0.35" d="M95.005 38.1782L95.0881 66.0668L88.9051 69.6382L88.822 41.758L95.005 38.1782Z" fill="#C0C0ED"/>
<path opacity="0.35" d="M106.872 61.438L106.881 62.9115L79.3232 78.8454L79.3149 77.3803L106.872 61.438Z" fill="#C0C0ED"/>
<path opacity="0.35" d="M105.9 35.7642L105.967 59.7733L99.7838 63.3447L99.7173 39.3439L105.9 35.7642Z" fill="#C0C0ED"/>
<path opacity="0.35" d="M117.709 23.0684L117.792 52.93L111.609 56.5097L111.526 26.6481L117.709 23.0684Z" fill="#C0C0ED"/>
<path opacity="0.35" d="M74.4866 48.7173L74.4949 50.0493L67.78 53.9287V52.5967L74.4866 48.7173Z" fill="#C0C0ED"/>
<path opacity="0.35" d="M79.8219 42.2988V43.6391L67.7717 50.6071V49.2751L79.8219 42.2988Z" fill="#C0C0ED"/>
</g>
<path d="M122.679 19.0558C124.831 17.8071 126.593 18.8144 126.602 21.2952L126.693 54.9197C126.701 57.4089 124.956 60.4308 122.795 61.6796L68.6195 93.0147C66.467 94.2634 64.7052 93.2644 64.6969 90.7753L64.6055 57.1508C64.5972 54.67 66.3424 51.6397 68.5031 50.3909L122.679 19.0558Z" fill="url(#paint50_linear)"/>
<path d="M77.013 64.7515L77.0629 81.2598L70.8882 84.8313L70.8384 68.3229L77.013 64.7515Z" fill="url(#paint51_linear)"/>
<path d="M86.5782 51.7061L86.6447 75.7152L80.4701 79.2866L80.3953 55.2858L86.5782 51.7061Z" fill="url(#paint52_linear)"/>
<path d="M97.4982 41.5083L97.5813 69.3969L91.3983 72.9683L91.3152 45.088L97.4982 41.5083Z" fill="url(#paint53_linear)"/>
<path d="M109.366 64.7681L109.374 66.2416L81.8164 82.1755L81.8081 80.7103L109.366 64.7681Z" fill="#C1C5F4"/>
<path d="M108.393 39.0938L108.46 63.1029L102.277 66.6743L102.21 42.6735L108.393 39.0938Z" fill="url(#paint54_linear)"/>
<path d="M120.202 26.3984L120.286 56.26L114.103 59.8398L114.02 29.9782L120.202 26.3984Z" fill="url(#paint55_linear)"/>
<path d="M76.9797 52.0474L76.9881 53.3794L70.2732 57.2588V55.9268L76.9797 52.0474Z" fill="#C1C5F4"/>
<path d="M82.3151 45.6289V46.9692L70.2649 53.9372V52.6052L82.3151 45.6289Z" fill="#C1C5F4"/>
<g opacity="0.35">
<path d="M92.5286 84.6228C94.2987 83.5989 95.7365 84.423 95.7448 86.4543L95.8694 131.576C95.8777 133.615 94.4483 136.088 92.6782 137.112L65.4614 152.854C63.6913 153.878 62.2536 153.054 62.2453 151.023L62.1206 105.901C62.1123 103.862 63.5417 101.389 65.3119 100.365L92.5286 84.6228Z" fill="url(#paint56_linear)"/>
<path opacity="0.35" d="M67.2316 107.866C67.9379 107.458 68.5114 107.791 68.5114 108.599C68.5114 109.415 67.9379 110.405 67.2399 110.813C66.5335 111.221 65.9601 110.897 65.9601 110.081C65.9517 109.265 66.5252 108.274 67.2316 107.866Z" fill="#C0C0ED"/>
<path opacity="0.35" d="M85.5563 97.7183V99.2834L70.3481 108.083V106.509L85.5563 97.7183Z" fill="#C0C0ED"/>
<path opacity="0.35" d="M94.1574 88.6855L94.4898 89.2267C93.8083 90.0342 93.21 91.0415 92.7363 92.0072C92.5701 92.3402 92.4205 92.6732 92.2792 92.9895C91.6559 94.4048 91.3152 95.5453 91.3069 95.5703L91.1407 96.1281L89.4121 95.8284L89.8027 94.9126L90.8166 95.0958C90.9994 94.5546 91.3152 93.6722 91.764 92.6732C91.8886 92.3985 92.0133 92.1238 92.1546 91.8407C92.6947 90.7501 93.3679 89.6179 94.1574 88.6855Z" fill="#C0C0ED"/>
<path opacity="0.35" d="M92.03 101.714C92.0798 101.681 92.138 101.656 92.1879 101.639C92.0466 101.922 91.9136 102.205 91.7973 102.472L89.0964 104.028C88.9468 104.112 88.8305 104.311 88.8305 104.486L88.8388 107.866C88.8388 108.041 88.9551 108.108 89.1047 108.016L92.0383 106.318C92.1879 106.235 92.3042 106.035 92.3042 105.86L92.2959 102.796C92.4372 102.48 92.5868 102.147 92.753 101.814C92.8028 101.906 92.8278 102.022 92.8278 102.164L92.8361 105.544C92.8361 106.06 92.4787 106.676 92.0383 106.926L89.1047 108.624C88.6559 108.882 88.2986 108.682 88.2986 108.166L88.2903 104.786C88.2903 104.27 88.6476 103.645 89.0964 103.387L92.03 101.714Z" fill="#C0C0ED"/>
<path opacity="0.35" d="M94.1825 98.4922L94.515 99.0333C93.8252 99.8408 93.2351 100.848 92.7614 101.822C92.5952 102.155 92.4456 102.488 92.3044 102.805C91.6811 104.22 91.3404 105.369 91.332 105.385L91.1658 105.943L89.4373 105.635L89.8278 104.719L90.8417 104.902C91.0246 104.361 91.3403 103.479 91.7891 102.48C91.9138 102.205 92.0384 101.93 92.1797 101.647C92.7282 100.557 93.393 99.4246 94.1825 98.4922Z" fill="#C0C0ED"/>
<path opacity="0.35" d="M92.0051 91.8987C92.055 91.8654 92.1131 91.8404 92.163 91.8237C92.0217 92.1068 91.8888 92.3898 91.7724 92.6562L89.0715 94.213C88.9219 94.2962 88.8056 94.496 88.8056 94.6625L88.8139 98.0508C88.8139 98.2173 88.9302 98.2922 89.0798 98.2006L92.0134 96.5023C92.163 96.4191 92.2793 96.211 92.2793 96.0445L92.271 92.9809C92.4123 92.6645 92.5619 92.3316 92.7281 91.9986C92.778 92.0901 92.8029 92.2067 92.8029 92.3482L92.8112 95.7364C92.8112 96.2443 92.4539 96.8686 92.0134 97.1184L89.0798 98.8167C88.631 99.0747 88.2737 98.8666 88.2737 98.3588L88.2654 94.9706C88.2654 94.4627 88.6227 93.8384 89.0715 93.5803L92.0051 91.8987Z" fill="#C0C0ED"/>
<path opacity="0.35" d="M67.2566 117.673C67.963 117.265 68.5364 117.598 68.5364 118.406C68.5364 119.221 67.963 120.212 67.2649 120.62C66.5585 121.028 65.9851 120.703 65.9851 119.887C65.9851 119.08 66.5502 118.089 67.2566 117.673Z" fill="#C0C0ED"/>
<path opacity="0.35" d="M85.5812 107.525L85.5895 109.09L70.373 117.889V116.324L85.5812 107.525Z" fill="#C0C0ED"/>
<path opacity="0.35" d="M67.2815 127.047C67.9879 126.639 68.5613 126.963 68.5613 127.779C68.5613 128.587 67.9879 129.586 67.2898 129.994C66.5834 130.402 66.01 130.069 66.01 129.261C66.01 128.445 66.5751 127.454 67.2815 127.047Z" fill="#C0C0ED"/>
<path opacity="0.35" d="M87.0769 132.733C88.0907 132.15 88.9135 132.616 88.9135 133.782C88.9135 134.939 88.099 136.362 87.0852 136.945L73.4394 144.837C72.4255 145.42 71.6028 144.954 71.6028 143.797C71.6028 142.631 72.4172 141.216 73.4311 140.625L87.0769 132.733Z" fill="#C0C0ED"/>
<path opacity="0.35" d="M85.6393 126.264V127.829L70.4312 136.629L70.4229 135.055L85.6393 126.264Z" fill="#C0C0ED"/>
<path opacity="0.35" d="M85.6061 116.891L85.6144 118.456L70.4063 127.255L70.3979 125.69L85.6061 116.891Z" fill="#C0C0ED"/>
<path opacity="0.35" d="M92.0632 111.079C92.1131 111.046 92.1712 111.021 92.2211 111.004C92.0798 111.287 91.9552 111.562 91.8305 111.829L89.1296 113.394C88.98 113.477 88.8637 113.685 88.8637 113.852L88.872 117.231C88.872 117.406 88.9883 117.473 89.1379 117.381L92.0715 115.683C92.2211 115.6 92.3374 115.4 92.3374 115.225L92.3291 112.17C92.4704 111.854 92.62 111.521 92.7862 111.188C92.8361 111.279 92.861 111.396 92.861 111.537L92.8693 114.917C92.8693 115.433 92.512 116.058 92.0715 116.307L89.1379 118.006C88.6891 118.264 88.3318 118.056 88.3318 117.539L88.3235 114.16C88.3235 113.652 88.6808 113.027 89.1296 112.769L92.0632 111.079Z" fill="#C0C0ED"/>
<path opacity="0.35" d="M94.2072 107.866L94.5396 108.407C93.8499 109.215 93.2598 110.222 92.7778 111.196C92.6116 111.529 92.462 111.862 92.3207 112.179C91.6974 113.594 91.3567 114.743 91.3484 114.759L91.1822 115.317L89.4536 115.017L89.8442 114.102L90.8581 114.285C91.0409 113.744 91.3567 112.853 91.8138 111.854C91.9384 111.587 92.0631 111.313 92.2044 111.03C92.7529 109.931 93.4177 108.799 94.2072 107.866Z" fill="#C0C0ED"/>
<path opacity="0.35" d="M67.3146 136.412C68.0209 136.004 68.5944 136.337 68.5944 137.145C68.5944 137.961 68.0209 138.951 67.3229 139.359C66.6165 139.767 66.0431 139.443 66.0431 138.627C66.0347 137.811 66.5999 136.82 67.3146 136.412Z" fill="#C0C0ED"/>
<path opacity="0.35" d="M92.0881 120.445C92.5285 120.187 92.8859 120.395 92.8942 120.903L92.9025 124.291C92.9025 124.799 92.5452 125.423 92.1047 125.673L89.1711 127.371C88.7224 127.629 88.365 127.421 88.365 126.913L88.3567 123.525C88.3567 123.017 88.714 122.393 89.1628 122.135L92.0881 120.445ZM92.3623 124.599L92.354 121.211C92.354 121.044 92.2377 120.978 92.0881 121.069L89.1545 122.768C89.0049 122.851 88.8886 123.051 88.8886 123.217L88.8969 126.605C88.8969 126.772 89.0132 126.847 89.1628 126.755L92.0964 125.057C92.246 124.974 92.3623 124.766 92.3623 124.599Z" fill="#C0C0ED"/>
</g>
<path d="M95.0218 87.9529C96.7919 86.9289 98.2296 87.7531 98.2379 89.7844L98.3626 134.906C98.3709 136.945 96.9415 139.418 95.1714 140.442L67.9546 156.184C66.1845 157.208 64.7468 156.384 64.7385 154.353L64.6138 109.231C64.6055 107.192 66.0349 104.719 67.805 103.695L95.0218 87.9529Z" fill="url(#paint57_linear)"/>
<path d="M69.7247 111.196C70.4311 110.789 71.0045 111.121 71.0045 111.929C71.0045 112.745 70.4311 113.736 69.733 114.143C69.0266 114.551 68.4532 114.227 68.4532 113.411C68.4449 112.595 69.0183 111.604 69.7247 111.196Z" fill="#C1C5F4"/>
<path d="M88.0492 101.048V102.613L72.8411 111.413V109.839L88.0492 101.048Z" fill="#C1C5F4"/>
<path d="M96.6506 92.0156L96.983 92.5567C96.3015 93.3643 95.7032 94.3716 95.2295 95.3373C95.0633 95.6703 94.9137 96.0033 94.7724 96.3196C94.1491 97.7349 93.8084 98.8754 93.8001 98.9004L93.6339 99.4581L91.9053 99.1584L92.2959 98.2427L93.3097 98.4258C93.4926 97.8847 93.8084 97.0023 94.2571 96.0033C94.3818 95.7286 94.5065 95.4538 94.6477 95.1708C95.1879 94.0802 95.8611 92.948 96.6506 92.0156Z" fill="url(#paint58_linear)"/>
<path d="M94.5232 105.044C94.573 105.011 94.6312 104.986 94.6811 104.969C94.5398 105.252 94.4068 105.535 94.2905 105.802L91.5896 107.359C91.44 107.442 91.3236 107.642 91.3236 107.816L91.3319 111.196C91.3319 111.371 91.4483 111.438 91.5979 111.346L94.5315 109.648C94.6811 109.565 94.7974 109.365 94.7974 109.19L94.7891 106.126C94.9304 105.81 95.08 105.477 95.2462 105.144C95.296 105.236 95.321 105.352 95.321 105.494L95.3293 108.874C95.3293 109.39 94.9719 110.006 94.5315 110.256L91.5979 111.954C91.1491 112.212 90.7918 112.012 90.7918 111.496L90.7834 108.116C90.7834 107.6 91.1408 106.976 91.5896 106.717L94.5232 105.044Z" fill="#C1C5F4"/>
<path d="M96.6755 101.822L97.0079 102.363C96.3181 103.171 95.7281 104.178 95.2544 105.152C95.0882 105.485 94.9386 105.818 94.7973 106.135C94.174 107.55 93.8333 108.699 93.825 108.715L93.6588 109.273L91.9302 108.965L92.3208 108.049L93.3346 108.232C93.5175 107.691 93.8333 106.809 94.282 105.81C94.4067 105.535 94.5314 105.26 94.6726 104.977C95.2211 103.887 95.886 102.755 96.6755 101.822Z" fill="url(#paint59_linear)"/>
<path d="M94.4983 95.2292C94.5481 95.1959 94.6063 95.1709 94.6562 95.1543C94.5149 95.4373 94.3819 95.7204 94.2656 95.9868L91.5647 97.5436C91.4151 97.6268 91.2987 97.8266 91.2987 97.9931L91.307 101.381C91.307 101.548 91.4234 101.623 91.573 101.531L94.5066 99.8329C94.6562 99.7497 94.7725 99.5415 94.7725 99.375L94.7642 96.3115C94.9055 95.9951 95.0551 95.6621 95.2213 95.3291C95.2711 95.4207 95.2961 95.5372 95.2961 95.6788L95.3044 99.067C95.3044 99.5748 94.947 100.199 94.5066 100.449L91.573 102.147C91.1242 102.405 90.7669 102.197 90.7669 101.689L90.7585 98.3011C90.7585 97.7933 91.1159 97.1689 91.5647 96.9109L94.4983 95.2292Z" fill="#C1C5F4"/>
<path d="M69.7495 121.003C70.4559 120.595 71.0293 120.928 71.0293 121.736C71.0293 122.552 70.4559 123.542 69.7578 123.95C69.0514 124.358 68.478 124.033 68.478 123.217C68.478 122.41 69.0431 121.419 69.7495 121.003Z" fill="#C1C5F4"/>
<path d="M88.0741 110.855L88.0824 112.42L72.866 121.22V119.654L88.0741 110.855Z" fill="#C1C5F4"/>
<path d="M69.7747 130.377C70.4811 129.969 71.0545 130.294 71.0545 131.11C71.0545 131.917 70.4811 132.916 69.783 133.324C69.0766 133.732 68.5032 133.399 68.5032 132.592C68.5032 131.776 69.0683 130.785 69.7747 130.377Z" fill="#C1C5F4"/>
<path d="M89.57 136.063C90.5839 135.48 91.4066 135.946 91.4066 137.112C91.4066 138.269 90.5922 139.693 89.5783 140.275L75.9326 148.167C74.9187 148.75 74.0959 148.284 74.0959 147.127C74.0959 145.961 74.9104 144.546 75.9242 143.955L89.57 136.063Z" fill="url(#paint60_linear)"/>
<path d="M88.1325 129.594V131.159L72.9243 139.959L72.916 138.385L88.1325 129.594Z" fill="#C1C5F4"/>
<path d="M88.099 120.221L88.1073 121.786L72.8992 130.585L72.8909 129.02L88.099 120.221Z" fill="#C1C5F4"/>
<path d="M94.5564 114.41C94.6062 114.377 94.6644 114.352 94.7143 114.335C94.573 114.618 94.4483 114.893 94.3237 115.159L91.6228 116.724C91.4732 116.807 91.3568 117.016 91.3568 117.182L91.3651 120.562C91.3651 120.737 91.4815 120.803 91.6311 120.712L94.5647 119.014C94.7143 118.93 94.8306 118.731 94.8306 118.556L94.8223 115.5C94.9636 115.184 95.1132 114.851 95.2794 114.518C95.3293 114.61 95.3542 114.726 95.3542 114.868L95.3625 118.248C95.3625 118.764 95.0051 119.388 94.5647 119.638L91.6311 121.336C91.1823 121.594 90.825 121.386 90.825 120.87L90.8167 117.49C90.8167 116.982 91.174 116.358 91.6228 116.1L94.5564 114.41Z" fill="#C1C5F4"/>
<path d="M96.7006 111.196L97.033 111.737C96.3433 112.545 95.7532 113.552 95.2712 114.526C95.105 114.859 94.9554 115.192 94.8141 115.509C94.1908 116.924 93.8501 118.073 93.8418 118.089L93.6756 118.647L91.947 118.347L92.3376 117.432L93.3515 117.615C93.5343 117.074 93.8501 116.183 94.3072 115.184C94.4319 114.918 94.5565 114.643 94.6978 114.36C95.2463 113.261 95.9111 112.129 96.7006 111.196Z" fill="url(#paint61_linear)"/>
<path d="M69.8077 139.742C70.5141 139.334 71.0875 139.667 71.0875 140.475C71.0875 141.291 70.5141 142.281 69.816 142.689C69.1096 143.097 68.5362 142.773 68.5362 141.957C68.5279 141.141 69.093 140.15 69.8077 139.742Z" fill="#C1C5F4"/>
<path d="M94.5812 123.776C95.0217 123.517 95.379 123.726 95.3874 124.233L95.3957 127.622C95.3957 128.129 95.0383 128.754 94.5979 129.004L91.6643 130.702C91.2155 130.96 90.8582 130.752 90.8582 130.244L90.8499 126.856C90.8499 126.348 91.2072 125.724 91.656 125.465L94.5812 123.776ZM94.8555 127.93L94.8472 124.541C94.8472 124.375 94.7308 124.308 94.5812 124.4L91.6477 126.098C91.4981 126.181 91.3817 126.381 91.3817 126.548L91.39 129.936C91.39 130.102 91.5064 130.177 91.656 130.086L94.5896 128.388C94.7391 128.304 94.8555 128.096 94.8555 127.93Z" fill="#C1C5F4"/>
<g opacity="0.35">
<path opacity="0.35" d="M106.266 82.1837C107.055 81.7258 107.695 82.0921 107.695 82.9995C107.695 83.8986 107.064 85.0058 106.274 85.4637C105.485 85.9216 104.845 85.5553 104.845 84.6478C104.836 83.7404 105.476 82.6415 106.266 82.1837Z" fill="#C0C0ED"/>
<path opacity="0.35" d="M111.676 79.0538C112.465 78.5959 113.105 78.9622 113.105 79.8696C113.105 80.7687 112.474 81.8759 111.684 82.3338C110.895 82.7917 110.263 82.417 110.255 81.518C110.255 80.6105 110.886 79.5116 111.676 79.0538Z" fill="#C0C0ED"/>
<path opacity="0.35" d="M116.961 75.9986C117.751 75.5407 118.382 75.9153 118.391 76.8144C118.391 77.7135 117.759 78.8207 116.97 79.2786C116.18 79.7365 115.54 79.3702 115.54 78.4627C115.532 77.5636 116.172 76.4564 116.961 75.9986Z" fill="#C0C0ED"/>
<path opacity="0.35" d="M122.371 72.8682C123.161 72.4104 123.801 72.7767 123.801 73.6841C123.801 74.5832 123.169 75.6904 122.38 76.1482C121.59 76.6061 120.95 76.2398 120.95 75.3324C120.942 74.4333 121.582 73.3261 122.371 72.8682Z" fill="#C0C0ED"/>
<path d="M126.352 65.0511C127.142 64.5933 127.79 64.9595 127.79 65.8753L127.823 76.8476C127.823 77.7633 127.183 78.8789 126.394 79.3367L102.975 92.8814C102.177 93.3393 101.529 92.973 101.529 92.0573L101.496 81.085C101.496 80.1692 102.136 79.0537 102.933 78.5958L126.352 65.0511ZM106.274 85.4639C107.064 85.006 107.695 83.8988 107.695 82.9997C107.695 82.0923 107.047 81.726 106.266 82.1839C105.476 82.6417 104.845 83.749 104.845 84.6481C104.845 85.5555 105.485 85.9218 106.274 85.4639ZM122.38 76.1483C123.169 75.6904 123.801 74.5832 123.801 73.6841C123.801 72.7767 123.153 72.4104 122.371 72.8683C121.582 73.3261 120.95 74.4333 120.95 75.3324C120.95 76.2399 121.59 76.6062 122.38 76.1483ZM111.684 82.3337C112.474 81.8759 113.105 80.7686 113.105 79.8695C113.105 78.9621 112.457 78.5958 111.676 79.0537C110.886 79.5116 110.255 80.6105 110.255 81.5179C110.255 82.4253 110.895 82.7916 111.684 82.3337ZM116.97 79.2785C117.759 78.8206 118.391 77.7217 118.391 76.8143C118.391 75.9069 117.751 75.5406 116.961 75.9984C116.172 76.4563 115.54 77.5635 115.54 78.4709C115.54 79.37 116.18 79.7363 116.97 79.2785Z" fill="url(#paint62_linear)"/>
</g>
<path d="M108.759 85.5137C109.549 85.0559 110.188 85.4222 110.188 86.3296C110.188 87.2287 109.557 88.3359 108.767 88.7938C107.978 89.2517 107.338 88.8853 107.338 87.9779C107.33 87.0705 107.97 85.9716 108.759 85.5137Z" fill="#C1C5F4"/>
<path d="M114.169 82.3839C114.959 81.926 115.599 82.2923 115.599 83.1997C115.599 84.0988 114.967 85.206 114.177 85.6639C113.388 86.1218 112.756 85.7471 112.748 84.848C112.748 83.9406 113.38 82.8417 114.169 82.3839Z" fill="#C1C5F4"/>
<path d="M119.455 79.3286C120.244 78.8708 120.876 79.2454 120.884 80.1445C120.884 81.0436 120.252 82.1508 119.463 82.6087C118.673 83.0666 118.034 82.7003 118.034 81.7928C118.025 80.8937 118.665 79.7865 119.455 79.3286Z" fill="#C1C5F4"/>
<path d="M124.865 76.1983C125.654 75.7404 126.294 76.1067 126.294 77.0142C126.294 77.9132 125.663 79.0205 124.873 79.4783C124.084 79.9362 123.444 79.5699 123.444 78.6625C123.435 77.7634 124.075 76.6562 124.865 76.1983Z" fill="#C1C5F4"/>
<path d="M128.845 68.3812C129.635 67.9233 130.283 68.2896 130.283 69.2054L130.316 80.1777C130.316 81.0934 129.676 82.209 128.887 82.6668L105.468 96.2115C104.67 96.6694 104.022 96.3031 104.022 95.3873L103.989 84.4151C103.989 83.4993 104.629 82.3838 105.426 81.9259L128.845 68.3812ZM108.767 88.794C109.557 88.3361 110.188 87.2289 110.188 86.3298C110.188 85.4224 109.54 85.0561 108.759 85.514C107.969 85.9718 107.338 87.079 107.338 87.9781C107.338 88.8856 107.978 89.2519 108.767 88.794ZM124.873 79.4784C125.662 79.0205 126.294 77.9133 126.294 77.0142C126.294 76.1068 125.646 75.7405 124.865 76.1983C124.075 76.6562 123.444 77.7634 123.444 78.6625C123.444 79.5699 124.083 79.9362 124.873 79.4784ZM114.177 85.6638C114.967 85.2059 115.598 84.0987 115.598 83.1996C115.598 82.2922 114.95 81.9259 114.169 82.3838C113.38 82.8416 112.748 83.9405 112.748 84.848C112.748 85.7554 113.388 86.1217 114.177 85.6638ZM119.463 82.6085C120.252 82.1507 120.884 81.0518 120.884 80.1444C120.884 79.2369 120.244 78.8706 119.455 79.3285C118.665 79.7864 118.033 80.8936 118.033 81.801C118.033 82.7001 118.673 83.0664 119.463 82.6085Z" fill="#EDF3FF"/>
<path d="M271.287 126.023V157.625L285.165 174.391L299.733 158.224V124.433L271.287 126.023Z" fill="url(#paint63_linear)"/>
<path d="M285.599 119.582L303.176 109.359L303.118 129.713L285.541 139.945L285.599 119.582Z" fill="url(#paint64_linear)"/>
<path d="M267.668 109.523L285.236 99.3003L302.929 109.532L285.353 119.755L267.668 109.523Z" fill="url(#paint65_linear)"/>
<path d="M285.464 119.638L285.406 140.001L267.721 129.77L267.78 109.407L285.464 119.638Z" fill="url(#paint66_linear)"/>
<path d="M295.113 244.088V275.689L308.991 292.456L323.568 276.289V242.498L295.113 244.088Z" fill="url(#paint67_linear)"/>
<path d="M309.423 238.76L327 228.528L326.942 248.891L309.374 259.114L309.423 238.76Z" fill="url(#paint68_linear)"/>
<path d="M291.738 228.528L309.307 218.297L327 228.528L309.423 238.76L291.738 228.528Z" fill="url(#paint69_linear)"/>
<path d="M309.423 238.76L309.373 259.114L291.68 248.883L291.739 228.528L309.423 238.76Z" fill="url(#paint70_linear)"/>
<path d="M3.43213 149.658V181.259L17.3106 198.026L31.8871 181.851V148.06L3.43213 149.658Z" fill="url(#paint71_linear)"/>
<path d="M17.7513 141.824L35.3196 131.593L35.2614 151.956L17.6931 162.179L17.7513 141.824Z" fill="url(#paint72_linear)"/>
<path d="M0.0578613 131.593L17.6262 121.361L35.3191 131.593L17.7508 141.824L0.0578613 131.593Z" fill="url(#paint73_linear)"/>
<path d="M17.7511 141.824L17.693 162.179L0 151.947L0.0581732 131.593L17.7511 141.824Z" fill="url(#paint74_linear)"/>
<defs>
<linearGradient id="paint0_linear" x1="277.532" y1="272.334" x2="-178.049" y2="254" gradientUnits="userSpaceOnUse">
<stop stop-color="#A6A6E7"/>
<stop offset="1" stop-color="#EEEFFF"/>
</linearGradient>
<linearGradient id="paint1_linear" x1="211.119" y1="301.922" x2="105.866" y2="189.743" gradientUnits="userSpaceOnUse">
<stop stop-color="#E8EDFE"/>
<stop offset="1" stop-color="#EEF4FF"/>
</linearGradient>
<radialGradient id="paint2_radial" cx="0" cy="0" r="1" gradientUnits="userSpaceOnUse" gradientTransform="translate(142.791 226.984) scale(290.299 290.806)">
<stop stop-color="#A6A6E7"/>
<stop offset="1" stop-color="#EEEFFF" stop-opacity="0"/>
</radialGradient>
<radialGradient id="paint3_radial" cx="0" cy="0" r="1" gradientUnits="userSpaceOnUse" gradientTransform="translate(142.791 226.984) scale(290.301 290.806)">
<stop stop-color="#A6A6E7"/>
<stop offset="1" stop-color="#EEEFFF" stop-opacity="0"/>
</radialGradient>
<radialGradient id="paint4_radial" cx="0" cy="0" r="1" gradientUnits="userSpaceOnUse" gradientTransform="translate(142.791 226.984) scale(290.301 290.808)">
<stop stop-color="#A6A6E7"/>
<stop offset="1" stop-color="#EEEFFF" stop-opacity="0"/>
</radialGradient>
<radialGradient id="paint5_radial" cx="0" cy="0" r="1" gradientUnits="userSpaceOnUse" gradientTransform="translate(142.791 226.984) scale(290.3 290.806)">
<stop stop-color="#A6A6E7"/>
<stop offset="1" stop-color="#EEEFFF" stop-opacity="0"/>
</radialGradient>
<radialGradient id="paint6_radial" cx="0" cy="0" r="1" gradientUnits="userSpaceOnUse" gradientTransform="translate(142.791 226.984) scale(290.299 290.805)">
<stop stop-color="#A6A6E7"/>
<stop offset="1" stop-color="#EEEFFF" stop-opacity="0"/>
</radialGradient>
<radialGradient id="paint7_radial" cx="0" cy="0" r="1" gradientUnits="userSpaceOnUse" gradientTransform="translate(142.791 226.984) scale(290.299 290.804)">
<stop stop-color="#A6A6E7"/>
<stop offset="1" stop-color="#EEEFFF" stop-opacity="0"/>
</radialGradient>
<radialGradient id="paint8_radial" cx="0" cy="0" r="1" gradientUnits="userSpaceOnUse" gradientTransform="translate(142.791 226.984) scale(290.301 290.808)">
<stop stop-color="#A6A6E7"/>
<stop offset="1" stop-color="#EEEFFF" stop-opacity="0"/>
</radialGradient>
<radialGradient id="paint9_radial" cx="0" cy="0" r="1" gradientUnits="userSpaceOnUse" gradientTransform="translate(142.791 226.984) scale(290.299 290.805)">
<stop stop-color="#A6A6E7"/>
<stop offset="1" stop-color="#EEEFFF" stop-opacity="0"/>
</radialGradient>
<radialGradient id="paint10_radial" cx="0" cy="0" r="1" gradientUnits="userSpaceOnUse" gradientTransform="translate(142.791 226.984) scale(290.3 290.806)">
<stop stop-color="#A6A6E7"/>
<stop offset="1" stop-color="#EEEFFF" stop-opacity="0"/>
</radialGradient>
<radialGradient id="paint11_radial" cx="0" cy="0" r="1" gradientUnits="userSpaceOnUse" gradientTransform="translate(142.791 226.983) scale(290.299 290.804)">
<stop stop-color="#A6A6E7"/>
<stop offset="1" stop-color="#EEEFFF" stop-opacity="0"/>
</radialGradient>
<radialGradient id="paint12_radial" cx="0" cy="0" r="1" gradientUnits="userSpaceOnUse" gradientTransform="translate(142.791 226.984) scale(290.301 290.807)">
<stop stop-color="#A6A6E7"/>
<stop offset="1" stop-color="#EEEFFF" stop-opacity="0"/>
</radialGradient>
<radialGradient id="paint13_radial" cx="0" cy="0" r="1" gradientUnits="userSpaceOnUse" gradientTransform="translate(142.791 226.984) scale(290.301 290.807)">
<stop stop-color="#A6A6E7"/>
<stop offset="1" stop-color="#EEEFFF" stop-opacity="0"/>
</radialGradient>
<radialGradient id="paint14_radial" cx="0" cy="0" r="1" gradientUnits="userSpaceOnUse" gradientTransform="translate(142.791 226.984) scale(290.301 290.807)">
<stop stop-color="#A6A6E7"/>
<stop offset="1" stop-color="#EEEFFF" stop-opacity="0"/>
</radialGradient>
<radialGradient id="paint15_radial" cx="0" cy="0" r="1" gradientUnits="userSpaceOnUse" gradientTransform="translate(142.791 226.984) scale(290.299 290.807)">
<stop stop-color="#A6A6E7"/>
<stop offset="1" stop-color="#EEEFFF" stop-opacity="0"/>
</radialGradient>
<radialGradient id="paint16_radial" cx="0" cy="0" r="1" gradientUnits="userSpaceOnUse" gradientTransform="translate(142.791 226.984) scale(290.3 290.806)">
<stop stop-color="#A6A6E7"/>
<stop offset="1" stop-color="#EEEFFF" stop-opacity="0"/>
</radialGradient>
<radialGradient id="paint17_radial" cx="0" cy="0" r="1" gradientUnits="userSpaceOnUse" gradientTransform="translate(142.791 226.984) scale(290.299 290.806)">
<stop stop-color="#A6A6E7"/>
<stop offset="1" stop-color="#EEEFFF" stop-opacity="0"/>
</radialGradient>
<radialGradient id="paint18_radial" cx="0" cy="0" r="1" gradientUnits="userSpaceOnUse" gradientTransform="translate(142.791 226.984) scale(290.299 290.802)">
<stop stop-color="#A6A6E7"/>
<stop offset="1" stop-color="#EEEFFF" stop-opacity="0"/>
</radialGradient>
<radialGradient id="paint19_radial" cx="0" cy="0" r="1" gradientUnits="userSpaceOnUse" gradientTransform="translate(142.791 226.984) scale(290.3 290.806)">
<stop stop-color="#A6A6E7"/>
<stop offset="1" stop-color="#EEEFFF" stop-opacity="0"/>
</radialGradient>
<radialGradient id="paint20_radial" cx="0" cy="0" r="1" gradientUnits="userSpaceOnUse" gradientTransform="translate(142.791 226.984) scale(290.3 290.808)">
<stop stop-color="#A6A6E7"/>
<stop offset="1" stop-color="#EEEFFF" stop-opacity="0"/>
</radialGradient>
<radialGradient id="paint21_radial" cx="0" cy="0" r="1" gradientUnits="userSpaceOnUse" gradientTransform="translate(142.791 226.984) scale(290.301 290.807)">
<stop stop-color="#A6A6E7"/>
<stop offset="1" stop-color="#EEEFFF" stop-opacity="0"/>
</radialGradient>
<radialGradient id="paint22_radial" cx="0" cy="0" r="1" gradientUnits="userSpaceOnUse" gradientTransform="translate(142.791 226.984) scale(290.3 290.807)">
<stop stop-color="#A6A6E7"/>
<stop offset="1" stop-color="#EEEFFF" stop-opacity="0"/>
</radialGradient>
<linearGradient id="paint23_linear" x1="194.097" y1="108.249" x2="188.235" y2="101.434" gradientUnits="userSpaceOnUse">
<stop stop-color="#FF8587"/>
<stop offset="1" stop-color="#FFAEAE"/>
</linearGradient>
<linearGradient id="paint24_linear" x1="130.399" y1="136.434" x2="137.716" y2="136.434" gradientUnits="userSpaceOnUse">
<stop stop-color="#D5E6F9"/>
<stop offset="1" stop-color="#EEEFFF"/>
</linearGradient>
<linearGradient id="paint25_linear" x1="137.316" y1="149.731" x2="150.328" y2="149.731" gradientUnits="userSpaceOnUse">
<stop stop-color="#D5E6F9"/>
<stop offset="1" stop-color="#EEEFFF"/>
</linearGradient>
<linearGradient id="paint26_linear" x1="140.4" y1="89.989" x2="159.776" y2="89.989" gradientUnits="userSpaceOnUse">
<stop stop-color="#FF8587"/>
<stop offset="1" stop-color="#FFAEAE"/>
</linearGradient>
<linearGradient id="paint27_linear" x1="153.19" y1="104.54" x2="142.81" y2="96.892" gradientUnits="userSpaceOnUse">
<stop stop-color="#D5E6F9"/>
<stop offset="1" stop-color="#EEEFFF"/>
</linearGradient>
<linearGradient id="paint28_linear" x1="185.587" y1="110.839" x2="191.834" y2="110.839" gradientUnits="userSpaceOnUse">
<stop stop-color="#D5E6F9"/>
<stop offset="1" stop-color="#EEEFFF"/>
</linearGradient>
<linearGradient id="paint29_linear" x1="189.782" y1="113.348" x2="190.66" y2="113.348" gradientUnits="userSpaceOnUse">
<stop stop-color="#D5E6F9"/>
<stop offset="1" stop-color="#EEEFFF"/>
</linearGradient>
<linearGradient id="paint30_linear" x1="189.343" y1="114.884" x2="190.221" y2="114.884" gradientUnits="userSpaceOnUse">
<stop stop-color="#D5E6F9"/>
<stop offset="1" stop-color="#EEEFFF"/>
</linearGradient>
<linearGradient id="paint31_linear" x1="253.419" y1="5.58474" x2="255.014" y2="15.3098" gradientUnits="userSpaceOnUse">
<stop stop-color="#17BFA6"/>
<stop offset="1" stop-color="#17ECC7"/>
</linearGradient>
<linearGradient id="paint32_linear" x1="269.09" y1="21.8407" x2="317.11" y2="60.9918" gradientUnits="userSpaceOnUse">
<stop stop-color="#17BFA6"/>
<stop offset="1" stop-color="#17ECC7"/>
</linearGradient>
<linearGradient id="paint33_linear" x1="244.989" y1="33.5683" x2="286.998" y2="33.5683" gradientUnits="userSpaceOnUse">
<stop stop-color="#E8EDFE"/>
<stop offset="1" stop-color="#EEF4FF"/>
</linearGradient>
<linearGradient id="paint34_linear" x1="253.16" y1="24.2056" x2="292.511" y2="75.9759" gradientUnits="userSpaceOnUse">
<stop stop-color="#17BFA6"/>
<stop offset="1" stop-color="#17ECC7"/>
</linearGradient>
<linearGradient id="paint35_linear" x1="285.021" y1="84.009" x2="237.612" y2="59.0921" gradientUnits="userSpaceOnUse">
<stop stop-color="#17D6A6"/>
<stop offset="1" stop-color="#17ECC7"/>
</linearGradient>
<linearGradient id="paint36_linear" x1="275.396" y1="42.7572" x2="262.671" y2="27.7002" gradientUnits="userSpaceOnUse">
<stop stop-color="#FFAF59"/>
<stop offset="1" stop-color="#FFDA59"/>
</linearGradient>
<linearGradient id="paint37_linear" x1="226.425" y1="41.8189" x2="122.46" y2="40.7809" gradientUnits="userSpaceOnUse">
<stop stop-color="#A6A6E7"/>
<stop offset="1" stop-color="#EEEFFF"/>
</linearGradient>
<linearGradient id="paint38_linear" x1="191.888" y1="70.4617" x2="192.036" y2="26.1004" gradientUnits="userSpaceOnUse">
<stop stop-color="#E8EDFE"/>
<stop offset="1" stop-color="#EEF4FF"/>
</linearGradient>
<linearGradient id="paint39_linear" x1="185.106" y1="48.6795" x2="166.272" y2="40.3601" gradientUnits="userSpaceOnUse">
<stop stop-color="#17D6A6"/>
<stop offset="1" stop-color="#17ECC7"/>
</linearGradient>
<linearGradient id="paint40_linear" x1="205.168" y1="57.1772" x2="191.966" y2="52.9755" gradientUnits="userSpaceOnUse">
<stop stop-color="#FFAF59"/>
<stop offset="1" stop-color="#FFDA59"/>
</linearGradient>
<linearGradient id="paint41_linear" x1="249.907" y1="70.6326" x2="221.821" y2="70.533" gradientUnits="userSpaceOnUse">
<stop stop-color="#A6A6E7"/>
<stop offset="1" stop-color="#EEEFFF"/>
</linearGradient>
<linearGradient id="paint42_linear" x1="230.138" y1="71.8781" x2="246.223" y2="71.8781" gradientUnits="userSpaceOnUse">
<stop stop-color="#E8EDFE"/>
<stop offset="1" stop-color="#EEF4FF"/>
</linearGradient>
<linearGradient id="paint43_linear" x1="233.185" y1="87.3197" x2="243.086" y2="87.3197" gradientUnits="userSpaceOnUse">
<stop stop-color="#AB58D8"/>
<stop offset="1" stop-color="#FF86D8"/>
</linearGradient>
<linearGradient id="paint44_linear" x1="233.23" y1="71.678" x2="243.131" y2="71.678" gradientUnits="userSpaceOnUse">
<stop stop-color="#27A7F9"/>
<stop offset="1" stop-color="#4FCCF9"/>
</linearGradient>
<linearGradient id="paint45_linear" x1="233.274" y1="56.0365" x2="243.175" y2="56.0365" gradientUnits="userSpaceOnUse">
<stop stop-color="#17D6A6"/>
<stop offset="1" stop-color="#17ECC7"/>
</linearGradient>
<linearGradient id="paint46_linear" x1="213.843" y1="83.3774" x2="129.933" y2="82.2234" gradientUnits="userSpaceOnUse">
<stop stop-color="#A6A6E7"/>
<stop offset="1" stop-color="#EEEFFF"/>
</linearGradient>
<linearGradient id="paint47_linear" x1="186.547" y1="105.97" x2="186.15" y2="78.6712" gradientUnits="userSpaceOnUse">
<stop stop-color="#E8EDFE"/>
<stop offset="1" stop-color="#EEF4FF"/>
</linearGradient>
<linearGradient id="paint48_linear" x1="215.342" y1="111.896" x2="246.996" y2="111.896" gradientUnits="userSpaceOnUse">
<stop stop-color="#17D6A6"/>
<stop offset="1" stop-color="#17ECC7"/>
</linearGradient>
<linearGradient id="paint49_linear" x1="125.592" y1="55.3343" x2="17.2195" y2="54.1597" gradientUnits="userSpaceOnUse">
<stop stop-color="#A6A6E7"/>
<stop offset="1" stop-color="#EEEFFF"/>
</linearGradient>
<linearGradient id="paint50_linear" x1="64.6061" y1="56.0344" x2="126.696" y2="56.0344" gradientUnits="userSpaceOnUse">
<stop stop-color="#E8EDFE"/>
<stop offset="1" stop-color="#EEF4FF"/>
</linearGradient>
<linearGradient id="paint51_linear" x1="77.475" y1="98.4608" x2="66.3613" y2="96.0541" gradientUnits="userSpaceOnUse">
<stop stop-color="#FFAF59"/>
<stop offset="1" stop-color="#FFDA59"/>
</linearGradient>
<linearGradient id="paint52_linear" x1="87.0582" y1="98.0161" x2="75.6619" y2="96.2129" gradientUnits="userSpaceOnUse">
<stop stop-color="#17D6A6"/>
<stop offset="1" stop-color="#17ECC7"/>
</linearGradient>
<linearGradient id="paint53_linear" x1="97.9961" y1="94.3223" x2="86.506" y2="92.7236" gradientUnits="userSpaceOnUse">
<stop stop-color="#FFAF59"/>
<stop offset="1" stop-color="#FFDA59"/>
</linearGradient>
<linearGradient id="paint54_linear" x1="108.873" y1="85.4038" x2="97.4771" y2="83.6007" gradientUnits="userSpaceOnUse">
<stop stop-color="#17D6A6"/>
<stop offset="1" stop-color="#17ECC7"/>
</linearGradient>
<linearGradient id="paint55_linear" x1="120.7" y1="82.5386" x2="109.185" y2="81.0313" gradientUnits="userSpaceOnUse">
<stop stop-color="#FFAF59"/>
<stop offset="1" stop-color="#FFDA59"/>
</linearGradient>
<linearGradient id="paint56_linear" x1="96.6264" y1="121.159" x2="37.7137" y2="120.783" gradientUnits="userSpaceOnUse">
<stop stop-color="#A6A6E7"/>
<stop offset="1" stop-color="#EEEFFF"/>
</linearGradient>
<linearGradient id="paint57_linear" x1="64.6061" y1="122.068" x2="98.3585" y2="122.068" gradientUnits="userSpaceOnUse">
<stop stop-color="#E8EDFE"/>
<stop offset="1" stop-color="#EEF4FF"/>
</linearGradient>
<linearGradient id="paint58_linear" x1="96.5079" y1="117.801" x2="94.1673" y2="93.0161" gradientUnits="userSpaceOnUse">
<stop stop-color="#17D6A6"/>
<stop offset="1" stop-color="#17ECC7"/>
</linearGradient>
<linearGradient id="paint59_linear" x1="95.6204" y1="117.884" x2="93.2796" y2="93.0997" gradientUnits="userSpaceOnUse">
<stop stop-color="#17D6A6"/>
<stop offset="1" stop-color="#17ECC7"/>
</linearGradient>
<linearGradient id="paint60_linear" x1="83.0164" y1="154.622" x2="82.682" y2="138.85" gradientUnits="userSpaceOnUse">
<stop stop-color="#2E3BBB"/>
<stop offset="1" stop-color="#7258D8"/>
</linearGradient>
<linearGradient id="paint61_linear" x1="94.773" y1="117.965" x2="92.4323" y2="93.1799" gradientUnits="userSpaceOnUse">
<stop stop-color="#17D6A6"/>
<stop offset="1" stop-color="#17ECC7"/>
</linearGradient>
<linearGradient id="paint62_linear" x1="128.414" y1="79.955" x2="82.4608" y2="79.3935" gradientUnits="userSpaceOnUse">
<stop stop-color="#A6A6E7"/>
<stop offset="1" stop-color="#EEEFFF"/>
</linearGradient>
<linearGradient id="paint63_linear" x1="285.582" y1="126.898" x2="285.433" y2="158.352" gradientUnits="userSpaceOnUse">
<stop stop-color="#A6A6E7"/>
<stop offset="1" stop-color="#EEEFFF" stop-opacity="0"/>
</linearGradient>
<linearGradient id="paint64_linear" x1="287.661" y1="118.077" x2="316.344" y2="146.118" gradientUnits="userSpaceOnUse">
<stop stop-color="#17BFA6"/>
<stop offset="1" stop-color="#17ECC7"/>
</linearGradient>
<linearGradient id="paint65_linear" x1="305.262" y1="133.645" x2="278.35" y2="101.249" gradientUnits="userSpaceOnUse">
<stop stop-color="#17D6A6"/>
<stop offset="1" stop-color="#17ECC7"/>
</linearGradient>
<linearGradient id="paint66_linear" x1="288.523" y1="153.066" x2="273.669" y2="117.873" gradientUnits="userSpaceOnUse">
<stop stop-color="#CFD0F5"/>
<stop offset="1" stop-color="#EEF4FF"/>
</linearGradient>
<linearGradient id="paint67_linear" x1="309.411" y1="244.963" x2="309.262" y2="276.416" gradientUnits="userSpaceOnUse">
<stop stop-color="#A6A6E7"/>
<stop offset="1" stop-color="#EEEFFF" stop-opacity="0"/>
</linearGradient>
<linearGradient id="paint68_linear" x1="311.493" y1="237.247" x2="340.176" y2="265.274" gradientUnits="userSpaceOnUse">
<stop stop-color="#17BFA6"/>
<stop offset="1" stop-color="#17ECC7"/>
</linearGradient>
<linearGradient id="paint69_linear" x1="329.332" y1="252.656" x2="302.407" y2="220.257" gradientUnits="userSpaceOnUse">
<stop stop-color="#17D6A6"/>
<stop offset="1" stop-color="#17ECC7"/>
</linearGradient>
<linearGradient id="paint70_linear" x1="312.483" y1="272.187" x2="297.629" y2="236.994" gradientUnits="userSpaceOnUse">
<stop stop-color="#CFD0F5"/>
<stop offset="1" stop-color="#EEF4FF"/>
</linearGradient>
<linearGradient id="paint71_linear" x1="17.7312" y1="150.531" x2="17.5825" y2="181.984" gradientUnits="userSpaceOnUse">
<stop stop-color="#A6A6E7"/>
<stop offset="1" stop-color="#EEEFFF" stop-opacity="0"/>
</linearGradient>
<linearGradient id="paint72_linear" x1="36.4866" y1="182.939" x2="8.13433" y2="171.525" gradientUnits="userSpaceOnUse">
<stop stop-color="#FFAF59"/>
<stop offset="1" stop-color="#FFDA59"/>
</linearGradient>
<linearGradient id="paint73_linear" x1="37.6536" y1="155.713" x2="10.7415" y2="123.317" gradientUnits="userSpaceOnUse">
<stop stop-color="#FFAF59"/>
<stop offset="1" stop-color="#FFDA59"/>
</linearGradient>
<linearGradient id="paint74_linear" x1="20.8038" y1="175.252" x2="5.94923" y2="140.058" gradientUnits="userSpaceOnUse">
<stop stop-color="#CFD0F5"/>
<stop offset="1" stop-color="#EEF4FF"/>
</linearGradient>
</defs>
</svg>
