<svg width="560" height="566" viewBox="0 0 560 566" fill="none" xmlns="http://www.w3.org/2000/svg">
<path d="M431.058 428.899C449.432 439.504 449.517 456.715 431.272 467.32L275.204 558.042C256.958 568.648 227.27 568.648 208.911 558.042L51.8044 467.32C33.4309 456.715 33.3313 439.518 51.5767 428.913L207.645 338.191C225.89 327.585 255.578 327.585 273.951 338.191L431.058 428.899Z" fill="#EEEFFF"/>
<path d="M450.257 409.126L278.577 508.916C258.51 520.589 225.847 520.575 205.652 508.916L32.8616 409.126C22.6858 403.246 17.6049 395.545 17.6334 387.844L17.5907 403.503C17.5622 411.204 22.6431 418.905 32.8189 424.785L205.609 524.575C225.819 536.248 258.467 536.248 278.534 524.575L450.214 424.785C460.191 418.991 465.172 411.403 465.201 403.802L465.243 388.143C465.215 395.744 460.234 403.332 450.257 409.126Z" fill="url(#paint0_linear)"/>
<path d="M450.014 366.875C470.224 378.548 470.323 397.467 450.256 409.14L278.576 508.93C258.495 520.603 225.846 520.589 205.651 508.93L32.8608 409.14C12.6514 397.467 12.5376 378.548 32.6189 366.889L204.299 267.099C224.381 255.426 257.029 255.426 277.238 267.099L450.014 366.875Z" fill="url(#paint1_linear)"/>
<g opacity="0.32">
<g opacity="0.32">
<g opacity="0.32">
<g opacity="0.32">
<path opacity="0.32" d="M209.196 277.975L210.918 276.978L240.919 294.303L239.197 295.299L209.196 277.975Z" fill="url(#paint2_radial)"/>
</g>
<g opacity="0.32">
<path opacity="0.32" d="M241.132 333.379L242.854 332.383L273.226 349.921L271.503 350.917L241.132 333.379Z" fill="url(#paint3_radial)"/>
</g>
<g opacity="0.32">
<path opacity="0.32" d="M273.24 351.914L274.962 350.917L305.319 368.455L303.597 369.452L273.24 351.914Z" fill="url(#paint4_radial)"/>
</g>
<g opacity="0.32">
<path opacity="0.32" d="M209.239 351.914L210.961 350.917L241.332 368.455L239.61 369.452L209.239 351.914Z" fill="url(#paint5_radial)"/>
</g>
<g opacity="0.32">
<path opacity="0.32" d="M241.346 370.448L243.068 369.452L273.425 386.99L271.703 387.986L241.346 370.448Z" fill="url(#paint6_radial)"/>
</g>
<g opacity="0.32">
<path opacity="0.32" d="M273.439 388.997L275.161 387.986L305.532 405.524L303.81 406.535L273.439 388.997Z" fill="url(#paint7_radial)"/>
</g>
<g opacity="0.32">
<path opacity="0.32" d="M209.424 389.011L211.174 387.986L241.545 405.524L239.795 406.549L209.424 389.011Z" fill="url(#paint8_radial)"/>
</g>
</g>
<g opacity="0.32">
<path opacity="0.32" d="M240.919 296.296L242.641 295.299L273.012 312.837L271.29 313.834L240.919 296.296Z" fill="url(#paint9_radial)"/>
</g>
<g opacity="0.32">
<path opacity="0.32" d="M209.039 314.845L210.761 313.834L241.118 331.372L239.396 332.383L209.039 314.845Z" fill="url(#paint10_radial)"/>
</g>
</g>
<g opacity="0.32">
<g opacity="0.32">
<path opacity="0.32" d="M246.384 292.096C249.43 293.862 249.43 296.723 246.427 298.46C243.395 300.225 238.457 300.239 235.411 298.474C232.38 296.723 232.366 293.847 235.397 292.096C238.4 290.345 243.353 290.345 246.384 292.096Z" fill="url(#paint11_radial)"/>
</g>
<g opacity="0.32">
<path opacity="0.32" d="M278.491 310.631C281.537 312.396 281.537 315.243 278.534 316.994C275.503 318.759 270.564 318.774 267.519 317.008C264.487 315.257 264.473 312.382 267.504 310.631C270.507 308.88 275.46 308.88 278.491 310.631Z" fill="url(#paint12_radial)"/>
</g>
<g opacity="0.32">
<path opacity="0.32" d="M214.476 310.645C217.522 312.41 217.536 315.257 214.519 317.008C211.487 318.774 206.577 318.774 203.532 317.008C200.5 315.257 200.472 312.396 203.489 310.645C206.506 308.88 211.445 308.894 214.476 310.645Z" fill="url(#paint13_radial)"/>
</g>
<g opacity="0.32">
<path opacity="0.32" d="M246.569 329.18C249.615 330.945 249.629 333.792 246.612 335.543C243.58 337.308 238.67 337.308 235.625 335.543C232.593 333.792 232.565 330.931 235.582 329.18C238.613 327.429 243.552 327.443 246.569 329.18Z" fill="url(#paint14_radial)"/>
</g>
<g opacity="0.32">
<path opacity="0.32" d="M278.691 347.728C281.722 349.479 281.751 352.341 278.733 354.092C275.702 355.857 270.763 355.843 267.746 354.092C264.701 352.326 264.686 349.479 267.704 347.728C270.735 345.977 275.645 345.977 278.691 347.728Z" fill="url(#paint15_radial)"/>
</g>
<g opacity="0.32">
<path opacity="0.32" d="M214.917 384.812C217.949 386.563 217.977 389.424 214.96 391.175C211.928 392.94 206.99 392.926 203.973 391.175C200.927 389.41 200.913 386.563 203.93 384.812C206.947 383.046 211.857 383.046 214.917 384.812Z" fill="url(#paint16_radial)"/>
</g>
<g opacity="0.32">
<path opacity="0.32" d="M247.01 403.346C250.056 405.111 250.07 407.958 247.053 409.709C244.022 411.475 239.111 411.475 236.066 409.709C233.02 407.944 233.006 405.097 236.023 403.346C239.055 401.595 243.965 401.595 247.01 403.346Z" fill="url(#paint17_radial)"/>
</g>
<g opacity="0.32">
<path opacity="0.32" d="M311.211 440.429C314.256 442.195 314.271 445.042 311.253 446.793C308.222 448.558 303.312 448.558 300.266 446.793C297.221 445.027 297.206 442.18 300.224 440.429C303.241 438.679 308.165 438.664 311.211 440.429Z" fill="url(#paint18_radial)"/>
</g>
<g opacity="0.32">
<path opacity="0.32" d="M214.675 347.728C217.721 349.494 217.735 352.341 214.718 354.092C211.686 355.857 206.776 355.857 203.731 354.092C200.699 352.341 200.671 349.479 203.688 347.728C206.72 345.963 211.658 345.977 214.675 347.728Z" fill="url(#paint19_radial)"/>
</g>
<g opacity="0.32">
<path opacity="0.32" d="M246.797 366.277C249.828 368.028 249.857 370.889 246.839 372.64C243.808 374.406 238.87 374.391 235.852 372.64C232.807 370.875 232.793 368.028 235.81 366.277C238.827 364.526 243.751 364.512 246.797 366.277Z" fill="url(#paint20_radial)"/>
</g>
<g opacity="0.32">
<path opacity="0.32" d="M278.904 384.812C281.95 386.577 281.964 389.424 278.947 391.175C275.915 392.94 271.005 392.94 267.96 391.175C264.914 389.41 264.9 386.563 267.917 384.812C270.934 383.061 275.858 383.047 278.904 384.812Z" fill="url(#paint21_radial)"/>
</g>
<g opacity="0.32">
<path opacity="0.32" d="M311.011 403.346C314.057 405.111 314.071 407.958 311.054 409.709C308.023 411.475 303.113 411.475 300.067 409.709C297.021 407.944 297.007 405.097 300.024 403.346C303.042 401.595 307.952 401.595 311.011 403.346Z" fill="url(#paint22_radial)"/>
</g>
</g>
</g>
<g opacity="0.56">
<path opacity="0.56" d="M277.552 361.508C285.465 366.078 290.219 371.729 291.713 377.423C294.246 378.306 296.623 379.374 298.815 380.626C312.52 388.541 313.189 401.026 300.295 408.514C287.401 416.001 265.853 415.66 252.148 407.745C249.956 406.478 248.12 405.097 246.583 403.645C236.749 402.791 226.986 400.058 219.073 395.488C200.97 385.039 199.39 368.953 215.543 359.572C231.697 350.191 259.449 351.059 277.552 361.508Z" fill="#ACACE9"/>
</g>
<path d="M318.91 186.868L319.778 184.861C319.778 184.861 320.148 178.469 320.092 177.558C320.02 176.661 322.625 174.384 322.924 174.113C323.223 173.843 324.888 171.978 324.888 171.978C324.888 171.978 328.73 166.469 329.84 165.7C330.936 164.931 331.335 166.341 330.395 168.533C329.456 170.725 328.56 174.241 328.56 174.241C328.56 174.241 332.929 176.548 333.427 177.544C333.925 178.541 333.256 183.95 332.786 184.405C332.317 184.861 331.819 184.021 331.819 184.021C331.819 184.021 331.335 186.655 329.129 187.196L327.279 191.295L318.91 186.868Z" fill="url(#paint23_linear)"/>
<path d="M223.314 234.471L228.053 240.038L235.838 233.247L228.551 226.557L223.314 234.471Z" fill="url(#paint24_linear)"/>
<path d="M227.797 166.924C227.797 166.924 223.257 168.519 216.241 177.032C209.224 185.559 196.188 200.435 196.529 207.453C196.871 214.471 222.674 236.92 224.695 237.262C226.701 237.589 232.166 230.585 231.455 227.24C230.743 223.895 216.753 207.965 216.255 207.296C215.757 206.627 232.465 192.619 232.465 192.619L227.797 166.924Z" fill="#41D4CC"/>
<path d="M254.283 392.755C254.283 392.755 252.888 399.161 253.03 403.375C253.173 407.588 257.158 410.507 261.783 410.834C266.423 411.161 270.052 406.976 280.541 401.723C291.514 396.228 295.385 392.684 294.118 385.41C293.122 379.644 279.843 382.392 270.023 384.783C261.285 386.89 254.283 392.755 254.283 392.755Z" fill="#39335E"/>
<path d="M226.445 372.655C226.445 372.655 224.054 380.214 224.196 384.427C224.339 388.641 226.715 393.011 231.355 393.324C235.995 393.652 241.531 392.356 245.302 381.239C247.366 375.16 254.937 365.423 246.626 360.412C241.616 357.394 240.99 367.558 231.17 369.95C222.403 372.071 226.445 372.655 226.445 372.655Z" fill="#39335E"/>
<path d="M255.692 303.926C254.71 306.46 247.451 354.305 244.548 374.562C242.983 382.264 224.936 383.516 224.154 377.21C224.154 377.21 222.574 330.689 226.659 310.346L226.744 278.644C225.548 272.01 225.065 258.017 226.829 248.735L265.868 260.622L255.692 303.926Z" fill="#39335E"/>
<path d="M240.634 262.771C241.588 266.999 242.186 275.171 245.872 280.794C246.455 281.662 246.968 282.559 247.466 283.456C247.565 283.868 249.045 289.392 250.867 296.794C252.717 304.197 251.18 319.5 252.76 327.4C251.892 336.824 252.817 389.111 252.76 393.481C254.354 399.403 274.35 400.357 276.414 390.349C276.414 390.349 276.542 340.383 279.132 327.258C279.63 324.752 279.872 322.219 280.043 319.685C280.527 311.656 281.395 297.008 281.665 290.886C282.178 278.971 282.533 263.796 282.121 259.341L257.143 264.821L240.634 262.771Z" fill="#39335E"/>
<path d="M235.155 262.487C235.155 262.487 242.342 269.79 254.197 269.291C266.067 268.793 241.503 242.771 241.503 242.771L235.155 262.487Z" fill="url(#paint25_linear)"/>
<path d="M283.117 259.312C283.117 262.658 281.679 273.135 268.529 275.455C255.379 277.804 243.68 270.786 243.68 270.786L242.015 249.39L238.286 267.241C238.286 267.241 226.986 259.754 225.748 256.408C224.524 253.063 224.737 246.6 227.327 233.447C229.918 220.293 227.868 207.51 223.969 191.338C220.069 175.195 224.31 167.722 228.324 166.754C232.337 165.771 241.303 168.747 241.303 168.747C241.303 168.747 256.176 171.152 259.093 173.9C262.025 176.662 274.734 186.114 274.734 186.114L281.366 200.477L280.498 211.282L279.9 218.941C279.416 225.105 279.473 231.297 280.057 237.447C280.27 239.653 280.541 241.874 280.882 244.08C281.964 251.042 283.117 258.487 283.117 259.312Z" fill="#41D4CC"/>
<path d="M273.567 142.568C273.567 142.568 273.88 154.967 272.984 161.572C272.087 168.177 264.444 167.423 264.444 167.423L263.775 178.37C263.775 178.37 251.465 179.295 246.953 171.679L247.736 163.864C247.736 163.864 238.016 153.799 241.019 143.037C244.022 132.29 253.045 129.272 259.719 129.329C266.408 129.4 273.311 133.343 273.567 142.568Z" fill="url(#paint26_linear)"/>
<path d="M273.695 143.664C273.695 143.664 273.382 147.123 271.076 147.92C268.785 148.717 268.828 148.547 268.828 148.547V153.059L266.408 153.885C266.408 153.885 266.152 149.97 264.402 149.628C262.651 149.301 262.025 154.853 263.277 156.362C264.53 157.871 265.825 157.444 265.825 157.444C265.825 157.444 263.462 166.526 258.78 168.134C254.098 169.743 248.561 167.11 246.27 165.159C244.833 163.935 244.207 162.54 242.47 158.924C241.431 156.789 238.941 153.287 238.571 150.184C237.56 141.856 241.033 141.044 241.033 141.044C241.033 141.044 239.425 136.247 244.818 130.681C250.212 125.115 259.563 124.389 264.914 127.45C270.265 130.51 274.663 131.791 276.613 131.179C278.563 130.567 278.449 135.194 276.172 136.475C276.172 136.475 280.128 136.418 279.786 137.756C279.431 139.094 278.249 144.148 273.695 143.664Z" fill="#39335E"/>
<path d="M267.006 180.235C267.006 180.235 265.868 174.469 265.455 173.658C265.042 172.832 263.448 172.419 256.147 171.167C248.846 169.914 246.797 166.668 245.459 166.198C244.121 165.729 241.289 168.747 241.289 168.747C241.289 168.747 244.335 175.807 254.155 177.815C263.946 179.822 267.006 180.235 267.006 180.235Z" fill="url(#paint27_linear)"/>
<path opacity="0.29" d="M242.741 245.234C242.726 245.234 242.712 245.234 242.712 245.234C242.513 245.219 242.371 245.048 242.385 244.849C242.399 244.636 244.263 223.268 242.783 203.965C241.289 184.548 244.377 176.405 244.505 176.064C244.577 175.879 244.79 175.793 244.961 175.864C245.146 175.936 245.231 176.149 245.16 176.32C245.132 176.405 242.001 184.69 243.481 203.908C244.975 223.268 243.096 244.693 243.082 244.906C243.082 245.105 242.926 245.234 242.741 245.234Z" fill="#3D41C1"/>
<path opacity="0.29" d="M280.043 237.447C279.972 237.39 279.872 237.319 279.801 237.262C263.633 224.962 265.156 201.687 265.156 201.687L280.498 211.296L279.9 218.955C279.402 225.105 279.459 231.297 280.043 237.447Z" fill="#17BCB2"/>
<path d="M317.829 188.007C317.829 188.007 318.939 185.943 319.223 185.729C319.508 185.502 322.397 185.701 325.158 187.324C327.919 188.932 328.446 189.943 328.531 190.199C328.616 190.456 327.777 193.431 327.777 193.431L317.829 188.007Z" fill="url(#paint28_linear)"/>
<path d="M302.003 210.442C302.003 210.442 278.79 186.498 272.984 185.416C267.177 184.334 263.007 192.42 265.156 201.687C267.305 210.955 279.445 218.87 286.902 224.991C294.36 231.112 300.935 234.016 306.5 233.347C312.065 232.678 328.759 195.965 328.118 193.217C327.236 189.416 317.772 185.374 316.548 188.292L302.003 210.442Z" fill="#41D4CC"/>
<path d="M326.51 193.815C326.51 194.228 326.169 194.57 325.756 194.57C325.343 194.57 325.002 194.228 325.002 193.815C325.002 193.402 325.343 193.061 325.756 193.061C326.169 193.075 326.51 193.402 326.51 193.815Z" fill="url(#paint29_linear)"/>
<path d="M325.756 196.449C325.756 196.862 325.414 197.203 325.002 197.203C324.589 197.203 324.247 196.862 324.247 196.449C324.247 196.036 324.589 195.694 325.002 195.694C325.428 195.694 325.756 196.036 325.756 196.449Z" fill="url(#paint30_linear)"/>
<g opacity="0.35">
<path opacity="0.35" d="M441.433 7.85785L448.621 3.68687C455.167 -0.113983 464.219 0.426962 474.224 6.1923L467.037 10.3633C457.032 4.5837 447.966 4.05699 441.433 7.85785Z" fill="#C0C0ED"/>
<path opacity="0.35" d="M499.571 91.377L492.384 95.548C498.845 91.7899 502.844 83.8038 502.887 72.4582C502.958 49.6246 486.905 21.8228 467.037 10.3491L474.224 6.1781C494.092 17.6518 510.131 45.4536 510.074 68.2872C510.032 79.6471 506.032 87.6331 499.571 91.377Z" fill="#C0C0ED"/>
<path opacity="0.35" d="M467.037 10.3632C486.905 21.837 502.944 49.6387 502.887 72.4723C502.816 95.3059 486.663 104.53 466.809 93.0567C446.927 81.583 430.887 53.767 430.944 30.9334C431.001 8.09979 447.155 -1.11052 467.037 10.3632Z" fill="#C0C0ED"/>
<path opacity="0.35" d="M495.828 68.4011C495.814 78.0242 492.242 84.6294 486.549 87.4338C481.368 89.9677 474.437 89.3556 466.823 84.9568C450.827 75.7323 437.918 53.3542 437.975 34.9905C438.004 24.0435 442.629 16.9685 449.788 15.0325C449.788 15.0325 449.802 15.0183 449.816 15.0183C454.626 13.7086 460.575 14.7335 467.008 18.449C482.991 27.6735 495.899 50.0516 495.828 68.4011Z" fill="#C0C0ED"/>
<path opacity="0.35" d="M495.828 68.4011C495.814 78.0242 492.242 84.6294 486.549 87.4338C481.724 88.8004 475.718 87.8039 469.228 84.0458C453.232 74.8212 440.338 52.4289 440.394 34.0795C440.409 24.4136 444.038 17.7799 449.773 15.0325C449.773 15.0325 449.788 15.0183 449.802 15.0183C454.612 13.7086 460.561 14.7335 466.994 18.449C482.991 27.6735 495.899 50.0516 495.828 68.4011Z" fill="#C0C0ED"/>
<path opacity="0.35" d="M468.204 20.5843C468.503 20.7693 468.745 21.2106 468.745 21.5665L468.73 26.492C468.73 26.8479 468.488 27.0044 468.19 26.8194C467.891 26.6486 467.663 26.193 467.663 25.8371L467.677 20.9117C467.663 20.5416 467.905 20.3992 468.204 20.5843Z" fill="#C0C0ED"/>
<path opacity="0.35" d="M455.594 17.0112C455.779 17.1251 455.95 17.3528 456.05 17.6091L458.071 23.1182C458.227 23.5168 458.127 23.8584 457.871 23.8869C457.786 23.9011 457.701 23.8727 457.601 23.8157C457.416 23.7018 457.231 23.4741 457.131 23.2036L455.11 17.6945C454.968 17.2959 455.053 16.9543 455.31 16.9258C455.409 16.9258 455.509 16.9543 455.594 17.0112Z" fill="#C0C0ED"/>
<path opacity="0.35" d="M446.343 22.563C446.429 22.62 446.528 22.7054 446.614 22.805L450.143 27.4173C450.385 27.7447 450.485 28.2145 450.328 28.428C450.229 28.5846 450.044 28.5846 449.859 28.4707C449.773 28.4138 449.674 28.3283 449.588 28.2287L446.059 23.6164C445.803 23.2748 445.717 22.8192 445.86 22.6057C445.988 22.4491 446.158 22.4491 446.343 22.563Z" fill="#C0C0ED"/>
<path opacity="0.35" d="M446.998 38.2219C447.297 38.3928 447.525 38.8341 447.525 39.2042C447.525 39.5601 447.283 39.7024 446.984 39.5316L442.914 37.0546C442.615 36.8696 442.373 36.4283 442.373 36.0866C442.373 35.7165 442.615 35.5741 442.914 35.7592L446.998 38.2219Z" fill="#C0C0ED"/>
<path opacity="0.35" d="M449.802 52.7136C449.987 52.8275 450.172 53.0552 450.257 53.3257C450.414 53.7243 450.314 54.066 450.072 54.0944L446.543 54.4076C446.457 54.4218 446.372 54.3934 446.272 54.3364C446.087 54.2225 445.902 53.9948 445.803 53.7243C445.66 53.3257 445.746 52.9841 446.002 52.9556L449.531 52.6424C449.617 52.6282 449.702 52.6567 449.802 52.7136Z" fill="#C0C0ED"/>
<path opacity="0.35" d="M457.501 66.7639C457.587 66.8209 457.686 66.9063 457.772 67.0202C458.028 67.3476 458.128 67.8031 457.971 68.0167L455.922 71.0488C455.822 71.2054 455.637 71.2054 455.452 71.0915C455.367 71.0346 455.267 70.9491 455.181 70.8495C454.925 70.5078 454.84 70.0523 454.982 69.8388L457.032 66.8209C457.131 66.6501 457.316 66.6501 457.501 66.7639Z" fill="#C0C0ED"/>
<path opacity="0.35" d="M468.047 76.6006C468.346 76.7857 468.588 77.227 468.588 77.5687L468.574 82.4941C468.574 82.8642 468.332 83.0066 468.033 82.8215C467.734 82.6507 467.506 82.2094 467.506 81.8393L467.521 76.9138C467.521 76.5579 467.763 76.4156 468.047 76.6006Z" fill="#C0C0ED"/>
<path opacity="0.35" d="M478.622 79.5901C478.807 79.7039 478.992 79.9317 479.091 80.2022L481.112 85.6971C481.254 86.0957 481.169 86.4373 480.913 86.4658C480.827 86.4658 480.742 86.4373 480.642 86.3946C480.457 86.2807 480.272 86.0529 480.173 85.7825L478.152 80.2876C477.995 79.889 478.095 79.5474 478.351 79.5189C478.437 79.5047 478.522 79.5331 478.622 79.5901Z" fill="#C0C0ED"/>
<path opacity="0.35" d="M486.378 74.9351C486.463 74.992 486.563 75.0774 486.648 75.1913L490.178 79.8036C490.434 80.131 490.519 80.5865 490.377 80.8C490.278 80.9424 490.093 80.9566 489.908 80.8427C489.822 80.7858 489.723 80.7004 489.637 80.5865L486.108 75.9742C485.866 75.6468 485.766 75.1913 485.908 74.9778C486.008 74.8354 486.193 74.8212 486.378 74.9351Z" fill="#C0C0ED"/>
<path opacity="0.35" d="M493.309 66.3654C493.608 66.5505 493.85 66.9918 493.85 67.3477C493.85 67.7036 493.608 67.8459 493.309 67.6608L489.239 65.1839C488.94 65.0131 488.712 64.5718 488.712 64.2159C488.712 63.8458 488.954 63.7034 489.253 63.8885L493.309 66.3654Z" fill="#C0C0ED"/>
<path opacity="0.35" d="M489.979 49.0836C490.164 49.1975 490.349 49.4252 490.448 49.6957C490.591 50.0943 490.505 50.436 490.249 50.4644L486.72 50.7776C486.634 50.7776 486.549 50.7491 486.449 50.7064C486.264 50.5925 486.079 50.3648 485.98 50.0943C485.837 49.6957 485.937 49.3398 486.179 49.3256L489.708 49.0124C489.794 48.9982 489.879 49.0267 489.979 49.0836Z" fill="#C0C0ED"/>
<path opacity="0.35" d="M480.785 32.3143C480.87 32.3713 480.97 32.4567 481.055 32.5706C481.311 32.898 481.397 33.3535 481.254 33.567L479.205 36.5992C479.105 36.7558 478.92 36.7558 478.735 36.6419C478.65 36.5849 478.55 36.4995 478.465 36.3999C478.209 36.0582 478.109 35.6027 478.266 35.3892L480.301 32.357C480.415 32.2147 480.6 32.2004 480.785 32.3143Z" fill="#C0C0ED"/>
<path opacity="0.35" d="M453.331 39.7736L456.462 37.9515C456.548 37.9088 456.662 37.9088 456.776 37.98C456.847 38.0227 456.904 38.0796 456.975 38.1508L453.844 39.9729C453.773 39.8875 453.701 39.8448 453.644 39.8021C453.516 39.7167 453.403 39.7167 453.331 39.7736Z" fill="#C0C0ED"/>
<path opacity="0.35" d="M466.581 51.2331C466.581 51.8168 467.008 52.557 467.521 52.856L464.39 54.6781C463.877 54.3792 463.45 53.6532 463.45 53.0553C463.45 52.7563 463.55 52.557 463.721 52.4574L466.852 50.6353C466.695 50.7349 466.581 50.9484 466.581 51.2331Z" fill="#C0C0ED"/>
<path opacity="0.35" d="M467.521 52.856C467.777 53.0125 468.019 53.0125 468.189 52.9271L465.058 54.7493C464.888 54.8489 464.66 54.8347 464.39 54.6781C465.329 54.1229 466.581 53.3969 467.521 52.856Z" fill="#C0C0ED"/>
<path opacity="0.35" d="M463.721 52.4574L466.852 50.6353C467.023 50.5356 467.264 50.5499 467.521 50.6922L464.39 52.5144C464.133 52.372 463.891 52.3578 463.721 52.4574Z" fill="#C0C0ED"/>
<path opacity="0.35" d="M468.175 52.913L465.044 54.7351C465.215 54.6355 465.315 54.4219 465.315 54.1372C465.315 53.5393 464.902 52.8276 464.375 52.5144L467.506 50.6923C468.033 50.9912 468.446 51.7172 468.446 52.3151C468.46 52.614 468.346 52.8276 468.175 52.913Z" fill="#C0C0ED"/>
<path opacity="0.35" d="M468.958 54.2652L465.827 56.0874C466.154 55.9023 466.368 55.5322 466.41 55.0055L469.542 53.1833C469.499 53.7101 469.285 54.0802 468.958 54.2652Z" fill="#C0C0ED"/>
<path opacity="0.35" d="M484.2 50.8488L481.069 52.6709C481.283 52.5428 481.098 52.0161 480.828 51.8595L483.958 50.0374C484.229 50.1939 484.414 50.7207 484.2 50.8488Z" fill="#C0C0ED"/>
<path opacity="0.35" d="M480.813 51.8595C481.126 52.0446 481.311 52.6425 480.998 52.6994L466.411 55.0056C466.297 56.1159 465.443 56.5572 464.375 55.9451C463.465 55.4184 462.71 54.2938 462.454 53.1977L453.388 40.6278C452.976 40.0584 453.232 39.5459 453.644 39.7879C453.716 39.8306 453.773 39.8876 453.844 39.9587L463.92 51.0339C464.076 51.0766 464.219 51.1335 464.39 51.2189C464.717 51.404 465.016 51.6745 465.272 51.9877L480.643 51.7884C480.714 51.8026 480.771 51.8311 480.813 51.8595ZM464.39 54.6782C464.916 54.9771 465.329 54.7351 465.329 54.1372C465.329 53.5393 464.916 52.8275 464.39 52.5144C463.877 52.2154 463.45 52.4574 463.45 53.0553C463.45 53.639 463.877 54.3792 464.39 54.6782Z" fill="#C0C0ED"/>
<path opacity="0.35" d="M464.39 52.5285C464.916 52.8275 465.329 53.5535 465.329 54.1514C465.329 54.735 464.916 54.9913 464.39 54.6923C463.877 54.3934 463.45 53.6674 463.45 53.0695C463.45 52.4574 463.877 52.2296 464.39 52.5285Z" fill="#C0C0ED"/>
<path opacity="0.35" d="M453.858 39.9729L456.989 38.1508L467.065 49.2259L463.934 51.048L453.858 39.9729Z" fill="#C0C0ED"/>
<path opacity="0.35" d="M463.934 51.0481L467.065 49.226C467.222 49.2687 467.364 49.3256 467.535 49.411C467.862 49.5961 468.161 49.8665 468.417 50.1797L465.286 52.0018C465.016 51.7029 464.717 51.4182 464.404 51.2331C464.233 51.1477 464.077 51.0908 463.934 51.0481Z" fill="#C0C0ED"/>
<path opacity="0.35" d="M465.286 52.0019L468.417 50.1798L483.788 49.9805L480.657 51.8026L465.286 52.0019Z" fill="#C0C0ED"/>
<path opacity="0.35" d="M480.657 51.8026L483.788 49.9805C483.845 49.9805 483.902 49.9947 483.958 50.0232L480.828 51.8453C480.771 51.8311 480.714 51.8026 480.657 51.8026Z" fill="#C0C0ED"/>
</g>
<path d="M430.048 13.5521L437.235 9.38108C443.782 5.58023 452.833 6.12118 462.838 11.8865L455.651 16.0575C445.646 10.2779 436.58 9.75121 430.048 13.5521Z" fill="url(#paint31_linear)"/>
<path d="M488.185 97.0713L480.998 101.242C487.46 97.4841 491.459 89.498 491.501 78.1524C491.573 55.3188 475.519 27.517 455.651 16.0433L462.838 11.8723C482.706 23.3461 498.745 51.1478 498.689 73.9814C498.646 85.3413 494.647 93.3273 488.185 97.0713Z" fill="url(#paint32_linear)"/>
<path d="M455.651 16.0574C475.519 27.5312 491.558 55.3329 491.502 78.1665C491.43 101 475.277 110.225 455.423 98.7509C435.541 87.2772 419.502 59.4612 419.559 36.6276C419.616 13.794 435.769 4.58369 455.651 16.0574Z" fill="url(#paint33_linear)"/>
<path d="M484.442 74.0953C484.428 83.7184 480.856 90.3236 475.163 93.128C469.983 95.6619 463.052 95.0498 455.438 90.6511C439.441 81.4265 426.532 59.0484 426.589 40.6848C426.618 29.7377 431.243 22.6627 438.402 20.7267C438.402 20.7267 438.416 20.7125 438.43 20.7125C443.241 19.4028 449.19 20.4278 455.623 24.1432C471.605 33.3678 484.514 55.7458 484.442 74.0953Z" fill="url(#paint34_linear)"/>
<path d="M484.442 74.0953C484.428 83.7184 480.856 90.3236 475.163 93.128C470.339 94.4946 464.333 93.4981 457.843 89.74C441.846 80.5154 428.952 58.1231 429.009 39.7737C429.023 30.1078 432.652 23.4741 438.388 20.7267C438.388 20.7267 438.402 20.7125 438.416 20.7125C443.227 19.4028 449.176 20.4278 455.608 24.1432C471.605 33.3678 484.514 55.7458 484.442 74.0953Z" fill="url(#paint35_linear)"/>
<path d="M456.818 26.2785C457.117 26.4635 457.359 26.9048 457.359 27.2607L457.345 32.1862C457.345 32.5421 457.103 32.6987 456.804 32.5136C456.505 32.3428 456.277 31.8872 456.277 31.5314L456.292 26.6059C456.277 26.2358 456.519 26.0934 456.818 26.2785Z" fill="#9CA1E2"/>
<path d="M444.209 22.7054C444.394 22.8193 444.564 23.0471 444.664 23.3033L446.685 28.8124C446.842 29.211 446.742 29.5526 446.486 29.5811C446.4 29.5953 446.315 29.5669 446.215 29.5099C446.03 29.396 445.845 29.1683 445.746 28.8978L443.725 23.3887C443.582 22.9901 443.668 22.6485 443.924 22.62C444.024 22.62 444.123 22.6485 444.209 22.7054Z" fill="#9CA1E2"/>
<path d="M434.958 28.2572C435.043 28.3142 435.143 28.3996 435.228 28.4992L438.758 33.1115C439 33.4389 439.099 33.9087 438.943 34.1222C438.843 34.2788 438.658 34.2788 438.473 34.1649C438.388 34.108 438.288 34.0226 438.203 33.9229L434.673 29.3106C434.417 28.969 434.332 28.5135 434.474 28.2999C434.602 28.1433 434.773 28.1433 434.958 28.2572Z" fill="#9CA1E2"/>
<path d="M435.612 43.9161C435.911 44.087 436.139 44.5283 436.139 44.8984C436.139 45.2543 435.897 45.3966 435.598 45.2258L431.528 42.7488C431.229 42.5638 430.987 42.1225 430.987 41.7808C430.987 41.4107 431.229 41.2684 431.528 41.4534L435.612 43.9161Z" fill="#9CA1E2"/>
<path d="M438.416 58.4078C438.601 58.5217 438.786 58.7495 438.872 59.0199C439.028 59.4185 438.929 59.7602 438.687 59.7886L435.157 60.1018C435.072 60.1161 434.986 60.0876 434.887 60.0306C434.702 59.9168 434.517 59.689 434.417 59.4185C434.275 59.0199 434.36 58.6783 434.616 58.6498L438.146 58.3366C438.231 58.3224 438.317 58.3509 438.416 58.4078Z" fill="#9CA1E2"/>
<path d="M446.116 72.4582C446.201 72.5151 446.301 72.6005 446.386 72.7144C446.642 73.0418 446.742 73.4973 446.585 73.7109L444.536 76.743C444.436 76.8996 444.251 76.8996 444.066 76.7857C443.981 76.7288 443.881 76.6434 443.796 76.5437C443.54 76.2021 443.454 75.7465 443.597 75.533L445.646 72.5151C445.746 72.3443 445.931 72.3443 446.116 72.4582Z" fill="#9CA1E2"/>
<path d="M456.662 82.2949C456.96 82.4799 457.202 82.9212 457.202 83.2629L457.188 88.1883C457.188 88.5584 456.946 88.7008 456.647 88.5157C456.348 88.3449 456.121 87.9036 456.121 87.5335L456.135 82.608C456.135 82.2521 456.377 82.1098 456.662 82.2949Z" fill="#9CA1E2"/>
<path d="M467.236 85.2843C467.421 85.3982 467.606 85.6259 467.706 85.8964L469.727 91.3913C469.869 91.7899 469.783 92.1315 469.527 92.16C469.442 92.16 469.357 92.1315 469.257 92.0888C469.072 91.9749 468.887 91.7472 468.787 91.4767L466.766 85.9818C466.61 85.5832 466.709 85.2416 466.966 85.2131C467.051 85.1989 467.136 85.2273 467.236 85.2843Z" fill="#9CA1E2"/>
<path d="M474.992 80.6293C475.078 80.6862 475.177 80.7716 475.263 80.8855L478.792 85.4978C479.049 85.8252 479.134 86.2807 478.992 86.4943C478.892 86.6366 478.707 86.6508 478.522 86.537C478.437 86.48 478.337 86.3946 478.252 86.2807L474.722 81.6685C474.48 81.341 474.38 80.8855 474.523 80.672C474.622 80.5296 474.807 80.5154 474.992 80.6293Z" fill="#9CA1E2"/>
<path d="M481.923 72.0595C482.222 72.2446 482.464 72.6859 482.464 73.0418C482.464 73.3977 482.222 73.54 481.923 73.3549L477.853 70.878C477.554 70.7072 477.326 70.2659 477.326 69.91C477.326 69.5399 477.568 69.3975 477.867 69.5826L481.923 72.0595Z" fill="#9CA1E2"/>
<path d="M478.593 54.7778C478.778 54.8917 478.963 55.1195 479.063 55.3899C479.205 55.7885 479.12 56.1302 478.863 56.1586L475.334 56.4718C475.249 56.4718 475.163 56.4433 475.064 56.4006C474.879 56.2868 474.694 56.059 474.594 55.7885C474.452 55.3899 474.551 55.034 474.793 55.0198L478.323 54.7066C478.408 54.6924 478.493 54.7209 478.593 54.7778Z" fill="#9CA1E2"/>
<path d="M469.399 38.0085C469.485 38.0655 469.584 38.1509 469.67 38.2648C469.926 38.5922 470.011 39.0477 469.869 39.2613L467.82 42.2934C467.72 42.45 467.535 42.45 467.35 42.3361C467.264 42.2792 467.165 42.1937 467.079 42.0941C466.823 41.7525 466.724 41.2969 466.88 41.0834L468.915 38.0512C469.029 37.9089 469.214 37.8947 469.399 38.0085Z" fill="#9CA1E2"/>
<path d="M441.946 45.4679L445.077 43.6457C445.162 43.603 445.276 43.603 445.39 43.6742C445.461 43.7169 445.518 43.7738 445.589 43.845L442.458 45.6672C442.387 45.5817 442.316 45.539 442.259 45.4963C442.131 45.4109 442.017 45.4109 441.946 45.4679Z" fill="#EC9941"/>
<path d="M455.196 56.9274C455.196 57.511 455.623 58.2513 456.135 58.5502L453.004 60.3723C452.492 60.0734 452.065 59.3474 452.065 58.7495C452.065 58.4505 452.164 58.2512 452.335 58.1516L455.466 56.3295C455.31 56.4291 455.196 56.6426 455.196 56.9274Z" fill="#2F97ED"/>
<path d="M456.135 58.5502C456.391 58.7068 456.633 58.7068 456.804 58.6213L453.673 60.4435C453.502 60.5431 453.274 60.5289 453.004 60.3723C453.943 59.8171 455.196 59.0911 456.135 58.5502Z" fill="#2F97ED"/>
<path d="M452.335 58.1516L455.466 56.3295C455.637 56.2299 455.879 56.2441 456.135 56.3864L453.004 58.2086C452.748 58.0662 452.506 58.052 452.335 58.1516Z" fill="white"/>
<path d="M456.79 58.6072L453.659 60.4293C453.829 60.3297 453.929 60.1162 453.929 59.8314C453.929 59.2336 453.516 58.5218 452.99 58.2086L456.121 56.3865C456.647 56.6854 457.06 57.4114 457.06 58.0093C457.074 58.3083 456.96 58.5218 456.79 58.6072Z" fill="white"/>
<path d="M457.572 59.9595L454.441 61.7816C454.769 61.5965 454.982 61.2264 455.025 60.6997L458.156 58.8776C458.113 59.4043 457.9 59.7744 457.572 59.9595Z" fill="#EC9941"/>
<path d="M472.815 56.543L469.684 58.3651C469.897 58.237 469.712 57.7103 469.442 57.5537L472.573 55.7316C472.843 55.8882 473.028 56.4149 472.815 56.543Z" fill="#EC9941"/>
<path d="M469.428 57.5538C469.741 57.7388 469.926 58.3367 469.613 58.3936L455.025 60.6998C454.911 61.8101 454.057 62.2514 452.99 61.6393C452.079 61.1126 451.325 59.988 451.068 58.8919L442.003 46.322C441.59 45.7526 441.846 45.2401 442.259 45.4821C442.33 45.5248 442.387 45.5818 442.458 45.653L452.534 56.7281C452.691 56.7708 452.833 56.8277 453.004 56.9132C453.331 57.0982 453.63 57.3687 453.886 57.6819L469.257 57.4826C469.328 57.4968 469.385 57.5253 469.428 57.5538ZM453.004 60.3724C453.531 60.6713 453.943 60.4293 453.943 59.8314C453.943 59.2335 453.531 58.5218 453.004 58.2086C452.492 57.9096 452.065 58.1516 452.065 58.7495C452.065 59.3332 452.492 60.0734 453.004 60.3724Z" fill="url(#paint36_linear)"/>
<path d="M453.004 58.2228C453.531 58.5217 453.943 59.2477 453.943 59.8456C453.943 60.4292 453.531 60.6855 453.004 60.3865C452.492 60.0876 452.065 59.3616 452.065 58.7637C452.065 58.1516 452.492 57.9238 453.004 58.2228Z" fill="white"/>
<path d="M442.472 45.6671L445.603 43.845L455.68 54.9201L452.549 56.7423L442.472 45.6671Z" fill="#EC9941"/>
<path d="M452.549 56.7423L455.68 54.9202C455.836 54.9629 455.978 55.0198 456.149 55.1052C456.477 55.2903 456.775 55.5608 457.032 55.8739L453.901 57.6961C453.63 57.3971 453.331 57.1124 453.018 56.9274C452.847 56.8419 452.691 56.785 452.549 56.7423Z" fill="#EC9941"/>
<path d="M453.901 57.6961L457.032 55.874L472.402 55.6747L469.271 57.4968L453.901 57.6961Z" fill="#EC9941"/>
<path d="M469.271 57.4968L472.402 55.6747C472.459 55.6747 472.516 55.6889 472.573 55.7174L469.442 57.5395C469.385 57.5253 469.328 57.4968 469.271 57.4968Z" fill="#2F97ED"/>
<g opacity="0.35">
<path d="M379.894 53.1123C382.983 54.8917 385.487 59.2193 385.473 62.7639L385.288 129.685C385.274 133.229 382.755 134.653 379.681 132.873L289.037 80.5297C285.949 78.7502 283.458 74.4369 283.473 70.8923L283.658 3.97163C283.672 0.427014 286.177 -0.996526 289.265 0.7829L379.894 53.1123Z" fill="url(#paint37_linear)"/>
<path opacity="0.35" d="M307.909 22.8763L307.895 28.4565C303.255 25.8372 299.512 28.0295 299.498 33.382C299.484 36.7842 301.006 40.6705 303.312 43.7596L300.708 46.9483C297.05 42.0941 294.645 35.9586 294.659 30.5776C294.687 22.1502 300.594 18.748 307.909 22.8763Z" fill="#C0C0ED"/>
<path opacity="0.35" d="M308.037 22.9474C315.395 27.2038 321.358 37.5103 321.33 45.9803C321.301 54.4504 315.31 57.8669 307.952 53.6105C305.262 52.0589 302.785 49.6958 300.708 46.9483L303.312 43.7596C304.636 45.539 306.244 47.048 307.966 48.0445C312.662 50.7492 316.477 48.5712 316.491 43.1902C316.505 37.795 312.719 31.2325 308.023 28.5277L307.895 28.4708L307.909 22.8905L308.037 22.9474Z" fill="#C0C0ED"/>
<path opacity="0.35" d="M330.296 78.7645C331.605 79.519 332.644 81.3553 332.644 82.85C332.644 84.3448 331.577 84.9569 330.282 84.2166C328.972 83.4622 327.919 81.6258 327.919 80.1311C327.919 78.6221 328.986 77.9958 330.296 78.7645Z" fill="#C0C0ED"/>
<path opacity="0.35" d="M342.877 43.0621L342.863 48.6281C338.166 45.9091 334.352 48.0872 334.338 53.4824C334.323 58.8634 338.095 65.4401 342.806 68.1449C346.079 70.0382 348.94 69.5399 350.363 67.2196L354.661 72.2447C352.427 75.9032 347.943 76.6861 342.791 73.7109C335.434 69.4545 329.47 59.1338 329.499 50.678C329.513 42.2222 335.505 38.8199 342.877 43.0621Z" fill="#C0C0ED"/>
<path opacity="0.35" d="M342.877 43.062C350.235 47.3042 356.198 57.6248 356.17 66.0949C356.155 68.6288 355.6 70.6929 354.647 72.2588L350.349 67.2337C350.975 66.2373 351.316 64.9134 351.316 63.3048C351.331 57.9095 347.545 51.347 342.848 48.6423L342.877 43.062Z" fill="#C0C0ED"/>
<path opacity="0.35" d="M379.595 91.5194L379.581 94.6797L366.032 86.8502V83.6899L379.595 91.5194Z" fill="#C0C0ED"/>
<path opacity="0.35" d="M379.624 82.5512L379.61 85.6972L366.047 77.8677L366.061 74.7217L379.624 82.5512Z" fill="#C0C0ED"/>
<path opacity="0.35" d="M379.638 73.5828V76.743L366.075 68.9136L366.089 65.7533L379.638 73.5828Z" fill="#C0C0ED"/>
<path opacity="0.35" d="M379.667 64.6145L379.652 67.7748L366.103 59.9453L366.118 56.785L379.667 64.6145Z" fill="#C0C0ED"/>
<path opacity="0.35" d="M379.567 100.488L379.553 103.648L366.004 95.8185V92.6582L379.567 100.488Z" fill="#C0C0ED"/>
<path opacity="0.35" d="M291.684 56.4576C292.994 57.2121 294.033 59.0484 294.033 60.5431C294.033 62.0379 292.965 62.65 291.67 61.9097C290.361 61.1553 289.308 59.3189 289.308 57.8242C289.308 56.3152 290.361 55.7031 291.684 56.4576Z" fill="#C0C0ED"/>
<path opacity="0.35" d="M322.112 75.3907L322.098 77.8677L297.79 63.8316L297.804 61.3546L322.112 75.3907Z" fill="#C0C0ED"/>
<path opacity="0.35" d="M291.642 68.7997C292.951 69.5542 293.99 71.3906 293.99 72.8853C293.99 74.38 292.923 74.9922 291.628 74.2519C290.318 73.4974 289.265 71.6611 289.265 70.1663C289.279 68.6574 290.332 68.0453 291.642 68.7997Z" fill="#C0C0ED"/>
<path opacity="0.35" d="M322.084 87.7471L322.07 90.224L297.761 76.1737V73.7109L322.084 87.7471Z" fill="#C0C0ED"/>
<path opacity="0.35" d="M360.681 110.04V112.517L336.373 98.4805L336.387 96.0035L360.681 110.04Z" fill="#C0C0ED"/>
<path opacity="0.35" d="M360.724 97.6976L360.71 100.16L336.416 86.1242V83.6615L360.724 97.6976Z" fill="#C0C0ED"/>
<path opacity="0.35" d="M330.267 91.1066C331.577 91.8611 332.616 93.6975 332.616 95.1922C332.616 96.6869 331.548 97.299 330.253 96.5588C328.944 95.8043 327.891 93.9679 327.891 92.4732C327.891 90.9643 328.944 90.3522 330.267 91.1066Z" fill="#C0C0ED"/>
</g>
<path d="M374.201 58.8065C377.29 60.5859 379.795 64.9135 379.78 68.4581L379.595 135.379C379.581 138.923 377.062 140.347 373.988 138.568L283.344 86.2239C280.256 84.4445 277.766 80.1311 277.78 76.5865L277.965 9.66585C277.979 6.12123 280.484 4.69769 283.572 6.47711L374.201 58.8065Z" fill="url(#paint38_linear)"/>
<path d="M302.216 28.5705L302.202 34.1507C297.562 31.5314 293.819 33.7237 293.805 39.0762C293.791 42.4785 295.314 46.3647 297.619 49.4538L295.015 52.6425C291.357 47.7883 288.952 41.6528 288.966 36.2718C288.995 27.8445 294.901 24.4422 302.216 28.5705Z" fill="#C1C5F4"/>
<path d="M302.344 28.6417C309.702 32.898 315.665 43.2045 315.637 51.6746C315.608 60.1446 309.617 63.5611 302.259 59.3047C299.569 57.7531 297.093 55.39 295.015 52.6426L297.619 49.4538C298.943 51.2333 300.551 52.7422 302.273 53.7387C306.97 56.4434 310.784 54.2654 310.798 48.8844C310.812 43.4892 307.027 36.9267 302.33 34.2219L302.202 34.165L302.216 28.5847L302.344 28.6417Z" fill="url(#paint39_linear)"/>
<path d="M324.603 84.4587C325.912 85.2132 326.951 87.0495 326.951 88.5443C326.951 90.039 325.884 90.6511 324.589 89.9109C323.279 89.1564 322.226 87.32 322.226 85.8253C322.226 84.3163 323.294 83.69 324.603 84.4587Z" fill="#C1C5F4"/>
<path d="M337.184 48.7563L337.17 54.3223C332.473 51.6034 328.659 53.7814 328.645 59.1766C328.631 64.5576 332.402 71.1344 337.113 73.8391C340.386 75.7324 343.247 75.2342 344.67 72.9138L348.968 77.9389C346.734 81.5974 342.251 82.3803 337.099 79.4051C329.741 75.1487 323.778 64.8281 323.806 56.3722C323.82 47.9164 329.812 44.5141 337.184 48.7563Z" fill="#C1C5F4"/>
<path d="M337.184 48.7562C344.542 52.9984 350.505 63.319 350.477 71.7891C350.463 74.323 349.907 76.3872 348.954 77.953L344.656 72.9279C345.282 71.9315 345.624 70.6076 345.624 68.999C345.638 63.6038 341.852 57.0412 337.156 54.3365L337.184 48.7562Z" fill="url(#paint40_linear)"/>
<path d="M373.903 97.2136L373.888 100.374L360.34 92.5444V89.3842L373.903 97.2136Z" fill="#C1C5F4"/>
<path d="M373.931 88.2454L373.917 91.3914L360.354 83.5619L360.368 80.4159L373.931 88.2454Z" fill="#C1C5F4"/>
<path d="M373.945 79.277V82.4372L360.382 74.6078L360.396 71.4475L373.945 79.277Z" fill="#C1C5F4"/>
<path d="M373.974 70.3087L373.96 73.469L360.411 65.6395L360.425 62.4792L373.974 70.3087Z" fill="#C1C5F4"/>
<path d="M373.874 106.182L373.86 109.342L360.311 101.513V98.3524L373.874 106.182Z" fill="#C1C5F4"/>
<path d="M285.992 62.1518C287.301 62.9063 288.34 64.7426 288.34 66.2374C288.34 67.7321 287.273 68.3442 285.977 67.604C284.668 66.8495 283.615 65.0131 283.615 63.5184C283.615 62.0094 284.668 61.3973 285.992 62.1518Z" fill="#C1C5F4"/>
<path d="M316.42 81.0849L316.405 83.5619L292.097 69.5258L292.111 67.0488L316.42 81.0849Z" fill="#C1C5F4"/>
<path d="M285.949 74.494C287.258 75.2484 288.297 77.0848 288.297 78.5795C288.297 80.0742 287.23 80.6864 285.935 79.9461C284.625 79.1916 283.572 77.3553 283.572 75.8606C283.586 74.3516 284.64 73.7395 285.949 74.494Z" fill="#C1C5F4"/>
<path d="M316.391 93.4413L316.377 95.9182L292.069 81.8679V79.4052L316.391 93.4413Z" fill="#C1C5F4"/>
<path d="M354.988 115.734V118.211L330.68 104.175L330.694 101.698L354.988 115.734Z" fill="#C1C5F4"/>
<path d="M355.031 103.392L355.017 105.855L330.723 91.8184V89.3557L355.031 103.392Z" fill="#C1C5F4"/>
<path d="M324.575 96.8007C325.884 97.5552 326.923 99.3916 326.923 100.886C326.923 102.381 325.855 102.993 324.56 102.253C323.251 101.498 322.198 99.662 322.198 98.1673C322.198 96.6584 323.251 96.0462 324.575 96.8007Z" fill="#C1C5F4"/>
<g opacity="0.35">
<path d="M424.64 79.4052C426.148 80.2735 427.358 82.3804 427.358 84.1171L427.13 166.085C427.13 167.821 425.906 168.519 424.398 167.65L402.537 155.024C401.029 154.155 399.805 152.048 399.805 150.312L400.033 68.3442C400.033 66.6075 401.271 65.9242 402.779 66.7926L424.64 79.4052Z" fill="url(#paint41_linear)"/>
<path opacity="0.35" d="M413.667 87.9606C414.706 88.5585 415.545 90.0248 415.545 91.2063C415.545 92.4021 414.691 92.8861 413.653 92.2882C412.614 91.6903 411.774 90.2383 411.774 89.0425C411.788 87.8325 412.628 87.3485 413.667 87.9606Z" fill="#C0C0ED"/>
<path opacity="0.35" d="M413.596 114.695C414.635 115.293 415.474 116.759 415.474 117.94C415.474 119.136 414.62 119.62 413.581 119.022C412.543 118.424 411.703 116.972 411.703 115.777C411.703 114.581 412.542 114.097 413.596 114.695Z" fill="#C0C0ED"/>
<path opacity="0.35" d="M413.51 141.443C414.549 142.041 415.389 143.507 415.389 144.689C415.389 145.885 414.535 146.369 413.496 145.771C412.457 145.173 411.617 143.721 411.617 142.525C411.632 141.329 412.471 140.845 413.51 141.443Z" fill="#C0C0ED"/>
<path opacity="0.35" d="M413.539 133.87C418.221 136.575 422.007 143.137 421.993 148.504C421.978 153.899 418.164 156.063 413.482 153.358C408.799 150.653 405.014 144.091 405.028 138.71C405.042 133.343 408.856 131.179 413.539 133.87ZM413.496 150.07C416.599 151.863 419.132 150.44 419.132 146.853C419.146 143.294 416.627 138.923 413.524 137.144C410.422 135.35 407.889 136.802 407.889 140.361C407.874 143.948 410.379 148.276 413.496 150.07Z" fill="#C0C0ED"/>
<path opacity="0.35" d="M413.61 107.136C418.292 109.84 422.078 116.403 422.064 121.77C422.049 127.165 418.235 129.329 413.553 126.624C408.871 123.919 405.085 117.357 405.099 111.976C405.128 106.595 408.928 104.431 413.61 107.136ZM413.567 123.321C416.67 125.115 419.203 123.677 419.203 120.104C419.217 116.545 416.698 112.175 413.596 110.396C410.493 108.602 407.96 110.054 407.96 113.613C407.945 117.186 410.465 121.528 413.567 123.321Z" fill="#C0C0ED"/>
<path opacity="0.35" d="M413.695 80.3874C418.378 83.0921 422.163 89.6547 422.149 95.0214C422.135 100.417 418.321 102.58 413.638 99.8757C408.956 97.171 405.17 90.6084 405.185 85.2275C405.199 79.8465 409.013 77.6827 413.695 80.3874ZM413.638 96.5873C416.741 98.381 419.274 96.9432 419.288 93.3701C419.303 89.8113 416.784 85.441 413.681 83.6616C410.578 81.8679 408.045 83.3199 408.045 86.8788C408.031 90.4376 410.536 94.7794 413.638 96.5873Z" fill="#C0C0ED"/>
</g>
<path d="M418.947 85.0994C420.455 85.9677 421.665 88.0746 421.665 89.8113L421.437 171.779C421.437 173.516 420.214 174.213 418.705 173.345L396.845 160.718C395.336 159.85 394.112 157.743 394.112 156.006L394.34 74.0385C394.34 72.3017 395.578 71.6184 397.087 72.4868L418.947 85.0994Z" fill="url(#paint42_linear)"/>
<path d="M407.974 93.6548C409.013 94.2527 409.853 95.719 409.853 96.9005C409.853 98.0963 408.999 98.5803 407.96 97.9824C406.921 97.3845 406.081 95.9325 406.081 94.7367C406.095 93.5267 406.935 93.0427 407.974 93.6548Z" fill="#C1C5F4"/>
<path d="M407.903 120.389C408.942 120.987 409.781 122.453 409.781 123.635C409.781 124.83 408.928 125.314 407.889 124.717C406.85 124.119 406.01 122.667 406.01 121.471C406.01 120.275 406.85 119.791 407.903 120.389Z" fill="#C1C5F4"/>
<path d="M407.817 147.137C408.856 147.735 409.696 149.201 409.696 150.383C409.696 151.579 408.842 152.063 407.803 151.465C406.764 150.867 405.925 149.415 405.925 148.219C405.939 147.023 406.779 146.539 407.817 147.137Z" fill="#C1C5F4"/>
<path d="M407.846 139.564C412.528 142.269 416.314 148.831 416.3 154.198C416.286 159.593 412.471 161.757 407.789 159.052C403.107 156.348 399.321 149.785 399.335 144.404C399.349 139.037 403.164 136.874 407.846 139.564ZM407.803 155.764C410.906 157.558 413.439 156.134 413.439 152.547C413.453 148.988 410.934 144.618 407.832 142.838C404.729 141.044 402.196 142.497 402.196 146.055C402.182 149.643 404.686 153.97 407.803 155.764Z" fill="url(#paint43_linear)"/>
<path d="M407.917 112.83C412.599 115.535 416.385 122.097 416.371 127.464C416.357 132.859 412.542 135.023 407.86 132.318C403.178 129.613 399.392 123.051 399.406 117.67C399.435 112.289 403.235 110.125 407.917 112.83ZM407.874 129.016C410.977 130.809 413.51 129.371 413.51 125.798C413.524 122.24 411.005 117.869 407.903 116.09C404.8 114.296 402.267 115.748 402.267 119.307C402.253 122.88 404.772 127.222 407.874 129.016Z" fill="url(#paint44_linear)"/>
<path d="M408.002 86.0816C412.685 88.7864 416.47 95.3489 416.456 100.716C416.442 106.111 412.628 108.275 407.946 105.57C403.263 102.865 399.478 96.3027 399.492 90.9217C399.506 85.5407 403.32 83.3769 408.002 86.0816ZM407.946 102.282C411.048 104.075 413.581 102.637 413.596 99.0643C413.61 95.5055 411.091 91.1352 407.988 89.3558C404.886 87.5621 402.352 89.0141 402.352 92.573C402.338 96.1318 404.843 100.474 407.946 102.282Z" fill="url(#paint45_linear)"/>
<g opacity="0.35">
<path d="M358.746 142.454C361.862 144.247 364.367 148.618 364.367 152.176L364.296 174.982C364.282 178.555 361.763 180.007 358.646 178.199L287.657 137.201C284.554 135.407 282.035 131.051 282.035 127.478L282.106 104.673C282.121 101.1 284.654 99.662 287.756 101.456L358.746 142.454Z" fill="url(#paint46_linear)"/>
<path opacity="0.35" d="M305.048 122.567C305.546 123.435 305.788 124.289 305.788 125.115L305.76 134.354C305.76 135.151 305.504 135.72 305.006 136.048C304.507 136.389 303.91 136.347 303.198 135.934L295.114 131.265C294.403 130.852 293.805 130.211 293.307 129.286C292.809 128.375 292.567 127.521 292.567 126.724L292.595 117.485C292.595 116.659 292.851 116.09 293.35 115.791C293.848 115.492 294.445 115.549 295.157 115.962L303.241 120.631C303.952 121.058 304.55 121.698 305.048 122.567ZM295.015 125.684L302.273 122.923L295.684 119.122C295.342 118.923 295.143 118.837 295.1 118.866C295.057 118.894 295.029 119.108 295.029 119.506L295.015 125.684ZM303.355 132.347L303.369 126.168L296.111 128.916L302.7 132.717C303.042 132.916 303.241 133.001 303.284 132.973C303.326 132.959 303.355 132.745 303.355 132.347Z" fill="#C0C0ED"/>
<path opacity="0.35" d="M322.611 137.784C322.611 138.041 322.568 138.268 322.511 138.51C322.44 138.738 322.34 138.938 322.212 139.108C322.354 139.422 322.44 139.735 322.511 140.019C322.568 140.318 322.596 140.589 322.596 140.859L322.582 144.19C322.582 145.002 322.326 145.557 321.828 145.842C321.33 146.126 320.718 146.055 320.02 145.657L311.937 140.987C311.239 140.589 310.641 139.948 310.143 139.094C309.645 138.226 309.389 137.4 309.389 136.574L309.403 133.243C309.403 132.987 309.446 132.759 309.517 132.532C309.588 132.318 309.688 132.119 309.788 131.934C309.674 131.635 309.588 131.322 309.517 131.023C309.446 130.724 309.403 130.425 309.403 130.154L309.417 127.122C309.417 126.311 309.674 125.756 310.172 125.485C310.67 125.215 311.268 125.272 311.979 125.684L320.063 130.354C320.675 130.709 321.23 131.265 321.714 132.005C322.198 132.759 322.497 133.5 322.611 134.226V137.784ZM320.163 142.212V140.091C320.163 139.692 320.148 139.45 320.106 139.379C320.063 139.293 319.864 139.165 319.522 138.966L312.477 134.895C312.136 134.695 311.937 134.61 311.894 134.638C311.851 134.653 311.823 134.866 311.823 135.265V137.386C311.823 137.784 311.851 138.026 311.88 138.098C311.922 138.183 312.122 138.311 312.463 138.51L319.508 142.582C319.85 142.781 320.049 142.867 320.091 142.838C320.148 142.824 320.163 142.61 320.163 142.212ZM320.177 136.019V133.969C320.177 133.585 320.163 133.343 320.12 133.258C320.077 133.186 319.878 133.044 319.536 132.845L312.492 128.773C312.15 128.574 311.951 128.489 311.908 128.517C311.865 128.546 311.837 128.759 311.837 129.144V131.193C311.837 131.578 311.865 131.82 311.894 131.891C311.937 131.976 312.136 132.105 312.477 132.304L319.522 136.375C319.864 136.574 320.063 136.66 320.106 136.631C320.163 136.617 320.177 136.404 320.177 136.019Z" fill="#C0C0ED"/>
<path opacity="0.35" d="M326.183 136.831L328.616 138.226L328.602 141.016L326.183 139.607V136.831Z" fill="#C0C0ED"/>
<path opacity="0.35" d="M326.154 149.201V146.425L328.588 147.82L328.574 150.596L326.154 149.201Z" fill="#C0C0ED"/>
<path opacity="0.35" d="M337.682 140.532L337.64 155.835L335.192 154.426L335.22 143.137L334.167 144.02L330.965 142.169L334.992 138.98L337.682 140.532Z" fill="#C0C0ED"/>
<path opacity="0.35" d="M353.821 149.856L353.807 152.632L343.688 146.796C343.347 146.596 343.147 146.511 343.105 146.539C343.062 146.568 343.033 146.781 343.033 147.18V149.002C343.033 149.401 343.048 149.628 343.09 149.714C343.133 149.785 343.332 149.927 343.674 150.127L351.245 154.497C351.943 154.895 352.54 155.536 353.039 156.39C353.537 157.259 353.779 158.084 353.779 158.896L353.764 162.227C353.764 163.038 353.508 163.593 353.01 163.878C352.512 164.163 351.914 164.106 351.203 163.693L343.119 159.024C342.421 158.625 341.81 157.985 341.311 157.116C340.813 156.248 340.571 155.422 340.571 154.611V153.614L342.991 155.009V155.408C342.991 155.807 343.005 156.049 343.048 156.12C343.09 156.205 343.29 156.333 343.631 156.533L350.676 160.604C351.018 160.803 351.217 160.889 351.26 160.86C351.302 160.846 351.331 160.618 351.331 160.234V158.113C351.331 157.714 351.302 157.472 351.274 157.401C351.231 157.315 351.032 157.187 350.69 156.988L340.571 151.137L340.6 142.226L353.821 149.856Z" fill="#C0C0ED"/>
</g>
<path d="M354.476 146.724C357.593 148.518 360.098 152.888 360.098 156.447L360.026 179.252C360.012 182.825 357.493 184.277 354.376 182.469L283.387 141.471C280.285 139.678 277.766 135.322 277.766 131.749L277.837 108.944C277.851 105.37 280.384 103.933 283.487 105.726L354.476 146.724Z" fill="url(#paint47_linear)"/>
<path d="M300.779 126.837C301.277 127.706 301.519 128.56 301.519 129.386L301.49 138.624C301.49 139.422 301.234 139.991 300.736 140.318C300.238 140.66 299.64 140.617 298.929 140.204L290.845 135.535C290.133 135.122 289.535 134.482 289.037 133.557C288.539 132.645 288.297 131.791 288.297 130.994L288.326 121.755C288.326 120.93 288.582 120.36 289.08 120.061C289.578 119.762 290.176 119.819 290.887 120.232L298.971 124.901C299.683 125.328 300.281 125.969 300.779 126.837ZM290.745 129.955L298.003 127.193L291.414 123.392C291.072 123.193 290.873 123.108 290.831 123.136C290.788 123.165 290.759 123.378 290.759 123.777L290.745 129.955ZM299.085 136.617L299.099 130.439L291.841 133.186L298.43 136.987C298.772 137.187 298.971 137.272 299.014 137.244C299.057 137.229 299.085 137.016 299.085 136.617Z" fill="#C1C5F4"/>
<path d="M318.341 142.055C318.341 142.311 318.298 142.539 318.241 142.781C318.17 143.009 318.071 143.208 317.942 143.379C318.085 143.692 318.17 144.005 318.241 144.29C318.298 144.589 318.327 144.859 318.327 145.13L318.312 148.461C318.312 149.272 318.056 149.828 317.558 150.112C317.06 150.397 316.448 150.326 315.751 149.927L307.667 145.258C306.97 144.859 306.372 144.219 305.874 143.365C305.376 142.496 305.119 141.671 305.119 140.845L305.134 137.514C305.134 137.258 305.176 137.03 305.248 136.802C305.319 136.589 305.418 136.389 305.518 136.204C305.404 135.905 305.319 135.592 305.248 135.293C305.176 134.994 305.134 134.695 305.134 134.425L305.148 131.393C305.148 130.581 305.404 130.026 305.902 129.756C306.4 129.485 306.998 129.542 307.71 129.955L315.793 134.624C316.405 134.98 316.96 135.535 317.444 136.276C317.928 137.03 318.227 137.77 318.341 138.496V142.055ZM315.893 146.482V144.361C315.893 143.963 315.879 143.721 315.836 143.649C315.793 143.564 315.594 143.436 315.253 143.237L308.208 139.165C307.866 138.966 307.667 138.881 307.624 138.909C307.582 138.923 307.553 139.137 307.553 139.535V141.657C307.553 142.055 307.582 142.297 307.61 142.368C307.653 142.454 307.852 142.582 308.194 142.781L315.238 146.852C315.58 147.052 315.779 147.137 315.822 147.109C315.879 147.094 315.893 146.881 315.893 146.482ZM315.907 140.29V138.24C315.907 137.856 315.893 137.614 315.85 137.528C315.808 137.457 315.608 137.315 315.267 137.115L308.222 133.044C307.88 132.845 307.681 132.759 307.639 132.788C307.596 132.816 307.567 133.03 307.567 133.414V135.464C307.567 135.848 307.596 136.09 307.624 136.162C307.667 136.247 307.866 136.375 308.208 136.574L315.253 140.646C315.594 140.845 315.793 140.931 315.836 140.902C315.893 140.888 315.907 140.674 315.907 140.29Z" fill="#C1C5F4"/>
<path d="M321.913 141.101L324.347 142.496L324.333 145.287L321.913 143.877V141.101Z" fill="#C1C5F4"/>
<path d="M321.885 153.472V150.696L324.318 152.091L324.304 154.867L321.885 153.472Z" fill="#C1C5F4"/>
<path d="M333.413 144.803L333.37 160.106L330.922 158.696L330.95 147.408L329.897 148.29L326.695 146.44L330.723 143.251L333.413 144.803Z" fill="#C1C5F4"/>
<path d="M349.552 154.127L349.538 156.903L339.419 151.066C339.077 150.867 338.878 150.781 338.835 150.81C338.792 150.838 338.764 151.052 338.764 151.45V153.273C338.764 153.671 338.778 153.899 338.821 153.984C338.863 154.056 339.063 154.198 339.404 154.397L346.976 158.767C347.673 159.166 348.271 159.807 348.769 160.661C349.267 161.529 349.509 162.355 349.509 163.166L349.495 166.497C349.495 167.309 349.239 167.864 348.74 168.149C348.242 168.433 347.645 168.376 346.933 167.964L338.849 163.294C338.152 162.896 337.54 162.255 337.042 161.387C336.544 160.518 336.302 159.693 336.302 158.881V157.885L338.721 159.28V159.679C338.721 160.077 338.735 160.319 338.778 160.39C338.821 160.476 339.02 160.604 339.362 160.803L346.406 164.874C346.748 165.074 346.947 165.159 346.99 165.131C347.033 165.116 347.061 164.889 347.061 164.504V162.383C347.061 161.985 347.033 161.743 347.004 161.672C346.962 161.586 346.762 161.458 346.421 161.259L336.302 155.408L336.33 146.497L349.552 154.127Z" fill="#C1C5F4"/>
<g opacity="0.35">
<path opacity="0.35" d="M423.06 186.028C425.38 187.366 427.273 190.626 427.258 193.303L427.201 212.122C427.187 214.798 425.294 215.866 422.974 214.528L377.247 188.121C374.927 186.783 373.049 183.523 373.049 180.861L373.106 162.042C373.12 159.351 374.999 158.283 377.333 159.622L423.06 186.028Z" fill="#58E0AB"/>
<path opacity="0.35" d="M391.223 176.121C391.764 176.434 392.233 176.932 392.632 177.601C393.03 178.284 393.23 178.953 393.23 179.594V180.576L391.18 179.395V178.953C391.18 178.626 391.166 178.455 391.166 178.427C391.152 178.398 391.009 178.299 390.711 178.128L385.616 175.195C385.331 175.039 385.189 174.953 385.174 174.967C385.16 174.982 385.146 175.138 385.146 175.466V176.69C385.146 177.017 385.16 177.188 385.174 177.217C385.189 177.259 385.331 177.359 385.616 177.516L391.209 180.747C391.749 181.06 392.219 181.558 392.618 182.228C393.016 182.925 393.215 183.566 393.215 184.206V186.541C393.215 187.181 393.016 187.623 392.618 187.836C392.219 188.05 391.749 188.007 391.194 187.694L385.132 184.192C384.577 183.879 384.107 183.366 383.723 182.697C383.338 182.028 383.139 181.359 383.139 180.719V179.722L385.146 180.875V181.316C385.146 181.644 385.16 181.815 385.174 181.857C385.189 181.886 385.331 181.986 385.616 182.142L390.711 185.075C390.995 185.245 391.152 185.317 391.166 185.302C391.18 185.274 391.18 185.117 391.18 184.79V183.566C391.18 183.238 391.166 183.067 391.166 183.039C391.152 183.01 391.009 182.911 390.711 182.74L385.146 179.523C384.591 179.21 384.121 178.697 383.737 178.028C383.353 177.359 383.153 176.69 383.153 176.064V173.729C383.153 173.088 383.353 172.647 383.751 172.419C384.15 172.192 384.619 172.248 385.174 172.576L391.223 176.121Z" fill="#58E0AB"/>
<path opacity="0.35" d="M405.142 184.163V186.484L397.869 182.284V184.605L403.719 187.979V190.299L397.855 186.911V189.231L405.128 193.431L405.113 195.751L395.806 190.384L395.848 178.782L405.142 184.163Z" fill="#58E0AB"/>
<path opacity="0.35" d="M417.182 191.11L417.168 193.431L413.14 191.096L413.112 200.363L411.091 199.21L411.119 189.929L407.092 187.594V185.288L417.182 191.11Z" fill="#58E0AB"/>
</g>
<path d="M418.79 190.299C421.11 191.637 423.003 194.897 422.989 197.573L422.932 216.392C422.918 219.069 421.025 220.136 418.705 218.798L372.978 192.392C370.658 191.053 368.779 187.794 368.779 185.131L368.836 166.312C368.85 163.622 370.729 162.554 373.063 163.892L418.79 190.299Z" fill="url(#paint48_linear)"/>
<path d="M386.953 180.391C387.494 180.704 387.964 181.202 388.362 181.872C388.761 182.555 388.96 183.224 388.96 183.864V184.847L386.911 183.665V183.224C386.911 182.896 386.896 182.726 386.896 182.697C386.882 182.669 386.74 182.569 386.441 182.398L381.346 179.466C381.061 179.309 380.919 179.224 380.905 179.238C380.891 179.252 380.876 179.409 380.876 179.736V180.96C380.876 181.288 380.891 181.459 380.905 181.487C380.919 181.53 381.061 181.63 381.346 181.786L386.939 185.018C387.48 185.331 387.95 185.829 388.348 186.498C388.747 187.196 388.946 187.836 388.946 188.477V190.811C388.946 191.452 388.747 191.893 388.348 192.107C387.95 192.32 387.48 192.278 386.925 191.964L380.862 188.462C380.307 188.149 379.837 187.637 379.453 186.968C379.069 186.299 378.87 185.63 378.87 184.989V183.993L380.876 185.146V185.587C380.876 185.914 380.891 186.085 380.905 186.128C380.919 186.156 381.061 186.256 381.346 186.413L386.441 189.345C386.726 189.516 386.882 189.587 386.896 189.573C386.911 189.544 386.911 189.388 386.911 189.06V187.836C386.911 187.509 386.896 187.338 386.896 187.309C386.882 187.281 386.74 187.181 386.441 187.01L380.876 183.793C380.321 183.48 379.852 182.968 379.467 182.299C379.083 181.63 378.884 180.96 378.884 180.334V177.999C378.884 177.359 379.083 176.918 379.482 176.69C379.88 176.462 380.35 176.519 380.905 176.846L386.953 180.391Z" fill="white"/>
<path d="M400.872 188.434V190.754L393.6 186.555V188.875L399.449 192.249V194.57L393.585 191.182V193.502L400.858 197.701L400.844 200.022L391.536 194.655L391.579 183.053L400.872 188.434Z" fill="white"/>
<path d="M412.912 195.381L412.898 197.701L408.871 195.367L408.842 204.634L406.821 203.481L406.85 194.199L402.822 191.865V189.559L412.912 195.381Z" fill="white"/>
<g opacity="0.35">
<path d="M205.823 26.8907C209.509 24.7554 212.526 26.4779 212.54 30.72L212.697 88.2168C212.711 92.4732 209.722 97.6407 206.022 99.776L113.244 153.358C109.558 155.493 106.541 153.785 106.526 149.529L106.37 92.0319C106.356 87.7898 109.344 82.6081 113.045 80.4728L205.823 26.8907Z" fill="url(#paint49_linear)"/>
<path opacity="0.35" d="M127.618 105.029L127.704 133.258L117.129 139.365L117.044 111.136L127.618 105.029Z" fill="#C0C0ED"/>
<path opacity="0.35" d="M143.999 82.722L144.113 123.777L133.539 129.884L133.411 88.8433L143.999 82.722Z" fill="#C0C0ED"/>
<path opacity="0.35" d="M162.7 65.2836L162.842 112.972L152.254 119.079L152.111 71.4048L162.7 65.2836Z" fill="#C0C0ED"/>
<path opacity="0.35" d="M183.023 105.057L183.038 107.577L135.844 134.824L135.83 132.318L183.023 105.057Z" fill="#C0C0ED"/>
<path opacity="0.35" d="M181.358 61.1553L181.472 102.21L170.883 108.317L170.77 67.2765L181.358 61.1553Z" fill="#C0C0ED"/>
<path opacity="0.35" d="M201.582 39.4463L201.724 90.5087L191.136 96.6299L190.993 45.5675L201.582 39.4463Z" fill="#C0C0ED"/>
<path opacity="0.35" d="M127.561 83.3057L127.575 85.5833L116.076 92.217V89.9394L127.561 83.3057Z" fill="#C0C0ED"/>
<path opacity="0.35" d="M136.698 72.3301V74.622L116.062 86.537V84.2593L136.698 72.3301Z" fill="#C0C0ED"/>
</g>
<path d="M210.093 32.5849C213.779 30.4496 216.796 32.1721 216.81 36.4142L216.967 93.9111C216.981 98.1674 213.992 103.335 210.292 105.47L117.513 159.052C113.827 161.188 110.81 159.479 110.796 155.223L110.639 97.7262C110.625 93.484 113.614 88.3023 117.314 86.167L210.093 32.5849Z" fill="url(#paint50_linear)"/>
<path d="M131.888 110.723L131.973 138.952L121.399 145.059L121.313 116.83L131.888 110.723Z" fill="url(#paint51_linear)"/>
<path d="M148.269 88.4161L148.383 129.471L137.808 135.578L137.68 94.5374L148.269 88.4161Z" fill="url(#paint52_linear)"/>
<path d="M166.97 70.9778L167.112 118.666L156.523 124.773L156.381 77.099L166.97 70.9778Z" fill="url(#paint53_linear)"/>
<path d="M187.293 110.751L187.307 113.271L140.114 140.518L140.1 138.012L187.293 110.751Z" fill="#C1C5F4"/>
<path d="M185.628 66.8495L185.742 107.904L175.153 114.011L175.039 72.9707L185.628 66.8495Z" fill="url(#paint54_linear)"/>
<path d="M205.851 45.1405L205.994 96.2029L195.405 102.324L195.263 51.2617L205.851 45.1405Z" fill="url(#paint55_linear)"/>
<path d="M131.831 88.9999L131.845 91.2775L120.346 97.9113V95.6336L131.831 88.9999Z" fill="#C1C5F4"/>
<path d="M140.968 78.0243V80.3162L120.331 92.2312V89.9536L140.968 78.0243Z" fill="#C1C5F4"/>
<g opacity="0.35">
<path d="M158.459 144.703C161.49 142.952 163.952 144.361 163.967 147.835L164.18 224.991C164.194 228.478 161.746 232.706 158.715 234.457L112.105 261.376C109.074 263.127 106.612 261.718 106.598 258.245L106.384 181.089C106.37 177.601 108.818 173.373 111.849 171.622L158.459 144.703Z" fill="url(#paint56_linear)"/>
<path opacity="0.35" d="M115.137 184.448C116.346 183.751 117.328 184.32 117.328 185.701C117.328 187.096 116.346 188.79 115.151 189.488C113.941 190.185 112.959 189.63 112.959 188.235C112.945 186.84 113.927 185.146 115.137 184.448Z" fill="#C0C0ED"/>
<path opacity="0.35" d="M146.518 167.095V169.771L120.474 184.818V182.128L146.518 167.095Z" fill="#C0C0ED"/>
<path opacity="0.35" d="M161.248 151.65L161.818 152.575C160.651 153.956 159.626 155.678 158.815 157.33C158.53 157.899 158.274 158.469 158.032 159.009C156.965 161.43 156.381 163.38 156.367 163.422L156.082 164.376L153.122 163.864L153.791 162.298L155.527 162.611C155.84 161.686 156.381 160.177 157.15 158.469C157.363 157.999 157.577 157.529 157.818 157.045C158.744 155.18 159.896 153.244 161.248 151.65Z" fill="#C0C0ED"/>
<path opacity="0.35" d="M157.605 173.928C157.69 173.871 157.79 173.829 157.875 173.8C157.633 174.284 157.406 174.768 157.206 175.224L152.581 177.886C152.325 178.028 152.126 178.37 152.126 178.669L152.14 184.448C152.14 184.747 152.339 184.861 152.595 184.705L157.619 181.8C157.875 181.658 158.075 181.316 158.075 181.018L158.06 175.779C158.302 175.238 158.558 174.669 158.843 174.099C158.929 174.256 158.971 174.455 158.971 174.697L158.985 180.477C158.985 181.359 158.373 182.413 157.619 182.84L152.595 185.744C151.827 186.185 151.215 185.843 151.215 184.961L151.201 179.181C151.201 178.299 151.813 177.231 152.581 176.79L157.605 173.928Z" fill="#C0C0ED"/>
<path opacity="0.35" d="M161.291 168.419L161.86 169.344C160.679 170.725 159.669 172.448 158.857 174.113C158.573 174.683 158.317 175.252 158.075 175.793C157.007 178.213 156.424 180.178 156.409 180.206L156.125 181.16L153.165 180.633L153.833 179.067L155.57 179.38C155.883 178.455 156.424 176.946 157.192 175.238C157.406 174.768 157.619 174.298 157.861 173.814C158.8 171.95 159.939 170.014 161.291 168.419Z" fill="#C0C0ED"/>
<path opacity="0.35" d="M157.562 157.145C157.648 157.088 157.747 157.045 157.833 157.017C157.591 157.501 157.363 157.985 157.164 158.44L152.538 161.102C152.282 161.245 152.083 161.586 152.083 161.871L152.097 167.665C152.097 167.949 152.296 168.077 152.553 167.921L157.577 165.017C157.833 164.875 158.032 164.519 158.032 164.234L158.018 158.995C158.26 158.454 158.516 157.885 158.8 157.316C158.886 157.472 158.929 157.671 158.929 157.913L158.943 163.707C158.943 164.576 158.331 165.643 157.577 166.07L152.553 168.974C151.784 169.416 151.172 169.06 151.172 168.191L151.158 162.398C151.158 161.529 151.77 160.462 152.538 160.02L157.562 157.145Z" fill="#C0C0ED"/>
<path opacity="0.35" d="M115.179 201.218C116.389 200.52 117.371 201.089 117.371 202.47C117.371 203.865 116.389 205.559 115.194 206.257C113.984 206.954 113.002 206.399 113.002 205.004C113.002 203.623 113.97 201.929 115.179 201.218Z" fill="#C0C0ED"/>
<path opacity="0.35" d="M146.561 183.865L146.575 186.541L120.516 201.588V198.911L146.561 183.865Z" fill="#C0C0ED"/>
<path opacity="0.35" d="M115.222 217.247C116.432 216.549 117.414 217.104 117.414 218.499C117.414 219.88 116.432 221.588 115.236 222.286C114.027 222.983 113.045 222.414 113.045 221.033C113.045 219.638 114.012 217.944 115.222 217.247Z" fill="#C0C0ED"/>
<path opacity="0.35" d="M149.123 226.969C150.859 225.973 152.268 226.77 152.268 228.763C152.268 230.742 150.873 233.176 149.137 234.173L125.768 247.668C124.032 248.664 122.623 247.867 122.623 245.888C122.623 243.895 124.018 241.475 125.754 240.465L149.123 226.969Z" fill="#C0C0ED"/>
<path opacity="0.35" d="M146.661 215.908V218.585L120.616 233.632L120.602 230.941L146.661 215.908Z" fill="#C0C0ED"/>
<path opacity="0.35" d="M146.604 199.879L146.618 202.556L120.573 217.602L120.559 214.926L146.604 199.879Z" fill="#C0C0ED"/>
<path opacity="0.35" d="M157.662 189.943C157.747 189.886 157.847 189.843 157.932 189.815C157.69 190.299 157.477 190.769 157.263 191.224L152.638 193.901C152.382 194.043 152.183 194.399 152.183 194.683L152.197 200.463C152.197 200.762 152.396 200.876 152.652 200.719L157.676 197.815C157.932 197.673 158.132 197.331 158.132 197.032L158.117 191.808C158.359 191.267 158.615 190.698 158.9 190.128C158.985 190.285 159.028 190.484 159.028 190.726L159.042 196.506C159.042 197.388 158.43 198.456 157.676 198.883L152.652 201.787C151.884 202.228 151.272 201.872 151.272 200.99L151.257 195.21C151.257 194.342 151.869 193.274 152.638 192.833L157.662 189.943Z" fill="#C0C0ED"/>
<path opacity="0.35" d="M161.334 184.448L161.903 185.374C160.722 186.754 159.711 188.477 158.886 190.142C158.601 190.712 158.345 191.281 158.103 191.822C157.036 194.242 156.452 196.207 156.438 196.235L156.153 197.189L153.193 196.676L153.862 195.111L155.598 195.424C155.911 194.498 156.452 192.975 157.235 191.267C157.448 190.811 157.662 190.342 157.904 189.858C158.843 187.979 159.982 186.043 161.334 184.448Z" fill="#C0C0ED"/>
<path opacity="0.35" d="M115.279 233.261C116.489 232.564 117.471 233.133 117.471 234.514C117.471 235.909 116.489 237.603 115.293 238.301C114.084 238.998 113.102 238.443 113.102 237.048C113.087 235.653 114.055 233.959 115.279 233.261Z" fill="#C0C0ED"/>
<path opacity="0.35" d="M157.705 205.958C158.459 205.517 159.071 205.873 159.085 206.741L159.099 212.535C159.099 213.403 158.487 214.471 157.733 214.898L152.709 217.802C151.941 218.243 151.329 217.887 151.329 217.019L151.314 211.225C151.314 210.357 151.926 209.289 152.695 208.848L157.705 205.958ZM158.174 213.061L158.16 207.268C158.16 206.983 157.961 206.869 157.705 207.026L152.681 209.93C152.425 210.072 152.225 210.414 152.225 210.698L152.24 216.492C152.24 216.777 152.439 216.905 152.695 216.748L157.719 213.844C157.975 213.702 158.174 213.346 158.174 213.061Z" fill="#C0C0ED"/>
</g>
<path d="M162.728 150.397C165.76 148.646 168.222 150.056 168.236 153.529L168.45 230.685C168.464 234.173 166.016 238.4 162.985 240.151L116.375 267.071C113.343 268.822 110.881 267.412 110.867 263.939L110.654 186.783C110.639 183.295 113.087 179.067 116.119 177.316L162.728 150.397Z" fill="url(#paint57_linear)"/>
<path d="M119.406 190.142C120.616 189.445 121.598 190.014 121.598 191.395C121.598 192.79 120.616 194.484 119.421 195.182C118.211 195.879 117.229 195.324 117.229 193.929C117.215 192.534 118.197 190.84 119.406 190.142Z" fill="#C1C5F4"/>
<path d="M150.788 172.789V175.466L124.743 190.513V187.822L150.788 172.789Z" fill="#C1C5F4"/>
<path d="M165.518 157.344L166.087 158.269C164.92 159.65 163.896 161.373 163.084 163.024C162.8 163.593 162.543 164.163 162.302 164.704C161.234 167.124 160.651 169.074 160.636 169.117L160.352 170.07L157.392 169.558L158.06 167.992L159.797 168.305C160.11 167.38 160.651 165.871 161.419 164.163C161.633 163.693 161.846 163.223 162.088 162.739C163.013 160.874 164.166 158.938 165.518 157.344Z" fill="url(#paint58_linear)"/>
<path d="M161.875 179.622C161.96 179.565 162.06 179.523 162.145 179.494C161.903 179.978 161.675 180.462 161.476 180.918L156.851 183.58C156.595 183.722 156.395 184.064 156.395 184.363L156.41 190.142C156.41 190.441 156.609 190.555 156.865 190.399L161.889 187.495C162.145 187.352 162.344 187.011 162.344 186.712L162.33 181.473C162.572 180.932 162.828 180.363 163.113 179.793C163.198 179.95 163.241 180.149 163.241 180.391L163.255 186.171C163.255 187.053 162.643 188.107 161.889 188.534L156.865 191.438C156.096 191.879 155.484 191.537 155.484 190.655L155.47 184.875C155.47 183.993 156.082 182.925 156.851 182.484L161.875 179.622Z" fill="#C1C5F4"/>
<path d="M165.561 174.113L166.13 175.039C164.949 176.419 163.938 178.142 163.127 179.807C162.842 180.377 162.586 180.946 162.344 181.487C161.277 183.907 160.693 185.872 160.679 185.9L160.394 186.854L157.434 186.327L158.103 184.761L159.839 185.075C160.153 184.149 160.693 182.64 161.462 180.932C161.675 180.462 161.889 179.993 162.131 179.508C163.07 177.644 164.209 175.708 165.561 174.113Z" fill="url(#paint59_linear)"/>
<path d="M161.832 162.839C161.917 162.782 162.017 162.739 162.102 162.711C161.86 163.195 161.633 163.679 161.433 164.134L156.808 166.796C156.552 166.939 156.353 167.28 156.353 167.565L156.367 173.359C156.367 173.643 156.566 173.772 156.822 173.615L161.846 170.711C162.102 170.569 162.302 170.213 162.302 169.928L162.287 164.689C162.529 164.148 162.785 163.579 163.07 163.01C163.155 163.166 163.198 163.366 163.198 163.608L163.212 169.401C163.212 170.27 162.6 171.337 161.846 171.764L156.822 174.668C156.054 175.11 155.442 174.754 155.442 173.885L155.427 168.092C155.427 167.223 156.039 166.156 156.808 165.714L161.832 162.839Z" fill="#C1C5F4"/>
<path d="M119.449 206.912C120.659 206.214 121.641 206.784 121.641 208.164C121.641 209.559 120.659 211.254 119.463 211.951C118.254 212.649 117.272 212.093 117.272 210.698C117.272 209.317 118.239 207.623 119.449 206.912Z" fill="#C1C5F4"/>
<path d="M150.831 189.559L150.845 192.235L124.786 207.282V204.606L150.831 189.559Z" fill="#C1C5F4"/>
<path d="M119.492 222.941C120.701 222.243 121.683 222.798 121.683 224.193C121.683 225.574 120.701 227.283 119.506 227.98C118.296 228.678 117.314 228.108 117.314 226.727C117.314 225.332 118.282 223.638 119.492 222.941Z" fill="#C1C5F4"/>
<path d="M153.392 232.664C155.129 231.667 156.538 232.464 156.538 234.457C156.538 236.436 155.143 238.87 153.407 239.867L130.038 253.362C128.301 254.358 126.892 253.561 126.892 251.582C126.892 249.589 128.287 247.169 130.023 246.159L153.392 232.664Z" fill="url(#paint60_linear)"/>
<path d="M150.93 221.603V224.279L124.886 239.326L124.871 236.635L150.93 221.603Z" fill="#C1C5F4"/>
<path d="M150.873 205.574L150.887 208.25L124.843 223.297L124.829 220.62L150.873 205.574Z" fill="#C1C5F4"/>
<path d="M161.932 195.637C162.017 195.58 162.117 195.538 162.202 195.509C161.96 195.993 161.747 196.463 161.533 196.918L156.908 199.595C156.651 199.737 156.452 200.093 156.452 200.378L156.466 206.157C156.466 206.456 156.666 206.57 156.922 206.413L161.946 203.509C162.202 203.367 162.401 203.025 162.401 202.727L162.387 197.502C162.629 196.961 162.885 196.392 163.17 195.822C163.255 195.979 163.298 196.178 163.298 196.42L163.312 202.2C163.312 203.082 162.7 204.15 161.946 204.577L156.922 207.481C156.153 207.922 155.541 207.567 155.541 206.684L155.527 200.904C155.527 200.036 156.139 198.968 156.908 198.527L161.932 195.637Z" fill="#C1C5F4"/>
<path d="M165.603 190.142L166.173 191.068C164.991 192.449 163.981 194.171 163.155 195.837C162.871 196.406 162.615 196.975 162.373 197.516C161.305 199.936 160.722 201.901 160.708 201.929L160.423 202.883L157.463 202.371L158.132 200.805L159.868 201.118C160.181 200.193 160.722 198.669 161.505 196.961C161.718 196.506 161.932 196.036 162.173 195.552C163.113 193.673 164.251 191.737 165.603 190.142Z" fill="url(#paint61_linear)"/>
<path d="M119.549 238.956C120.758 238.258 121.74 238.827 121.74 240.208C121.74 241.603 120.758 243.297 119.563 243.995C118.353 244.692 117.371 244.137 117.371 242.742C117.357 241.347 118.325 239.653 119.549 238.956Z" fill="#C1C5F4"/>
<path d="M161.974 211.652C162.728 211.211 163.34 211.567 163.355 212.435L163.369 218.229C163.369 219.097 162.757 220.165 162.003 220.592L156.979 223.496C156.21 223.937 155.598 223.581 155.598 222.713L155.584 216.919C155.584 216.051 156.196 214.983 156.965 214.542L161.974 211.652ZM162.444 218.756L162.43 212.962C162.43 212.677 162.23 212.563 161.974 212.72L156.95 215.624C156.694 215.766 156.495 216.108 156.495 216.392L156.509 222.186C156.509 222.471 156.708 222.599 156.965 222.443L161.988 219.539C162.245 219.396 162.444 219.04 162.444 218.756Z" fill="#C1C5F4"/>
<g opacity="0.35">
<path opacity="0.35" d="M181.984 140.532C183.336 139.749 184.432 140.375 184.432 141.927C184.432 143.464 183.351 145.358 181.999 146.141C180.647 146.924 179.551 146.297 179.551 144.746C179.536 143.194 180.632 141.315 181.984 140.532Z" fill="#C0C0ED"/>
<path opacity="0.35" d="M191.249 135.179C192.601 134.397 193.697 135.023 193.697 136.575C193.697 138.112 192.616 140.005 191.264 140.788C189.912 141.571 188.83 140.931 188.816 139.393C188.816 137.841 189.897 135.962 191.249 135.179Z" fill="#C0C0ED"/>
<path opacity="0.35" d="M200.301 129.955C201.653 129.172 202.735 129.813 202.749 131.35C202.749 132.888 201.667 134.781 200.315 135.564C198.963 136.347 197.867 135.72 197.867 134.169C197.853 132.631 198.949 130.738 200.301 129.955Z" fill="#C0C0ED"/>
<path opacity="0.35" d="M209.566 124.603C210.918 123.82 212.014 124.446 212.014 125.998C212.014 127.535 210.932 129.428 209.58 130.211C208.228 130.994 207.132 130.368 207.132 128.816C207.118 127.279 208.214 125.386 209.566 124.603Z" fill="#C0C0ED"/>
<path d="M216.383 111.236C217.735 110.453 218.845 111.079 218.845 112.645L218.902 131.407C218.902 132.973 217.806 134.881 216.454 135.663L176.348 158.824C174.982 159.607 173.872 158.981 173.872 157.415L173.815 138.653C173.815 137.087 174.911 135.179 176.277 134.397L216.383 111.236ZM181.999 146.141C183.351 145.358 184.432 143.464 184.432 141.927C184.432 140.375 183.322 139.749 181.984 140.532C180.632 141.315 179.551 143.208 179.551 144.746C179.551 146.297 180.647 146.924 181.999 146.141ZM209.58 130.211C210.932 129.428 212.014 127.535 212.014 125.998C212.014 124.446 210.904 123.82 209.566 124.603C208.214 125.386 207.132 127.279 207.132 128.816C207.132 130.368 208.228 130.994 209.58 130.211ZM191.264 140.788C192.616 140.005 193.697 138.112 193.697 136.575C193.697 135.023 192.587 134.397 191.249 135.179C189.897 135.962 188.816 137.841 188.816 139.393C188.816 140.945 189.912 141.571 191.264 140.788ZM200.315 135.564C201.667 134.781 202.749 132.902 202.749 131.35C202.749 129.798 201.653 129.172 200.301 129.955C198.949 130.738 197.867 132.631 197.867 134.183C197.867 135.72 198.963 136.347 200.315 135.564Z" fill="url(#paint62_linear)"/>
</g>
<path d="M186.254 146.226C187.606 145.443 188.702 146.07 188.702 147.621C188.702 149.159 187.62 151.052 186.268 151.835C184.916 152.618 183.82 151.992 183.82 150.44C183.806 148.888 184.902 147.009 186.254 146.226Z" fill="#C1C5F4"/>
<path d="M195.519 140.874C196.871 140.091 197.967 140.717 197.967 142.269C197.967 143.806 196.885 145.699 195.533 146.482C194.181 147.265 193.1 146.625 193.085 145.087C193.085 143.536 194.167 141.657 195.519 140.874Z" fill="#C1C5F4"/>
<path d="M204.571 135.649C205.923 134.866 207.004 135.507 207.018 137.044C207.018 138.582 205.937 140.475 204.585 141.258C203.233 142.041 202.137 141.415 202.137 139.863C202.123 138.326 203.218 136.432 204.571 135.649Z" fill="#C1C5F4"/>
<path d="M213.836 130.297C215.188 129.514 216.283 130.14 216.283 131.692C216.283 133.229 215.202 135.123 213.85 135.906C212.498 136.688 211.402 136.062 211.402 134.51C211.388 132.973 212.484 131.08 213.836 130.297Z" fill="#C1C5F4"/>
<path d="M220.653 116.93C222.005 116.147 223.115 116.773 223.115 118.339L223.172 137.101C223.172 138.667 222.076 140.575 220.724 141.358L180.618 164.519C179.252 165.302 178.142 164.675 178.142 163.109L178.085 144.347C178.085 142.781 179.181 140.874 180.547 140.091L220.653 116.93ZM186.268 151.835C187.62 151.052 188.702 149.159 188.702 147.621C188.702 146.07 187.592 145.443 186.254 146.226C184.902 147.009 183.82 148.902 183.82 150.44C183.82 151.992 184.916 152.618 186.268 151.835ZM213.85 135.906C215.202 135.123 216.283 133.229 216.283 131.692C216.283 130.14 215.173 129.514 213.836 130.297C212.483 131.08 211.402 132.973 211.402 134.51C211.402 136.062 212.498 136.688 213.85 135.906ZM195.533 146.482C196.885 145.7 197.967 143.806 197.967 142.269C197.967 140.717 196.857 140.091 195.519 140.874C194.167 141.657 193.085 143.536 193.085 145.087C193.085 146.639 194.181 147.265 195.533 146.482ZM204.585 141.258C205.937 140.475 207.018 138.596 207.018 137.044C207.018 135.493 205.923 134.866 204.571 135.649C203.218 136.432 202.137 138.326 202.137 139.877C202.137 141.415 203.233 142.041 204.585 141.258Z" fill="#EDF3FF"/>
<path d="M464.589 215.496V269.533L488.356 298.203L513.305 270.558V212.777L464.589 215.496Z" fill="url(#paint63_linear)"/>
<path d="M489.099 204.481L519.2 187L519.1 221.806L489 239.301L489.099 204.481Z" fill="url(#paint64_linear)"/>
<path d="M458.392 187.281L488.478 169.8L518.778 187.295L488.677 204.776L458.392 187.281Z" fill="url(#paint65_linear)"/>
<path d="M488.868 204.577L488.769 239.397L458.483 221.902L458.583 187.082L488.868 204.577Z" fill="url(#paint66_linear)"/>
<path d="M505.392 417.382V471.42L529.159 500.09L554.122 472.445V414.663L505.392 417.382Z" fill="url(#paint67_linear)"/>
<path d="M529.899 408.272L560 390.776L559.9 425.596L529.814 443.077L529.899 408.272Z" fill="url(#paint68_linear)"/>
<path d="M499.613 390.776L529.699 373.281L559.999 390.776L529.899 408.272L499.613 390.776Z" fill="url(#paint69_linear)"/>
<path d="M529.899 408.272L529.814 443.077L499.514 425.582L499.614 390.776L529.899 408.272Z" fill="url(#paint70_linear)"/>
<path d="M5.87781 255.91V309.948L29.6452 338.618L54.6081 310.958V253.177L5.87781 255.91Z" fill="url(#paint71_linear)"/>
<path d="M30.3995 242.514L60.4859 225.019L60.3863 259.839L30.2999 277.32L30.3995 242.514Z" fill="url(#paint72_linear)"/>
<path d="M0.0988998 225.019L30.1853 207.524L60.4852 225.019L30.3988 242.514L0.0988998 225.019Z" fill="url(#paint73_linear)"/>
<path d="M30.3995 242.514L30.2999 277.32L0 259.825L0.0996239 225.019L30.3995 242.514Z" fill="url(#paint74_linear)"/>
<defs>
<linearGradient id="paint0_linear" x1="475.284" y1="465.683" x2="-304.913" y2="434.239" gradientUnits="userSpaceOnUse">
<stop stop-color="#A6A6E7"/>
<stop offset="1" stop-color="#EEEFFF"/>
</linearGradient>
<linearGradient id="paint1_linear" x1="361.547" y1="516.278" x2="181.586" y2="324.185" gradientUnits="userSpaceOnUse">
<stop stop-color="#E8EDFE"/>
<stop offset="1" stop-color="#EEF4FF"/>
</linearGradient>
<radialGradient id="paint2_radial" cx="0" cy="0" r="1" gradientUnits="userSpaceOnUse" gradientTransform="translate(244.535 388.136) scale(497.149 497.269)">
<stop stop-color="#A6A6E7"/>
<stop offset="1" stop-color="#EEEFFF" stop-opacity="0"/>
</radialGradient>
<radialGradient id="paint3_radial" cx="0" cy="0" r="1" gradientUnits="userSpaceOnUse" gradientTransform="translate(244.535 388.135) scale(497.151 497.269)">
<stop stop-color="#A6A6E7"/>
<stop offset="1" stop-color="#EEEFFF" stop-opacity="0"/>
</radialGradient>
<radialGradient id="paint4_radial" cx="0" cy="0" r="1" gradientUnits="userSpaceOnUse" gradientTransform="translate(244.535 388.135) scale(497.152 497.273)">
<stop stop-color="#A6A6E7"/>
<stop offset="1" stop-color="#EEEFFF" stop-opacity="0"/>
</radialGradient>
<radialGradient id="paint5_radial" cx="0" cy="0" r="1" gradientUnits="userSpaceOnUse" gradientTransform="translate(244.535 388.136) scale(497.15 497.27)">
<stop stop-color="#A6A6E7"/>
<stop offset="1" stop-color="#EEEFFF" stop-opacity="0"/>
</radialGradient>
<radialGradient id="paint6_radial" cx="0" cy="0" r="1" gradientUnits="userSpaceOnUse" gradientTransform="translate(244.535 388.135) scale(497.149 497.267)">
<stop stop-color="#A6A6E7"/>
<stop offset="1" stop-color="#EEEFFF" stop-opacity="0"/>
</radialGradient>
<radialGradient id="paint7_radial" cx="0" cy="0" r="1" gradientUnits="userSpaceOnUse" gradientTransform="translate(244.534 388.135) scale(497.148 497.268)">
<stop stop-color="#A6A6E7"/>
<stop offset="1" stop-color="#EEEFFF" stop-opacity="0"/>
</radialGradient>
<radialGradient id="paint8_radial" cx="0" cy="0" r="1" gradientUnits="userSpaceOnUse" gradientTransform="translate(244.535 388.135) scale(497.151 497.273)">
<stop stop-color="#A6A6E7"/>
<stop offset="1" stop-color="#EEEFFF" stop-opacity="0"/>
</radialGradient>
<radialGradient id="paint9_radial" cx="0" cy="0" r="1" gradientUnits="userSpaceOnUse" gradientTransform="translate(244.535 388.135) scale(497.149 497.269)">
<stop stop-color="#A6A6E7"/>
<stop offset="1" stop-color="#EEEFFF" stop-opacity="0"/>
</radialGradient>
<radialGradient id="paint10_radial" cx="0" cy="0" r="1" gradientUnits="userSpaceOnUse" gradientTransform="translate(244.535 388.135) scale(497.15 497.27)">
<stop stop-color="#A6A6E7"/>
<stop offset="1" stop-color="#EEEFFF" stop-opacity="0"/>
</radialGradient>
<radialGradient id="paint11_radial" cx="0" cy="0" r="1" gradientUnits="userSpaceOnUse" gradientTransform="translate(244.535 388.135) scale(497.148 497.266)">
<stop stop-color="#A6A6E7"/>
<stop offset="1" stop-color="#EEEFFF" stop-opacity="0"/>
</radialGradient>
<radialGradient id="paint12_radial" cx="0" cy="0" r="1" gradientUnits="userSpaceOnUse" gradientTransform="translate(244.534 388.136) scale(497.15 497.271)">
<stop stop-color="#A6A6E7"/>
<stop offset="1" stop-color="#EEEFFF" stop-opacity="0"/>
</radialGradient>
<radialGradient id="paint13_radial" cx="0" cy="0" r="1" gradientUnits="userSpaceOnUse" gradientTransform="translate(244.535 388.136) scale(497.151 497.272)">
<stop stop-color="#A6A6E7"/>
<stop offset="1" stop-color="#EEEFFF" stop-opacity="0"/>
</radialGradient>
<radialGradient id="paint14_radial" cx="0" cy="0" r="1" gradientUnits="userSpaceOnUse" gradientTransform="translate(244.535 388.135) scale(497.152 497.27)">
<stop stop-color="#A6A6E7"/>
<stop offset="1" stop-color="#EEEFFF" stop-opacity="0"/>
</radialGradient>
<radialGradient id="paint15_radial" cx="0" cy="0" r="1" gradientUnits="userSpaceOnUse" gradientTransform="translate(244.535 388.135) scale(497.149 497.27)">
<stop stop-color="#A6A6E7"/>
<stop offset="1" stop-color="#EEEFFF" stop-opacity="0"/>
</radialGradient>
<radialGradient id="paint16_radial" cx="0" cy="0" r="1" gradientUnits="userSpaceOnUse" gradientTransform="translate(244.535 388.135) scale(497.15 497.271)">
<stop stop-color="#A6A6E7"/>
<stop offset="1" stop-color="#EEEFFF" stop-opacity="0"/>
</radialGradient>
<radialGradient id="paint17_radial" cx="0" cy="0" r="1" gradientUnits="userSpaceOnUse" gradientTransform="translate(244.535 388.136) scale(497.149 497.269)">
<stop stop-color="#A6A6E7"/>
<stop offset="1" stop-color="#EEEFFF" stop-opacity="0"/>
</radialGradient>
<radialGradient id="paint18_radial" cx="0" cy="0" r="1" gradientUnits="userSpaceOnUse" gradientTransform="translate(244.535 388.136) scale(497.149 497.267)">
<stop stop-color="#A6A6E7"/>
<stop offset="1" stop-color="#EEEFFF" stop-opacity="0"/>
</radialGradient>
<radialGradient id="paint19_radial" cx="0" cy="0" r="1" gradientUnits="userSpaceOnUse" gradientTransform="translate(244.535 388.135) scale(497.15 497.27)">
<stop stop-color="#A6A6E7"/>
<stop offset="1" stop-color="#EEEFFF" stop-opacity="0"/>
</radialGradient>
<radialGradient id="paint20_radial" cx="0" cy="0" r="1" gradientUnits="userSpaceOnUse" gradientTransform="translate(244.535 388.136) scale(497.15 497.273)">
<stop stop-color="#A6A6E7"/>
<stop offset="1" stop-color="#EEEFFF" stop-opacity="0"/>
</radialGradient>
<radialGradient id="paint21_radial" cx="0" cy="0" r="1" gradientUnits="userSpaceOnUse" gradientTransform="translate(244.535 388.136) scale(497.15 497.27)">
<stop stop-color="#A6A6E7"/>
<stop offset="1" stop-color="#EEEFFF" stop-opacity="0"/>
</radialGradient>
<radialGradient id="paint22_radial" cx="0" cy="0" r="1" gradientUnits="userSpaceOnUse" gradientTransform="translate(244.534 388.135) scale(497.15 497.269)">
<stop stop-color="#A6A6E7"/>
<stop offset="1" stop-color="#EEEFFF" stop-opacity="0"/>
</radialGradient>
<linearGradient id="paint23_linear" x1="332.399" y1="185.103" x2="322.377" y2="173.435" gradientUnits="userSpaceOnUse">
<stop stop-color="#FF8587"/>
<stop offset="1" stop-color="#FFAEAE"/>
</linearGradient>
<linearGradient id="paint24_linear" x1="223.314" y1="233.298" x2="235.845" y2="233.298" gradientUnits="userSpaceOnUse">
<stop stop-color="#D5E6F9"/>
<stop offset="1" stop-color="#EEEFFF"/>
</linearGradient>
<linearGradient id="paint25_linear" x1="235.159" y1="256.036" x2="257.442" y2="256.036" gradientUnits="userSpaceOnUse">
<stop stop-color="#D5E6F9"/>
<stop offset="1" stop-color="#EEEFFF"/>
</linearGradient>
<linearGradient id="paint26_linear" x1="240.441" y1="153.878" x2="273.622" y2="153.878" gradientUnits="userSpaceOnUse">
<stop stop-color="#FF8587"/>
<stop offset="1" stop-color="#FFAEAE"/>
</linearGradient>
<linearGradient id="paint27_linear" x1="262.344" y1="178.761" x2="244.587" y2="165.657" gradientUnits="userSpaceOnUse">
<stop stop-color="#D5E6F9"/>
<stop offset="1" stop-color="#EEEFFF"/>
</linearGradient>
<linearGradient id="paint28_linear" x1="317.824" y1="189.531" x2="328.523" y2="189.531" gradientUnits="userSpaceOnUse">
<stop stop-color="#D5E6F9"/>
<stop offset="1" stop-color="#EEEFFF"/>
</linearGradient>
<linearGradient id="paint29_linear" x1="325.008" y1="193.822" x2="326.512" y2="193.822" gradientUnits="userSpaceOnUse">
<stop stop-color="#D5E6F9"/>
<stop offset="1" stop-color="#EEEFFF"/>
</linearGradient>
<linearGradient id="paint30_linear" x1="324.257" y1="196.448" x2="325.76" y2="196.448" gradientUnits="userSpaceOnUse">
<stop stop-color="#D5E6F9"/>
<stop offset="1" stop-color="#EEEFFF"/>
</linearGradient>
<linearGradient id="paint31_linear" x1="433.991" y1="9.54971" x2="436.713" y2="26.1805" gradientUnits="userSpaceOnUse">
<stop stop-color="#17BFA6"/>
<stop offset="1" stop-color="#17ECC7"/>
</linearGradient>
<linearGradient id="paint32_linear" x1="460.826" y1="37.3471" x2="542.964" y2="104.415" gradientUnits="userSpaceOnUse">
<stop stop-color="#17BFA6"/>
<stop offset="1" stop-color="#17ECC7"/>
</linearGradient>
<linearGradient id="paint33_linear" x1="419.552" y1="57.4008" x2="491.495" y2="57.4008" gradientUnits="userSpaceOnUse">
<stop stop-color="#E8EDFE"/>
<stop offset="1" stop-color="#EEF4FF"/>
</linearGradient>
<linearGradient id="paint34_linear" x1="433.546" y1="41.391" x2="500.807" y2="130.014" gradientUnits="userSpaceOnUse">
<stop stop-color="#17BFA6"/>
<stop offset="1" stop-color="#17ECC7"/>
</linearGradient>
<linearGradient id="paint35_linear" x1="488.11" y1="143.653" x2="406.972" y2="100.946" gradientUnits="userSpaceOnUse">
<stop stop-color="#17D6A6"/>
<stop offset="1" stop-color="#17ECC7"/>
</linearGradient>
<linearGradient id="paint36_linear" x1="471.627" y1="73.1131" x2="449.872" y2="47.3339" gradientUnits="userSpaceOnUse">
<stop stop-color="#FFAF59"/>
<stop offset="1" stop-color="#FFDA59"/>
</linearGradient>
<linearGradient id="paint37_linear" x1="387.761" y1="71.5088" x2="209.717" y2="69.7286" gradientUnits="userSpaceOnUse">
<stop stop-color="#A6A6E7"/>
<stop offset="1" stop-color="#EEEFFF"/>
</linearGradient>
<linearGradient id="paint38_linear" x1="328.615" y1="120.487" x2="328.868" y2="44.6306" gradientUnits="userSpaceOnUse">
<stop stop-color="#E8EDFE"/>
<stop offset="1" stop-color="#EEF4FF"/>
</linearGradient>
<linearGradient id="paint39_linear" x1="317.001" y1="83.2409" x2="284.763" y2="68.9791" gradientUnits="userSpaceOnUse">
<stop stop-color="#17D6A6"/>
<stop offset="1" stop-color="#17ECC7"/>
</linearGradient>
<linearGradient id="paint40_linear" x1="351.359" y1="97.7709" x2="328.755" y2="90.5664" gradientUnits="userSpaceOnUse">
<stop stop-color="#FFAF59"/>
<stop offset="1" stop-color="#FFDA59"/>
</linearGradient>
<linearGradient id="paint41_linear" x1="427.976" y1="120.779" x2="379.877" y2="120.608" gradientUnits="userSpaceOnUse">
<stop stop-color="#A6A6E7"/>
<stop offset="1" stop-color="#EEEFFF"/>
</linearGradient>
<linearGradient id="paint42_linear" x1="394.119" y1="122.909" x2="421.666" y2="122.909" gradientUnits="userSpaceOnUse">
<stop stop-color="#E8EDFE"/>
<stop offset="1" stop-color="#EEF4FF"/>
</linearGradient>
<linearGradient id="paint43_linear" x1="399.339" y1="149.314" x2="416.295" y2="149.314" gradientUnits="userSpaceOnUse">
<stop stop-color="#AB58D8"/>
<stop offset="1" stop-color="#FF86D8"/>
</linearGradient>
<linearGradient id="paint44_linear" x1="399.415" y1="122.567" x2="416.371" y2="122.567" gradientUnits="userSpaceOnUse">
<stop stop-color="#27A7F9"/>
<stop offset="1" stop-color="#4FCCF9"/>
</linearGradient>
<linearGradient id="paint45_linear" x1="399.491" y1="95.8206" x2="416.446" y2="95.8206" gradientUnits="userSpaceOnUse">
<stop stop-color="#17D6A6"/>
<stop offset="1" stop-color="#17ECC7"/>
</linearGradient>
<linearGradient id="paint46_linear" x1="366.214" y1="142.573" x2="222.515" y2="140.594" gradientUnits="userSpaceOnUse">
<stop stop-color="#A6A6E7"/>
<stop offset="1" stop-color="#EEEFFF"/>
</linearGradient>
<linearGradient id="paint47_linear" x1="319.468" y1="181.206" x2="318.791" y2="134.525" gradientUnits="userSpaceOnUse">
<stop stop-color="#E8EDFE"/>
<stop offset="1" stop-color="#EEF4FF"/>
</linearGradient>
<linearGradient id="paint48_linear" x1="368.78" y1="191.339" x2="422.99" y2="191.339" gradientUnits="userSpaceOnUse">
<stop stop-color="#17D6A6"/>
<stop offset="1" stop-color="#17ECC7"/>
</linearGradient>
<linearGradient id="paint49_linear" x1="215.082" y1="94.6201" x2="29.4891" y2="92.6055" gradientUnits="userSpaceOnUse">
<stop stop-color="#A6A6E7"/>
<stop offset="1" stop-color="#EEEFFF"/>
</linearGradient>
<linearGradient id="paint50_linear" x1="110.64" y1="95.8172" x2="216.972" y2="95.8172" gradientUnits="userSpaceOnUse">
<stop stop-color="#E8EDFE"/>
<stop offset="1" stop-color="#EEF4FF"/>
</linearGradient>
<linearGradient id="paint51_linear" x1="132.679" y1="168.365" x2="113.649" y2="164.238" gradientUnits="userSpaceOnUse">
<stop stop-color="#FFAF59"/>
<stop offset="1" stop-color="#FFDA59"/>
</linearGradient>
<linearGradient id="paint52_linear" x1="149.091" y1="167.605" x2="129.576" y2="164.513" gradientUnits="userSpaceOnUse">
<stop stop-color="#17D6A6"/>
<stop offset="1" stop-color="#17ECC7"/>
</linearGradient>
<linearGradient id="paint53_linear" x1="167.822" y1="161.288" x2="148.146" y2="158.546" gradientUnits="userSpaceOnUse">
<stop stop-color="#FFAF59"/>
<stop offset="1" stop-color="#FFDA59"/>
</linearGradient>
<linearGradient id="paint54_linear" x1="186.45" y1="146.038" x2="166.935" y2="142.946" gradientUnits="userSpaceOnUse">
<stop stop-color="#17D6A6"/>
<stop offset="1" stop-color="#17ECC7"/>
</linearGradient>
<linearGradient id="paint55_linear" x1="206.704" y1="141.139" x2="186.985" y2="138.553" gradientUnits="userSpaceOnUse">
<stop stop-color="#FFAF59"/>
<stop offset="1" stop-color="#FFDA59"/>
</linearGradient>
<linearGradient id="paint56_linear" x1="165.477" y1="207.179" x2="64.5863" y2="206.533" gradientUnits="userSpaceOnUse">
<stop stop-color="#A6A6E7"/>
<stop offset="1" stop-color="#EEEFFF"/>
</linearGradient>
<linearGradient id="paint57_linear" x1="110.64" y1="208.733" x2="168.443" y2="208.733" gradientUnits="userSpaceOnUse">
<stop stop-color="#E8EDFE"/>
<stop offset="1" stop-color="#EEF4FF"/>
</linearGradient>
<linearGradient id="paint58_linear" x1="165.274" y1="201.436" x2="161.277" y2="159.054" gradientUnits="userSpaceOnUse">
<stop stop-color="#17D6A6"/>
<stop offset="1" stop-color="#17ECC7"/>
</linearGradient>
<linearGradient id="paint59_linear" x1="163.754" y1="201.579" x2="159.757" y2="159.197" gradientUnits="userSpaceOnUse">
<stop stop-color="#17D6A6"/>
<stop offset="1" stop-color="#17ECC7"/>
</linearGradient>
<linearGradient id="paint60_linear" x1="142.169" y1="264.399" x2="141.598" y2="237.429" gradientUnits="userSpaceOnUse">
<stop stop-color="#2E3BBB"/>
<stop offset="1" stop-color="#7258D8"/>
</linearGradient>
<linearGradient id="paint61_linear" x1="162.302" y1="201.716" x2="158.306" y2="159.334" gradientUnits="userSpaceOnUse">
<stop stop-color="#17D6A6"/>
<stop offset="1" stop-color="#17ECC7"/>
</linearGradient>
<linearGradient id="paint62_linear" x1="219.913" y1="136.721" x2="141.217" y2="135.758" gradientUnits="userSpaceOnUse">
<stop stop-color="#A6A6E7"/>
<stop offset="1" stop-color="#EEEFFF"/>
</linearGradient>
<linearGradient id="paint63_linear" x1="489.07" y1="216.992" x2="488.816" y2="270.776" gradientUnits="userSpaceOnUse">
<stop stop-color="#A6A6E7"/>
<stop offset="1" stop-color="#EEEFFF" stop-opacity="0"/>
</linearGradient>
<linearGradient id="paint64_linear" x1="492.631" y1="201.908" x2="541.68" y2="249.931" gradientUnits="userSpaceOnUse">
<stop stop-color="#17BFA6"/>
<stop offset="1" stop-color="#17ECC7"/>
</linearGradient>
<linearGradient id="paint65_linear" x1="522.773" y1="228.528" x2="476.767" y2="173.064" gradientUnits="userSpaceOnUse">
<stop stop-color="#17D6A6"/>
<stop offset="1" stop-color="#17ECC7"/>
</linearGradient>
<linearGradient id="paint66_linear" x1="494.107" y1="261.739" x2="468.733" y2="201.531" gradientUnits="userSpaceOnUse">
<stop stop-color="#CFD0F5"/>
<stop offset="1" stop-color="#EEF4FF"/>
</linearGradient>
<linearGradient id="paint67_linear" x1="529.878" y1="418.878" x2="529.624" y2="472.663" gradientUnits="userSpaceOnUse">
<stop stop-color="#A6A6E7"/>
<stop offset="1" stop-color="#EEEFFF" stop-opacity="0"/>
</linearGradient>
<linearGradient id="paint68_linear" x1="533.444" y1="405.685" x2="582.492" y2="453.684" gradientUnits="userSpaceOnUse">
<stop stop-color="#17BFA6"/>
<stop offset="1" stop-color="#17ECC7"/>
</linearGradient>
<linearGradient id="paint69_linear" x1="563.994" y1="432.033" x2="517.966" y2="376.564" gradientUnits="userSpaceOnUse">
<stop stop-color="#17D6A6"/>
<stop offset="1" stop-color="#17ECC7"/>
</linearGradient>
<linearGradient id="paint70_linear" x1="535.139" y1="465.432" x2="509.765" y2="405.225" gradientUnits="userSpaceOnUse">
<stop stop-color="#CFD0F5"/>
<stop offset="1" stop-color="#EEF4FF"/>
</linearGradient>
<linearGradient id="paint71_linear" x1="30.3655" y1="257.403" x2="30.1116" y2="311.187" gradientUnits="userSpaceOnUse">
<stop stop-color="#A6A6E7"/>
<stop offset="1" stop-color="#EEEFFF" stop-opacity="0"/>
</linearGradient>
<linearGradient id="paint72_linear" x1="62.4844" y1="312.82" x2="13.9505" y2="293.252" gradientUnits="userSpaceOnUse">
<stop stop-color="#FFAF59"/>
<stop offset="1" stop-color="#FFDA59"/>
</linearGradient>
<linearGradient id="paint73_linear" x1="64.4831" y1="266.265" x2="18.4769" y2="210.8" gradientUnits="userSpaceOnUse">
<stop stop-color="#FFAF59"/>
<stop offset="1" stop-color="#FFDA59"/>
</linearGradient>
<linearGradient id="paint74_linear" x1="35.6273" y1="299.674" x2="10.253" y2="239.467" gradientUnits="userSpaceOnUse">
<stop stop-color="#CFD0F5"/>
<stop offset="1" stop-color="#EEF4FF"/>
</linearGradient>
</defs>
</svg>
