<svg width="534" height="476" viewBox="0 0 534 476" fill="none" xmlns="http://www.w3.org/2000/svg">
<path d="M534 288C533.911 318.254 533.822 291.621 533.733 321.874C533.6 361.262 507.803 400.561 456.164 430.636C352.309 491.099 183.338 491.144 78.7705 430.636C26.1534 400.204 -0.132928 360.282 0.00050543 320.404L0.267372 297.5C0.133939 337.378 26.4203 327.845 79.0374 358.277C183.605 418.784 352.575 418.74 456.431 358.277C508.07 328.201 533.867 327.388 534 288Z" fill="url(#paint0_linear)"/>
<path d="M455.175 186.272C559.798 246.591 560.332 344.381 456.421 404.744C352.51 465.063 183.448 465.107 78.8249 404.744C-25.7984 344.426 -26.3324 246.591 77.5789 186.272C181.49 125.909 350.552 125.909 455.175 186.272Z" fill="url(#paint1_linear)"/>
<path opacity="0.2" d="M28.322 276.691L162.93 198.424C164.759 197.369 167.003 197.358 168.832 198.413L270.327 257.043C271.898 257.952 271.898 260.209 270.338 261.118L135.73 339.385C133.912 340.44 131.657 340.451 129.828 339.396L28.3333 280.766C26.7623 279.868 26.7511 277.6 28.322 276.691Z" fill="#455A64"/>
<path d="M266.792 238.91L165.881 180.618L31.856 258.547L132.767 316.84L266.792 238.91Z" fill="white"/>
<path d="M132.768 316.84L132.712 334.265L266.736 256.335L266.792 238.91L132.768 316.84Z" fill="#D5FBFC"/>
<path d="M132.768 316.84L132.712 334.265L266.736 256.335L266.792 238.91L132.768 316.84Z" fill="#AEDBE5"/>
<path d="M31.8566 258.547L31.8005 275.972L132.712 334.265L132.768 316.84L31.8566 258.547Z" fill="#D9F2F9"/>
<path d="M191.308 229.625L188.077 231.5L139.613 203.51L142.844 201.624L191.308 229.625Z" fill="#9CAAD1"/>
<path d="M135.472 231.029L132.24 232.915L110.573 220.396L113.804 218.51L135.472 231.029Z" fill="#9CAAD1"/>
<path d="M242.925 244.479L239.693 246.354L152.528 195.999L155.749 194.124L242.925 244.479Z" fill="#9CAAD1"/>
<path d="M236.462 248.24L233.241 250.104L146.065 199.749L149.296 197.874L236.462 248.24Z" fill="#9CAAD1"/>
<path d="M220.337 257.615L217.105 259.49L129.929 209.135L133.161 207.26L220.337 257.615Z" fill="#9CAAD1"/>
<path d="M104.524 260.939L101.304 262.814L69.3574 244.356L72.5779 242.481L104.524 260.939Z" fill="#9CAAD1"/>
<path d="M213.885 261.365L210.653 263.24L123.488 212.885L126.708 211.01L213.885 261.365Z" fill="#9CAAD1"/>
<path d="M207.422 265.115L204.201 266.99L117.025 216.635L120.256 214.76L207.422 265.115Z" fill="#9CAAD1"/>
<path d="M163.637 267.035L160.417 268.91L93.5502 230.288L96.7818 228.413L163.637 267.035Z" fill="#9CAAD1"/>
<path d="M190.41 275.018L187.179 276.893L100.013 226.538L103.234 224.663L190.41 275.018Z" fill="#9CAAD1"/>
<path d="M104.378 281.417L101.158 283.292L51.6169 254.674L54.8374 252.799L104.378 281.417Z" fill="#9CAAD1"/>
<path d="M172.659 285.336L169.427 287.211L82.2617 236.856L85.4934 234.981L172.659 285.336Z" fill="#9CAAD1"/>
<path d="M166.207 289.086L162.986 290.961L75.8096 240.606L79.03 238.731L166.207 289.086Z" fill="#9CAAD1"/>
<path d="M148.466 299.404L145.234 301.279L58.0579 250.924L61.2895 249.049L148.466 299.404Z" fill="#9CAAD1"/>
<path d="M194.147 208.821L190.915 210.707L158.969 192.249L162.201 190.374L194.147 208.821Z" fill="#9CAAD1"/>
<path d="M289.135 91.3858L131.984 0.769239C130.312 -0.19632 128.809 -0.218775 127.776 0.511008L122.278 3.72205V3.74451C123.277 3.30664 124.567 3.43014 125.992 4.24974L283.143 94.8663C286.252 96.6627 288.776 101.03 288.765 104.6L288.72 121.397L288.428 225.127C288.428 226.845 287.823 228.057 286.869 228.664L286.88 228.675L292.535 225.363C292.704 225.284 292.861 225.194 293.007 225.093C293.882 224.453 294.409 223.274 294.421 221.635L294.712 117.905L294.757 101.109C294.768 97.5497 292.255 93.1822 289.135 91.3858Z" fill="url(#paint2_linear)"/>
<path d="M288.428 225.149L288.72 121.419L288.765 104.623C288.776 101.041 286.263 96.6852 283.143 94.8888L125.992 4.26102C124.567 3.43019 123.277 3.31791 122.278 3.75578C121.1 4.27225 120.348 5.55217 120.337 7.48329L120.292 24.2795L120 128.01C119.989 131.591 122.502 135.948 125.622 137.744L282.773 228.36C284.389 229.292 285.836 229.337 286.869 228.686C287.823 228.069 288.417 226.867 288.428 225.149Z" fill="url(#paint3_linear)"/>
<path d="M272.425 121.303L272.19 206.295C272.19 207.709 271.696 208.697 270.911 209.191L270.922 209.203L274.849 206.923C274.984 206.856 275.118 206.789 275.231 206.699C275.949 206.182 276.386 205.206 276.386 203.87L276.622 118.878L272.425 121.303Z" fill="#D9F2F9"/>
<path d="M272.055 97.1304L130.423 15.3049C129.054 14.5078 127.819 14.4966 126.967 15.1028L123.174 17.3034V17.3259C123.993 16.9666 125.048 17.0676 126.215 17.7413L267.847 99.5668C270.394 101.038 272.459 104.619 272.448 107.549L272.414 121.314L276.611 118.878L276.645 105.113C276.667 102.172 274.602 98.6012 272.055 97.1304Z" fill="url(#paint4_linear)"/>
<path d="M272.178 206.306L272.414 121.314L121.547 34.1445L121.311 119.136C121.3 122.067 123.365 125.637 125.912 127.108L267.544 208.933C268.868 209.697 270.058 209.73 270.899 209.191C271.685 208.697 272.178 207.709 272.178 206.306Z" fill="white"/>
<path d="M272.425 121.303L272.459 107.538C272.47 104.608 270.406 101.026 267.858 99.5556L126.215 17.7413C125.048 17.0677 123.982 16.9666 123.174 17.3259C122.209 17.7413 121.592 18.7967 121.58 20.3798L121.547 34.1446L272.425 121.303Z" fill="url(#paint5_linear)"/>
<path d="M236.552 150.203C238.336 151.235 239.772 153.728 239.772 155.783L239.761 161.654C239.75 163.709 238.302 164.54 236.518 163.507L224.298 156.445C222.514 155.412 221.078 152.92 221.078 150.865L221.089 144.993C221.1 142.938 222.548 142.108 224.332 143.14L236.552 150.203Z" fill="#8DFFEB"/>
<path d="M236.495 167.998C238.28 169.031 239.716 171.523 239.716 173.578L239.705 179.45C239.693 181.505 238.246 182.335 236.462 181.303L224.242 174.24C222.458 173.208 221.022 170.715 221.022 168.66L221.033 162.789C221.044 160.734 222.492 159.903 224.276 160.936L236.495 167.998Z" fill="#8DFFEB"/>
<path d="M214.222 119.473C216.006 120.506 217.442 123.01 217.442 125.053L217.431 130.925C217.42 132.98 215.972 133.811 214.188 132.778L201.979 125.727C200.195 124.694 198.748 122.19 198.759 120.136L198.77 114.264C198.781 112.209 200.229 111.378 202.013 112.411L214.222 119.473Z" fill="#8DFFEB"/>
<path d="M214.278 101.678C216.062 102.711 217.498 105.214 217.498 107.258L217.487 113.13C217.476 115.184 216.028 116.015 214.244 114.982L202.036 107.931C200.251 106.898 198.804 104.395 198.815 102.34L198.826 96.4681C198.838 94.4135 200.285 93.5826 202.069 94.6155L214.278 101.678Z" fill="#8DFFEB"/>
<path d="M191.802 124.346C193.586 125.379 195.034 127.882 195.022 129.937L195.011 135.809C195 137.864 193.552 138.694 191.768 137.662L179.56 130.611C177.776 129.578 176.328 127.074 176.339 125.019L176.351 119.148C176.362 117.093 177.809 116.262 179.593 117.295L191.802 124.346Z" fill="#8DFFEB"/>
<path d="M191.463 106.495C193.247 107.528 194.694 110.032 194.683 112.086L194.672 117.958C194.661 120.013 193.213 120.844 191.429 119.811L179.221 112.76C177.436 111.727 175.989 109.223 176 107.169L176.011 101.297C176.023 99.2419 177.47 98.4111 179.254 99.444L191.463 106.495Z" fill="#8DFFEB"/>
<path d="M191.902 88.7549C193.686 89.7878 195.134 92.2915 195.123 94.3461L195.111 100.218C195.1 102.273 193.653 103.104 191.869 102.071L179.66 95.0198C177.876 93.9869 176.428 91.4831 176.44 89.4285L176.451 83.5566C176.462 81.502 177.909 80.6711 179.694 81.7041L191.902 88.7549Z" fill="#8DFFEB"/>
<path d="M214.177 137.269C215.961 138.301 217.397 140.794 217.397 142.849L217.386 148.721C217.375 150.775 215.927 151.606 214.143 150.573L201.935 143.522C200.15 142.489 198.703 139.986 198.714 137.931L198.725 132.059C198.737 130.004 200.184 129.174 201.968 130.206L214.177 137.269Z" fill="#8DFFEB"/>
<path d="M259.027 127.534C260.812 128.567 262.248 131.071 262.248 133.114L262.237 138.986C262.225 141.041 260.778 141.872 258.994 140.839L246.774 133.777C244.99 132.744 243.554 130.251 243.554 128.197L243.565 122.325C243.576 120.27 245.024 119.439 246.808 120.472L259.027 127.534Z" fill="#8DFFEB"/>
<path d="M258.971 145.33C260.755 146.363 262.192 148.866 262.192 150.91L262.181 156.782C262.169 158.836 260.722 159.667 258.938 158.634L246.718 151.572C244.934 150.539 243.497 148.047 243.497 145.992L243.509 140.12C243.52 138.066 244.967 137.235 246.752 138.268L258.971 145.33Z" fill="#8DFFEB"/>
<path d="M258.87 180.921C260.655 181.954 262.091 184.446 262.091 186.501L262.08 192.373C262.068 194.427 260.621 195.258 258.837 194.225L246.617 187.163C244.833 186.13 243.396 183.638 243.396 181.583L243.408 175.711C243.419 173.657 244.866 172.826 246.651 173.859L258.87 180.921Z" fill="#8DFFEB"/>
<path d="M258.926 163.125C260.711 164.158 262.147 166.651 262.147 168.705L262.136 174.577C262.124 176.632 260.677 177.463 258.893 176.43L246.673 169.368C244.889 168.335 243.453 165.842 243.453 163.788L243.464 157.916C243.475 155.861 244.923 155.03 246.707 156.063L258.926 163.125Z" fill="#8DFFEB"/>
<path d="M236.596 132.396C238.381 133.429 239.817 135.933 239.817 137.976L239.806 143.848C239.794 145.902 238.347 146.733 236.563 145.7L224.343 138.638C222.559 137.605 221.123 135.113 221.123 133.058L221.134 127.186C221.145 125.132 222.593 124.301 224.377 125.334L236.596 132.396Z" fill="#8DFFEB"/>
<path d="M236.653 114.6C238.437 115.633 239.873 118.137 239.873 120.18L239.862 126.052C239.851 128.107 238.403 128.938 236.619 127.905L224.399 120.843C222.615 119.81 221.179 117.317 221.179 115.263L221.19 109.391C221.201 107.336 222.649 106.505 224.433 107.538L236.653 114.6Z" fill="#8DFFEB"/>
<path d="M214.121 155.075C215.905 156.108 217.341 158.601 217.341 160.655L217.33 166.527C217.319 168.582 215.871 169.413 214.087 168.38L201.878 161.329C200.094 160.296 198.647 157.792 198.658 155.738L198.669 149.866C198.68 147.811 200.128 146.98 201.912 148.013L214.121 155.075Z" fill="#8DFFEB"/>
<path d="M169.371 129.218C171.155 130.251 172.603 132.755 172.591 134.81L172.58 140.682C172.569 142.736 171.122 143.567 169.337 142.534L157.129 135.483C155.345 134.45 153.897 131.947 153.908 129.892L153.92 124.02C153.931 121.966 155.378 121.135 157.162 122.168L169.371 129.218Z" fill="#8DFFEB"/>
<path d="M147.153 62.8981C148.937 63.931 150.385 66.4347 150.373 68.4893L150.362 74.3613C150.351 76.4159 148.903 77.2467 147.119 76.2138L134.911 69.163C133.127 68.13 131.679 65.6263 131.69 63.5717L131.701 57.6998C131.713 55.6451 133.16 54.8143 134.944 55.8472L147.153 62.8981Z" fill="#FFC77E"/>
<path d="M147.097 80.7047C148.881 81.7376 150.329 84.2413 150.318 86.296L150.306 92.1679C150.295 94.2225 148.848 95.0534 147.063 94.0204L134.855 86.9696C133.071 85.9367 131.623 83.433 131.634 81.3783L131.646 75.5064C131.657 73.4518 133.104 72.621 134.889 73.6539L147.097 80.7047Z" fill="#FFC77E"/>
<path d="M147.052 98.5002C148.836 99.5332 150.284 102.037 150.273 104.091L150.262 109.963C150.25 112.018 148.803 112.849 147.019 111.816L134.81 104.765C133.026 103.732 131.578 101.228 131.59 99.1739L131.601 93.3019C131.612 91.2473 133.06 90.4165 134.844 91.4494L147.052 98.5002Z" fill="#FFC77E"/>
<path d="M146.996 116.296C148.78 117.329 150.228 119.832 150.217 121.887L150.205 127.759C150.194 129.813 148.747 130.644 146.963 129.611L134.754 122.561C132.97 121.528 131.522 119.024 131.534 116.969L131.545 111.097C131.556 109.043 133.003 108.212 134.788 109.245L146.996 116.296Z" fill="#FFC77E"/>
<path d="M169.528 75.832C171.312 76.8649 172.76 79.3687 172.749 81.4233L172.737 87.2952C172.726 89.3499 171.279 90.1807 169.494 89.1478L157.286 82.0969C155.502 81.064 154.054 78.5603 154.065 76.5057L154.077 70.6337C154.088 68.5791 155.535 67.7483 157.32 68.7812L169.528 75.832Z" fill="#8DFFEB"/>
<path d="M169.472 93.6276C171.256 94.6605 172.704 97.1642 172.692 99.2188L172.681 105.091C172.67 107.145 171.222 107.976 169.438 106.943L157.23 99.8925C155.446 98.8595 153.998 96.3558 154.009 94.3012L154.021 88.4293C154.032 86.3746 155.479 85.5438 157.263 86.5767L169.472 93.6276Z" fill="#8DFFEB"/>
<path d="M169.427 111.423C171.211 112.456 172.659 114.96 172.648 117.014L172.636 122.886C172.625 124.941 171.178 125.772 169.393 124.739L157.185 117.688C155.401 116.655 153.953 114.151 153.964 112.097L153.976 106.225C153.987 104.17 155.434 103.339 157.219 104.372L169.427 111.423Z" fill="#8DFFEB"/>
<path d="M191.746 142.141C193.53 143.174 194.977 145.678 194.966 147.732L194.955 153.604C194.944 155.659 193.496 156.49 191.712 155.457L179.504 148.406C177.719 147.373 176.272 144.869 176.283 142.815L176.294 136.943C176.306 134.888 177.753 134.057 179.537 135.09L191.746 142.141Z" fill="#8DFFEB"/>
<path d="M153.807 8.45606C153.818 8.45606 153.83 8.45606 153.841 8.45606C153.841 8.44499 153.83 8.44499 153.807 8.45606C153.818 8.44499 153.807 8.45606 153.807 8.45606Z" fill="white"/>
<path d="M147.972 36.3226C147.524 36.0644 147.108 35.9296 146.727 35.9072C146.267 35.8735 145.874 36.0082 145.56 36.2777C145.134 36.637 144.864 37.2545 144.853 38.0965C144.842 40.0726 146.233 42.4752 147.95 43.4632C148.309 43.6766 148.646 43.7776 148.971 43.8338C149.611 43.946 150.172 43.7776 150.542 43.351C150.867 42.9692 151.058 42.4079 151.069 41.6781C151.069 39.7133 149.689 37.3106 147.972 36.3226Z" fill="#A34262"/>
<path d="M164.007 17.3595C163.974 16.9329 163.906 16.4725 163.805 16.001C163.794 15.9448 163.783 15.8887 163.772 15.8438V15.8213V15.8101C163.772 15.7989 163.772 15.7877 163.76 15.7764C163.738 15.6754 163.716 15.5743 163.693 15.4845C163.682 15.4396 163.671 15.3947 163.659 15.361C163.659 15.3498 163.659 15.3386 163.659 15.3386V15.3273C163.648 15.2937 163.637 15.26 163.637 15.2263C163.615 15.1589 163.603 15.0916 163.581 15.0242C163.581 15.013 163.57 15.0017 163.57 14.9905C163.57 14.9793 163.57 14.9793 163.57 14.9681C163.57 14.9568 163.57 14.9568 163.558 14.9456C163.525 14.8221 163.491 14.7098 163.457 14.5975C163.446 14.5751 163.446 14.5639 163.435 14.5414V14.5302C163.435 14.519 163.424 14.5077 163.424 14.4965C163.39 14.4067 163.368 14.3169 163.334 14.227C162.504 11.8356 161.011 10.1515 159.115 9.23084C159.059 9.19716 158.992 9.1747 158.924 9.14102C158.891 9.11856 158.846 9.10734 158.812 9.08488C158.79 9.07365 158.767 9.06243 158.756 9.06243C158.733 9.0512 158.722 9.0512 158.7 9.03997H158.689H158.677C158.632 9.01752 158.599 9.00629 158.554 8.98384C158.262 8.86033 157.993 8.77051 157.757 8.70315C157.735 8.69192 157.712 8.69192 157.679 8.6807C157.623 8.66947 157.578 8.64701 157.51 8.63579L157.465 8.62456L157.275 8.57965C157.263 8.57965 157.241 8.56842 157.23 8.56842C157.185 8.55719 157.151 8.54597 157.106 8.53474L157.061 8.52351C157.028 8.51228 156.994 8.51228 156.96 8.50106C156.949 8.50106 156.938 8.50106 156.938 8.48983L156.893 8.4786L156.96 8.48983C156.803 8.45615 156.635 8.43369 156.467 8.41124C156.388 8.40001 156.31 8.40001 156.231 8.38878C156.186 8.38878 156.153 8.37756 156.108 8.37756C156.018 8.36633 155.917 8.36633 155.838 8.3551H155.782L155.58 8.34387C155.558 8.34387 155.535 8.34387 155.524 8.34387H155.513H155.468H155.524C155.513 8.34387 155.502 8.34387 155.491 8.34387C155.434 8.34387 155.378 8.34387 155.322 8.34387H155.311H155.176C154.997 8.34387 154.806 8.3551 154.593 8.36633C154.436 8.37755 154.256 8.40001 154.088 8.42246C154.032 8.43369 153.987 8.43369 153.942 8.44492C153.908 8.44492 153.886 8.45615 153.852 8.45615H153.807C153.774 8.46737 153.729 8.46737 153.695 8.4786C153.493 8.51228 153.302 8.54597 153.112 8.59088C153.1 8.59088 153.078 8.6021 153.067 8.6021L153.044 8.61333C153.033 8.61333 153.033 8.61333 153.022 8.61333C152.943 8.62456 152.506 8.71438 151.844 8.93892C151.81 8.95015 151.765 8.96138 151.731 8.97261C151.687 8.98384 151.642 9.00629 151.597 9.01752C151.586 9.01752 151.574 9.02875 151.563 9.02875C150.968 9.18593 150.306 9.47784 149.588 9.8708C146.727 11.3304 143.832 13.879 141.296 17.5616C141.262 17.6177 141.229 17.6626 141.195 17.7075C141.139 17.7861 141.083 17.8647 141.038 17.9433C140.959 18.0668 140.869 18.1903 140.791 18.3251C140.667 18.5159 140.566 18.6843 140.466 18.8303C140.454 18.8415 140.454 18.8527 140.443 18.864C140.286 19.111 140.185 19.2906 140.14 19.3692C140.118 19.4029 140.106 19.4253 140.084 19.459C139.972 19.6499 139.86 19.8295 139.759 20.0204C139.691 20.1327 139.635 20.2449 139.568 20.3572C139.568 20.3684 139.557 20.3797 139.557 20.3797C139.545 20.3909 139.545 20.4021 139.534 20.4134C139.433 20.593 139.332 20.7726 139.231 20.9635C139.198 21.0309 139.153 21.0982 139.119 21.1768C138.547 22.2547 138.053 23.3774 137.638 24.5563C137.155 25.8474 136.807 27.161 136.639 28.4522C136.583 28.7666 136.527 29.1034 136.482 29.4065C136.46 29.5188 136.437 29.6984 136.415 29.923C136.392 30.1251 136.37 30.3047 136.359 30.5068V30.5293C136.359 30.5405 136.359 30.563 136.359 30.5742C136.325 30.9559 136.302 31.405 136.291 31.899C136.291 31.8878 136.291 31.8766 136.291 31.8653C136.291 31.8766 136.291 31.8878 136.291 31.899C136.291 31.899 136.291 31.899 136.291 31.9102V31.9215V31.9102V31.9215C136.291 32.1123 136.291 32.3369 136.302 32.5727C136.302 32.5839 136.302 32.5839 136.302 32.5951C136.302 32.7186 136.314 32.8309 136.314 32.9432V32.9768V32.9881C136.314 33.1116 136.325 33.2239 136.336 33.3249C136.347 33.5158 136.37 33.7403 136.392 33.9649C136.392 33.9761 136.392 33.9873 136.392 33.9985C136.392 34.021 136.403 34.0547 136.403 34.0771C136.403 34.0884 136.403 34.0996 136.403 34.0996C136.415 34.2006 136.426 34.3129 136.448 34.4364C136.46 34.4813 136.46 34.515 136.471 34.5599C136.482 34.6385 136.493 34.7059 136.504 34.7732C136.504 34.7957 136.516 34.8294 136.516 34.8518C136.516 34.8518 136.516 34.8631 136.516 34.8743C136.538 35.009 136.561 35.1325 136.583 35.2448C136.594 35.2785 136.594 35.3122 136.605 35.3458L136.617 35.3795C136.617 35.3907 136.628 35.4132 136.628 35.4244C136.729 35.896 136.852 36.3114 136.976 36.6594C136.998 36.7156 137.009 36.7605 137.032 36.8166C137.032 36.8054 137.032 36.8054 137.021 36.7942L137.032 36.8166C137.077 36.9514 137.133 37.0861 137.189 37.232L137.211 37.2994C137.223 37.3331 137.245 37.3668 137.256 37.3892L137.301 37.5127C137.312 37.5352 137.324 37.5576 137.335 37.5801C137.38 37.6811 137.425 37.7822 137.469 37.8832C137.481 37.8945 137.481 37.9057 137.492 37.9281C137.503 37.9506 137.514 37.9731 137.526 37.9955C137.593 38.1415 137.683 38.3099 137.772 38.4671C137.817 38.5457 137.862 38.6242 137.907 38.6916C137.941 38.7477 137.963 38.7927 137.997 38.8263C138.434 39.5337 138.939 40.1512 139.545 40.6789C140.533 41.5658 141.7 42.1833 143.024 42.4865C143.114 42.5089 143.215 42.5314 143.327 42.5538C144.831 42.857 146.39 42.7559 147.928 42.3293C148.141 42.2956 148.365 42.2395 148.578 42.1833C148.96 42.2507 149.285 42.1497 149.498 41.9027C149.689 41.6781 149.801 41.3413 149.813 40.9146C149.813 39.747 149.005 38.3323 147.984 37.7485C147.726 37.6025 147.479 37.524 147.243 37.5015C146.974 37.479 146.738 37.5576 146.559 37.7148C146.536 37.726 146.514 37.7261 146.491 37.7373C146.446 37.7485 146.401 37.7597 146.357 37.771C146.222 37.8046 146.087 37.8271 145.953 37.8496C145.93 37.8496 145.919 37.8608 145.897 37.8608C145.829 37.872 145.762 37.8832 145.695 37.8945C145.032 37.9618 144.404 37.9169 143.832 37.7373C143.809 37.7261 143.776 37.7148 143.753 37.7036C143.585 37.6475 143.405 37.5801 143.248 37.4903C142.62 37.1085 142.171 36.5472 141.857 35.9409C141.823 35.8848 141.801 35.8286 141.767 35.7613C141.733 35.6939 141.711 35.6265 141.677 35.5704C141.655 35.5142 141.632 35.4581 141.61 35.3907C141.352 34.7171 141.229 34.021 141.161 33.4035C141.15 32.9207 141.071 32.4492 141.083 31.9664C141.161 30.0689 141.532 28.2613 142.081 26.5548C142.182 26.2516 142.306 25.9373 142.418 25.6341C142.732 24.837 143.091 24.0061 143.518 23.1641L143.529 23.1304C143.607 22.9732 143.697 22.816 143.776 22.6588L144.236 21.8392L144.819 20.8961C144.831 20.8849 144.842 20.8625 144.853 20.8512L145.156 20.4021C145.403 20.0541 145.65 19.706 145.908 19.3804C145.975 19.2906 146.042 19.2008 146.11 19.1222C147.445 17.4381 148.937 16.001 150.43 14.9681C150.486 14.9344 150.542 14.8895 150.598 14.8558C150.744 14.7547 150.89 14.6649 151.025 14.5751C151.137 14.5077 151.26 14.4404 151.372 14.3618C151.462 14.3056 151.563 14.2495 151.653 14.2046C152.438 13.7892 153.168 13.4973 153.852 13.3176C153.942 13.2952 154.021 13.2727 154.11 13.2615C154.234 13.239 154.357 13.2166 154.469 13.1941C154.481 13.1941 154.492 13.1941 154.503 13.1829C154.627 13.1604 154.761 13.1492 154.885 13.138C154.929 13.138 154.974 13.1268 155.019 13.1268C155.782 13.0931 156.5 13.2278 157.14 13.5646C158.184 14.227 158.857 15.4508 159.137 17.0339L164.243 19.9755C164.288 19.0099 164.232 18.1117 164.007 17.3595ZM141.06 32.0225C141.06 32.0113 141.06 32.0001 141.06 31.9888V32.0225ZM142.171 26.2292C142.171 26.2179 142.182 26.2067 142.182 26.1955C142.194 26.173 142.205 26.1393 142.216 26.1169C142.205 26.1618 142.182 26.1955 142.171 26.2292Z" fill="#C7D2D7"/>
<path d="M180.581 55.1286C180.132 54.8704 179.717 54.7357 179.335 54.7132C178.875 54.6795 178.482 54.8143 178.168 55.0837C177.742 55.443 177.473 56.0605 177.461 56.9026C177.45 58.8786 178.842 61.2813 180.558 62.2693C180.917 62.4714 181.254 62.5836 181.58 62.6398C182.219 62.7521 182.78 62.5837 183.15 62.157C183.476 61.7753 183.667 61.2139 183.678 60.4841C183.678 58.5193 182.298 56.1166 180.581 55.1286Z" fill="#A34262"/>
<path d="M196.616 36.1655C196.582 35.7389 196.515 35.2786 196.414 34.807C196.402 34.7509 196.391 34.6947 196.38 34.6498V34.6274V34.6161C196.38 34.6049 196.38 34.5937 196.369 34.5825C196.346 34.4814 196.324 34.3804 196.302 34.2905C196.29 34.2456 196.279 34.2007 196.268 34.167C196.268 34.1558 196.268 34.1446 196.268 34.1446V34.1334C196.257 34.0997 196.245 34.066 196.245 34.0323C196.223 33.965 196.212 33.8976 196.189 33.8302C196.189 33.819 196.178 33.8078 196.178 33.7965C196.178 33.7853 196.178 33.7853 196.178 33.7741C196.178 33.7629 196.178 33.7629 196.167 33.7516C196.133 33.6281 196.1 33.5159 196.066 33.4036C196.055 33.3811 196.055 33.3699 196.043 33.3474V33.3362C196.043 33.325 196.032 33.3138 196.032 33.3025C195.999 33.2127 195.976 33.1229 195.942 33.0331C195.112 30.6416 193.62 28.9575 191.723 28.0369C191.667 28.0032 191.6 27.9807 191.533 27.947C191.499 27.9246 191.454 27.9134 191.42 27.8909C191.398 27.8797 191.375 27.8685 191.364 27.8685C191.342 27.8572 191.331 27.8572 191.308 27.846H191.297H191.286C191.241 27.8235 191.207 27.8123 191.162 27.7899C190.871 27.6664 190.601 27.5765 190.366 27.5092C190.343 27.498 190.321 27.498 190.287 27.4867C190.231 27.4755 190.186 27.453 190.119 27.4418L190.074 27.4306L189.883 27.3857C189.872 27.3857 189.849 27.3745 189.838 27.3745C189.793 27.3632 189.76 27.352 189.715 27.3408L189.67 27.3295C189.636 27.3183 189.603 27.3183 189.569 27.3071C189.558 27.3071 189.546 27.3071 189.546 27.2959L189.502 27.2846L189.569 27.2959C189.412 27.2622 189.243 27.2397 189.075 27.2173C188.997 27.206 188.918 27.206 188.839 27.1948C188.795 27.1948 188.761 27.1836 188.716 27.1836C188.626 27.1724 188.525 27.1724 188.447 27.1611H188.391L188.189 27.1499C188.166 27.1499 188.144 27.1499 188.133 27.1499H188.121H188.076H188.133C188.121 27.1499 188.11 27.1499 188.099 27.1499C188.043 27.1499 187.987 27.1499 187.931 27.1499H187.919H187.785C187.605 27.1499 187.414 27.1611 187.201 27.1724C187.044 27.1836 186.865 27.206 186.696 27.2285C186.64 27.2397 186.595 27.2397 186.55 27.2509C186.517 27.2509 186.494 27.2622 186.461 27.2622H186.416C186.382 27.2734 186.337 27.2734 186.304 27.2846C186.102 27.3183 185.911 27.352 185.72 27.3969C185.709 27.3969 185.686 27.4081 185.675 27.4081L185.653 27.4194C185.641 27.4194 185.641 27.4194 185.63 27.4194C185.552 27.4306 185.114 27.5204 184.452 27.745C184.418 27.7562 184.374 27.7674 184.34 27.7786C184.295 27.7899 184.25 27.8123 184.205 27.8236C184.194 27.8236 184.183 27.8348 184.172 27.8348C183.577 27.992 182.915 28.2839 182.197 28.6768C179.335 30.1364 176.44 32.685 173.904 36.3676C173.871 36.4238 173.837 36.4687 173.803 36.5136C173.747 36.5922 173.691 36.6708 173.646 36.7494C173.568 36.8729 173.478 36.9964 173.399 37.1311C173.276 37.3219 173.175 37.4904 173.074 37.6363C173.063 37.6475 173.063 37.6588 173.051 37.67C172.894 37.917 172.793 38.0966 172.748 38.1752C172.726 38.2089 172.715 38.2314 172.692 38.2651C172.58 38.4559 172.468 38.6356 172.367 38.8264C172.3 38.9387 172.244 39.051 172.176 39.1632C172.176 39.1745 172.165 39.1857 172.165 39.1857C172.154 39.1969 172.154 39.2082 172.143 39.2194C172.042 39.399 171.941 39.5787 171.84 39.7695C171.806 39.8369 171.761 39.9043 171.727 39.9829C171.155 41.0607 170.661 42.1834 170.246 43.3623C169.764 44.6535 169.416 45.9671 169.248 47.2582C169.191 47.5726 169.135 47.9094 169.09 48.2126C169.068 48.3248 169.046 48.5045 169.023 48.729C169.001 48.9311 168.978 49.1107 168.967 49.3128V49.3353C168.967 49.3465 168.967 49.369 168.967 49.3802C168.933 49.7619 168.911 50.211 168.9 50.705C168.9 50.6938 168.9 50.6826 168.9 50.6714C168.9 50.6826 168.9 50.6938 168.9 50.705C168.9 50.705 168.9 50.705 168.9 50.7163V50.7275V50.7163V50.7275C168.9 50.9184 168.9 51.1429 168.911 51.3787C168.911 51.3899 168.911 51.3899 168.911 51.4011C168.911 51.5246 168.922 51.6369 168.922 51.7492V51.7829V51.7941C168.922 51.9176 168.933 52.0299 168.945 52.1309C168.956 52.3218 168.978 52.5463 169.001 52.7709C169.001 52.7821 169.001 52.7933 169.001 52.8046C169.001 52.827 169.012 52.8607 169.012 52.8832C169.012 52.8944 169.012 52.9056 169.012 52.9056C169.023 53.0067 169.034 53.1189 169.057 53.2312C169.068 53.2761 169.068 53.3098 169.079 53.3547C169.09 53.4333 169.102 53.5007 169.113 53.568C169.113 53.5905 169.124 53.6242 169.124 53.6466C169.124 53.6466 169.124 53.6579 169.124 53.6691C169.147 53.8038 169.169 53.9273 169.191 54.0396C169.203 54.0733 169.203 54.1069 169.214 54.1406L169.225 54.1743C169.225 54.1855 169.236 54.208 169.236 54.2192C169.337 54.6908 169.461 55.1062 169.584 55.4542C169.607 55.4992 169.618 55.5553 169.64 55.6114C169.64 55.6002 169.64 55.6002 169.629 55.589L169.64 55.6114C169.685 55.7462 169.741 55.8809 169.797 56.0268L169.82 56.0942C169.831 56.1279 169.853 56.1616 169.865 56.184L169.91 56.3075C169.921 56.33 169.932 56.3524 169.943 56.3749C169.988 56.4759 170.033 56.577 170.078 56.678C170.089 56.6893 170.089 56.7005 170.1 56.7229C170.112 56.7454 170.123 56.7678 170.134 56.7903C170.201 56.9363 170.291 57.1047 170.381 57.2619C170.426 57.3405 170.471 57.419 170.515 57.4864C170.549 57.5425 170.572 57.5875 170.605 57.6211C171.043 58.3285 171.548 58.946 172.154 59.4737C173.141 60.3606 174.308 60.9781 175.632 61.2813C175.722 61.3037 175.823 61.3262 175.935 61.3486C177.439 61.6518 178.999 61.5507 180.536 61.1241C180.749 61.0904 180.974 61.0343 181.187 60.9781C181.568 61.0455 181.894 60.9445 182.107 60.6974C182.298 60.4729 182.41 60.1361 182.421 59.7094C182.421 58.5418 181.613 57.1271 180.592 56.5433C180.334 56.3974 180.087 56.3188 179.851 56.2963C179.582 56.2738 179.346 56.3524 179.167 56.5096C179.144 56.5208 179.122 56.5208 179.1 56.5321C179.055 56.5433 179.01 56.5545 178.965 56.5658C178.83 56.5994 178.696 56.6219 178.561 56.6444C178.539 56.6444 178.527 56.6556 178.505 56.6556C178.438 56.6668 178.37 56.678 178.303 56.6893C177.641 56.7566 177.012 56.7117 176.44 56.5321C176.418 56.5208 176.384 56.5096 176.362 56.4984C176.193 56.4423 176.014 56.3749 175.857 56.2851C175.228 55.9033 174.779 55.342 174.465 54.7357C174.432 54.6796 174.409 54.6234 174.376 54.556C174.342 54.4887 174.319 54.4213 174.286 54.3652C174.263 54.309 174.241 54.2529 174.218 54.1855C173.96 53.5119 173.837 52.8158 173.77 52.1983C173.758 51.7155 173.68 51.244 173.691 50.7612C173.77 48.8637 174.14 47.0561 174.69 45.3496C174.791 45.0464 174.914 44.732 175.026 44.4289C175.341 43.6318 175.7 42.8009 176.126 41.9589L176.137 41.9252C176.216 41.768 176.306 41.6108 176.384 41.4536L176.844 40.634L177.428 39.6909C177.439 39.6797 177.45 39.6573 177.461 39.646L177.764 39.1969C178.011 38.8489 178.258 38.5008 178.516 38.1752C178.583 38.0854 178.651 37.9956 178.718 37.917C180.053 36.2329 181.546 34.7958 183.038 33.7629C183.094 33.7292 183.15 33.6843 183.207 33.6506C183.352 33.5495 183.498 33.4597 183.633 33.3699C183.745 33.3025 183.869 33.2352 183.981 33.1566C184.071 33.1004 184.172 33.0443 184.261 32.9994C185.047 32.584 185.776 32.2921 186.461 32.1124C186.55 32.09 186.629 32.0675 186.719 32.0563C186.842 32.0338 186.966 32.0114 187.078 31.9889C187.089 31.9889 187.1 31.9889 187.111 31.9777C187.235 31.9552 187.37 31.944 187.493 31.9328C187.538 31.9328 187.583 31.9216 187.628 31.9216C188.391 31.8879 189.109 32.0226 189.748 32.3594C190.792 33.0218 191.465 34.2456 191.746 35.8287L196.851 38.7703C196.896 37.8047 196.829 36.9178 196.616 36.1655ZM173.669 50.8285C173.669 50.8173 173.669 50.8061 173.669 50.7949V50.8285ZM174.779 45.0352C174.779 45.024 174.791 45.0127 174.791 45.0015C174.802 44.9791 174.813 44.9454 174.824 44.9229C174.802 44.9566 174.791 44.9903 174.779 45.0352Z" fill="#C7D2D7"/>
<path d="M213.189 73.9121C212.74 73.6538 212.325 73.5191 211.944 73.4967C211.484 73.463 211.091 73.5977 210.777 73.8672C210.35 74.2264 210.081 74.844 210.07 75.686C210.07 77.662 211.45 80.0647 213.167 81.0527C213.526 81.2548 213.863 81.3671 214.188 81.4232C214.828 81.5355 215.389 81.3671 215.759 80.9404C216.084 80.5587 216.275 79.9973 216.286 79.2676C216.286 77.3028 214.906 74.9001 213.189 73.9121Z" fill="#A34262"/>
<path d="M229.224 54.949C229.191 54.5223 229.123 54.062 229.022 53.5905C229.011 53.5343 229 53.4782 228.989 53.4333V53.3996V53.3884C228.989 53.3771 228.989 53.3659 228.977 53.3547C228.955 53.2536 228.933 53.1526 228.91 53.0628C228.899 53.0179 228.888 52.9729 228.876 52.9393C228.876 52.928 228.876 52.9168 228.876 52.9168V52.9056C228.865 52.8719 228.854 52.8382 228.854 52.8045C228.832 52.7372 228.82 52.6698 228.798 52.6024C228.798 52.5912 228.787 52.58 228.787 52.5688C228.787 52.5575 228.787 52.5575 228.787 52.5463C228.787 52.5351 228.787 52.5351 228.775 52.5239C228.742 52.4003 228.708 52.2881 228.674 52.1758C228.663 52.1533 228.663 52.1421 228.652 52.1197V52.1084C228.652 52.0972 228.641 52.086 228.641 52.0748C228.607 51.9849 228.585 51.8951 228.551 51.8053C227.721 49.4139 226.228 47.7297 224.332 46.8091C224.276 46.7754 224.208 46.753 224.141 46.7193C224.107 46.6968 224.063 46.6856 224.029 46.6631C224.006 46.6519 223.984 46.6407 223.973 46.6407C223.95 46.6294 223.939 46.6295 223.917 46.6182H223.905H223.894C223.849 46.5958 223.816 46.5845 223.771 46.5621C223.479 46.4386 223.21 46.3488 222.974 46.2814C222.952 46.2702 222.929 46.2702 222.896 46.2589C222.839 46.2477 222.795 46.2253 222.727 46.214L222.682 46.2028L222.492 46.1579C222.48 46.1579 222.458 46.1467 222.447 46.1467C222.402 46.1354 222.368 46.1242 222.323 46.113L222.278 46.1018C222.245 46.0905 222.211 46.0905 222.177 46.0793C222.166 46.0793 222.155 46.0793 222.155 46.0681L222.11 46.0569L222.177 46.0681C222.02 46.0344 221.852 46.0119 221.684 45.9895C221.605 45.9783 221.527 45.9783 221.448 45.967C221.403 45.967 221.37 45.9558 221.325 45.9558C221.235 45.9446 221.134 45.9446 221.055 45.9333H220.999L220.797 45.9221C220.775 45.9221 220.752 45.9221 220.741 45.9221H220.73H220.685H220.741C220.73 45.9221 220.719 45.9221 220.707 45.9221C220.651 45.9221 220.595 45.9221 220.539 45.9221H220.528H220.393C220.214 45.9221 220.023 45.9334 219.81 45.9446C219.653 45.9558 219.473 45.9783 219.305 46.0007C219.249 46.0119 219.204 46.0119 219.159 46.0232C219.125 46.0232 219.103 46.0344 219.069 46.0344H219.024C218.991 46.0456 218.946 46.0456 218.912 46.0569C218.71 46.0905 218.519 46.1242 218.329 46.1691C218.317 46.1691 218.295 46.1804 218.284 46.1804L218.261 46.1916C218.25 46.1916 218.25 46.1916 218.239 46.1916C218.16 46.2028 217.723 46.2926 217.061 46.5172C217.027 46.5284 216.982 46.5396 216.948 46.5509C216.904 46.5621 216.859 46.5845 216.814 46.5958C216.803 46.5958 216.791 46.607 216.78 46.607C216.185 46.7642 215.523 47.0561 214.805 47.449C211.944 48.9086 209.049 51.4572 206.513 55.1398C206.479 55.196 206.445 55.2409 206.412 55.2858C206.356 55.3644 206.3 55.443 206.255 55.5216C206.176 55.6451 206.086 55.7686 206.008 55.9033C205.884 56.0942 205.783 56.2626 205.682 56.4085C205.671 56.4198 205.671 56.431 205.66 56.4422C205.503 56.6892 205.402 56.8689 205.357 56.9475C205.335 56.9811 205.323 57.0036 205.301 57.0373C205.189 57.2281 205.076 57.4078 204.975 57.5986C204.908 57.7109 204.852 57.8232 204.785 57.9355C204.785 57.9467 204.774 57.9579 204.774 57.9579C204.762 57.9691 204.762 57.9804 204.751 57.9916C204.65 58.1712 204.549 58.3509 204.448 58.5418C204.414 58.6091 204.37 58.6765 204.336 58.7438C203.764 59.8217 203.27 60.9444 202.855 62.1233C202.372 63.4144 202.024 64.7281 201.856 66.0192C201.8 66.3336 201.744 66.6704 201.699 66.9735C201.676 67.0858 201.654 67.2655 201.632 67.49C201.609 67.6921 201.587 67.8717 201.576 68.0738V68.0963C201.576 68.1075 201.576 68.13 201.576 68.1412C201.542 68.5229 201.519 68.972 201.508 69.466C201.508 69.4548 201.508 69.4436 201.508 69.4324C201.508 69.4436 201.508 69.4548 201.508 69.466C201.508 69.466 201.508 69.466 201.508 69.4773V69.4885V69.4773V69.4885C201.508 69.6794 201.508 69.9039 201.519 70.1397C201.519 70.1509 201.519 70.1509 201.519 70.1621C201.519 70.2856 201.531 70.3979 201.531 70.5102V70.5439V70.5551C201.531 70.6786 201.542 70.7909 201.553 70.8919C201.564 71.0828 201.587 71.3073 201.609 71.5319C201.609 71.5431 201.609 71.5543 201.609 71.5656C201.609 71.588 201.62 71.6217 201.62 71.6442C201.62 71.6554 201.62 71.6666 201.62 71.6666C201.632 71.7677 201.643 71.8799 201.665 71.9922C201.676 72.0371 201.676 72.0708 201.688 72.1157C201.699 72.1943 201.71 72.2617 201.721 72.329C201.721 72.3515 201.733 72.3852 201.733 72.4076C201.733 72.4076 201.733 72.4188 201.733 72.4301C201.755 72.5648 201.777 72.6883 201.8 72.8006C201.811 72.8343 201.811 72.868 201.822 72.9016L201.834 72.9353C201.834 72.9465 201.845 72.969 201.845 72.9802C201.946 73.4518 202.069 73.8672 202.193 74.2152C202.215 74.2601 202.226 74.3163 202.249 74.3724C202.249 74.3612 202.249 74.3612 202.238 74.35L202.249 74.3724C202.294 74.5072 202.35 74.6419 202.406 74.7878L202.428 74.8552C202.44 74.8889 202.462 74.9226 202.473 74.945L202.518 75.0685C202.529 75.091 202.541 75.1134 202.552 75.1359C202.597 75.2369 202.642 75.338 202.686 75.439C202.698 75.4503 202.698 75.4615 202.709 75.4839C202.72 75.5064 202.731 75.5288 202.742 75.5513C202.81 75.6973 202.9 75.8657 202.989 76.0229C203.034 76.1014 203.079 76.1688 203.124 76.2474C203.158 76.3035 203.18 76.3484 203.214 76.3821C203.651 77.0895 204.156 77.707 204.762 78.2347C205.75 79.1216 206.917 79.7391 208.241 80.031C208.331 80.0535 208.432 80.076 208.544 80.0984C210.047 80.4016 211.607 80.3005 213.144 79.8739C213.358 79.8402 213.582 79.784 213.795 79.7279C214.177 79.7953 214.502 79.6942 214.715 79.4472C214.906 79.2227 215.018 78.8858 215.03 78.4592C215.03 77.2916 214.222 75.8769 213.201 75.2931C212.942 75.1471 212.696 75.0685 212.46 75.0461C212.191 75.0236 211.955 75.1022 211.775 75.2594C211.753 75.2706 211.731 75.2706 211.708 75.2818C211.663 75.2931 211.618 75.3043 211.573 75.3155C211.439 75.3492 211.304 75.3717 211.17 75.3941C211.147 75.3941 211.136 75.4053 211.113 75.4053C211.046 75.4166 210.979 75.4278 210.911 75.439C210.249 75.5064 209.621 75.4615 209.049 75.2818C209.026 75.2706 208.993 75.2594 208.97 75.2482C208.802 75.192 208.622 75.1247 208.465 75.0348C207.837 74.6531 207.388 74.0917 207.074 73.4855C207.04 73.4293 207.018 73.3732 206.984 73.3058C206.95 73.2384 206.928 73.1711 206.894 73.1149C206.872 73.0588 206.849 73.0027 206.827 72.9353C206.569 72.2617 206.445 71.5656 206.378 70.9481C206.367 70.4653 206.288 69.9937 206.3 69.5109C206.378 67.6135 206.748 65.8059 207.298 64.0993C207.399 63.7962 207.523 63.4818 207.635 63.1787C207.949 62.3815 208.308 61.5507 208.735 60.7086L208.746 60.675C208.824 60.5178 208.914 60.3606 208.993 60.2034L209.453 59.3838L210.036 58.4407C210.047 58.4295 210.059 58.407 210.07 58.3958L210.373 57.9467C210.62 57.5986 210.867 57.2506 211.125 56.925C211.192 56.8352 211.259 56.7454 211.327 56.6668C212.662 54.9827 214.154 53.5455 215.647 52.5126C215.703 52.4789 215.759 52.434 215.815 52.4003C215.961 52.2993 216.107 52.2095 216.241 52.1197C216.354 52.0523 216.477 51.9849 216.589 51.9063C216.679 51.8502 216.78 51.7941 216.87 51.7492C217.655 51.3337 218.385 51.0418 219.069 50.8622C219.159 50.8397 219.237 50.8173 219.327 50.8061C219.451 50.7836 219.574 50.7611 219.686 50.7387C219.698 50.7387 219.709 50.7387 219.72 50.7275C219.843 50.705 219.978 50.6938 220.102 50.6826C220.146 50.6826 220.191 50.6713 220.236 50.6713C220.999 50.6376 221.717 50.7724 222.357 51.1092C223.401 51.7716 224.074 52.9954 224.354 54.5785L229.46 57.5201C229.505 56.5882 229.437 55.7012 229.224 54.949ZM206.266 69.612C206.266 69.6008 206.266 69.5895 206.266 69.5783V69.612ZM207.388 63.8186C207.388 63.8074 207.399 63.7962 207.399 63.785C207.41 63.7625 207.422 63.7288 207.433 63.7064C207.41 63.74 207.399 63.7737 207.388 63.8186Z" fill="#C7D2D7"/>
<path d="M245.798 92.718C245.349 92.4598 244.934 92.325 244.552 92.3026C244.092 92.2689 243.699 92.4036 243.385 92.6731C242.959 93.0323 242.69 93.6499 242.678 94.4919C242.678 96.4679 244.059 98.8706 245.775 99.8586C246.134 100.072 246.471 100.173 246.796 100.229C247.436 100.341 247.997 100.173 248.367 99.7463C248.693 99.3646 248.884 98.8032 248.895 98.0735C248.895 96.1087 247.503 93.7172 245.798 92.718Z" fill="#A34262"/>
<path d="M261.833 73.7549C261.799 73.3282 261.732 72.8679 261.631 72.3964C261.619 72.3402 261.608 72.2841 261.597 72.2392V72.2167V72.2055C261.597 72.1943 261.597 72.183 261.586 72.1718C261.563 72.0708 261.541 71.9697 261.518 71.8799C261.507 71.835 261.496 71.7901 261.485 71.7564C261.485 71.7452 261.485 71.7339 261.485 71.7339V71.7227C261.474 71.689 261.462 71.6553 261.462 71.6217C261.44 71.5543 261.429 71.4869 261.406 71.4196C261.406 71.4084 261.395 71.3971 261.395 71.3859C261.395 71.3747 261.395 71.3747 261.395 71.3634C261.395 71.3522 261.395 71.3522 261.384 71.341C261.35 71.2175 261.316 71.1052 261.283 70.9929C261.272 70.9705 261.272 70.9593 261.26 70.9368V70.9256C261.26 70.9143 261.249 70.9031 261.249 70.8919C261.215 70.8021 261.193 70.7122 261.159 70.6224C260.329 68.231 258.837 66.5469 256.94 65.6262C256.884 65.5925 256.817 65.5701 256.749 65.5364C256.716 65.5139 256.671 65.5027 256.637 65.4803C256.615 65.469 256.592 65.4578 256.581 65.4578C256.559 65.4466 256.548 65.4466 256.525 65.4354H256.514H256.503C256.458 65.4129 256.424 65.4017 256.379 65.3792C256.087 65.2557 255.818 65.1659 255.582 65.0985C255.56 65.0873 255.538 65.0873 255.504 65.0761C255.448 65.0649 255.403 65.0424 255.336 65.0312L255.291 65.0199L255.1 64.975C255.089 64.975 255.066 64.9638 255.055 64.9638C255.01 64.9526 254.977 64.9413 254.932 64.9301L254.887 64.9189C254.853 64.9077 254.819 64.9077 254.786 64.8964C254.775 64.8964 254.763 64.8964 254.763 64.8852L254.718 64.874L254.786 64.8852C254.629 64.8515 254.46 64.8291 254.292 64.8066C254.214 64.7954 254.135 64.7954 254.056 64.7842C254.012 64.7842 253.978 64.7729 253.933 64.7729C253.843 64.7617 253.742 64.7617 253.664 64.7505H253.608L253.406 64.7393C253.383 64.7393 253.361 64.7393 253.349 64.7393H253.338H253.293H253.349C253.338 64.7393 253.327 64.7393 253.316 64.7393C253.26 64.7393 253.204 64.7393 253.148 64.7393H253.136H253.002C252.822 64.7393 252.631 64.7505 252.418 64.7617C252.261 64.7729 252.082 64.7954 251.913 64.8178C251.857 64.8291 251.812 64.8291 251.767 64.8403C251.734 64.8403 251.711 64.8515 251.678 64.8515H251.633C251.599 64.8628 251.554 64.8628 251.52 64.874C251.318 64.9077 251.128 64.9414 250.937 64.9863C250.926 64.9863 250.903 64.9975 250.892 64.9975L250.87 65.0087C250.858 65.0087 250.858 65.0087 250.847 65.0087C250.769 65.0199 250.331 65.1098 249.669 65.3343C249.635 65.3455 249.59 65.3568 249.557 65.368C249.512 65.3792 249.467 65.4017 249.422 65.4129C249.411 65.4129 249.4 65.4241 249.388 65.4241C248.794 65.5813 248.132 65.8732 247.414 66.2662C244.552 67.7258 241.657 70.2744 239.121 73.957C239.088 74.0131 239.054 74.058 239.02 74.1029C238.964 74.1815 238.908 74.2601 238.863 74.3387C238.785 74.4622 238.695 74.5857 238.616 74.7204C238.493 74.9113 238.392 75.0797 238.291 75.2257C238.28 75.2369 238.28 75.2481 238.268 75.2594C238.111 75.5064 238.01 75.686 237.965 75.7646C237.943 75.7983 237.932 75.8207 237.909 75.8544C237.797 76.0453 237.685 76.2249 237.584 76.4158C237.517 76.5281 237.46 76.6403 237.393 76.7526C237.393 76.7638 237.382 76.7751 237.382 76.7751C237.371 76.7863 237.371 76.7975 237.359 76.8087C237.258 76.9884 237.157 77.168 237.056 77.3589C237.023 77.4262 236.978 77.4936 236.944 77.561C236.372 78.6388 235.878 79.7616 235.463 80.9404C234.981 82.2316 234.633 83.5452 234.464 84.8364C234.408 85.1507 234.352 85.4875 234.307 85.7907C234.285 85.903 234.262 86.0826 234.24 86.3071C234.218 86.5092 234.195 86.6889 234.184 86.891V86.9134C234.184 86.9247 234.184 86.9471 234.184 86.9583C234.15 87.3401 234.128 87.7892 234.117 88.2832C234.117 88.2719 234.117 88.2607 234.117 88.2495C234.117 88.2607 234.117 88.2719 234.117 88.2832C234.117 88.2832 234.117 88.2832 234.117 88.2944V88.3056V88.2944V88.3056C234.117 88.4965 234.117 88.721 234.128 88.9568C234.128 88.968 234.128 88.968 234.128 88.9793C234.128 89.1028 234.139 89.215 234.139 89.3273V89.361V89.3722C234.139 89.4957 234.15 89.608 234.161 89.709C234.173 89.8999 234.195 90.1245 234.218 90.349C234.218 90.3602 234.218 90.3715 234.218 90.3827C234.218 90.4052 234.229 90.4388 234.229 90.4613C234.229 90.4725 234.229 90.4837 234.229 90.4837C234.24 90.5848 234.251 90.6971 234.274 90.8093C234.285 90.8542 234.285 90.8879 234.296 90.9328C234.307 91.0114 234.319 91.0788 234.33 91.1462C234.33 91.1686 234.341 91.2023 234.341 91.2248C234.341 91.2248 234.341 91.236 234.341 91.2472C234.363 91.3819 234.386 91.5054 234.408 91.6177C234.42 91.6514 234.42 91.6851 234.431 91.7188L234.442 91.7524C234.442 91.7637 234.453 91.7861 234.453 91.7974C234.554 92.2689 234.678 92.6843 234.801 93.0324C234.824 93.0773 234.835 93.1334 234.857 93.1896C234.857 93.1783 234.857 93.1783 234.846 93.1671L234.857 93.1896C234.902 93.3243 234.958 93.459 235.014 93.605L235.037 93.6723C235.048 93.706 235.07 93.7397 235.082 93.7621L235.126 93.8857C235.138 93.9081 235.149 93.9306 235.16 93.953C235.205 94.0541 235.25 94.1551 235.295 94.2562C235.306 94.2674 235.306 94.2786 235.317 94.3011C235.328 94.3235 235.34 94.346 235.351 94.3684C235.418 94.5144 235.508 94.6828 235.598 94.84C235.643 94.9186 235.688 94.9859 235.732 95.0645C235.766 95.1207 235.789 95.1656 235.822 95.1993C236.26 95.9066 236.765 96.5241 237.371 97.0518C238.358 97.9388 239.525 98.5563 240.849 98.8594C240.939 98.8819 241.04 98.9043 241.152 98.9268C242.656 99.2299 244.216 99.1289 245.753 98.7022C245.966 98.6685 246.19 98.6124 246.404 98.5563C246.785 98.6236 247.111 98.5226 247.324 98.2756C247.515 98.051 247.627 97.7142 247.638 97.2876C247.638 96.1199 246.83 94.7053 245.809 94.1214C245.551 93.9755 245.304 93.8969 245.068 93.8744C244.799 93.852 244.563 93.9306 244.384 94.0877C244.361 94.099 244.339 94.099 244.317 94.1102C244.272 94.1214 244.227 94.1327 244.182 94.1439C244.047 94.1776 243.913 94.2 243.778 94.2225C243.755 94.2225 243.744 94.2337 243.722 94.2337C243.654 94.2449 243.587 94.2562 243.52 94.2674C242.858 94.3348 242.229 94.2898 241.657 94.1102C241.635 94.099 241.601 94.0877 241.579 94.0765C241.41 94.0204 241.231 93.953 241.074 93.8632C240.445 93.4815 239.996 92.9201 239.682 92.3138C239.649 92.2577 239.626 92.2015 239.592 92.1342C239.559 92.0668 239.536 91.9995 239.503 91.9433C239.48 91.8872 239.458 91.831 239.435 91.7637C239.177 91.09 239.054 90.3939 238.987 89.7764C238.975 89.2936 238.897 88.8221 238.908 88.3393C238.987 86.4419 239.357 84.6343 239.907 82.9277C240.008 82.6246 240.131 82.3102 240.243 82.007C240.557 81.2099 240.917 80.3791 241.343 79.537L241.354 79.5033C241.433 79.3461 241.522 79.189 241.601 79.0318L242.061 78.2122L242.645 77.2691C242.656 77.2578 242.667 77.2354 242.678 77.2242L242.981 76.7751C243.228 76.427 243.475 76.079 243.733 75.7534C243.8 75.6635 243.868 75.5737 243.935 75.4951C245.27 73.811 246.763 72.3739 248.255 71.341C248.311 71.3073 248.367 71.2624 248.423 71.2287C248.569 71.1277 248.715 71.0378 248.85 70.948C248.962 70.8807 249.085 70.8133 249.198 70.7347C249.287 70.6786 249.388 70.6224 249.478 70.5775C250.264 70.1621 250.993 69.8702 251.678 69.6906C251.767 69.6681 251.846 69.6456 251.936 69.6344C252.059 69.612 252.183 69.5895 252.295 69.5671C252.306 69.5671 252.317 69.5671 252.328 69.5558C252.452 69.5334 252.586 69.5221 252.71 69.5109C252.755 69.5109 252.8 69.4997 252.845 69.4997C253.608 69.466 254.326 69.6007 254.965 69.9376C256.009 70.6 256.682 71.8238 256.963 73.4068L262.068 76.3484C262.113 75.4053 262.046 74.5071 261.833 73.7549ZM238.874 88.4179C238.874 88.4067 238.874 88.3954 238.874 88.3842V88.4179ZM239.996 82.6245C239.996 82.6133 240.008 82.6021 240.008 82.5909C240.019 82.5684 240.03 82.5347 240.041 82.5123C240.019 82.5572 240.008 82.5909 239.996 82.6245Z" fill="#C7D2D7"/>
<path opacity="0.2" d="M314.864 328.427L456.732 410.376C458.55 411.431 460.794 411.431 462.623 410.376L469.715 406.278C471.285 405.368 471.285 403.1 469.715 402.191L327.532 320.41C325.714 319.366 323.47 319.366 321.652 320.421L314.875 324.34C313.304 325.249 313.304 327.517 314.864 328.427Z" fill="#455A64"/>
<path d="M313.82 28.295C314.774 24.9043 321.63 18.4822 328.452 18.617C328.699 18.617 329.922 18.7405 330.371 18.9875L462.959 94.4582C465.215 95.7382 466.954 97.6693 468.054 99.926C468.884 101.633 469.367 103.519 469.367 105.495V392.445C469.367 399.754 460.94 406.727 453.029 403.37C453.006 403.358 452.995 403.347 452.973 403.336C452.804 403.269 452.625 403.224 452.468 403.134L319.879 327.54C315.918 325.283 313.472 321.073 313.472 316.514V29.676C313.483 29.1707 313.618 28.7104 313.82 28.295Z" fill="url(#paint6_linear)"/>
<path d="M450.874 135.82C450.874 133.541 449.651 131.43 447.665 130.307L324.57 60.2258C322.46 59.0245 319.834 60.5514 319.834 62.9877V294.374C319.834 296.653 321.058 298.764 323.032 299.886L446.139 370.08C448.249 371.282 450.874 369.755 450.874 367.33V135.82Z" fill="#FFC77E"/>
<path d="M469.367 105.495V392.445C469.367 399.754 460.94 406.727 453.029 403.37C453.006 403.358 452.995 403.347 452.973 403.336C454.981 404.066 457.203 402.617 457.203 400.372V113.421C457.203 110.884 456.418 108.459 455.06 106.415L468.043 99.926C468.895 101.633 469.367 103.53 469.367 105.495Z" fill="url(#paint7_linear)"/>
<path opacity="0.2" d="M328.463 18.617C328.71 18.617 329.933 18.7405 330.382 18.9875L462.97 94.4582C465.225 95.7382 466.965 97.6693 468.064 99.926L455.082 106.415C454.004 104.787 452.568 103.395 450.806 102.396L318.218 26.9252C316.546 25.9709 314.582 26.7456 313.819 28.295L313.808 28.2838C314.773 24.9043 321.629 18.4822 328.463 18.617Z" fill="white"/>
<path d="M369.005 74.305C368.074 73.7661 367.3 74.1815 367.3 75.2593C367.3 76.3259 368.063 77.662 368.994 78.2009L395.004 93.2232C395.936 93.7621 396.688 93.313 396.688 92.2352C396.688 91.1686 395.947 89.8662 395.016 89.3385L369.005 74.305Z" fill="#3C3970"/>
<path d="M401.703 93.1895C400.772 92.6506 400.02 93.0772 400.02 94.155C400.02 95.2216 400.761 96.5465 401.692 97.0854C402.624 97.6243 403.398 97.1864 403.398 96.1086C403.398 95.0308 402.635 93.7284 401.703 93.1895Z" fill="#3C3970"/>
<path d="M385.051 72.1156C383.189 71.0378 381.685 71.9023 381.685 74.0355C381.674 76.1687 383.166 78.8072 385.029 79.885C386.892 80.9628 388.429 80.0759 388.44 77.9426C388.44 75.7982 386.914 73.1934 385.051 72.1156Z" fill="#3C3970"/>
<path d="M385.04 342.259C381.247 340.069 378.195 341.81 378.184 346.166C378.173 350.522 381.214 355.878 384.995 358.067C388.788 360.256 391.93 358.46 391.941 354.104C391.952 349.759 388.833 344.448 385.04 342.259Z" fill="#3C3970"/>
<path d="M357.448 119.248C357.448 118.777 357.19 118.339 356.786 118.103L331.314 103.597C330.876 103.35 330.338 103.665 330.338 104.17V133.058C330.338 133.53 330.596 133.968 331 134.203L356.471 148.732C356.909 148.979 357.448 148.664 357.448 148.159V119.248Z" fill="white"/>
<path d="M438.688 165.517L367.3 124.289V128.792L438.688 170.03V165.517Z" fill="#FF9F55"/>
<path d="M438.688 173.769L367.3 132.53V137.033L438.688 178.271V173.769Z" fill="#FF9F55"/>
<path d="M438.688 182.01L367.3 140.771V145.285L438.688 186.512V182.01Z" fill="#FF9F55"/>
<path d="M367.3 149.023V153.526L392.177 167.897V163.395L367.3 149.023Z" fill="#FF9F55"/>
<path d="M357.448 165.786C357.448 165.315 357.19 164.877 356.786 164.641L331.314 150.135C330.876 149.888 330.338 150.202 330.338 150.708V179.596C330.338 180.067 330.596 180.505 331 180.741L356.471 195.269C356.909 195.516 357.448 195.202 357.448 194.697V165.786Z" fill="white"/>
<path d="M438.688 212.054L367.3 170.827V175.329L438.688 216.568V212.054Z" fill="#FF9F55"/>
<path d="M438.688 220.306L367.3 179.068V183.57L438.688 224.809V220.306Z" fill="#FF9F55"/>
<path d="M367.3 187.309V191.822L414.832 219.274V214.771L367.3 187.309Z" fill="#FF9F55"/>
<path d="M357.448 212.324C357.448 211.852 357.19 211.414 356.786 211.179L331.314 196.673C330.876 196.426 330.338 196.74 330.338 197.245V226.133C330.338 226.605 330.596 227.043 331 227.279L356.471 241.807C356.909 242.054 357.448 241.74 357.448 241.234V212.324Z" fill="white"/>
<path d="M438.688 258.592L367.3 217.354V221.867L438.688 263.094V258.592Z" fill="#FF9F55"/>
<path d="M438.688 266.833L367.3 225.606V230.108L438.688 271.346V266.833Z" fill="#FF9F55"/>
<path d="M367.3 233.847V238.36L378.543 244.85V240.336L367.3 233.847Z" fill="#FF9F55"/>
<path d="M357.448 258.861C357.448 258.39 357.19 257.952 356.786 257.716L331.314 243.21C330.876 242.963 330.338 243.278 330.338 243.783V272.671C330.338 273.143 330.596 273.581 331 273.816L356.471 288.345C356.909 288.592 357.448 288.277 357.448 287.772V258.861Z" fill="white"/>
<path d="M438.688 305.13L367.3 263.891V268.405L438.688 309.632V305.13Z" fill="#FF9F55"/>
<path d="M438.688 313.371L367.3 272.143V276.646L438.688 317.884V313.371Z" fill="#FF9F55"/>
<path d="M438.688 321.623L367.3 280.384V284.898L438.688 326.125V321.623Z" fill="#FF9F55"/>
<path d="M367.3 288.435V292.937L412.195 318.872V314.37L367.3 288.435Z" fill="#FF9F55"/>
<path d="M352.477 121.112L354.833 125.188L340.481 133.372L332.952 120.326L335.32 118.968L340.493 127.95L352.477 121.112Z" fill="#FF634C"/>
<path d="M352.477 167.65L354.833 171.725L340.481 179.91L332.952 166.864L335.32 165.505L340.493 174.487L352.477 167.65Z" fill="#FF634C"/>
<path d="M352.477 214.187L354.833 218.263L340.481 226.448L332.952 213.402L335.32 212.043L340.493 221.025L352.477 214.187Z" fill="#FF634C"/>
<path d="M352.477 260.725L354.833 264.801L340.481 272.986L332.952 259.939L335.32 258.581L340.493 267.551L352.477 260.725Z" fill="#FF634C"/>
<path opacity="0.2" d="M196.627 355.058L311.778 421.277C313.596 422.333 315.84 422.333 317.669 421.277L353.442 399.766C355.013 398.856 355.013 396.588 353.442 395.679L237.977 329.639C236.159 328.595 233.915 328.595 232.097 329.639L196.638 350.971C195.056 351.881 195.056 354.149 196.627 355.058Z" fill="#455A64"/>
<path d="M304.742 358.617C302.868 358.359 300.422 359.347 299.266 360.84C298.694 361.581 298.548 362.311 298.784 362.884L312.17 395.937C312.406 396.51 313.023 396.925 313.955 397.06C315.817 397.318 318.275 396.33 319.419 394.848C319.992 394.107 320.137 393.377 319.902 392.805L306.515 359.751C306.291 359.167 305.673 358.752 304.742 358.617Z" fill="#3C3970"/>
<path d="M228.966 369.676C227.092 369.934 224.646 368.946 223.49 367.453C222.918 366.712 222.772 365.982 223.008 365.41L236.395 332.356C236.63 331.784 237.247 331.368 238.179 331.233C240.041 330.975 242.499 331.963 243.643 333.445C244.216 334.186 244.361 334.916 244.126 335.489L230.739 368.542C230.515 369.126 229.898 369.553 228.966 369.676Z" fill="#3C3970"/>
<path d="M252.957 229.771C242.678 223.832 232.972 221.059 224.366 221.081C203.64 221.149 189.378 237.585 189.3 266.058C189.187 306.342 217.498 355.406 252.542 375.66C277.957 390.346 299.917 385.81 310.117 366.847C313.977 359.673 316.165 350.432 316.188 339.362C316.311 299.067 288 250.003 252.957 229.771Z" fill="url(#paint8_linear)"/>
<path d="M306.676 374.613C331.415 360.227 331.349 313.926 306.53 271.198C281.71 228.469 241.536 205.493 216.797 219.879C192.059 234.265 192.124 280.566 216.944 323.294C241.763 366.022 281.938 388.999 306.676 374.613Z" fill="white"/>
<path d="M263.493 235.778L263.46 246.77L260.273 244.928L260.307 233.937L263.493 235.778Z" fill="#4D578F"/>
<path d="M236.125 227.425L240.872 239.696L238.1 239.943L233.354 227.672L236.125 227.425Z" fill="#4D578F"/>
<path d="M215.613 237.788L223.872 248.049L222.267 250.306L214.008 240.033L215.613 237.788Z" fill="#4D578F"/>
<path d="M217.016 269.595L217.004 273.255L207.444 267.731L207.455 264.071L217.016 269.595Z" fill="#4D578F"/>
<path d="M222.132 298.539L223.715 302.637L215.422 303.345L213.84 299.258L222.132 298.539Z" fill="#4D578F"/>
<path d="M237.853 327.147L240.614 330.571L235.811 337.33L233.062 333.906L237.853 327.147Z" fill="#4D578F"/>
<path d="M263.168 349.579L263.134 360.571L259.948 358.729L259.981 347.749L263.168 349.579Z" fill="#4D578F"/>
<path d="M285.33 354.575L290.087 366.847L287.316 367.083L282.569 354.811L285.33 354.575Z" fill="#4D578F"/>
<path d="M301.174 344.201L309.433 354.474L307.828 356.731L299.569 346.447L301.174 344.201Z" fill="#4D578F"/>
<path d="M315.997 326.776L315.986 330.436L306.425 324.912L306.437 321.252L315.997 326.776Z" fill="#4D578F"/>
<path d="M308.019 291.163L309.601 295.25L301.308 295.957L299.726 291.87L308.019 291.163Z" fill="#4D578F"/>
<path d="M287.63 257.177L290.379 260.613L285.576 267.361L282.827 263.936L287.63 257.177Z" fill="#4D578F"/>
<path d="M263.763 304.276L282.053 348.715L282.468 353.475L279.136 349.119L260.845 304.681C261.99 304.984 263 304.827 263.763 304.276Z" fill="#4D578F"/>
<path d="M286.216 299.101L290.188 301.851L287.394 303.535L265.334 300.032C265.345 300.178 265.356 300.336 265.356 300.482C265.356 300.717 265.345 300.942 265.322 301.155C265.311 301.245 265.3 301.335 265.289 301.413C265.278 301.537 265.255 301.66 265.244 301.761C265.221 301.874 265.199 301.975 265.165 302.087C265.143 302.166 265.132 302.244 265.109 302.323C265.076 302.446 265.031 302.547 264.975 302.66L264.918 302.817C264.862 302.94 264.806 303.064 264.739 303.176L264.694 303.266C264.616 303.389 264.548 303.502 264.47 303.603C264.335 303.749 264.245 303.861 264.144 303.962C264.021 304.086 263.909 304.164 263.785 304.254C263.011 304.804 262.012 304.95 260.868 304.669C260.621 304.602 260.374 304.523 260.127 304.411L260.004 304.366C259.734 304.254 259.476 304.13 259.207 303.973C255.807 302.008 253.069 297.259 253.08 293.363C253.091 289.456 255.852 287.884 259.241 289.849C259.476 289.984 259.712 290.13 259.936 290.298C260.004 290.343 260.071 290.399 260.138 290.455C260.307 290.579 260.464 290.702 260.621 290.826C260.699 290.893 260.767 290.949 260.834 291.017C260.991 291.152 261.148 291.309 261.294 291.443L261.474 291.623C261.653 291.803 261.821 291.994 261.99 292.196C262.899 293.262 263.617 294.385 264.167 295.575L286.216 299.101Z" fill="#FF634C"/>
<path d="M261.272 298.764C261.272 297.102 260.105 295.081 258.668 294.239C258.017 293.869 257.434 293.812 256.974 293.992H256.963L256.895 294.037C256.839 294.071 256.783 294.104 256.727 294.138L252.755 296.496C253.226 296.249 253.866 296.294 254.573 296.698C256.02 297.529 257.187 299.561 257.176 301.223C257.176 302.02 256.895 302.581 256.458 302.862L260.464 300.47C260.486 300.459 260.509 300.448 260.531 300.437L260.576 300.403V300.392C261.002 300.1 261.272 299.55 261.272 298.764Z" fill="#4D578F"/>
<path d="M257.176 301.211C257.176 299.55 256.009 297.529 254.573 296.687C253.866 296.282 253.226 296.238 252.755 296.485C252.261 296.743 251.947 297.338 251.947 298.18C251.947 299.842 253.114 301.862 254.55 302.705C255.302 303.142 255.975 303.154 256.458 302.85C256.907 302.57 257.176 302.008 257.176 301.211Z" fill="#5D71AB"/>
<path d="M332.032 256.571C319.509 234.868 302.722 217.196 284.769 206.822C273.727 200.445 263.011 197.212 252.923 197.212C245.528 197.212 238.908 198.941 233.208 202.163L233.196 202.152L232.714 202.444C232.355 202.657 232.007 202.859 231.648 203.084L203.943 219.734C209.812 216.208 216.724 214.311 224.478 214.311C234.565 214.311 245.282 217.545 256.323 223.922C274.277 234.296 291.064 251.957 303.586 273.67C316.12 295.384 322.988 318.715 322.931 339.373C322.875 360.279 315.559 376.244 303.216 384.597L330.046 368.531C330.214 368.43 330.382 368.329 330.551 368.228L330.629 368.183C343.612 360.032 351.321 343.752 351.377 322.274C351.433 301.627 344.566 278.285 332.032 256.571Z" fill="url(#paint9_linear)"/>
<path d="M303.598 273.67C291.075 251.968 274.288 234.296 256.334 223.922C245.293 217.545 234.577 214.311 224.489 214.311C216.735 214.311 209.834 216.208 203.954 219.734L203.36 220.093C203.326 220.116 203.304 220.138 203.27 220.149C190.321 228.312 182.634 244.58 182.567 266.025C182.511 286.683 189.378 310.014 201.901 331.727C214.424 353.441 231.21 371.102 249.175 381.476C260.217 387.853 270.922 391.087 281.01 391.087C287.978 391.087 294.262 389.549 299.738 386.675C299.771 386.663 299.794 386.641 299.827 386.63L303.216 384.586C315.57 376.233 322.875 360.256 322.932 339.362C322.999 318.726 316.132 295.396 303.598 273.67ZM252.553 375.66C217.509 355.417 189.199 306.342 189.311 266.058C189.389 237.585 203.651 221.149 224.377 221.081C232.983 221.059 242.69 223.832 252.968 229.771C288 250.014 316.322 299.078 316.21 339.373C316.176 350.432 314 359.673 310.139 366.858C299.928 385.81 277.957 390.335 252.553 375.66Z" fill="url(#paint10_linear)"/>
<path d="M351.029 313.932L322.528 330.391C322.797 333.434 322.943 336.432 322.932 339.373C322.909 347.423 321.798 354.744 319.745 361.177L347.91 344.908C350.131 338.273 351.343 330.672 351.366 322.274C351.377 319.546 351.265 316.75 351.029 313.932Z" fill="url(#paint11_linear)"/>
<g opacity="0.2">
<path opacity="0.2" d="M288.606 209.18L259.622 225.92C267.926 231.175 275.938 237.99 283.332 246.006L312.171 229.345C304.832 221.317 296.865 214.479 288.606 209.18Z" fill="white"/>
<path opacity="0.2" d="M320.474 239.247L291.681 255.886C293.712 258.513 295.675 261.23 297.572 264.048L326.343 247.432C324.446 244.614 322.494 241.886 320.474 239.247Z" fill="white"/>
</g>
<path opacity="0.2" d="M61.9404 331.806L165.118 391.536C166.644 392.412 168.518 392.412 170.044 391.536L175.98 388.112C177.293 387.348 177.293 385.451 175.98 384.699L73.038 325.406L57.5305 320.949C56.4869 320.646 55.6341 321.791 56.2064 322.712L61.9404 331.806Z" fill="#455A64"/>
<path d="M59.9206 314.505L56.6216 313.932C56.0156 313.831 55.5892 314.493 55.9259 314.999L58.215 318.378C58.0018 316.728 58.574 315.077 59.9206 314.505Z" fill="#4D578F"/>
<path d="M71.2538 316.492L59.9318 314.505C58.5852 315.077 58.013 316.728 58.2262 318.378L64.5212 327.663L71.2538 316.492Z" fill="#E5B7A1"/>
<path d="M171.436 376.738C174.14 375.178 176.339 376.424 176.351 379.545C176.362 382.655 174.174 386.439 171.469 388.011C168.765 389.571 166.566 388.314 166.554 385.204C166.543 382.094 168.731 378.299 171.436 376.738Z" fill="#E5B7A1"/>
<path opacity="0.2" d="M111.19 339.34L103.155 334.669L72.4545 316.818C72.4433 316.818 72.4321 316.806 72.4321 316.806C72.3536 316.761 72.275 316.716 72.1852 316.683C72.174 316.672 72.1516 316.672 72.1404 316.66C72.1179 316.649 72.0842 316.638 72.0618 316.627C72.0169 316.615 71.9833 316.593 71.9384 316.582C71.8935 316.571 71.8486 316.559 71.7925 316.548C71.7588 316.537 71.7364 316.537 71.7027 316.526C71.6915 316.526 71.6691 316.514 71.6578 316.514C71.5569 316.503 71.4671 316.481 71.3661 316.481C71.3549 316.481 71.3549 316.481 71.3437 316.481C71.3212 316.481 71.2988 316.481 71.2651 316.481C71.1866 316.481 71.108 316.481 71.0295 316.481C71.007 316.481 70.9734 316.492 70.9509 316.492C70.906 316.492 70.8499 316.503 70.805 316.503C70.7602 316.503 70.7153 316.514 70.6704 316.514C70.6255 316.526 70.5918 316.537 70.547 316.537C70.4796 316.548 70.4123 316.559 70.345 316.582C70.3113 316.593 70.2777 316.593 70.2328 316.604C70.1542 316.627 70.0645 316.649 69.9859 316.683C69.9747 316.683 69.9747 316.683 69.9635 316.694C69.8625 316.728 69.7615 316.761 69.6605 316.806C69.6156 316.818 69.5819 316.84 69.5371 316.862C69.5034 316.874 69.4585 316.896 69.4249 316.919C69.279 316.986 69.1219 317.065 68.976 317.154C68.8189 317.244 68.6618 317.345 68.5047 317.446C68.4598 317.48 68.4037 317.514 68.3588 317.559C68.2579 317.637 68.1569 317.705 68.0559 317.794C67.9998 317.839 67.9437 317.884 67.8876 317.929C67.7978 318.008 67.6968 318.086 67.607 318.176C67.5509 318.221 67.4948 318.277 67.4387 318.333C67.4051 318.367 67.3714 318.401 67.3377 318.434C67.3041 318.468 67.2704 318.513 67.2367 318.547C67.1245 318.659 67.0123 318.771 66.9113 318.895C66.8777 318.928 66.844 318.962 66.8103 319.007C66.7767 319.041 66.7542 319.074 66.7318 319.108C66.6645 319.187 66.6084 319.265 66.541 319.344C66.4961 319.4 66.4513 319.445 66.4176 319.501C66.3839 319.546 66.3503 319.591 66.3166 319.636C66.2717 319.692 66.2268 319.759 66.182 319.815C66.1483 319.86 66.1146 319.905 66.0922 319.939C66.0361 320.006 65.9912 320.085 65.9463 320.163C65.9127 320.208 65.879 320.253 65.8565 320.309C65.8453 320.332 65.8341 320.354 65.8117 320.365C65.7219 320.5 65.6433 320.635 65.5536 320.781C65.5536 320.792 65.5424 320.803 65.5424 320.803C65.5311 320.826 65.5087 320.859 65.4975 320.882C65.4414 320.983 65.3853 321.084 65.3292 321.185C65.3067 321.23 65.2843 321.275 65.2618 321.331C65.2394 321.376 65.2169 321.432 65.1833 321.477C65.1608 321.522 65.1384 321.567 65.116 321.612C65.0599 321.724 65.0037 321.836 64.9589 321.96C64.9476 321.982 64.9364 322.005 64.9252 322.027C64.9252 322.038 64.9252 322.038 64.914 322.05C64.8466 322.195 64.7905 322.341 64.7344 322.487C64.7232 322.51 64.712 322.544 64.7008 322.566C64.6783 322.622 64.6671 322.678 64.6447 322.723C64.6222 322.802 64.5886 322.869 64.5661 322.948C64.5437 323.004 64.5325 323.06 64.51 323.116C64.4876 323.183 64.4651 323.251 64.4427 323.318C64.4315 323.363 64.4203 323.397 64.409 323.442C64.3866 323.52 64.3754 323.588 64.3529 323.666C64.3305 323.745 64.308 323.835 64.2856 323.913C64.2744 323.947 64.2744 323.969 64.2632 324.003C64.2519 324.059 64.2407 324.127 64.2295 324.183C64.2071 324.317 64.1846 324.441 64.1622 324.576C64.1622 324.609 64.1509 324.643 64.1397 324.688C64.1285 324.767 64.1285 324.845 64.1173 324.935C64.1173 324.991 64.1061 325.047 64.1061 325.103C64.0948 325.283 64.0836 325.463 64.0836 325.642C64.0836 327.192 64.6335 328.27 65.5087 328.786L96.4452 346.772L104.008 351.173L167.98 388.37C167.104 387.853 166.555 386.776 166.555 385.226C166.555 385.047 166.566 384.867 166.577 384.687C166.577 384.631 166.588 384.575 166.588 384.519C166.599 384.407 166.611 384.283 166.633 384.171C166.656 384.036 166.678 383.913 166.7 383.778C166.712 383.688 166.734 383.598 166.757 383.508C166.779 383.43 166.801 383.34 166.824 383.261C166.857 383.149 166.88 383.026 166.914 382.913C166.936 382.846 166.958 382.779 166.97 382.711C167.015 382.577 167.059 382.453 167.104 382.318C167.127 382.262 167.138 382.206 167.16 382.161C167.228 381.982 167.295 381.802 167.374 381.622C167.385 381.6 167.396 381.577 167.407 381.555C167.475 381.398 167.553 381.241 167.632 381.083C167.654 381.038 167.677 380.982 167.71 380.937C167.789 380.791 167.867 380.645 167.946 380.5C167.957 380.477 167.98 380.443 167.991 380.421C168.092 380.253 168.193 380.084 168.294 379.916C168.327 379.871 168.361 379.826 168.384 379.77C168.462 379.646 168.541 379.534 168.63 379.422C168.675 379.366 168.72 379.298 168.765 379.242C168.832 379.141 168.911 379.051 168.99 378.961C169.057 378.883 169.113 378.804 169.18 378.726C169.236 378.658 169.304 378.58 169.371 378.512C169.483 378.389 169.584 378.276 169.696 378.164C169.764 378.097 169.831 378.018 169.91 377.951C169.966 377.895 170.022 377.85 170.078 377.794C170.168 377.715 170.257 377.625 170.358 377.547C170.415 377.502 170.471 377.457 170.527 377.412C170.628 377.333 170.729 377.255 170.83 377.176C170.875 377.143 170.931 377.098 170.976 377.064C171.133 376.963 171.29 376.862 171.447 376.772C171.604 376.682 171.75 376.604 171.896 376.536C171.929 376.514 171.974 376.503 172.008 376.48C172.154 376.413 172.288 376.357 172.434 376.312C172.446 376.312 172.446 376.312 172.457 376.3C172.58 376.256 172.692 376.233 172.816 376.199C172.883 376.188 172.951 376.166 173.018 376.154C173.108 376.143 173.186 376.121 173.276 376.11C173.321 376.098 173.377 376.098 173.422 376.098C173.523 376.087 173.635 376.087 173.736 376.087C173.758 376.087 173.781 376.087 173.803 376.087C173.927 376.098 174.05 376.11 174.162 376.132C174.196 376.132 174.219 376.143 174.252 376.154C174.342 376.177 174.432 376.199 174.521 376.233C174.544 376.244 174.578 376.256 174.6 376.267C174.712 376.312 174.813 376.357 174.925 376.424L111.19 339.34Z" fill="white"/>
<path d="M171.447 380.758C172.221 380.309 172.861 380.668 172.861 381.566C172.861 382.464 172.232 383.542 171.458 384.002C170.684 384.452 170.044 384.092 170.044 383.194C170.044 382.296 170.661 381.207 171.447 380.758Z" fill="#4D578F"/>
<defs>
<linearGradient id="paint0_linear" x1="545.977" y1="369.987" x2="-385.346" y2="341.416" gradientUnits="userSpaceOnUse">
<stop stop-color="#A6A6E7"/>
<stop offset="1" stop-color="#EEEFFF"/>
</linearGradient>
<linearGradient id="paint1_linear" x1="410.294" y1="448.329" x2="195.887" y2="219.181" gradientUnits="userSpaceOnUse">
<stop stop-color="#E8EDFE"/>
<stop offset="1" stop-color="#EEF4FF"/>
</linearGradient>
<linearGradient id="paint2_linear" x1="143.017" y1="65.1835" x2="351.189" y2="331.413" gradientUnits="userSpaceOnUse">
<stop stop-color="#17BFA6"/>
<stop offset="1" stop-color="#17ECC7"/>
</linearGradient>
<linearGradient id="paint3_linear" x1="299.93" y1="382.341" x2="52.0899" y2="252.888" gradientUnits="userSpaceOnUse">
<stop stop-color="#17D6A6"/>
<stop offset="1" stop-color="#17ECC7"/>
</linearGradient>
<linearGradient id="paint4_linear" x1="141.627" y1="45.0721" x2="211.825" y2="216.366" gradientUnits="userSpaceOnUse">
<stop stop-color="#17BFA6"/>
<stop offset="1" stop-color="#17ECC7"/>
</linearGradient>
<linearGradient id="paint5_linear" x1="282.443" y1="192.051" x2="143.015" y2="51.0174" gradientUnits="userSpaceOnUse">
<stop stop-color="#17D6A6"/>
<stop offset="1" stop-color="#17ECC7"/>
</linearGradient>
<linearGradient id="paint6_linear" x1="479.68" y1="666.107" x2="209.789" y2="589.917" gradientUnits="userSpaceOnUse">
<stop stop-color="#17D6A6"/>
<stop offset="1" stop-color="#17ECC7"/>
</linearGradient>
<linearGradient id="paint7_linear" x1="454.944" y1="186.67" x2="506.661" y2="191.394" gradientUnits="userSpaceOnUse">
<stop stop-color="#17BFA6"/>
<stop offset="1" stop-color="#17ECC7"/>
</linearGradient>
<linearGradient id="paint8_linear" x1="204.556" y1="267.625" x2="352.072" y2="461.997" gradientUnits="userSpaceOnUse">
<stop stop-color="#17BFA6"/>
<stop offset="1" stop-color="#17ECC7"/>
</linearGradient>
<linearGradient id="paint9_linear" x1="361.131" y1="511.848" x2="149.445" y2="395.545" gradientUnits="userSpaceOnUse">
<stop stop-color="#17D6A6"/>
<stop offset="1" stop-color="#17ECC7"/>
</linearGradient>
<linearGradient id="paint10_linear" x1="332.218" y1="511.133" x2="131.541" y2="399.864" gradientUnits="userSpaceOnUse">
<stop stop-color="#17D6A6"/>
<stop offset="1" stop-color="#17ECC7"/>
</linearGradient>
<linearGradient id="paint11_linear" x1="323.547" y1="327.399" x2="367.512" y2="377.293" gradientUnits="userSpaceOnUse">
<stop stop-color="#17BFA6"/>
<stop offset="1" stop-color="#17ECC7"/>
</linearGradient>
</defs>
</svg>
