<svg width="270" height="185" viewBox="0 0 270 185" fill="none" xmlns="http://www.w3.org/2000/svg">
<rect x="0.222168" y="10.0833" width="66.0556" height="40.2778" rx="12.8889" fill="#407E43"/>
<path d="M11.9913 25.3333V19.9602H11.3227V25.3333H11.9913ZM15.1511 25.43C16.6011 25.43 17.1328 24.6325 17.1328 23.8511C17.1328 21.8452 13.9509 22.538 13.9509 21.3297C13.9509 20.8222 14.41 20.4758 15.0545 20.4758C15.6425 20.4758 16.2064 20.6772 16.6092 21.1202L17.012 20.6289C16.5609 20.1536 15.9245 19.8797 15.1028 19.8797C14.0475 19.8797 13.2581 20.4839 13.2581 21.37C13.2581 23.2872 16.44 22.5219 16.44 23.9075C16.44 24.3183 16.1339 24.8339 15.1753 24.8339C14.4181 24.8339 13.8381 24.4633 13.4836 24.0686L13.0889 24.5761C13.532 25.0755 14.2167 25.43 15.1511 25.43ZM20.2429 25.3333V20.5564H21.9507V19.9602H17.8745V20.5564H19.5743V25.3333H20.2429ZM23.1937 25.43C24.1523 25.43 24.9014 24.8822 24.9014 23.7141V19.9602H24.2328V23.7061C24.2328 24.3747 23.8139 24.8339 23.1534 24.8339C22.6862 24.8339 22.372 24.5841 22.1384 24.3022L21.792 24.8097C22.1626 25.2447 22.6217 25.43 23.1937 25.43Z" fill="white"/>
<path d="M14.0583 40.6111V32.0142H13.1174L10.965 34.2311L11.6094 34.8884L12.9886 33.432V40.6111H14.0583ZM18.5871 40.6111V32.0142H17.6462L15.4937 34.2311L16.1382 34.8884L17.5173 33.432V40.6111H18.5871ZM22.0202 40.3017C22.0202 39.6831 21.6336 39.3222 21.2082 39.3222C20.8216 39.3222 20.5251 39.6444 20.5251 40.0182C20.5251 40.4048 20.7829 40.6755 21.1438 40.6755C21.2082 40.6755 21.2985 40.6626 21.3242 40.6497C21.2727 41.0751 20.8989 41.5777 20.4865 41.8484L20.9634 42.248C21.5562 41.8226 22.0202 41.088 22.0202 40.3017ZM26.4504 40.7657C28.3322 40.7657 29.4664 39.4511 29.4664 37.956C29.4664 36.1257 28.2033 35.2106 26.6566 35.2106C25.5482 35.2106 24.5944 35.9582 24.2206 36.5511C24.2077 36.4351 24.2077 36.332 24.2077 36.216C24.2077 34.5275 24.9682 32.8391 26.6308 32.8391C27.5331 32.8391 28.0357 33.2 28.474 33.7155L29.0153 32.9164C28.4868 32.3106 27.7393 31.8853 26.6308 31.8853C24.2206 31.8853 23.138 33.9991 23.138 36.332C23.138 38.6648 24.0531 40.7657 26.4504 40.7657ZM26.4117 39.812C24.9166 39.812 24.3495 38.4973 24.2464 37.4275C24.7233 36.6671 25.5482 36.1386 26.3988 36.1386C27.5073 36.1386 28.3837 36.7315 28.3837 37.9946C28.3837 38.8195 27.7393 39.812 26.4117 39.812ZM32.7185 36.1257C33.9559 36.1257 34.8065 35.2235 34.8065 34.0248C34.8065 32.8133 33.9559 31.8853 32.7185 31.8853C31.4941 31.8853 30.6563 32.8133 30.6563 34.0248C30.6563 35.2235 31.4941 36.1257 32.7185 36.1257ZM32.6025 40.6111L38.1061 32.0142H37.3972L31.9065 40.6111H32.6025ZM37.2039 40.7657C38.4283 40.7657 39.279 39.8635 39.279 38.6648C39.279 37.4533 38.4283 36.5253 37.2039 36.5253C35.9794 36.5253 35.1416 37.4533 35.1416 38.6648C35.1416 39.8635 35.9794 40.7657 37.2039 40.7657ZM32.7185 35.4813C31.9581 35.4813 31.4296 34.8368 31.4296 34.0248C31.4296 33.1742 31.9581 32.5426 32.7185 32.5426C33.4919 32.5426 34.0332 33.1742 34.0332 34.0248C34.0332 34.8368 33.4919 35.4813 32.7185 35.4813ZM37.2039 40.1213C36.4305 40.1213 35.9021 39.4768 35.9021 38.6648C35.9021 37.8142 36.4305 37.1826 37.2039 37.1826C37.9772 37.1826 38.5185 37.8142 38.5185 38.6648C38.5185 39.4768 37.9772 40.1213 37.2039 40.1213Z" fill="white"/>
<rect x="67.8887" y="10.0833" width="66.0556" height="40.2778" rx="12.8889" fill="#407E43"/>
<path d="M79.6583 25.3333V19.9603H78.9897V25.3333H79.6583ZM82.8181 25.43C84.2681 25.43 84.7998 24.6325 84.7998 23.8511C84.7998 21.8453 81.6178 22.5381 81.6178 21.3297C81.6178 20.8222 82.077 20.4758 82.7215 20.4758C83.3095 20.4758 83.8734 20.6772 84.2762 21.1203L84.679 20.6289C84.2278 20.1536 83.5915 19.8797 82.7698 19.8797C81.7145 19.8797 80.9251 20.4839 80.9251 21.37C80.9251 23.2872 84.107 22.5219 84.107 23.9075C84.107 24.3183 83.8009 24.8339 82.8423 24.8339C82.0851 24.8339 81.5051 24.4633 81.1506 24.0686L80.7559 24.5761C81.199 25.0756 81.8837 25.43 82.8181 25.43ZM86.6279 25.3333V22.8844H89.4232V22.2883H86.6279V20.5564H89.4796V19.9603H85.9593V25.3333H86.6279ZM90.9393 25.43C91.8979 25.43 92.6471 24.8822 92.6471 23.7142V19.9603H91.9785V23.7061C91.9785 24.3747 91.5596 24.8339 90.899 24.8339C90.4318 24.8339 90.1177 24.5842 89.884 24.3022L89.5377 24.8097C89.9082 25.2447 90.3674 25.43 90.9393 25.43Z" fill="white"/>
<path d="M81.7253 40.6111V32.0142H80.7844L78.632 34.2311L79.2764 34.8884L80.6556 33.432V40.6111H81.7253ZM86.3185 40.7658C88.2132 40.7658 89.3603 39.7218 89.3603 38.2911C89.3603 36.912 88.1616 36.2418 87.3754 36.1773C88.1874 36.0355 89.2314 35.4169 89.2314 34.1795C89.2314 32.7231 87.9683 31.8853 86.3185 31.8853C84.991 31.8853 83.9985 32.4653 83.3798 33.2129L83.9727 33.8831C84.6043 33.2 85.3003 32.8391 86.2412 32.8391C87.2852 32.8391 88.1616 33.3547 88.1616 34.3084C88.1616 35.3009 87.2465 35.7262 86.1638 35.7262C85.8158 35.7262 85.4163 35.7262 85.2745 35.7133V36.6929C85.4034 36.68 85.803 36.68 86.1638 36.68C87.427 36.68 88.3034 37.1311 88.3034 38.2009C88.3034 39.1933 87.543 39.812 86.2927 39.812C85.2745 39.812 84.3981 39.348 83.8954 38.6778L83.2638 39.348C83.7923 40.1213 84.8621 40.7658 86.3185 40.7658ZM92.4941 40.3018C92.4941 39.6831 92.1074 39.3222 91.6821 39.3222C91.2954 39.3222 90.999 39.6444 90.999 40.0182C90.999 40.4049 91.2568 40.6755 91.6177 40.6755C91.6821 40.6755 91.7723 40.6627 91.7981 40.6498C91.7465 41.0751 91.3728 41.5778 90.9603 41.8484L91.4372 42.248C92.0301 41.8227 92.4941 41.088 92.4941 40.3018ZM97.1079 40.7658C98.7964 40.7658 100.188 39.8893 100.188 38.4329C100.188 37.2858 99.2088 36.4995 98.139 36.1773C99.1315 35.8938 100.059 35.2493 100.059 34.1151C100.059 32.5684 98.5257 31.8853 97.1079 31.8853C95.6772 31.8853 94.1692 32.5684 94.1692 34.1151C94.1692 35.2493 95.0844 35.8938 96.0768 36.1773C95.007 36.4995 94.0275 37.2858 94.0275 38.4329C94.0275 39.9022 95.4066 40.7658 97.1079 40.7658ZM97.1079 35.7391C96.5924 35.6489 95.239 35.3009 95.239 34.2569C95.239 33.3675 96.0639 32.8391 97.1079 32.8391C98.139 32.8391 98.9768 33.3675 98.9768 34.2569C98.9768 35.3009 97.6364 35.6489 97.1079 35.7391ZM97.1079 39.812C96.0381 39.812 95.0972 39.2449 95.0972 38.3169C95.0972 37.1955 96.5795 36.7187 97.1079 36.6542C97.6364 36.7187 99.1057 37.1955 99.1057 38.3169C99.1057 39.2449 98.1648 39.812 97.1079 39.812ZM103.469 36.1258C104.707 36.1258 105.557 35.2235 105.557 34.0249C105.557 32.8133 104.707 31.8853 103.469 31.8853C102.245 31.8853 101.407 32.8133 101.407 34.0249C101.407 35.2235 102.245 36.1258 103.469 36.1258ZM103.353 40.6111L108.857 32.0142H108.148L102.657 40.6111H103.353ZM107.955 40.7658C109.179 40.7658 110.03 39.8635 110.03 38.6649C110.03 37.4533 109.179 36.5253 107.955 36.5253C106.73 36.5253 105.892 37.4533 105.892 38.6649C105.892 39.8635 106.73 40.7658 107.955 40.7658ZM103.469 35.4813C102.709 35.4813 102.18 34.8369 102.18 34.0249C102.18 33.1742 102.709 32.5427 103.469 32.5427C104.243 32.5427 104.784 33.1742 104.784 34.0249C104.784 34.8369 104.243 35.4813 103.469 35.4813ZM107.955 40.1213C107.181 40.1213 106.653 39.4769 106.653 38.6649C106.653 37.8142 107.181 37.1827 107.955 37.1827C108.728 37.1827 109.269 37.8142 109.269 38.6649C109.269 39.4769 108.728 40.1213 107.955 40.1213Z" fill="white"/>
<rect x="135.556" y="10.0833" width="66.0556" height="40.2778" rx="12.8889" fill="#DC883A"/>
<path d="M147.325 25.3333V19.9603H146.656V25.3333H147.325ZM153.191 25.3333V19.9603H152.523V24.1572L149.429 19.9603H148.745V25.3333H149.413V21.0478L152.547 25.3333H153.191ZM155.278 25.3333V22.8844H158.073V22.2883H155.278V20.5564H158.129V19.9603H154.609V25.3333H155.278ZM159.589 25.43C160.548 25.43 161.297 24.8822 161.297 23.7142V19.9603H160.628V23.7061C160.628 24.3747 160.209 24.8339 159.549 24.8339C159.082 24.8339 158.768 24.5842 158.534 24.3022L158.188 24.8097C158.558 25.2447 159.017 25.43 159.589 25.43Z" fill="white"/>
<path d="M148.773 40.6111L152.292 32.7489V32.0142H146.427V32.968H151.054L147.587 40.6111H148.773ZM153.845 40.3018C153.845 39.6831 153.458 39.3222 153.033 39.3222C152.646 39.3222 152.349 39.6444 152.349 40.0182C152.349 40.4049 152.607 40.6755 152.968 40.6755C153.033 40.6755 153.123 40.6627 153.149 40.6498C153.097 41.0751 152.723 41.5778 152.311 41.8484L152.788 42.248C153.381 41.8227 153.845 41.088 153.845 40.3018ZM158.587 40.7658C160.314 40.7658 161.642 39.6831 161.642 37.9302C161.642 36.1644 160.34 35.1849 158.909 35.1849C158.046 35.1849 157.311 35.5458 156.899 35.9582V32.968H161.088V32.0142H155.829V36.6542L156.615 36.9249C157.195 36.3578 157.84 36.1129 158.6 36.1129C159.76 36.1129 160.572 36.8347 160.572 37.9689C160.572 39.0129 159.76 39.812 158.587 39.812C157.53 39.812 156.783 39.3995 156.216 38.6778L155.558 39.3867C156.203 40.2373 157.131 40.7658 158.587 40.7658ZM164.933 36.1258C166.17 36.1258 167.021 35.2235 167.021 34.0249C167.021 32.8133 166.17 31.8853 164.933 31.8853C163.709 31.8853 162.871 32.8133 162.871 34.0249C162.871 35.2235 163.709 36.1258 164.933 36.1258ZM164.817 40.6111L170.321 32.0142H169.612L164.121 40.6111H164.817ZM169.418 40.7658C170.643 40.7658 171.493 39.8635 171.493 38.6649C171.493 37.4533 170.643 36.5253 169.418 36.5253C168.194 36.5253 167.356 37.4533 167.356 38.6649C167.356 39.8635 168.194 40.7658 169.418 40.7658ZM164.933 35.4813C164.173 35.4813 163.644 34.8369 163.644 34.0249C163.644 33.1742 164.173 32.5427 164.933 32.5427C165.706 32.5427 166.248 33.1742 166.248 34.0249C166.248 34.8369 165.706 35.4813 164.933 35.4813ZM169.418 40.1213C168.645 40.1213 168.117 39.4769 168.117 38.6649C168.117 37.8142 168.645 37.1827 169.418 37.1827C170.192 37.1827 170.733 37.8142 170.733 38.6649C170.733 39.4769 170.192 40.1213 169.418 40.1213Z" fill="white"/>
<rect x="203.222" y="10.0833" width="66.0556" height="40.2778" rx="12.8889" fill="#F06868"/>
<path d="M214.991 25.3333V19.9603H214.323V25.3333H214.991ZM220.858 25.3333V19.9603H220.189V24.1572L217.096 19.9603H216.411V25.3333H217.08V21.0478L220.213 25.3333H220.858ZM224.273 25.3333V20.5564H225.981V19.9603H221.905V20.5564H223.605V25.3333H224.273ZM227.224 25.43C228.183 25.43 228.932 24.8822 228.932 23.7142V19.9603H228.263V23.7061C228.263 24.3747 227.844 24.8339 227.184 24.8339C226.717 24.8339 226.403 24.5842 226.169 24.3022L225.823 24.8097C226.193 25.2447 226.652 25.43 227.224 25.43Z" fill="white"/>
<path d="M220.293 40.6111V39.6573H216.079C218.476 37.7627 220.255 36.1644 220.255 34.4115C220.255 32.6973 218.798 31.8853 217.368 31.8853C216.156 31.8853 215.035 32.3751 214.377 33.2387L215.035 33.9218C215.537 33.2773 216.337 32.8391 217.368 32.8391C218.257 32.8391 219.159 33.316 219.159 34.4115C219.159 35.8938 217.484 37.3244 214.39 39.7604V40.6111H220.293ZM223.701 40.3018C223.701 39.6831 223.314 39.3222 222.889 39.3222C222.502 39.3222 222.206 39.6444 222.206 40.0182C222.206 40.4049 222.464 40.6755 222.825 40.6755C222.889 40.6755 222.979 40.6627 223.005 40.6498C222.954 41.0751 222.58 41.5778 222.167 41.8484L222.644 42.248C223.237 41.8227 223.701 41.088 223.701 40.3018ZM226.921 40.6111V32.0142H225.98L223.828 34.2311L224.472 34.8884L225.852 33.432V40.6111H226.921ZM230.548 36.1258C231.785 36.1258 232.636 35.2235 232.636 34.0249C232.636 32.8133 231.785 31.8853 230.548 31.8853C229.323 31.8853 228.486 32.8133 228.486 34.0249C228.486 35.2235 229.323 36.1258 230.548 36.1258ZM230.432 40.6111L235.935 32.0142H235.227L229.736 40.6111H230.432ZM235.033 40.7658C236.258 40.7658 237.108 39.8635 237.108 38.6649C237.108 37.4533 236.258 36.5253 235.033 36.5253C233.809 36.5253 232.971 37.4533 232.971 38.6649C232.971 39.8635 233.809 40.7658 235.033 40.7658ZM230.548 35.4813C229.787 35.4813 229.259 34.8369 229.259 34.0249C229.259 33.1742 229.787 32.5427 230.548 32.5427C231.321 32.5427 231.863 33.1742 231.863 34.0249C231.863 34.8369 231.321 35.4813 230.548 35.4813ZM235.033 40.1213C234.26 40.1213 233.731 39.4769 233.731 38.6649C233.731 37.8142 234.26 37.1827 235.033 37.1827C235.807 37.1827 236.348 37.8142 236.348 38.6649C236.348 39.4769 235.807 40.1213 235.033 40.1213Z" fill="white"/>
<rect x="0.222168" y="51.9722" width="66.0556" height="40.2778" rx="12.8889" fill="#DC883A"/>
<path d="M11.9913 67.2222V61.8491H11.3227V67.2222H11.9913ZM15.1511 67.3188C16.6011 67.3188 17.1328 66.5213 17.1328 65.74C17.1328 63.7341 13.9509 64.4269 13.9509 63.2186C13.9509 62.7111 14.41 62.3647 15.0545 62.3647C15.6425 62.3647 16.2064 62.5661 16.6092 63.0091L17.012 62.5177C16.5609 62.0425 15.9245 61.7686 15.1028 61.7686C14.0475 61.7686 13.2581 62.3727 13.2581 63.2588C13.2581 65.1761 16.44 64.4108 16.44 65.7963C16.44 66.2072 16.1339 66.7227 15.1753 66.7227C14.4181 66.7227 13.8381 66.3522 13.4836 65.9575L13.0889 66.465C13.532 66.9644 14.2167 67.3188 15.1511 67.3188ZM20.2429 67.2222V62.4452H21.9507V61.8491H17.8745V62.4452H19.5743V67.2222H20.2429ZM23.669 67.2222V65.0875H25.1593C26.2226 65.0875 26.8429 64.3463 26.8429 63.4683C26.8429 62.5902 26.2387 61.8491 25.1593 61.8491H23.0004V67.2222H23.669ZM25.0787 64.4913H23.669V62.4452H25.0787C25.7151 62.4452 26.1501 62.8641 26.1501 63.4683C26.1501 64.0725 25.7151 64.4913 25.0787 64.4913Z" fill="white"/>
<path d="M14.5739 82.6546C16.301 82.6546 17.6286 81.572 17.6286 79.8191C17.6286 78.0533 16.3268 77.0737 14.8961 77.0737C14.0326 77.0737 13.2979 77.4346 12.8854 77.8471V74.8569H17.0743V73.9031H11.8157V78.5431L12.6019 78.8137C13.1819 78.2466 13.8263 78.0017 14.5868 78.0017C15.7468 78.0017 16.5588 78.7235 16.5588 79.8577C16.5588 80.9017 15.7468 81.7009 14.5739 81.7009C13.517 81.7009 12.7694 81.2884 12.2023 80.5666L11.545 81.2755C12.1894 82.1262 13.1174 82.6546 14.5739 82.6546ZM20.7263 82.1906C20.7263 81.572 20.3397 81.2111 19.9143 81.2111C19.5277 81.2111 19.2312 81.5333 19.2312 81.9071C19.2312 82.2937 19.489 82.5644 19.8499 82.5644C19.9143 82.5644 20.0045 82.5515 20.0303 82.5386C19.9788 82.964 19.605 83.4666 19.1925 83.7373L19.6694 84.1369C20.2623 83.7115 20.7263 82.9769 20.7263 82.1906ZM27.1575 82.5V80.3217H28.369V79.3809H27.1575V73.9031H25.6881L22.0019 79.4324V80.3217H26.0877V82.5H27.1575ZM26.0877 79.3809H23.0717L26.0877 74.8955V79.3809ZM31.3994 78.0146C32.6368 78.0146 33.4874 77.1124 33.4874 75.9137C33.4874 74.7022 32.6368 73.7742 31.3994 73.7742C30.175 73.7742 29.3372 74.7022 29.3372 75.9137C29.3372 77.1124 30.175 78.0146 31.3994 78.0146ZM31.2834 82.5L36.787 73.9031H36.0781L30.5874 82.5H31.2834ZM35.8848 82.6546C37.1092 82.6546 37.9599 81.7524 37.9599 80.5537C37.9599 79.3422 37.1092 78.4142 35.8848 78.4142C34.6603 78.4142 33.8225 79.3422 33.8225 80.5537C33.8225 81.7524 34.6603 82.6546 35.8848 82.6546ZM31.3994 77.3702C30.639 77.3702 30.1105 76.7257 30.1105 75.9137C30.1105 75.0631 30.639 74.4315 31.3994 74.4315C32.1728 74.4315 32.7141 75.0631 32.7141 75.9137C32.7141 76.7257 32.1728 77.3702 31.3994 77.3702ZM35.8848 82.0102C35.1114 82.0102 34.583 81.3657 34.583 80.5537C34.583 79.7031 35.1114 79.0715 35.8848 79.0715C36.6581 79.0715 37.1994 79.7031 37.1994 80.5537C37.1994 81.3657 36.6581 82.0102 35.8848 82.0102Z" fill="white"/>
<rect x="67.8887" y="51.9722" width="66.0556" height="40.2778" rx="12.8889" fill="#24FF00" fill-opacity="0.25"/>
<path d="M79.6583 67.2222V61.8491H78.9897V67.2222H79.6583ZM82.8181 67.3188C84.2681 67.3188 84.7998 66.5213 84.7998 65.74C84.7998 63.7341 81.6178 64.4269 81.6178 63.2186C81.6178 62.7111 82.077 62.3647 82.7215 62.3647C83.3095 62.3647 83.8734 62.5661 84.2762 63.0091L84.679 62.5177C84.2278 62.0425 83.5915 61.7686 82.7698 61.7686C81.7145 61.7686 80.9251 62.3727 80.9251 63.2588C80.9251 65.1761 84.107 64.4108 84.107 65.7963C84.107 66.2072 83.8009 66.7227 82.8423 66.7227C82.0851 66.7227 81.5051 66.3522 81.1506 65.9575L80.7559 66.465C81.199 66.9644 81.8837 67.3188 82.8181 67.3188ZM86.6279 67.2222V64.7733H89.4232V64.1772H86.6279V62.4452H89.4796V61.8491H85.9593V67.2222H86.6279ZM91.218 67.2222V65.0875H92.7083C93.7716 65.0875 94.3919 64.3463 94.3919 63.4683C94.3919 62.5902 93.7877 61.8491 92.7083 61.8491H90.5494V67.2222H91.218ZM92.6277 64.4913H91.218V62.4452H92.6277C93.2641 62.4452 93.6991 62.8641 93.6991 63.4683C93.6991 64.0725 93.2641 64.4913 92.6277 64.4913Z" fill="white"/>
<path d="M81.7253 82.5V73.9031H80.7844L78.632 76.12L79.2764 76.7773L80.6556 75.3209V82.5H81.7253ZM89.4892 82.5V81.5462H85.2745C87.6718 79.6515 89.4505 78.0533 89.4505 76.3004C89.4505 74.5862 87.9941 73.7742 86.5634 73.7742C85.3518 73.7742 84.2305 74.264 83.5732 75.1275L84.2305 75.8106C84.7332 75.1662 85.5323 74.728 86.5634 74.728C87.4527 74.728 88.355 75.2049 88.355 76.3004C88.355 77.7826 86.6794 79.2133 83.5861 81.6493V82.5H89.4892ZM92.8969 82.1906C92.8969 81.572 92.5102 81.2111 92.0849 81.2111C91.6982 81.2111 91.4018 81.5333 91.4018 81.9071C91.4018 82.2937 91.6595 82.5644 92.0204 82.5644C92.0849 82.5644 92.1751 82.5515 92.2009 82.5386C92.1493 82.964 91.7755 83.4666 91.3631 83.7373L91.84 84.1369C92.4329 83.7115 92.8969 82.9769 92.8969 82.1906ZM97.5107 82.6546C99.1991 82.6546 100.591 81.7782 100.591 80.3217C100.591 79.1746 99.6116 78.3884 98.5418 78.0662C99.5342 77.7826 100.462 77.1382 100.462 76.004C100.462 74.4573 98.9285 73.7742 97.5107 73.7742C96.08 73.7742 94.572 74.4573 94.572 76.004C94.572 77.1382 95.4871 77.7826 96.4796 78.0662C95.4098 78.3884 94.4302 79.1746 94.4302 80.3217C94.4302 81.7911 95.8094 82.6546 97.5107 82.6546ZM97.5107 77.628C96.9951 77.5377 95.6418 77.1897 95.6418 76.1457C95.6418 75.2564 96.4667 74.728 97.5107 74.728C98.5418 74.728 99.3796 75.2564 99.3796 76.1457C99.3796 77.1897 98.0391 77.5377 97.5107 77.628ZM97.5107 81.7009C96.4409 81.7009 95.5 81.1337 95.5 80.2057C95.5 79.0844 96.9822 78.6075 97.5107 78.5431C98.0391 78.6075 99.5085 79.0844 99.5085 80.2057C99.5085 81.1337 98.5676 81.7009 97.5107 81.7009ZM103.872 78.0146C105.109 78.0146 105.96 77.1124 105.96 75.9137C105.96 74.7022 105.109 73.7742 103.872 73.7742C102.648 73.7742 101.81 74.7022 101.81 75.9137C101.81 77.1124 102.648 78.0146 103.872 78.0146ZM103.756 82.5L109.26 73.9031H108.551L103.06 82.5H103.756ZM108.357 82.6546C109.582 82.6546 110.433 81.7524 110.433 80.5537C110.433 79.3422 109.582 78.4142 108.357 78.4142C107.133 78.4142 106.295 79.3422 106.295 80.5537C106.295 81.7524 107.133 82.6546 108.357 82.6546ZM103.872 77.3702C103.112 77.3702 102.583 76.7257 102.583 75.9137C102.583 75.0631 103.112 74.4315 103.872 74.4315C104.645 74.4315 105.187 75.0631 105.187 75.9137C105.187 76.7257 104.645 77.3702 103.872 77.3702ZM108.357 82.0102C107.584 82.0102 107.056 81.3657 107.056 80.5537C107.056 79.7031 107.584 79.0715 108.357 79.0715C109.131 79.0715 109.672 79.7031 109.672 80.5537C109.672 81.3657 109.131 82.0102 108.357 82.0102Z" fill="white"/>
<rect x="135.556" y="51.9722" width="66.0556" height="40.2778" rx="12.8889" fill="#DC883A"/>
<path d="M147.325 67.2222V61.8491H146.656V67.2222H147.325ZM153.191 67.2222V61.8491H152.523V66.0461L149.429 61.8491H148.745V67.2222H149.413V62.9366L152.547 67.2222H153.191ZM155.278 67.2222V64.7733H158.073V64.1772H155.278V62.4452H158.129V61.8491H154.609V67.2222H155.278ZM159.868 67.2222V65.0875H161.358C162.421 65.0875 163.042 64.3463 163.042 63.4683C163.042 62.5902 162.438 61.8491 161.358 61.8491H159.199V67.2222H159.868ZM161.278 64.4913H159.868V62.4452H161.278C161.914 62.4452 162.349 62.8641 162.349 63.4683C162.349 64.0725 161.914 64.4913 161.278 64.4913Z" fill="white"/>
<path d="M149.998 82.6546C151.879 82.6546 153.014 81.34 153.014 79.8449C153.014 78.0146 151.75 77.0995 150.204 77.0995C149.095 77.0995 148.142 77.8471 147.768 78.44C147.755 78.324 147.755 78.2209 147.755 78.1049C147.755 76.4164 148.515 74.728 150.178 74.728C151.08 74.728 151.583 75.0889 152.021 75.6044L152.562 74.8053C152.034 74.1995 151.286 73.7742 150.178 73.7742C147.768 73.7742 146.685 75.888 146.685 78.2209C146.685 80.5537 147.6 82.6546 149.998 82.6546ZM149.959 81.7009C148.464 81.7009 147.897 80.3862 147.794 79.3164C148.27 78.556 149.095 78.0275 149.946 78.0275C151.054 78.0275 151.931 78.6204 151.931 79.8835C151.931 80.7084 151.286 81.7009 149.959 81.7009ZM156.072 82.1906C156.072 81.572 155.686 81.2111 155.26 81.2111C154.874 81.2111 154.577 81.5333 154.577 81.9071C154.577 82.2937 154.835 82.5644 155.196 82.5644C155.26 82.5644 155.351 82.5515 155.376 82.5386C155.325 82.964 154.951 83.4666 154.539 83.7373L155.016 84.1369C155.608 83.7115 156.072 82.9769 156.072 82.1906ZM160.364 82.6546C162.259 82.6546 163.406 81.6106 163.406 80.18C163.406 78.8009 162.207 78.1306 161.421 78.0662C162.233 77.9244 163.277 77.3057 163.277 76.0684C163.277 74.612 162.014 73.7742 160.364 73.7742C159.036 73.7742 158.044 74.3542 157.425 75.1017L158.018 75.772C158.65 75.0889 159.346 74.728 160.287 74.728C161.331 74.728 162.207 75.2435 162.207 76.1973C162.207 77.1897 161.292 77.6151 160.209 77.6151C159.861 77.6151 159.462 77.6151 159.32 77.6022V78.5817C159.449 78.5689 159.848 78.5689 160.209 78.5689C161.472 78.5689 162.349 79.02 162.349 80.0897C162.349 81.0822 161.588 81.7009 160.338 81.7009C159.32 81.7009 158.444 81.2369 157.941 80.5666L157.309 81.2369C157.838 82.0102 158.908 82.6546 160.364 82.6546ZM166.733 78.0146C167.97 78.0146 168.821 77.1124 168.821 75.9137C168.821 74.7022 167.97 73.7742 166.733 73.7742C165.508 73.7742 164.671 74.7022 164.671 75.9137C164.671 77.1124 165.508 78.0146 166.733 78.0146ZM166.617 82.5L172.12 73.9031H171.412L165.921 82.5H166.617ZM171.218 82.6546C172.443 82.6546 173.293 81.7524 173.293 80.5537C173.293 79.3422 172.443 78.4142 171.218 78.4142C169.994 78.4142 169.156 79.3422 169.156 80.5537C169.156 81.7524 169.994 82.6546 171.218 82.6546ZM166.733 77.3702C165.972 77.3702 165.444 76.7257 165.444 75.9137C165.444 75.0631 165.972 74.4315 166.733 74.4315C167.506 74.4315 168.048 75.0631 168.048 75.9137C168.048 76.7257 167.506 77.3702 166.733 77.3702ZM171.218 82.0102C170.445 82.0102 169.916 81.3657 169.916 80.5537C169.916 79.7031 170.445 79.0715 171.218 79.0715C171.992 79.0715 172.533 79.7031 172.533 80.5537C172.533 81.3657 171.992 82.0102 171.218 82.0102Z" fill="white"/>
<rect x="203.222" y="51.9722" width="66.0556" height="40.2778" rx="12.8889" fill="#F06868"/>
<path d="M214.991 67.2222V61.8491H214.323V67.2222H214.991ZM220.858 67.2222V61.8491H220.189V66.0461L217.096 61.8491H216.411V67.2222H217.08V62.9366L220.213 67.2222H220.858ZM224.273 67.2222V62.4452H225.981V61.8491H221.905V62.4452H223.605V67.2222H224.273ZM227.7 67.2222V65.0875H229.19C230.253 65.0875 230.873 64.3463 230.873 63.4683C230.873 62.5902 230.269 61.8491 229.19 61.8491H227.031V67.2222H227.7ZM229.109 64.4913H227.7V62.4452H229.109C229.746 62.4452 230.181 62.8641 230.181 63.4683C230.181 64.0725 229.746 64.4913 229.109 64.4913Z" fill="white"/>
<path d="M217.123 82.6546C219.017 82.6546 220.165 81.6106 220.165 80.18C220.165 78.8009 218.966 78.1306 218.18 78.0662C218.992 77.9244 220.036 77.3057 220.036 76.0684C220.036 74.612 218.773 73.7742 217.123 73.7742C215.795 73.7742 214.803 74.3542 214.184 75.1017L214.777 75.772C215.409 75.0889 216.105 74.728 217.045 74.728C218.089 74.728 218.966 75.2435 218.966 76.1973C218.966 77.1897 218.051 77.6151 216.968 77.6151C216.62 77.6151 216.221 77.6151 216.079 77.6022V78.5817C216.208 78.5689 216.607 78.5689 216.968 78.5689C218.231 78.5689 219.108 79.02 219.108 80.0897C219.108 81.0822 218.347 81.7009 217.097 81.7009C216.079 81.7009 215.202 81.2369 214.7 80.5666L214.068 81.2369C214.597 82.0102 215.666 82.6546 217.123 82.6546ZM223.298 82.1906C223.298 81.572 222.912 81.2111 222.486 81.2111C222.1 81.2111 221.803 81.5333 221.803 81.9071C221.803 82.2937 222.061 82.5644 222.422 82.5644C222.486 82.5644 222.577 82.5515 222.602 82.5386C222.551 82.964 222.177 83.4666 221.765 83.7373L222.241 84.1369C222.834 83.7115 223.298 82.9769 223.298 82.1906ZM227.59 82.6546C229.485 82.6546 230.632 81.6106 230.632 80.18C230.632 78.8009 229.433 78.1306 228.647 78.0662C229.459 77.9244 230.503 77.3057 230.503 76.0684C230.503 74.612 229.24 73.7742 227.59 73.7742C226.262 73.7742 225.27 74.3542 224.651 75.1017L225.244 75.772C225.876 75.0889 226.572 74.728 227.513 74.728C228.557 74.728 229.433 75.2435 229.433 76.1973C229.433 77.1897 228.518 77.6151 227.435 77.6151C227.087 77.6151 226.688 77.6151 226.546 77.6022V78.5817C226.675 78.5689 227.074 78.5689 227.435 78.5689C228.698 78.5689 229.575 79.02 229.575 80.0897C229.575 81.0822 228.814 81.7009 227.564 81.7009C226.546 81.7009 225.67 81.2369 225.167 80.5666L224.535 81.2369C225.064 82.0102 226.134 82.6546 227.59 82.6546ZM233.959 78.0146C235.196 78.0146 236.047 77.1124 236.047 75.9137C236.047 74.7022 235.196 73.7742 233.959 73.7742C232.734 73.7742 231.897 74.7022 231.897 75.9137C231.897 77.1124 232.734 78.0146 233.959 78.0146ZM233.843 82.5L239.346 73.9031H238.638L233.147 82.5H233.843ZM238.444 82.6546C239.669 82.6546 240.519 81.7524 240.519 80.5537C240.519 79.3422 239.669 78.4142 238.444 78.4142C237.22 78.4142 236.382 79.3422 236.382 80.5537C236.382 81.7524 237.22 82.6546 238.444 82.6546ZM233.959 77.3702C233.198 77.3702 232.67 76.7257 232.67 75.9137C232.67 75.0631 233.198 74.4315 233.959 74.4315C234.732 74.4315 235.274 75.0631 235.274 75.9137C235.274 76.7257 234.732 77.3702 233.959 77.3702ZM238.444 82.0102C237.671 82.0102 237.142 81.3657 237.142 80.5537C237.142 79.7031 237.671 79.0715 238.444 79.0715C239.218 79.0715 239.759 79.7031 239.759 80.5537C239.759 81.3657 239.218 82.0102 238.444 82.0102Z" fill="white"/>
<rect x="0.222168" y="93.8611" width="66.0556" height="40.2778" rx="12.8889" fill="#DC883A"/>
<path d="M14.8429 109.111V108.515H11.9913V106.662H14.7866V106.066H11.9913V104.334H14.8429V103.738H11.3227V109.111H14.8429ZM17.8101 109.208C19.2601 109.208 19.7918 108.41 19.7918 107.629C19.7918 105.623 16.6098 106.316 16.6098 105.107C16.6098 104.6 17.069 104.254 17.7134 104.254C18.3015 104.254 18.8654 104.455 19.2682 104.898L19.6709 104.407C19.2198 103.931 18.5834 103.657 17.7618 103.657C16.7065 103.657 15.917 104.262 15.917 105.148C15.917 107.065 19.099 106.3 19.099 107.685C19.099 108.096 18.7929 108.612 17.8343 108.612C17.077 108.612 16.497 108.241 16.1426 107.846L15.7479 108.354C16.1909 108.853 16.8757 109.208 17.8101 109.208ZM22.9018 109.111V104.334H24.6096V103.738H20.5335V104.334H22.2332V109.111H22.9018ZM26.328 109.111V106.976H27.8182C28.8816 106.976 29.5019 106.235 29.5019 105.357C29.5019 104.479 28.8977 103.738 27.8182 103.738H25.6594V109.111H26.328ZM27.7377 106.38H26.328V104.334H27.7377C28.3741 104.334 28.8091 104.753 28.8091 105.357C28.8091 105.961 28.3741 106.38 27.7377 106.38Z" fill="white"/>
<path d="M14.6641 124.543C16.5459 124.543 17.6801 123.229 17.6801 121.734C17.6801 119.903 16.417 118.988 14.8703 118.988C13.7619 118.988 12.8081 119.736 12.4343 120.329C12.4214 120.213 12.4214 120.11 12.4214 119.994C12.4214 118.305 13.1819 116.617 14.8446 116.617C15.7468 116.617 16.2494 116.978 16.6877 117.493L17.229 116.694C16.7006 116.088 15.953 115.663 14.8446 115.663C12.4343 115.663 11.3517 117.777 11.3517 120.11C11.3517 122.443 12.2668 124.543 14.6641 124.543ZM14.6254 123.59C13.1303 123.59 12.5632 122.275 12.4601 121.205C12.937 120.445 13.7619 119.916 14.6126 119.916C15.721 119.916 16.5974 120.509 16.5974 121.772C16.5974 122.597 15.953 123.59 14.6254 123.59ZM20.7389 124.079C20.7389 123.461 20.3522 123.1 19.9269 123.1C19.5402 123.1 19.2438 123.422 19.2438 123.796C19.2438 124.183 19.5016 124.453 19.8625 124.453C19.9269 124.453 20.0171 124.44 20.0429 124.427C19.9914 124.853 19.6176 125.355 19.2051 125.626L19.682 126.026C20.2749 125.6 20.7389 124.866 20.7389 124.079ZM25.0305 124.543C26.9252 124.543 28.0723 123.499 28.0723 122.069C28.0723 120.69 26.8736 120.019 26.0874 119.955C26.8994 119.813 27.9434 119.195 27.9434 117.957C27.9434 116.501 26.6803 115.663 25.0305 115.663C23.703 115.663 22.7105 116.243 22.0918 116.991L22.6847 117.661C23.3163 116.978 24.0123 116.617 24.9532 116.617C25.9972 116.617 26.8736 117.132 26.8736 118.086C26.8736 119.079 25.9585 119.504 24.8758 119.504C24.5278 119.504 24.1283 119.504 23.9865 119.491V120.471C24.1154 120.458 24.515 120.458 24.8758 120.458C26.139 120.458 27.0154 120.909 27.0154 121.979C27.0154 122.971 26.255 123.59 25.0047 123.59C23.9865 123.59 23.1101 123.126 22.6074 122.455L21.9758 123.126C22.5043 123.899 23.5741 124.543 25.0305 124.543ZM31.3994 119.903C32.6368 119.903 33.4874 119.001 33.4874 117.803C33.4874 116.591 32.6368 115.663 31.3994 115.663C30.175 115.663 29.3372 116.591 29.3372 117.803C29.3372 119.001 30.175 119.903 31.3994 119.903ZM31.2834 124.389L36.787 115.792H36.0781L30.5874 124.389H31.2834ZM35.8848 124.543C37.1092 124.543 37.9599 123.641 37.9599 122.443C37.9599 121.231 37.1092 120.303 35.8848 120.303C34.6603 120.303 33.8225 121.231 33.8225 122.443C33.8225 123.641 34.6603 124.543 35.8848 124.543ZM31.3994 119.259C30.639 119.259 30.1105 118.615 30.1105 117.803C30.1105 116.952 30.639 116.32 31.3994 116.32C32.1728 116.32 32.7141 116.952 32.7141 117.803C32.7141 118.615 32.1728 119.259 31.3994 119.259ZM35.8848 123.899C35.1114 123.899 34.583 123.255 34.583 122.443C34.583 121.592 35.1114 120.96 35.8848 120.96C36.6581 120.96 37.1994 121.592 37.1994 122.443C37.1994 123.255 36.6581 123.899 35.8848 123.899Z" fill="white"/>
<rect x="67.8887" y="93.861" width="66.0556" height="40.2778" rx="12.8889" fill="#DC883A"/>
<path d="M82.5099 109.111V108.515H79.6583V106.662H82.4536V106.066H79.6583V104.334H82.5099V103.738H78.9897V109.111H82.5099ZM85.4771 109.208C86.9271 109.208 87.4588 108.41 87.4588 107.629C87.4588 105.623 84.2768 106.316 84.2768 105.107C84.2768 104.6 84.736 104.254 85.3804 104.254C85.9685 104.254 86.5324 104.455 86.9351 104.898L87.3379 104.407C86.8868 103.931 86.2504 103.657 85.4288 103.657C84.3735 103.657 83.584 104.262 83.584 105.148C83.584 107.065 86.766 106.3 86.766 107.685C86.766 108.096 86.4599 108.612 85.5013 108.612C84.744 108.612 84.164 108.241 83.8096 107.846L83.4149 108.354C83.8579 108.853 84.5426 109.208 85.4771 109.208ZM89.2869 109.111V106.662H92.0821V106.066H89.2869V104.334H92.1385V103.738H88.6183V109.111H89.2869ZM93.877 109.111V106.976H95.3672C96.4306 106.976 97.0508 106.235 97.0508 105.357C97.0508 104.479 96.4467 103.738 95.3672 103.738H93.2083V109.111H93.877ZM95.2867 106.38H93.877V104.334H95.2867C95.9231 104.334 96.3581 104.753 96.3581 105.357C96.3581 105.961 95.9231 106.38 95.2867 106.38Z" fill="white"/>
<path d="M82.112 124.543C83.8004 124.543 85.1924 123.667 85.1924 122.211C85.1924 121.063 84.2129 120.277 83.1431 119.955C84.1356 119.671 85.0636 119.027 85.0636 117.893C85.0636 116.346 83.5298 115.663 82.112 115.663C80.6813 115.663 79.1733 116.346 79.1733 117.893C79.1733 119.027 80.0884 119.671 81.0809 119.955C80.0111 120.277 79.0316 121.063 79.0316 122.211C79.0316 123.68 80.4107 124.543 82.112 124.543ZM82.112 119.517C81.5964 119.427 80.2431 119.079 80.2431 118.035C80.2431 117.145 81.068 116.617 82.112 116.617C83.1431 116.617 83.9809 117.145 83.9809 118.035C83.9809 119.079 82.6404 119.427 82.112 119.517ZM82.112 123.59C81.0422 123.59 80.1013 123.023 80.1013 122.095C80.1013 120.973 81.5836 120.496 82.112 120.432C82.6404 120.496 84.1098 120.973 84.1098 122.095C84.1098 123.023 83.1689 123.59 82.112 123.59ZM88.28 124.079C88.28 123.461 87.8934 123.1 87.468 123.1C87.0814 123.1 86.7849 123.422 86.7849 123.796C86.7849 124.183 87.0427 124.453 87.4036 124.453C87.468 124.453 87.5583 124.44 87.584 124.427C87.5325 124.853 87.1587 125.355 86.7463 125.626L87.2231 126.026C87.816 125.6 88.28 124.866 88.28 124.079ZM93.0227 124.543C94.7499 124.543 96.0774 123.461 96.0774 121.708C96.0774 119.942 94.7756 118.963 93.345 118.963C92.4814 118.963 91.7467 119.323 91.3343 119.736V116.746H95.5232V115.792H90.2645V120.432L91.0507 120.703C91.6307 120.135 92.2752 119.891 93.0356 119.891C94.1956 119.891 95.0076 120.612 95.0076 121.747C95.0076 122.791 94.1956 123.59 93.0227 123.59C91.9659 123.59 91.2183 123.177 90.6512 122.455L89.9939 123.164C90.6383 124.015 91.5663 124.543 93.0227 124.543ZM99.3685 119.903C100.606 119.903 101.457 119.001 101.457 117.803C101.457 116.591 100.606 115.663 99.3685 115.663C98.1441 115.663 97.3063 116.591 97.3063 117.803C97.3063 119.001 98.1441 119.903 99.3685 119.903ZM99.2525 124.389L104.756 115.792H104.047L98.5565 124.389H99.2525ZM103.854 124.543C105.078 124.543 105.929 123.641 105.929 122.443C105.929 121.231 105.078 120.303 103.854 120.303C102.629 120.303 101.792 121.231 101.792 122.443C101.792 123.641 102.629 124.543 103.854 124.543ZM99.3685 119.259C98.6081 119.259 98.0796 118.615 98.0796 117.803C98.0796 116.952 98.6081 116.32 99.3685 116.32C100.142 116.32 100.683 116.952 100.683 117.803C100.683 118.615 100.142 119.259 99.3685 119.259ZM103.854 123.899C103.081 123.899 102.552 123.255 102.552 122.443C102.552 121.592 103.081 120.96 103.854 120.96C104.627 120.96 105.169 121.592 105.169 122.443C105.169 123.255 104.627 123.899 103.854 123.899Z" fill="white"/>
<rect x="135.556" y="93.861" width="66.0556" height="40.2778" rx="12.8889" fill="#F06868"/>
<path d="M150.176 109.111V108.515H147.325V106.662H150.12V106.066H147.325V104.334H150.176V103.738H146.656V109.111H150.176ZM155.85 109.111V103.738H155.182V107.935L152.088 103.738H151.404V109.111H152.072V104.825L155.206 109.111H155.85ZM157.937 109.111V106.662H160.732V106.066H157.937V104.334H160.788V103.738H157.268V109.111H157.937ZM162.527 109.111V106.976H164.017C165.08 106.976 165.701 106.235 165.701 105.357C165.701 104.479 165.097 103.738 164.017 103.738H161.858V109.111H162.527ZM163.937 106.38H162.527V104.334H163.937C164.573 104.334 165.008 104.753 165.008 105.357C165.008 105.961 164.573 106.38 163.937 106.38Z" fill="white"/>
<path d="M151.596 124.389V122.211H152.807V121.27H151.596V115.792H150.126L146.44 121.321V122.211H150.526V124.389H151.596ZM150.526 121.27H147.51L150.526 116.784V121.27ZM155.644 124.079C155.644 123.461 155.258 123.1 154.832 123.1C154.446 123.1 154.149 123.422 154.149 123.796C154.149 124.183 154.407 124.453 154.768 124.453C154.832 124.453 154.923 124.44 154.948 124.427C154.897 124.853 154.523 125.355 154.111 125.626L154.588 126.026C155.18 125.6 155.644 124.866 155.644 124.079ZM158.865 124.389V115.792H157.924L155.771 118.009L156.416 118.666L157.795 117.21V124.389H158.865ZM162.491 119.903C163.729 119.903 164.579 119.001 164.579 117.803C164.579 116.591 163.729 115.663 162.491 115.663C161.267 115.663 160.429 116.591 160.429 117.803C160.429 119.001 161.267 119.903 162.491 119.903ZM162.375 124.389L167.879 115.792H167.17L161.679 124.389H162.375ZM166.977 124.543C168.201 124.543 169.052 123.641 169.052 122.443C169.052 121.231 168.201 120.303 166.977 120.303C165.752 120.303 164.914 121.231 164.914 122.443C164.914 123.641 165.752 124.543 166.977 124.543ZM162.491 119.259C161.731 119.259 161.202 118.615 161.202 117.803C161.202 116.952 161.731 116.32 162.491 116.32C163.265 116.32 163.806 116.952 163.806 117.803C163.806 118.615 163.265 119.259 162.491 119.259ZM166.977 123.899C166.203 123.899 165.675 123.255 165.675 122.443C165.675 121.592 166.203 120.96 166.977 120.96C167.75 120.96 168.291 121.592 168.291 122.443C168.291 123.255 167.75 123.899 166.977 123.899Z" fill="white"/>
<rect x="203.222" y="93.861" width="66.0556" height="40.2778" rx="12.8889" fill="#F06868"/>
<path d="M217.843 109.111V108.515H214.991V106.662H217.787V106.066H214.991V104.334H217.843V103.738H214.323V109.111H217.843ZM223.517 109.111V103.738H222.848V107.935L219.755 103.738H219.07V109.111H219.739V104.825L222.872 109.111H223.517ZM226.932 109.111V104.334H228.64V103.738H224.564V104.334H226.264V109.111H226.932ZM230.359 109.111V106.976H231.849C232.912 106.976 233.532 106.235 233.532 105.357C233.532 104.479 232.928 103.738 231.849 103.738H229.69V109.111H230.359ZM231.768 106.38H230.359V104.334H231.768C232.405 104.334 232.84 104.753 232.84 105.357C232.84 105.961 232.405 106.38 231.768 106.38Z" fill="white"/>
<path d="M217.123 124.543C219.017 124.543 220.165 123.499 220.165 122.069C220.165 120.69 218.966 120.019 218.18 119.955C218.992 119.813 220.036 119.195 220.036 117.957C220.036 116.501 218.773 115.663 217.123 115.663C215.795 115.663 214.803 116.243 214.184 116.991L214.777 117.661C215.409 116.978 216.105 116.617 217.045 116.617C218.089 116.617 218.966 117.132 218.966 118.086C218.966 119.079 218.051 119.504 216.968 119.504C216.62 119.504 216.221 119.504 216.079 119.491V120.471C216.208 120.458 216.607 120.458 216.968 120.458C218.231 120.458 219.108 120.909 219.108 121.979C219.108 122.971 218.347 123.59 217.097 123.59C216.079 123.59 215.202 123.126 214.7 122.455L214.068 123.126C214.597 123.899 215.666 124.543 217.123 124.543ZM223.298 124.079C223.298 123.461 222.912 123.1 222.486 123.1C222.1 123.1 221.803 123.422 221.803 123.796C221.803 124.183 222.061 124.453 222.422 124.453C222.486 124.453 222.577 124.44 222.602 124.427C222.551 124.853 222.177 125.355 221.765 125.626L222.241 126.026C222.834 125.6 223.298 124.866 223.298 124.079ZM230.761 124.389V123.435H226.546C228.943 121.54 230.722 119.942 230.722 118.189C230.722 116.475 229.266 115.663 227.835 115.663C226.623 115.663 225.502 116.153 224.845 117.016L225.502 117.699C226.005 117.055 226.804 116.617 227.835 116.617C228.724 116.617 229.626 117.094 229.626 118.189C229.626 119.671 227.951 121.102 224.858 123.538V124.389H230.761ZM234.362 119.903C235.599 119.903 236.45 119.001 236.45 117.803C236.45 116.591 235.599 115.663 234.362 115.663C233.137 115.663 232.299 116.591 232.299 117.803C232.299 119.001 233.137 119.903 234.362 119.903ZM234.246 124.389L239.749 115.792H239.04L233.55 124.389H234.246ZM238.847 124.543C240.071 124.543 240.922 123.641 240.922 122.443C240.922 121.231 240.071 120.303 238.847 120.303C237.623 120.303 236.785 121.231 236.785 122.443C236.785 123.641 237.623 124.543 238.847 124.543ZM234.362 119.259C233.601 119.259 233.073 118.615 233.073 117.803C233.073 116.952 233.601 116.32 234.362 116.32C235.135 116.32 235.676 116.952 235.676 117.803C235.676 118.615 235.135 119.259 234.362 119.259ZM238.847 123.899C238.074 123.899 237.545 123.255 237.545 122.443C237.545 121.592 238.074 120.96 238.847 120.96C239.62 120.96 240.162 121.592 240.162 122.443C240.162 123.255 239.62 123.899 238.847 123.899Z" fill="white"/>
<rect x="0.222168" y="135.75" width="66.0556" height="40.2778" rx="12.8889" fill="#F06868"/>
<path d="M14.8429 150.194V149.598H11.9913V147.746H14.7866V147.149H11.9913V145.417H14.8429V144.821H11.3227V150.194H14.8429ZM17.8101 150.291C19.2601 150.291 19.7918 149.494 19.7918 148.712C19.7918 146.706 16.6098 147.399 16.6098 146.191C16.6098 145.683 17.069 145.337 17.7134 145.337C18.3015 145.337 18.8654 145.538 19.2682 145.981L19.6709 145.49C19.2198 145.015 18.5834 144.741 17.7618 144.741C16.7065 144.741 15.917 145.345 15.917 146.231C15.917 148.148 19.099 147.383 19.099 148.769C19.099 149.179 18.7929 149.695 17.8343 149.695C17.077 149.695 16.497 149.324 16.1426 148.93L15.7479 149.437C16.1909 149.937 16.8757 150.291 17.8101 150.291ZM22.9018 150.194V145.417H24.6096V144.821H20.5335V145.417H22.2332V150.194H22.9018ZM25.8526 150.291C26.8112 150.291 27.5604 149.743 27.5604 148.575V144.821H26.8918V148.567C26.8918 149.236 26.4729 149.695 25.8123 149.695C25.3451 149.695 25.031 149.445 24.7973 149.163L24.451 149.671C24.8215 150.106 25.2807 150.291 25.8526 150.291Z" fill="white"/>
<path d="M14.0583 166.278V157.681H13.1174L10.965 159.898L11.6094 160.555L12.9886 159.099V166.278H14.0583ZM17.4915 165.968C17.4915 165.35 17.1048 164.989 16.6795 164.989C16.2928 164.989 15.9964 165.311 15.9964 165.685C15.9964 166.072 16.2542 166.342 16.6151 166.342C16.6795 166.342 16.7697 166.329 16.7955 166.316C16.744 166.742 16.3702 167.244 15.9577 167.515L16.4346 167.915C17.0275 167.489 17.4915 166.755 17.4915 165.968ZM20.2441 166.278L23.7628 158.416V157.681H17.8983V158.635H22.5254L19.0583 166.278H20.2441ZM26.7549 161.792C27.9922 161.792 28.8429 160.89 28.8429 159.692C28.8429 158.48 27.9922 157.552 26.7549 157.552C25.5305 157.552 24.6927 158.48 24.6927 159.692C24.6927 160.89 25.5305 161.792 26.7549 161.792ZM26.6389 166.278L32.1425 157.681H31.4336L25.9429 166.278H26.6389ZM31.2402 166.432C32.4647 166.432 33.3153 165.53 33.3153 164.332C33.3153 163.12 32.4647 162.192 31.2402 162.192C30.0158 162.192 29.178 163.12 29.178 164.332C29.178 165.53 30.0158 166.432 31.2402 166.432ZM26.7549 161.148C25.9945 161.148 25.466 160.504 25.466 159.692C25.466 158.841 25.9945 158.209 26.7549 158.209C27.5282 158.209 28.0696 158.841 28.0696 159.692C28.0696 160.504 27.5282 161.148 26.7549 161.148ZM31.2402 165.788C30.4669 165.788 29.9385 165.144 29.9385 164.332C29.9385 163.481 30.4669 162.849 31.2402 162.849C32.0136 162.849 32.5549 163.481 32.5549 164.332C32.5549 165.144 32.0136 165.788 31.2402 165.788Z" fill="white"/>
<rect x="67.8887" y="135.75" width="66.0556" height="40.2778" rx="12.8889" fill="#F06868"/>
<path d="M82.5099 150.194V149.598H79.6583V147.746H82.4536V147.149H79.6583V145.417H82.5099V144.821H78.9897V150.194H82.5099ZM85.4771 150.291C86.9271 150.291 87.4588 149.494 87.4588 148.712C87.4588 146.706 84.2768 147.399 84.2768 146.191C84.2768 145.683 84.736 145.337 85.3804 145.337C85.9685 145.337 86.5324 145.538 86.9351 145.981L87.3379 145.49C86.8868 145.015 86.2504 144.741 85.4288 144.741C84.3735 144.741 83.584 145.345 83.584 146.231C83.584 148.148 86.766 147.383 86.766 148.769C86.766 149.179 86.4599 149.695 85.5013 149.695C84.744 149.695 84.164 149.324 83.8096 148.93L83.4149 149.437C83.8579 149.937 84.5426 150.291 85.4771 150.291ZM89.2869 150.194V147.746H92.0821V147.149H89.2869V145.417H92.1385V144.821H88.6183V150.194H89.2869ZM93.5983 150.291C94.5569 150.291 95.3061 149.743 95.3061 148.575V144.821H94.6375V148.567C94.6375 149.236 94.2186 149.695 93.558 149.695C93.0908 149.695 92.7766 149.445 92.543 149.163L92.1966 149.671C92.5672 150.106 93.0263 150.291 93.5983 150.291Z" fill="white"/>
<path d="M83.9293 166.278V164.1H85.1409V163.159H83.9293V157.681H82.46L78.7738 163.21V164.1H82.8596V166.278H83.9293ZM82.8596 163.159H79.8436L82.8596 158.673V163.159ZM87.9779 165.968C87.9779 165.35 87.5913 164.989 87.1659 164.989C86.7793 164.989 86.4828 165.311 86.4828 165.685C86.4828 166.072 86.7406 166.342 87.1015 166.342C87.1659 166.342 87.2562 166.329 87.2819 166.316C87.2304 166.742 86.8566 167.244 86.4442 167.515L86.9211 167.915C87.5139 167.489 87.9779 166.755 87.9779 165.968ZM94.4091 166.278V164.1H95.6207V163.159H94.4091V157.681H92.9398L89.2535 163.21V164.1H93.3393V166.278H94.4091ZM93.3393 163.159H90.3233L93.3393 158.673V163.159ZM98.6511 161.792C99.8884 161.792 100.739 160.89 100.739 159.692C100.739 158.48 99.8884 157.552 98.6511 157.552C97.4266 157.552 96.5888 158.48 96.5888 159.692C96.5888 160.89 97.4266 161.792 98.6511 161.792ZM98.5351 166.278L104.039 157.681H103.33L97.8391 166.278H98.5351ZM103.136 166.432C104.361 166.432 105.212 165.53 105.212 164.332C105.212 163.12 104.361 162.192 103.136 162.192C101.912 162.192 101.074 163.12 101.074 164.332C101.074 165.53 101.912 166.432 103.136 166.432ZM98.6511 161.148C97.8906 161.148 97.3622 160.504 97.3622 159.692C97.3622 158.841 97.8906 158.209 98.6511 158.209C99.4244 158.209 99.9657 158.841 99.9657 159.692C99.9657 160.504 99.4244 161.148 98.6511 161.148ZM103.136 165.788C102.363 165.788 101.835 165.144 101.835 164.332C101.835 163.481 102.363 162.849 103.136 162.849C103.91 162.849 104.451 163.481 104.451 164.332C104.451 165.144 103.91 165.788 103.136 165.788Z" fill="white"/>
<rect x="135.556" y="135.75" width="66.0556" height="40.2778" rx="12.8889" fill="#F06868"/>
<path d="M150.176 150.194V149.598H147.325V147.746H150.12V147.149H147.325V145.417H150.176V144.821H146.656V150.194H150.176ZM155.85 150.194V144.821H155.182V149.018L152.088 144.821H151.404V150.194H152.072V145.909L155.206 150.194H155.85ZM157.937 150.194V147.746H160.732V147.149H157.937V145.417H160.788V144.821H157.268V150.194H157.937ZM162.248 150.291C163.207 150.291 163.956 149.743 163.956 148.575V144.821H163.287V148.567C163.287 149.236 162.868 149.695 162.208 149.695C161.741 149.695 161.426 149.445 161.193 149.163L160.846 149.671C161.217 150.106 161.676 150.291 162.248 150.291Z" fill="white"/>
<path d="M152.627 166.278V165.324H148.412C150.81 163.429 152.588 161.831 152.588 160.078C152.588 158.364 151.132 157.552 149.701 157.552C148.49 157.552 147.368 158.042 146.711 158.905L147.368 159.588C147.871 158.944 148.67 158.506 149.701 158.506C150.59 158.506 151.493 158.983 151.493 160.078C151.493 161.56 149.817 162.991 146.724 165.427V166.278H152.627ZM156.035 165.968C156.035 165.35 155.648 164.989 155.223 164.989C154.836 164.989 154.54 165.311 154.54 165.685C154.54 166.072 154.797 166.342 155.158 166.342C155.223 166.342 155.313 166.329 155.339 166.316C155.287 166.742 154.913 167.244 154.501 167.515L154.978 167.915C155.571 167.489 156.035 166.755 156.035 165.968ZM160.777 166.432C162.504 166.432 163.832 165.35 163.832 163.597C163.832 161.831 162.53 160.852 161.1 160.852C160.236 160.852 159.501 161.212 159.089 161.625V158.635H163.278V157.681H158.019V162.321L158.805 162.592C159.385 162.024 160.03 161.78 160.79 161.78C161.95 161.78 162.762 162.501 162.762 163.636C162.762 164.68 161.95 165.479 160.777 165.479C159.72 165.479 158.973 165.066 158.406 164.344L157.748 165.053C158.393 165.904 159.321 166.432 160.777 166.432ZM167.123 161.792C168.36 161.792 169.211 160.89 169.211 159.692C169.211 158.48 168.36 157.552 167.123 157.552C165.899 157.552 165.061 158.48 165.061 159.692C165.061 160.89 165.899 161.792 167.123 161.792ZM167.007 166.278L172.511 157.681H171.802L166.311 166.278H167.007ZM171.608 166.432C172.833 166.432 173.684 165.53 173.684 164.332C173.684 163.12 172.833 162.192 171.608 162.192C170.384 162.192 169.546 163.12 169.546 164.332C169.546 165.53 170.384 166.432 171.608 166.432ZM167.123 161.148C166.363 161.148 165.834 160.504 165.834 159.692C165.834 158.841 166.363 158.209 167.123 158.209C167.896 158.209 168.438 158.841 168.438 159.692C168.438 160.504 167.896 161.148 167.123 161.148ZM171.608 165.788C170.835 165.788 170.307 165.144 170.307 164.332C170.307 163.481 170.835 162.849 171.608 162.849C172.382 162.849 172.923 163.481 172.923 164.332C172.923 165.144 172.382 165.788 171.608 165.788Z" fill="white"/>
<rect x="203.222" y="135.75" width="66.0556" height="40.2778" rx="12.8889" fill="#F06868"/>
<path d="M217.843 150.194V149.598H214.991V147.746H217.787V147.149H214.991V145.417H217.843V144.821H214.323V150.194H217.843ZM223.517 150.194V144.821H222.848V149.018L219.755 144.821H219.07V150.194H219.739V145.909L222.872 150.194H223.517ZM226.932 150.194V145.417H228.64V144.821H224.564V145.417H226.264V150.194H226.932ZM229.883 150.291C230.842 150.291 231.591 149.743 231.591 148.575V144.821H230.922V148.567C230.922 149.236 230.503 149.695 229.843 149.695C229.376 149.695 229.062 149.445 228.828 149.163L228.482 149.671C228.852 150.106 229.311 150.291 229.883 150.291Z" fill="white"/>
<path d="M217.058 166.278V157.681H216.117L213.965 159.898L214.609 160.555L215.989 159.099V166.278H217.058ZM220.492 165.968C220.492 165.35 220.105 164.989 219.68 164.989C219.293 164.989 218.996 165.311 218.996 165.685C218.996 166.072 219.254 166.342 219.615 166.342C219.68 166.342 219.77 166.329 219.796 166.316C219.744 166.742 219.37 167.244 218.958 167.515L219.435 167.915C220.028 167.489 220.492 166.755 220.492 165.968ZM225.105 166.432C226.794 166.432 228.186 165.556 228.186 164.1C228.186 162.952 227.206 162.166 226.136 161.844C227.129 161.56 228.057 160.916 228.057 159.782C228.057 158.235 226.523 157.552 225.105 157.552C223.675 157.552 222.167 158.235 222.167 159.782C222.167 160.916 223.082 161.56 224.074 161.844C223.004 162.166 222.025 162.952 222.025 164.1C222.025 165.569 223.404 166.432 225.105 166.432ZM225.105 161.406C224.59 161.316 223.236 160.968 223.236 159.924C223.236 159.034 224.061 158.506 225.105 158.506C226.136 158.506 226.974 159.034 226.974 159.924C226.974 160.968 225.634 161.316 225.105 161.406ZM225.105 165.479C224.036 165.479 223.095 164.912 223.095 163.984C223.095 162.862 224.577 162.385 225.105 162.321C225.634 162.385 227.103 162.862 227.103 163.984C227.103 164.912 226.162 165.479 225.105 165.479ZM231.467 161.792C232.704 161.792 233.555 160.89 233.555 159.692C233.555 158.48 232.704 157.552 231.467 157.552C230.242 157.552 229.404 158.48 229.404 159.692C229.404 160.89 230.242 161.792 231.467 161.792ZM231.351 166.278L236.854 157.681H236.145L230.655 166.278H231.351ZM235.952 166.432C237.176 166.432 238.027 165.53 238.027 164.332C238.027 163.12 237.176 162.192 235.952 162.192C234.728 162.192 233.89 163.12 233.89 164.332C233.89 165.53 234.728 166.432 235.952 166.432ZM231.467 161.148C230.706 161.148 230.178 160.504 230.178 159.692C230.178 158.841 230.706 158.209 231.467 158.209C232.24 158.209 232.781 158.841 232.781 159.692C232.781 160.504 232.24 161.148 231.467 161.148ZM235.952 165.788C235.179 165.788 234.65 165.144 234.65 164.332C234.65 163.481 235.179 162.849 235.952 162.849C236.725 162.849 237.267 163.481 237.267 164.332C237.267 165.144 236.725 165.788 235.952 165.788Z" fill="white"/>
</svg>
