<svg width="7" height="6" viewBox="0 0 7 6" fill="none" xmlns="http://www.w3.org/2000/svg">
<path d="M5.23766 3.43054H5.9648V2.74885H5.23766C5.19222 2.54435 5.10132 2.24895 5.01043 2.08989L5.53306 1.56726L4.89682 0.931021L4.37419 1.45365C4.21513 1.34003 3.89701 1.27186 3.71523 1.22642V0.476562H3.03354V1.2037C2.80631 1.27186 2.51091 1.34003 2.35185 1.45365L1.82923 0.931021L1.19298 1.56726L1.71561 2.08989C1.602 2.24895 1.53383 2.56707 1.48838 2.74885H0.738525V3.43054H1.46566C1.5111 3.63505 1.602 3.93044 1.69289 4.08951L1.17026 4.61213L1.8065 5.24837L2.32913 4.72575C2.48819 4.83936 2.80631 4.90753 2.98809 4.95298V5.68011H3.66978V4.95298C3.87429 4.90753 4.16969 4.81664 4.32875 4.72575L4.85137 5.24837L5.48761 4.61213L4.96499 4.08951C5.10132 3.93044 5.16949 3.63505 5.23766 3.43054Z" stroke="white" stroke-width="0.340844" stroke-miterlimit="10" stroke-linecap="round" stroke-linejoin="round"/>
<path d="M3.35017 4.11098C3.9149 4.11098 4.3727 3.65318 4.3727 3.08845C4.3727 2.52372 3.9149 2.06592 3.35017 2.06592C2.78544 2.06592 2.32764 2.52372 2.32764 3.08845C2.32764 3.65318 2.78544 4.11098 3.35017 4.11098Z" stroke="white" stroke-width="0.340844" stroke-miterlimit="10" stroke-linecap="round" stroke-linejoin="round"/>
</svg>
